<?xml version="1.0" encoding="utf-8"?>
<!-- Generator: Adobe Illustrator 25.2.1, SVG Export Plug-In . SVG Version: 6.00 Build 0)  -->
<svg version="1.1" id="Layer_1" xmlns="http://www.w3.org/2000/svg" xmlns:xlink="http://www.w3.org/1999/xlink" x="0px" y="0px"
	 viewBox="0 0 145 110" style="enable-background:new 0 0 145 110;" xml:space="preserve">
<style type="text/css">
	.st0{fill:#EFEFEF;}
	.st1{fill:#FFFFFF;}
	.st2{fill:#0066FF;}
	.st3{fill:#B4B7C1;}
	.st4{opacity:0.85;}
	.st5{fill:#D3D6E0;}
	.st6{opacity:0.6;fill:#FFFFFF;enable-background:new    ;}
	.st7{fill:#878787;}
</style>
<g>
	<g>
		<rect class="st0" width="145" height="110"/>
	</g>
	<g>
		<g>
			<g>
				<path class="st1" d="M40.4,95.2V14.8c0-1.8,1.5-3.3,3.3-3.3h57.6c1.8,0,3.3,1.5,3.3,3.3v80.4c0,1.8-1.5,3.3-3.3,3.3H43.7
					C41.9,98.5,40.4,97,40.4,95.2z"/>
			</g>
			<rect x="45.4" y="16.5" class="st2" width="54.2" height="53.7"/>
			<g>
				<g>
					<path class="st3" d="M94.4,77.8H50.6c-0.8,0-1.5-0.7-1.5-1.5l0,0c0-0.8,0.7-1.5,1.5-1.5h43.8c0.8,0,1.5,0.7,1.5,1.5l0,0
						C95.9,77.2,95.2,77.8,94.4,77.8z"/>
				</g>
				<g class="st4">
					<path class="st5" d="M89.6,83.9H55.4c-0.4,0-0.7-0.3-0.7-0.7V83c0-0.4,0.3-0.7,0.7-0.7h34.2c0.4,0,0.7,0.3,0.7,0.7v0.2
						C90.3,83.6,90,83.9,89.6,83.9z"/>
				</g>
			</g>
			<path class="st6" d="M67.3,52.4l-1,0.1L65.9,55c-0.1,0.8-0.7,1.5-1.5,1.7c-2,0.5-4,1.2-6,1.8c-3.1,1-5.4,3.8-5.8,7
				c-0.3,2.4-0.7,4.7-0.7,4.7h41.3c0,0-0.3-2.1-0.7-4.6c-0.5-3.3-2.8-6-6-7.1c-2-0.6-4-1.2-5.9-1.7c-0.8-0.2-1.4-0.9-1.5-1.7
				l-0.4-2.6l-1-0.1c0-0.5,0-1.1,0-1.8c1.1-1.4,1.9-3.1,2.4-4.8c0.2,0.1,0.4,0.2,0.6,0c0.2-0.2,0.4-0.5,0.5-1c0.6-1.7,0.9-3.7,1-6.1
				c0-0.3-0.3-0.6-0.6-0.4c-0.1,0.1-0.2,0.2-0.4,0.2c0.1-1.9,0.2-3.8,0.1-5.8c0-0.8-0.2-1.4-0.4-2c0,0,0,0,0-0.1
				c0-0.2-0.1-0.3-0.1-0.5c0.3,0.6,0.5,1.4,0.7,1.9c0,0.1,0.1,0.1,0.1,0c0-0.4-0.2-1-0.4-1.6c0,0,0,0,0,0c0-0.1-0.1-0.2-0.1-0.3
				c0,0-0.1-0.1-0.1-0.1c-0.3-0.7-0.7-1.4-1.3-1.9c0-0.1-0.1-0.2-0.1-0.2c-0.1-0.1-0.1-0.3-0.2-0.4c0,0-0.1-0.1-0.2-0.1
				c-0.1-0.5-0.4-0.7-0.8-0.8c0.1,0,0.1-0.1,0.1-0.1c0.1-0.1,0.1-0.3-0.1-0.3c-0.2-0.1-0.5-0.1-0.7,0c0-0.1,0-0.1-0.1-0.1
				c-0.2,0-0.3,0-0.5,0c-0.2-0.1-0.5-0.2-0.7-0.2c-0.1,0-0.1,0.1-0.1,0.1c-0.1,0-0.2,0-0.3,0c0,0,0,0,0,0c0,0,0.1-0.1,0.1-0.1
				c0.3,0,0.7-0.1,1.1-0.1c0.2,0,0.2-0.2,0-0.3c-0.2,0-0.5,0-0.8,0c0,0,0,0,0.1-0.1c0.1-0.1-0.1-0.2-0.1-0.1
				c-0.1,0.1-0.1,0.1-0.2,0.2c-0.3,0-0.5,0-0.8,0c0.3,0,0.5-0.1,0.8-0.3c0.1,0,0-0.1-0.1-0.1c-0.4,0.1-0.8,0.1-1.2,0.1
				c0,0,0-0.1,0-0.1c-0.3,0-0.5,0-0.8,0c-0.1,0-0.1,0-0.2,0c0.3-0.3,0.5-0.6,0.7-1c0.1-0.1-0.1-0.2-0.1-0.1
				c-0.3,0.5-0.7,0.8-1.1,1.1c-0.3,0-0.7,0-1,0.1c0.1-0.1,0.2-0.1,0.3-0.2c0.2-0.1,0.4-0.1,0.6-0.2c0.1,0,0-0.1,0-0.1
				c-0.1,0-0.2,0-0.3,0.1c0.3-0.3,0.5-0.6,0.7-1c0.1-0.1-0.1-0.2-0.2-0.1c-0.4,0.5-0.8,1-1.4,1.4c-0.2,0-0.3,0.1-0.5,0.2
				c0.3-0.4,0.5-0.8,0.6-1.2c0-0.1-0.1-0.2-0.2,0c-0.2,0.7-0.7,1.2-1.2,1.6c0,0-0.1,0-0.1,0c0,0,0,0-0.1,0c-0.1,0-0.2,0-0.2-0.1
				c0.3-0.2,0.6-0.4,0.9-0.6c0.1,0,0-0.2-0.1-0.1c-0.4,0.2-0.7,0.4-1.1,0.7c-0.1,0-0.1,0-0.1,0c-0.1,0-0.2,0.1-0.2,0.2
				c-0.6,0.3-1.1,0.7-1.6,1.1l0,0c0.2-0.2,0.5-0.5,0.7-0.7c0.1-0.1,0-0.2-0.1-0.2c-0.3,0.2-0.6,0.5-0.9,0.7c0,0-0.1,0-0.1-0.1
				c0,0,0,0-0.1,0c0.1-0.1,0.2-0.2,0.3-0.3c0.1-0.1,0-0.2-0.1-0.2c-0.4,0.2-0.8,0.6-1.1,0.9c0.1-0.2,0.2-0.3,0.2-0.5
				c0.1-0.1-0.1-0.2-0.1-0.1c-0.3,0.4-0.6,0.9-0.7,1.4c0,0-0.1,0-0.1,0c0-0.3,0.1-0.7,0.2-1c0-0.1-0.1-0.1-0.1-0.1
				c-0.1,0.2-0.2,0.5-0.3,0.9c-0.1-0.1-0.2-0.2-0.2-0.3c-0.1-0.1-0.2,0-0.1,0.1c0.1,0.1,0.1,0.3,0.2,0.4c-0.1,0-0.1,0-0.2,0.1
				c-0.1-0.1-0.2-0.1-0.2-0.2c-0.1,0-0.2,0.1-0.1,0.1c0.1,0,0.2,0.1,0.2,0.2c0,0.1-0.1,0.2-0.1,0.3c-0.3,0.2-0.7,0.4-0.9,0.6
				c-0.7,0.6-1.2,1.4-1.5,2.3c0,0.1,0.1,0.1,0.1,0c0.3-1,1-1.8,1.8-2.3c0,0,0,0,0.1,0c0,0,0,0,0,0c-0.3,0.2-0.6,0.5-0.8,0.7
				c-0.5,0.5-0.7,1.2-0.9,1.9c-0.1,0.1-0.1,0.2-0.2,0.4c-0.1,0.3-0.2,0.7-0.2,1c0,0.2-0.1,0.5-0.1,0.7c0,0.1,0.1,0.1,0.1,0
				c0-0.1,0-0.2,0.1-0.2c0,0.2,0,0.5,0,0.7c0,1.4,0,2.8,0.2,4.2c-0.1,0-0.1-0.1-0.2-0.1c-0.3-0.2-0.6,0.1-0.6,0.4
				c0.1,2.3,0.4,4.4,1,6.1c0.1,0.4,0.3,0.7,0.5,1c0.2,0.2,0.4,0.2,0.6,0c0.5,1.8,1.3,3.4,2.4,4.8C67.3,51.3,67.3,51.9,67.3,52.4z
				 M79.8,28.6c0.1,0.1,0.1,0.2,0.2,0.3c0,0,0,0-0.1,0C79.8,28.8,79.8,28.7,79.8,28.6C79.8,28.6,79.8,28.6,79.8,28.6
				C79.8,28.6,79.8,28.6,79.8,28.6z M76.1,26.5c-0.1,0-0.2-0.1-0.3-0.1c0,0-0.1,0-0.1,0c0,0,0,0,0.1,0c0.1,0,0.1,0,0.2,0
				C76,26.4,76,26.4,76.1,26.5C76.1,26.5,76.1,26.5,76.1,26.5z M77.7,26.5C77.6,26.5,77.6,26.5,77.7,26.5
				C77.6,26.5,77.6,26.5,77.7,26.5C77.6,26.5,77.7,26.5,77.7,26.5z M77.6,26.4C77.6,26.4,77.6,26.4,77.6,26.4
				C77.6,26.4,77.6,26.4,77.6,26.4C77.6,26.4,77.6,26.4,77.6,26.4z M80.7,30.1c-0.1-0.1-0.1-0.2-0.2-0.3c0-0.1,0-0.1-0.1-0.2
				c0-0.1-0.1-0.1-0.1-0.1c0,0,0,0,0,0c0.1,0,0.1,0.1,0.2,0.2C80.6,29.8,80.6,30,80.7,30.1z M78.6,27C78.6,27,78.5,27,78.6,27
				C78.5,27,78.6,27,78.6,27C78.6,27,78.6,27,78.6,27z M78,27c0.1,0,0.2,0,0.2,0c-0.1,0-0.2,0-0.3,0.1c-0.1,0-0.2,0-0.2-0.1
				c-0.1,0-0.1,0-0.2,0c0,0,0,0,0,0c0.1,0,0.2,0,0.2,0C77.8,26.9,77.9,26.9,78,27z M77.2,26.4C77.2,26.4,77.3,26.4,77.2,26.4
				c-0.1,0.1-0.2,0-0.4,0c0,0,0,0,0,0C77,26.4,77.1,26.4,77.2,26.4z M70.2,25.9C70.2,25.9,70.2,25.9,70.2,25.9
				c-0.1,0.1-0.1,0.1-0.1,0.2c-0.1,0.1-0.3,0.1-0.4,0.2c0,0,0,0,0,0C69.9,26.1,70,26,70.2,25.9C70.2,25.9,70.2,25.9,70.2,25.9z
				 M67.7,26.9c-0.1,0-0.2,0.1-0.3,0.1c0,0,0,0,0,0c0.1-0.1,0.2-0.2,0.2-0.3C67.7,26.8,67.7,26.9,67.7,26.9z"/>
		</g>
		<g>
			<path class="st7" d="M57.2,91.8v2.6H56v-2.6h-1v-1.1h1v-0.8c0-0.9,0.6-1.5,1.4-1.5c0.4,0,0.8,0.1,0.8,0.1v0.9h-0.5
				c-0.5,0-0.6,0.3-0.6,0.6v0.7h1l-0.2,1.1L57.2,91.8L57.2,91.8z"/>
			<path class="st7" d="M68.2,90.4c0,1.6-1.2,3.5-3.5,3.5c-0.7,0-1.3-0.2-1.9-0.6c0.1,0,0.2,0,0.3,0c0.6,0,1.1-0.2,1.5-0.5
				c-0.5,0-1-0.4-1.2-0.8c0.1,0,0.2,0,0.2,0c0.1,0,0.2,0,0.3,0c-0.6-0.1-1-0.6-1-1.2v0c0.2,0.1,0.3,0.2,0.6,0.2
				c-0.3-0.2-0.5-0.6-0.5-1c0-0.2,0.1-0.4,0.2-0.6c0.6,0.8,1.5,1.2,2.5,1.3c0-0.1,0-0.2,0-0.3c0-0.7,0.6-1.2,1.2-1.2
				c0.3,0,0.7,0.2,0.9,0.4c0.3-0.1,0.5-0.2,0.8-0.3c-0.1,0.3-0.3,0.5-0.5,0.7c0.2,0,0.5-0.1,0.7-0.2c-0.2,0.2-0.4,0.5-0.6,0.6
				C68.2,90.2,68.2,90.3,68.2,90.4z"/>
			<path class="st7" d="M73.1,89.1c0-0.3,0.3-0.6,0.6-0.6s0.6,0.3,0.6,0.6s-0.3,0.6-0.6,0.6C73.4,89.7,73.1,89.4,73.1,89.1z
				 M73.2,93.7v-3.5h1.1v3.5H73.2z M77.2,93.7V92c0-0.4,0-0.9-0.6-0.9c-0.6,0-0.7,0.4-0.7,0.9v1.7h-1.1v-3.5h1v0.5h0
				c0.2-0.3,0.5-0.6,1-0.6c1.1,0,1.3,0.7,1.3,1.7v1.9l0,0L77.2,93.7L77.2,93.7z"/>
			<path class="st7" d="M89.2,91.4c0,0,0,1.1-0.1,1.6c-0.1,0.3-0.3,0.5-0.6,0.6C88,93.7,86,93.7,86,93.7s-2,0-2.5-0.1
				c-0.3-0.1-0.5-0.3-0.6-0.6c-0.1-0.5-0.1-1.6-0.1-1.6s0-1.1,0.1-1.6c0.1-0.3,0.3-0.5,0.6-0.6c0.5-0.1,2.5-0.1,2.5-0.1s2,0,2.5,0.1
				c0.3,0.1,0.5,0.3,0.6,0.6C89.2,90.4,89.2,91.4,89.2,91.4z M87,91.4l-1.7-0.9v1.9L87,91.4z"/>
		</g>
	</g>
</g>
</svg>
