<?xml version="1.0" encoding="utf-8"?>
<!-- Generator: Adobe Illustrator 25.2.1, SVG Export Plug-In . SVG Version: 6.00 Build 0)  -->
<svg version="1.1" id="Layer_1" xmlns="http://www.w3.org/2000/svg" xmlns:xlink="http://www.w3.org/1999/xlink" x="0px" y="0px"
	 viewBox="0 0 145 110" style="enable-background:new 0 0 145 110;" xml:space="preserve">
<style type="text/css">
	.st0{fill:#EFEFEF;}
	.st1{fill:#FFFFFF;}
	.st2{fill:#0066FF;}
	.st3{fill:#B4B7C1;}
	.st4{opacity:0.85;}
	.st5{fill:#D3D6E0;}
	.st6{opacity:0.6;fill:#FFFFFF;enable-background:new    ;}
</style>
<g>
	<g>
		<rect class="st0" width="145" height="110"/>
	</g>
	<g>
		<path class="st1" d="M40.4,95.2V14.8c0-1.8,1.5-3.3,3.3-3.3h57.6c1.8,0,3.3,1.5,3.3,3.3v80.4c0,1.8-1.5,3.3-3.3,3.3H43.7
			C41.9,98.5,40.4,97,40.4,95.2z"/>
	</g>
	<rect x="45.4" y="16.5" class="st2" width="54.2" height="53.7"/>
	<g>
		<g>
			<path class="st3" d="M97.9,80.5H47.1c-0.8,0-1.5-0.7-1.5-1.5v-0.4c0-0.8,0.7-1.5,1.5-1.5h50.8c0.8,0,1.5,0.7,1.5,1.5V79
				C99.4,79.8,98.7,80.5,97.9,80.5z"/>
		</g>
		<g class="st4">
			<path class="st5" d="M92.3,89H52.7c-0.4,0-0.7-0.3-0.7-0.7v-0.5c0-0.4,0.3-0.7,0.7-0.7h39.5c0.4,0,0.7,0.3,0.7,0.7v0.5
				C93,88.7,92.7,89,92.3,89z"/>
		</g>
	</g>
	<path class="st6" d="M91.7,60c-0.7-2.7-2.7-4.8-5.3-5.6c-0.5-0.2-1.1-0.3-1.7-0.5c-0.5-1.4-1.7-2.4-3.1-2.8
		c-1.3-0.4-2.6-0.7-3.9-0.9c-0.1-0.6-0.1-1.3-0.1-2l0.1-0.1c1.6-1.4,2.6-3.2,2.9-5.3c0.2,0.1,0.4,0.1,0.6-0.1
		c0.2-0.2,0.4-0.5,0.5-0.9c0.5-1.6,0.7-3.5,0.7-5.6c0-0.3-0.3-0.5-0.6-0.3c-0.2,0.1-0.4,0.3-0.6,0.4c0.2-1.9,0.2-3.9-0.2-5.5
		c0-0.3,0-0.7-0.1-1c-0.2-1.2-0.6-2.4-1.2-3.5c-0.1-0.1-0.3,0-0.2,0.1c0.4,0.8,0.6,1.6,0.8,2.5c0,0,0-0.1-0.1-0.1
		c0-0.1,0-0.1-0.1-0.2c-0.2-0.6-0.4-1.2-0.7-1.8c0,0,0.1-0.1,0-0.1c-0.1,0-0.1-0.1-0.2-0.1c-0.2-0.4-0.5-0.9-0.8-1.3
		c-0.1-0.1-0.2,0-0.2,0.1c0.2,0.3,0.4,0.6,0.5,0.9c-0.2-0.1-0.4-0.2-0.6-0.3c-0.2-0.2-0.4-0.4-0.6-0.6c-0.1-0.1-0.2,0-0.1,0.1
		c0.1,0.1,0.2,0.3,0.3,0.4c-0.4-0.1-0.8-0.2-1.3-0.2c0.1-0.1,0.1-0.1,0.2-0.2c0,0,0.1-0.1,0.1-0.1l0.2-0.1c0,0-0.1,0-0.1,0
		c0.4-0.4,0.6-0.9,0.5-1.5c0-0.1-0.2-0.1-0.2,0c0,0.5-0.4,0.9-0.9,1.3c-0.1,0-0.2-0.1-0.3-0.1c0.5-0.3,0.9-0.6,1.1-1.3
		c0-0.1-0.1-0.1-0.1-0.1c-0.3,0.6-0.8,1-1.4,1.2c0.1-0.1,0.2-0.2,0.2-0.3c0,0,0,0,0,0c0.5-0.2,0.8-0.6,0.9-1.1c0-0.1-0.2-0.1-0.2,0
		c-0.1,0.3-0.3,0.4-0.5,0.6c0.1-0.3,0-0.6-0.1-0.9c0-0.1-0.1,0-0.1,0c0.1,0.4,0,0.8-0.2,1.1c-0.2,0.1-0.4,0.2-0.6,0.2
		c0.2-0.2,0.4-0.5,0.6-0.7c0.2-0.4-0.2-0.8-0.6-0.6c-0.2,0.1-0.5,0.2-0.8,0.3c0.3-0.3,0.6-0.8,0-1c-0.1,0-0.1,0.1-0.1,0.1
		c0,0.5-0.2,0.8-0.6,0.8c-0.1,0-0.2,0-0.2,0.1c-0.2,0.1-0.5,0.1-0.7,0.2c-0.1,0-0.1,0-0.2,0c0.1-0.1,0.2-0.1,0.4-0.2
		c0.2-0.1,0.1-0.6-0.2-0.5c-0.8,0.3-1.6,0.6-2.3,1c0.5-0.3,0.9-0.6,1.4-0.9c0.1,0,0-0.1-0.1-0.1c-1.5,0.9-3.1,1.6-4.6,2.4
		c-0.2,0.1-0.3,0.2-0.5,0.3c0.2-0.3,0.5-0.5,0.9-0.7c1.1-0.6,2.2-0.9,3.2-1.7c0.1,0,0-0.1-0.1-0.1c-1.2,0.8-2.7,1-3.9,1.8
		c-0.4,0.3-0.8,0.7-1,1.2c0.1-0.2,0.1-0.4,0.2-0.6c0.1-0.2-0.2-0.4-0.4-0.2c-0.7,0.9-1.1,2-1.3,3.2c-0.1,0.2-0.2,0.5-0.2,0.7
		c-0.7,2-0.9,4.4-0.7,7.2c-0.2-0.2-0.4-0.3-0.6-0.4c-0.3-0.2-0.6,0-0.6,0.3c0,2.1,0.2,4.1,0.7,5.6c0.1,0.4,0.3,0.7,0.5,0.9
		c0.2,0.2,0.4,0.2,0.6,0.1c0.3,2,1.4,3.9,2.9,5.3l0.1,0c0,0.7-0.1,1.4-0.1,2c-1.3,0.2-2.5,0.5-3.8,0.9c-1.4,0.4-2.5,1.5-3.1,2.9
		c-0.6,0.2-1.1,0.3-1.7,0.5c-2.6,0.8-4.7,2.9-5.3,5.6l-1.5,10.2h41.4L91.7,60z M79.3,26.8c-0.1-0.1-0.2-0.3-0.4-0.4
		c0.1,0,0.2,0.1,0.2,0.1C79.2,26.6,79.3,26.7,79.3,26.8z M79.1,27.2c-0.5-0.5-0.9-0.8-1.3-1c0.2,0,0.4,0.1,0.7,0.1
		C78.7,26.6,78.9,26.9,79.1,27.2z"/>
</g>
</svg>
