<?xml version="1.0" encoding="utf-8"?>
<!-- Generator: Adobe Illustrator 25.2.1, SVG Export Plug-In . SVG Version: 6.00 Build 0)  -->
<svg version="1.1" id="Layer_1" xmlns="http://www.w3.org/2000/svg" xmlns:xlink="http://www.w3.org/1999/xlink" x="0px" y="0px"
	 viewBox="0 0 145 110" style="enable-background:new 0 0 145 110;" xml:space="preserve">
<style type="text/css">
	.st0{fill:#EFEFEF;}
	.st1{fill:#A6A9B2;}
	.st2{opacity:0.85;}
	.st3{fill:#C5C8D3;}
	.st4{opacity:0.15;fill:#0066FF;}
	.st5{fill:#0066FF;}
	.st6{opacity:0.6;fill:#FFFFFF;enable-background:new    ;}
</style>
<g>
	<g>
		<rect class="st0" width="145" height="110"/>
	</g>
	<g>
		<g>
			<path class="st1" d="M106.7,83.6H38.3c-1.6,0-2.8-1.3-2.8-2.8l0,0c0-1.6,1.3-2.8,2.8-2.8h68.3c1.6,0,2.8,1.3,2.8,2.8l0,0
				C109.5,82.3,108.2,83.6,106.7,83.6z"/>
		</g>
		<g class="st2">
			<path class="st3" d="M48.3,94.7c-1,0-1.8-0.8-1.8-1.8s0.8-1.8,1.8-1.8h48.3c1,0,1.8,0.8,1.8,1.8s-0.8,1.8-1.8,1.8H48.3z"/>
		</g>
	</g>
	<path class="st4" d="M101.8,42.1c0,8.9-4,16.9-10.2,22.2c-5.1,4.4-11.8,7.1-19.1,7.1c-7.3,0-13.9-2.7-19-7.1
		C47.2,59,43.2,51,43.2,42.1c0-16.2,13.1-29.3,29.3-29.3C88.7,12.9,101.8,26,101.8,42.1z"/>
	<path class="st5" d="M99.3,42.1c0,8.2-3.6,15.5-9.4,20.4c-4.7,4-10.8,6.5-17.5,6.5c-6.7,0-12.8-2.4-17.5-6.5
		c-5.7-4.9-9.4-12.2-9.4-20.4c0-14.8,12-26.8,26.8-26.8C87.3,15.3,99.3,27.3,99.3,42.1z"/>
	<path class="st6" d="M89.5,56c-0.2-1.5-1.3-2.8-2.8-3.3c-3.3-1.1-7-2.2-10-2.9c-0.1-0.5-0.2-0.9-0.3-1.3l4.1,0
		c0.9-4.6,1.4-8.5,1.5-11.8c-0.1,3.9-0.8,7.8-1.3,11.7c0,0.1,0.1,0.1,0.1,0c0.7-2.6,0.9-5.5,1.2-8.2c0.3-2.7,0.5-5.4,0.1-8.1
		c-0.3-2.2-1.1-4.6-2.6-6.3C79,25,78,24.4,77,24c-2.8-1.6-6.2-1.5-9,0l-0.7,1.2c-0.8,0-1.6,0.3-2.2,0.8c-1.1,1-1.9,2.6-2,4
		c0,0,0,0,0,0c-0.5,1.8-0.7,3.9-0.8,5.4c-0.3,4.2,0.1,8.6,1.4,12.6c0,0.1,0.1,0,0.1,0c-1-3.8-1.4-7.7-1.2-11.7
		c0-0.6,0.1-1.2,0.1-1.7c0,1.3,0.1,2.6,0.2,4c0,3.2,0.4,6.6,1.4,9.6c0,0.1,0.1,0,0.1,0c-0.5-2.1-0.9-4.2-1.1-6.3
		c0.3,2.2,0.8,4.4,1.4,6.6l3.9,0c-0.1,0.4-0.2,0.8-0.3,1.2c-3,0.7-6.8,1.8-10.1,3c-1.4,0.5-2.5,1.8-2.7,3.3c-0.2,1-0.3,3.7-0.5,6.5
		c4.7,4,10.8,6.5,17.5,6.5c6.7,0,12.8-2.4,17.5-6.5C89.8,59.7,89.7,57.1,89.5,56z M66.9,25.7c-1.8,0-2.9,1.3-3.5,3.4
		c-0.1,0.2-0.2,0.5-0.3,0.7c0.3-1.9,2-4.5,4-4.4L66.9,25.7z"/>
</g>
</svg>
