<?xml version="1.0" encoding="utf-8"?>
<!-- Generator: Adobe Illustrator 25.2.1, SVG Export Plug-In . SVG Version: 6.00 Build 0)  -->
<svg version="1.1" id="Layer_1" xmlns="http://www.w3.org/2000/svg" xmlns:xlink="http://www.w3.org/1999/xlink" x="0px" y="0px"
	 viewBox="0 0 145 110" style="enable-background:new 0 0 145 110;" xml:space="preserve">
<style type="text/css">
	.st0{fill:#EFEFEF;}
	.st1{fill:#0066FF;}
	.st2{fill:#A6A9B2;}
	.st3{opacity:0.85;}
	.st4{fill:#C5C8D3;}
	.st5{fill:#878787;}
	.st6{opacity:0.6;fill:#FFFFFF;enable-background:new    ;}
</style>
<g>
	<g>
		<rect class="st0" width="145" height="110"/>
	</g>
	<path class="st1" d="M62.2,39.9v30.2c0,3.8-2.3,7.1-5.7,8.5c-1.1,0.4-2.2,0.7-3.5,0.7H22.8c-1.2,0-2.4-0.2-3.5-0.7
		c-3.3-1.4-5.7-4.7-5.7-8.5V39.9c0-5.1,4.1-9.2,9.2-9.2H53C58.1,30.7,62.2,34.8,62.2,39.9z"/>
	<g>
		<path class="st2" d="M134.5,41.7H73.2c-1.1,0-2.1-0.9-2.1-2l0,0c0-1.1,0.9-2,2.1-2h61.3c1.1,0,2.1,0.9,2.1,2l0,0
			C136.5,40.8,135.6,41.7,134.5,41.7z"/>
	</g>
	<g class="st3">
		<path class="st4" d="M119.8,53.7H72.3c-0.6,0-1.2-0.5-1.2-1.2l0,0c0-0.6,0.5-1.2,1.2-1.2h47.5c0.6,0,1.2,0.5,1.2,1.2l0,0
			C121,53.2,120.5,53.7,119.8,53.7z"/>
	</g>
	<g>
		<path class="st5" d="M74.1,68.7v3.7h-1.6v-3.7h-1.3v-1.5h1.3V66c0-1.3,0.8-2,2-2c0.6,0,1.2,0.1,1.2,0.1v1.3H75
			c-0.7,0-0.9,0.4-0.9,0.8v1h1.5l-0.2,1.5L74.1,68.7L74.1,68.7z"/>
		<path class="st5" d="M89.5,66.7c0,2.3-1.7,4.9-4.9,4.9c-1,0-1.9-0.3-2.6-0.8c0.1,0,0.3,0,0.4,0c0.8,0,1.6-0.3,2.1-0.7
			c-0.8,0-1.4-0.5-1.6-1.2c0.1,0,0.2,0,0.3,0c0.2,0,0.3,0,0.4-0.1c-0.8-0.2-1.4-0.8-1.4-1.7v0c0.2,0.1,0.5,0.2,0.8,0.2
			c-0.5-0.3-0.8-0.8-0.8-1.4c0-0.3,0.1-0.6,0.2-0.9c0.8,1,2.1,1.7,3.6,1.8c0-0.1,0-0.3,0-0.4c0-0.9,0.8-1.7,1.7-1.7
			c0.5,0,0.9,0.2,1.3,0.5c0.4-0.1,0.8-0.2,1.1-0.4c-0.1,0.4-0.4,0.7-0.8,0.9c0.3,0,0.7-0.1,1-0.3c-0.2,0.3-0.5,0.6-0.9,0.9
			C89.5,66.6,89.5,66.6,89.5,66.7z"/>
		<path class="st5" d="M96.3,64.9c0-0.5,0.4-0.9,0.9-0.9s0.9,0.4,0.9,0.9s-0.4,0.9-0.9,0.9C96.7,65.8,96.3,65.4,96.3,64.9z
			 M96.4,71.3v-4.9H98v4.9H96.4z M102.2,71.3v-2.4c0-0.6,0-1.3-0.8-1.3c-0.8,0-0.9,0.6-0.9,1.3v2.4h-1.5v-4.9h1.5v0.7h0
			c0.2-0.4,0.7-0.8,1.4-0.8c1.5,0,1.8,1,1.8,2.3v2.7l0,0H102.2z"/>
		<path class="st5" d="M118.8,68.2c0,0,0,1.5-0.2,2.2c-0.1,0.4-0.4,0.7-0.8,0.8c-0.7,0.2-3.5,0.2-3.5,0.2s-2.8,0-3.5-0.2
			c-0.4-0.1-0.7-0.4-0.8-0.8c-0.2-0.7-0.2-2.2-0.2-2.2s0-1.5,0.2-2.2c0.1-0.4,0.4-0.7,0.8-0.8c0.7-0.2,3.5-0.2,3.5-0.2
			s2.8,0,3.5,0.2c0.4,0.1,0.7,0.4,0.8,0.8C118.8,66.7,118.8,68.2,118.8,68.2z M115.8,68.2l-2.3-1.3v2.7L115.8,68.2z"/>
	</g>
	<path class="st6" d="M55.8,73.6c-0.3-2-1.7-3.7-3.6-4.3c-2.3-0.8-4.8-1.6-7.2-2.2c-0.3-0.2-0.5-0.4-0.5-0.8
		c-0.7-0.2-1.3-0.3-1.9-0.4c-0.3-1-0.5-1.8-0.6-3.1c0.7-0.6,1.3-1.3,1.8-2.1c0.3,1.1,1.1,1.8,1.9,1.8c1.2,0,2.1-1.4,2.1-3.1
		c0-1.2-0.5-2.3-1.2-2.8c0-0.1,0.1-0.2,0.1-0.3c0.5-1.5,0.7-3.4,0.7-5.5c0-0.3-0.3-0.5-0.6-0.3c-0.2,0.1-0.3,0.2-0.5,0.3
		c0.3-1.9,1.1-3.7,1.1-5.7c0-1.6-0.7-2.7-1.8-3.8c-1-1-2.4-2-3.9-2.1c0.5,0,1.1,0,1.6,0.3c1.6,0.7,3.3,2.1,3.8,3.8
		c0,0.1,0.1,0,0.1,0c-0.4-1.9-2.2-3.7-4.1-4.3c-0.9-0.3-2-0.2-2.9,0.2c-0.4-1.9-2.8-2.1-4.5-2c-2.4,0.2-4.3,1.7-6,3.2
		c-1.4,1.3-2.5,3-2.1,4.9c0,0.6,0,1.2,0.2,1.8c0.2,0.9,1,1.7,0.8,2.7c0,0.1,0.1,0.1,0.1,0c0.2-1.1-0.5-2-0.7-3c0-0.1,0-0.2,0-0.3
		c0.4,0.9,1,1.7,1.4,2.5c0,0.1,0.1,0.3,0.1,0.4c0,0.5,0,1,0,1.5c-0.2-0.2-0.5-0.4-0.7-0.5c-0.3-0.2-0.6,0-0.6,0.3
		c0,2.1,0.2,4,0.7,5.5c0,0,0,0.1,0,0.1c-0.9,0.3-1.6,1.5-1.6,3c0,1.7,1,3.1,2.1,3.1c1,0,1.8-1,2.1-2.4c0.6,0.9,1.3,1.8,2.1,2.6
		c-0.1,1.2-0.3,2.1-0.6,3.1c-0.6,0.1-1.3,0.2-1.9,0.4c-0.1,0.4-0.4,0.6-0.7,0.9c-2.2,0.6-4.6,1.3-6.9,2.1c-2,0.7-3.4,2.3-3.7,4.4
		c-0.3,1.9-0.6,3.9-0.7,4.9c1.1,0.4,2.2,0.7,3.5,0.7H53c1.2,0,2.4-0.2,3.5-0.7C56.3,77.6,56,75.5,55.8,73.6z M45.5,57.2
		c0.2,0.2,0.5,0.3,0.8,0.1c0.1-0.1,0.1-0.2,0.2-0.3c0.6,0.4,1.1,1.4,1.1,2.5c0,1.5-0.8,2.8-1.8,2.8c-0.8,0-1.5-0.8-1.7-1.9
		C44.6,59.4,45.1,58.3,45.5,57.2z M28.1,45.4c0-0.2,0.1-0.4,0.1-0.6c0,0.4,0,0.8,0.1,1.3C28.2,45.8,28.2,45.6,28.1,45.4z M28.1,43.9
		c0.1-0.7,0.5-1.4,0.9-2c0.3-0.4,0.6-0.7,0.9-1c-0.1,0.1-0.1,0.2-0.2,0.3C29.1,42.1,28.5,43,28.1,43.9z M29.6,62.3
		c-1,0-1.8-1.2-1.8-2.8c0-1.3,0.6-2.4,1.4-2.7c0.1,0.2,0.2,0.3,0.3,0.5c0.2,0.2,0.6,0.2,0.8-0.1c0.3,0.9,0.7,1.8,1.1,2.6
		C31.3,61.2,30.6,62.3,29.6,62.3z M30.1,41.3c0.5-0.8,1.1-1.6,1.9-1.9c0.2-0.1,0.5-0.2,0.7-0.2C31.7,39.8,30.8,40.5,30.1,41.3z
		 M34,38.5l-0.4,0.2c-0.3,0-0.6,0-0.9,0.1c-0.1,0-0.2,0-0.2,0c0.5-0.3,1-0.7,1.6-0.9c0.7-0.2,1.7-0.5,2.7-0.5
		C35.8,37.5,34.9,38,34,38.5z M38.4,38.2c0.4,0.2,0.7,0.5,1,0.8C39.1,38.7,38.8,38.5,38.4,38.2z M40.1,39.3c-0.4-0.8-1.2-1.5-2-1.7
		C39,37.8,39.9,38.3,40.1,39.3C40.1,39.3,40.1,39.3,40.1,39.3z"/>
</g>
</svg>
