<?xml version="1.0" encoding="utf-8"?>
<!-- Generator: Adobe Illustrator 25.2.1, SVG Export Plug-In . SVG Version: 6.00 Build 0)  -->
<svg version="1.1" id="Layer_1" xmlns="http://www.w3.org/2000/svg" xmlns:xlink="http://www.w3.org/1999/xlink" x="0px" y="0px"
	 viewBox="0 0 145 110" style="enable-background:new 0 0 145 110;" xml:space="preserve">
<style type="text/css">
	.st0{fill:#EFEFEF;}
	.st1{fill:#0066FF;}
	.st2{opacity:0.6;fill:#FFFFFF;enable-background:new    ;}
	.st3{opacity:0.8;fill:url(#SVGID_1_);enable-background:new    ;}
	.st4{fill:#FFFFFF;}
	.st5{opacity:0.85;}
	.st6{opacity:0.25;fill:#FFFFFF;enable-background:new    ;}
</style>
<g>
	<g>
		<rect class="st0" width="145" height="110"/>
	</g>
	<path class="st1" d="M36.5,92V18c0-2.2,1.8-4,4-4h63.9c2.2,0,4,1.8,4,4V92c0,2.2-1.8,4-4,4H40.5C38.3,96,36.5,94.2,36.5,92z"/>
	<path class="st2" d="M64.5,68.9L63,69l-0.5,3.8c-0.2,1.2-1.1,2.3-2.3,2.6c-3,0.8-6.2,1.8-9.3,2.8c-4.8,1.6-8.2,5.7-9,10.7
		c-0.5,3.6-1,7.1-1,7.1h63.2c0,0-0.5-3.3-1-7c-0.7-5.1-4.3-9.2-9.2-10.8c-3-1-6.1-1.9-9.1-2.7c-1.2-0.3-2.1-1.3-2.3-2.6L82,69
		l-1.5-0.1c0-0.8-0.1-1.7-0.1-2.7c1.6-2.2,2.9-4.7,3.6-7.4c0.3,0.2,0.7,0.2,0.9-0.1c0.3-0.3,0.6-0.8,0.8-1.5
		c0.9-2.5,1.3-5.7,1.5-9.3c0-0.5-0.4-0.9-0.8-0.6c-0.2,0.1-0.4,0.2-0.6,0.4c0.1-2.9,0.3-5.9,0.2-8.8c0-1.2-0.3-2.2-0.7-3.1
		c0,0,0.1-0.1,0-0.1c-0.1-0.2-0.1-0.5-0.2-0.7c0.5,0.9,0.8,2.1,1,2.8c0,0.1,0.2,0.1,0.2,0c-0.1-0.5-0.3-1.5-0.6-2.4c0,0,0,0,0,0
		c-0.1-0.2-0.1-0.3-0.2-0.5c0-0.1-0.1-0.2-0.1-0.2c-0.5-1-1.1-2.1-1.9-2.9c-0.1-0.1-0.1-0.3-0.2-0.4c-0.1-0.2-0.2-0.4-0.4-0.6
		c-0.1,0-0.2-0.1-0.3-0.1c-0.1-0.7-0.6-1-1.2-1.2c0.1-0.1,0.2-0.1,0.2-0.2c0.1-0.2,0.1-0.4-0.1-0.5c-0.4-0.1-0.7-0.1-1.1,0
		c0-0.1-0.1-0.2-0.2-0.2c-0.2,0-0.5,0-0.7-0.1c-0.3-0.2-0.7-0.2-1-0.3c-0.1,0-0.2,0.1-0.1,0.2c-0.2,0-0.3,0-0.5,0c0,0,0,0,0,0
		c0,0,0.1-0.1,0.1-0.1c0.5-0.1,1.1-0.1,1.6-0.1c0.2,0,0.2-0.4,0-0.4c-0.4,0-0.8-0.1-1.2-0.1c0,0,0.1-0.1,0.1-0.1
		c0.1-0.1-0.1-0.3-0.2-0.2c-0.1,0.1-0.2,0.2-0.2,0.3c-0.4,0-0.8,0-1.2,0c0.4-0.1,0.8-0.2,1.2-0.4c0.1,0,0-0.2-0.1-0.2
		c-0.6,0.1-1.2,0.2-1.8,0.2c0,0,0-0.1-0.1-0.1c-0.4-0.1-0.8,0-1.2,0c-0.1,0-0.2,0-0.3,0c0.4-0.4,0.8-0.9,1.1-1.5
		c0.1-0.1-0.1-0.3-0.2-0.1c-0.5,0.7-1,1.3-1.7,1.7c-0.5,0-1,0.1-1.5,0.2c0.1-0.1,0.3-0.2,0.4-0.3c0.3-0.1,0.6-0.2,0.8-0.3
		c0.1,0,0.1-0.2,0-0.2c-0.1,0-0.3,0.1-0.5,0.1c0.4-0.4,0.8-0.9,1.1-1.5c0.1-0.2-0.1-0.4-0.2-0.2c-0.6,0.8-1.3,1.5-2.1,2.1
		c-0.2,0.1-0.5,0.2-0.8,0.3c0.4-0.6,0.7-1.2,0.9-1.9c0.1-0.2-0.2-0.2-0.3-0.1c-0.4,1-1,1.8-1.8,2.4c0,0-0.1,0-0.1,0c0,0-0.1,0-0.1,0
		c-0.1,0-0.2-0.1-0.4-0.1c0.5-0.3,0.9-0.6,1.3-1c0.1-0.1,0-0.3-0.1-0.2c-0.6,0.3-1.1,0.7-1.7,1c-0.1,0-0.1,0-0.2-0.1
		c-0.2-0.1-0.3,0.2-0.2,0.3c-0.9,0.5-1.7,1.1-2.5,1.7c0,0,0,0,0,0c0.3-0.4,0.7-0.7,1.1-1c0.1-0.1,0-0.4-0.2-0.3
		c-0.5,0.3-0.9,0.7-1.3,1.1c-0.1,0-0.1-0.1-0.2-0.1c0,0-0.1,0-0.1,0c0.2-0.2,0.3-0.3,0.5-0.5c0.1-0.1,0-0.4-0.1-0.3
		c-0.6,0.4-1.2,0.9-1.6,1.4c0.1-0.2,0.2-0.5,0.4-0.7c0.1-0.1-0.1-0.3-0.2-0.1c-0.4,0.6-0.9,1.4-1.1,2.2c0,0-0.1,0-0.1,0.1
		c0.1-0.5,0.2-1,0.3-1.5c0-0.1-0.1-0.2-0.2-0.1c-0.2,0.4-0.3,0.8-0.5,1.3c-0.1-0.2-0.2-0.4-0.4-0.5c-0.1-0.1-0.2,0-0.2,0.1
		c0.1,0.2,0.2,0.4,0.3,0.6c-0.1,0-0.2,0-0.2,0.1c-0.1-0.1-0.2-0.2-0.4-0.2c-0.1-0.1-0.2,0.1-0.1,0.2c0.1,0.1,0.2,0.2,0.4,0.3
		c0,0.1-0.1,0.3-0.1,0.5c-0.5,0.2-1,0.6-1.5,0.9c-1.1,0.9-1.9,2.1-2.3,3.5c0,0.1,0.1,0.2,0.2,0c0.5-1.5,1.5-2.7,2.7-3.5
		c0,0,0,0,0.1,0c0,0,0,0,0,0.1c-0.4,0.3-0.8,0.7-1.2,1.1c-0.7,0.8-1,1.9-1.3,3c-0.1,0.2-0.2,0.4-0.2,0.6c-0.2,0.5-0.2,1-0.2,1.5
		c-0.1,0.4-0.1,0.7-0.2,1.1c0,0.1,0.1,0.1,0.1,0c0-0.1,0.1-0.2,0.1-0.3c0,0.3,0,0.7,0,1.1c0,2.1,0,4.3,0.3,6.5
		c-0.1-0.1-0.2-0.1-0.3-0.2c-0.4-0.2-0.9,0.1-0.8,0.6c0.2,3.5,0.7,6.7,1.5,9.3c0.2,0.6,0.5,1.1,0.8,1.5c0.3,0.3,0.7,0.3,0.9,0.1
		c0.8,2.7,2,5.2,3.7,7.4C64.6,67.2,64.6,68.1,64.5,68.9z M83.6,32.5c0.1,0.2,0.2,0.3,0.2,0.5c0,0-0.1,0-0.1,0
		C83.7,32.8,83.7,32.6,83.6,32.5C83.6,32.5,83.6,32.5,83.6,32.5L83.6,32.5z M78,29.2c-0.2,0-0.3-0.1-0.4-0.1c-0.1,0-0.1,0-0.2,0
		c0,0,0.1,0,0.1,0c0.1,0,0.2,0,0.3,0C77.8,29.1,77.9,29.2,78,29.2C78,29.2,78,29.2,78,29.2z M80.4,29.3
		C80.4,29.3,80.4,29.3,80.4,29.3C80.3,29.2,80.3,29.2,80.4,29.3C80.4,29.2,80.4,29.2,80.4,29.3z M80.3,29.1c0,0,0-0.1-0.1-0.1
		c0,0,0.1,0,0.1,0C80.3,29,80.3,29.1,80.3,29.1z M85,34.8c-0.1-0.2-0.2-0.3-0.3-0.4c0-0.1-0.1-0.2-0.1-0.2c-0.1-0.1-0.1-0.2-0.2-0.2
		l0,0c0.1,0.1,0.2,0.2,0.3,0.3C84.8,34.3,84.9,34.6,85,34.8z M81.8,30.1C81.8,30.1,81.8,30,81.8,30.1C81.8,30,81.8,30,81.8,30.1
		C81.8,30,81.8,30.1,81.8,30.1z M80.9,29.9c0.1,0,0.2,0,0.4,0c-0.2,0-0.3,0.1-0.5,0.1c-0.1,0-0.2-0.1-0.4-0.1c-0.1,0-0.2,0-0.2-0.1
		c0,0,0,0,0,0c0.1,0,0.2,0,0.3,0C80.7,29.9,80.8,29.9,80.9,29.9z M79.7,29c0,0,0.1,0.1,0.1,0.1c-0.2,0-0.4-0.1-0.6-0.1
		c0,0,0,0-0.1,0C79.3,29,79.5,29,79.7,29z M69.1,28.3C69,28.3,69,28.3,69.1,28.3c-0.1,0.1-0.2,0.2-0.2,0.2c-0.2,0.1-0.4,0.2-0.7,0.4
		c0,0,0,0,0,0C68.5,28.6,68.7,28.4,69.1,28.3C69.1,28.2,69.1,28.2,69.1,28.3z M65.1,29.9c-0.2,0-0.3,0.1-0.4,0.2h0
		c0.1-0.2,0.2-0.3,0.4-0.5C65.1,29.7,65.1,29.8,65.1,29.9z"/>
	
		<linearGradient id="SVGID_1_" gradientUnits="userSpaceOnUse" x1="72.505" y1="95.913" x2="72.505" y2="14.7822" gradientTransform="matrix(1 0 0 -1 0 110)">
		<stop  offset="0" style="stop-color:#3B4EFF;stop-opacity:0"/>
		<stop  offset="1" style="stop-color:#3B4EFF"/>
	</linearGradient>
	<path class="st3" d="M36.5,92V18c0-2.2,1.8-4,4-4h63.9c2.2,0,4,1.8,4,4V92c0,2.2-1.8,4-4,4H40.5C38.3,96,36.5,94.2,36.5,92z"/>
	<g>
		<g>
			<path class="st4" d="M100.1,80.6H45.8c-1,0-1.8-0.8-1.8-1.8l0,0c0-1,0.8-1.8,1.8-1.8h54.3c1,0,1.8,0.8,1.8,1.8l0,0
				C101.9,79.8,101.1,80.6,100.1,80.6z"/>
		</g>
		<g class="st5">
			<path class="st4" d="M87.3,88.5H44.8c-0.5,0-0.8-0.4-0.8-0.8v-0.4c0-0.4,0.4-0.8,0.8-0.8h42.5c0.4,0,0.8,0.4,0.8,0.8v0.4
				C88.1,88.1,87.8,88.5,87.3,88.5z"/>
		</g>
	</g>
	<g>
		<circle class="st6" cx="97.6" cy="24.9" r="5.9"/>
		<g>
			<path class="st4" d="M100.7,27.1c0,0.7-0.6,1.3-1.3,1.3S98,27.8,98,27.1l0,0c0-0.1,0-0.2,0-0.3l-1.4-0.9
				c-0.2,0.2-0.5,0.3-0.8,0.3c-0.7,0-1.3-0.6-1.3-1.3s0.6-1.3,1.3-1.3c0.3,0,0.6,0.1,0.8,0.3l1.4-0.9c0-0.1,0-0.2,0-0.3
				c0-0.7,0.6-1.3,1.3-1.3s1.3,0.6,1.3,1.3s-0.6,1.3-1.3,1.3c-0.3,0-0.6-0.1-0.8-0.3l-1.4,0.9c0,0.1,0,0.2,0,0.3c0,0.1,0,0.2,0,0.3
				l1.4,0.9c0.2-0.2,0.5-0.3,0.8-0.3C100.1,25.8,100.7,26.4,100.7,27.1z"/>
		</g>
	</g>
</g>
</svg>
