<?xml version="1.0" encoding="utf-8"?>
<!-- Generator: Adobe Illustrator 25.2.1, SVG Export Plug-In . SVG Version: 6.00 Build 0)  -->
<svg version="1.1" id="Layer_1" xmlns="http://www.w3.org/2000/svg" xmlns:xlink="http://www.w3.org/1999/xlink" x="0px" y="0px"
	 viewBox="0 0 145 110" style="enable-background:new 0 0 145 110;" xml:space="preserve">
<style type="text/css">
	.st0{fill:#EFEFEF;}
	.st1{fill:#FFFFFF;}
	.st2{fill:#0066FF;}
	.st3{fill:#B4B7C1;}
	.st4{opacity:0.85;}
	.st5{fill:#D3D6E0;}
	.st6{fill:#878787;}
	.st7{opacity:0.6;fill:#FFFFFF;enable-background:new    ;}
</style>
<g>
	<g>
		<rect class="st0" width="145" height="110"/>
	</g>
	<g>
		<path class="st1" d="M40.4,95.2V14.8c0-1.8,1.5-3.3,3.3-3.3h57.6c1.8,0,3.3,1.5,3.3,3.3v80.4c0,1.8-1.5,3.3-3.3,3.3H43.7
			C41.9,98.5,40.4,97,40.4,95.2z"/>
	</g>
	<path class="st2" d="M97.1,11.5v29c0,6.3-2.4,12-6.3,16.4c-0.6,0.7-1.3,1.4-2,2c-4.3,3.9-10.1,6.2-16.4,6.2c-6.3,0-12-2.4-16.3-6.2
		c-0.7-0.6-1.4-1.3-2-2c-3.9-4.3-6.3-10.1-6.3-16.4v-29H97.1z"/>
	<g>
		<g>
			<path class="st3" d="M94.4,73.8H50.6c-0.8,0-1.5-0.7-1.5-1.5l0,0c0-0.8,0.7-1.5,1.5-1.5h43.8c0.8,0,1.5,0.7,1.5,1.5l0,0
				C95.9,73.2,95.2,73.8,94.4,73.8z"/>
		</g>
		<g class="st4">
			<path class="st5" d="M89.6,79.9H55.4c-0.4,0-0.7-0.3-0.7-0.7V79c0-0.4,0.3-0.7,0.7-0.7h34.2c0.4,0,0.7,0.3,0.7,0.7v0.2
				C90.3,79.6,90,79.9,89.6,79.9z"/>
		</g>
	</g>
	<g>
		<path class="st6" d="M57.2,89.3v2.6H56v-2.6h-1v-1.1h1v-0.8c0-0.9,0.6-1.5,1.4-1.5c0.4,0,0.8,0.1,0.8,0.1v0.9h-0.5
			c-0.5,0-0.6,0.3-0.6,0.6v0.7h1l-0.2,1.1L57.2,89.3L57.2,89.3z"/>
		<path class="st6" d="M68.2,87.9c0,1.6-1.2,3.5-3.5,3.5c-0.7,0-1.3-0.2-1.9-0.6c0.1,0,0.2,0,0.3,0c0.6,0,1.1-0.2,1.5-0.5
			c-0.5,0-1-0.4-1.2-0.8c0.1,0,0.2,0,0.2,0c0.1,0,0.2,0,0.3,0c-0.6-0.1-1-0.6-1-1.2v0c0.2,0.1,0.3,0.2,0.6,0.2
			c-0.3-0.2-0.5-0.6-0.5-1c0-0.2,0.1-0.4,0.2-0.6c0.6,0.8,1.5,1.2,2.5,1.3c0-0.1,0-0.2,0-0.3c0-0.7,0.6-1.2,1.2-1.2
			c0.3,0,0.7,0.2,0.9,0.4c0.3-0.1,0.5-0.2,0.8-0.3c-0.1,0.3-0.3,0.5-0.5,0.7c0.2,0,0.5-0.1,0.7-0.2c-0.2,0.2-0.4,0.5-0.6,0.6
			C68.2,87.8,68.2,87.8,68.2,87.9z"/>
		<path class="st6" d="M73.1,86.6c0-0.3,0.3-0.6,0.6-0.6s0.6,0.3,0.6,0.6s-0.3,0.6-0.6,0.6C73.4,87.2,73.1,86.9,73.1,86.6z
			 M73.2,91.2v-3.5h1.1v3.5H73.2z M77.2,91.2v-1.7c0-0.4,0-0.9-0.6-0.9c-0.6,0-0.7,0.4-0.7,0.9v1.7h-1.1v-3.5h1v0.5h0
			c0.2-0.3,0.5-0.6,1-0.6c1.1,0,1.3,0.7,1.3,1.7v1.9l0,0L77.2,91.2L77.2,91.2z"/>
		<path class="st6" d="M89.2,88.9c0,0,0,1.1-0.1,1.6C89,90.8,88.8,91,88.5,91C88,91.2,86,91.2,86,91.2s-2,0-2.5-0.1
			c-0.3-0.1-0.5-0.3-0.6-0.6c-0.1-0.5-0.1-1.6-0.1-1.6s0-1.1,0.1-1.6c0.1-0.3,0.3-0.5,0.6-0.6c0.5-0.1,2.5-0.1,2.5-0.1s2,0,2.5,0.1
			c0.3,0.1,0.5,0.3,0.6,0.6C89.2,87.9,89.2,88.9,89.2,88.9z M87,88.9L85.3,88v1.9L87,88.9z"/>
	</g>
	<path class="st7" d="M88.6,51.7c-0.2-1.5-1.2-2.7-2.6-3.1c-2.1-0.7-4.4-1.4-6.5-2h0.1l-0.8-0.9L76.3,45c-0.1-0.7-0.2-1.4-0.2-2.3
		l0.2-0.2c1.5-1.3,2.5-2.9,3.1-4.8c0,0,0,0.1,0,0.1c-0.1,1.5-0.3,3.2-1.3,4.4c-0.1,0.1,0.1,0.3,0.2,0.2c1-1,1.5-2.3,1.7-3.8
		c0.1-0.5,0.1-1,0.1-1.5c0.1,0,0.2,0,0.3-0.1c0.2-0.2,0.3-0.5,0.4-0.8c0.4-1.4,0.6-3.1,0.6-5c0-0.3-0.3-0.5-0.5-0.3
		c-0.1,0-0.1,0.1-0.2,0.1c0.1-0.5,0.1-0.9,0.1-1.4c0.4-2.1,0.1-4.2-1.3-5.9c-0.3-0.4-0.8-0.9-1.4-1.3c-0.1-0.2-0.3-0.4-0.5-0.6
		c-0.9-1-2.3-1.8-3.7-1.4c-0.4,0.1-0.8,0.3-1.1,0.6c0-0.1,0-0.2-0.1-0.3c-0.1-0.5-0.3-1-0.7-1.4c-0.6-0.6-1.4-0.8-2.2-0.6
		c-0.3,0.1-0.5,0.2-0.7,0.4c-0.3-0.3-0.7-0.5-1.2-0.5c-0.5,0-1,0.4-1.3,0.8c-0.4,0.1-0.8,0.3-1.1,0.6c-0.1,0.2-0.2,0.4-0.2,0.5
		c-0.1,0.1-0.2,0.3-0.3,0.5c-0.2,0.5,0,1,0.4,1.4c0,0.3,0,0.6,0.1,0.9c-0.8,0.7-1.4,1.8-1.8,2.7c-0.4,1.1-0.1,2.3,0.1,3.4
		c0.1,0.5,0.2,0.9,0.4,1.4c-0.2-0.1-0.5,0-0.5,0.3c0,1.9,0.2,3.6,0.6,5c0.1,0.3,0.2,0.6,0.4,0.8c0,0,0,0,0.1,0
		c0,0.5,0.1,1.1,0.2,1.6c0.3,1.5,1,3,0.8,4.6c0,0,0.1,0.1,0.1,0c0.3-1.4-0.1-2.7-0.3-4.1c-0.1-0.7-0.2-1.4-0.2-2.1
		c0,0,0.1-0.1,0.1-0.1c0.5,2.1,1.6,4.1,3.3,5.5l0.2,0.2c0,0.9-0.1,1.6-0.2,2.3l-2.4,0.8l-0.7,0.8c-2.2,0.6-4.5,1.3-6.6,2.1
		c-1.3,0.5-2.3,1.7-2.5,3.1c-0.1,0.6-0.2,4.1-0.3,7.2c4.3,3.9,10.1,6.2,16.4,6.2c6.3,0,12-2.4,16.4-6.2
		C88.8,55.9,88.7,52.4,88.6,51.7z M80,27.5c0,0,0,0.1,0,0.1C80,27.5,80,27.5,80,27.5C80,27.5,80,27.5,80,27.5z M77.9,23.3
		c-0.1,0-0.1,0-0.2-0.1c0,0-0.1-0.1-0.1-0.1C77.7,23.2,77.8,23.2,77.9,23.3z M65.5,22c-0.1-0.1-0.1-0.3-0.1-0.5
		c0,0.1,0.1,0.2,0.2,0.2C65.6,21.8,65.5,21.9,65.5,22z M66,22.2c0,0.1,0,0.2,0,0.3c0,0,0,0,0,0C66,22.4,66,22.3,66,22.2z M65.7,23.2
		c0-0.2,0-0.3,0-0.5c0,0,0.1,0,0.1,0C65.8,22.9,65.8,23,65.7,23.2C65.8,23.2,65.7,23.2,65.7,23.2z M65.8,22.4
		C65.8,22.3,65.7,22.3,65.8,22.4L65.8,22.4c-0.1-0.2-0.1-0.3,0-0.4c0,0,0.1,0.1,0.1,0.1C65.8,22.2,65.8,22.3,65.8,22.4z M66,23v-0.1
		c0,0,0,0,0.1,0C66,23,66,23,66,23C66,23,66,23,66,23z M66.6,22.6L66.6,22.6C66.6,22.7,66.6,22.7,66.6,22.6c-0.1,0.1-0.1,0.1-0.2,0
		c0-0.1,0-0.1,0-0.2C66.5,22.5,66.6,22.6,66.6,22.6C66.6,22.6,66.6,22.6,66.6,22.6z M66.6,21.5c0-0.1-0.1-0.2-0.1-0.4
		c0.1-0.1,0.2-0.2,0.3-0.3C66.8,21.1,66.7,21.3,66.6,21.5z M66.6,20.9c0-0.1,0-0.1,0.1-0.2c0.1,0,0.2-0.1,0.2-0.1
		C66.8,20.7,66.7,20.8,66.6,20.9z M67.2,20.9c0.1-0.1,0.2-0.3,0.2-0.4c0,0,0.1,0,0.1,0C67.4,20.6,67.3,20.7,67.2,20.9z M67.6,19.9
		C67.5,19.9,67.5,19.9,67.6,19.9C67.5,19.9,67.6,19.8,67.6,19.9C67.6,19.8,67.6,19.9,67.6,19.9z M68,19.8C68,19.8,68,19.8,68,19.8
		c0.1,0,0.2,0,0.2,0C68.1,19.8,68.1,19.8,68,19.8z M68.2,19.3c-0.2,0-0.5,0-0.7,0c-0.1,0-0.1,0-0.1,0c0.1-0.1,0.2-0.1,0.3-0.1
		c0.2-0.1,0.5,0,0.7,0.1C68.3,19.3,68.3,19.3,68.2,19.3z M70.4,19.5c-0.1,0-0.2,0-0.3,0c0.1,0,0.3,0,0.4,0
		C70.5,19.5,70.5,19.5,70.4,19.5z M70.6,19.6C70.7,19.6,70.7,19.6,70.6,19.6c0.1,0,0.2,0,0.2,0.1C70.8,19.6,70.7,19.6,70.6,19.6z
		 M69.7,19.1c-0.2,0.1-0.3,0.2-0.4,0.3l-0.1-0.1c0.9-0.5,1.9-0.6,2.7,0.4c0,0,0.1,0.1,0.1,0.1c-0.2-0.2-0.5-0.3-0.8-0.3
		C70.8,19,70.3,18.9,69.7,19.1z M71.6,20.1c-0.1-0.2-0.1-0.3-0.2-0.5c0.5,0.1,0.8,0.5,1,1c0,0.1,0,0.3,0,0.4
		C72.2,20.6,71.9,20.4,71.6,20.1z M76.5,22.6c-0.1-0.1-0.2-0.1-0.3-0.2c0.2,0,0.3,0.1,0.5,0.1c0.1,0.1,0.1,0.1,0.2,0.2
		C76.7,22.7,76.6,22.6,76.5,22.6z M73.9,20.9c0.3-0.1,0.7-0.1,1.1-0.1c0.7,0.1,1.3,0.4,1.8,0.9c-0.2-0.1-0.3-0.1-0.5-0.2
		c-0.2-0.2-0.5-0.3-0.8-0.4C75,21,74.4,20.9,73.9,20.9z"/>
</g>
</svg>
