<?xml version="1.0" encoding="utf-8"?>
<!-- Generator: Adobe Illustrator 25.2.1, SVG Export Plug-In . SVG Version: 6.00 Build 0)  -->
<svg version="1.1" id="Layer_1" xmlns="http://www.w3.org/2000/svg" xmlns:xlink="http://www.w3.org/1999/xlink" x="0px" y="0px"
	 viewBox="0 0 145 110" style="enable-background:new 0 0 145 110;" xml:space="preserve">
<style type="text/css">
	.st0{fill:#EFEFEF;}
	.st1{fill:#0066FF;}
	.st2{opacity:0.6;fill:#FFFFFF;enable-background:new    ;}
	.st3{fill:#FFFFFF;}
	.st4{fill:#B4B7C1;}
	.st5{opacity:0.85;}
	.st6{fill:#FFFFFF;stroke:#0066FF;stroke-width:1.5;stroke-miterlimit:10;}
</style>
<g>
	<g>
		<rect class="st0" width="145" height="110"/>
	</g>
	<g>
		<path class="st1" d="M36.5,92V18c0-2.2,1.8-4,4-4h63.9c2.2,0,4,1.8,4,4V92c0,2.2-1.8,4-4,4H40.5C38.3,96,36.5,94.2,36.5,92z"/>
		<path class="st2" d="M64.2,68l-1.6,0.1L62.1,72c-0.2,1.3-1.1,2.3-2.4,2.7c-3.1,0.8-6.4,1.8-9.6,2.9c-4.9,1.7-8.5,5.9-9.3,11.1
			c-0.6,3.8-1.1,7.3-1.1,7.3h65.4c0,0-0.5-3.4-1.1-7.2c-0.8-5.2-4.4-9.6-9.5-11.2c-3.1-1-6.3-1.9-9.4-2.8c-1.3-0.3-2.2-1.4-2.4-2.7
			l-0.6-4.1L80.8,68c0-0.8-0.1-1.7-0.1-2.8c1.7-2.2,3-4.8,3.8-7.6c0.3,0.2,0.7,0.2,1-0.1c0.3-0.4,0.6-0.8,0.8-1.5
			c0.9-2.6,1.4-5.9,1.6-9.6c0-0.5-0.5-0.9-0.9-0.7c-0.2,0.1-0.4,0.2-0.6,0.4c0.1-3,0.3-6.1,0.2-9.1c0-1.2-0.3-2.3-0.7-3.2
			c0,0,0.1-0.1,0-0.1c-0.1-0.2-0.1-0.5-0.2-0.8c0.5,1,0.8,2.2,1.1,3c0,0.1,0.2,0.1,0.2,0c-0.1-0.6-0.3-1.5-0.6-2.5c0,0,0,0,0,0
			c-0.1-0.2-0.2-0.3-0.2-0.5c0-0.1-0.1-0.2-0.1-0.2c-0.5-1-1.2-2.2-2-3c-0.1-0.1-0.1-0.3-0.2-0.4c-0.1-0.2-0.2-0.4-0.4-0.6
			c-0.1,0-0.2-0.1-0.3-0.1c-0.1-0.8-0.6-1.1-1.2-1.3c0.1-0.1,0.2-0.1,0.2-0.2c0.1-0.2,0.1-0.4-0.1-0.5c-0.4-0.1-0.8-0.1-1.1,0
			c0-0.1-0.1-0.2-0.2-0.2c-0.2,0-0.5,0-0.7-0.1c-0.3-0.2-0.8-0.3-1-0.3c-0.1,0-0.2,0.1-0.1,0.2c-0.2,0-0.4,0-0.5,0c0,0,0,0,0,0
			c0,0,0.1-0.1,0.1-0.1c0.6-0.1,1.1-0.1,1.7-0.1c0.2,0,0.2-0.4,0-0.4c-0.4,0-0.8-0.1-1.2-0.1c0,0,0.1-0.1,0.1-0.1
			c0.1-0.1-0.1-0.3-0.2-0.2c-0.1,0.1-0.2,0.2-0.3,0.3c-0.4,0-0.8,0-1.3,0c0.4-0.1,0.8-0.2,1.2-0.4c0.1,0,0-0.2-0.1-0.2
			c-0.6,0.1-1.2,0.2-1.8,0.2c0-0.1,0-0.1-0.1-0.1c-0.4-0.1-0.8,0-1.2,0c-0.1,0-0.2,0-0.3,0c0.4-0.4,0.8-0.9,1.1-1.5
			c0.1-0.1-0.1-0.3-0.2-0.1c-0.5,0.7-1.1,1.3-1.7,1.7c-0.5,0-1.1,0.1-1.6,0.2c0.2-0.1,0.3-0.2,0.4-0.4c0.3-0.1,0.6-0.2,0.9-0.3
			c0.1,0,0.1-0.2,0-0.2c-0.1,0-0.3,0.1-0.5,0.1c0.4-0.5,0.8-1,1.1-1.6c0.1-0.2-0.1-0.4-0.2-0.2c-0.6,0.9-1.3,1.6-2.2,2.1
			c-0.3,0.1-0.5,0.2-0.8,0.3c0.4-0.6,0.7-1.2,0.9-2c0.1-0.2-0.2-0.3-0.3-0.1c-0.4,1.1-1,1.9-1.8,2.5c0,0-0.1,0-0.1,0
			c0,0-0.1,0-0.1,0c-0.1,0-0.2-0.1-0.4-0.1c0.5-0.3,0.9-0.7,1.4-1c0.1-0.1,0-0.3-0.1-0.2c-0.6,0.4-1.2,0.7-1.8,1
			c-0.1,0-0.2,0-0.2-0.1c-0.2-0.1-0.3,0.2-0.2,0.3c-0.9,0.5-1.8,1.1-2.6,1.7c0,0,0,0,0,0c0.4-0.4,0.7-0.7,1.1-1.1
			c0.2-0.1-0.1-0.4-0.2-0.3c-0.5,0.4-0.9,0.7-1.4,1.1c-0.1,0-0.1-0.1-0.2-0.1c0,0-0.1,0-0.1,0c0.2-0.2,0.4-0.3,0.6-0.5
			c0.2-0.1,0-0.4-0.1-0.3c-0.6,0.4-1.2,0.9-1.7,1.5c0.1-0.3,0.2-0.5,0.4-0.8c0.1-0.2-0.1-0.3-0.2-0.1c-0.4,0.6-0.9,1.4-1.2,2.3
			c0,0-0.1,0-0.1,0.1c0.1-0.5,0.2-1.1,0.3-1.6c0-0.1-0.1-0.2-0.2-0.1c-0.2,0.4-0.3,0.8-0.5,1.3c-0.1-0.2-0.2-0.4-0.4-0.5
			c-0.1-0.1-0.2,0-0.2,0.1c0.1,0.2,0.2,0.4,0.3,0.7c-0.1,0-0.2,0-0.2,0.1c-0.1-0.1-0.3-0.2-0.4-0.3c-0.1-0.1-0.2,0.1-0.1,0.2
			c0.1,0.1,0.3,0.2,0.4,0.3c0,0.2-0.1,0.3-0.1,0.5c-0.5,0.3-1,0.6-1.5,1c-1.2,0.9-2,2.1-2.4,3.7c0,0.1,0.1,0.2,0.2,0
			c0.5-1.6,1.5-2.8,2.8-3.6c0,0,0.1,0,0.1,0c0,0,0,0,0,0.1c-0.5,0.4-0.9,0.8-1.2,1.2c-0.7,0.9-1.1,2-1.3,3.1
			c-0.1,0.2-0.2,0.4-0.3,0.6c-0.2,0.5-0.3,1-0.2,1.6c-0.1,0.4-0.1,0.8-0.2,1.1c0,0.1,0.1,0.1,0.1,0c0-0.1,0.1-0.2,0.1-0.4
			c0,0.4,0,0.7,0,1.1c0,2.2,0,4.5,0.3,6.7c-0.1-0.1-0.2-0.1-0.3-0.2c-0.4-0.2-0.9,0.1-0.9,0.7c0.2,3.7,0.7,7,1.6,9.6
			c0.2,0.7,0.5,1.1,0.8,1.5c0.3,0.3,0.7,0.3,1,0.1c0.8,2.8,2.1,5.4,3.8,7.7C64.3,66.2,64.3,67.1,64.2,68z M84,30.3
			c0.1,0.2,0.2,0.3,0.2,0.5c0,0-0.1,0-0.1,0C84.1,30.6,84.1,30.4,84,30.3C84,30.3,84,30.3,84,30.3C84,30.3,84,30.3,84,30.3z
			 M78.2,26.9c-0.2,0-0.3-0.1-0.5-0.1c-0.1,0-0.1,0-0.2,0c0,0,0.1,0,0.1,0c0.1,0,0.2,0,0.3,0C78,26.8,78.1,26.9,78.2,26.9
			C78.2,26.9,78.2,26.9,78.2,26.9z M80.7,27C80.7,27,80.6,27,80.7,27C80.6,26.9,80.6,26.9,80.7,27C80.6,26.9,80.7,26.9,80.7,27z
			 M80.6,26.8c0,0,0-0.1-0.1-0.1c0,0,0.1,0,0.1,0C80.6,26.7,80.6,26.8,80.6,26.8z M85.4,32.7c-0.1-0.2-0.2-0.3-0.3-0.5
			c0-0.1-0.1-0.2-0.1-0.2c-0.1-0.1-0.1-0.2-0.2-0.2l0,0c0.1,0.1,0.2,0.2,0.3,0.3C85.3,32.2,85.3,32.5,85.4,32.7z M82.2,27.8
			c0,0-0.1,0-0.1,0C82.1,27.8,82.1,27.8,82.2,27.8C82.1,27.8,82.1,27.8,82.2,27.8z M81.2,27.6c0.1,0,0.3,0,0.4,0
			c-0.2,0-0.4,0.1-0.6,0.1c-0.1,0-0.3-0.1-0.4-0.1c-0.1,0-0.2,0-0.3-0.1c0,0,0,0,0,0c0.1,0,0.2,0,0.4,0
			C80.9,27.6,81.1,27.6,81.2,27.6z M80,26.7c0,0,0.1,0.1,0.1,0.1c-0.2,0-0.4-0.1-0.7-0.1c0,0,0,0-0.1,0C79.6,26.7,79.8,26.7,80,26.7
			z M68.9,25.9C68.9,25.9,68.9,26,68.9,25.9c-0.2,0.1-0.2,0.2-0.2,0.2c-0.2,0.1-0.5,0.2-0.7,0.4c0,0,0,0,0,0
			C68.3,26.3,68.6,26.1,68.9,25.9C68.9,25.9,68.9,25.9,68.9,25.9z M64.9,27.6c-0.2,0-0.3,0.1-0.4,0.2h0c0.1-0.2,0.3-0.3,0.4-0.5
			C64.8,27.4,64.8,27.5,64.9,27.6z"/>
		<path class="st3" d="M100.8,91.4H44.2c-1.3,0-2.4-1.1-2.4-2.4V77c0-1.3,1.1-2.4,2.4-2.4h56.6c1.3,0,2.4,1.1,2.4,2.4v12
			C103.2,90.3,102.1,91.4,100.8,91.4z"/>
		<g>
			<g>
				<path class="st4" d="M94.7,81.3H50.3c-0.8,0-1.5-0.7-1.5-1.5l0,0c0-0.8,0.7-1.5,1.5-1.5h44.4c0.8,0,1.5,0.7,1.5,1.5l0,0
					C96.2,80.6,95.5,81.3,94.7,81.3z"/>
			</g>
			<g class="st5">
				<path class="st4" d="M84.1,87.7H49.6c-0.5,0-0.8-0.4-0.8-0.8v0c0-0.4,0.4-0.8,0.8-0.8h34.5c0.4,0,0.8,0.4,0.8,0.8v0
					C84.9,87.4,84.6,87.7,84.1,87.7z"/>
			</g>
		</g>
		<g>
			<circle class="st6" cx="94.8" cy="72" r="5.5"/>
			<g>
				<g>
					<path class="st1" d="M97.6,74c0,0.7-0.6,1.2-1.2,1.2s-1.2-0.6-1.2-1.2l0,0c0-0.1,0-0.2,0-0.3l-1.3-0.8
						c-0.2,0.2-0.5,0.3-0.8,0.3c-0.7,0-1.2-0.6-1.2-1.2s0.6-1.2,1.2-1.2c0.3,0,0.6,0.1,0.8,0.3l1.3-0.8c0-0.1,0-0.2,0-0.3
						c0-0.7,0.6-1.2,1.2-1.2s1.2,0.6,1.2,1.2s-0.6,1.2-1.2,1.2c-0.3,0-0.6-0.1-0.8-0.3l-1.3,0.8c0,0.1,0,0.2,0,0.3
						c0,0.1,0,0.2,0,0.3l1.3,0.8c0.2-0.2,0.5-0.3,0.8-0.3C97.1,72.8,97.6,73.3,97.6,74z"/>
				</g>
			</g>
		</g>
	</g>
</g>
</svg>
