<?xml version="1.0" encoding="utf-8"?>
<!-- Generator: Adobe Illustrator 25.2.1, SVG Export Plug-In . SVG Version: 6.00 Build 0)  -->
<svg version="1.1" id="Layer_1" xmlns="http://www.w3.org/2000/svg" xmlns:xlink="http://www.w3.org/1999/xlink" x="0px" y="0px"
	 viewBox="0 0 24 24" style="enable-background:new 0 0 24 24;" xml:space="preserve">
<style type="text/css">
	.st0{fill:url(#SVGID_1_);}
</style>
<g>
	<linearGradient id="SVGID_1_" gradientUnits="userSpaceOnUse" x1="0" y1="12" x2="24" y2="12">
		<stop  offset="0" style="stop-color:#00AFFA"/>
		<stop  offset="1" style="stop-color:#0954C0"/>
	</linearGradient>
	<path class="st0" d="M20.64,24H3.36C1.51,24,0,22.49,0,20.64V3.36C0,1.51,1.51,0,3.36,0h17.28C22.49,0,24,1.51,24,3.36v17.28
		C24,22.49,22.49,24,20.64,24z M3.36,0.96c-1.32,0-2.4,1.08-2.4,2.4v17.28c0,1.32,1.08,2.4,2.4,2.4h17.28c1.32,0,2.4-1.08,2.4-2.4
		V3.36c0-1.32-1.08-2.4-2.4-2.4H3.36z M20.25,19.66L20.25,19.66c0-0.27-0.21-0.48-0.48-0.48H4.23c-0.27,0-0.48,0.21-0.48,0.48l0,0
		c0,0.27,0.21,0.48,0.48,0.48h15.54C20.04,20.14,20.25,19.93,20.25,19.66z M6.6,16.19c-0.37,0-0.67-0.3-0.67-0.67v-1.4l0.03-0.59
		c0.17-1.25,0.93-2.3,2.02-2.86l1.68-0.85C9.18,9.39,8.89,8.77,8.89,8.09V6.43C8.87,5.61,9.19,4.79,9.78,4.2
		C10.36,3.6,11.17,3.26,12,3.26s1.64,0.34,2.22,0.93c0.58,0.59,0.91,1.41,0.89,2.24v1.65c0,0.67-0.29,1.3-0.78,1.73l1.68,0.85
		c1,0.5,1.71,1.42,1.96,2.49h0.06l0.03,0.38v1.97c0,0.37-0.3,0.67-0.67,0.67H6.6z M16.73,14.85v-0.83c0-0.05,0-0.11-0.01-0.16
		c-0.05-0.85-0.56-1.62-1.32-2l-2.86-1.45h-1.11l-2.85,1.45c-0.76,0.38-1.27,1.15-1.32,2c0,0.05-0.01,0.11-0.01,0.16v0.83H16.73z
		 M12,4.6c-0.48,0-0.94,0.2-1.27,0.54c-0.33,0.34-0.52,0.81-0.51,1.28l0,1.67c0,0.55,0.45,0.99,0.99,0.99h1.57
		c0.55,0,0.99-0.45,0.99-0.99V6.43c0.01-0.48-0.17-0.95-0.51-1.29C12.94,4.8,12.48,4.6,12,4.6z"/>
</g>
</svg>
