<?xml version="1.0" encoding="utf-8"?>
<!-- Generator: Adobe Illustrator 25.2.1, SVG Export Plug-In . SVG Version: 6.00 Build 0)  -->
<svg version="1.1" id="Layer_1" xmlns="http://www.w3.org/2000/svg" xmlns:xlink="http://www.w3.org/1999/xlink" x="0px" y="0px"
	 viewBox="0 0 320 160" style="enable-background:new 0 0 320 160;" xml:space="preserve">
<style type="text/css">
	.st0{fill:#FFFFFF;}
	.st1{fill:none;stroke:#D3D3D3;stroke-width:0.2935;}
	.st2{fill:#261C35;}
	.st3{fill:#969696;}
	.st4{fill:#767676;}
	.st5{fill:none;}
</style>
<rect class="st0" width="320" height="160"/>
<g>
	<path class="st0" d="M111.4,8.4h97.1c2.4,0,4.4,2,4.4,4.4v134.4c0,2.4-2,4.4-4.4,4.4h-97.1c-2.4,0-4.4-2-4.4-4.4V12.8
		C107,10.4,109,8.4,111.4,8.4z"/>
	<path class="st1" d="M111.4,8.5h97.1c2.4,0,4.3,1.9,4.3,4.3v134.4c0,2.4-1.9,4.3-4.3,4.3h-97.1c-2.3,0-4.3-1.9-4.3-4.3V12.8
		C107.2,10.4,109.1,8.5,111.4,8.5z"/>
</g>
<path class="st2" d="M116.7,16.3h86.6c0.8,0,1.5,0.7,1.5,1.5v86c0,0.8-0.7,1.5-1.5,1.5h-86.6c-0.8,0-1.5-0.7-1.5-1.5v-86
	C115.2,17,115.9,16.3,116.7,16.3z"/>
<g>
	<path class="st3" d="M139.7,129h0.5v-2.7l1.2,2.7h0.3l1.2-2.7v2.7h0.5v-3.6h-0.5l-1.3,3l-1.3-3h-0.5L139.7,129L139.7,129z"/>
	<path class="st3" d="M144,127.6c0,0.9,0.6,1.5,1.3,1.5c0.5,0,0.9-0.3,1.1-0.6v0.5h0.5v-2.8h-0.5v0.5c-0.2-0.3-0.5-0.6-1.1-0.6
		C144.6,126.1,144,126.7,144,127.6z M146.4,127.6c0,0.7-0.4,1.1-1,1.1s-1-0.4-1-1.1s0.4-1.1,1-1.1S146.4,126.9,146.4,127.6z"/>
	<path class="st3" d="M148.1,127.5c0-0.7,0.3-0.9,0.8-0.9h0.1v-0.5c-0.4,0-0.8,0.2-0.9,0.5v-0.5h-0.5v2.8h0.5L148.1,127.5
		L148.1,127.5z"/>
	<path class="st3" d="M149.6,129h0.5v-1.2l1.1,1.2h0.6l-1.3-1.4l1.3-1.4h-0.7l-1.1,1.3v-2.2h-0.5V129z"/>
	<path class="st3" d="M153.5,126.5c0.5,0,0.9,0.3,0.9,0.9h-1.8C152.6,126.8,153,126.5,153.5,126.5z M154.8,128.1h-0.5
		c-0.1,0.3-0.4,0.5-0.8,0.5c-0.5,0-0.9-0.3-0.9-0.9h2.3c0-0.1,0-0.2,0-0.3c0-0.8-0.5-1.4-1.4-1.4c-0.8,0-1.4,0.6-1.4,1.5
		c0,0.9,0.6,1.5,1.4,1.5C154.2,129.1,154.7,128.6,154.8,128.1z"/>
	<path class="st3" d="M155.6,128.2c0,0.6,0.3,0.8,0.8,0.8h0.4v-0.4h-0.4c-0.3,0-0.4-0.1-0.4-0.4v-1.7h0.7v-0.4h-0.7v-0.7h-0.5v0.7
		h-0.4v0.4h0.4L155.6,128.2L155.6,128.2z"/>
	<path class="st3" d="M157.4,129h0.5v-2.8h-0.5V129z M157.6,125.7c0.2,0,0.3-0.1,0.3-0.3s-0.1-0.3-0.3-0.3c-0.2,0-0.3,0.1-0.3,0.3
		C157.3,125.6,157.4,125.7,157.6,125.7z"/>
	<path class="st3" d="M160.7,129h0.5v-1.7c0-0.8-0.5-1.2-1.2-1.2c-0.4,0-0.7,0.2-0.9,0.5v-0.4h-0.5v2.8h0.5v-1.6
		c0-0.6,0.3-0.9,0.8-0.9s0.8,0.3,0.8,0.9L160.7,129L160.7,129z"/>
	<path class="st3" d="M161.8,127.6c0,0.9,0.6,1.5,1.4,1.5c0.5,0,0.9-0.3,1.1-0.6v0.6c0,0.6-0.4,0.9-0.9,0.9c-0.5,0-0.8-0.2-0.9-0.6
		h-0.5c0.1,0.6,0.6,1,1.4,1c0.8,0,1.4-0.6,1.4-1.3v-2.9h-0.5v0.5c-0.2-0.3-0.5-0.6-1.1-0.6C162.4,126.1,161.8,126.7,161.8,127.6z
		 M164.2,127.6c0,0.7-0.4,1.1-1,1.1s-1-0.4-1-1.1s0.4-1.1,1-1.1S164.2,126.9,164.2,127.6z"/>
	<path class="st3" d="M169.2,128c0-1.3-1.9-0.8-1.9-1.7c0-0.4,0.3-0.6,0.7-0.6c0.4,0,0.7,0.3,0.7,0.5h0.5c-0.1-0.6-0.5-0.9-1.2-0.9
		c-0.7,0-1.2,0.4-1.2,1c0,1.3,1.9,0.7,1.9,1.7c0,0.3-0.3,0.6-0.7,0.6c-0.5,0-0.7-0.3-0.8-0.6h-0.5c0,0.6,0.5,1,1.2,1
		C168.8,129,169.2,128.5,169.2,128z"/>
	<path class="st3" d="M169.7,127.6c0,0.9,0.6,1.5,1.3,1.5c0.5,0,0.9-0.3,1.1-0.6v0.5h0.5v-2.8h-0.5v0.5c-0.2-0.3-0.5-0.6-1.1-0.6
		C170.3,126.1,169.7,126.7,169.7,127.6z M172.1,127.6c0,0.7-0.4,1.1-1,1.1c-0.5,0-1-0.4-1-1.1s0.4-1.1,1-1.1
		C171.7,126.5,172.1,126.9,172.1,127.6z"/>
	<path class="st3" d="M173.4,129h0.5v-3.8h-0.5V129z"/>
	<path class="st3" d="M175.9,126.5c0.5,0,0.9,0.3,0.9,0.9H175C175,126.8,175.4,126.5,175.9,126.5z M177.2,128.1h-0.5
		c-0.1,0.3-0.4,0.5-0.8,0.5c-0.5,0-0.9-0.3-0.9-0.9h2.3c0-0.1,0-0.2,0-0.3c0-0.8-0.5-1.4-1.4-1.4c-0.8,0-1.4,0.6-1.4,1.5
		c0,0.9,0.6,1.5,1.4,1.5C176.6,129.1,177.1,128.6,177.2,128.1z"/>
	<path class="st3" d="M179.9,128.2c0-1-1.7-0.7-1.7-1.3c0-0.2,0.2-0.4,0.6-0.4c0.4,0,0.6,0.2,0.6,0.5h0.5c0-0.6-0.4-0.9-1.1-0.9
		c-0.6,0-1,0.4-1,0.8c0,1.1,1.7,0.7,1.7,1.3c0,0.2-0.2,0.4-0.6,0.4c-0.4,0-0.6-0.2-0.7-0.5h-0.5c0,0.5,0.5,0.9,1.2,0.9
		C179.5,129.1,179.9,128.7,179.9,128.2z"/>
	<path d="M129.1,119h1v-3.2l1.3,3.2h0.8l1.3-3.2v3.2h1v-5h-1.1l-1.6,3.7l-1.6-3.7h-1.1L129.1,119L129.1,119z"/>
	<path d="M135.3,117c0,1.2,0.8,2.1,1.8,2.1c0.6,0,1.1-0.3,1.3-0.6v0.6h1V115h-1v0.6c-0.2-0.3-0.7-0.6-1.3-0.6
		C136.1,115,135.3,115.8,135.3,117z M138.4,117c0,0.8-0.5,1.2-1.1,1.2c-0.5,0-1-0.4-1-1.2s0.5-1.2,1-1.2
		C137.9,115.8,138.4,116.2,138.4,117z"/>
	<path d="M141.4,117c0-0.8,0.4-1,0.9-1h0.3V115c-0.6,0-1,0.3-1.2,0.7V115h-1v3.9h1L141.4,117L141.4,117z"/>
	<path d="M142.8,115l1.4,3.9h1.2l1.5-3.9h-1.1l-1,3l-1-3H142.8z"/>
	<path d="M147.5,119h1V115h-1V119z M148,114.6c0.4,0,0.6-0.3,0.6-0.6s-0.3-0.6-0.6-0.6c-0.4,0-0.6,0.3-0.6,0.6
		S147.6,114.6,148,114.6z"/>
	<path d="M152.2,119h1v-2.3c0-1.1-0.7-1.7-1.6-1.7c-0.5,0-0.9,0.2-1.2,0.6V115h-1v3.9h1v-2.2c0-0.6,0.4-1,0.9-1c0.5,0,0.9,0.3,0.9,1
		L152.2,119L152.2,119z"/>
	<path d="M155.9,119h1v-3.2l1.3,3.2h0.8l1.3-3.2v3.2h1v-5h-1.1l-1.6,3.7L157,114h-1.1L155.9,119L155.9,119z"/>
	<path d="M162,117c0,1.2,0.8,2,1.9,2c1,0,1.6-0.6,1.9-1.4h-1.1c-0.1,0.4-0.4,0.5-0.8,0.5c-0.6,0-0.9-0.4-0.9-1.2s0.4-1.2,0.9-1.2
		c0.4,0,0.7,0.2,0.8,0.6h1.1c-0.2-0.9-0.9-1.4-1.9-1.4C162.9,115,162,115.8,162,117z"/>
	<path d="M169.4,119h1.3l-2.1-2.5l2.1-2.5h-1.2l-1.8,2.2V114h-1v5h1v-2.2L169.4,119z"/>
	<path d="M171.3,119h1V115h-1V119z M171.8,114.6c0.4,0,0.6-0.3,0.6-0.6s-0.3-0.6-0.6-0.6c-0.4,0-0.6,0.3-0.6,0.6
		S171.5,114.6,171.8,114.6z"/>
	<path d="M176.1,119h1v-2.3c0-1.1-0.7-1.7-1.6-1.7c-0.5,0-0.9,0.2-1.2,0.6V115h-1v3.9h1v-2.2c0-0.6,0.4-1,0.9-1c0.5,0,0.9,0.3,0.9,1
		L176.1,119L176.1,119z"/>
	<path d="M180.8,119h1v-2.3c0-1.1-0.7-1.7-1.6-1.7c-0.5,0-0.9,0.2-1.2,0.6V115h-1v3.9h1v-2.2c0-0.6,0.4-1,0.9-1c0.5,0,0.9,0.3,0.9,1
		L180.8,119L180.8,119z"/>
	<path d="M184.4,115.8c0.5,0,0.9,0.3,0.9,0.8h-1.9C183.6,116.1,183.9,115.8,184.4,115.8z M186.3,117.7h-1.1
		c-0.1,0.3-0.4,0.5-0.8,0.5c-0.5,0-0.9-0.3-0.9-0.9h2.9c0-0.1,0-0.3,0-0.4c0-1.2-0.8-1.9-1.9-1.9c-1.2,0-2,0.8-2,2c0,1.2,0.8,2,2,2
		C185.4,119,186.1,118.4,186.3,117.7z"/>
	<path d="M188.8,117.8l-1-2.8h-1.1l1.6,3.8l-0.9,2h1.1l2.4-5.8h-1.1L188.8,117.8z"/>
	<path class="st4" d="M158.6,140c-0.7,0-1.3,0.6-1.3,1.3c0,0.7,0.6,1.3,1.3,1.3c0.7,0,1.3-0.6,1.3-1.3
		C159.9,140.6,159.3,140,158.6,140z M158.6,142.1c-0.5,0-0.9-0.4-0.9-0.9s0.4-0.8,0.9-0.8s0.8,0.4,0.8,0.8
		C159.4,141.8,159.1,142.1,158.6,142.1z M160.2,139.9c0-0.2-0.1-0.3-0.3-0.3s-0.3,0.1-0.3,0.3s0.1,0.3,0.3,0.3
		S160.2,140.1,160.2,139.9z M161.1,140.2c0-0.4-0.1-0.8-0.4-1.1s-0.7-0.4-1.1-0.4c-0.4,0-1.7,0-2.1,0c-0.4,0-0.8,0.1-1.1,0.4
		c-0.3,0.3-0.4,0.7-0.4,1.1c0,0.4,0,1.7,0,2.1c0,0.4,0.1,0.8,0.4,1.1c0.3,0.3,0.7,0.4,1.1,0.4c0.4,0,1.7,0,2.1,0
		c0.4,0,0.8-0.1,1.1-0.4c0.3-0.3,0.4-0.7,0.4-1.1C161.1,141.9,161.1,140.6,161.1,140.2z M160.6,142.8c-0.1,0.2-0.3,0.4-0.5,0.5
		c-0.3,0.1-1.1,0.1-1.5,0.1c-0.4,0-1.2,0-1.5-0.1c-0.2-0.1-0.4-0.3-0.5-0.5c-0.1-0.3-0.1-1.1-0.1-1.5c0-0.4,0-1.2,0.1-1.5
		c0.1-0.2,0.3-0.4,0.5-0.5c0.3-0.1,1.1-0.1,1.5-0.1c0.4,0,1.2,0,1.5,0.1c0.2,0.1,0.4,0.3,0.5,0.5c0.1,0.3,0.1,1.1,0.1,1.5
		C160.7,141.6,160.7,142.4,160.6,142.8z"/>
	<path class="st4" d="M168.8,143.8v-3.4h-1.1v3.4H168.8z M168.2,139.9c0.3,0,0.6-0.3,0.6-0.6c0-0.3-0.3-0.6-0.6-0.6
		c-0.3,0-0.6,0.3-0.6,0.6C167.6,139.7,167.9,139.9,168.2,139.9z M172.7,143.8L172.7,143.8l0-1.9c0-0.9-0.2-1.6-1.3-1.6
		c-0.5,0-0.9,0.3-1,0.6h0v-0.5h-1v3.4h1.1v-1.7c0-0.4,0.1-0.9,0.6-0.9s0.6,0.5,0.6,0.9v1.6L172.7,143.8L172.7,143.8z"/>
	<path class="st4" d="M185.3,139.7c-0.1-0.3-0.3-0.5-0.6-0.6c-0.5-0.1-2.4-0.1-2.4-0.1s-1.9,0-2.4,0.1c-0.3,0.1-0.5,0.3-0.6,0.6
		c-0.1,0.5-0.1,1.5-0.1,1.5s0,1,0.1,1.5c0.1,0.3,0.3,0.5,0.6,0.6c0.5,0.1,2.4,0.1,2.4,0.1s1.9,0,2.4-0.1c0.3-0.1,0.5-0.3,0.6-0.6
		c0.1-0.5,0.1-1.5,0.1-1.5S185.4,140.2,185.3,139.7z M181.7,142.2v-1.8l1.6,0.9L181.7,142.2z"/>
	<path class="st4" d="M149,140.2c0.2-0.2,0.4-0.4,0.6-0.6c-0.2,0.1-0.4,0.2-0.7,0.2c0.2-0.1,0.4-0.4,0.5-0.7
		c-0.2,0.1-0.5,0.2-0.8,0.3c-0.2-0.2-0.5-0.4-0.9-0.4c-0.7,0-1.2,0.5-1.2,1.2c0,0.1,0,0.2,0,0.3c-1-0.1-1.9-0.5-2.5-1.2
		c-0.1,0.2-0.2,0.4-0.2,0.6c0,0.4,0.2,0.8,0.5,1c-0.2,0-0.4-0.1-0.6-0.1v0c0,0.6,0.4,1.1,1,1.2c-0.1,0-0.2,0.1-0.3,0.1
		c-0.1,0-0.1,0-0.2,0c0.1,0.5,0.6,0.8,1.1,0.8c-0.4,0.3-0.9,0.5-1.5,0.5c-0.1,0-0.2,0-0.3,0c0.5,0.3,1.1,0.5,1.8,0.5
		c2.2,0,3.4-1.8,3.4-3.4C149,140.3,149,140.3,149,140.2z"/>
	<path class="st4" d="M137.1,141.7l0.2-1.1h-1v-0.7c0-0.3,0.1-0.6,0.6-0.6h0.5v-0.9c0,0-0.4-0.1-0.8-0.1c-0.8,0-1.4,0.5-1.4,1.4v0.8
		h-0.9v1.1h0.9v2.6h1.1v-2.6H137.1z"/>
</g>
<path class="st5" d="M116.7,16.3h86.6c0.8,0,1.5,0.7,1.5,1.5v86c0,0.8-0.7,1.5-1.5,1.5h-86.6c-0.8,0-1.5-0.7-1.5-1.5v-86
	C115.2,17,115.9,16.3,116.7,16.3z"/>
<path class="st0" d="M151.2,75.5l-1.7,0.1l-0.6,4.2c-0.2,1.4-1.2,2.5-2.5,2.9c-3.3,0.9-6.8,1.9-10.2,3.1c-5.2,1.8-9,6.3-9.8,11.8
	c-0.6,4-1.2,7.8-1.2,7.8h69.4c0,0-0.5-3.6-1.1-7.7c-0.8-5.5-4.7-10.2-10.1-11.8c-3.3-1.1-6.7-2.1-9.9-2.9c-1.3-0.4-2.3-1.5-2.5-2.9
	l-0.6-4.3l-1.6-0.1c0-0.9-0.1-1.8-0.1-2.9c1.8-2.4,3.1-5.1,4-8.1c0.3,0.2,0.7,0.3,1-0.1c0.3-0.4,0.6-0.9,0.9-1.6
	c0.9-2.8,1.4-6.3,1.7-10.2c0-0.6-0.5-1-0.9-0.7c-0.2,0.1-0.4,0.2-0.6,0.4c0.1-3.2,0.4-6.5,0.2-9.7c-0.1-1.3-0.3-2.4-0.7-3.5
	c0,0,0.1-0.1,0-0.1c-0.1-0.3-0.1-0.5-0.2-0.8c0.5,1,0.9,2.3,1.1,3.1c0,0.1,0.2,0.1,0.2,0c-0.1-0.6-0.3-1.6-0.7-2.6c0,0,0,0,0-0.1
	c-0.1-0.2-0.1-0.3-0.2-0.5c0-0.1-0.1-0.2-0.1-0.2c-0.5-1.1-1.2-2.3-2.1-3.2c-0.1-0.1-0.1-0.3-0.2-0.4c-0.1-0.2-0.2-0.5-0.4-0.6
	c-0.1,0-0.2-0.1-0.3-0.1c-0.1-0.8-0.7-1.1-1.3-1.3c0.1-0.1,0.2-0.2,0.2-0.2c0.1-0.2,0.1-0.5-0.1-0.5c-0.4-0.2-0.8-0.1-1.2,0
	c0-0.1-0.1-0.2-0.2-0.2c-0.3,0-0.5,0-0.8-0.1c-0.4-0.2-0.8-0.3-1.1-0.3c-0.1,0-0.2,0.1-0.1,0.2c-0.2,0-0.4,0-0.6,0c0,0,0,0,0,0
	c0.1,0,0.1-0.1,0.1-0.1c0.6-0.1,1.2-0.1,1.8-0.1c0.3,0,0.3-0.4,0-0.5c-0.4,0-0.8-0.1-1.3-0.1c0,0,0.1-0.1,0.1-0.1
	c0.1-0.1-0.1-0.3-0.2-0.2c-0.1,0.1-0.2,0.2-0.3,0.3c-0.4,0-0.9,0-1.4,0c0.5-0.1,0.9-0.2,1.3-0.4c0.1,0,0-0.2-0.1-0.2
	c-0.7,0.1-1.3,0.2-1.9,0.2c0-0.1,0-0.1-0.1-0.1c-0.5-0.1-0.9-0.1-1.3,0c-0.1,0-0.2,0-0.4,0c0.4-0.5,0.8-1,1.2-1.6
	c0.1-0.2-0.1-0.3-0.2-0.1c-0.5,0.8-1.1,1.4-1.8,1.8c-0.6,0-1.1,0.1-1.7,0.2c0.1-0.1,0.3-0.2,0.4-0.4c0.3-0.1,0.6-0.2,0.9-0.3
	c0.1,0,0.1-0.2,0-0.2c-0.1,0-0.3,0.1-0.5,0.1c0.4-0.5,0.9-1,1.2-1.6c0.1-0.2-0.1-0.4-0.3-0.2c-0.7,0.9-1.4,1.7-2.3,2.3
	c-0.3,0.1-0.6,0.2-0.8,0.3c0.4-0.6,0.8-1.3,1-2.1c0.1-0.2-0.2-0.3-0.3-0.1c-0.4,1.1-1.1,2-2,2.7c0,0-0.1,0-0.1,0c0,0-0.1,0-0.1,0
	c-0.1,0-0.3-0.1-0.4-0.1c0.5-0.4,1-0.7,1.5-1.1c0.1-0.1,0-0.3-0.1-0.2c-0.6,0.4-1.2,0.7-1.9,1.1c-0.1,0-0.2,0-0.2-0.1
	c-0.2-0.1-0.3,0.2-0.2,0.4c-0.9,0.6-1.9,1.2-2.8,1.8c0,0,0,0,0,0c0.4-0.4,0.8-0.8,1.2-1.1c0.2-0.1-0.1-0.4-0.2-0.3
	c-0.5,0.4-1,0.8-1.5,1.2c-0.1,0-0.1-0.1-0.2-0.1c0,0-0.1,0-0.1,0c0.2-0.2,0.4-0.4,0.6-0.5c0.2-0.1,0-0.4-0.1-0.3
	c-0.7,0.4-1.3,0.9-1.8,1.6c0.1-0.3,0.3-0.5,0.4-0.8c0.1-0.2-0.1-0.3-0.2-0.1c-0.4,0.6-0.9,1.5-1.2,2.4c0,0-0.1,0-0.1,0.1
	c0.1-0.6,0.2-1.1,0.4-1.7c0.1-0.1-0.1-0.2-0.2-0.1c-0.2,0.4-0.4,0.9-0.5,1.4c-0.1-0.2-0.3-0.4-0.4-0.5c-0.1-0.1-0.2,0-0.2,0.2
	c0.1,0.2,0.2,0.5,0.3,0.7c-0.1,0-0.2,0-0.3,0.1c-0.1-0.1-0.3-0.2-0.4-0.3c-0.1-0.1-0.2,0.1-0.1,0.2c0.1,0.1,0.3,0.2,0.4,0.3
	c0,0.2-0.1,0.3-0.1,0.5c-0.6,0.3-1.1,0.6-1.6,1c-1.2,1-2.1,2.3-2.5,3.9c0,0.1,0.1,0.2,0.2,0.1c0.5-1.7,1.6-3,3-3.9c0,0,0.1,0,0.1,0
	c0,0,0,0-0.1,0.1c-0.5,0.4-0.9,0.8-1.3,1.2c-0.7,0.9-1.1,2.1-1.4,3.3c-0.1,0.2-0.2,0.4-0.3,0.6c-0.2,0.6-0.3,1.1-0.3,1.7
	c-0.1,0.4-0.1,0.8-0.2,1.2c0,0.1,0.1,0.2,0.1,0c0-0.1,0.1-0.3,0.1-0.4c0,0.4,0.1,0.8,0.1,1.2c0,2.3,0,4.8,0.3,7.1
	c-0.1-0.1-0.2-0.1-0.3-0.2c-0.4-0.2-1,0.2-0.9,0.7c0.2,3.9,0.7,7.4,1.7,10.2c0.2,0.7,0.5,1.2,0.9,1.6c0.3,0.3,0.7,0.3,1,0.1
	c0.8,3,2.2,5.7,4,8.1C151.3,73.7,151.3,74.6,151.2,75.5z M172.2,35.6c0.1,0.2,0.2,0.4,0.3,0.5c0,0-0.1,0-0.1,0
	C172.3,35.9,172.3,35.7,172.2,35.6C172.2,35.5,172.2,35.5,172.2,35.6C172.2,35.6,172.2,35.6,172.2,35.6z M166,32
	c-0.2,0-0.3-0.1-0.5-0.1c-0.1,0-0.1,0-0.2-0.1c0,0,0.1,0,0.1,0c0.1,0,0.2,0,0.3,0C165.8,31.8,165.9,31.9,166,32
	C166.1,32,166,32,166,32z M168.6,32C168.6,32,168.6,32,168.6,32C168.6,32,168.6,32,168.6,32C168.6,32,168.6,32,168.6,32z
	 M168.6,31.9c0,0,0-0.1-0.1-0.1c0,0,0.1,0,0.1,0C168.6,31.8,168.6,31.8,168.6,31.9z M173.7,38.1c-0.1-0.2-0.2-0.3-0.3-0.5
	c0-0.1-0.1-0.2-0.1-0.3c-0.1-0.1-0.1-0.2-0.2-0.2c0,0,0,0,0,0c0.1,0.1,0.2,0.2,0.3,0.3C173.5,37.6,173.6,37.8,173.7,38.1z
	 M170.2,32.9c0,0-0.1,0-0.1,0C170.1,32.9,170.2,32.9,170.2,32.9C170.2,32.9,170.2,32.9,170.2,32.9z M169.2,32.8c0.1,0,0.3,0,0.4,0
	c-0.2,0-0.4,0.1-0.6,0.1c-0.1,0-0.3-0.1-0.4-0.1c-0.1,0-0.2,0-0.3-0.1c0,0,0,0,0,0c0.1,0,0.3,0,0.4,0
	C168.9,32.7,169.1,32.7,169.2,32.8z M167.9,31.8c0,0,0.1,0.1,0.1,0.1c-0.2,0-0.5-0.1-0.7-0.1c0,0,0,0-0.1,0
	C167.5,31.8,167.7,31.8,167.9,31.8z M156.2,30.9C156.2,30.9,156.2,31,156.2,30.9c-0.2,0.1-0.2,0.2-0.2,0.3c-0.2,0.1-0.5,0.2-0.7,0.4
	c0,0,0,0-0.1,0C155.6,31.3,155.9,31.1,156.2,30.9C156.2,30.9,156.2,30.9,156.2,30.9z M151.9,32.7c-0.2,0-0.3,0.1-0.4,0.2h0
	c0.1-0.2,0.3-0.3,0.4-0.5C151.9,32.5,151.9,32.6,151.9,32.7z"/>
</svg>
