<?xml version="1.0" encoding="utf-8"?>
<!-- Generator: Adobe Illustrator 25.2.1, SVG Export Plug-In . SVG Version: 6.00 Build 0)  -->
<svg version="1.1" id="Layer_1" xmlns="http://www.w3.org/2000/svg" xmlns:xlink="http://www.w3.org/1999/xlink" x="0px" y="0px"
	 viewBox="0 0 145 110" style="enable-background:new 0 0 145 110;" xml:space="preserve">
<style type="text/css">
	.st0{fill:#F2F3F7;}
	.st1{fill:#FFFFFF;}
	.st2{fill:#B4B7C1;}
	.st3{opacity:0.85;}
	.st4{fill:#D3D6E0;}
	.st5{fill:url(#SVGID_1_);}
	.st6{fill:none;stroke:#0066FF;stroke-miterlimit:10;}
	.st7{fill:#0066FF;}
</style>
<g>
	<rect class="st0" width="145" height="110"/>
</g>
<g>
	<g>
		<path class="st1" d="M15,87.1V21.9c0-2.8,2.2-5,5-5h105c2.8,0,5,2.2,5,5v66.1c0,2.8-2.2,5-5,5H21C17.7,93.1,15,90.4,15,87.1z"/>
	</g>
	<g>
		<g>
			<g>
				<path class="st2" d="M107.3,56H37.7c-1.1,0-2-0.9-2-2l0,0c0-1.1,0.9-2,2-2h69.6c1.1,0,2,0.9,2,2l0,0
					C109.3,55.1,108.4,56,107.3,56z"/>
			</g>
			<g class="st3">
				<path class="st4" d="M119.3,64.5H25.7c-0.5,0-1-0.4-1-1l0,0c0-0.6,0.5-1,1-1h93.7c0.6,0,1,0.4,1,1l0,0
					C120.3,64.1,119.9,64.5,119.3,64.5z"/>
			</g>
		</g>
		<g>
			
				<linearGradient id="SVGID_1_" gradientUnits="userSpaceOnUse" x1="65.0355" y1="68.2835" x2="79.7885" y2="83.0366" gradientTransform="matrix(1 0 0 -1 0 110)">
				<stop  offset="0" style="stop-color:#42A4FF"/>
				<stop  offset="1" style="stop-color:#0066FF"/>
			</linearGradient>
			<path class="st5" d="M72.5,45.2L72.5,45.2c-6,0-10.9-4.9-10.9-10.9l0,0c0-6,4.9-10.9,10.9-10.9l0,0c6,0,10.9,4.9,10.9,10.9l0,0
				C83.4,40.3,78.5,45.2,72.5,45.2z"/>
			<g>
				<path class="st1" d="M72.5,29.4c1.4,0,2.8,0,4.2,0c0.2,0,0.4,0,0.6,0.1c0.3,0.2,0.4,0.4,0.4,0.7c0,2.1,0,4.1,0,6.2
					c0,0.5-0.4,0.9-0.9,0.9c-0.9,0-1.8,0-2.7,0c-0.2,0-0.3,0.1-0.2,0.2c0,0.2,0.1,0.4,0.2,0.6c0.1,0.2,0.2,0.3,0.4,0.4
					c0.1,0,0.2,0.1,0.2,0.2c0,0.2-0.1,0.2-0.3,0.2c-0.2,0-0.3,0-0.5,0c-1.1,0-2.1,0-3.2,0c-0.1,0-0.2,0-0.3,0
					c-0.1,0-0.2-0.1-0.2-0.2c0-0.1,0.1-0.2,0.2-0.2c0.2,0,0.4-0.1,0.5-0.3c0.1-0.3,0.2-0.6,0.2-0.9c0-0.1-0.1-0.1-0.2-0.1
					c-0.4,0-0.8,0-1.2,0c-0.5,0-1.1,0-1.6,0c-0.6,0-1-0.4-1-1c0-2,0-3.9,0-5.9c0-0.6,0.4-1.1,1.1-1C69.7,29.4,71.1,29.4,72.5,29.4z
					 M72.5,35.5c1.4,0,2.7,0,4.1,0c0.2,0,0.3-0.1,0.3-0.3c0-1.6,0-3.1,0-4.7c0-0.2-0.1-0.3-0.3-0.3c-2.7,0-5.4,0-8.1,0
					c-0.2,0-0.3,0.1-0.3,0.3c0,1.6,0,3.1,0,4.7c0,0.2,0.1,0.3,0.3,0.3C69.8,35.5,71.1,35.5,72.5,35.5z M72.1,36.5
					c0,0.2,0.2,0.4,0.4,0.4s0.4-0.2,0.4-0.4c0-0.2-0.2-0.4-0.4-0.4C72.3,36,72.1,36.2,72.1,36.5z"/>
			</g>
		</g>
		<g>
			<path class="st6" d="M72.5,86.7L72.5,86.7c-4,0-7.3-3.3-7.3-7.3l0,0c0-4,3.3-7.3,7.3-7.3l0,0c4,0,7.3,3.3,7.3,7.3l0,0
				C79.8,83.4,76.5,86.7,72.5,86.7z"/>
			<g>
				<g>
					<path class="st7" d="M71.1,76.1c0.1,0,0.2,0.1,0.3,0.1c0.9,0.9,1.9,1.9,2.8,2.8c0.2,0.2,0.2,0.5,0,0.7
						c-0.9,0.9-1.9,1.9-2.8,2.8c-0.2,0.2-0.5,0.2-0.7,0c-0.2-0.2-0.2-0.5,0-0.7c0.8-0.8,1.6-1.6,2.4-2.4c0.1-0.1,0.1-0.1,0-0.2
						c-0.8-0.8-1.6-1.6-2.4-2.4c-0.2-0.1-0.2-0.3-0.2-0.5C70.7,76.2,70.9,76.1,71.1,76.1z"/>
				</g>
			</g>
		</g>
	</g>
</g>
</svg>
