<?xml version="1.0" encoding="utf-8"?>
<!-- Generator: Adobe Illustrator 25.2.1, SVG Export Plug-In . SVG Version: 6.00 Build 0)  -->
<svg version="1.1" id="Layer_1" xmlns="http://www.w3.org/2000/svg" xmlns:xlink="http://www.w3.org/1999/xlink" x="0px" y="0px"
	 viewBox="0 0 145 110" style="enable-background:new 0 0 145 110;" xml:space="preserve">
<style type="text/css">
	.st0{fill:#F2F3F7;}
	.st1{fill:#0066FF;}
	.st2{opacity:0.5;}
	.st3{fill:#FFFFFF;}
	.st4{opacity:0.2;fill:none;stroke:#FFFFFF;stroke-miterlimit:10;enable-background:new    ;}
	.st5{fill:none;stroke:#FFFFFF;stroke-linecap:round;stroke-miterlimit:10;}
</style>
<g>
	<rect class="st0" width="145" height="110"/>
</g>
<g>
	<path class="st1" d="M16.1,73.5V34.1c0-3.1,2.5-5.6,5.6-5.6h101.6c3.1,0,5.6,2.5,5.6,5.6v41.8c0,3.1-2.5,5.6-5.6,5.6H24.1
		C19.7,81.5,16.1,77.9,16.1,73.5z"/>
	<g class="st2">
		<g>
			<path class="st3" d="M111.9,71.1H35.3c-0.8,0-1.5-0.7-1.5-1.5l0,0c0-0.8,0.7-1.5,1.5-1.5h76.6c0.8,0,1.5,0.7,1.5,1.5l0,0
				C113.4,70.5,112.8,71.1,111.9,71.1z"/>
		</g>
	</g>
	<circle class="st4" cx="73.2" cy="50.1" r="9.7"/>
	<path class="st5" d="M73.2,40.4c5.4,0,9.7,4.3,9.7,9.7"/>
	<path class="st3" d="M76.9,46c-1.3,0-2.5,0-3.8,0c-1.3,0-2.5,0-3.8,0c-0.6,0-0.9,0.3-0.9,0.9c0,1.7,0,3.4,0,5.1
		c0,0.6,0.3,0.9,0.9,0.9c0.8,0,1.6,0,2.4,0c0.2,0,0.2,0.1,0.2,0.2c-0.1,0.2-0.2,0.4-0.2,0.6c-0.1,0.3,0,0.4,0.3,0.4
		c0.8,0,1.6,0,2.5,0c0.3,0,0.4-0.2,0.3-0.5c-0.1-0.2-0.2-0.4-0.2-0.6c-0.1-0.2,0-0.2,0.2-0.2c0.8,0,1.6,0,2.4,0
		c0.6,0,0.9-0.3,0.9-0.9c0-1.7,0-3.4,0-5.1C77.8,46.4,77.5,46,76.9,46z M76.9,51.1c-1.3,0-2.5,0-3.8,0c-1.3,0-2.5,0-3.8,0
		c-0.3,0-0.3-0.1-0.3-0.3c0-1.3,0-2.5,0-3.8c0-0.2,0.1-0.3,0.3-0.3c2.5,0,5,0,7.6,0c0.2,0,0.3,0.1,0.3,0.3c0,1.3,0,2.5,0,3.8
		C77.2,51,77.2,51.1,76.9,51.1z"/>
</g>
</svg>
