<?xml version="1.0" encoding="utf-8"?>
<!-- Generator: Adobe Illustrator 25.2.1, SVG Export Plug-In . SVG Version: 6.00 Build 0)  -->
<svg version="1.1" id="Layer_1" xmlns="http://www.w3.org/2000/svg" xmlns:xlink="http://www.w3.org/1999/xlink" x="0px" y="0px"
	 viewBox="0 0 145 110" style="enable-background:new 0 0 145 110;" xml:space="preserve">
<style type="text/css">
	.st0{fill:#F2F3F7;}
	.st1{fill:#FF6F63;}
	.st2{fill:#FFFFFF;}
	.st3{opacity:0.5;fill:#FFFFFF;enable-background:new    ;}
	.st4{opacity:0.35;}
</style>
<g>
	<rect class="st0" width="145" height="110"/>
</g>
<g>
	<path class="st1" d="M15,87.5V22.4c0-3.3,2.7-6,6-6H124c3.3,0,6,2.7,6,6v65.1c0,3.3-2.7,6-6,6H21C17.7,93.6,15,90.9,15,87.5z"/>
	<g>
		<path class="st2" d="M107.3,55.7H37.7c-1.1,0-2-0.9-2-2l0,0c0-1.1,0.9-2,2-2h69.6c1.1,0,2,0.9,2,2l0,0
			C109.3,54.8,108.4,55.7,107.3,55.7z"/>
		<path class="st3" d="M119.3,65.2H25.7c-0.5,0-1-0.4-1-1l0,0c0-0.5,0.5-1,1-1h93.7c0.6,0,1,0.5,1,1l0,0
			C120.3,64.7,119.9,65.2,119.3,65.2z"/>
		<g>
			<path class="st2" d="M91.4,82H53.6c-1,0-1.9-0.8-1.9-1.9v-5.2c0-1.1,0.8-1.9,1.9-1.9h37.8c1.1,0,1.9,0.8,1.9,1.9v5.2
				C93.3,81.1,92.5,82,91.4,82z"/>
			<g class="st4">
				<path class="st1" d="M87.2,78.5H57.7c-0.5,0-1-0.4-1-1l0,0c0-0.6,0.5-1,1-1h29.5c0.5,0,1,0.4,1,1l0,0
					C88.2,78,87.8,78.5,87.2,78.5z"/>
			</g>
		</g>
		<g>
			<path class="st2" d="M72.5,28.1c2.1,0,4.2,0,6.3,0c0.3,0,0.6,0,0.9,0.2c0.4,0.2,0.7,0.6,0.7,1.1c0,3.1,0,6.2,0,9.3
				c0,0.8-0.6,1.3-1.4,1.3c-1.4,0-2.8,0-4.1,0c-0.3,0-0.4,0.1-0.3,0.4c0,0.3,0.1,0.7,0.2,1c0.1,0.3,0.3,0.5,0.7,0.6
				c0.2,0,0.4,0.1,0.4,0.4c0,0.3-0.2,0.3-0.4,0.4c-0.3,0-0.5,0-0.8,0c-1.6,0-3.2,0-4.8,0c-0.1,0-0.3,0-0.4,0
				c-0.2-0.1-0.2-0.2-0.2-0.3s0.1-0.3,0.2-0.3c0.3-0.1,0.6-0.2,0.7-0.5c0.2-0.4,0.3-0.8,0.3-1.3c0-0.2-0.1-0.2-0.2-0.2
				c-0.6,0-1.2,0-1.8,0c-0.8,0-1.6,0-2.4,0c-0.9,0-1.5-0.5-1.5-1.5c0-3,0-5.9,0-8.9c0-1,0.6-1.6,1.6-1.6
				C68.3,28.1,70.4,28.1,72.5,28.1z M72.5,37.3c2.1,0,4.1,0,6.2,0c0.3,0,0.4-0.1,0.4-0.4c0-2.4,0-4.7,0-7.1c0-0.3-0.1-0.4-0.4-0.4
				c-4.1,0-8.2,0-12.3,0c-0.3,0-0.4,0.1-0.4,0.4c0,2.4,0,4.7,0,7.1c0,0.3,0.1,0.4,0.4,0.4C68.4,37.3,70.4,37.3,72.5,37.3z
				 M71.9,38.7c0,0.3,0.3,0.6,0.6,0.6c0.3,0,0.6-0.3,0.6-0.6c0-0.4-0.3-0.6-0.6-0.6C72.1,38,71.9,38.3,71.9,38.7z"/>
		</g>
	</g>
</g>
</svg>
