<?xml version="1.0" encoding="utf-8"?>
<!-- Generator: Adobe Illustrator 25.2.1, SVG Export Plug-In . SVG Version: 6.00 Build 0)  -->
<svg version="1.1" id="Layer_1" xmlns="http://www.w3.org/2000/svg" xmlns:xlink="http://www.w3.org/1999/xlink" x="0px" y="0px"
	 viewBox="0 0 145 110" style="enable-background:new 0 0 145 110;" xml:space="preserve">
<style type="text/css">
	.st0{fill:#F2F3F7;}
	.st1{fill:#FFFFFF;}
	.st2{fill:#B4B7C1;}
	.st3{opacity:0.85;}
	.st4{fill:#D3D6E0;}
	.st5{fill:url(#SVGID_1_);}
	.st6{fill:#C0C2C9;}
	.st7{fill:#F2F2F2;}
</style>
<g>
	<rect class="st0" width="145" height="110"/>
</g>
<g>
	<g>
		<path class="st1" d="M15,81.5V28.5c0-3,2.5-5.5,5.5-5.5h104c3,0,5.5,2.5,5.5,5.5v53c0,3-2.5,5.5-5.5,5.5h-104
			C17.5,87,15,84.5,15,81.5z"/>
	</g>
	<g>
		<g>
			<path class="st2" d="M112.4,44H53.3c-1.1,0-2-0.9-2-2l0,0c0-1.1,0.9-2,2-2h59.1c1.1,0,2,0.9,2,2l0,0C114.4,43,113.5,44,112.4,44z
				"/>
		</g>
		<g class="st3">
			<path class="st4" d="M119.7,61.5H26c-0.5,0-1-0.5-1-1l0,0c0-0.5,0.5-1,1-1h93.7c0.6,0,1,0.5,1,1l0,0
				C120.7,61.1,120.3,61.5,119.7,61.5z"/>
		</g>
		<g>
			
				<linearGradient id="SVGID_1_" gradientUnits="userSpaceOnUse" x1="26.2297" y1="59.2566" x2="43.6164" y2="76.6433" gradientTransform="matrix(1 0 0 -1 0 110)">
				<stop  offset="0" style="stop-color:#42A4FF"/>
				<stop  offset="1" style="stop-color:#0066FF"/>
			</linearGradient>
			<path class="st5" d="M42,52H28c-1.7,0-3-1.4-3-3V35c0-1.7,1.4-3,3-3h14c1.7,0,3,1.4,3,3v14C45,50.6,43.7,52,42,52z"/>
			<g>
				<path class="st1" d="M28.8,46.2c0-2.8,0-5.6,0-8.4c0.2-0.4,0.4-0.6,0.9-0.6c0.1,0,0.1,0,0.2,0c3.4,0,6.8,0,10.2,0
					c0.1,0,0.2,0,0.3,0c0.4,0,0.7,0.4,0.7,0.8c0,2.7,0,5.4,0,8.1c0,0.4-0.2,0.7-0.6,0.8c-0.1,0-0.3,0-0.4,0c-3.5,0-6.9,0-10.4,0
					c0,0-0.1,0-0.1,0C29.2,46.8,29,46.6,28.8,46.2z M29.7,43.4C29.7,43.4,29.7,43.3,29.7,43.4c0.2-0.2,0.3-0.3,0.4-0.5
					c0.8-0.9,1.6-1.8,2.4-2.8c0.1-0.1,0.2-0.2,0.4-0.2c0.2,0,0.4,0,0.6,0.2c1,1.2,2,2.3,2.9,3.5c0.1,0.1,0.1,0.1,0.2,0
					c0.5-0.5,0.9-0.9,1.4-1.4c0.3-0.3,0.6-0.3,0.9,0c0.5,0.4,0.9,0.8,1.4,1.2c0,0,0,0,0,0c0,0,0.1,0,0.1,0c0,0,0-0.1,0-0.1
					c0-1.8,0-3.5,0-5.3c0-0.2,0-0.2-0.2-0.2c-3.5,0-6.9,0-10.4,0c-0.2,0-0.2,0-0.2,0.2c0,1.7,0,3.4,0,5.1
					C29.6,43.3,29.6,43.3,29.7,43.4z"/>
				<path class="st1" d="M38.2,38.9c0.6,0,1.1,0.5,1.1,1.1c0,0.6-0.5,1.1-1.1,1.1s-1.1-0.5-1.1-1.1C37.1,39.4,37.5,38.9,38.2,38.9z"
					/>
			</g>
		</g>
		<g>
			<g>
				<path class="st6" d="M64.7,78.1H26.9c-1,0-1.9-0.8-1.9-1.9V71c0-1.1,0.9-1.9,1.9-1.9h37.8c1.1,0,1.9,0.8,1.9,1.9v5.2
					C66.6,77.2,65.8,78.1,64.7,78.1z"/>
			</g>
			<g>
				<path class="st7" d="M60.4,74.8H31.3c-0.7,0-1.2-0.5-1.2-1.2l0,0c0-0.7,0.5-1.2,1.2-1.2h29.1c0.7,0,1.2,0.5,1.2,1.2l0,0
					C61.6,74.2,61,74.8,60.4,74.8z"/>
			</g>
		</g>
	</g>
</g>
</svg>
