<?xml version="1.0" encoding="utf-8"?>
<!-- Generator: Adobe Illustrator 25.2.1, SVG Export Plug-In . SVG Version: 6.00 Build 0)  -->
<svg version="1.1" id="Layer_1" xmlns="http://www.w3.org/2000/svg" xmlns:xlink="http://www.w3.org/1999/xlink" x="0px" y="0px"
	 viewBox="0 0 24 24" style="enable-background:new 0 0 24 24;" xml:space="preserve">
<style type="text/css">
	.st0{fill:url(#SVGID_1_);}
</style>
<g>
	<linearGradient id="SVGID_1_" gradientUnits="userSpaceOnUse" x1="0" y1="12" x2="24" y2="12">
		<stop  offset="0" style="stop-color:#00AFFA"/>
		<stop  offset="1" style="stop-color:#0954C0"/>
	</linearGradient>
	<path class="st0" d="M20.64,24H3.36C1.51,24,0,22.49,0,20.64V3.36C0,1.51,1.51,0,3.36,0h17.28C22.49,0,24,1.51,24,3.36v17.28
		C24,22.49,22.49,24,20.64,24z M3.36,0.96c-1.32,0-2.4,1.08-2.4,2.4v17.28c0,1.32,1.08,2.4,2.4,2.4h17.28c1.32,0,2.4-1.08,2.4-2.4
		V3.36c0-1.32-1.08-2.4-2.4-2.4H3.36z M12.11,13.07c0.27,0,0.53-0.04,0.78-0.12c0.24-0.08,0.55-0.19,0.93-0.34l0.06-0.24
		c-0.04,0.01-0.08,0.02-0.13,0.03c-0.13,0.03-0.27,0.04-0.4,0.04l-0.07,0c-0.03,0-0.07,0-0.1,0c-0.19,0-0.38-0.05-0.58-0.17
		c-0.16-0.16-0.23-0.38-0.2-0.58c0.01-0.16,0.02-0.31,0.06-0.46c0.03-0.17,0.07-0.34,0.12-0.51l0.52-1.8
		c0.05-0.17,0.09-0.34,0.1-0.5c0-0.13,0.01-0.23,0.02-0.31c0-0.04,0.01-0.08,0.01-0.11c0.01-0.32-0.12-0.61-0.36-0.81
		c-0.28-0.21-0.62-0.33-0.97-0.33c-0.03,0-0.07,0-0.11,0c-0.29,0-0.57,0.05-0.85,0.14c-0.29,0.09-0.59,0.2-0.91,0.32L9.95,7.59
		c0.04-0.01,0.09-0.03,0.14-0.04c0.15-0.04,0.3-0.07,0.44-0.07c0.04,0,0.07-0.01,0.11-0.01c0.19,0,0.38,0.06,0.57,0.19
		c0.14,0.16,0.2,0.37,0.18,0.57c0,0.16-0.02,0.32-0.05,0.47c-0.03,0.16-0.07,0.32-0.12,0.5l-0.53,1.8c-0.04,0.16-0.07,0.33-0.1,0.49
		c-0.02,0.14-0.03,0.28-0.03,0.42c0,0.32,0.14,0.61,0.39,0.81c0.28,0.22,0.64,0.34,0.99,0.34C11.97,13.07,12.11,13.07,12.11,13.07z
		 M13.73,5.29c0.38-0.34,0.43-0.92,0.09-1.31c-0.03-0.03-0.06-0.06-0.09-0.09c-0.21-0.19-0.48-0.3-0.76-0.3h-0.06
		c-0.28,0-0.55,0.11-0.77,0.3c-0.19,0.16-0.3,0.38-0.32,0.63c-0.02,0.25,0.06,0.48,0.22,0.67c0.03,0.03,0.06,0.07,0.1,0.1
		c0.22,0.2,0.5,0.3,0.79,0.3C13.23,5.6,13.51,5.49,13.73,5.29z M20.28,16.7L20.28,16.7c0-0.27-0.21-0.48-0.48-0.48H4.2
		c-0.27,0-0.48,0.21-0.48,0.48v0c0,0.27,0.21,0.48,0.48,0.48h15.6C20.07,17.18,20.28,16.96,20.28,16.7z M18.33,19.66L18.33,19.66
		c0-0.27-0.21-0.48-0.48-0.48H6.15c-0.27,0-0.48,0.21-0.48,0.48v0c0,0.27,0.21,0.48,0.48,0.48h11.7
		C18.12,20.14,18.33,19.93,18.33,19.66z"/>
</g>
</svg>
