<?xml version="1.0" encoding="utf-8"?>
<!-- Generator: Adobe Illustrator 25.2.1, SVG Export Plug-In . SVG Version: 6.00 Build 0)  -->
<svg version="1.1" id="Layer_1" xmlns="http://www.w3.org/2000/svg" xmlns:xlink="http://www.w3.org/1999/xlink" x="0px" y="0px"
	 viewBox="0 0 320 160" style="enable-background:new 0 0 320 160;" xml:space="preserve">
<style type="text/css">
	.st0{fill:#FFFFFF;}
	.st1{fill:#0066FF;}
	.st2{enable-background:new    ;}
	.st3{fill:none;}
	.st4{fill:#606060;}
	.st5{fill:none;stroke:#B5B5B5;stroke-width:1.25;stroke-linecap:round;stroke-linejoin:round;}
</style>
<rect class="st0" width="320" height="160"/>
<circle class="st1" cx="160" cy="33.1" r="19.1"/>
<g class="st2">
	<path d="M76.9,70.3V74h-1.5v-9.3H78c1.2,0,2.1,0.2,2.7,0.7s0.9,1.1,0.9,2c0,1.2-0.6,2-1.8,2.5l2.6,4.1h-1.7l-2.2-3.7
		C78.5,70.3,76.9,70.3,76.9,70.3z M76.9,69.1H78c0.7,0,1.2-0.1,1.5-0.4S80,68,80,67.5s-0.2-0.9-0.5-1.1s-0.9-0.3-1.5-0.3h-1
		L76.9,69.1L76.9,69.1z"/>
	<path d="M87.9,74.1l-0.3-1h-0.1c-0.3,0.4-0.7,0.7-1,0.9s-0.8,0.2-1.3,0.2c-0.7,0-1.2-0.2-1.6-0.6C83.2,73.3,83,72.7,83,72
		s0.3-1.3,0.8-1.6c0.5-0.4,1.4-0.6,2.5-0.6h1.2v-0.4c0-0.4-0.1-0.8-0.3-1c-0.2-0.2-0.5-0.3-1-0.3c-0.4,0-0.7,0.1-1,0.2
		s-0.6,0.2-1,0.4l-0.5-1.1c0.4-0.2,0.8-0.4,1.3-0.5s0.9-0.2,1.3-0.2c0.9,0,1.6,0.2,2,0.6c0.5,0.4,0.7,1,0.7,1.8V74L87.9,74.1
		L87.9,74.1z M85.7,73c0.5,0,1-0.2,1.3-0.5s0.5-0.7,0.5-1.3v-0.6h-0.9c-0.7,0-1.2,0.1-1.5,0.4c-0.3,0.2-0.5,0.5-0.5,1
		c0,0.3,0.1,0.6,0.3,0.7C85,73,85.3,73,85.7,73z"/>
	<path d="M93.4,74.2c-0.9,0-1.6-0.3-2.1-1s-0.7-1.5-0.7-2.7s0.2-2,0.7-2.7c0.5-0.6,1.2-1,2.1-1s1.6,0.3,2.1,1h0.1
		c-0.1-0.5-0.1-0.9-0.1-1.2V64H97v9.9h-1.2L95.5,73h-0.1C95,73.8,94.3,74.2,93.4,74.2z M93.8,73c0.6,0,1.1-0.2,1.3-0.5
		s0.4-0.9,0.4-1.7v-0.2c0-0.9-0.1-1.5-0.4-1.9s-0.7-0.6-1.4-0.6c-0.5,0-0.9,0.2-1.2,0.6c-0.3,0.4-0.4,1-0.4,1.8s0.1,1.4,0.4,1.8
		S93.2,73,93.8,73z"/>
	<path d="M99,65.2c0-0.3,0.1-0.5,0.2-0.6s0.4-0.2,0.6-0.2c0.3,0,0.5,0.1,0.6,0.2s0.2,0.3,0.2,0.6c0,0.3-0.1,0.5-0.2,0.6
		S100,66,99.8,66c-0.3,0-0.5-0.1-0.6-0.2C99.1,65.6,99,65.4,99,65.2z M100.6,74.1h-1.5v-7h1.5V74.1z"/>
	<path d="M107.7,74.1l-0.2-0.9h-0.1c-0.2,0.3-0.5,0.6-0.9,0.8c-0.4,0.2-0.8,0.3-1.3,0.3c-0.9,0-1.5-0.2-1.9-0.6s-0.6-1.1-0.6-1.9V67
		h1.5v4.3c0,0.5,0.1,0.9,0.3,1.2s0.6,0.4,1,0.4c0.6,0,1.1-0.2,1.4-0.6s0.4-1,0.4-1.9V67h1.5v7L107.7,74.1L107.7,74.1z"/>
	<path d="M115.7,72.1c0,0.7-0.2,1.2-0.7,1.6s-1.2,0.5-2.1,0.5s-1.7-0.1-2.3-0.4v-1.3c0.8,0.4,1.6,0.6,2.3,0.6c0.9,0,1.4-0.3,1.4-0.8
		c0-0.2-0.1-0.3-0.2-0.4s-0.3-0.2-0.5-0.4s-0.6-0.3-1-0.4c-0.8-0.3-1.4-0.6-1.6-0.9c-0.3-0.3-0.4-0.7-0.4-1.2c0-0.6,0.2-1.1,0.7-1.4
		s1.1-0.5,2-0.5c0.8,0,1.6,0.2,2.3,0.5l-0.5,1.1c-0.8-0.3-1.4-0.5-1.9-0.5c-0.8,0-1.2,0.2-1.2,0.7c0,0.2,0.1,0.4,0.3,0.6
		c0.2,0.2,0.7,0.4,1.3,0.6c0.6,0.2,1,0.4,1.3,0.6s0.5,0.4,0.6,0.6S115.7,71.7,115.7,72.1z"/>
	<path d="M120.9,64.8h2.8c1.3,0,2.2,0.2,2.8,0.6c0.6,0.4,0.9,1,0.9,1.8c0,0.5-0.1,1-0.4,1.4s-0.7,0.6-1.2,0.7v0.1
		c0.7,0.1,1.1,0.4,1.4,0.7c0.3,0.4,0.5,0.9,0.5,1.5c0,0.8-0.3,1.5-0.9,2s-1.4,0.7-2.4,0.7H121L120.9,64.8
		C121,64.8,120.9,64.8,120.9,64.8z M122.4,68.6h1.5c0.6,0,1.1-0.1,1.4-0.3s0.4-0.5,0.4-1c0-0.4-0.2-0.8-0.5-0.9
		c-0.3-0.2-0.8-0.3-1.5-0.3h-1.3V68.6z M122.4,69.8v2.9h1.6c0.6,0,1.1-0.1,1.4-0.4c0.3-0.2,0.5-0.6,0.5-1.2c0-0.5-0.2-0.8-0.5-1.1
		c-0.3-0.2-0.8-0.3-1.5-0.3L122.4,69.8L122.4,69.8z"/>
	<path d="M130.8,74.1h-1.5v-9.9h1.5V74.1z"/>
	<path d="M139.1,70.5c0,1.1-0.3,2-0.9,2.7s-1.4,1-2.5,1c-0.7,0-1.2-0.1-1.7-0.4s-0.9-0.7-1.2-1.3c-0.3-0.6-0.4-1.2-0.4-1.9
		c0-1.1,0.3-2,0.9-2.7c0.6-0.6,1.4-1,2.5-1c1,0,1.8,0.3,2.4,1C138.8,68.5,139.1,69.4,139.1,70.5z M134,70.5c0,1.6,0.6,2.4,1.8,2.4
		s1.8-0.8,1.8-2.4s-0.6-2.4-1.8-2.4c-0.6,0-1.1,0.2-1.4,0.6C134.2,69.2,134,69.8,134,70.5z"/>
	<path d="M143.7,74.2c-1.1,0-1.9-0.3-2.4-0.9c-0.6-0.6-0.8-1.5-0.8-2.7s0.3-2.1,0.9-2.7c0.6-0.6,1.4-1,2.5-1c0.7,0,1.4,0.1,2,0.4
		l-0.5,1.2c-0.6-0.2-1.2-0.4-1.6-0.4c-1.2,0-1.8,0.8-1.8,2.4c0,0.8,0.2,1.4,0.5,1.8s0.7,0.6,1.3,0.6c0.7,0,1.3-0.2,1.9-0.5v1.3
		c-0.3,0.2-0.6,0.3-0.9,0.3C144.5,74.1,144.1,74.2,143.7,74.2z"/>
	<path d="M148.7,70.3l0.8-1.1l2.1-2.3h1.7l-2.8,3l3,4h-1.8l-2.3-3.1l-0.8,0.7v2.4h-1.5V64h1.5v5L148.7,70.3L148.7,70.3z"/>
	<path d="M159.4,72.1c0,0.7-0.2,1.2-0.7,1.6s-1.2,0.5-2.1,0.5c-0.9,0-1.7-0.1-2.3-0.4v-1.3c0.8,0.4,1.6,0.6,2.3,0.6
		c0.9,0,1.4-0.3,1.4-0.8c0-0.2-0.1-0.3-0.2-0.4c-0.1-0.1-0.3-0.2-0.5-0.4s-0.6-0.3-1-0.4c-0.8-0.3-1.4-0.6-1.6-0.9
		c-0.3-0.3-0.4-0.7-0.4-1.2c0-0.6,0.2-1.1,0.7-1.4s1.1-0.5,2-0.5c0.8,0,1.6,0.2,2.3,0.5l-0.5,1.1c-0.8-0.3-1.4-0.5-1.9-0.5
		c-0.8,0-1.2,0.2-1.2,0.7c0,0.2,0.1,0.4,0.3,0.6s0.7,0.4,1.3,0.6s1,0.4,1.3,0.6s0.5,0.4,0.6,0.6S159.4,71.7,159.4,72.1z"/>
	<path d="M164.6,74.1v-9.3h1.5v9.3H164.6z"/>
	<path d="M174.6,74.1h-1.5v-4.3c0-0.5-0.1-0.9-0.3-1.2c-0.2-0.3-0.6-0.4-1-0.4c-0.6,0-1.1,0.2-1.4,0.6s-0.4,1-0.4,1.9v3.5h-1.5v-7
		h1.2l0.2,0.9h0.1c0.2-0.3,0.5-0.6,0.9-0.8c0.4-0.2,0.8-0.3,1.3-0.3c1.7,0,2.5,0.9,2.5,2.6v4.5C174.7,74.1,174.6,74.1,174.6,74.1z"
		/>
	<path d="M180.2,68.2h-1.7v5.9H177v-5.9h-1.2v-0.7L177,67v-0.5c0-0.8,0.2-1.4,0.6-1.8c0.4-0.4,1-0.6,1.8-0.6c0.5,0,1,0.1,1.5,0.3
		l-0.4,1.1c-0.4-0.1-0.7-0.2-1.1-0.2c-0.3,0-0.6,0.1-0.7,0.3c-0.2,0.2-0.2,0.5-0.2,0.9V67h1.7L180.2,68.2L180.2,68.2z"/>
	<path d="M187.6,70.5c0,1.1-0.3,2-0.9,2.7c-0.6,0.6-1.4,1-2.5,1c-0.7,0-1.2-0.1-1.7-0.4s-0.9-0.7-1.2-1.3c-0.3-0.6-0.4-1.2-0.4-1.9
		c0-1.1,0.3-2,0.9-2.7c0.6-0.6,1.4-1,2.5-1c1,0,1.8,0.3,2.4,1C187.3,68.5,187.6,69.4,187.6,70.5z M182.5,70.5c0,1.6,0.6,2.4,1.8,2.4
		s1.8-0.8,1.8-2.4s-0.6-2.4-1.8-2.4c-0.6,0-1.1,0.2-1.4,0.6C182.6,69.2,182.5,69.8,182.5,70.5z"/>
	<path d="M192.8,64.8h2.8c1.3,0,2.2,0.2,2.8,0.6s0.9,1,0.9,1.8c0,0.5-0.1,1-0.4,1.4c-0.3,0.4-0.7,0.6-1.2,0.7v0.1
		c0.7,0.1,1.1,0.4,1.4,0.7c0.3,0.4,0.5,0.9,0.5,1.5c0,0.8-0.3,1.5-0.9,2c-0.6,0.5-1.4,0.7-2.4,0.7h-3.4v-9.5
		C192.9,64.8,192.8,64.8,192.8,64.8z M194.4,68.6h1.5c0.6,0,1.1-0.1,1.4-0.3s0.4-0.5,0.4-1c0-0.4-0.2-0.8-0.5-0.9
		c-0.3-0.2-0.8-0.3-1.5-0.3h-1.3L194.4,68.6L194.4,68.6z M194.4,69.8v2.9h1.6c0.6,0,1.1-0.1,1.4-0.4c0.3-0.2,0.5-0.6,0.5-1.2
		c0-0.5-0.2-0.8-0.5-1.1c-0.3-0.2-0.8-0.3-1.5-0.3L194.4,69.8L194.4,69.8z"/>
	<path d="M207.5,70.5c0,1.1-0.3,2-0.9,2.7c-0.6,0.6-1.4,1-2.5,1c-0.7,0-1.2-0.1-1.7-0.4s-0.9-0.7-1.2-1.3c-0.3-0.6-0.4-1.2-0.4-1.9
		c0-1.1,0.3-2,0.9-2.7c0.6-0.6,1.4-1,2.5-1c1,0,1.8,0.3,2.4,1C207.2,68.5,207.5,69.4,207.5,70.5z M202.4,70.5c0,1.6,0.6,2.4,1.8,2.4
		s1.8-0.8,1.8-2.4s-0.6-2.4-1.8-2.4c-0.6,0-1.1,0.2-1.4,0.6S202.4,69.8,202.4,70.5z"/>
	<path d="M210.8,70.5l-2.4-3.4h1.7l1.6,2.5l1.6-2.5h1.7l-2.4,3.4l2.5,3.6h-1.7l-1.7-2.6l-1.7,2.6h-1.7L210.8,70.5z"/>
	<path d="M223.1,74.1h-1.5v-8h-2.7v-1.3h7v1.3h-2.7v8H223.1z"/>
	<path d="M227,65.2c0-0.3,0.1-0.5,0.2-0.6c0.1-0.1,0.4-0.2,0.6-0.2c0.3,0,0.5,0.1,0.6,0.2s0.2,0.3,0.2,0.6c0,0.3-0.1,0.5-0.2,0.6
		c-0.1,0.1-0.4,0.2-0.6,0.2c-0.3,0-0.5-0.1-0.6-0.2C227.1,65.6,227,65.4,227,65.2z M228.6,74.1h-1.5v-7h1.5V74.1z"/>
	<path d="M233.3,73c0.4,0,0.7-0.1,1.1-0.2v1.1c-0.2,0.1-0.4,0.1-0.6,0.2c-0.3,0-0.5,0.1-0.8,0.1c-1.4,0-2.1-0.7-2.1-2.2v-3.8h-1
		v-0.7l1-0.5l0.5-1.5h0.9V67h2v1.1h-2v3.8c0,0.4,0.1,0.6,0.3,0.8C232.8,72.9,233.1,73,233.3,73z"/>
	<path d="M237.3,74.1h-1.5v-9.9h1.5V74.1z"/>
	<path d="M242.5,74.2c-1.1,0-1.9-0.3-2.6-1c-0.6-0.6-0.9-1.5-0.9-2.6s0.3-2,0.9-2.7c0.6-0.7,1.4-1,2.4-1c0.9,0,1.7,0.3,2.2,0.8
		c0.5,0.6,0.8,1.3,0.8,2.3v0.8h-4.7c0,0.7,0.2,1.2,0.6,1.6c0.3,0.4,0.8,0.5,1.5,0.5c0.4,0,0.8,0,1.2-0.1s0.7-0.2,1.2-0.4v1.2
		c-0.4,0.2-0.7,0.3-1.1,0.4C243.4,74.1,243,74.2,242.5,74.2z M242.3,68c-0.5,0-0.9,0.2-1.1,0.5c-0.3,0.3-0.5,0.7-0.5,1.3h3.2
		c0-0.6-0.1-1-0.4-1.3C243.1,68.2,242.7,68,242.3,68z"/>
</g>
<rect x="26.6" y="87" class="st3" width="266.8" height="27.1"/>
<g class="st2">
	<path class="st4" d="M33.9,93.9v-6.4h0.7v5.7h2.8v0.7C37.4,93.9,33.9,93.9,33.9,93.9z"/>
	<path class="st4" d="M42.6,91.5c0,0.8-0.2,1.4-0.6,1.8c-0.4,0.4-1,0.7-1.7,0.7c-0.4,0-0.8-0.1-1.1-0.3c-0.3-0.2-0.6-0.5-0.8-0.9
		s-0.3-0.8-0.3-1.3c0-0.8,0.2-1.4,0.6-1.8c0.4-0.4,0.9-0.7,1.6-0.7c0.7,0,1.2,0.2,1.6,0.7C42.4,90.1,42.6,90.7,42.6,91.5z
		 M38.9,91.5c0,0.6,0.1,1.1,0.4,1.4s0.6,0.5,1.1,0.5s0.8-0.2,1.1-0.5c0.2-0.3,0.4-0.8,0.4-1.4s-0.1-1.1-0.4-1.4
		c-0.2-0.3-0.6-0.5-1.1-0.5s-0.8,0.2-1.1,0.5S38.9,90.8,38.9,91.5z"/>
	<path class="st4" d="M46.1,89c0.2,0,0.4,0,0.6,0.1l-0.1,0.7c-0.2,0-0.4-0.1-0.5-0.1c-0.4,0-0.7,0.2-1,0.5s-0.4,0.7-0.4,1.2V94H44
		v-4.8h0.6l0.1,0.9l0,0c0.2-0.3,0.4-0.6,0.6-0.7S45.8,89,46.1,89z"/>
	<path class="st4" d="M49.6,94c-0.7,0-1.3-0.2-1.7-0.7c-0.4-0.4-0.6-1-0.6-1.8s0.2-1.4,0.6-1.8c0.4-0.5,0.9-0.7,1.5-0.7
		s1.1,0.2,1.4,0.6c0.4,0.4,0.5,0.9,0.5,1.6v0.5H48c0,0.6,0.2,1,0.4,1.3s0.7,0.4,1.1,0.4c0.5,0,1-0.1,1.5-0.3v0.7
		c-0.3,0.1-0.5,0.2-0.7,0.2C50.2,93.9,49.9,94,49.6,94z M49.4,89.6c-0.4,0-0.7,0.1-0.9,0.4s-0.4,0.6-0.4,1h2.5
		c0-0.5-0.1-0.8-0.3-1.1C50,89.7,49.8,89.6,49.4,89.6z"/>
	<path class="st4" d="M58.7,93.9v-3.1c0-0.4-0.1-0.7-0.2-0.9c-0.2-0.2-0.4-0.3-0.8-0.3c-0.5,0-0.8,0.1-1,0.4s-0.3,0.7-0.3,1.2v2.7
		h-0.7v-3.1c0-0.4-0.1-0.7-0.2-0.9c-0.2-0.2-0.4-0.3-0.8-0.3c-0.5,0-0.8,0.1-1,0.4s-0.3,0.7-0.3,1.3v2.5h-0.7V89h0.6l0.1,0.7l0,0
		c0.1-0.2,0.3-0.4,0.6-0.5s0.5-0.2,0.8-0.2c0.8,0,1.2,0.3,1.5,0.8l0,0c0.1-0.3,0.4-0.5,0.6-0.6s0.6-0.2,0.9-0.2c0.5,0,1,0.1,1.2,0.4
		c0.3,0.3,0.4,0.7,0.4,1.3v3.1L58.7,93.9L58.7,93.9z"/>
	<path class="st4" d="M63.2,87.8c0-0.2,0-0.3,0.1-0.4s0.2-0.1,0.3-0.1s0.2,0,0.3,0.1s0.1,0.2,0.1,0.4s0,0.3-0.1,0.4
		s-0.2,0.1-0.3,0.1s-0.2,0-0.3-0.1C63.3,88,63.2,87.9,63.2,87.8z M64,93.9h-0.7v-4.8H64V93.9z"/>
	<path class="st4" d="M67.8,94c-0.3,0-0.6-0.1-0.9-0.2s-0.5-0.3-0.7-0.5h-0.1c0,0.3,0.1,0.5,0.1,0.8v2h-0.7v-7h0.6l0.1,0.7l0,0
		c0.2-0.3,0.4-0.5,0.7-0.6s0.5-0.2,0.9-0.2c0.6,0,1.1,0.2,1.5,0.7c0.3,0.4,0.5,1,0.5,1.8s-0.2,1.4-0.5,1.8
		C68.9,93.7,68.4,94,67.8,94z M67.7,89.6c-0.5,0-0.8,0.1-1.1,0.4s-0.3,0.7-0.3,1.3v0.2c0,0.7,0.1,1.2,0.3,1.5
		c0.2,0.3,0.6,0.4,1.1,0.4c0.4,0,0.7-0.2,1-0.5s0.4-0.8,0.4-1.4s-0.1-1.1-0.4-1.4C68.5,89.7,68.1,89.6,67.7,89.6z"/>
	<path class="st4" d="M74.2,92.6c0,0.4-0.2,0.8-0.5,1S72.9,94,72.3,94s-1.1-0.1-1.5-0.3V93c0.2,0.1,0.5,0.2,0.7,0.3s0.5,0.1,0.8,0.1
		c0.4,0,0.7-0.1,0.9-0.2c0.2-0.1,0.3-0.3,0.3-0.6c0-0.2-0.1-0.3-0.2-0.5c-0.2-0.1-0.5-0.3-1-0.5c-0.4-0.2-0.8-0.3-1-0.4
		s-0.3-0.3-0.4-0.4c-0.1-0.2-0.1-0.3-0.1-0.6c0-0.4,0.2-0.7,0.5-0.9c0.3-0.2,0.8-0.3,1.3-0.3s1,0.1,1.5,0.3l-0.3,0.6
		c-0.5-0.2-0.9-0.3-1.3-0.3c-0.3,0-0.6,0.1-0.8,0.2s-0.3,0.3-0.3,0.4s0,0.2,0.1,0.3c0.1,0.1,0.2,0.2,0.3,0.3s0.4,0.2,0.8,0.4
		c0.6,0.2,1,0.4,1.2,0.6S74.2,92.2,74.2,92.6z"/>
	<path class="st4" d="M76.1,89.1v3.1c0,0.4,0.1,0.7,0.3,0.9s0.5,0.3,0.8,0.3c0.5,0,0.9-0.1,1.1-0.4s0.3-0.7,0.3-1.3v-2.5h0.7V94
		h-0.6l-0.1-0.6l0,0c-0.1,0.2-0.4,0.4-0.6,0.5c-0.3,0.1-0.6,0.2-0.9,0.2c-0.6,0-1-0.1-1.3-0.4s-0.4-0.7-0.4-1.3v-3.2L76.1,89.1
		L76.1,89.1z"/>
	<path class="st4" d="M87,93.9v-3.1c0-0.4-0.1-0.7-0.2-0.9c-0.2-0.2-0.4-0.3-0.8-0.3c-0.5,0-0.8,0.1-1,0.4s-0.3,0.7-0.3,1.2v2.7H84
		v-3.1c0-0.4-0.1-0.7-0.2-0.9c-0.2-0.2-0.4-0.3-0.8-0.3c-0.5,0-0.8,0.1-1,0.4s-0.3,0.7-0.3,1.3v2.5H81V89h0.6l0.1,0.7l0,0
		c0.1-0.2,0.3-0.4,0.6-0.5c0.3-0.1,0.5-0.2,0.8-0.2c0.8,0,1.2,0.3,1.5,0.8l0,0c0.1-0.3,0.4-0.5,0.6-0.6s0.6-0.2,0.9-0.2
		c0.5,0,1,0.1,1.2,0.4c0.3,0.3,0.4,0.7,0.4,1.3v3.1L87,93.9L87,93.9z"/>
	<path class="st4" d="M94.9,93.2L94.9,93.2C94.5,93.7,94,94,93.3,94c-0.6,0-1.1-0.2-1.5-0.6s-0.5-1-0.5-1.8s0.2-1.4,0.5-1.9
		s0.8-0.7,1.5-0.7s1.2,0.2,1.5,0.7h0.1v-0.3v-0.3v-2h0.7v6.8H95L94.9,93.2z M93.4,93.3c0.5,0,0.9-0.1,1.1-0.4s0.3-0.7,0.3-1.3v-0.2
		c0-0.7-0.1-1.2-0.3-1.5c-0.2-0.3-0.6-0.4-1.1-0.4c-0.4,0-0.8,0.2-1,0.5s-0.3,0.8-0.3,1.4s0.1,1.1,0.3,1.4S93,93.3,93.4,93.3z"/>
	<path class="st4" d="M101.3,91.5c0,0.8-0.2,1.4-0.6,1.8S99.8,94,99.1,94c-0.4,0-0.8-0.1-1.1-0.3c-0.3-0.2-0.6-0.5-0.8-0.9
		c-0.2-0.4-0.3-0.8-0.3-1.3c0-0.8,0.2-1.4,0.6-1.8s0.9-0.7,1.6-0.7s1.2,0.2,1.6,0.7C101.1,90.1,101.3,90.7,101.3,91.5z M97.6,91.5
		c0,0.6,0.1,1.1,0.4,1.4s0.6,0.5,1.1,0.5s0.8-0.2,1.1-0.5c0.2-0.3,0.4-0.8,0.4-1.4s-0.1-1.1-0.4-1.4c-0.2-0.3-0.6-0.5-1.1-0.5
		s-0.8,0.2-1.1,0.5S97.6,90.8,97.6,91.5z"/>
	<path class="st4" d="M103.3,93.9h-0.7V87h0.7V93.9z"/>
	<path class="st4" d="M109,91.5c0,0.8-0.2,1.4-0.6,1.8s-0.9,0.7-1.6,0.7c-0.4,0-0.8-0.1-1.1-0.3c-0.3-0.2-0.6-0.5-0.8-0.9
		c-0.2-0.4-0.3-0.8-0.3-1.3c0-0.8,0.2-1.4,0.6-1.8s0.9-0.7,1.6-0.7s1.2,0.2,1.6,0.7C108.8,90.1,109,90.7,109,91.5z M105.3,91.5
		c0,0.6,0.1,1.1,0.4,1.4s0.6,0.5,1.1,0.5s0.8-0.2,1.1-0.5c0.2-0.3,0.4-0.8,0.4-1.4s-0.1-1.1-0.4-1.4c-0.2-0.3-0.6-0.5-1.1-0.5
		s-0.8,0.2-1.1,0.5S105.3,90.8,105.3,91.5z"/>
	<path class="st4" d="M112.5,89c0.2,0,0.4,0,0.6,0.1l-0.1,0.7c-0.2,0-0.4-0.1-0.5-0.1c-0.4,0-0.7,0.2-1,0.5s-0.4,0.7-0.4,1.2V94
		h-0.7v-4.8h0.6l0.1,0.9l0,0c0.2-0.3,0.4-0.6,0.6-0.7S112.2,89,112.5,89z"/>
	<path class="st4" d="M119.4,92.6c0,0.4-0.2,0.8-0.5,1s-0.8,0.4-1.4,0.4s-1.1-0.1-1.5-0.3V93c0.2,0.1,0.5,0.2,0.7,0.3
		s0.5,0.1,0.8,0.1c0.4,0,0.7-0.1,0.9-0.2c0.2-0.1,0.3-0.3,0.3-0.6c0-0.2-0.1-0.3-0.2-0.5c-0.2-0.1-0.5-0.3-1-0.5
		c-0.4-0.2-0.8-0.3-1-0.4s-0.3-0.3-0.4-0.4c-0.1-0.2-0.1-0.3-0.1-0.6c0-0.4,0.2-0.7,0.5-0.9c0.3-0.2,0.8-0.3,1.3-0.3s1,0.1,1.5,0.3
		l-0.3,0.6c-0.5-0.2-0.9-0.3-1.3-0.3c-0.3,0-0.6,0.1-0.8,0.2s-0.3,0.3-0.3,0.4s0,0.2,0.1,0.3c0.1,0.1,0.2,0.2,0.3,0.3
		s0.4,0.2,0.8,0.4c0.6,0.2,1,0.4,1.2,0.6S119.4,92.2,119.4,92.6z"/>
	<path class="st4" d="M120.5,87.8c0-0.2,0-0.3,0.1-0.4s0.2-0.1,0.3-0.1c0.1,0,0.2,0,0.3,0.1s0.1,0.2,0.1,0.4s0,0.3-0.1,0.4
		s-0.2,0.1-0.3,0.1c-0.1,0-0.2,0-0.3-0.1C120.6,88,120.5,87.9,120.5,87.8z M121.3,93.9h-0.7v-4.8h0.7V93.9z"/>
	<path class="st4" d="M124.4,93.4c0.1,0,0.3,0,0.4,0s0.2,0,0.3-0.1v0.6c-0.1,0-0.2,0.1-0.3,0.1c-0.2,0-0.3,0-0.4,0
		c-0.9,0-1.4-0.5-1.4-1.5v-2.9h-0.7v-0.4l0.7-0.3l0.3-1h0.4V89h1.4v0.6h-1.4v2.8c0,0.3,0.1,0.5,0.2,0.7S124.2,93.4,124.4,93.4z"/>
	<path class="st4" d="M131.3,93.9l-0.1-0.7l0,0c-0.2,0.3-0.5,0.5-0.7,0.6S130,94,129.6,94c-0.5,0-0.9-0.1-1.1-0.4S128,93,128,92.5
		c0-1,0.8-1.5,2.3-1.5h0.8v-0.3c0-0.4-0.1-0.7-0.2-0.8c-0.2-0.2-0.4-0.3-0.8-0.3c-0.4,0-0.9,0.1-1.4,0.4l-0.2-0.6
		c0.2-0.1,0.5-0.2,0.8-0.3s0.6-0.1,0.9-0.1c0.6,0,1,0.1,1.3,0.4s0.4,0.7,0.4,1.2v3.3C131.9,93.9,131.3,93.9,131.3,93.9z M129.7,93.4
		c0.5,0,0.8-0.1,1.1-0.4c0.3-0.2,0.4-0.6,0.4-1v-0.4h-0.7c-0.6,0-1,0.1-1.3,0.3c-0.3,0.2-0.4,0.4-0.4,0.7c0,0.3,0.1,0.5,0.2,0.6
		S129.4,93.4,129.7,93.4z"/>
	<path class="st4" d="M139.5,93.9v-3.1c0-0.4-0.1-0.7-0.2-0.9c-0.2-0.2-0.4-0.3-0.8-0.3c-0.5,0-0.8,0.1-1,0.4s-0.3,0.7-0.3,1.2v2.7
		h-0.7v-3.1c0-0.4-0.1-0.7-0.2-0.9c-0.2-0.2-0.4-0.3-0.8-0.3c-0.5,0-0.8,0.1-1,0.4s-0.3,0.7-0.3,1.3v2.5h-0.7V89h0.6l0.1,0.7l0,0
		c0.1-0.2,0.3-0.4,0.6-0.5s0.5-0.2,0.8-0.2c0.8,0,1.2,0.3,1.5,0.8l0,0c0.1-0.3,0.4-0.5,0.6-0.6s0.6-0.2,0.9-0.2c0.5,0,1,0.1,1.2,0.4
		c0.3,0.3,0.4,0.7,0.4,1.3v3.1L139.5,93.9L139.5,93.9z"/>
	<path class="st4" d="M143.8,94c-0.7,0-1.3-0.2-1.7-0.7c-0.4-0.4-0.6-1-0.6-1.8s0.2-1.4,0.6-1.8c0.4-0.5,0.9-0.7,1.5-0.7
		s1.1,0.2,1.4,0.6c0.4,0.4,0.5,0.9,0.5,1.6v0.5h-3.3c0,0.6,0.2,1,0.4,1.3s0.7,0.4,1.1,0.4c0.5,0,1-0.1,1.5-0.3v0.7
		c-0.3,0.1-0.5,0.2-0.7,0.2C144.4,93.9,144.1,94,143.8,94z M143.6,89.6c-0.4,0-0.7,0.1-0.9,0.4s-0.4,0.6-0.4,1h2.5
		c0-0.5-0.1-0.8-0.3-1.1C144.3,89.7,144,89.6,143.6,89.6z"/>
	<path class="st4" d="M148.4,93.4c0.1,0,0.3,0,0.4,0c0.1,0,0.2,0,0.3-0.1v0.6c-0.1,0-0.2,0.1-0.3,0.1c-0.2,0-0.3,0-0.4,0
		c-0.9,0-1.4-0.5-1.4-1.5v-2.9h-0.7v-0.4l0.7-0.3l0.3-1h0.4V89h1.4v0.6h-1.4v2.8c0,0.3,0.1,0.5,0.2,0.7S148.1,93.4,148.4,93.4z"/>
	<path class="st4" d="M150.7,92.8l0.1,0.1c-0.1,0.3-0.2,0.6-0.3,1s-0.3,0.7-0.4,1.1h-0.5c0.1-0.3,0.2-0.7,0.3-1.1s0.2-0.8,0.2-1.1
		H150.7z"/>
	<path class="st4" d="M156.4,94c-0.7,0-1.2-0.2-1.6-0.6c-0.4-0.4-0.6-1-0.6-1.8s0.2-1.4,0.6-1.9c0.4-0.4,0.9-0.7,1.7-0.7
		c0.2,0,0.5,0,0.7,0.1s0.4,0.1,0.5,0.2l-0.2,0.6c-0.2-0.1-0.3-0.1-0.5-0.2c-0.2,0-0.4-0.1-0.5-0.1c-1,0-1.5,0.6-1.5,1.9
		c0,0.6,0.1,1,0.4,1.4s0.6,0.5,1.1,0.5c0.4,0,0.8-0.1,1.2-0.3v0.6C157.3,93.9,156.9,94,156.4,94z"/>
	<path class="st4" d="M163,91.5c0,0.8-0.2,1.4-0.6,1.8c-0.4,0.4-0.9,0.7-1.6,0.7c-0.4,0-0.8-0.1-1.1-0.3c-0.3-0.2-0.6-0.5-0.8-0.9
		s-0.3-0.8-0.3-1.3c0-0.8,0.2-1.4,0.6-1.8c0.4-0.4,0.9-0.7,1.6-0.7c0.7,0,1.2,0.2,1.6,0.7C162.8,90.1,163,90.7,163,91.5z
		 M159.3,91.5c0,0.6,0.1,1.1,0.4,1.4s0.6,0.5,1.1,0.5s0.8-0.2,1.1-0.5c0.2-0.3,0.4-0.8,0.4-1.4s-0.1-1.1-0.4-1.4
		c-0.2-0.3-0.6-0.5-1.1-0.5s-0.8,0.2-1.1,0.5S159.3,90.8,159.3,91.5z"/>
	<path class="st4" d="M167.5,93.9v-3.1c0-0.4-0.1-0.7-0.3-0.9s-0.5-0.3-0.8-0.3c-0.5,0-0.9,0.1-1.1,0.4s-0.4,0.7-0.4,1.3v2.5h-0.7
		V89h0.6l0.1,0.7l0,0c0.1-0.2,0.4-0.4,0.6-0.6c0.3-0.1,0.6-0.2,0.9-0.2c0.6,0,1,0.1,1.3,0.4s0.4,0.7,0.4,1.3v3.1h-0.6V93.9z"/>
	<path class="st4" d="M172.9,92.6c0,0.4-0.2,0.8-0.5,1S171.6,94,171,94s-1.1-0.1-1.5-0.3V93c0.2,0.1,0.5,0.2,0.7,0.3
		c0.3,0.1,0.5,0.1,0.8,0.1c0.4,0,0.7-0.1,0.9-0.2s0.3-0.3,0.3-0.6c0-0.2-0.1-0.3-0.2-0.5c-0.2-0.1-0.5-0.3-1-0.5
		c-0.4-0.2-0.8-0.3-1-0.4s-0.3-0.3-0.4-0.4c-0.1-0.2-0.1-0.3-0.1-0.6c0-0.4,0.2-0.7,0.5-0.9c0.3-0.2,0.8-0.3,1.3-0.3s1,0.1,1.5,0.3
		l-0.3,0.6c-0.5-0.2-0.9-0.3-1.3-0.3c-0.3,0-0.6,0.1-0.8,0.2s-0.3,0.3-0.3,0.4s0,0.2,0.1,0.3c0.1,0.1,0.2,0.2,0.3,0.3
		s0.4,0.2,0.8,0.4c0.6,0.2,1,0.4,1.2,0.6C172.8,92,172.9,92.2,172.9,92.6z"/>
	<path class="st4" d="M176.1,94c-0.7,0-1.3-0.2-1.7-0.7c-0.4-0.4-0.6-1-0.6-1.8s0.2-1.4,0.6-1.8c0.4-0.5,0.9-0.7,1.5-0.7
		s1.1,0.2,1.4,0.6c0.4,0.4,0.5,0.9,0.5,1.6v0.5h-3.3c0,0.6,0.2,1,0.4,1.3c0.3,0.3,0.7,0.4,1.1,0.4c0.5,0,1-0.1,1.5-0.3v0.7
		c-0.3,0.1-0.5,0.2-0.7,0.2C176.7,93.9,176.4,94,176.1,94z M175.9,89.6c-0.4,0-0.7,0.1-0.9,0.4s-0.4,0.6-0.4,1h2.5
		c0-0.5-0.1-0.8-0.3-1.1C176.6,89.7,176.3,89.6,175.9,89.6z"/>
	<path class="st4" d="M181,94c-0.7,0-1.2-0.2-1.6-0.6c-0.4-0.4-0.6-1-0.6-1.8s0.2-1.4,0.6-1.9c0.4-0.4,0.9-0.7,1.7-0.7
		c0.2,0,0.5,0,0.7,0.1s0.4,0.1,0.5,0.2l-0.2,0.6c-0.2-0.1-0.3-0.1-0.5-0.2c-0.2,0-0.4-0.1-0.5-0.1c-1,0-1.5,0.6-1.5,1.9
		c0,0.6,0.1,1,0.4,1.4c0.2,0.3,0.6,0.5,1.1,0.5c0.4,0,0.8-0.1,1.2-0.3v0.6C181.9,93.9,181.5,94,181,94z"/>
	<path class="st4" d="M184.9,93.4c0.1,0,0.3,0,0.4,0c0.1,0,0.2,0,0.3-0.1v0.6c-0.1,0-0.2,0.1-0.3,0.1c-0.2,0-0.3,0-0.4,0
		c-0.9,0-1.4-0.5-1.4-1.5v-2.9h-0.7v-0.4l0.7-0.3l0.3-1h0.4V89h1.4v0.6h-1.4v2.8c0,0.3,0.1,0.5,0.2,0.7S184.7,93.4,184.9,93.4z"/>
	<path class="st4" d="M188.6,94c-0.7,0-1.3-0.2-1.7-0.7c-0.4-0.4-0.6-1-0.6-1.8s0.2-1.4,0.6-1.8c0.4-0.5,0.9-0.7,1.5-0.7
		s1.1,0.2,1.4,0.6c0.4,0.4,0.5,0.9,0.5,1.6v0.5H187c0,0.6,0.2,1,0.4,1.3c0.3,0.3,0.7,0.4,1.1,0.4c0.5,0,1-0.1,1.5-0.3v0.7
		c-0.3,0.1-0.5,0.2-0.7,0.2C189.2,93.9,188.9,94,188.6,94z M188.4,89.6c-0.4,0-0.7,0.1-0.9,0.4s-0.4,0.6-0.4,1h2.5
		c0-0.5-0.1-0.8-0.3-1.1C189.1,89.7,188.8,89.6,188.4,89.6z"/>
	<path class="st4" d="M193.2,93.4c0.1,0,0.3,0,0.4,0c0.1,0,0.2,0,0.3-0.1v0.6c-0.1,0-0.2,0.1-0.3,0.1c-0.2,0-0.3,0-0.4,0
		c-0.9,0-1.4-0.5-1.4-1.5v-2.9H191v-0.4l0.7-0.3l0.3-1h0.4V89h1.4v0.6h-1.4v2.8c0,0.3,0.1,0.5,0.2,0.7S192.9,93.4,193.2,93.4z"/>
	<path class="st4" d="M195.5,89.1v3.1c0,0.4,0.1,0.7,0.3,0.9s0.5,0.3,0.8,0.3c0.5,0,0.9-0.1,1.1-0.4c0.2-0.3,0.3-0.7,0.3-1.3v-2.5
		h0.7V94h-0.6l-0.1-0.6l0,0c-0.1,0.2-0.4,0.4-0.6,0.5c-0.3,0.1-0.6,0.2-0.9,0.2c-0.6,0-1-0.1-1.3-0.4s-0.4-0.7-0.4-1.3v-3.2
		L195.5,89.1L195.5,89.1z"/>
	<path class="st4" d="M202.4,94c-0.7,0-1.3-0.2-1.7-0.7c-0.4-0.4-0.6-1-0.6-1.8s0.2-1.4,0.6-1.8c0.4-0.5,0.9-0.7,1.5-0.7
		s1.1,0.2,1.4,0.6c0.4,0.4,0.5,0.9,0.5,1.6v0.5h-3.3c0,0.6,0.2,1,0.4,1.3c0.3,0.3,0.7,0.4,1.1,0.4c0.5,0,1-0.1,1.5-0.3v0.7
		c-0.3,0.1-0.5,0.2-0.7,0.2C203,93.9,202.7,94,202.4,94z M202.2,89.6c-0.4,0-0.7,0.1-0.9,0.4s-0.4,0.6-0.4,1h2.5
		c0-0.5-0.1-0.8-0.3-1.1C202.8,89.7,202.5,89.6,202.2,89.6z"/>
	<path class="st4" d="M207.6,89c0.2,0,0.4,0,0.6,0.1l-0.1,0.7c-0.2,0-0.4-0.1-0.5-0.1c-0.4,0-0.7,0.2-1,0.5s-0.4,0.7-0.4,1.2V94
		h-0.7v-4.8h0.6l0.1,0.9l0,0c0.2-0.3,0.4-0.6,0.6-0.7S207.3,89,207.6,89z"/>
	<path class="st4" d="M214.3,93.9l-0.1-0.7l0,0c-0.2,0.3-0.5,0.5-0.7,0.6S213,94,212.6,94c-0.5,0-0.9-0.1-1.1-0.4
		c-0.3-0.2-0.4-0.6-0.4-1.1c0-1,0.8-1.5,2.3-1.5h0.8v-0.3c0-0.4-0.1-0.7-0.2-0.8c-0.2-0.2-0.4-0.3-0.8-0.3c-0.4,0-0.9,0.1-1.4,0.4
		l-0.2-0.6c0.2-0.1,0.5-0.2,0.8-0.3c0.3-0.1,0.6-0.1,0.9-0.1c0.6,0,1,0.1,1.3,0.4s0.4,0.7,0.4,1.2v3.3
		C215,93.9,214.3,93.9,214.3,93.9z M212.7,93.4c0.5,0,0.8-0.1,1.1-0.4c0.3-0.2,0.4-0.6,0.4-1v-0.4h-0.7c-0.6,0-1,0.1-1.3,0.3
		c-0.3,0.2-0.4,0.4-0.4,0.7c0,0.3,0.1,0.5,0.2,0.6C212.2,93.3,212.4,93.4,212.7,93.4z"/>
	<path class="st4" d="M219.7,93.2L219.7,93.2c-0.4,0.5-0.9,0.7-1.6,0.7c-0.6,0-1.1-0.2-1.5-0.6s-0.5-1-0.5-1.8s0.2-1.4,0.5-1.9
		s0.8-0.7,1.5-0.7s1.2,0.2,1.5,0.7h0.1v-0.3V89v-2h0.7v6.8h-0.6L219.7,93.2z M218.2,93.3c0.5,0,0.9-0.1,1.1-0.4
		c0.2-0.3,0.3-0.7,0.3-1.3v-0.2c0-0.7-0.1-1.2-0.3-1.5s-0.6-0.4-1.1-0.4c-0.4,0-0.8,0.2-1,0.5s-0.3,0.8-0.3,1.4s0.1,1.1,0.3,1.4
		S217.8,93.3,218.2,93.3z"/>
	<path class="st4" d="M221.8,87.8c0-0.2,0-0.3,0.1-0.4s0.2-0.1,0.3-0.1s0.2,0,0.3,0.1s0.1,0.2,0.1,0.4s0,0.3-0.1,0.4
		s-0.2,0.1-0.3,0.1s-0.2,0-0.3-0.1C221.9,88,221.8,87.9,221.8,87.8z M222.6,93.9h-0.7v-4.8h0.7V93.9z"/>
	<path class="st4" d="M226.4,94c-0.3,0-0.6-0.1-0.9-0.2c-0.3-0.1-0.5-0.3-0.7-0.5h-0.1c0,0.3,0.1,0.5,0.1,0.8v2h-0.7v-7h0.6l0.1,0.7
		l0,0c0.2-0.3,0.4-0.5,0.7-0.6s0.5-0.2,0.9-0.2c0.6,0,1.1,0.2,1.5,0.7c0.3,0.4,0.5,1,0.5,1.8s-0.2,1.4-0.5,1.8
		C227.5,93.7,227,94,226.4,94z M226.3,89.6c-0.5,0-0.8,0.1-1.1,0.4s-0.3,0.7-0.3,1.3v0.2c0,0.7,0.1,1.2,0.3,1.5s0.6,0.4,1.1,0.4
		c0.4,0,0.7-0.2,1-0.5c0.2-0.3,0.4-0.8,0.4-1.4s-0.1-1.1-0.4-1.4C227.1,89.7,226.7,89.6,226.3,89.6z"/>
	<path class="st4" d="M229.6,87.8c0-0.2,0-0.3,0.1-0.4s0.2-0.1,0.3-0.1s0.2,0,0.3,0.1s0.1,0.2,0.1,0.4s0,0.3-0.1,0.4
		s-0.2,0.1-0.3,0.1s-0.2,0-0.3-0.1C229.7,88,229.6,87.9,229.6,87.8z M230.4,93.9h-0.7v-4.8h0.7V93.9z"/>
	<path class="st4" d="M235.1,92.6c0,0.4-0.2,0.8-0.5,1s-0.8,0.4-1.4,0.4c-0.6,0-1.1-0.1-1.5-0.3V93c0.2,0.1,0.5,0.2,0.7,0.3
		c0.3,0.1,0.5,0.1,0.8,0.1c0.4,0,0.7-0.1,0.9-0.2s0.3-0.3,0.3-0.6c0-0.2-0.1-0.3-0.2-0.5c-0.2-0.1-0.5-0.3-1-0.5
		c-0.4-0.2-0.8-0.3-1-0.4s-0.3-0.3-0.4-0.4c-0.1-0.2-0.1-0.3-0.1-0.6c0-0.4,0.2-0.7,0.5-0.9c0.3-0.2,0.8-0.3,1.3-0.3s1,0.1,1.5,0.3
		l-0.3,0.6c-0.5-0.2-0.9-0.3-1.3-0.3c-0.3,0-0.6,0.1-0.8,0.2s-0.3,0.3-0.3,0.4s0,0.2,0.1,0.3c0.1,0.1,0.2,0.2,0.3,0.3
		s0.4,0.2,0.8,0.4c0.6,0.2,1,0.4,1.2,0.6C235,92,235.1,92.2,235.1,92.6z"/>
	<path class="st4" d="M238.2,94c-0.7,0-1.2-0.2-1.6-0.6c-0.4-0.4-0.6-1-0.6-1.8s0.2-1.4,0.6-1.9c0.4-0.4,0.9-0.7,1.7-0.7
		c0.2,0,0.5,0,0.7,0.1s0.4,0.1,0.5,0.2l-0.2,0.6c-0.2-0.1-0.3-0.1-0.5-0.2c-0.2,0-0.4-0.1-0.5-0.1c-1,0-1.5,0.6-1.5,1.9
		c0,0.6,0.1,1,0.4,1.4c0.2,0.3,0.6,0.5,1.1,0.5c0.4,0,0.8-0.1,1.2-0.3v0.6C239.1,93.9,238.7,94,238.2,94z"/>
	<path class="st4" d="M240.5,87.8c0-0.2,0-0.3,0.1-0.4s0.2-0.1,0.3-0.1s0.2,0,0.3,0.1s0.1,0.2,0.1,0.4s0,0.3-0.1,0.4
		s-0.2,0.1-0.3,0.1s-0.2,0-0.3-0.1C240.5,88,240.5,87.9,240.5,87.8z M241.3,93.9h-0.7v-4.8h0.7V93.9z"/>
	<path class="st4" d="M246.1,93.9v-3.1c0-0.4-0.1-0.7-0.3-0.9s-0.5-0.3-0.8-0.3c-0.5,0-0.9,0.1-1.1,0.4s-0.4,0.7-0.4,1.3v2.5h-0.7
		V89h0.6l0.1,0.7l0,0c0.1-0.2,0.4-0.4,0.6-0.6c0.3-0.1,0.6-0.2,0.9-0.2c0.6,0,1,0.1,1.3,0.4s0.4,0.7,0.4,1.3v3.1h-0.6V93.9z"/>
	<path class="st4" d="M252.3,89.1v0.5l-0.9,0.1c0.1,0.1,0.2,0.2,0.2,0.4c0.1,0.2,0.1,0.4,0.1,0.6c0,0.5-0.2,0.8-0.5,1.1
		s-0.8,0.4-1.3,0.4c-0.1,0-0.3,0-0.4,0c-0.3,0.2-0.5,0.4-0.5,0.6c0,0.1,0.1,0.2,0.2,0.3c0.1,0.1,0.3,0.1,0.6,0.1h0.9
		c0.5,0,0.9,0.1,1.2,0.3c0.3,0.2,0.4,0.5,0.4,1s-0.2,0.9-0.6,1.2c-0.4,0.3-1.1,0.4-1.9,0.4c-0.6,0-1.1-0.1-1.5-0.4
		c-0.3-0.2-0.5-0.6-0.5-1c0-0.3,0.1-0.5,0.3-0.8c0.2-0.2,0.5-0.4,0.8-0.4c-0.1-0.1-0.2-0.1-0.3-0.3c-0.1-0.1-0.1-0.3-0.1-0.4
		c0-0.2,0-0.3,0.1-0.5c0.1-0.1,0.2-0.3,0.4-0.4c-0.2-0.1-0.5-0.3-0.6-0.5c-0.2-0.2-0.2-0.5-0.2-0.8c0-0.5,0.2-0.9,0.5-1.2
		c0.3-0.3,0.8-0.4,1.3-0.4c0.3,0,0.5,0,0.7,0.1L252.3,89.1L252.3,89.1z M248.4,94.7c0,0.3,0.1,0.5,0.3,0.6s0.5,0.2,0.9,0.2
		c0.6,0,1.1-0.1,1.4-0.3c0.3-0.2,0.4-0.4,0.4-0.7c0-0.3-0.1-0.4-0.2-0.5c-0.2-0.1-0.5-0.2-0.9-0.2h-0.9c-0.3,0-0.6,0.1-0.8,0.2
		S248.4,94.4,248.4,94.7z M248.8,90.6c0,0.3,0.1,0.6,0.3,0.8c0.2,0.2,0.5,0.3,0.8,0.3c0.7,0,1.1-0.3,1.1-1s-0.4-1.1-1.1-1.1
		c-0.3,0-0.6,0.1-0.8,0.3S248.8,90.2,248.8,90.6z"/>
	<path class="st4" d="M257.6,94c-0.7,0-1.3-0.2-1.7-0.7c-0.4-0.4-0.6-1-0.6-1.8s0.2-1.4,0.6-1.8c0.4-0.5,0.9-0.7,1.5-0.7
		s1.1,0.2,1.4,0.6c0.4,0.4,0.5,0.9,0.5,1.6v0.5H256c0,0.6,0.2,1,0.4,1.3c0.3,0.3,0.7,0.4,1.1,0.4c0.5,0,1-0.1,1.5-0.3v0.7
		c-0.3,0.1-0.5,0.2-0.7,0.2C258.3,93.9,258,94,257.6,94z M257.5,89.6c-0.4,0-0.7,0.1-0.9,0.4c-0.2,0.3-0.4,0.6-0.4,1h2.5
		c0-0.5-0.1-0.8-0.3-1.1C258.1,89.7,257.8,89.6,257.5,89.6z"/>
	<path class="st4" d="M261.4,93.9h-0.7V87h0.7V93.9z"/>
	<path class="st4" d="M262.9,87.8c0-0.2,0-0.3,0.1-0.4s0.2-0.1,0.3-0.1c0.1,0,0.2,0,0.3,0.1s0.1,0.2,0.1,0.4s0,0.3-0.1,0.4
		s-0.2,0.1-0.3,0.1c-0.1,0-0.2,0-0.3-0.1C262.9,88,262.9,87.9,262.9,87.8z M263.7,93.9H263v-4.8h0.7V93.9z"/>
	<path class="st4" d="M266.8,93.4c0.1,0,0.3,0,0.4,0s0.2,0,0.3-0.1v0.6c-0.1,0-0.2,0.1-0.3,0.1c-0.2,0-0.3,0-0.4,0
		c-0.9,0-1.4-0.5-1.4-1.5v-2.9h-0.7v-0.4l0.7-0.3l0.3-1h0.4V89h1.4v0.6H266v2.8c0,0.3,0.1,0.5,0.2,0.7S266.5,93.4,266.8,93.4z"/>
	<path class="st4" d="M269.2,92.8l0.1,0.1c-0.1,0.3-0.2,0.6-0.3,1c-0.1,0.4-0.3,0.7-0.4,1.1h-0.5c0.1-0.3,0.2-0.7,0.3-1.1
		c0.1-0.4,0.2-0.8,0.2-1.1H269.2z"/>
	<path class="st4" d="M276,92.6c0,0.4-0.2,0.8-0.5,1s-0.8,0.4-1.4,0.4s-1.1-0.1-1.5-0.3V93c0.2,0.1,0.5,0.2,0.7,0.3
		c0.3,0.1,0.5,0.1,0.8,0.1c0.4,0,0.7-0.1,0.9-0.2c0.2-0.1,0.3-0.3,0.3-0.6c0-0.2-0.1-0.3-0.2-0.5c-0.2-0.1-0.5-0.3-1-0.5
		c-0.4-0.2-0.8-0.3-1-0.4s-0.3-0.3-0.4-0.4c-0.1-0.2-0.1-0.3-0.1-0.6c0-0.4,0.2-0.7,0.5-0.9c0.3-0.2,0.8-0.3,1.3-0.3s1,0.1,1.5,0.3
		l-0.3,0.6c-0.5-0.2-0.9-0.3-1.3-0.3c-0.3,0-0.6,0.1-0.8,0.2s-0.3,0.3-0.3,0.4s0,0.2,0.1,0.3c0.1,0.1,0.2,0.2,0.3,0.3
		s0.4,0.2,0.8,0.4c0.6,0.2,1,0.4,1.2,0.6C275.9,92,276,92.2,276,92.6z"/>
	<path class="st4" d="M279.3,94c-0.7,0-1.3-0.2-1.7-0.7c-0.4-0.4-0.6-1-0.6-1.8s0.2-1.4,0.6-1.8c0.4-0.5,0.9-0.7,1.5-0.7
		s1.1,0.2,1.4,0.6c0.4,0.4,0.5,0.9,0.5,1.6v0.5h-3.3c0,0.6,0.2,1,0.4,1.3c0.3,0.3,0.7,0.4,1.1,0.4c0.5,0,1-0.1,1.5-0.3v0.7
		c-0.3,0.1-0.5,0.2-0.7,0.2C279.9,93.9,279.6,94,279.3,94z M279.1,89.6c-0.4,0-0.7,0.1-0.9,0.4c-0.2,0.3-0.4,0.6-0.4,1h2.5
		c0-0.5-0.1-0.8-0.3-1.1C279.7,89.7,279.4,89.6,279.1,89.6z"/>
	<path class="st4" d="M285.6,93.2L285.6,93.2c-0.4,0.5-0.9,0.7-1.6,0.7c-0.6,0-1.1-0.2-1.5-0.6c-0.3-0.4-0.5-1-0.5-1.8
		s0.2-1.4,0.5-1.9s0.8-0.7,1.5-0.7s1.2,0.2,1.5,0.7h0.1v-0.3V89v-2h0.7v6.8h-0.6L285.6,93.2z M284.1,93.3c0.5,0,0.9-0.1,1.1-0.4
		s0.3-0.7,0.3-1.3v-0.2c0-0.7-0.1-1.2-0.3-1.5c-0.2-0.3-0.6-0.4-1.1-0.4c-0.4,0-0.8,0.2-1,0.5s-0.3,0.8-0.3,1.4s0.1,1.1,0.3,1.4
		S283.7,93.3,284.1,93.3z"/>
</g>
<g class="st2">
	<path class="st4" d="M99.4,109.2L99.4,109.2c-0.4,0.5-0.9,0.7-1.6,0.7c-0.6,0-1.1-0.2-1.5-0.6s-0.5-1-0.5-1.8s0.2-1.4,0.5-1.9
		s0.8-0.7,1.5-0.7s1.2,0.2,1.5,0.7h0.1v-0.3V105v-2h0.7v6.8h-0.6L99.4,109.2z M98,109.3c0.5,0,0.9-0.1,1.1-0.4s0.3-0.7,0.3-1.3v-0.2
		c0-0.7-0.1-1.2-0.3-1.5c-0.2-0.3-0.6-0.4-1.1-0.4c-0.4,0-0.8,0.2-1,0.5s-0.3,0.8-0.3,1.4s0.1,1.1,0.3,1.4S97.5,109.3,98,109.3z"/>
	<path class="st4" d="M101.6,103.8c0-0.2,0-0.3,0.1-0.4s0.2-0.1,0.3-0.1c0.1,0,0.2,0,0.3,0.1s0.1,0.2,0.1,0.4s0,0.3-0.1,0.4
		s-0.2,0.1-0.3,0.1c-0.1,0-0.2,0-0.3-0.1C101.6,104,101.6,103.9,101.6,103.8z M102.4,109.9h-0.7v-4.8h0.7V109.9z"/>
	<path class="st4" d="M106.9,109.9l-0.1-0.7l0,0c-0.2,0.3-0.5,0.5-0.7,0.6s-0.5,0.2-0.9,0.2c-0.5,0-0.9-0.1-1.1-0.4
		s-0.4-0.6-0.4-1.1c0-1,0.8-1.5,2.3-1.5h0.8v-0.3c0-0.4-0.1-0.7-0.2-0.8c-0.2-0.2-0.4-0.3-0.8-0.3s-0.9,0.1-1.4,0.4l-0.2-0.6
		c0.2-0.1,0.5-0.2,0.8-0.3s0.6-0.1,0.9-0.1c0.6,0,1,0.1,1.3,0.4s0.4,0.7,0.4,1.2v3.3C107.6,109.9,106.9,109.9,106.9,109.9z
		 M105.3,109.4c0.5,0,0.8-0.1,1.1-0.4c0.3-0.2,0.4-0.6,0.4-1v-0.4h-0.7c-0.6,0-1,0.1-1.3,0.3c-0.3,0.2-0.4,0.4-0.4,0.7
		c0,0.3,0.1,0.5,0.2,0.6S105,109.4,105.3,109.4z"/>
	<path class="st4" d="M115.1,109.9v-3.1c0-0.4-0.1-0.7-0.2-0.9c-0.2-0.2-0.4-0.3-0.8-0.3c-0.5,0-0.8,0.1-1,0.4s-0.3,0.7-0.3,1.2v2.7
		H112v-3.1c0-0.4-0.1-0.7-0.2-0.9c-0.2-0.2-0.4-0.3-0.8-0.3c-0.5,0-0.8,0.1-1,0.4s-0.3,0.7-0.3,1.3v2.5H109V105h0.6l0.1,0.7l0,0
		c0.1-0.2,0.3-0.4,0.6-0.5c0.3-0.1,0.5-0.2,0.8-0.2c0.8,0,1.2,0.3,1.5,0.8l0,0c0.1-0.3,0.4-0.5,0.6-0.6s0.6-0.2,0.9-0.2
		c0.5,0,1,0.1,1.2,0.4c0.3,0.3,0.4,0.7,0.4,1.3v3.1L115.1,109.9L115.1,109.9z"/>
	<path class="st4" d="M123,109.9v-3.1c0-0.4-0.1-0.7-0.3-0.9s-0.5-0.3-0.8-0.3c-0.5,0-0.9,0.1-1.1,0.4s-0.4,0.7-0.4,1.3v2.5h-0.7
		V105h0.6l0.1,0.7l0,0c0.1-0.2,0.4-0.4,0.6-0.6c0.3-0.1,0.6-0.2,0.9-0.2c0.6,0,1,0.1,1.3,0.4s0.4,0.7,0.4,1.3v3.1H123V109.9z"/>
	<path class="st4" d="M129.3,107.5c0,0.8-0.2,1.4-0.6,1.8c-0.4,0.4-0.9,0.7-1.6,0.7c-0.4,0-0.8-0.1-1.1-0.3
		c-0.3-0.2-0.6-0.5-0.8-0.9c-0.2-0.4-0.3-0.8-0.3-1.3c0-0.8,0.2-1.4,0.6-1.8s0.9-0.7,1.6-0.7s1.2,0.2,1.6,0.7
		C129.1,106.1,129.3,106.7,129.3,107.5z M125.7,107.5c0,0.6,0.1,1.1,0.4,1.4s0.6,0.5,1.1,0.5s0.8-0.2,1.1-0.5
		c0.2-0.3,0.4-0.8,0.4-1.4s-0.1-1.1-0.4-1.4c-0.2-0.3-0.6-0.5-1.1-0.5s-0.8,0.2-1.1,0.5S125.7,106.8,125.7,107.5z"/>
	<path class="st4" d="M133.9,109.9v-3.1c0-0.4-0.1-0.7-0.3-0.9s-0.5-0.3-0.8-0.3c-0.5,0-0.9,0.1-1.1,0.4s-0.4,0.7-0.4,1.3v2.5h-0.7
		V105h0.6l0.1,0.7l0,0c0.1-0.2,0.4-0.4,0.6-0.6c0.3-0.1,0.6-0.2,0.9-0.2c0.6,0,1,0.1,1.3,0.4s0.4,0.7,0.4,1.3v3.1h-0.6V109.9z"/>
	<path class="st4" d="M136.8,105.1v3.1c0,0.4,0.1,0.7,0.3,0.9s0.5,0.3,0.8,0.3c0.5,0,0.9-0.1,1.1-0.4c0.2-0.3,0.3-0.7,0.3-1.3v-2.5
		h0.7v4.8h-0.6l-0.1-0.6l0,0c-0.1,0.2-0.4,0.4-0.6,0.5c-0.3,0.1-0.6,0.2-0.9,0.2c-0.6,0-1-0.1-1.3-0.4s-0.4-0.7-0.4-1.3v-3.2
		L136.8,105.1L136.8,105.1z"/>
	<path class="st4" d="M147.8,109.9v-3.1c0-0.4-0.1-0.7-0.2-0.9c-0.2-0.2-0.4-0.3-0.8-0.3c-0.5,0-0.8,0.1-1,0.4s-0.3,0.7-0.3,1.2v2.7
		h-0.7v-3.1c0-0.4-0.1-0.7-0.2-0.9c-0.2-0.2-0.4-0.3-0.8-0.3c-0.5,0-0.8,0.1-1,0.4s-0.3,0.7-0.3,1.3v2.5h-0.7V105h0.6l0.1,0.7l0,0
		c0.1-0.2,0.3-0.4,0.6-0.5s0.5-0.2,0.8-0.2c0.8,0,1.2,0.3,1.5,0.8l0,0c0.1-0.3,0.4-0.5,0.6-0.6s0.6-0.2,0.9-0.2c0.5,0,1,0.1,1.2,0.4
		c0.3,0.3,0.4,0.7,0.4,1.3v3.1L147.8,109.9L147.8,109.9z"/>
	<path class="st4" d="M156.2,109.9v-3.1c0-0.4-0.1-0.7-0.2-0.9c-0.2-0.2-0.4-0.3-0.8-0.3c-0.5,0-0.8,0.1-1,0.4s-0.3,0.7-0.3,1.2v2.7
		h-0.7v-3.1c0-0.4-0.1-0.7-0.2-0.9c-0.2-0.2-0.4-0.3-0.8-0.3c-0.5,0-0.8,0.1-1,0.4s-0.3,0.7-0.3,1.3v2.5H150V105h0.6l0.1,0.7l0,0
		c0.1-0.2,0.3-0.4,0.6-0.5s0.5-0.2,0.8-0.2c0.8,0,1.2,0.3,1.5,0.8l0,0c0.1-0.3,0.4-0.5,0.6-0.6s0.6-0.2,0.9-0.2c0.5,0,1,0.1,1.2,0.4
		c0.3,0.3,0.4,0.7,0.4,1.3v3.1L156.2,109.9L156.2,109.9z"/>
	<path class="st4" d="M157.6,105.1h0.8l1.1,2.7c0.2,0.6,0.4,1.1,0.4,1.4l0,0c0-0.1,0.1-0.4,0.2-0.8c0.1-0.4,0.5-1.5,1.2-3.3h0.8
		l-2.1,5.5c-0.2,0.5-0.4,0.9-0.7,1.2c-0.3,0.2-0.6,0.3-1,0.3c-0.2,0-0.4,0-0.7-0.1v-0.6c0.2,0,0.3,0.1,0.5,0.1
		c0.5,0,0.9-0.3,1.1-0.8l0.3-0.7L157.6,105.1z"/>
	<path class="st4" d="M168.6,109.9v-3.1c0-0.4-0.1-0.7-0.3-0.9s-0.5-0.3-0.8-0.3c-0.5,0-0.9,0.1-1.1,0.4s-0.4,0.7-0.4,1.3v2.5h-0.7
		V105h0.6l0.1,0.7l0,0c0.1-0.2,0.4-0.4,0.6-0.6c0.3-0.1,0.6-0.2,0.9-0.2c0.6,0,1,0.1,1.3,0.4s0.4,0.7,0.4,1.3v3.1h-0.6V109.9z"/>
	<path class="st4" d="M170.7,103.8c0-0.2,0-0.3,0.1-0.4s0.2-0.1,0.3-0.1s0.2,0,0.3,0.1s0.1,0.2,0.1,0.4s0,0.3-0.1,0.4
		s-0.2,0.1-0.3,0.1s-0.2,0-0.3-0.1C170.8,104,170.7,103.9,170.7,103.8z M171.5,109.9h-0.7v-4.8h0.7V109.9z"/>
	<path class="st4" d="M175.3,105c0.6,0,1.1,0.2,1.5,0.6c0.3,0.4,0.5,1,0.5,1.8s-0.2,1.4-0.5,1.8c-0.4,0.4-0.8,0.7-1.5,0.7
		c-0.3,0-0.6-0.1-0.9-0.2c-0.3-0.1-0.5-0.3-0.7-0.5h-0.1l-0.2,0.6h-0.5V103h0.7v1.7c0,0.4,0,0.7,0,1l0,0
		C174.2,105.2,174.7,105,175.3,105z M175.2,105.6c-0.5,0-0.9,0.1-1.1,0.4c-0.2,0.3-0.3,0.8-0.3,1.4c0,0.7,0.1,1.2,0.3,1.5
		s0.6,0.4,1.1,0.4c0.4,0,0.8-0.2,1-0.5s0.3-0.8,0.3-1.4s-0.1-1.1-0.3-1.4S175.7,105.6,175.2,105.6z"/>
	<path class="st4" d="M181.9,109.9v-3.1c0-0.4-0.1-0.7-0.3-0.9s-0.5-0.3-0.8-0.3c-0.5,0-0.9,0.1-1.1,0.4c-0.2,0.3-0.3,0.7-0.3,1.4
		v2.5h-0.7V103h0.7v2.1c0,0.2,0,0.5,0,0.6l0,0c0.1-0.2,0.3-0.4,0.6-0.5s0.6-0.2,0.9-0.2c0.6,0,1,0.1,1.3,0.4s0.4,0.7,0.4,1.3v3.1
		L181.9,109.9L181.9,109.9z"/>
	<path class="st4" d="M188.5,110c-0.7,0-1.3-0.2-1.7-0.7c-0.4-0.4-0.6-1-0.6-1.8s0.2-1.4,0.6-1.8c0.4-0.5,0.9-0.7,1.5-0.7
		s1.1,0.2,1.4,0.6c0.4,0.4,0.5,0.9,0.5,1.6v0.5h-3.3c0,0.6,0.2,1,0.4,1.3c0.3,0.3,0.7,0.4,1.1,0.4c0.5,0,1-0.1,1.5-0.3v0.7
		c-0.3,0.1-0.5,0.2-0.7,0.2C189.1,109.9,188.8,110,188.5,110z M188.3,105.6c-0.4,0-0.7,0.1-0.9,0.4s-0.4,0.6-0.4,1h2.5
		c0-0.5-0.1-0.8-0.3-1.1C189,105.7,188.7,105.6,188.3,105.6z"/>
	<path class="st4" d="M192.2,105.1v3.1c0,0.4,0.1,0.7,0.3,0.9s0.5,0.3,0.8,0.3c0.5,0,0.9-0.1,1.1-0.4c0.2-0.3,0.3-0.7,0.3-1.3v-2.5
		h0.7v4.8h-0.6l-0.1-0.6l0,0c-0.1,0.2-0.4,0.4-0.6,0.5c-0.3,0.1-0.6,0.2-0.9,0.2c-0.6,0-1-0.1-1.3-0.4s-0.4-0.7-0.4-1.3v-3.2
		L192.2,105.1L192.2,105.1z"/>
	<path class="st4" d="M197,103.8c0-0.2,0-0.3,0.1-0.4s0.2-0.1,0.3-0.1s0.2,0,0.3,0.1s0.1,0.2,0.1,0.4s0,0.3-0.1,0.4
		s-0.2,0.1-0.3,0.1s-0.2,0-0.3-0.1C197,104,197,103.9,197,103.8z M197.8,109.9H197v-4.8h0.7v4.8H197.8z"/>
	<path class="st4" d="M202.4,108.6c0,0.4-0.2,0.8-0.5,1s-0.8,0.4-1.4,0.4c-0.6,0-1.1-0.1-1.5-0.3V109c0.2,0.1,0.5,0.2,0.7,0.3
		c0.3,0.1,0.5,0.1,0.8,0.1c0.4,0,0.7-0.1,0.9-0.2s0.3-0.3,0.3-0.6c0-0.2-0.1-0.3-0.2-0.5c-0.2-0.1-0.5-0.3-1-0.5
		c-0.4-0.2-0.8-0.3-1-0.4s-0.3-0.3-0.4-0.4c-0.1-0.2-0.1-0.3-0.1-0.6c0-0.4,0.2-0.7,0.5-0.9c0.3-0.2,0.8-0.3,1.3-0.3s1,0.1,1.5,0.3
		l-0.3,0.6c-0.5-0.2-0.9-0.3-1.3-0.3c-0.3,0-0.6,0.1-0.8,0.2s-0.3,0.3-0.3,0.4s0,0.2,0.1,0.3c0.1,0.1,0.2,0.2,0.3,0.3
		s0.4,0.2,0.8,0.4c0.6,0.2,1,0.4,1.2,0.6C202.3,108,202.4,108.2,202.4,108.6z"/>
	<path class="st4" d="M209.7,109.9v-3.1c0-0.4-0.1-0.7-0.2-0.9c-0.2-0.2-0.4-0.3-0.8-0.3c-0.5,0-0.8,0.1-1,0.4s-0.3,0.7-0.3,1.2v2.7
		h-0.7v-3.1c0-0.4-0.1-0.7-0.2-0.9c-0.2-0.2-0.4-0.3-0.8-0.3c-0.5,0-0.8,0.1-1,0.4s-0.3,0.7-0.3,1.3v2.5h-0.7V105h0.6l0.1,0.7l0,0
		c0.1-0.2,0.3-0.4,0.6-0.5s0.5-0.2,0.8-0.2c0.8,0,1.2,0.3,1.5,0.8l0,0c0.1-0.3,0.4-0.5,0.6-0.6s0.6-0.2,0.9-0.2c0.5,0,1,0.1,1.2,0.4
		c0.3,0.3,0.4,0.7,0.4,1.3v3.1L209.7,109.9L209.7,109.9z"/>
	<path class="st4" d="M216.1,107.5c0,0.8-0.2,1.4-0.6,1.8c-0.4,0.4-0.9,0.7-1.6,0.7c-0.4,0-0.8-0.1-1.1-0.3
		c-0.3-0.2-0.6-0.5-0.8-0.9s-0.3-0.8-0.3-1.3c0-0.8,0.2-1.4,0.6-1.8c0.4-0.4,0.9-0.7,1.6-0.7c0.7,0,1.2,0.2,1.6,0.7
		C215.9,106.1,216.1,106.7,216.1,107.5z M212.5,107.5c0,0.6,0.1,1.1,0.4,1.4s0.6,0.5,1.1,0.5s0.8-0.2,1.1-0.5
		c0.2-0.3,0.4-0.8,0.4-1.4s-0.1-1.1-0.4-1.4c-0.2-0.3-0.6-0.5-1.1-0.5s-0.8,0.2-1.1,0.5S212.5,106.8,212.5,107.5z"/>
	<path class="st4" d="M220.7,109.2L220.7,109.2c-0.4,0.5-0.9,0.7-1.6,0.7c-0.6,0-1.1-0.2-1.5-0.6c-0.3-0.4-0.5-1-0.5-1.8
		s0.2-1.4,0.5-1.9s0.8-0.7,1.5-0.7s1.2,0.2,1.5,0.7h0.1v-0.3V105v-2h0.7v6.8h-0.6L220.7,109.2z M219.2,109.3c0.5,0,0.9-0.1,1.1-0.4
		c0.2-0.3,0.3-0.7,0.3-1.3v-0.2c0-0.7-0.1-1.2-0.3-1.5s-0.6-0.4-1.1-0.4c-0.4,0-0.8,0.2-1,0.5s-0.3,0.8-0.3,1.4s0.1,1.1,0.3,1.4
		S218.8,109.3,219.2,109.3z"/>
	<path class="st4" d="M222.8,109.4c0-0.2,0-0.3,0.1-0.4s0.2-0.2,0.4-0.2s0.3,0.1,0.4,0.2c0.1,0.1,0.1,0.2,0.1,0.4
		c0,0.2,0,0.3-0.1,0.4s-0.2,0.2-0.4,0.2c-0.1,0-0.3,0-0.4-0.1C222.9,109.8,222.8,109.6,222.8,109.4z"/>
</g>
<path class="st0" d="M167.5,24.9c-2.6,0-5.1,0-7.7,0s-5.1,0-7.7,0c-1.2,0-1.8,0.7-1.8,1.8c0,3.4,0,6.9,0,10.3c0,1.2,0.7,1.8,1.9,1.8
	c1.6,0,3.2,0,4.8,0c0.3,0,0.3,0.1,0.3,0.4c-0.1,0.4-0.3,0.8-0.4,1.2c-0.2,0.6,0,0.9,0.6,0.9c1.7,0,3.3,0,5,0c0.6,0,0.9-0.4,0.6-1
	c-0.2-0.4-0.3-0.8-0.4-1.2c-0.1-0.3,0-0.3,0.3-0.3c1.7,0,3.2,0,4.9,0c1.2,0,1.8-0.7,1.8-1.8c0-3.4,0-6.9,0-10.3
	C169.4,25.6,168.7,24.9,167.5,24.9z M167.5,35.1c-2.6,0-5.1,0-7.7,0s-5.1,0-7.7,0c-0.6,0-0.6-0.1-0.6-0.6c0-2.6,0-5.1,0-7.8
	c0-0.4,0.1-0.6,0.6-0.6c5.1,0,10.2,0,15.4,0c0.4,0,0.6,0.1,0.6,0.6c0,2.6,0,5.1,0,7.8C168.1,35,168.1,35.1,167.5,35.1z"/>
<g>
	<g>
		<polyline class="st5" points="193.5,129.9 197.2,133.7 193.5,137.5 		"/>
		<line class="st5" x1="197" y1="133.7" x2="188.3" y2="133.7"/>
	</g>
	<g class="st2">
		<path d="M126.8,133.9h-1.7v3.3h-1.5v-8.5h3c1,0,1.7,0.2,2.3,0.7c0.5,0.4,0.8,1.1,0.8,1.9c0,0.6-0.1,1-0.4,1.4
			c-0.3,0.4-0.7,0.7-1.2,0.9l1.9,3.6v0.1h-1.6L126.8,133.9z M125.1,132.7h1.5c0.5,0,0.9-0.1,1.2-0.4s0.4-0.6,0.4-1
			c0-0.5-0.1-0.8-0.4-1.1s-0.6-0.4-1.2-0.4h-1.6V132.7z"/>
		<path d="M133.8,137.3c-0.9,0-1.6-0.3-2.2-0.9s-0.8-1.3-0.8-2.3V134c0-0.6,0.1-1.2,0.4-1.7s0.6-0.9,1-1.2s0.9-0.4,1.5-0.4
			c0.9,0,1.5,0.3,2,0.8s0.7,1.3,0.7,2.3v0.6h-4.1c0,0.5,0.2,0.9,0.5,1.2s0.7,0.5,1.2,0.5c0.7,0,1.2-0.3,1.6-0.8l0.8,0.7
			c-0.3,0.4-0.6,0.7-1,0.9S134.3,137.3,133.8,137.3z M133.6,131.9c-0.4,0-0.7,0.1-0.9,0.4s-0.4,0.7-0.5,1.1h2.7v-0.1
			c0-0.5-0.2-0.8-0.4-1.1S134,131.9,133.6,131.9z"/>
		<path d="M141.2,137.2c-0.1-0.1-0.1-0.3-0.2-0.6c-0.5,0.5-1,0.7-1.7,0.7c-0.6,0-1.2-0.2-1.6-0.5s-0.6-0.8-0.6-1.3
			c0-0.7,0.3-1.2,0.8-1.6s1.2-0.5,2.2-0.5h0.9v-0.4c0-0.3-0.1-0.6-0.3-0.8s-0.5-0.3-0.8-0.3c-0.3,0-0.6,0.1-0.8,0.2
			s-0.3,0.4-0.3,0.6h-1.4c0-0.3,0.1-0.7,0.3-1s0.5-0.5,0.9-0.7s0.8-0.3,1.3-0.3c0.7,0,1.3,0.2,1.8,0.6s0.7,0.9,0.7,1.6v2.9
			c0,0.6,0.1,1,0.2,1.4v0.1H141.2z M139.6,136.2c0.3,0,0.5-0.1,0.8-0.2s0.4-0.3,0.6-0.6v-1.2h-0.8c-0.5,0-0.9,0.1-1.2,0.3
			s-0.4,0.4-0.4,0.8c0,0.3,0.1,0.5,0.3,0.7S139.3,136.2,139.6,136.2z"/>
		<path d="M143.6,134c0-1,0.2-1.8,0.7-2.4s1.1-0.9,1.8-0.9c0.7,0,1.2,0.2,1.6,0.7v-3.2h1.4v9h-1.3l-0.1-0.7c-0.4,0.5-1,0.8-1.7,0.8
			c-0.7,0-1.3-0.3-1.8-0.9S143.6,135,143.6,134z M145.1,134.1c0,0.6,0.1,1.1,0.4,1.5s0.6,0.5,1.1,0.5c0.6,0,1-0.3,1.3-0.8v-2.7
			c-0.3-0.5-0.7-0.8-1.3-0.8c-0.5,0-0.8,0.2-1.1,0.5S145.1,133.4,145.1,134.1z"/>
		<path d="M155.7,128.7l2.5,6.5l2.5-6.5h1.9v8.5h-1.5v-2.8l0.1-3.8l-2.5,6.6h-1.1l-2.5-6.6l0.1,3.8v2.8h-1.5v-8.5H155.7z"/>
		<path d="M163.9,134c0-0.6,0.1-1.2,0.4-1.7s0.6-0.9,1-1.1s1-0.4,1.5-0.4c0.9,0,1.5,0.3,2.1,0.8s0.8,1.3,0.9,2.2l0,0.3
			c0,0.6-0.1,1.2-0.4,1.7s-0.6,0.9-1,1.1s-1,0.4-1.5,0.4c-0.9,0-1.6-0.3-2.1-0.9S163.9,135.1,163.9,134L163.9,134z M165.3,134.1
			c0,0.7,0.1,1.2,0.4,1.5s0.6,0.6,1.1,0.6s0.9-0.2,1.1-0.6s0.4-0.9,0.4-1.6c0-0.6-0.1-1.1-0.4-1.5s-0.6-0.6-1.1-0.6
			c-0.5,0-0.8,0.2-1.1,0.6S165.3,133.4,165.3,134.1z"/>
		<path d="M174.3,132.2c-0.2,0-0.4,0-0.6,0c-0.7,0-1.1,0.2-1.3,0.8v4.3H171v-6.3h1.4l0,0.7c0.3-0.6,0.8-0.8,1.4-0.8
			c0.2,0,0.4,0,0.5,0.1L174.3,132.2z"/>
		<path d="M177.9,137.3c-0.9,0-1.6-0.3-2.2-0.9s-0.8-1.3-0.8-2.3V134c0-0.6,0.1-1.2,0.4-1.7s0.6-0.9,1-1.2s0.9-0.4,1.5-0.4
			c0.9,0,1.5,0.3,2,0.8s0.7,1.3,0.7,2.3v0.6h-4.1c0,0.5,0.2,0.9,0.5,1.2s0.7,0.5,1.2,0.5c0.7,0,1.2-0.3,1.6-0.8l0.8,0.7
			c-0.3,0.4-0.6,0.7-1,0.9S178.4,137.3,177.9,137.3z M177.7,131.9c-0.4,0-0.7,0.1-0.9,0.4s-0.4,0.7-0.5,1.1h2.7v-0.1
			c0-0.5-0.2-0.8-0.4-1.1S178.1,131.9,177.7,131.9z"/>
	</g>
</g>
</svg>
