<?xml version="1.0" encoding="utf-8"?>
<!-- Generator: Adobe Illustrator 25.2.1, SVG Export Plug-In . SVG Version: 6.00 Build 0)  -->
<svg version="1.1" id="Layer_1" xmlns="http://www.w3.org/2000/svg" xmlns:xlink="http://www.w3.org/1999/xlink" x="0px" y="0px"
	 viewBox="0 0 145 110" style="enable-background:new 0 0 145 110;" xml:space="preserve">
<style type="text/css">
	.st0{fill:#F2F3F7;}
	.st1{fill:#E60023;}
	.st2{fill:#FFFFFF;}
	.st3{fill:#1DA1F2;}
	.st4{fill:#1877F2;}
</style>
<g>
	<rect class="st0" width="145" height="110"/>
</g>
<g>
	<rect x="96.5" y="37" class="st1" width="36" height="36"/>
	<path class="st2" d="M112.4,61.4c0.2-0.6,0.8-2.9,0.8-2.9c0.4,0.8,1.5,1.4,2.8,1.4c3.7,0,6.3-3.3,6.3-7.5c0-4-3.3-7-7.5-7
		c-5.3,0-8.1,3.5-8.1,7.3c0,1.8,1,4,2.5,4.7c0.2,0.1,0.4,0.1,0.4-0.2c0-0.2,0.2-1,0.3-1.4c0-0.1,0-0.2-0.1-0.3
		c-0.5-0.6-0.9-1.7-0.9-2.8c0-2.7,2-5.2,5.5-5.2c3,0,5.1,2,5.1,4.9c0,3.3-1.7,5.6-3.8,5.6c-1.2,0-2.1-1-1.8-2.2c0.3-1.4,1-3,1-4.1
		c0-0.9-0.5-1.7-1.5-1.7c-1.2,0-2.2,1.3-2.2,2.9c0,1.1,0.4,1.8,0.4,1.8s-1.2,5-1.5,6c-0.2,1-0.2,2.5,0,3.5c0.3,0.1,0.6,0.2,0.8,0.3
		C111.4,63.8,112.1,62.5,112.4,61.4z"/>
	<rect x="54.5" y="37" class="st3" width="36" height="36"/>
	<path class="st2" d="M82.1,49.1c-0.7,0.3-1.5,0.5-2.3,0.6c0.8-0.5,1.5-1.3,1.7-2.2c-0.8,0.5-1.6,0.8-2.5,0.9
		c-0.7-0.8-1.8-1.2-2.9-1.2c-2.2,0-3.9,1.8-3.9,3.9c0,0.3,0,0.6,0.1,0.9c-3.3-0.2-6.2-1.7-8.1-4.1c-0.3,0.6-0.5,1.2-0.5,2
		c0,1.4,0.7,2.6,1.8,3.3c-0.6,0-1.2-0.2-1.8-0.5v0c0,1.9,1.4,3.5,3.2,3.9c-0.3,0.1-0.7,0.1-1,0.1c-0.2,0-0.5,0-0.8-0.1
		c0.5,1.5,2,2.7,3.7,2.8c-1.3,1.1-3,1.7-4.9,1.7c-0.3,0-0.6,0-0.9-0.1c1.8,1.1,3.8,1.8,6,1.8c7.2,0,11.2-6,11.2-11.2
		c0-0.2,0-0.3,0-0.5C80.9,50.5,81.6,49.8,82.1,49.1z"/>
	<rect x="12.6" y="37" class="st4" width="36" height="36"/>
	<path class="st2" d="M34.4,48.2h1.6v-3.1c0,0-1.4-0.2-2.8-0.2c-2.9,0-4.8,1.8-4.8,4.9v2.8h-3.2v3.7h3.2v9h3.9v-9h2.9l0.6-3.7h-3.5
		v-2.4C32.3,49.2,32.8,48.2,34.4,48.2z"/>
</g>
</svg>
