<?xml version="1.0" encoding="utf-8"?>
<!-- Generator: Adobe Illustrator 25.2.1, SVG Export Plug-In . SVG Version: 6.00 Build 0)  -->
<svg version="1.1" id="Layer_1" xmlns="http://www.w3.org/2000/svg" xmlns:xlink="http://www.w3.org/1999/xlink" x="0px" y="0px"
	 viewBox="0 0 320 160" style="enable-background:new 0 0 320 160;" xml:space="preserve">
<style type="text/css">
	.st0{fill:#FFFFFF;}
	.st1{fill:#E1306C;}
	.st2{fill:#25D366;}
	.st3{fill:#E60023;}
	.st4{fill:#1DA1F2;}
	.st5{fill:#1877F2;}
</style>
<rect class="st0" width="320" height="160"/>
<g>
	<g>
		<rect x="243.4" y="58.9" class="st1" width="42.2" height="42.2"/>
		<path class="st0" d="M264.5,70.1c3,0,3.4,0,4.6,0.1c1.1,0,1.7,0.2,2.1,0.4c0.5,0.2,0.9,0.5,1.3,0.8c0.4,0.4,0.6,0.8,0.8,1.3
			c0.1,0.4,0.3,1,0.4,2.1c0.1,1.2,0.1,1.5,0.1,4.6c0,3,0,3.4-0.1,4.6c0,1.1-0.2,1.7-0.4,2.1c-0.2,0.5-0.5,0.9-0.8,1.3
			c-0.4,0.4-0.8,0.6-1.3,0.8c-0.4,0.1-1,0.3-2.1,0.4c-1.2,0.1-1.5,0.1-4.6,0.1s-3.4,0-4.6-0.1c-1.1,0-1.7-0.2-2.1-0.4
			c-0.5-0.2-0.9-0.5-1.3-0.8c-0.4-0.4-0.6-0.8-0.8-1.3c-0.1-0.4-0.3-1-0.4-2.1c-0.1-1.1-0.1-1.5-0.1-4.5c0-3,0-3.4,0.1-4.6
			c0-1.1,0.2-1.7,0.4-2.1c0.2-0.5,0.5-0.9,0.8-1.3c0.4-0.4,0.8-0.6,1.3-0.8c0.4-0.1,1-0.3,2.1-0.4C261.1,70.1,261.5,70.1,264.5,70.1
			z M264.5,68c-3.1,0-3.4,0-4.7,0.1c-1.2,0.1-2,0.2-2.7,0.5c-0.7,0.3-1.4,0.7-2,1.3c-0.6,0.6-1,1.3-1.3,2c-0.3,0.7-0.5,1.5-0.5,2.7
			c-0.1,1.2-0.1,1.6-0.1,4.6s0,3.4,0.1,4.7c0.1,1.2,0.2,2,0.5,2.7c0.3,0.7,0.7,1.4,1.3,2c0.6,0.6,1.3,1,2,1.3
			c0.7,0.3,1.5,0.5,2.7,0.5c1.2,0.1,1.6,0.1,4.7,0.1c3.1,0,3.4,0,4.7-0.1c1.2-0.1,2-0.2,2.7-0.5c0.7-0.3,1.4-0.7,2-1.3
			c0.6-0.6,1-1.3,1.3-2c0.3-0.7,0.5-1.5,0.5-2.7c0.1-1.2,0.1-1.6,0.1-4.7s0-3.4-0.1-4.7c-0.1-1.2-0.2-2-0.5-2.7
			c-0.3-0.7-0.7-1.4-1.3-2c-0.6-0.6-1.3-1-2-1.3c-0.7-0.3-1.5-0.5-2.7-0.5C268,68,267.6,68,264.5,68z"/>
		<path class="st0" d="M264.5,73.5c-3.2,0-5.8,2.6-5.8,5.8s2.6,5.8,5.8,5.8c3.2,0,5.8-2.6,5.8-5.8S267.7,73.5,264.5,73.5z M264.5,83
			c-2.1,0-3.8-1.7-3.8-3.8s1.7-3.8,3.8-3.8s3.8,1.7,3.8,3.8S266.6,83,264.5,83z"/>
		<path class="st0" d="M270.5,74.6c0.7,0,1.4-0.6,1.4-1.4c0-0.7-0.6-1.4-1.4-1.4c-0.7,0-1.4,0.6-1.4,1.4
			C269.2,74,269.8,74.6,270.5,74.6z"/>
	</g>
	<g>
		<rect x="191.1" y="58.9" class="st2" width="42.2" height="42.2"/>
		<path class="st0" d="M220.2,71.3c-2.1-2.1-4.9-3.3-7.9-3.3c-6.2,0-11.2,5-11.2,11.1c0,2,0.5,3.9,1.5,5.6l-1.6,5.8l6-1.6
			c1.6,0.9,3.5,1.4,5.4,1.4c6.2,0,11.2-5,11.2-11.1C223.5,76.2,222.4,73.4,220.2,71.3z M212.3,88.5c-1.7,0-3.3-0.4-4.8-1.3l-0.3-0.2
			l-3.5,0.9l0.9-3.4l-0.2-0.4c-0.9-1.5-1.4-3.2-1.4-4.9c0-5.1,4.2-9.3,9.3-9.3c2.5,0,4.8,1,6.6,2.7s2.7,4.1,2.7,6.6
			C221.6,84.3,217.5,88.5,212.3,88.5z M217.4,81.5c-0.3-0.1-1.7-0.8-1.9-0.9c-0.3-0.1-0.4-0.1-0.6,0.1c-0.2,0.3-0.7,0.9-0.9,1.1
			c-0.2,0.2-0.3,0.2-0.6,0.1c-0.3-0.1-1.2-0.4-2.2-1.4c-0.8-0.7-1.4-1.7-1.6-1.9c-0.2-0.3,0-0.4,0.1-0.6c0.1-0.1,0.3-0.3,0.4-0.5
			c0.1-0.2,0.2-0.3,0.3-0.5c0.1-0.2,0-0.3,0-0.5c-0.1-0.1-0.6-1.5-0.9-2.1c-0.2-0.5-0.5-0.5-0.6-0.5c-0.2,0-0.3,0-0.5,0
			c-0.2,0-0.5,0.1-0.7,0.3c-0.3,0.3-1,1-1,2.3c0,1.4,1,2.7,1.1,2.9c0.1,0.2,2,3,4.8,4.2c0.7,0.3,1.2,0.5,1.6,0.6
			c0.7,0.2,1.3,0.2,1.8,0.1c0.5-0.1,1.7-0.7,1.9-1.3c0.2-0.7,0.2-1.2,0.2-1.3C217.9,81.7,217.7,81.7,217.4,81.5z"/>
	</g>
	<g>
		<rect x="138.9" y="58.9" class="st3" width="42.2" height="42.2"/>
		<path class="st0" d="M157.6,87.5c0.2-0.7,0.9-3.4,0.9-3.4c0.5,0.9,1.8,1.6,3.3,1.6c4.3,0,7.4-3.9,7.4-8.9c0-4.7-3.9-8.2-8.8-8.2
			c-6.2,0-9.5,4.1-9.5,8.6c0,2.1,1.1,4.7,2.9,5.5c0.3,0.1,0.4,0.1,0.5-0.2c0-0.2,0.3-1.2,0.4-1.6c0-0.1,0-0.3-0.1-0.4
			c-0.6-0.7-1.1-2-1.1-3.2c0-3.1,2.4-6.2,6.4-6.2c3.5,0,6,2.4,6,5.8c0,3.9-2,6.5-4.5,6.5c-1.4,0-2.5-1.2-2.1-2.6
			c0.4-1.7,1.2-3.5,1.2-4.8c0-1.1-0.6-2-1.8-2c-1.4,0-2.6,1.5-2.6,3.5c0,1.3,0.4,2.1,0.4,2.1s-1.4,5.9-1.7,7c-0.3,1.2-0.2,3,0,4.1
			c0.3,0.1,0.7,0.3,1,0.4C156.4,90.3,157.2,88.8,157.6,87.5z"/>
	</g>
	<g>
		<rect x="86.6" y="58.9" class="st4" width="42.2" height="42.2"/>
		<path class="st0" d="M119,73c-0.9,0.4-1.7,0.6-2.7,0.7c1-0.6,1.7-1.5,2-2.6c-0.9,0.5-1.9,0.9-2.9,1.1c-0.9-0.9-2.1-1.5-3.4-1.5
			c-2.6,0-4.6,2.1-4.6,4.6c0,0.4,0,0.7,0.1,1.1c-3.8-0.2-7.2-2-9.5-4.8c-0.4,0.7-0.6,1.5-0.6,2.3c0,1.6,0.8,3,2.1,3.8
			c-0.7,0-1.5-0.2-2.1-0.6v0c0,2.3,1.6,4.2,3.7,4.6c-0.4,0.1-0.8,0.1-1.2,0.1c-0.3,0-0.6,0-0.9-0.1c0.6,1.8,2.3,3.2,4.3,3.2
			c-1.6,1.2-3.6,2-5.7,2c-0.4,0-0.7,0-1.1-0.1c2.1,1.3,4.5,2.1,7.1,2.1c8.5,0,13.1-7,13.1-13.1c0-0.2,0-0.4,0-0.6
			C117.6,74.8,118.4,73.9,119,73z"/>
	</g>
	<g>
		<rect x="34.4" y="58.9" class="st5" width="42.2" height="42.2"/>
		<path class="st0" d="M60,72h1.9v-3.7c0,0-1.7-0.3-3.3-0.3c-3.4,0-5.6,2.1-5.6,5.8v3.3h-3.8v4.3h3.8V92h4.6V81.4H61l0.7-4.3h-4.1
			v-2.8C57.6,73.2,58.1,72,60,72z"/>
	</g>
</g>
</svg>
