<?xml version="1.0" encoding="utf-8"?>
<!-- Generator: Adobe Illustrator 25.2.1, SVG Export Plug-In . SVG Version: 6.00 Build 0)  -->
<svg version="1.1" id="Layer_1" xmlns="http://www.w3.org/2000/svg" xmlns:xlink="http://www.w3.org/1999/xlink" x="0px" y="0px"
	 viewBox="0 0 320 160" style="enable-background:new 0 0 320 160;" xml:space="preserve">
<style type="text/css">
	.st0{fill:#F8F8F8;}
	.st1{fill:#FFFFFF;}
	.st2{fill-rule:evenodd;clip-rule:evenodd;fill:#DFDFDF;}
	.st3{fill:url(#SVGID_1_);}
	.st4{fill:url(#SVGID_2_);}
	.st5{fill:url(#SVGID_3_);}
	.st6{fill:url(#SVGID_4_);}
	.st7{fill:url(#SVGID_5_);}
	.st8{fill:url(#SVGID_6_);}
	.st9{fill:url(#SVGID_7_);}
	.st10{fill:url(#SVGID_8_);}
	.st11{fill:url(#SVGID_9_);}
	.st12{fill:url(#SVGID_10_);}
	.st13{fill:url(#SVGID_11_);}
	.st14{fill:url(#SVGID_12_);}
	.st15{fill-rule:evenodd;clip-rule:evenodd;fill:#FFFFFF;}
	.st16{fill:#E8BF70;}
	.st17{fill:#43B1D4;}
	.st18{fill:#EE8321;}
	.st19{fill:#3A3C40;}
	.st20{fill:#646464;}
</style>
<rect class="st0" width="320" height="160"/>
<path class="st1" d="M229.8,67.6c0-1.7,1.4-3.1,3.1-3.1h64c1.7,0,3.1,1.4,3.1,3.1v59c0,1.7-1.4,3.1-3.1,3.1h-64
	c-1.7,0-3.1-1.4-3.1-3.1V67.6z"/>
<path class="st2" d="M296.9,64.8h-64c-1.5,0-2.8,1.3-2.8,2.8v59c0,1.5,1.3,2.8,2.8,2.8h64c1.5,0,2.8-1.3,2.8-2.8v-59
	C299.7,66,298.4,64.8,296.9,64.8z M232.9,64.5c-1.7,0-3.1,1.4-3.1,3.1v59c0,1.7,1.4,3.1,3.1,3.1h64c1.7,0,3.1-1.4,3.1-3.1v-59
	c0-1.7-1.4-3.1-3.1-3.1H232.9z"/>
<linearGradient id="SVGID_1_" gradientUnits="userSpaceOnUse" x1="259.4643" y1="67.3089" x2="252.5813" y2="75.1604" gradientTransform="matrix(1 0 0 -1 0 162)">
	<stop  offset="0" style="stop-color:#221ECA"/>
	<stop  offset="1" style="stop-color:#6461DA"/>
</linearGradient>
<path class="st3" d="M261.2,94.4l-0.3-0.7c-0.4-0.9-1.1-1.7-2-2l-0.7-0.3l-0.3-0.1l-1.6-0.6v0l-0.3-0.1l-1.6-0.6l-1.3-0.5
	c-0.2-0.1-0.3-0.2-0.3-0.5c0,0,0,0,0,0c0,0,0,0,0,0c0-0.2,0.1-0.4,0.3-0.5l1.3-0.5l1.6-0.6l0.3-0.1l-0.6-1.5l0-0.1l-1.5,0.6
	l-1.8,0.7c-0.4,0.2-0.8,0.4-0.9,0.7c-0.2,0.3-0.3,0.7-0.3,1.2c0,0.5,0.1,0.9,0.3,1.2c0.2,0.3,0.5,0.6,0.9,0.7l1.8,0.7l1.5,0.6l0.1,0
	l1.5,0.6l0.5-1.2l-0.5,1.2l0.3,0.1c0.9,0.4,1.7,1.1,2,2l0.1,0.3l1.5-0.7L261.2,94.4z"/>
<linearGradient id="SVGID_2_" gradientUnits="userSpaceOnUse" x1="270.0745" y1="65.1666" x2="268.7835" y2="72.8032" gradientTransform="matrix(1 0 0 -1 0 162)">
	<stop  offset="0" style="stop-color:#93D8DE"/>
	<stop  offset="1" style="stop-color:#65C8D0"/>
</linearGradient>
<path class="st4" d="M273,95.6l-0.8-1.8l-0.7-1.5l0,0l0,0l0-0.1l-0.6-1.5l-0.7,0.3l0.7-0.3l-0.1-0.3c-0.4-0.9-0.4-1.9,0-2.9l0.1-0.3
	l-1.6-0.6l-0.1,0.3l-0.3,0.7c-0.4,0.9-0.4,2,0,2.9l0.3,0.7l0.1,0.3l0.7,1.5l0.7-0.3l-0.7,0.3l0.1,0.3l0.7,1.6l0.6,1.3
	c0.1,0.2,0,0.4-0.1,0.6l0,0c0,0,0,0,0,0c-0.2,0.2-0.3,0.2-0.6,0.1l-1.3-0.6l-1.6-0.7l-0.3-0.1l-0.6,1.5l0,0.1l1.5,0.7l1.8,0.8
	c0.4,0.2,0.8,0.2,1.2,0.1c0.4-0.1,0.7-0.3,1.1-0.7c0.4-0.4,0.6-0.7,0.7-1.1C273.2,96.4,273.2,96,273,95.6z"/>
<linearGradient id="SVGID_3_" gradientUnits="userSpaceOnUse" x1="258.8499" y1="76.0981" x2="265.5719" y2="84.1648" gradientTransform="matrix(1 0 0 -1 0 162)">
	<stop  offset="0" style="stop-color:#221ECA"/>
	<stop  offset="1" style="stop-color:#6461DA"/>
</linearGradient>
<path class="st5" d="M266.3,79.6l-0.7-1.8c-0.2-0.4-0.4-0.8-0.7-0.9c-0.3-0.2-0.7-0.3-1.2-0.3c-0.5,0-0.9,0.1-1.2,0.3
	c-0.3,0.2-0.6,0.5-0.7,0.9l-0.7,1.8l-0.6,1.5l0.1,0l1,0.4l-1-0.4l-0.1,0l0,0.1l-0.6,1.5l-0.1,0.3c-0.4,0.9-1.1,1.7-2,2l-0.3,0.1
	l0.7,1.5l0.3-0.1l0.7-0.3c0.9-0.4,1.7-1.1,2-2l0.3-0.7l0.1-0.3l-0.4-0.2l0.4,0.2l0.6-1.6l0.1-0.3l0.6-1.6l0.5-1.3
	c0.1-0.2,0.2-0.3,0.5-0.3h0c0.2,0,0.4,0.1,0.5,0.3l0.5,1.3l0.6,1.6l0.1,0.3l1.5-0.6l0.1,0L266.3,79.6z"/>
<linearGradient id="SVGID_4_" gradientUnits="userSpaceOnUse" x1="272.3421" y1="81.0433" x2="264.2761" y2="77.0099" gradientTransform="matrix(1 0 0 -1 0 162)">
	<stop  offset="0" style="stop-color:#93D8DE"/>
	<stop  offset="1" style="stop-color:#65C8D0"/>
</linearGradient>
<path class="st6" d="M273.1,81.3c-0.1-0.4-0.3-0.7-0.7-1.1c-0.4-0.4-0.7-0.6-1.1-0.7c-0.4-0.1-0.7-0.1-1.2,0.1l-1.8,0.8l-1.5,0.7v0
	l-0.1,0l-1.5,0.6l-0.3,0.1c-0.9,0.4-1.9,0.4-2.9,0l-0.3-0.1l-0.6,1.6l0.3,0.1l0.7,0.3c0.9,0.4,2,0.4,2.9,0l0.7-0.3l0.3-0.1l-0.1-0.3
	l0.1,0.3l1.5-0.7l-0.6-1.5l0,0l0,0l0.6,1.5l0.3-0.1l1.6-0.7l1.3-0.6c0.2-0.1,0.4,0,0.6,0.1c0,0,0,0,0,0c0,0,0,0,0,0
	c0.2,0.2,0.2,0.3,0.1,0.6l-0.6,1.3l-0.7,1.6l-0.1,0.3l1.5,0.6l0.1,0l0.7-1.5l0.8-1.8C273.2,82,273.2,81.6,273.1,81.3z"/>
<linearGradient id="SVGID_5_" gradientUnits="userSpaceOnUse" x1="265.992" y1="74.5182" x2="276.074" y2="74.5182" gradientTransform="matrix(1 0 0 -1 0 162)">
	<stop  offset="0" style="stop-color:#221ECA"/>
	<stop  offset="1" style="stop-color:#6461DA"/>
</linearGradient>
<path class="st7" d="M275.8,87.8c-0.2-0.3-0.5-0.6-0.9-0.7l-1.8-0.7l-1.5-0.6l0,0l0,0l-0.1,0l-1.5-0.6l-0.3-0.1
	c-0.9-0.4-1.7-1.1-2-2l-0.1-0.3l-1.5,0.7l0.1,0.3l0.3,0.7c0.4,0.9,1.1,1.7,2,2l0.7,0.3l0.3,0.1l1.6,0.6l0.4-0.9l-0.4,0.9l0.3,0.1
	l1.6,0.6l1.3,0.5c0.2,0.1,0.3,0.2,0.3,0.5c0,0,0,0,0,0c0,0,0,0,0,0c0,0.2-0.1,0.4-0.3,0.5l-1.3,0.5l-1.6,0.6l-0.3,0.1l0.6,1.5l0,0.1
	l1.5-0.6l1.8-0.7c0.4-0.2,0.8-0.4,0.9-0.7c0.2-0.3,0.3-0.7,0.3-1.2C276.1,88.5,276,88.1,275.8,87.8z"/>
<linearGradient id="SVGID_6_" gradientUnits="userSpaceOnUse" x1="256.9608" y1="66.4982" x2="263.4138" y2="68.7031" gradientTransform="matrix(1 0 0 -1 0 162)">
	<stop  offset="0" style="stop-color:#93D8DE"/>
	<stop  offset="1" style="stop-color:#65C8D0"/>
</linearGradient>
<path class="st8" d="M265.7,94.6l-0.7-0.3c-0.9-0.4-2-0.4-2.9,0l-0.7,0.3l-0.3,0.1l-1.5,0.7l-0.3,0.1l-1.6,0.7l-1.3,0.6
	c-0.2,0.1-0.4,0.1-0.6-0.1c0,0,0,0,0,0c0,0,0,0,0,0c-0.2-0.2-0.2-0.3-0.1-0.6l0.6-1.3l0.7-1.6l0.1-0.3l-1.5-0.6l-0.1,0l-0.7,1.5
	l-0.8,1.8c-0.2,0.4-0.2,0.8-0.1,1.2c0.1,0.4,0.3,0.7,0.7,1.1s0.7,0.6,1.1,0.7c0.4,0.1,0.7,0.1,1.2-0.1l1.8-0.8l1.5-0.7l0.1,0
	l1.5-0.6l-0.4-0.9l0.4,0.9l0.3-0.1c0.9-0.4,1.9-0.4,2.9,0l0.3,0.1l0.6-1.5L265.7,94.6z"/>
<linearGradient id="SVGID_7_" gradientUnits="userSpaceOnUse" x1="257.2441" y1="80.5335" x2="259.1801" y2="72.6282" gradientTransform="matrix(1 0 0 -1 0 162)">
	<stop  offset="0" style="stop-color:#93D8DE"/>
	<stop  offset="1" style="stop-color:#65C8D0"/>
</linearGradient>
<path class="st9" d="M258.9,80.5l-1.8-0.8c-0.4-0.2-0.8-0.2-1.2-0.1c-0.4,0.1-0.7,0.3-1.1,0.7c-0.4,0.4-0.6,0.7-0.7,1.1
	c-0.1,0.4-0.1,0.7,0.1,1.2l0.8,1.8l0.7,1.5l0,0.1l0.6,1.5l0.8-0.3l-0.7,0.3l0.1,0.3c0.4,0.9,0.4,1.9,0,2.9l-0.1,0.3l1.5,0.6l0.1-0.3
	l0.3-0.7c0.4-0.9,0.4-1.9,0-2.9l-0.3-0.7l-0.1-0.3l-0.7-1.5l-0.1-0.3l-0.7-1.6l-0.6-1.3c-0.1-0.2,0-0.4,0.1-0.6c0,0,0,0,0,0
	c0,0,0,0,0,0c0.2-0.2,0.3-0.2,0.6-0.1l1.3,0.6l1.6,0.7l0.3,0.1l0.6-1.5l0-0.1L258.9,80.5z"/>
<linearGradient id="SVGID_8_" gradientUnits="userSpaceOnUse" x1="267.7921" y1="70.7773" x2="261.8231" y2="61.5813" gradientTransform="matrix(1 0 0 -1 0 162)">
	<stop  offset="0" style="stop-color:#221ECA"/>
	<stop  offset="1" style="stop-color:#6461DA"/>
</linearGradient>
<path class="st10" d="M269.3,91.4l-0.3,0.1l-0.7,0.3c-0.9,0.4-1.7,1.1-2,2l-0.3,0.7l-0.1,0.3l-0.6,1.6l-0.1,0.3l-0.6,1.6l-0.5,1.3
	c-0.1,0.2-0.2,0.3-0.5,0.3c0,0,0,0,0,0c0,0,0,0,0,0c-0.2,0-0.4-0.1-0.5-0.3l-0.5-1.3l-0.6-1.6l-0.1-0.3l-1.5,0.6l-0.1,0l0.6,1.5
	l0.7,1.8c0.2,0.4,0.4,0.8,0.7,0.9c0.3,0.2,0.7,0.3,1.2,0.3c0.5,0,0.9-0.1,1.2-0.3c0.3-0.2,0.6-0.5,0.7-0.9l0.7-1.8l0.6-1.5l0,0l0,0
	l0-0.1l0.6-1.5l-0.8-0.4l0.8,0.4l0.1-0.3c0.4-0.9,1.1-1.7,2-2l0.3-0.1L269.3,91.4z"/>
<path d="M252.4,117.4c-0.4,0-0.7,0-1.1-0.1c-0.3-0.1-0.6-0.2-0.8-0.4c-0.1-0.1-0.2-0.2-0.2-0.4c0-0.1,0-0.2,0.1-0.3
	c0.1-0.1,0.1-0.1,0.2-0.1c0.1,0,0.2,0,0.3,0.1c0.2,0.2,0.4,0.3,0.7,0.3c0.2,0.1,0.5,0.1,0.8,0.1c0.4,0,0.6-0.1,0.8-0.2
	c0.2-0.1,0.3-0.3,0.3-0.6c0-0.2-0.1-0.3-0.3-0.4c-0.2-0.1-0.5-0.2-0.9-0.3c-0.4-0.1-0.8-0.2-1.1-0.3c-0.3-0.1-0.5-0.3-0.6-0.5
	c-0.1-0.2-0.2-0.4-0.2-0.7c0-0.3,0.1-0.6,0.3-0.8c0.2-0.2,0.4-0.4,0.7-0.6c0.3-0.1,0.7-0.2,1.1-0.2c0.7,0,1.3,0.2,1.7,0.6
	c0.1,0.1,0.1,0.1,0.1,0.2c0,0,0,0.1,0,0.2c0,0.1,0,0.2-0.1,0.3c-0.1,0.1-0.1,0.1-0.2,0.1c-0.1,0-0.1,0-0.1,0c0,0-0.1,0-0.2-0.1
	c-0.2-0.1-0.4-0.3-0.6-0.3c-0.2-0.1-0.4-0.1-0.7-0.1c-0.3,0-0.6,0.1-0.8,0.2c-0.2,0.1-0.3,0.3-0.3,0.6c0,0.2,0.1,0.4,0.3,0.5
	c0.2,0.1,0.5,0.2,0.9,0.3c0.4,0.1,0.8,0.2,1.1,0.3c0.3,0.1,0.5,0.3,0.6,0.5c0.1,0.2,0.2,0.4,0.2,0.7c0,0.3-0.1,0.6-0.3,0.8
	c-0.2,0.2-0.4,0.4-0.7,0.6C253.1,117.3,252.8,117.4,252.4,117.4z"/>
<path d="M257.1,116.7c0.2,0,0.4,0.1,0.4,0.3c0,0.1-0.1,0.2-0.1,0.3c-0.1,0.1-0.2,0.1-0.4,0.1l-0.2,0c-0.8-0.1-1.3-0.5-1.3-1.3v-1.6
	H255c-0.1,0-0.2,0-0.3-0.1c-0.1-0.1-0.1-0.1-0.1-0.3s0-0.2,0.1-0.3c0.1-0.1,0.2-0.1,0.3-0.1h0.4V113c0-0.1,0-0.2,0.1-0.3
	c0.1-0.1,0.2-0.1,0.3-0.1c0.1,0,0.3,0,0.3,0.1c0.1,0.1,0.1,0.2,0.1,0.3v0.7h0.6c0.1,0,0.2,0,0.3,0.1c0.1,0.1,0.1,0.1,0.1,0.3
	s0,0.2-0.1,0.3c-0.1,0.1-0.2,0.1-0.3,0.1h-0.6v1.7c0,0.4,0.2,0.6,0.5,0.6L257.1,116.7z"/>
<path d="M259.5,113.6c0.5,0,0.9,0.1,1.1,0.4c0.2,0.2,0.4,0.6,0.4,1.1v1.8c0,0.1,0,0.2-0.1,0.3c-0.1,0.1-0.2,0.1-0.3,0.1
	c-0.1,0-0.2,0-0.3-0.1c-0.1-0.1-0.1-0.2-0.1-0.3v-0.2c-0.1,0.2-0.2,0.3-0.4,0.5c-0.2,0.1-0.4,0.2-0.6,0.2c-0.2,0-0.5,0-0.7-0.1
	c-0.2-0.1-0.4-0.2-0.5-0.4c-0.1-0.2-0.2-0.4-0.2-0.6c0-0.3,0.1-0.5,0.2-0.6c0.1-0.2,0.4-0.3,0.7-0.3c0.3-0.1,0.7-0.1,1.3-0.1h0.2
	V115c0-0.2-0.1-0.4-0.2-0.5c-0.1-0.1-0.3-0.2-0.5-0.2c-0.1,0-0.3,0-0.4,0.1c-0.1,0-0.3,0.1-0.5,0.2c-0.1,0.1-0.2,0.1-0.3,0.1
	c-0.1,0-0.2,0-0.2-0.1c-0.1-0.1-0.1-0.1-0.1-0.3c0-0.1,0-0.2,0.1-0.2c0-0.1,0.1-0.1,0.2-0.2c0.2-0.1,0.4-0.2,0.6-0.2
	C259,113.6,259.3,113.6,259.5,113.6z M259.3,116.7c0.2,0,0.4-0.1,0.6-0.2c0.2-0.2,0.2-0.4,0.2-0.6v-0.2H260c-0.3,0-0.6,0-0.8,0
	c-0.2,0-0.3,0.1-0.4,0.2c-0.1,0.1-0.1,0.2-0.1,0.3c0,0.2,0.1,0.3,0.2,0.4C259,116.6,259.1,116.7,259.3,116.7z"/>
<path d="M264,113.6c0.1,0,0.2,0,0.3,0.1c0.1,0.1,0.1,0.2,0.1,0.3c0,0.1,0,0.2-0.1,0.3c-0.1,0.1-0.2,0.1-0.4,0.1l-0.2,0
	c-0.3,0-0.5,0.1-0.6,0.3c-0.1,0.2-0.2,0.4-0.2,0.6v1.6c0,0.1,0,0.3-0.1,0.3c-0.1,0.1-0.2,0.1-0.3,0.1s-0.2,0-0.3-0.1
	c-0.1-0.1-0.1-0.2-0.1-0.3V114c0-0.1,0-0.2,0.1-0.3c0.1-0.1,0.2-0.1,0.3-0.1c0.1,0,0.2,0,0.3,0.1c0.1,0.1,0.1,0.2,0.1,0.3v0.3
	c0.1-0.2,0.2-0.4,0.4-0.5c0.2-0.1,0.4-0.2,0.6-0.2L264,113.6z"/>
<path d="M267,112.7c-0.2,0-0.4,0.1-0.5,0.2c-0.1,0.1-0.2,0.3-0.2,0.5v0.2h0.6c0.3,0,0.4,0.1,0.4,0.3s-0.1,0.4-0.4,0.4h-0.6v2.5
	c0,0.1,0,0.3-0.1,0.3c-0.1,0.1-0.2,0.1-0.3,0.1c-0.1,0-0.2,0-0.3-0.1c-0.1-0.1-0.1-0.2-0.1-0.3v-2.5H265c-0.3,0-0.4-0.1-0.4-0.4
	s0.1-0.3,0.4-0.3h0.4v-0.1c0-0.5,0.1-0.8,0.4-1.1c0.2-0.3,0.6-0.4,1-0.5l0.2,0c0.2,0,0.3,0,0.4,0.1c0.1,0.1,0.1,0.1,0.1,0.3
	c0,0.2-0.1,0.3-0.4,0.4L267,112.7z M268.3,117.3c-0.1,0-0.2,0-0.3-0.1c-0.1-0.1-0.1-0.2-0.1-0.3v-4.5c0-0.1,0-0.3,0.1-0.3
	c0.1-0.1,0.2-0.1,0.3-0.1c0.1,0,0.2,0,0.3,0.1c0.1,0.1,0.1,0.2,0.1,0.3v4.5c0,0.1,0,0.3-0.1,0.3
	C268.5,117.3,268.4,117.3,268.3,117.3z"/>
<path d="M271.4,117.4c-0.4,0-0.7-0.1-1-0.2c-0.3-0.2-0.5-0.4-0.6-0.7c-0.2-0.3-0.2-0.6-0.2-1c0-0.4,0.1-0.7,0.2-1
	c0.2-0.3,0.4-0.5,0.6-0.7c0.3-0.2,0.6-0.2,1-0.2c0.4,0,0.7,0.1,1,0.2c0.3,0.2,0.5,0.4,0.6,0.7c0.2,0.3,0.2,0.6,0.2,1
	c0,0.4-0.1,0.7-0.2,1c-0.1,0.3-0.4,0.5-0.6,0.7C272.1,117.3,271.7,117.4,271.4,117.4z M271.4,116.6c0.3,0,0.5-0.1,0.7-0.3
	c0.2-0.2,0.2-0.5,0.2-0.9c0-0.4-0.1-0.7-0.2-0.9c-0.2-0.2-0.4-0.3-0.7-0.3s-0.5,0.1-0.7,0.3c-0.2,0.2-0.2,0.5-0.2,0.9
	c0,0.4,0.1,0.7,0.2,0.9C270.8,116.5,271.1,116.6,271.4,116.6z"/>
<path d="M278.9,113.9c0-0.1,0.1-0.2,0.2-0.2c0.1,0,0.1-0.1,0.2-0.1c0.1,0,0.2,0,0.3,0.1c0.1,0.1,0.1,0.2,0.1,0.3c0,0.1,0,0.1,0,0.2
	l-1.2,2.9c0,0.1-0.1,0.2-0.2,0.2c-0.1,0-0.2,0.1-0.3,0.1c-0.1,0-0.2,0-0.3-0.1c-0.1,0-0.1-0.1-0.2-0.2l-0.9-2.1l-0.9,2.1
	c0,0.1-0.1,0.2-0.2,0.2c-0.1,0-0.2,0.1-0.3,0.1c-0.1,0-0.2,0-0.3-0.1c-0.1,0-0.1-0.1-0.2-0.2l-1.2-2.9c0-0.1,0-0.1,0-0.2
	c0-0.1,0-0.2,0.1-0.3c0.1-0.1,0.2-0.1,0.3-0.1c0.1,0,0.2,0,0.2,0.1c0.1,0,0.1,0.1,0.2,0.2l0.9,2.3l0.9-2.3c0-0.1,0.1-0.2,0.2-0.2
	c0.1-0.1,0.2-0.1,0.2-0.1c0.1,0,0.2,0,0.2,0.1c0.1,0,0.1,0.1,0.2,0.2l0.9,2.3L278.9,113.9z"/>
<path class="st1" d="M159.8,67.6c0-1.7,1.4-3.1,3.1-3.1h64c1.7,0,3.1,1.4,3.1,3.1v59c0,1.7-1.4,3.1-3.1,3.1h-64
	c-1.7,0-3.1-1.4-3.1-3.1V67.6z"/>
<path class="st2" d="M227,64.8h-64c-1.5,0-2.8,1.3-2.8,2.8v59c0,1.5,1.3,2.8,2.8,2.8h64c1.5,0,2.8-1.3,2.8-2.8v-59
	C229.8,66,228.5,64.8,227,64.8z M163,64.5c-1.7,0-3.1,1.4-3.1,3.1v59c0,1.7,1.4,3.1,3.1,3.1h64c1.7,0,3.1-1.4,3.1-3.1v-59
	c0-1.7-1.4-3.1-3.1-3.1H163z"/>
<path d="M180.7,113.4c0.1-0.2,0.3-0.4,0.6-0.5c0.3-0.1,0.5-0.2,0.8-0.2c0.3,0,0.6,0,0.8,0.1c0.2,0.1,0.4,0.2,0.5,0.3
	c0.1,0.1,0.2,0.3,0.3,0.5c0.2,0.4,0.2,0.8,0.2,1.4c0,0.6-0.1,1.2-0.4,1.6c-0.1,0.2-0.3,0.4-0.6,0.5c-0.3,0.1-0.5,0.2-0.8,0.2
	c-0.3,0-0.6,0-0.8-0.1c-0.2-0.1-0.4-0.2-0.5-0.4c-0.1-0.1-0.2-0.3-0.3-0.5c-0.2-0.4-0.2-0.8-0.2-1.4
	C180.3,114.4,180.4,113.8,180.7,113.4z M181.5,116.1c0.1,0.3,0.4,0.4,0.7,0.4c0.3,0,0.6-0.1,0.7-0.4c0.1-0.3,0.2-0.6,0.2-1
	c0-0.4,0-0.7-0.1-0.9c0-0.2-0.1-0.4-0.3-0.5c-0.1-0.2-0.3-0.2-0.5-0.2c-0.2,0-0.4,0-0.5,0.1c-0.1,0.1-0.2,0.2-0.3,0.3
	c-0.1,0.3-0.2,0.7-0.2,1.1C181.3,115.5,181.3,115.9,181.5,116.1z"/>
<path d="M186.4,113.7c0.4,0,0.7,0.2,1,0.5c0.2,0.3,0.3,0.7,0.3,1.3c0,1.3-0.5,1.9-1.6,1.9c-0.2,0-0.4,0-0.6-0.1v1.4l-1,0.1v-5h0.8
	l0.1,0.3C185.8,113.8,186.1,113.7,186.4,113.7z M186,116.6c0.5,0,0.8-0.4,0.8-1.1c0-0.7-0.2-1-0.6-1c-0.2,0-0.4,0.1-0.5,0.2v1.9
	C185.7,116.6,185.8,116.6,186,116.6z"/>
<path d="M189,115.6c0,0.7,0.3,1,0.9,1c0.3,0,0.6-0.1,0.8-0.2l0.2,0.7c-0.4,0.2-0.7,0.2-1.2,0.2c-1.1,0-1.6-0.6-1.6-1.9
	c0-0.5,0.1-0.9,0.4-1.3s0.7-0.5,1.2-0.5c0.4,0,0.7,0.1,0.9,0.3c0.2,0.2,0.3,0.5,0.3,0.9c0,0.2,0,0.5-0.1,0.7H189z M190.2,115.1
	L190.2,115.1c0-0.5-0.2-0.7-0.5-0.7c-0.4,0-0.6,0.2-0.7,0.7H190.2z"/>
<path d="M193.6,113.7c0.4,0,0.7,0.1,0.8,0.3c0.1,0.2,0.2,0.5,0.2,0.9v2.4h-1v-2.2c0-0.2,0-0.3-0.1-0.4c-0.1-0.1-0.2-0.2-0.4-0.2
	c-0.2,0-0.4,0.1-0.6,0.3v2.5h-1v-3.5h0.8l0.1,0.4c0.1-0.1,0.3-0.2,0.5-0.3C193.2,113.8,193.4,113.7,193.6,113.7z"/>
<path d="M199.4,116c0,0.4-0.1,0.7-0.4,1c-0.3,0.2-0.7,0.4-1.1,0.4c-0.2,0-0.5,0-0.8-0.1c-0.3-0.1-0.5-0.1-0.7-0.2l0.3-0.8
	c0.4,0.2,0.8,0.3,1.2,0.3c0.4,0,0.6-0.2,0.6-0.5c0-0.2-0.1-0.3-0.2-0.4c-0.1-0.1-0.3-0.2-0.6-0.3c-0.2-0.1-0.4-0.2-0.5-0.3
	c-0.1-0.1-0.2-0.1-0.3-0.3c-0.2-0.2-0.3-0.5-0.3-0.9s0.1-0.7,0.4-0.9c0.3-0.2,0.6-0.3,1-0.3c0.4,0,0.9,0.1,1.3,0.3l-0.3,0.7
	c-0.4-0.1-0.7-0.2-1-0.2c-0.4,0-0.6,0.2-0.6,0.5c0,0.1,0,0.2,0.1,0.3c0.1,0.1,0.1,0.1,0.2,0.1c0,0,0.1,0.1,0.2,0.1
	c0.1,0.1,0.2,0.1,0.3,0.2c0.1,0.1,0.2,0.1,0.3,0.2c0.1,0,0.2,0.1,0.3,0.2c0.1,0.1,0.2,0.2,0.3,0.3
	C199.3,115.5,199.4,115.7,199.4,116z"/>
<path d="M203.1,117.2c-0.2,0.1-0.5,0.2-0.8,0.2c-0.3,0-0.5-0.1-0.6-0.3c-0.3,0.2-0.6,0.3-0.9,0.3c-0.4,0-0.6-0.1-0.8-0.3
	c-0.2-0.2-0.3-0.4-0.3-0.7c0-0.2,0-0.4,0.1-0.5c0.1-0.1,0.2-0.3,0.3-0.3c0.2-0.1,0.5-0.2,0.8-0.2c0.3,0,0.5,0,0.7,0V115
	c0-0.2,0-0.4-0.1-0.5c-0.1-0.1-0.3-0.1-0.5-0.1c-0.2,0-0.5,0-0.8,0.1l-0.2-0.6c0.2-0.1,0.4-0.2,0.6-0.2c0.2-0.1,0.5-0.1,0.6-0.1
	c0.5,0,0.8,0.1,1,0.3c0.2,0.2,0.3,0.5,0.3,1v1.4c0,0.1,0.1,0.2,0.2,0.2c0.1,0,0.1,0,0.3,0L203.1,117.2z M201.1,116.8
	c0.2,0,0.4-0.1,0.6-0.2v-0.7c-0.1,0-0.2,0-0.3,0c-0.5,0-0.7,0.1-0.7,0.4C200.7,116.6,200.8,116.8,201.1,116.8z"/>
<path d="M205.5,113.7c0.4,0,0.7,0.1,0.8,0.3c0.1,0.2,0.2,0.5,0.2,0.9v2.4h-1v-2.2c0-0.2,0-0.3-0.1-0.4c-0.1-0.1-0.2-0.2-0.4-0.2
	c-0.2,0-0.4,0.1-0.6,0.3v2.5h-1v-3.5h0.8l0.1,0.4c0.1-0.1,0.3-0.2,0.5-0.3C205.1,113.8,205.3,113.7,205.5,113.7z"/>
<path d="M208.5,114.5c-0.3,0-0.5,0.1-0.5,0.3c0,0.1,0.1,0.2,0.2,0.3c0.1,0.1,0.2,0.1,0.4,0.2c0.2,0.1,0.3,0.1,0.4,0.2
	c0.2,0.1,0.3,0.2,0.4,0.3c0.1,0.1,0.2,0.3,0.2,0.5c0,0.3-0.1,0.6-0.3,0.8c-0.2,0.2-0.6,0.3-1,0.3c-0.2,0-0.4,0-0.6-0.1
	c-0.2,0-0.4-0.1-0.5-0.2l0.2-0.7c0.4,0.1,0.7,0.2,1,0.2c0.3,0,0.4-0.1,0.4-0.3c0-0.1-0.1-0.2-0.2-0.3c-0.1-0.1-0.2-0.1-0.4-0.2
	c-0.1-0.1-0.3-0.1-0.4-0.2c-0.1-0.1-0.3-0.2-0.4-0.3c-0.1-0.1-0.2-0.3-0.2-0.5c0-0.4,0.1-0.6,0.3-0.8c0.2-0.2,0.6-0.3,1-0.3
	s0.8,0.1,1,0.2l-0.2,0.7C208.9,114.5,208.7,114.5,208.5,114.5z"/>
<linearGradient id="SVGID_9_" gradientUnits="userSpaceOnUse" x1="182.22" y1="72.456" x2="198.239" y2="72.456" gradientTransform="matrix(1 0 0 -1 0 162)">
	<stop  offset="0" style="stop-color:#602A96"/>
	<stop  offset="1" style="stop-color:#841731"/>
</linearGradient>
<path class="st11" d="M198.2,92.6c-0.7,1.6-1.9,2.9-3.4,3.8c-1.2,0.7-2.7,1.1-4.2,1.1c-1.2,0-2.4-0.3-3.4-0.7
	c-2.8-1.3-4.8-4.1-4.9-7.4c0-0.1,0-0.2,0-0.2c0-0.1,0-0.2,0-0.2c0.1-3.3,2.1-6.1,4.9-7.4c-0.5,1-0.7,2.2-0.7,3.4
	c0,1.5,0.4,3,1.1,4.2c0.9,1.5,2.2,2.7,3.8,3.4c1,0.5,2.2,0.7,3.4,0.7C196,93.3,197.2,93.1,198.2,92.6z"/>
<linearGradient id="SVGID_10_" gradientUnits="userSpaceOnUse" x1="191.38" y1="73.1906" x2="207.394" y2="73.1906" gradientTransform="matrix(1 0 0 -1 0 162)">
	<stop  offset="0" style="stop-color:#602A96"/>
	<stop  offset="1" style="stop-color:#841731"/>
</linearGradient>
<path class="st12" d="M207.4,89.2c0,0.1,0,0.2,0,0.2c-0.1,3.3-2.1,6.1-4.9,7.4c0.5-1,0.7-2.2,0.7-3.4c0-1.5-0.4-3-1.1-4.2
	c-0.9-1.5-2.2-2.7-3.8-3.4c-1-0.5-2.2-0.7-3.4-0.7s-2.4,0.3-3.4,0.7c0.7-1.6,1.9-2.9,3.4-3.8c1.2-0.7,2.7-1.1,4.2-1.1
	c1.2,0,2.4,0.3,3.4,0.7c2.8,1.3,4.8,4.1,4.9,7.4C207.4,89,207.4,89.1,207.4,89.2z"/>
<linearGradient id="SVGID_11_" gradientUnits="userSpaceOnUse" x1="186.432" y1="77.4035" x2="202.451" y2="77.4035" gradientTransform="matrix(1 0 0 -1 0 162)">
	<stop  offset="0" style="stop-color:#8550F4"/>
	<stop  offset="1" style="stop-color:#B53A57"/>
</linearGradient>
<path class="st13" d="M202.5,81.5c-1-0.5-2.2-0.7-3.4-0.7c-1.5,0-3,0.4-4.2,1.1c-1.5,0.9-2.7,2.2-3.4,3.8c-0.5,1-0.7,2.2-0.7,3.4
	s0.3,2.4,0.7,3.4c-1.6-0.7-2.9-1.9-3.8-3.4c-0.7-1.2-1.1-2.7-1.1-4.2c0-1.2,0.3-2.4,0.7-3.4c1.3-2.8,4.1-4.8,7.4-4.9
	c0.1,0,0.2,0,0.2,0c0.1,0,0.2,0,0.2,0C198.4,76.7,201.2,78.7,202.5,81.5z"/>
<linearGradient id="SVGID_12_" gradientUnits="userSpaceOnUse" x1="187.166" y1="68.2445" x2="203.183" y2="68.2445" gradientTransform="matrix(1 0 0 -1 0 162)">
	<stop  offset="0" style="stop-color:#8550F4"/>
	<stop  offset="1" style="stop-color:#B53A57"/>
</linearGradient>
<path class="st14" d="M203.2,93.4c0,1.2-0.3,2.4-0.7,3.4c-1.3,2.8-4.1,4.8-7.4,4.9c-0.1,0-0.2,0-0.2,0c-0.1,0-0.2,0-0.2,0
	c-3.3-0.1-6.1-2.1-7.4-4.9c1,0.5,2.2,0.7,3.4,0.7c1.5,0,3-0.4,4.2-1.1c1.5-0.9,2.7-2.2,3.4-3.8c0.5-1,0.7-2.2,0.7-3.4
	c0-1.2-0.3-2.4-0.7-3.4c1.6,0.7,2.9,1.9,3.8,3.4C202.8,90.4,203.2,91.9,203.2,93.4z"/>
<path class="st1" d="M89.9,67.6c0-1.7,1.4-3.1,3.1-3.1h64c1.7,0,3.1,1.4,3.1,3.1v59c0,1.7-1.4,3.1-3.1,3.1H93
	c-1.7,0-3.1-1.4-3.1-3.1V67.6z"/>
<path class="st2" d="M157,64.8H93c-1.5,0-2.8,1.3-2.8,2.8v59c0,1.5,1.3,2.8,2.8,2.8h64c1.5,0,2.8-1.3,2.8-2.8v-59
	C159.8,66,158.6,64.8,157,64.8z M93,64.5c-1.7,0-3.1,1.4-3.1,3.1v59c0,1.7,1.4,3.1,3.1,3.1h64c1.7,0,3.1-1.4,3.1-3.1v-59
	c0-1.7-1.4-3.1-3.1-3.1H93z"/>
<path d="M111.6,117h-0.7v-4.7h-1.7v-0.6h4v0.6h-1.7V117z"/>
<path d="M115,112.9c0.3,0,0.6,0.1,0.9,0.2c0.2,0.2,0.4,0.4,0.6,0.6c0.1,0.3,0.2,0.6,0.2,0.9v0.4h-2.7c0,0.5,0.1,0.8,0.3,1
	c0.2,0.2,0.5,0.3,0.9,0.3c0.3,0,0.5,0,0.7-0.1c0.2,0,0.4-0.1,0.6-0.2v0.6c-0.2,0.1-0.4,0.2-0.6,0.2c-0.2,0-0.4,0.1-0.7,0.1
	c-0.4,0-0.7-0.1-1-0.2c-0.3-0.2-0.5-0.4-0.7-0.7c-0.2-0.3-0.2-0.7-0.2-1.1c0-0.4,0.1-0.8,0.2-1.1c0.1-0.3,0.4-0.6,0.6-0.7
	C114.3,113,114.6,112.9,115,112.9z M115,113.5c-0.3,0-0.6,0.1-0.7,0.3c-0.2,0.2-0.3,0.5-0.3,0.8h2c0-0.3-0.1-0.6-0.2-0.8
	C115.6,113.6,115.3,113.5,115,113.5z"/>
<path d="M118.5,114.9l-1.4-2h0.7l1,1.5l1-1.5h0.7l-1.4,2l1.5,2h-0.7l-1.1-1.6l-1.1,1.6H117L118.5,114.9z"/>
<path d="M122.8,116.5c0.1,0,0.2,0,0.3,0c0.1,0,0.2,0,0.3-0.1v0.5c-0.1,0-0.2,0.1-0.3,0.1c-0.1,0-0.3,0-0.4,0c-0.2,0-0.4,0-0.6-0.1
	c-0.2-0.1-0.3-0.2-0.4-0.4c-0.1-0.2-0.2-0.4-0.2-0.8v-2.3h-0.6v-0.3l0.6-0.3l0.3-0.9h0.4v0.9h1.2v0.5h-1.2v2.3
	c0,0.2,0.1,0.4,0.2,0.5C122.5,116.5,122.6,116.5,122.8,116.5z"/>
<path d="M127.6,115c0,0.7-0.2,1.2-0.5,1.5c-0.3,0.4-0.8,0.5-1.4,0.5c-0.4,0-0.7-0.1-0.9-0.2c-0.3-0.2-0.5-0.4-0.6-0.7
	c-0.2-0.3-0.2-0.7-0.2-1.1c0-0.7,0.2-1.2,0.5-1.5c0.3-0.4,0.8-0.5,1.4-0.5c0.4,0,0.7,0.1,1,0.2c0.3,0.2,0.5,0.4,0.6,0.7
	C127.5,114.2,127.6,114.5,127.6,115z M124.6,115c0,0.5,0.1,0.8,0.3,1.1c0.2,0.3,0.5,0.4,0.9,0.4c0.4,0,0.7-0.1,0.9-0.4
	c0.2-0.3,0.3-0.7,0.3-1.1c0-0.5-0.1-0.8-0.3-1.1c-0.2-0.3-0.5-0.4-0.9-0.4c-0.4,0-0.7,0.1-0.9,0.4
	C124.7,114.1,124.6,114.5,124.6,115z"/>
<path d="M129.3,114.3c0,0.1,0,0.2,0,0.3c0,0.1,0,0.2,0,0.3h0c0,0,0.1-0.1,0.1-0.2c0.1-0.1,0.1-0.1,0.2-0.2c0.1-0.1,0.1-0.1,0.2-0.2
	l1.3-1.4h0.8l-1.6,1.7l1.7,2.3h-0.8l-1.4-1.9l-0.5,0.4v1.5h-0.6v-5.7h0.6V114.3z"/>
<path d="M134.2,112.9c0.3,0,0.6,0.1,0.9,0.2c0.2,0.2,0.4,0.4,0.6,0.6c0.1,0.3,0.2,0.6,0.2,0.9v0.4h-2.7c0,0.5,0.1,0.8,0.3,1
	c0.2,0.2,0.5,0.3,0.9,0.3c0.3,0,0.5,0,0.7-0.1c0.2,0,0.4-0.1,0.6-0.2v0.6c-0.2,0.1-0.4,0.2-0.6,0.2c-0.2,0-0.4,0.1-0.7,0.1
	c-0.4,0-0.7-0.1-1-0.2c-0.3-0.2-0.5-0.4-0.7-0.7c-0.2-0.3-0.2-0.7-0.2-1.1c0-0.4,0.1-0.8,0.2-1.1c0.1-0.3,0.4-0.6,0.6-0.7
	C133.5,113,133.8,112.9,134.2,112.9z M134.2,113.5c-0.3,0-0.6,0.1-0.7,0.3c-0.2,0.2-0.3,0.5-0.3,0.8h2c0-0.3-0.1-0.6-0.2-0.8
	C134.8,113.6,134.5,113.5,134.2,113.5z"/>
<path d="M138.8,112.9c0.5,0,0.8,0.1,1.1,0.3c0.2,0.2,0.4,0.6,0.4,1.1v2.6h-0.6v-2.6c0-0.6-0.3-1-0.9-1c-0.4,0-0.7,0.1-0.9,0.4
	c-0.2,0.2-0.3,0.6-0.3,1.1v2.1h-0.7v-4h0.5l0.1,0.5h0c0.1-0.2,0.3-0.4,0.5-0.5C138.3,113,138.5,112.9,138.8,112.9z"/>
<path class="st15" d="M111.9,117.3h-1.3v-4.7H109v-1.2h4.6v1.2h-1.7V117.3z M110.9,112.3v4.7h0.7v-4.7h1.7v-0.6h-4v0.6H110.9z
	 M114.1,116.8c-0.3-0.2-0.5-0.4-0.7-0.7c-0.2-0.3-0.2-0.7-0.2-1.1c0-0.4,0.1-0.8,0.2-1.1c0.1-0.3,0.4-0.6,0.6-0.7
	c0.3-0.2,0.6-0.3,0.9-0.3c0.3,0,0.6,0.1,0.9,0.2c0.2,0.2,0.4,0.4,0.6,0.6c0.1,0.3,0.2,0.6,0.2,0.9v0.4h-2.7c0,0.1,0,0.2,0,0.3
	c0,0.3,0.2,0.5,0.3,0.7c0.2,0.2,0.5,0.3,0.9,0.3c0.3,0,0.5,0,0.7-0.1c0.1,0,0.2-0.1,0.3-0.1c0.1,0,0.2-0.1,0.3-0.1v0.6
	c-0.2,0.1-0.4,0.2-0.6,0.2c-0.2,0-0.4,0.1-0.7,0.1C114.8,117.1,114.4,117,114.1,116.8z M115.9,117.3c-0.2,0.1-0.5,0.1-0.8,0.1
	c-0.4,0-0.8-0.1-1.2-0.3l0,0c-0.3-0.2-0.6-0.5-0.8-0.8l0,0l0,0c-0.2-0.4-0.3-0.8-0.3-1.3c0-0.5,0.1-0.9,0.2-1.3l0,0
	c0.2-0.4,0.4-0.6,0.7-0.9l0,0c0.3-0.2,0.7-0.3,1.1-0.3c0.4,0,0.7,0.1,1,0.3c0.3,0.2,0.5,0.4,0.7,0.8c0.2,0.3,0.2,0.7,0.2,1.1v0.7
	h-2.7c0,0.2,0.1,0.4,0.2,0.5c0.2,0.2,0.4,0.3,0.7,0.3c0.2,0,0.4,0,0.6-0.1c0.2,0,0.4-0.1,0.6-0.2l0.4-0.2v1l1.3-1.8l-1.6-2.3h1.5
	l0.9,1.3l0.9-1.3h1.5l0,0.1l0.1,0l0.3-0.9h0.9v0.9h1.2v1.1h-1.2v2c0,0.2,0,0.3,0.1,0.3c0.1,0,0.1,0.1,0.2,0.1c0.1,0,0.2,0,0.3,0
	c0.1,0,0.2,0,0.2,0l0.4-0.1v1.1l-0.2,0.1c-0.1,0.1-0.2,0.1-0.4,0.1c-0.1,0-0.3,0-0.4,0c-0.2,0-0.5,0-0.7-0.1l0,0l0,0
	c-0.2-0.1-0.4-0.3-0.6-0.5c-0.2-0.2-0.2-0.6-0.2-0.9v-2h-0.6v-0.3l-1,1.4l1.7,2.4h-1.5l-0.9-1.4l-0.9,1.4h-1.5l0.1-0.2
	C116.3,117.2,116.1,117.3,115.9,117.3z M118.8,115.4l1.1,1.6h0.7l-1.5-2l1.4-2h-0.7l-1,1.5l-1-1.5h-0.7l1.4,2l-1.4,2h0.7
	L118.8,115.4z M123.1,117c0.1,0,0.2,0,0.3-0.1v-0.5c-0.1,0-0.1,0-0.3,0.1c0,0,0,0-0.1,0c-0.1,0-0.2,0-0.2,0c-0.2,0-0.3-0.1-0.5-0.2
	c-0.1-0.1-0.2-0.3-0.2-0.5v-2.3h1.2V113h-1.2v-0.9h-0.4l-0.3,0.9l-0.6,0.3v0.3h0.6v2.3c0,0.3,0.1,0.6,0.2,0.8
	c0.1,0.2,0.3,0.3,0.4,0.4c0.2,0.1,0.4,0.1,0.6,0.1C122.8,117.1,122.9,117.1,123.1,117z M115.5,114c-0.1-0.1-0.2-0.2-0.5-0.2
	c-0.2,0-0.4,0.1-0.5,0.2c-0.1,0.1-0.1,0.2-0.2,0.3h1.3C115.6,114.2,115.5,114,115.5,114L115.5,114z M115.9,114.3
	c0-0.2-0.1-0.4-0.2-0.5c-0.2-0.2-0.4-0.3-0.7-0.3c-0.3,0-0.6,0.1-0.7,0.3c-0.1,0.1-0.2,0.3-0.3,0.5c0,0.1,0,0.2-0.1,0.3h2
	C115.9,114.5,115.9,114.4,115.9,114.3z M124.7,117.1L124.7,117.1c-0.3-0.2-0.6-0.5-0.8-0.8l0,0c-0.2-0.4-0.3-0.8-0.3-1.3
	c0-0.7,0.2-1.3,0.6-1.7c0.4-0.4,0.9-0.6,1.6-0.6c0.4,0,0.8,0.1,1.1,0.3c0.3,0.2,0.6,0.5,0.8,0.8c0.2,0.4,0.3,0.8,0.3,1.3
	c0,0.7-0.2,1.3-0.6,1.7c-0.4,0.4-0.9,0.6-1.6,0.6C125.4,117.4,125,117.3,124.7,117.1L124.7,117.1z M127.1,116.5
	c0.3-0.4,0.5-0.9,0.5-1.5c0-0.4-0.1-0.8-0.2-1.1c-0.2-0.3-0.4-0.5-0.6-0.7c-0.3-0.2-0.6-0.2-1-0.2c-0.6,0-1,0.2-1.4,0.5
	c-0.3,0.4-0.5,0.9-0.5,1.5c0,0.4,0.1,0.8,0.2,1.1c0.2,0.3,0.4,0.5,0.6,0.7c0.3,0.2,0.6,0.2,0.9,0.2
	C126.3,117.1,126.8,116.9,127.1,116.5z M125.1,115.9c-0.1-0.2-0.2-0.5-0.2-1c0-0.4,0.1-0.7,0.2-0.9c0.1-0.2,0.3-0.3,0.6-0.3
	s0.5,0.1,0.6,0.3c0.1,0.2,0.2,0.5,0.2,0.9c0,0.4-0.1,0.7-0.2,0.9c-0.1,0.2-0.3,0.3-0.6,0.3C125.4,116.2,125.3,116.1,125.1,115.9z
	 M126.7,116.1c-0.2,0.3-0.5,0.4-0.9,0.4c-0.4,0-0.7-0.1-0.9-0.4c-0.2-0.3-0.3-0.7-0.3-1.1c0-0.5,0.1-0.8,0.3-1.1
	c0.2-0.3,0.5-0.4,0.9-0.4c0.4,0,0.7,0.1,0.9,0.4c0.2,0.3,0.3,0.6,0.3,1.1C126.9,115.5,126.9,115.8,126.7,116.1z M131.2,117l-1.4-1.9
	l-0.5,0.4v1.5h-0.6v-5.7h0.6v3c0,0,0,0.1,0,0.2c0,0,0,0.1,0,0.2c0,0,0,0,0,0c0,0,0,0,0,0c0,0.1,0,0.2,0,0.3c0,0,0,0,0,0h0
	c0,0,0.1-0.1,0.1-0.2l0.2-0.2c0.1-0.1,0.1-0.1,0.2-0.2l1.3-1.4h0.8l-1.6,1.7l1.7,2.3H131.2z M130.6,114.7l1.9,2.6H131l-1.3-1.7
	l-0.1,0.1v1.6h-1.3V111h1.3v3.1l1.3-1.4h1.6L130.6,114.7z M134.9,113.8c-0.2-0.2-0.4-0.3-0.7-0.3c-0.3,0-0.6,0.1-0.7,0.3
	c-0.1,0.1-0.2,0.3-0.3,0.5c0,0.1,0,0.2-0.1,0.3h2c0-0.1,0-0.2,0-0.3C135.1,114.1,135,113.9,134.9,113.8z M134.8,114.3
	c0-0.1-0.1-0.2-0.1-0.3l0,0c-0.1-0.1-0.2-0.2-0.5-0.2c-0.2,0-0.4,0.1-0.5,0.2c-0.1,0.1-0.1,0.2-0.2,0.3H134.8z M132.7,116.1
	c0.2,0.3,0.4,0.5,0.7,0.7c0.3,0.2,0.6,0.2,1,0.2c0.3,0,0.5,0,0.7-0.1c0.2,0,0.4-0.1,0.6-0.2v-0.6c-0.1,0-0.2,0.1-0.3,0.1
	c-0.1,0-0.2,0.1-0.3,0.1c-0.2,0-0.4,0.1-0.7,0.1c-0.4,0-0.7-0.1-0.9-0.3c-0.2-0.2-0.3-0.4-0.3-0.7c0-0.1,0-0.2,0-0.3h2.7v-0.4
	c0-0.4-0.1-0.7-0.2-0.9c-0.1-0.3-0.3-0.5-0.6-0.6c-0.2-0.1-0.5-0.2-0.9-0.2c-0.4,0-0.7,0.1-0.9,0.3c-0.3,0.2-0.5,0.4-0.6,0.7
	c-0.1,0.3-0.2,0.7-0.2,1.1C132.4,115.5,132.5,115.8,132.7,116.1z M135.9,113.6c0.2,0.3,0.2,0.7,0.2,1.1v0.7h-2.7
	c0,0.2,0.1,0.4,0.2,0.5c0.2,0.2,0.4,0.3,0.7,0.3c0.2,0,0.4,0,0.6-0.1c0.2,0,0.4-0.1,0.6-0.2l0.4-0.2v1.2l-0.2,0.1
	c-0.2,0.1-0.4,0.2-0.7,0.2c-0.2,0.1-0.5,0.1-0.8,0.1c-0.4,0-0.8-0.1-1.2-0.3l0,0c-0.3-0.2-0.6-0.5-0.8-0.8l0,0l0,0
	c-0.2-0.4-0.3-0.8-0.3-1.3c0-0.5,0.1-0.9,0.2-1.3l0,0c0.2-0.4,0.4-0.6,0.7-0.9l0,0c0.3-0.2,0.7-0.3,1.1-0.3c0.4,0,0.7,0.1,1,0.3
	C135.5,113.1,135.8,113.3,135.9,113.6z M137.8,113.3c0.1-0.1,0.2-0.1,0.3-0.2c0.2-0.1,0.5-0.2,0.7-0.2c0.5,0,0.8,0.1,1.1,0.3
	c0.2,0.2,0.4,0.6,0.4,1.1v2.6h-0.6v-2.6c0-0.6-0.3-1-0.9-1c-0.4,0-0.7,0.1-0.9,0.4c-0.2,0.2-0.3,0.6-0.3,1.1v2.1h-0.7v-4h0.5
	l0.1,0.5h0c0,0,0,0,0,0C137.6,113.4,137.7,113.3,137.8,113.3z M137.7,112.9l0-0.2h-1.1v4.6h1.3v-2.4c0-0.4,0.1-0.7,0.2-0.9
	c0.1-0.1,0.3-0.2,0.7-0.2c0.2,0,0.4,0.1,0.4,0.1c0.1,0.1,0.1,0.2,0.1,0.5v2.9h1.3v-2.9c0-0.6-0.1-1-0.5-1.3
	c-0.3-0.3-0.8-0.4-1.3-0.4c-0.3,0-0.6,0.1-0.9,0.2C137.8,112.8,137.8,112.9,137.7,112.9z"/>
<path class="st16" d="M122,96l3,3l-3,3l-9.1-9.1l3-3l3,3l3-3l3,3L122,96z"/>
<path class="st15" d="M121.6,96l3-3l-2.6-2.6l-3,3l-3-3l-2.6,2.6l8.7,8.7l2.6-2.6L121.6,96z M125,99l-3,3l-9.1-9.1l3-3l3,3l3-3l3,3
	l-3,3L125,99z"/>
<path class="st17" d="M137.2,93l-9.1,9.1l-3-3l3-3l-3-3l3-3l3,3l3-3L137.2,93z"/>
<path class="st15" d="M125,99l3,3l9.1-9.1l-3-3l-3,3l-3-3l-3,3l3,3L125,99z M125.5,93l3,3l-3,3l2.6,2.6l8.7-8.7l-2.6-2.6l-3,3l-3-3
	L125.5,93z"/>
<path class="st16" d="M137.2,86.9l-3,3l-3-3l-3,3l-3-3l3-3l-3-3l3-3L137.2,86.9z"/>
<path class="st15" d="M131.1,86.9l3,3l3-3l-9.1-9.1l-3,3l3,3l-3,3l3,3L131.1,86.9z M128.1,89.5l3-3l3,3l2.6-2.6l-8.7-8.7l-2.6,2.6
	l3,3l-3,3L128.1,89.5z"/>
<path class="st17" d="M122,83.9l3,3l-3,3l-3-3l-3,3l-3-3l9.1-9.1l3,3L122,83.9z"/>
<path class="st15" d="M121.6,83.9l3-3l-2.6-2.6l-8.7,8.7l2.6,2.6l3-3l3,3l2.6-2.6L121.6,83.9z M125,86.9l-3,3l-3-3l-3,3l-3-3
	l9.1-9.1l3,3l-3,3L125,86.9z"/>
<path class="st1" d="M20,67.6c0-1.7,1.4-3.1,3.1-3.1h64c1.7,0,3.1,1.4,3.1,3.1v59c0,1.7-1.4,3.1-3.1,3.1h-64c-1.7,0-3.1-1.4-3.1-3.1
	V67.6z"/>
<path class="st2" d="M87.1,64.8h-64c-1.5,0-2.8,1.3-2.8,2.8v59c0,1.5,1.3,2.8,2.8,2.8h64c1.5,0,2.8-1.3,2.8-2.8v-59
	C89.9,66,88.7,64.8,87.1,64.8z M23.1,64.5c-1.7,0-3.1,1.4-3.1,3.1v59c0,1.7,1.4,3.1,3.1,3.1h64c1.7,0,3.1-1.4,3.1-3.1v-59
	c0-1.7-1.4-3.1-3.1-3.1H23.1z"/>
<path class="st18" d="M52.4,86.8l1.7,1.7c0.6,0.6,1.5,0.6,2.1,0l1.4-1.4l0.3-0.3l8.2-8.2c0.3-0.3,0.1-0.8-0.3-0.8h-2.9
	c-0.9,0-1.8,0.4-2.5,1l-5.2,5.2l-1.7-1.7c-0.6-0.6-1.5-1-2.4-1h-4.1L52.4,86.8L52.4,86.8z"/>
<path class="st18" d="M57.9,94.3l-1.7-1.7c-0.6-0.6-1.5-0.6-2.1,0L52.7,94l-0.3,0.3l-8.2,8.2c-0.3,0.3-0.1,0.8,0.3,0.8h2.9
	c0.9,0,1.8-0.4,2.4-1l5.3-5.3l1.7,1.7c0.7,0.7,1.5,1,2.5,1h4L57.9,94.3L57.9,94.3z"/>
<path class="st19" d="M48.6,90.6l-1.7,1.7c-0.6,0.6-1,1.5-1,2.4v4.1l5.5-5.5l0,0l1.7-1.7c0.6-0.6,0.6-1.5,0-2.1l-9.9-9.9
	c-0.3-0.3-0.8-0.1-0.8,0.3v2.9c0,0.9,0.4,1.8,1,2.5L48.6,90.6z"/>
<path class="st19" d="M66.9,95.8l-5.2-5.3l1.7-1.7c0.6-0.6,1-1.5,1-2.4v-4.1l-5.5,5.5l0,0l-1.7,1.7c-0.6,0.6-0.6,1.5,0,2.1l1.7,1.7
	l0,0l8.2,8.2c0.3,0.3,0.8,0.1,0.8-0.3v-2.9C67.9,97.3,67.5,96.5,66.9,95.8z"/>
<path d="M44.1,117.9h1.2l-1.7-2.6l1.6-2.6h-1.2l-1,1.7l-1.1-1.7h-1.2l1.7,2.6l-1.6,2.6H42l1-1.8L44.1,117.9z"/>
<path d="M45.9,115.8c0,1.3,0.8,2.1,1.9,2.1c0.7,0,1.1-0.3,1.4-0.7v0.6h1.1v-4.1h-1.1v0.6c-0.2-0.3-0.7-0.7-1.4-0.7
	C46.7,113.7,45.9,114.6,45.9,115.8z M49.1,115.9c0,0.8-0.5,1.2-1.1,1.2c-0.6,0-1.1-0.4-1.1-1.2c0-0.8,0.5-1.2,1.1-1.2
	C48.6,114.6,49.1,115.1,49.1,115.9z"/>
<path d="M51.2,117.9h1v-4.1h-1V117.9z M51.7,113.3c0.4,0,0.6-0.3,0.6-0.6c0-0.3-0.3-0.6-0.6-0.6c-0.4,0-0.6,0.3-0.6,0.6
	C51.1,113,51.3,113.3,51.7,113.3z"/>
<path d="M57.3,115.9c0-1.3-0.9-2.1-2.1-2.1c-1.2,0-2.1,0.8-2.1,2.1c0,1.3,0.9,2.1,2.1,2.1C56.3,118,57.3,117.2,57.3,115.9z
	 M54.1,115.9c0-0.8,0.5-1.2,1.1-1.2s1.1,0.4,1.1,1.2c0,0.8-0.5,1.2-1.1,1.2C54.5,117.1,54.1,116.7,54.1,115.9z"/>
<path d="M59.1,115.9c0-0.8,0.4-1,1-1h0.3v-1.1c-0.6,0-1,0.3-1.3,0.7v-0.6h-1v4.1h1V115.9z"/>
<path d="M62.8,114.6c0.5,0,1,0.3,1,0.9h-2C61.9,114.9,62.3,114.6,62.8,114.6z M64.8,116.6h-1.1c-0.1,0.3-0.4,0.5-0.8,0.5
	c-0.5,0-0.9-0.3-1-1h3c0-0.1,0-0.3,0-0.4c0-1.2-0.8-2-2-2c-1.2,0-2.1,0.8-2.1,2.1c0,1.3,0.9,2.1,2.1,2.1
	C63.9,118,64.6,117.4,64.8,116.6z"/>
<path d="M69.6,115.9c0-1.3-0.9-2.1-2.1-2.1c-1.2,0-2.1,0.8-2.1,2.1c0,1.3,0.9,2.1,2.1,2.1C68.7,118,69.6,117.2,69.6,115.9z
	 M66.4,115.9c0-0.8,0.5-1.2,1.1-1.2c0.6,0,1.1,0.4,1.1,1.2c0,0.8-0.5,1.2-1.1,1.2C66.9,117.1,66.4,116.7,66.4,115.9z"/>
<path d="M127.3,37.4h2.2v1h-3.5v-6.6h1.3V37.4z"/>
<path d="M132.6,33.1c0.5,0,1,0.1,1.4,0.3c0.4,0.2,0.7,0.5,1,0.9c0.2,0.4,0.3,0.9,0.3,1.4s-0.1,1-0.3,1.4c-0.2,0.4-0.5,0.7-1,0.9
	c-0.4,0.2-0.8,0.3-1.4,0.3c-0.5,0-1-0.1-1.4-0.3c-0.4-0.2-0.7-0.5-0.9-0.9c-0.2-0.4-0.3-0.9-0.3-1.4s0.1-1,0.3-1.4
	c0.2-0.4,0.5-0.7,0.9-0.9C131.7,33.2,132.1,33.1,132.6,33.1z M132.6,34.3c-0.4,0-0.7,0.1-0.9,0.4c-0.3,0.3-0.4,0.6-0.4,1.1
	s0.1,0.9,0.4,1.1c0.3,0.3,0.6,0.4,0.9,0.4c0.4,0,0.7-0.1,0.9-0.4c0.3-0.3,0.4-0.6,0.4-1.1s-0.1-0.9-0.4-1.1
	C133.3,34.4,133,34.3,132.6,34.3z"/>
<path d="M138.2,33.1c0.4,0,0.8,0.1,1.1,0.3s0.5,0.5,0.7,0.8v-1.1h1.3v5.2c0,0.5-0.1,0.9-0.3,1.3c-0.2,0.4-0.5,0.7-0.8,0.9
	c-0.4,0.2-0.8,0.3-1.4,0.3c-0.7,0-1.3-0.2-1.8-0.5c-0.5-0.4-0.7-0.8-0.8-1.4h1.3c0.1,0.3,0.2,0.5,0.4,0.6c0.2,0.1,0.5,0.2,0.8,0.2
	c0.4,0,0.7-0.1,0.9-0.3c0.2-0.2,0.4-0.6,0.4-1v-1.1c-0.1,0.3-0.4,0.6-0.7,0.8c-0.3,0.2-0.7,0.3-1.1,0.3s-0.8-0.1-1.2-0.3
	c-0.3-0.2-0.6-0.5-0.8-0.9c-0.2-0.4-0.3-0.9-0.3-1.4s0.1-1,0.3-1.4c0.2-0.4,0.5-0.7,0.8-0.9C137.4,33.2,137.8,33.1,138.2,33.1z
	 M138.6,34.3c-0.4,0-0.7,0.1-1,0.4c-0.2,0.3-0.4,0.6-0.4,1.1c0,0.5,0.1,0.8,0.4,1.1c0.2,0.3,0.6,0.4,1,0.4c0.4,0,0.7-0.1,1-0.4
	c0.3-0.3,0.4-0.6,0.4-1.1c0-0.5-0.1-0.8-0.4-1.1C139.4,34.4,139,34.3,138.6,34.3z"/>
<path d="M144.9,33.1c0.5,0,1,0.1,1.4,0.3c0.4,0.2,0.7,0.5,1,0.9c0.2,0.4,0.3,0.9,0.3,1.4s-0.1,1-0.3,1.4c-0.2,0.4-0.5,0.7-1,0.9
	c-0.4,0.2-0.8,0.3-1.4,0.3c-0.5,0-1-0.1-1.4-0.3c-0.4-0.2-0.7-0.5-0.9-0.9c-0.2-0.4-0.3-0.9-0.3-1.4s0.1-1,0.3-1.4
	c0.2-0.4,0.5-0.7,0.9-0.9C143.9,33.2,144.4,33.1,144.9,33.1z M144.9,34.3c-0.4,0-0.7,0.1-0.9,0.4c-0.3,0.3-0.4,0.6-0.4,1.1
	s0.1,0.9,0.4,1.1c0.3,0.3,0.6,0.4,0.9,0.4s0.7-0.1,0.9-0.4c0.3-0.3,0.4-0.6,0.4-1.1s-0.1-0.9-0.4-1.1
	C145.6,34.4,145.3,34.3,144.9,34.3z"/>
<path d="M153.6,31.7c0.8,0,1.5,0.2,2,0.6c0.5,0.4,0.9,0.9,1,1.6h-1.4c-0.1-0.3-0.3-0.5-0.6-0.7c-0.3-0.2-0.6-0.3-1-0.3
	c-0.4,0-0.7,0.1-1,0.3c-0.3,0.2-0.5,0.4-0.7,0.7c-0.2,0.3-0.2,0.7-0.2,1.1c0,0.7,0.2,1.2,0.6,1.6c0.4,0.4,0.9,0.6,1.5,0.6
	c0.5,0,0.9-0.1,1.2-0.4c0.3-0.3,0.6-0.7,0.7-1.2h-2.2v-0.9h3.3V36c-0.1,0.4-0.3,0.8-0.6,1.2c-0.3,0.4-0.6,0.7-1.1,0.9
	c-0.4,0.2-0.9,0.3-1.5,0.3c-0.6,0-1.2-0.1-1.7-0.4c-0.5-0.3-0.9-0.7-1.1-1.2c-0.3-0.5-0.4-1.1-0.4-1.7s0.1-1.2,0.4-1.7
	c0.3-0.5,0.7-0.9,1.1-1.2C152.3,31.9,152.9,31.7,153.6,31.7z"/>
<path d="M159,34.2c0.2-0.3,0.4-0.6,0.8-0.8c0.3-0.2,0.7-0.3,1.1-0.3v1.4h-0.4c-1,0-1.4,0.4-1.4,1.3v2.5h-1.3v-5.2h1.3V34.2z"/>
<path d="M161.4,31.7c0-0.2,0.1-0.4,0.2-0.5c0.1-0.1,0.3-0.2,0.6-0.2c0.2,0,0.4,0.1,0.6,0.2c0.1,0.1,0.2,0.3,0.2,0.5
	c0,0.2-0.1,0.4-0.2,0.5c-0.1,0.1-0.3,0.2-0.6,0.2c-0.2,0-0.4-0.1-0.6-0.2C161.5,32.1,161.4,31.9,161.4,31.7z M162.9,33.2v5.2h-1.3
	v-5.2H162.9z"/>
<path d="M166.1,33.1c0.4,0,0.8,0.1,1.1,0.3c0.3,0.2,0.5,0.5,0.7,0.8v-2.8h1.3v6.9h-1.3v-1.1c-0.1,0.3-0.4,0.6-0.7,0.8
	c-0.3,0.2-0.7,0.3-1.1,0.3c-0.4,0-0.8-0.1-1.2-0.3c-0.3-0.2-0.6-0.5-0.8-0.9c-0.2-0.4-0.3-0.9-0.3-1.4s0.1-1,0.3-1.4
	c0.2-0.4,0.5-0.7,0.8-0.9C165.2,33.2,165.6,33.1,166.1,33.1z M166.5,34.3c-0.4,0-0.7,0.1-1,0.4c-0.2,0.3-0.4,0.6-0.4,1.1
	c0,0.5,0.1,0.8,0.4,1.1c0.2,0.3,0.6,0.4,1,0.4c0.4,0,0.7-0.1,1-0.4c0.3-0.3,0.4-0.6,0.4-1.1c0-0.5-0.1-0.8-0.4-1.1
	C167.2,34.4,166.9,34.3,166.5,34.3z"/>
<path d="M176.9,36.6c0,0.3-0.1,0.6-0.3,0.9c-0.2,0.3-0.4,0.5-0.7,0.7c-0.3,0.2-0.7,0.3-1.2,0.3c-0.5,0-0.9-0.1-1.2-0.2
	c-0.4-0.2-0.7-0.4-0.9-0.7c-0.2-0.3-0.3-0.6-0.4-1h1.4c0,0.3,0.1,0.5,0.3,0.7c0.2,0.2,0.4,0.3,0.7,0.3c0.3,0,0.5-0.1,0.6-0.2
	c0.1-0.1,0.2-0.3,0.2-0.6c0-0.2-0.1-0.4-0.2-0.5c-0.1-0.1-0.3-0.2-0.4-0.3c-0.2-0.1-0.4-0.2-0.7-0.3c-0.4-0.1-0.7-0.3-1-0.4
	c-0.3-0.1-0.5-0.3-0.7-0.6c-0.2-0.3-0.3-0.6-0.3-1c0-0.6,0.2-1,0.6-1.3c0.4-0.3,1-0.5,1.6-0.5c0.7,0,1.2,0.2,1.7,0.5
	c0.4,0.3,0.7,0.8,0.7,1.3h-1.4c0-0.2-0.1-0.4-0.3-0.6c-0.2-0.2-0.4-0.2-0.7-0.2c-0.2,0-0.4,0.1-0.6,0.2c-0.1,0.1-0.2,0.3-0.2,0.6
	c0,0.2,0.1,0.4,0.2,0.5c0.1,0.1,0.3,0.2,0.4,0.3c0.2,0.1,0.4,0.2,0.7,0.3c0.4,0.1,0.8,0.3,1,0.4c0.3,0.1,0.5,0.3,0.7,0.6
	C176.8,35.8,176.9,36.1,176.9,36.6z"/>
<path d="M180.6,37.2v1.1h-0.7c-0.6,0-1-0.1-1.3-0.4c-0.3-0.3-0.5-0.7-0.5-1.4v-2.2h-0.7v-1.1h0.7v-1.3h1.3v1.3h1.2v1.1h-1.2v2.3
	c0,0.2,0.1,0.4,0.1,0.5c0.1,0.1,0.3,0.1,0.5,0.1H180.6z"/>
<path d="M182.5,33.2l1.4,3.5l1.3-3.5h1.4l-3.2,7.6H182l1.2-2.6l-2.2-5H182.5z"/>
<path d="M188.5,31.5v6.9h-1.3v-6.9H188.5z"/>
<path d="M194.6,35.6c0,0.1,0,0.3,0,0.4h-3.8c0,0.5,0.1,0.8,0.4,1c0.2,0.2,0.5,0.3,0.9,0.3c0.3,0,0.6-0.1,0.8-0.2
	c0.2-0.1,0.3-0.4,0.4-0.6h1.4c-0.1,0.4-0.2,0.7-0.4,1s-0.5,0.5-0.9,0.7c-0.3,0.2-0.7,0.2-1.2,0.2c-0.5,0-1-0.1-1.3-0.3
	c-0.4-0.2-0.7-0.5-0.9-0.9c-0.2-0.4-0.3-0.9-0.3-1.4s0.1-1,0.3-1.4c0.2-0.4,0.5-0.7,0.9-0.9c0.4-0.2,0.8-0.3,1.3-0.3
	c0.5,0,1,0.1,1.3,0.3c0.4,0.2,0.7,0.5,0.9,0.9C194.5,34.7,194.6,35.1,194.6,35.6z M193.3,35.5c0-0.4-0.1-0.7-0.3-1
	c-0.2-0.2-0.5-0.3-0.9-0.3c-0.4,0-0.7,0.1-0.9,0.3c-0.2,0.2-0.4,0.5-0.4,1H193.3z"/>
<path class="st20" d="M89.2,49.4l0.1,0.5l0.1-0.4l0.7-2.5h0.4l0.7,2.5l0.1,0.4l0.1-0.5l0.5-2.4h0.5l-0.9,3.5h-0.4l-0.7-2.6l-0.1-0.3
	l-0.1,0.3l-0.8,2.6h-0.4L88.2,47h0.5L89.2,49.4z"/>
<path class="st20" d="M93.3,48.2c0.2-0.2,0.5-0.4,0.8-0.4c0.6,0,0.8,0.3,0.8,0.9v1.7h-0.4v-1.7c0-0.2,0-0.3-0.1-0.4
	c-0.1-0.1-0.2-0.1-0.4-0.1c-0.1,0-0.3,0-0.4,0.1c-0.1,0.1-0.2,0.2-0.3,0.3v1.9h-0.4v-3.7h0.4V48.2z"/>
<path class="st20" d="M96.6,50.5c-0.4,0-0.6-0.1-0.9-0.3c-0.2-0.2-0.3-0.5-0.3-0.9v-0.1c0-0.3,0-0.5,0.1-0.7
	c0.1-0.2,0.2-0.4,0.4-0.5c0.2-0.1,0.4-0.2,0.6-0.2c0.3,0,0.6,0.1,0.8,0.3c0.2,0.2,0.3,0.5,0.3,1v0.2h-1.8c0,0.3,0.1,0.5,0.2,0.6
	c0.1,0.2,0.3,0.2,0.6,0.2c0.2,0,0.3,0,0.4-0.1c0.1-0.1,0.2-0.2,0.3-0.3l0.3,0.2C97.4,50.4,97.1,50.5,96.6,50.5z M96.6,48.2
	c-0.2,0-0.3,0.1-0.5,0.2c-0.1,0.1-0.2,0.3-0.2,0.6h1.3v0c0-0.2-0.1-0.4-0.2-0.5C96.9,48.2,96.8,48.2,96.6,48.2z"/>
<path class="st20" d="M98.6,47.9l0,0.3c0.2-0.3,0.5-0.4,0.8-0.4c0.6,0,0.8,0.3,0.8,0.9v1.7h-0.4v-1.7c0-0.2,0-0.3-0.1-0.4
	c-0.1-0.1-0.2-0.1-0.4-0.1c-0.1,0-0.3,0-0.4,0.1c-0.1,0.1-0.2,0.2-0.3,0.3v1.9h-0.4v-2.6H98.6z"/>
<path class="st20" d="M104.2,49.6h-1.5l-0.3,0.9h-0.5l1.3-3.5h0.4l1.4,3.5h-0.5L104.2,49.6z M102.8,49.2h1.2l-0.6-1.7L102.8,49.2z"
	/>
<path class="st20" d="M105.8,47.9l0,0.3c0.2-0.3,0.5-0.4,0.8-0.4c0.6,0,0.8,0.3,0.8,0.9v1.7H107v-1.7c0-0.2,0-0.3-0.1-0.4
	c-0.1-0.1-0.2-0.1-0.4-0.1c-0.1,0-0.3,0-0.4,0.1c-0.1,0.1-0.2,0.2-0.3,0.3v1.9h-0.4v-2.6H105.8z"/>
<path class="st20" d="M111.9,47v2.4c0,0.3-0.1,0.6-0.3,0.8c-0.2,0.2-0.5,0.3-0.8,0.4l-0.1,0c-0.4,0-0.7-0.1-0.9-0.3
	c-0.2-0.2-0.3-0.5-0.3-0.9V47h0.5v2.4c0,0.3,0.1,0.5,0.2,0.6c0.1,0.1,0.3,0.2,0.6,0.2c0.3,0,0.5-0.1,0.6-0.2
	c0.1-0.1,0.2-0.3,0.2-0.6V47H111.9z"/>
<path class="st20" d="M113,47.9l0,0.3c0.2-0.3,0.5-0.4,0.8-0.4c0.6,0,0.8,0.3,0.8,0.9v1.7h-0.4v-1.7c0-0.2,0-0.3-0.1-0.4
	c-0.1-0.1-0.2-0.1-0.4-0.1c-0.1,0-0.3,0-0.4,0.1c-0.1,0.1-0.2,0.2-0.3,0.3v1.9h-0.4v-2.6H113z"/>
<path class="st20" d="M116.1,49.3l-0.3,0.3v0.9h-0.4v-3.7h0.4V49l0.2-0.3l0.8-0.9h0.5l-1,1.1l1.1,1.5H117L116.1,49.3z"/>
<path class="st20" d="M118.3,47.9l0,0.3c0.2-0.3,0.5-0.4,0.8-0.4c0.6,0,0.8,0.3,0.8,0.9v1.7h-0.4v-1.7c0-0.2,0-0.3-0.1-0.4
	c-0.1-0.1-0.2-0.1-0.4-0.1c-0.1,0-0.3,0-0.4,0.1c-0.1,0.1-0.2,0.2-0.3,0.3v1.9h-0.4v-2.6H118.3z"/>
<path class="st20" d="M120.5,49.1c0-0.3,0-0.5,0.2-0.7c0.1-0.2,0.2-0.4,0.4-0.5c0.2-0.1,0.4-0.2,0.6-0.2c0.4,0,0.6,0.1,0.9,0.4
	c0.2,0.2,0.3,0.6,0.3,1v0c0,0.3-0.1,0.5-0.1,0.7c-0.1,0.2-0.2,0.4-0.4,0.5c-0.2,0.1-0.4,0.2-0.6,0.2c-0.4,0-0.6-0.1-0.9-0.4
	C120.6,49.9,120.5,49.6,120.5,49.1L120.5,49.1z M120.9,49.2c0,0.3,0.1,0.5,0.2,0.7c0.1,0.2,0.3,0.3,0.5,0.3c0.2,0,0.4-0.1,0.5-0.3
	c0.1-0.2,0.2-0.4,0.2-0.8c0-0.3-0.1-0.5-0.2-0.7c-0.1-0.2-0.3-0.3-0.5-0.3c-0.2,0-0.4,0.1-0.5,0.3S120.9,48.9,120.9,49.2z"/>
<path class="st20" d="M125.8,49.9l0.5-2h0.4l-0.8,2.6h-0.4l-0.6-2l-0.6,2H124l-0.8-2.6h0.4l0.5,2l0.6-2h0.4L125.8,49.9z"/>
<path class="st20" d="M127.6,47.9l0,0.3c0.2-0.3,0.5-0.4,0.8-0.4c0.6,0,0.8,0.3,0.8,0.9v1.7h-0.4v-1.7c0-0.2,0-0.3-0.1-0.4
	c-0.1-0.1-0.2-0.1-0.4-0.1c-0.1,0-0.3,0-0.4,0.1c-0.1,0.1-0.2,0.2-0.3,0.3v1.9h-0.4v-2.6H127.6z"/>
<path class="st20" d="M131.7,49.1v1.4h-0.5V47h1.3c0.4,0,0.7,0.1,0.9,0.3c0.2,0.2,0.3,0.5,0.3,0.8c0,0.3-0.1,0.6-0.3,0.8
	c-0.2,0.2-0.5,0.3-0.9,0.3H131.7z M131.7,48.7h0.8c0.2,0,0.4-0.1,0.6-0.2c0.1-0.1,0.2-0.3,0.2-0.5c0-0.2-0.1-0.4-0.2-0.5
	c-0.1-0.1-0.3-0.2-0.5-0.2h-0.9V48.7z"/>
<path class="st20" d="M135.6,48.3c-0.1,0-0.1,0-0.2,0c-0.3,0-0.5,0.1-0.6,0.4v1.9h-0.4v-2.6h0.4l0,0.3c0.1-0.2,0.4-0.4,0.6-0.4
	c0.1,0,0.2,0,0.2,0V48.3z"/>
<path class="st20" d="M136.5,50.5H136v-2.6h0.4V50.5z M136,47.2c0-0.1,0-0.1,0.1-0.2c0-0.1,0.1-0.1,0.2-0.1c0.1,0,0.2,0,0.2,0.1
	c0,0.1,0.1,0.1,0.1,0.2c0,0.1,0,0.1-0.1,0.2c0,0-0.1,0.1-0.2,0.1c-0.1,0-0.2,0-0.2-0.1C136,47.3,136,47.2,136,47.2z"/>
<path class="st20" d="M137.6,47.9l0,0.3c0.2-0.3,0.5-0.4,0.8-0.4c0.6,0,0.8,0.3,0.8,0.9v1.7h-0.4v-1.7c0-0.2,0-0.3-0.1-0.4
	c-0.1-0.1-0.2-0.1-0.4-0.1c-0.1,0-0.3,0-0.4,0.1c-0.1,0.1-0.2,0.2-0.3,0.3v1.9h-0.4v-2.6H137.6z"/>
<path class="st20" d="M140.6,47.2v0.6h0.5v0.3h-0.5v1.6c0,0.1,0,0.2,0.1,0.2c0,0.1,0.1,0.1,0.2,0.1c0.1,0,0.1,0,0.2,0v0.4
	c-0.1,0-0.2,0-0.3,0c-0.2,0-0.4-0.1-0.5-0.2c-0.1-0.1-0.2-0.3-0.2-0.5v-1.6h-0.5v-0.3h0.5v-0.6H140.6z"/>
<path class="st20" d="M142.7,50.5c-0.4,0-0.6-0.1-0.9-0.3c-0.2-0.2-0.3-0.5-0.3-0.9v-0.1c0-0.3,0-0.5,0.1-0.7
	c0.1-0.2,0.2-0.4,0.4-0.5c0.2-0.1,0.4-0.2,0.6-0.2c0.3,0,0.6,0.1,0.8,0.3c0.2,0.2,0.3,0.5,0.3,1v0.2h-1.8c0,0.3,0.1,0.5,0.2,0.6
	c0.1,0.2,0.3,0.2,0.6,0.2c0.2,0,0.3,0,0.4-0.1c0.1-0.1,0.2-0.2,0.3-0.3l0.3,0.2C143.4,50.4,143.1,50.5,142.7,50.5z M142.6,48.2
	c-0.2,0-0.3,0.1-0.5,0.2c-0.1,0.1-0.2,0.3-0.2,0.6h1.3v0c0-0.2-0.1-0.4-0.2-0.5C142.9,48.2,142.8,48.2,142.6,48.2z"/>
<path class="st20" d="M145.5,48.3c-0.1,0-0.1,0-0.2,0c-0.3,0-0.5,0.1-0.6,0.4v1.9h-0.5v-2.6h0.4l0,0.3c0.1-0.2,0.4-0.4,0.6-0.4
	c0.1,0,0.2,0,0.2,0V48.3z"/>
<path class="st20" d="M149.5,47.3h-1.1v3.2h-0.5v-3.2h-1.1V47h2.7V47.3z"/>
<path class="st20" d="M149.6,49.1c0-0.3,0.1-0.5,0.2-0.7c0.1-0.2,0.2-0.4,0.4-0.5c0.2-0.1,0.4-0.2,0.6-0.2c0.4,0,0.6,0.1,0.9,0.4
	c0.2,0.2,0.3,0.6,0.3,1v0c0,0.3,0,0.5-0.1,0.7c-0.1,0.2-0.2,0.4-0.4,0.5c-0.2,0.1-0.4,0.2-0.6,0.2c-0.4,0-0.6-0.1-0.9-0.4
	C149.7,49.9,149.6,49.6,149.6,49.1L149.6,49.1z M150.1,49.2c0,0.3,0.1,0.5,0.2,0.7c0.1,0.2,0.3,0.3,0.5,0.3c0.2,0,0.4-0.1,0.5-0.3
	c0.1-0.2,0.2-0.4,0.2-0.8c0-0.3-0.1-0.5-0.2-0.7c-0.1-0.2-0.3-0.3-0.5-0.3c-0.2,0-0.4,0.1-0.5,0.3S150.1,48.9,150.1,49.2z"/>
<path class="st20" d="M152.5,49.1c0-0.3,0.1-0.5,0.2-0.7c0.1-0.2,0.2-0.4,0.4-0.5c0.2-0.1,0.4-0.2,0.6-0.2c0.4,0,0.6,0.1,0.9,0.4
	c0.2,0.2,0.3,0.6,0.3,1v0c0,0.3-0.1,0.5-0.1,0.7c-0.1,0.2-0.2,0.4-0.4,0.5c-0.2,0.1-0.4,0.2-0.6,0.2c-0.4,0-0.6-0.1-0.9-0.4
	C152.6,49.9,152.5,49.6,152.5,49.1L152.5,49.1z M152.9,49.2c0,0.3,0.1,0.5,0.2,0.7c0.1,0.2,0.3,0.3,0.5,0.3c0.2,0,0.4-0.1,0.5-0.3
	c0.1-0.2,0.2-0.4,0.2-0.8c0-0.3-0.1-0.5-0.2-0.7c-0.1-0.2-0.3-0.3-0.5-0.3c-0.2,0-0.4,0.1-0.5,0.3S152.9,48.9,152.9,49.2z"/>
<path class="st20" d="M156.2,49.3l-0.3,0.3v0.9h-0.4v-3.7h0.4V49l0.2-0.3l0.8-0.9h0.5l-1,1.1l1.1,1.5h-0.5L156.2,49.3z"/>
<path class="st20" d="M161.2,49.6h-1.5l-0.3,0.9h-0.5l1.3-3.5h0.4l1.4,3.5h-0.5L161.2,49.6z M159.9,49.2h1.2l-0.6-1.7L159.9,49.2z"
	/>
<path class="st20" d="M166.3,50c-0.1,0.2-0.3,0.3-0.5,0.4c-0.2,0.1-0.5,0.1-0.7,0.1c-0.3,0-0.5-0.1-0.8-0.2
	c-0.2-0.1-0.4-0.3-0.5-0.6c-0.1-0.2-0.2-0.5-0.2-0.9v-0.3c0-0.5,0.1-0.9,0.4-1.2c0.2-0.3,0.6-0.4,1-0.4c0.4,0,0.7,0.1,0.9,0.3
	c0.2,0.2,0.4,0.5,0.4,0.8h-0.5c-0.1-0.5-0.4-0.7-0.8-0.7c-0.3,0-0.6,0.1-0.7,0.3c-0.2,0.2-0.2,0.5-0.2,1v0.3c0,0.4,0.1,0.7,0.3,0.9
	c0.2,0.2,0.4,0.3,0.7,0.3c0.2,0,0.3,0,0.5-0.1c0.1,0,0.2-0.1,0.3-0.2v-0.8h-0.8v-0.4h1.3V50z"/>
<path class="st20" d="M168.7,50.5c0-0.1,0-0.1-0.1-0.3c-0.2,0.2-0.5,0.3-0.7,0.3c-0.3,0-0.5-0.1-0.6-0.2c-0.2-0.1-0.2-0.3-0.2-0.6
	c0-0.3,0.1-0.5,0.3-0.6c0.2-0.2,0.5-0.2,0.9-0.2h0.4v-0.2c0-0.2,0-0.3-0.1-0.4c-0.1-0.1-0.2-0.1-0.4-0.1c-0.2,0-0.3,0-0.4,0.1
	c-0.1,0.1-0.2,0.2-0.2,0.3H167c0-0.1,0-0.3,0.1-0.4c0.1-0.1,0.2-0.2,0.4-0.3c0.2-0.1,0.3-0.1,0.5-0.1c0.3,0,0.5,0.1,0.7,0.2
	c0.2,0.2,0.3,0.4,0.3,0.6v1.2c0,0.2,0,0.4,0.1,0.6v0H168.7z M167.9,50.1c0.1,0,0.3,0,0.4-0.1c0.1-0.1,0.2-0.2,0.3-0.3v-0.5h-0.4
	c-0.6,0-0.8,0.2-0.8,0.5c0,0.1,0,0.3,0.1,0.3C167.6,50.1,167.8,50.1,167.9,50.1z"/>
<path class="st20" d="M170.2,50.5h-0.4v-3.7h0.4V50.5z"/>
<path class="st20" d="M171.4,50.5H171v-3.7h0.4V50.5z"/>
<path class="st20" d="M173.3,50.5c-0.4,0-0.6-0.1-0.9-0.3c-0.2-0.2-0.3-0.5-0.3-0.9v-0.1c0-0.3,0.1-0.5,0.1-0.7
	c0.1-0.2,0.2-0.4,0.4-0.5c0.2-0.1,0.4-0.2,0.6-0.2c0.3,0,0.6,0.1,0.8,0.3c0.2,0.2,0.3,0.5,0.3,1v0.2h-1.8c0,0.3,0.1,0.5,0.2,0.6
	c0.1,0.2,0.3,0.2,0.6,0.2c0.2,0,0.3,0,0.4-0.1c0.1-0.1,0.2-0.2,0.3-0.3l0.3,0.2C174,50.4,173.7,50.5,173.3,50.5z M173.2,48.2
	c-0.2,0-0.3,0.1-0.5,0.2c-0.1,0.1-0.2,0.3-0.2,0.6h1.3v0c0-0.2-0.1-0.4-0.2-0.5C173.5,48.2,173.4,48.2,173.2,48.2z"/>
<path class="st20" d="M175.6,49.8l0.6-2h0.5l-1.1,3c-0.2,0.4-0.4,0.7-0.8,0.7l-0.1,0l-0.2,0v-0.4l0.1,0c0.2,0,0.3,0,0.4-0.1
	c0.1-0.1,0.2-0.2,0.2-0.3l0.1-0.3l-0.9-2.6h0.5L175.6,49.8z"/>
<path class="st20" d="M181.1,48.8c0,0.3-0.1,0.6-0.2,0.9c-0.1,0.3-0.3,0.5-0.5,0.6c-0.2,0.1-0.5,0.2-0.7,0.2c-0.3,0-0.5-0.1-0.7-0.2
	c-0.2-0.1-0.4-0.3-0.5-0.6c-0.1-0.3-0.2-0.5-0.2-0.9v-0.3c0-0.3,0.1-0.6,0.2-0.9c0.1-0.3,0.3-0.5,0.5-0.6c0.2-0.1,0.5-0.2,0.7-0.2
	c0.3,0,0.5,0.1,0.7,0.2c0.2,0.1,0.4,0.3,0.5,0.6c0.1,0.3,0.2,0.6,0.2,0.9V48.8z M180.7,48.6c0-0.4-0.1-0.7-0.3-1
	c-0.2-0.2-0.4-0.3-0.7-0.3c-0.3,0-0.5,0.1-0.7,0.3c-0.2,0.2-0.3,0.5-0.3,0.9v0.3c0,0.4,0.1,0.7,0.3,1c0.2,0.2,0.4,0.3,0.7,0.3
	c0.3,0,0.5-0.1,0.7-0.3c0.2-0.2,0.2-0.5,0.3-0.9V48.6z"/>
<path class="st20" d="M182,50.5v-2.3h-0.4v-0.3h0.4v-0.3c0-0.3,0.1-0.5,0.2-0.7c0.1-0.2,0.4-0.2,0.6-0.2c0.1,0,0.2,0,0.3,0l0,0.4
	c-0.1,0-0.2,0-0.2,0c-0.1,0-0.3,0-0.3,0.1c-0.1,0.1-0.1,0.2-0.1,0.4v0.3h0.6v0.3h-0.6v2.3H182z"/>
<path class="st20" d="M187.2,47.3H186v3.2h-0.5v-3.2h-1.1V47h2.7V47.3z"/>
<path class="st20" d="M188.3,49.8l0.6-2h0.5l-1.1,3c-0.2,0.4-0.4,0.7-0.8,0.7l-0.1,0l-0.2,0v-0.4l0.1,0c0.2,0,0.3,0,0.4-0.1
	c0.1-0.1,0.2-0.2,0.2-0.3l0.1-0.3l-0.9-2.6h0.5L188.3,49.8z"/>
<path class="st20" d="M192,49.2c0,0.4-0.1,0.7-0.3,1s-0.4,0.4-0.7,0.4c-0.3,0-0.6-0.1-0.8-0.3v1.3h-0.4v-3.6h0.4l0,0.3
	c0.2-0.2,0.4-0.3,0.8-0.3c0.3,0,0.6,0.1,0.7,0.4C191.9,48.4,192,48.7,192,49.2L192,49.2z M191.6,49.1c0-0.3-0.1-0.5-0.2-0.7
	c-0.1-0.2-0.3-0.3-0.5-0.3c-0.3,0-0.5,0.1-0.6,0.4v1.3c0.1,0.2,0.3,0.4,0.6,0.4c0.2,0,0.4-0.1,0.5-0.3
	C191.5,49.7,191.6,49.5,191.6,49.1z"/>
<path class="st20" d="M193.7,50.5c-0.4,0-0.6-0.1-0.9-0.3c-0.2-0.2-0.3-0.5-0.3-0.9v-0.1c0-0.3,0-0.5,0.1-0.7
	c0.1-0.2,0.2-0.4,0.4-0.5c0.2-0.1,0.4-0.2,0.6-0.2c0.3,0,0.6,0.1,0.8,0.3c0.2,0.2,0.3,0.5,0.3,1v0.2h-1.8c0,0.3,0.1,0.5,0.2,0.6
	c0.1,0.2,0.3,0.2,0.6,0.2c0.2,0,0.3,0,0.4-0.1c0.1-0.1,0.2-0.2,0.3-0.3l0.3,0.2C194.4,50.4,194.1,50.5,193.7,50.5z M193.6,48.2
	c-0.2,0-0.3,0.1-0.5,0.2c-0.1,0.1-0.2,0.3-0.2,0.6h1.3v0c0-0.2-0.1-0.4-0.2-0.5C193.9,48.2,193.8,48.2,193.6,48.2z"/>
<path class="st20" d="M198.5,49.6H197l-0.3,0.9h-0.5l1.3-3.5h0.4l1.4,3.5h-0.5L198.5,49.6z M197.1,49.2h1.2l-0.6-1.7L197.1,49.2z"/>
<path class="st20" d="M200.1,47.9l0,0.3c0.2-0.3,0.5-0.4,0.8-0.4c0.6,0,0.8,0.3,0.8,0.9v1.7h-0.4v-1.7c0-0.2,0-0.3-0.1-0.4
	c-0.1-0.1-0.2-0.1-0.4-0.1c-0.1,0-0.3,0-0.4,0.1c-0.1,0.1-0.2,0.2-0.3,0.3v1.9h-0.4v-2.6H200.1z"/>
<path class="st20" d="M202.3,49.1c0-0.4,0.1-0.7,0.3-1c0.2-0.2,0.4-0.4,0.8-0.4c0.3,0,0.6,0.1,0.7,0.3v-1.4h0.4v3.7h-0.4l0-0.3
	c-0.2,0.2-0.4,0.3-0.8,0.3c-0.3,0-0.6-0.1-0.7-0.4C202.4,49.9,202.3,49.6,202.3,49.1L202.3,49.1z M202.8,49.2c0,0.3,0.1,0.5,0.2,0.7
	c0.1,0.2,0.3,0.3,0.5,0.3c0.3,0,0.5-0.1,0.6-0.4v-1.2c-0.1-0.2-0.3-0.4-0.6-0.4c-0.2,0-0.4,0.1-0.5,0.3
	C202.8,48.6,202.8,48.9,202.8,49.2z"/>
<path class="st20" d="M207.6,48.9c-0.4-0.1-0.7-0.3-0.9-0.4c-0.2-0.2-0.3-0.4-0.3-0.6c0-0.3,0.1-0.5,0.3-0.7
	c0.2-0.2,0.5-0.3,0.9-0.3c0.2,0,0.5,0,0.6,0.1c0.2,0.1,0.3,0.2,0.4,0.4c0.1,0.2,0.2,0.3,0.2,0.5h-0.5c0-0.2-0.1-0.4-0.2-0.5
	c-0.1-0.1-0.3-0.2-0.6-0.2c-0.2,0-0.4,0.1-0.5,0.2c-0.1,0.1-0.2,0.2-0.2,0.4c0,0.1,0.1,0.3,0.2,0.4c0.1,0.1,0.3,0.2,0.6,0.3
	c0.3,0.1,0.5,0.2,0.7,0.3c0.2,0.1,0.3,0.2,0.4,0.3c0.1,0.1,0.1,0.3,0.1,0.5c0,0.3-0.1,0.5-0.3,0.7c-0.2,0.2-0.5,0.3-0.9,0.3
	c-0.2,0-0.5,0-0.7-0.1c-0.2-0.1-0.4-0.2-0.5-0.4c-0.1-0.2-0.2-0.3-0.2-0.6h0.5c0,0.2,0.1,0.4,0.2,0.5c0.2,0.1,0.4,0.2,0.6,0.2
	c0.2,0,0.4-0.1,0.6-0.2c0.1-0.1,0.2-0.2,0.2-0.4c0-0.2-0.1-0.3-0.2-0.4C208.1,49.1,207.9,49,207.6,48.9z"/>
<path class="st20" d="M210.5,50.2c0.2,0,0.3,0,0.4-0.1c0.1-0.1,0.2-0.2,0.2-0.4h0.4c0,0.2-0.1,0.3-0.2,0.4c-0.1,0.1-0.2,0.2-0.4,0.3
	c-0.2,0.1-0.3,0.1-0.5,0.1c-0.4,0-0.6-0.1-0.9-0.4c-0.2-0.2-0.3-0.6-0.3-1v-0.1c0-0.3,0-0.5,0.1-0.7c0.1-0.2,0.2-0.4,0.4-0.5
	c0.2-0.1,0.4-0.2,0.6-0.2c0.3,0,0.5,0.1,0.7,0.3c0.2,0.2,0.3,0.4,0.3,0.7h-0.4c0-0.2-0.1-0.3-0.2-0.4c-0.1-0.1-0.3-0.2-0.4-0.2
	c-0.2,0-0.4,0.1-0.5,0.2c-0.1,0.2-0.2,0.4-0.2,0.7v0.1c0,0.3,0.1,0.5,0.2,0.7C210.1,50.1,210.2,50.2,210.5,50.2z"/>
<path class="st20" d="M213.3,48.3c-0.1,0-0.1,0-0.2,0c-0.3,0-0.5,0.1-0.6,0.4v1.9H212v-2.6h0.4l0,0.3c0.1-0.2,0.4-0.4,0.6-0.4
	c0.1,0,0.2,0,0.2,0V48.3z"/>
<path class="st20" d="M215.2,50.5c0-0.1,0-0.1-0.1-0.3c-0.2,0.2-0.5,0.3-0.7,0.3c-0.3,0-0.5-0.1-0.6-0.2c-0.2-0.1-0.2-0.3-0.2-0.6
	c0-0.3,0.1-0.5,0.3-0.6c0.2-0.2,0.5-0.2,0.9-0.2h0.4v-0.2c0-0.2,0-0.3-0.1-0.4c-0.1-0.1-0.2-0.1-0.4-0.1c-0.2,0-0.3,0-0.4,0.1
	c-0.1,0.1-0.2,0.2-0.2,0.3h-0.5c0-0.1,0-0.3,0.1-0.4c0.1-0.1,0.2-0.2,0.4-0.3c0.2-0.1,0.3-0.1,0.5-0.1c0.3,0,0.5,0.1,0.7,0.2
	c0.2,0.2,0.3,0.4,0.3,0.6v1.2c0,0.2,0,0.4,0.1,0.6v0H215.2z M214.5,50.1c0.1,0,0.3,0,0.4-0.1c0.1-0.1,0.2-0.2,0.3-0.3v-0.5h-0.4
	c-0.5,0-0.8,0.2-0.8,0.5c0,0.1,0,0.3,0.1,0.3C214.2,50.1,214.3,50.1,214.5,50.1z"/>
<path class="st20" d="M216.7,47.9l0,0.3c0.2-0.2,0.5-0.3,0.8-0.3c0.4,0,0.6,0.1,0.8,0.4c0.1-0.1,0.2-0.2,0.3-0.3
	c0.1-0.1,0.3-0.1,0.5-0.1c0.6,0,0.9,0.3,0.9,0.9v1.8h-0.4v-1.7c0-0.2,0-0.3-0.1-0.4c-0.1-0.1-0.2-0.1-0.4-0.1
	c-0.2,0-0.3,0.1-0.4,0.2c-0.1,0.1-0.2,0.2-0.2,0.4v1.7h-0.5v-1.7c0-0.4-0.2-0.6-0.6-0.6c-0.3,0-0.5,0.1-0.6,0.4v1.9h-0.4v-2.6H216.7
	z"/>
<path class="st20" d="M222.9,49.2c0,0.4-0.1,0.7-0.3,1c-0.2,0.2-0.4,0.4-0.7,0.4c-0.3,0-0.6-0.1-0.8-0.4l0,0.3h-0.4v-3.7h0.4v1.4
	c0.2-0.2,0.4-0.3,0.8-0.3s0.6,0.1,0.8,0.4C222.8,48.4,222.9,48.7,222.9,49.2L222.9,49.2z M222.5,49.1c0-0.3-0.1-0.5-0.2-0.7
	c-0.1-0.2-0.3-0.3-0.5-0.3c-0.3,0-0.5,0.1-0.6,0.4v1.1c0.1,0.3,0.4,0.4,0.6,0.4c0.2,0,0.4-0.1,0.5-0.3
	C222.4,49.7,222.5,49.5,222.5,49.1z"/>
<path class="st20" d="M224,50.5h-0.4v-3.7h0.4V50.5z"/>
<path class="st20" d="M225.8,50.5c-0.4,0-0.6-0.1-0.9-0.3c-0.2-0.2-0.3-0.5-0.3-0.9v-0.1c0-0.3,0-0.5,0.1-0.7
	c0.1-0.2,0.2-0.4,0.4-0.5c0.2-0.1,0.4-0.2,0.6-0.2c0.3,0,0.6,0.1,0.8,0.3c0.2,0.2,0.3,0.5,0.3,1v0.2H225c0,0.3,0.1,0.5,0.2,0.6
	c0.1,0.2,0.3,0.2,0.6,0.2c0.2,0,0.3,0,0.4-0.1c0.1-0.1,0.2-0.2,0.3-0.3l0.3,0.2C226.5,50.4,226.2,50.5,225.8,50.5z M225.7,48.2
	c-0.2,0-0.3,0.1-0.5,0.2c-0.1,0.1-0.2,0.3-0.2,0.6h1.3v0c0-0.2-0.1-0.4-0.2-0.5C226.1,48.2,225.9,48.2,225.7,48.2z"/>
<path class="st20" d="M227.2,49.1c0-0.4,0.1-0.7,0.3-1c0.2-0.2,0.4-0.4,0.8-0.4c0.3,0,0.6,0.1,0.7,0.3v-1.4h0.4v3.7H229l0-0.3
	c-0.2,0.2-0.4,0.3-0.8,0.3c-0.3,0-0.6-0.1-0.7-0.4C227.3,49.9,227.2,49.6,227.2,49.1L227.2,49.1z M227.7,49.2c0,0.3,0.1,0.5,0.2,0.7
	c0.1,0.2,0.3,0.3,0.5,0.3c0.3,0,0.5-0.1,0.6-0.4v-1.2c-0.1-0.2-0.3-0.4-0.6-0.4c-0.2,0-0.4,0.1-0.5,0.3
	C227.7,48.6,227.7,48.9,227.7,49.2z"/>
<path class="st20" d="M231,49.9l0.7-2h0.5l-0.9,2.6h-0.3l-1-2.6h0.5L231,49.9z"/>
</svg>
