<?xml version="1.0" encoding="utf-8"?>
<!-- Generator: Adobe Illustrator 25.2.1, SVG Export Plug-In . SVG Version: 6.00 Build 0)  -->
<svg version="1.1" id="Layer_1" xmlns="http://www.w3.org/2000/svg" xmlns:xlink="http://www.w3.org/1999/xlink" x="0px" y="0px"
	 viewBox="0 0 145 110" style="enable-background:new 0 0 145 110;" xml:space="preserve">
<style type="text/css">
	.st0{fill:#EFEFEF;}
	.st1{fill:#FFFFFF;}
	.st2{fill:#969DA8;}
	.st3{fill:#0066FF;}
	.st4{fill:#B8BCC1;}
	.st5{fill:#7C838E;}
	.st6{opacity:0.4;fill:#FFFFFF;}
</style>
<g>
	<g>
		<rect class="st0" width="145" height="110"/>
	</g>
	<rect x="27.5" y="10" class="st1" width="90" height="90"/>
	<g>
		<path class="st2" d="M94.1,25.3H50.9c-1.5,0-2.7-1.2-2.7-2.7v0c0-1.5,1.2-2.7,2.7-2.7h43.2c1.5,0,2.7,1.2,2.7,2.7v0
			C96.9,24,95.6,25.3,94.1,25.3z"/>
		<path class="st3" d="M87.9,90.2H57.1c-2.5,0-4.6-2.1-4.6-4.6v0c0-2.5,2.1-4.6,4.6-4.6h30.8c2.5,0,4.6,2.1,4.6,4.6v0
			C92.5,88.2,90.4,90.2,87.9,90.2z"/>
		<g>
			<path class="st4" d="M96.2,54.6H48.8c-0.4,0-0.7-0.3-0.7-0.7v-0.3c0-0.4,0.3-0.7,0.7-0.7h47.3c0.4,0,0.7,0.3,0.7,0.7v0.3
				C96.9,54.3,96.6,54.6,96.2,54.6z"/>
		</g>
		<g>
			<path class="st4" d="M96.2,63.4H48.8c-0.4,0-0.7-0.3-0.7-0.7v-0.3c0-0.4,0.3-0.7,0.7-0.7h47.3c0.4,0,0.7,0.3,0.7,0.7v0.3
				C96.9,63.1,96.6,63.4,96.2,63.4z"/>
		</g>
		<g>
			<path class="st4" d="M90.7,72.1H54.3c-0.5,0-0.8-0.4-0.8-0.8v0c0-0.5,0.4-0.8,0.8-0.8h36.5c0.5,0,0.8,0.4,0.8,0.8v0
				C91.6,71.7,91.2,72.1,90.7,72.1z"/>
		</g>
		<g>
			<g>
				<path class="st3" d="M55.9,37.9c0.6,0.2,1.2,0.4,1.6,0.6c0.4,0.2,0.8,0.5,1,0.9s0.4,0.9,0.4,1.5c0,0.5-0.1,0.9-0.4,1.4
					c-0.3,0.4-0.6,0.7-1.1,1c-0.5,0.3-1.1,0.4-1.9,0.4h0v1.1h-0.5v-1.1c-0.9-0.1-1.7-0.4-2.3-0.9c-0.6-0.5-0.9-1.2-1-2h2
					c0,0.3,0.2,0.6,0.4,0.9c0.2,0.3,0.5,0.4,0.9,0.5v-2.7l-0.3-0.1c-0.7-0.2-1.2-0.4-1.6-0.6c-0.4-0.2-0.8-0.5-1-0.8
					c-0.3-0.4-0.4-0.9-0.4-1.5c0-0.5,0.1-1,0.4-1.4c0.3-0.4,0.7-0.7,1.2-0.9c0.5-0.2,1.1-0.3,1.7-0.3v-1.1h0.5v1.2
					c0.9,0.1,1.7,0.3,2.3,0.8c0.6,0.5,0.9,1.1,0.9,1.9h-2.1c0-0.3-0.2-0.6-0.4-0.8c-0.2-0.2-0.5-0.4-0.8-0.4v2.6L55.9,37.9z
					 M54.1,37.1c0.2,0.2,0.5,0.4,0.9,0.5v-2.5c-0.4,0-0.7,0.1-0.9,0.3c-0.2,0.2-0.3,0.5-0.3,0.8C53.8,36.6,53.9,36.9,54.1,37.1z
					 M56.6,41.7c0.2-0.2,0.4-0.5,0.4-0.9c0-0.3-0.1-0.6-0.3-0.8c-0.2-0.2-0.6-0.4-1-0.5v2.6C56,42,56.3,41.9,56.6,41.7z"/>
				<path class="st3" d="M65.3,33.8c0.5,0.2,0.8,0.5,1.1,0.9c0.2,0.4,0.4,0.8,0.4,1.3c0,0.6-0.2,1.1-0.5,1.5
					c-0.3,0.4-0.8,0.6-1.3,0.7v0.1c1.3,0.4,2,1.2,2,2.4c0,0.8-0.3,1.5-0.8,2c-0.6,0.5-1.3,0.8-2.3,0.8c-1.1,0-1.9-0.3-2.6-0.8
					c-0.6-0.5-1-1.3-1.1-2.4H62c0,0.5,0.2,0.9,0.5,1.2c0.3,0.3,0.7,0.4,1.2,0.4c0.4,0,0.8-0.1,1-0.4c0.2-0.2,0.4-0.6,0.4-0.9
					c0-0.5-0.2-0.8-0.5-1.1c-0.4-0.2-0.9-0.4-1.6-0.4h-0.4v-1.6h0.4c1.3,0,1.9-0.4,1.9-1.3c0-0.4-0.1-0.7-0.3-0.9
					C64.3,35.1,64,35,63.6,35c-0.4,0-0.7,0.1-1,0.4c-0.3,0.3-0.4,0.6-0.5,1.1h-1.9c0.1-1,0.4-1.7,1-2.3c0.6-0.5,1.4-0.8,2.4-0.8
					C64.3,33.4,64.8,33.5,65.3,33.8z"/>
				<path class="st3" d="M72,35c-0.6,0-1.1,0.3-1.4,0.8c-0.3,0.6-0.4,1.4-0.4,2.6c0.1-0.4,0.4-0.8,0.9-1c0.4-0.3,0.9-0.4,1.5-0.4
					c0.9,0,1.7,0.3,2.2,0.8c0.5,0.6,0.8,1.4,0.8,2.4c0,0.6-0.1,1.2-0.4,1.7c-0.3,0.5-0.6,0.9-1.1,1.2s-1.1,0.4-1.8,0.4
					c-1.4,0-2.4-0.4-2.9-1.3c-0.5-0.9-0.8-2.1-0.8-3.6c0-1.8,0.3-3.1,0.9-3.9c0.6-0.8,1.5-1.3,2.8-1.3c1,0,1.7,0.3,2.2,0.8
					c0.5,0.6,0.8,1.3,0.9,2.1h-1.8C73.3,35.5,72.8,35,72,35z M70.8,41.4c0.3,0.3,0.7,0.5,1.3,0.5c0.5,0,0.9-0.1,1.2-0.4
					c0.3-0.3,0.4-0.7,0.4-1.2c0-0.5-0.1-1-0.4-1.3c-0.3-0.3-0.7-0.4-1.2-0.4c-0.5,0-0.9,0.1-1.2,0.4c-0.3,0.3-0.5,0.7-0.5,1.2
					S70.5,41,70.8,41.4z"/>
				<g>
					<g>
						<path class="st5" d="M79.4,35.4L77,44.9h-0.8l2.3-9.5H79.4z"/>
					</g>
				</g>
				<g>
					<g>
						<path class="st5" d="M87.1,39.2c0.3,0.3,0.5,0.9,0.5,1.5v2.7h-0.8v-2.7c0-0.5-0.1-0.8-0.3-1.1c-0.2-0.2-0.5-0.4-0.9-0.4
							c-0.4,0-0.7,0.1-1,0.4c-0.2,0.3-0.4,0.7-0.4,1.2v2.5h-0.8v-2.7c0-0.5-0.1-0.8-0.3-1.1c-0.2-0.2-0.5-0.4-0.9-0.4
							c-0.4,0-0.7,0.1-1,0.4c-0.2,0.3-0.4,0.7-0.4,1.2v2.5H80v-4.7h0.8v1.1c0.1-0.4,0.3-0.7,0.6-0.8c0.3-0.2,0.6-0.3,1-0.3
							c0.4,0,0.7,0.1,1,0.3c0.3,0.2,0.5,0.5,0.6,0.9c0.1-0.4,0.3-0.7,0.7-0.9c0.3-0.2,0.7-0.3,1-0.3C86.3,38.7,86.8,38.9,87.1,39.2z
							"/>
					</g>
				</g>
				<g>
					<g>
						<path class="st5" d="M92.1,39c0.4,0.2,0.6,0.5,0.8,0.8c0.2,0.4,0.3,0.8,0.3,1.3c0,0.5-0.1,0.9-0.3,1.3s-0.5,0.6-0.8,0.8
							c-0.4,0.2-0.8,0.3-1.2,0.3c-0.4,0-0.9-0.1-1.2-0.3c-0.4-0.2-0.6-0.5-0.8-0.8c-0.2-0.4-0.3-0.8-0.3-1.3c0-0.5,0.1-0.9,0.3-1.3
							c0.2-0.4,0.5-0.6,0.8-0.8c0.4-0.2,0.8-0.3,1.2-0.3C91.4,38.7,91.8,38.8,92.1,39z M90.2,39.6c-0.2,0.1-0.4,0.3-0.6,0.6
							c-0.1,0.3-0.2,0.6-0.2,1c0,0.4,0.1,0.7,0.2,1c0.1,0.3,0.3,0.5,0.6,0.6c0.2,0.1,0.5,0.2,0.8,0.2c0.3,0,0.5-0.1,0.8-0.2
							c0.2-0.1,0.4-0.3,0.6-0.6c0.1-0.3,0.2-0.6,0.2-1c0-0.4-0.1-0.7-0.2-1c-0.1-0.3-0.3-0.5-0.6-0.6c-0.2-0.1-0.5-0.2-0.8-0.2
							C90.6,39.4,90.4,39.4,90.2,39.6z"/>
					</g>
				</g>
			</g>
		</g>
	</g>
	<path class="st6" d="M83.9,86.4H61.1c-0.4,0-0.8-0.3-0.8-0.8l0,0c0-0.4,0.3-0.8,0.8-0.8h22.8c0.4,0,0.8,0.3,0.8,0.8l0,0
		C84.6,86.1,84.3,86.4,83.9,86.4z"/>
</g>
</svg>
