<?xml version="1.0" encoding="utf-8"?>
<!-- Generator: Adobe Illustrator 25.2.1, SVG Export Plug-In . SVG Version: 6.00 Build 0)  -->
<svg version="1.1" id="Layer_1" xmlns="http://www.w3.org/2000/svg" xmlns:xlink="http://www.w3.org/1999/xlink" x="0px" y="0px"
	 viewBox="0 0 145 110" style="enable-background:new 0 0 145 110;" xml:space="preserve">
<style type="text/css">
	.st0{fill:#EFEFEF;}
	.st1{fill:#0066FF;}
	.st2{fill:#FFFFFF;}
	.st3{opacity:0.6;fill:#FFFFFF;}
	.st4{opacity:0.6;fill:#0066FF;}
</style>
<g>
	<g>
		<rect class="st0" width="145" height="110"/>
	</g>
	<rect x="25.3" y="10" class="st1" width="94.4" height="90"/>
	<path class="st2" d="M81.1,25.3H37.9c-1.5,0-2.7-1.2-2.7-2.7v0c0-1.5,1.2-2.7,2.7-2.7h43.2c1.5,0,2.7,1.2,2.7,2.7v0
		C83.9,24,82.6,25.3,81.1,25.3z"/>
	<path class="st3" d="M79.2,54.6H35.8c-0.4,0-0.7-0.3-0.7-0.7v-0.3c0-0.4,0.3-0.7,0.7-0.7h43.3c0.4,0,0.7,0.3,0.7,0.7v0.3
		C79.9,54.3,79.6,54.6,79.2,54.6z"/>
	<path class="st3" d="M83.2,64.4H35.8c-0.4,0-0.7-0.3-0.7-0.7v-0.3c0-0.4,0.3-0.7,0.7-0.7h47.3c0.4,0,0.7,0.3,0.7,0.7v0.3
		C83.9,64.1,83.6,64.4,83.2,64.4z"/>
	<path class="st3" d="M71.5,74.1H36c-0.5,0-0.8-0.4-0.8-0.8v0c0-0.5,0.4-0.8,0.8-0.8h35.5c0.5,0,0.8,0.4,0.8,0.8v0
		C72.3,73.7,71.9,74.1,71.5,74.1z"/>
	<g>
		<g>
			<path class="st2" d="M39.3,37.9c0.6,0.2,1.2,0.4,1.6,0.6c0.4,0.2,0.8,0.5,1,0.9c0.3,0.4,0.4,0.9,0.4,1.5c0,0.5-0.1,0.9-0.4,1.4
				c-0.3,0.4-0.6,0.7-1.1,1c-0.5,0.3-1.1,0.4-1.9,0.4h0v1.1h-0.5v-1.1c-0.9-0.1-1.7-0.4-2.3-0.9c-0.6-0.5-0.9-1.2-1-2h2
				c0,0.3,0.2,0.6,0.4,0.9c0.2,0.3,0.5,0.4,0.9,0.5v-2.7l-0.3-0.1c-0.7-0.2-1.2-0.4-1.6-0.6c-0.4-0.2-0.8-0.5-1-0.8
				c-0.3-0.4-0.4-0.9-0.4-1.5c0-0.5,0.1-1,0.4-1.4c0.3-0.4,0.7-0.7,1.2-0.9c0.5-0.2,1.1-0.3,1.7-0.3v-1.1H39v1.2
				c0.9,0.1,1.7,0.3,2.3,0.8c0.6,0.5,0.9,1.1,0.9,1.9h-2.1c0-0.3-0.2-0.6-0.4-0.8c-0.2-0.2-0.5-0.4-0.8-0.4v2.6L39.3,37.9z
				 M37.5,37.1c0.2,0.2,0.5,0.4,0.9,0.5v-2.5c-0.4,0-0.7,0.1-0.9,0.3c-0.2,0.2-0.3,0.5-0.3,0.8C37.2,36.6,37.3,36.9,37.5,37.1z
				 M40,41.7c0.2-0.2,0.4-0.5,0.4-0.9c0-0.3-0.1-0.6-0.3-0.8c-0.2-0.2-0.6-0.4-1-0.5v2.6C39.4,42,39.7,41.9,40,41.7z"/>
			<path class="st2" d="M48.7,33.8c0.5,0.2,0.8,0.5,1.1,0.9c0.2,0.4,0.4,0.8,0.4,1.3c0,0.6-0.2,1.1-0.5,1.5
				c-0.3,0.4-0.8,0.6-1.3,0.7v0.1c1.3,0.4,2,1.2,2,2.4c0,0.8-0.3,1.5-0.8,2s-1.3,0.8-2.3,0.8c-1.1,0-1.9-0.3-2.6-0.8
				c-0.6-0.5-1-1.3-1.1-2.4h1.9c0,0.5,0.2,0.9,0.5,1.2c0.3,0.3,0.7,0.4,1.2,0.4c0.4,0,0.8-0.1,1-0.4c0.2-0.2,0.4-0.6,0.4-0.9
				c0-0.5-0.2-0.8-0.5-1.1c-0.4-0.2-0.9-0.4-1.6-0.4h-0.4v-1.6h0.4c1.3,0,1.9-0.4,1.9-1.3c0-0.4-0.1-0.7-0.3-0.9
				C47.7,35.1,47.4,35,47,35c-0.4,0-0.7,0.1-1,0.4c-0.3,0.3-0.4,0.6-0.5,1.1h-1.9c0.1-1,0.4-1.7,1-2.3c0.6-0.5,1.4-0.8,2.4-0.8
				C47.7,33.4,48.2,33.5,48.7,33.8z"/>
			<path class="st2" d="M55.4,35c-0.6,0-1.1,0.3-1.4,0.8c-0.3,0.6-0.4,1.4-0.4,2.6c0.1-0.4,0.4-0.8,0.9-1c0.4-0.3,0.9-0.4,1.5-0.4
				c0.9,0,1.7,0.3,2.2,0.8c0.5,0.6,0.8,1.4,0.8,2.4c0,0.6-0.1,1.2-0.4,1.7c-0.3,0.5-0.6,0.9-1.1,1.2c-0.5,0.3-1.1,0.4-1.8,0.4
				c-1.4,0-2.4-0.4-2.9-1.3c-0.5-0.9-0.8-2.1-0.8-3.6c0-1.8,0.3-3.1,0.9-3.9c0.6-0.8,1.5-1.3,2.8-1.3c1,0,1.7,0.3,2.2,0.8
				c0.5,0.6,0.8,1.3,0.9,2.1h-1.8C56.7,35.5,56.2,35,55.4,35z M54.2,41.4c0.3,0.3,0.7,0.5,1.3,0.5c0.5,0,0.9-0.1,1.2-0.4
				c0.3-0.3,0.4-0.7,0.4-1.2c0-0.5-0.1-1-0.4-1.3c-0.3-0.3-0.7-0.4-1.2-0.4c-0.5,0-0.9,0.1-1.2,0.4c-0.3,0.3-0.5,0.7-0.5,1.2
				S53.9,41,54.2,41.4z"/>
			<path class="st3" d="M62.8,35.4l-2.3,9.5h-0.8l2.3-9.5H62.8z"/>
			<path class="st3" d="M70.5,39.2c0.3,0.3,0.5,0.9,0.5,1.5v2.7h-0.8v-2.7c0-0.5-0.1-0.8-0.3-1.1c-0.2-0.2-0.5-0.4-0.9-0.4
				c-0.4,0-0.7,0.1-1,0.4c-0.2,0.3-0.4,0.7-0.4,1.2v2.5h-0.8v-2.7c0-0.5-0.1-0.8-0.3-1.1c-0.2-0.2-0.5-0.4-0.9-0.4
				c-0.4,0-0.7,0.1-1,0.4c-0.2,0.3-0.4,0.7-0.4,1.2v2.5h-0.8v-4.7h0.8v1.1c0.1-0.4,0.3-0.7,0.6-0.8c0.3-0.2,0.6-0.3,1-0.3
				c0.4,0,0.7,0.1,1,0.3c0.3,0.2,0.5,0.5,0.6,0.9c0.1-0.4,0.3-0.7,0.7-0.9c0.3-0.2,0.7-0.3,1-0.3C69.7,38.7,70.2,38.9,70.5,39.2z"/>
			<path class="st3" d="M75.5,39c0.4,0.2,0.6,0.5,0.8,0.8c0.2,0.4,0.3,0.8,0.3,1.3c0,0.5-0.1,0.9-0.3,1.3s-0.5,0.6-0.8,0.8
				c-0.4,0.2-0.8,0.3-1.2,0.3s-0.9-0.1-1.2-0.3c-0.4-0.2-0.6-0.5-0.8-0.8C72.1,42,72,41.6,72,41.1c0-0.5,0.1-0.9,0.3-1.3
				c0.2-0.4,0.5-0.6,0.8-0.8c0.4-0.2,0.8-0.3,1.2-0.3S75.2,38.8,75.5,39z M73.5,39.6c-0.2,0.1-0.4,0.3-0.6,0.6
				c-0.1,0.3-0.2,0.6-0.2,1c0,0.4,0.1,0.7,0.2,1c0.1,0.3,0.3,0.5,0.6,0.6c0.2,0.1,0.5,0.2,0.8,0.2c0.3,0,0.5-0.1,0.8-0.2
				c0.2-0.1,0.4-0.3,0.6-0.6c0.1-0.3,0.2-0.6,0.2-1c0-0.4-0.1-0.7-0.2-1c-0.1-0.3-0.3-0.5-0.6-0.6c-0.2-0.1-0.5-0.2-0.8-0.2
				C74,39.4,73.8,39.4,73.5,39.6z"/>
		</g>
	</g>
	<g>
		<path class="st2" d="M70.5,90.2H39.7c-2.5,0-4.6-2.1-4.6-4.6v0c0-2.5,2.1-4.6,4.6-4.6h30.8c2.5,0,4.6,2.1,4.6,4.6v0
			C75.1,88.2,73,90.2,70.5,90.2z"/>
		<path class="st4" d="M66.5,86.4H43.7c-0.4,0-0.8-0.3-0.8-0.8l0,0c0-0.4,0.3-0.8,0.8-0.8h22.8c0.4,0,0.8,0.3,0.8,0.8l0,0
			C67.3,86.1,66.9,86.4,66.5,86.4z"/>
	</g>
</g>
</svg>
