<?xml version="1.0" encoding="utf-8"?>
<!-- Generator: Adobe Illustrator 25.2.1, SVG Export Plug-In . SVG Version: 6.00 Build 0)  -->
<svg version="1.1" id="Layer_1" xmlns="http://www.w3.org/2000/svg" xmlns:xlink="http://www.w3.org/1999/xlink" x="0px" y="0px"
	 viewBox="0 0 145 110" style="enable-background:new 0 0 145 110;" xml:space="preserve">
<style type="text/css">
	.st0{fill:#EFEFEF;}
	.st1{fill:#FFFFFF;}
	.st2{fill:#D8D8D8;}
	.st3{fill:#0066FF;}
	.st4{fill:#4C4E51;}
</style>
<g>
	<rect x="0" y="0" class="st0" width="145" height="110"/>
	<path class="st1" d="M10,94V16c0-3.3,2.7-6,6-6h113c3.3,0,6,2.7,6,6v78c0,3.3-2.7,6-6,6H16C12.7,100,10,97.3,10,94z"/>
	<g>
		<rect x="21.6" y="59.6" class="st2" width="101.8" height="7"/>
		<rect x="21.6" y="59.6" class="st3" width="40.9" height="7"/>
		<g>
			<g>
				<path class="st4" d="M103.2,47.6l0.4-4.1h4.3v1.2h-3.2l-0.2,1.9c0.4-0.2,0.8-0.3,1.3-0.3c0.8,0,1.4,0.2,1.8,0.7
					c0.4,0.5,0.6,1.1,0.6,2c0,0.8-0.2,1.5-0.7,2c-0.5,0.5-1.1,0.7-1.9,0.7c-0.7,0-1.3-0.2-1.8-0.6s-0.7-1-0.8-1.7h1.3
					c0.1,0.4,0.2,0.7,0.4,0.9c0.2,0.2,0.5,0.3,0.9,0.3c0.4,0,0.7-0.1,1-0.4c0.2-0.3,0.3-0.7,0.3-1.2c0-0.5-0.1-0.9-0.4-1.2
					c-0.3-0.3-0.6-0.4-1-0.4c-0.2,0-0.4,0-0.6,0.1c-0.2,0.1-0.4,0.2-0.6,0.4L103.2,47.6z"/>
				<path class="st4" d="M114.5,48.2c0,1.2-0.2,2-0.6,2.6c-0.4,0.6-1.1,0.9-2,0.9c-0.9,0-1.5-0.3-2-0.9c-0.4-0.6-0.7-1.4-0.7-2.5
					v-1.4c0-1.2,0.2-2,0.6-2.6c0.4-0.6,1.1-0.9,2-0.9c0.9,0,1.5,0.3,2,0.8c0.4,0.6,0.7,1.4,0.7,2.5V48.2z M113.2,46.7
					c0-0.8-0.1-1.3-0.3-1.7c-0.2-0.4-0.5-0.5-1-0.5c-0.4,0-0.8,0.2-1,0.5c-0.2,0.3-0.3,0.9-0.3,1.6v1.8c0,0.8,0.1,1.3,0.3,1.7
					c0.2,0.4,0.5,0.6,1,0.6c0.4,0,0.7-0.2,1-0.5c0.2-0.3,0.3-0.9,0.3-1.6V46.7z"/>
				<path class="st4" d="M115.6,45.1c0-0.5,0.2-0.9,0.5-1.2c0.3-0.3,0.7-0.5,1.2-0.5c0.5,0,0.9,0.2,1.2,0.5c0.3,0.3,0.5,0.7,0.5,1.2
					v0.4c0,0.5-0.2,0.9-0.5,1.2c-0.3,0.3-0.7,0.5-1.2,0.5c-0.5,0-0.9-0.2-1.2-0.5c-0.3-0.3-0.5-0.7-0.5-1.2V45.1z M116.6,45.5
					c0,0.3,0.1,0.5,0.2,0.6c0.1,0.2,0.3,0.2,0.6,0.2c0.2,0,0.4-0.1,0.6-0.2c0.1-0.2,0.2-0.4,0.2-0.6v-0.4c0-0.3-0.1-0.5-0.2-0.6
					c-0.1-0.2-0.3-0.2-0.6-0.2c-0.2,0-0.4,0.1-0.6,0.2c-0.1,0.2-0.2,0.4-0.2,0.6V45.5z M117.6,51l-0.7-0.4l3.9-6.3l0.7,0.4L117.6,51
					z M119.5,49.6c0-0.5,0.2-0.9,0.5-1.2c0.3-0.3,0.7-0.5,1.2-0.5c0.5,0,0.9,0.2,1.2,0.5c0.3,0.3,0.5,0.7,0.5,1.2V50
					c0,0.5-0.2,0.9-0.5,1.2c-0.3,0.3-0.7,0.5-1.2,0.5c-0.5,0-0.9-0.2-1.2-0.5c-0.3-0.3-0.5-0.7-0.5-1.2V49.6z M120.4,50
					c0,0.2,0.1,0.5,0.2,0.6c0.1,0.2,0.3,0.2,0.6,0.2c0.2,0,0.4-0.1,0.6-0.2c0.1-0.2,0.2-0.4,0.2-0.6v-0.4c0-0.3-0.1-0.5-0.2-0.6
					c-0.1-0.2-0.3-0.2-0.6-0.2c-0.2,0-0.4,0.1-0.6,0.2c-0.1,0.2-0.2,0.4-0.2,0.6V50z"/>
			</g>
		</g>
		<g>
			<g>
				<path class="st4" d="M22.4,51.6v-8h2.8c0.9,0,1.6,0.2,2.1,0.5c0.5,0.4,0.7,0.9,0.7,1.6c0,0.4-0.1,0.7-0.3,1
					c-0.2,0.3-0.5,0.5-0.9,0.7c0.4,0.1,0.8,0.3,1,0.7c0.2,0.3,0.4,0.7,0.4,1.2c0,0.8-0.2,1.3-0.7,1.7c-0.5,0.4-1.2,0.6-2.1,0.6H22.4
					z M23.8,46.9h1.4c0.4,0,0.8-0.1,1-0.3c0.2-0.2,0.4-0.5,0.4-0.8c0-0.4-0.1-0.7-0.3-0.9c-0.2-0.2-0.6-0.3-1.1-0.3h-1.4V46.9z
					 M23.8,48v2.5h1.6c0.4,0,0.8-0.1,1-0.3c0.2-0.2,0.4-0.5,0.4-0.9c0-0.8-0.4-1.3-1.3-1.3H23.8z"/>
				<path class="st4" d="M33,51.6c-0.1-0.1-0.1-0.3-0.2-0.6c-0.4,0.4-0.9,0.7-1.6,0.7c-0.6,0-1.1-0.2-1.5-0.5
					c-0.4-0.3-0.6-0.8-0.6-1.3c0-0.6,0.2-1.1,0.7-1.5c0.5-0.3,1.1-0.5,2-0.5h0.8v-0.4c0-0.3-0.1-0.6-0.3-0.7
					c-0.2-0.2-0.4-0.3-0.8-0.3c-0.3,0-0.6,0.1-0.8,0.2c-0.2,0.2-0.3,0.3-0.3,0.6h-1.3c0-0.3,0.1-0.6,0.3-0.9
					c0.2-0.3,0.5-0.5,0.9-0.7c0.4-0.2,0.8-0.2,1.3-0.2c0.7,0,1.3,0.2,1.7,0.5c0.4,0.4,0.6,0.8,0.6,1.5v2.7c0,0.5,0.1,1,0.2,1.3v0.1
					H33z M31.5,50.6c0.3,0,0.5-0.1,0.7-0.2c0.2-0.1,0.4-0.3,0.5-0.5v-1.1h-0.7c-0.5,0-0.9,0.1-1.1,0.3c-0.2,0.2-0.4,0.4-0.4,0.7
					c0,0.3,0.1,0.5,0.3,0.6C31,50.5,31.2,50.6,31.5,50.6z"/>
				<path class="st4" d="M38.7,46.8c-0.2,0-0.4,0-0.5,0c-0.6,0-1,0.2-1.2,0.7v4.1h-1.3v-6h1.3l0,0.7c0.3-0.5,0.8-0.8,1.3-0.8
					c0.2,0,0.3,0,0.5,0.1L38.7,46.8z"/>
			</g>
		</g>
	</g>
</g>
</svg>
