<?xml version="1.0" encoding="utf-8"?>
<!-- Generator: Adobe Illustrator 25.2.1, SVG Export Plug-In . SVG Version: 6.00 Build 0)  -->
<svg version="1.1" id="Layer_1" xmlns="http://www.w3.org/2000/svg" xmlns:xlink="http://www.w3.org/1999/xlink" x="0px" y="0px"
	 viewBox="0 0 145 110" style="enable-background:new 0 0 145 110;" xml:space="preserve">
<style type="text/css">
	.st0{fill:#EFEFEF;}
	.st1{fill:#FFFFFF;}
	.st2{opacity:0.4;fill:#919191;enable-background:new    ;}
	.st3{fill:#EEEEEE;}
	.st4{fill:#0066FF;}
	.st5{fill:#4C4E51;}
</style>
<g>
	<rect x="0" y="0" class="st0" width="145" height="110"/>
	<path class="st1" d="M10,94V16c0-3.3,2.7-6,6-6h113c3.3,0,6,2.7,6,6v78c0,3.3-2.7,6-6,6H16C12.7,100,10,97.3,10,94z"/>
	<g>
		<path class="st2" d="M42.2,85.8L42.2,85.8c0-1.3,1-2.3,2.3-2.3h56c1.3,0,2.3,1,2.3,2.3v0c0,1.3-1,2.3-2.3,2.3h-56
			C43.3,88.1,42.2,87.1,42.2,85.8z"/>
		<g>
			<g>
				<g>
					<g>
						<path class="st3" d="M72.5,74.9C57.9,74.9,46,63,46,48.4c0-14.6,11.9-26.5,26.5-26.5S99,33.8,99,48.4
							C99,63,87.1,74.9,72.5,74.9z M72.5,25.8c-12.4,0-22.6,10.1-22.6,22.6s10.1,22.6,22.6,22.6s22.6-10.1,22.6-22.6
							S84.9,25.8,72.5,25.8z"/>
					</g>
				</g>
				<g>
					<path class="st4" d="M72.5,21.9v3.9C84.9,25.8,95,36,95,48.4S84.9,70.9,72.5,70.9v3.9C87.1,74.9,99,63,99,48.4
						S87.1,21.9,72.5,21.9z"/>
				</g>
			</g>
			<g>
				<g>
					<path class="st5" d="M63.5,47.7l0.4-3.8h4V45h-3l-0.2,1.8c0.3-0.2,0.7-0.3,1.2-0.3c0.7,0,1.3,0.2,1.7,0.7
						c0.4,0.5,0.6,1.1,0.6,1.9c0,0.8-0.2,1.4-0.7,1.8c-0.4,0.5-1,0.7-1.8,0.7c-0.7,0-1.3-0.2-1.7-0.6c-0.5-0.4-0.7-0.9-0.7-1.5h1.2
						c0,0.4,0.2,0.6,0.4,0.8c0.2,0.2,0.5,0.3,0.8,0.3c0.4,0,0.7-0.1,0.9-0.4c0.2-0.3,0.3-0.7,0.3-1.1c0-0.5-0.1-0.8-0.4-1.1
						c-0.2-0.3-0.6-0.4-1-0.4c-0.2,0-0.4,0-0.6,0.1c-0.2,0.1-0.3,0.2-0.5,0.4L63.5,47.7z"/>
					<path class="st5" d="M74.1,48.3c0,1.1-0.2,1.9-0.6,2.4c-0.4,0.6-1,0.8-1.8,0.8c-0.8,0-1.4-0.3-1.8-0.8
						c-0.4-0.5-0.6-1.3-0.6-2.4v-1.3c0-1.1,0.2-1.9,0.6-2.4s1-0.8,1.9-0.8c0.8,0,1.4,0.3,1.8,0.8c0.4,0.5,0.6,1.3,0.6,2.4V48.3z
						 M72.8,46.9c0-0.7-0.1-1.2-0.3-1.6c-0.2-0.3-0.5-0.5-0.9-0.5c-0.4,0-0.7,0.2-0.9,0.5c-0.2,0.3-0.3,0.8-0.3,1.5v1.7
						c0,0.7,0.1,1.2,0.3,1.6c0.2,0.3,0.5,0.5,0.9,0.5c0.4,0,0.7-0.2,0.9-0.5c0.2-0.3,0.3-0.8,0.3-1.5V46.9z"/>
					<path class="st5" d="M75.1,45.4c0-0.5,0.1-0.8,0.4-1.1c0.3-0.3,0.7-0.4,1.2-0.4c0.5,0,0.9,0.1,1.2,0.4c0.3,0.3,0.4,0.7,0.4,1.1
						v0.4c0,0.5-0.1,0.8-0.4,1.1c-0.3,0.3-0.7,0.4-1.2,0.4c-0.5,0-0.8-0.1-1.2-0.4c-0.3-0.3-0.5-0.7-0.5-1.2V45.4z M76,45.8
						c0,0.2,0.1,0.4,0.2,0.6c0.1,0.1,0.3,0.2,0.5,0.2c0.2,0,0.4-0.1,0.5-0.2c0.1-0.1,0.2-0.3,0.2-0.6v-0.4c0-0.2-0.1-0.4-0.2-0.6
						c-0.1-0.1-0.3-0.2-0.5-0.2c-0.2,0-0.4,0.1-0.5,0.2C76.1,45,76,45.2,76,45.4V45.8z M77,50.9l-0.6-0.4l3.7-5.9l0.6,0.4L77,50.9z
						 M78.8,49.6c0-0.5,0.1-0.8,0.4-1.1c0.3-0.3,0.7-0.4,1.1-0.4c0.5,0,0.9,0.1,1.2,0.4s0.4,0.7,0.4,1.2V50c0,0.4-0.1,0.8-0.4,1.1
						c-0.3,0.3-0.7,0.4-1.2,0.4s-0.9-0.1-1.2-0.4c-0.3-0.3-0.4-0.7-0.4-1.1V49.6z M79.6,50c0,0.2,0.1,0.4,0.2,0.6
						c0.1,0.1,0.3,0.2,0.5,0.2c0.2,0,0.4-0.1,0.5-0.2c0.1-0.1,0.2-0.3,0.2-0.6v-0.4c0-0.2-0.1-0.4-0.2-0.6c-0.1-0.1-0.3-0.2-0.5-0.2
						c-0.2,0-0.4,0.1-0.5,0.2s-0.2,0.3-0.2,0.6V50z"/>
				</g>
			</g>
		</g>
	</g>
</g>
</svg>
