<?xml version="1.0" encoding="utf-8"?>
<!-- Generator: Adobe Illustrator 25.2.1, SVG Export Plug-In . SVG Version: 6.00 Build 0)  -->
<svg version="1.1" id="Layer_1" xmlns="http://www.w3.org/2000/svg" xmlns:xlink="http://www.w3.org/1999/xlink" x="0px" y="0px"
	 viewBox="0 0 145 110" style="enable-background:new 0 0 145 110;" xml:space="preserve">
<style type="text/css">
	.st0{fill:#EFEFEF;}
	.st1{fill:#FFFFFF;}
	.st2{opacity:0.4;fill:#919191;enable-background:new    ;}
	.st3{fill:#EEEEEE;}
	.st4{fill:#4C4E51;}
	.st5{fill:#0066FF;}
</style>
<g>
	<rect x="0" y="0" class="st0" width="145" height="110"/>
	<path class="st1" d="M10,94V16c0-3.3,2.7-6,6-6h113c3.3,0,6,2.7,6,6v78c0,3.3-2.7,6-6,6H16C12.7,100,10,97.3,10,94z"/>
	<path class="st2" d="M37.9,83.5L37.9,83.5c0-1.3,1-2.3,2.3-2.3h64.7c1.3,0,2.3,1,2.3,2.3l0,0c0,1.3-1,2.3-2.3,2.3H40.2
		C38.9,85.8,37.9,84.8,37.9,83.5z"/>
	<g>
		<g>
			<path class="st3" d="M28.5,68.2H35c0-20.7,16.8-37.5,37.5-37.5S110,47.5,110,68.2h6.5c0-24.3-19.7-44-44-44S28.5,43.9,28.5,68.2z
				"/>
		</g>
	</g>
	<g>
		<g>
			<path class="st4" d="M56.2,54.8l0.7-6.3h6.7v1.8h-5l-0.3,3c0.6-0.3,1.2-0.5,2-0.5c1.2,0,2.1,0.4,2.8,1.1c0.7,0.8,1,1.8,1,3.1
				c0,1.3-0.4,2.3-1.1,3c-0.7,0.8-1.7,1.1-3,1.1c-1.1,0-2.1-0.3-2.9-1c-0.8-0.7-1.2-1.5-1.2-2.6h2c0.1,0.6,0.3,1.1,0.7,1.4
				c0.4,0.3,0.8,0.5,1.4,0.5c0.6,0,1.1-0.2,1.5-0.7s0.5-1.1,0.5-1.9c0-0.8-0.2-1.4-0.6-1.8c-0.4-0.4-0.9-0.7-1.6-0.7
				c-0.4,0-0.7,0.1-1,0.2c-0.3,0.1-0.6,0.3-0.9,0.6L56.2,54.8z"/>
			<path class="st4" d="M73.8,55.7c0,1.8-0.3,3.2-1,4.1c-0.7,0.9-1.7,1.4-3.1,1.4c-1.4,0-2.4-0.4-3.1-1.3c-0.7-0.9-1-2.2-1.1-4v-2.2
				c0-1.8,0.3-3.1,1-4c0.7-0.9,1.7-1.3,3.1-1.3c1.4,0,2.4,0.4,3.1,1.3c0.7,0.9,1,2.2,1,3.9V55.7z M71.7,53.4c0-1.2-0.2-2-0.5-2.6
				c-0.3-0.5-0.8-0.8-1.5-0.8c-0.7,0-1.2,0.3-1.5,0.8c-0.3,0.5-0.5,1.3-0.5,2.4V56c0,1.2,0.2,2,0.5,2.6c0.3,0.6,0.8,0.9,1.5,0.9
				c0.7,0,1.2-0.3,1.5-0.8c0.3-0.5,0.5-1.4,0.5-2.5V53.4z"/>
			<path class="st4" d="M75.6,50.9c0-0.8,0.2-1.4,0.7-1.9c0.5-0.5,1.1-0.7,1.9-0.7c0.8,0,1.4,0.2,1.9,0.7c0.5,0.5,0.7,1.1,0.7,1.9
				v0.6c0,0.8-0.2,1.4-0.7,1.8c-0.5,0.5-1.1,0.7-1.9,0.7c-0.8,0-1.4-0.2-1.9-0.7c-0.5-0.5-0.8-1.1-0.8-1.9V50.9z M77.1,51.5
				c0,0.4,0.1,0.7,0.3,1c0.2,0.2,0.5,0.4,0.9,0.4c0.4,0,0.6-0.1,0.9-0.4c0.2-0.2,0.3-0.6,0.3-1v-0.6c0-0.4-0.1-0.7-0.3-1
				c-0.2-0.2-0.5-0.4-0.9-0.4c-0.4,0-0.6,0.1-0.9,0.4c-0.2,0.3-0.3,0.6-0.3,1V51.5z M78.7,60l-1.1-0.6l6.1-9.8l1.1,0.6L78.7,60z
				 M81.6,57.9c0-0.8,0.2-1.4,0.7-1.9c0.5-0.5,1.1-0.7,1.9-0.7c0.8,0,1.4,0.2,1.9,0.7s0.7,1.1,0.7,1.9v0.6c0,0.7-0.2,1.4-0.7,1.8
				c-0.5,0.5-1.1,0.7-1.9,0.7c-0.8,0-1.4-0.2-1.9-0.7c-0.5-0.5-0.7-1.1-0.7-1.9V57.9z M83.1,58.6c0,0.4,0.1,0.7,0.3,1
				c0.2,0.2,0.5,0.4,0.9,0.4c0.4,0,0.7-0.1,0.9-0.4c0.2-0.2,0.3-0.6,0.3-1v-0.6c0-0.4-0.1-0.7-0.3-1c-0.2-0.2-0.5-0.4-0.9-0.4
				c-0.4,0-0.6,0.1-0.9,0.4c-0.2,0.2-0.3,0.6-0.3,1V58.6z"/>
		</g>
	</g>
	<path class="st5" d="M28.5,68.2H35c0-20.7,16.8-37.5,37.5-37.5v-6.5C48.2,24.2,28.5,43.9,28.5,68.2z"/>
</g>
</svg>
