<?xml version="1.0" encoding="utf-8"?>
<!-- Generator: Adobe Illustrator 25.2.1, SVG Export Plug-In . SVG Version: 6.00 Build 0)  -->
<svg version="1.1" id="Layer_1" xmlns="http://www.w3.org/2000/svg" xmlns:xlink="http://www.w3.org/1999/xlink" x="0px" y="0px"
	 viewBox="0 0 145 110" style="enable-background:new 0 0 145 110;" xml:space="preserve">
<style type="text/css">
	.st0{fill:#EFEFEF;}
	.st1{fill:#FFFFFF;}
	.st2{fill:#B7BBC4;}
	.st3{fill:#0066FF;}
	.st4{fill:#C7CAD3;}
	.st5{fill:#D3D6E0;}
	.st6{fill:none;stroke:#DFE2EA;stroke-width:0.5;stroke-miterlimit:10;}
</style>
<rect class="st0" width="145" height="110"/>
<g>
	<rect x="14" y="14" class="st1" width="117" height="82"/>
	<g>
		<g>
			<g>
				<path class="st2" d="M100.8,26.9h-79c-1.1,0-1.9-0.9-1.9-1.9l0,0c0-1.1,0.9-1.9,1.9-1.9h79c1.1,0,1.9,0.9,1.9,1.9l0,0
					C102.7,26,101.8,26.9,100.8,26.9z"/>
			</g>
			<g>
				<path class="st3" d="M123.2,22.8c0,0.2-0.1,0.4-0.2,0.5c-1.5,1.5-2.9,2.9-4.4,4.4c-0.3,0.3-0.8,0.3-1.1,0
					c-1.5-1.5-2.9-2.9-4.4-4.4c-0.3-0.3-0.3-0.8,0-1c0.3-0.3,0.7-0.3,1.1,0c1.2,1.2,2.5,2.5,3.7,3.7c0.1,0.1,0.2,0.1,0.3,0
					c1.2-1.2,2.5-2.5,3.7-3.7c0.2-0.2,0.5-0.4,0.8-0.2C123,22.1,123.2,22.4,123.2,22.8z"/>
			</g>
		</g>
		<g>
			<g>
				<path class="st2" d="M100.6,68.2h-79c-1.1,0-1.9-0.9-1.9-1.9l0,0c0-1.1,0.9-1.9,1.9-1.9h79c1.1,0,1.9,0.9,1.9,1.9l0,0
					C102.6,67.3,101.7,68.2,100.6,68.2z"/>
			</g>
			<g>
				<g>
					<path class="st4" d="M123.1,64.1c0,0.2-0.1,0.3-0.2,0.5c-1.5,1.5-2.9,2.9-4.4,4.4c-0.3,0.3-0.8,0.3-1.1,0
						c-1.5-1.5-2.9-2.9-4.4-4.4c-0.3-0.3-0.3-0.8,0-1.1c0.3-0.3,0.7-0.3,1.1,0c1.2,1.2,2.5,2.5,3.7,3.7c0.1,0.1,0.2,0.1,0.3,0
						c1.2-1.2,2.5-2.5,3.7-3.7c0.2-0.2,0.5-0.3,0.8-0.2C122.8,63.4,123.1,63.7,123.1,64.1z"/>
				</g>
			</g>
		</g>
		<g>
			<g>
				<path class="st2" d="M100.6,85.5h-79c-1.1,0-1.9-0.9-1.9-1.9l0,0c0-1.1,0.9-1.9,1.9-1.9h79c1.1,0,1.9,0.9,1.9,1.9l0,0
					C102.6,84.6,101.7,85.5,100.6,85.5z"/>
			</g>
			<g>
				<g>
					<path class="st4" d="M123.1,81.4c0,0.2-0.1,0.3-0.2,0.5c-1.5,1.5-2.9,2.9-4.4,4.4c-0.3,0.3-0.8,0.3-1.1,0
						c-1.5-1.5-2.9-2.9-4.4-4.4c-0.3-0.3-0.3-0.8,0-1.1c0.3-0.3,0.7-0.3,1.1,0c1.2,1.2,2.5,2.5,3.7,3.7c0.1,0.1,0.2,0.1,0.3,0
						c1.2-1.2,2.5-2.5,3.7-3.7c0.2-0.2,0.5-0.3,0.8-0.2C122.8,80.7,123.1,81,123.1,81.4z"/>
				</g>
			</g>
		</g>
		<g>
			<path class="st5" d="M122.2,38.1H21.7c-0.6,0-1-0.5-1-1v-0.2c0-0.6,0.5-1,1-1h100.5c0.6,0,1,0.5,1,1V37
				C123.3,37.6,122.8,38.1,122.2,38.1z"/>
		</g>
		<g>
			<path class="st5" d="M97.9,47.7H21.7c-0.6,0-1-0.5-1-1v-0.2c0-0.6,0.5-1,1-1h76.2c0.6,0,1,0.5,1,1v0.2
				C98.9,47.2,98.5,47.7,97.9,47.7z"/>
		</g>
	</g>
	<line class="st6" x1="14" y1="55" x2="131" y2="55"/>
	<line class="st6" x1="14" y1="74.9" x2="131" y2="74.9"/>
</g>
</svg>
