<?xml version="1.0" encoding="utf-8"?>
<!-- Generator: Adobe Illustrator 25.2.1, SVG Export Plug-In . SVG Version: 6.00 Build 0)  -->
<svg version="1.1" id="Layer_1" xmlns="http://www.w3.org/2000/svg" xmlns:xlink="http://www.w3.org/1999/xlink" x="0px" y="0px"
	 viewBox="0 0 145 110" style="enable-background:new 0 0 145 110;" xml:space="preserve">
<style type="text/css">
	.st0{fill:#EFEFEF;}
	.st1{fill:#BBBDC4;}
	.st2{fill:url(#SVGID_1_);}
	.st3{fill:#FFFFFF;}
	.st4{opacity:0.6;}
	.st5{fill:#8D48E0;}
	.st6{fill:url(#SVGID_2_);}
	.st7{fill:#B4B7C1;}
	.st8{fill:url(#SVGID_3_);}
</style>
<g>
	<rect class="st0" width="145" height="110"/>
</g>
<g>
	<g>
		<g>
			<path class="st1" d="M121.7,39.5H19.2c-0.5,0-1-0.4-1-1v-0.2c0-0.5,0.4-1,1-1h102.5c0.5,0,1,0.4,1,1v0.2
				C122.6,39,122.2,39.5,121.7,39.5z"/>
		</g>
		<g>
			<path class="st1" d="M94.2,47.7h-75c-0.5,0-1-0.4-1-1v-0.2c0-0.5,0.4-1,1-1h75c0.5,0,1,0.4,1,1v0.2
				C95.2,47.2,94.7,47.7,94.2,47.7z"/>
		</g>
	</g>
	<g>
		<linearGradient id="SVGID_1_" gradientUnits="userSpaceOnUse" x1="12.9565" y1="24.0333" x2="132.0435" y2="24.0333">
			<stop  offset="0" style="stop-color:#1A47E8"/>
			<stop  offset="1" style="stop-color:#8F48E0"/>
		</linearGradient>
		<path class="st2" d="M125.9,30.1H19.1c-3.4,0-6.1-2.7-6.1-6.1l0,0c0-3.4,2.7-6.1,6.1-6.1h106.9c3.4,0,6.1,2.7,6.1,6.1l0,0
			C132,27.4,129.3,30.1,125.9,30.1z"/>
		<circle class="st3" cx="125.7" cy="24" r="4.4"/>
		<g class="st4">
			<path class="st3" d="M101.2,25.2H19.4c-0.7,0-1.2-0.5-1.2-1.2l0,0c0-0.7,0.5-1.2,1.2-1.2h81.8c0.7,0,1.2,0.5,1.2,1.2l0,0
				C102.4,24.7,101.8,25.2,101.2,25.2z"/>
		</g>
		<g>
			<path class="st5" d="M123.2,25.1c0-0.1,0-0.2,0.1-0.2c0.7-0.7,1.4-1.4,2.1-2.1c0.2-0.2,0.4-0.2,0.5,0c0.7,0.7,1.4,1.4,2.1,2.1
				c0.1,0.1,0.1,0.4,0,0.5c-0.1,0.1-0.4,0.1-0.5,0c-0.6-0.6-1.2-1.2-1.8-1.8c-0.1-0.1-0.1-0.1-0.1,0c-0.6,0.6-1.2,1.2-1.8,1.8
				c-0.1,0.1-0.2,0.2-0.4,0.1C123.3,25.4,123.2,25.3,123.2,25.1z"/>
		</g>
	</g>
	<g>
		<g>
			<linearGradient id="SVGID_2_" gradientUnits="userSpaceOnUse" x1="12.9565" y1="64.2155" x2="132.0435" y2="64.2155">
				<stop  offset="0" style="stop-color:#8F48E0"/>
				<stop  offset="1" style="stop-color:#1A47E8"/>
			</linearGradient>
			<path class="st6" d="M125.9,70.3H19.1c-3.4,0-6.1-2.7-6.1-6.1l0,0c0-3.4,2.7-6.1,6.1-6.1h106.9c3.4,0,6.1,2.7,6.1,6.1l0,0
				C132,67.6,129.3,70.3,125.9,70.3z"/>
		</g>
		<circle class="st3" cx="125.7" cy="64.2" r="4.4"/>
		<g class="st4">
			<path class="st3" d="M101.2,65.4H19.4c-0.7,0-1.2-0.5-1.2-1.2l0,0c0-0.7,0.5-1.2,1.2-1.2h81.8c0.7,0,1.2,0.5,1.2,1.2l0,0
				C102.4,64.9,101.8,65.4,101.2,65.4z"/>
		</g>
		<g>
			<g>
				<path class="st7" d="M124.7,61.9c0.1,0,0.2,0,0.2,0.1c0.7,0.7,1.3,1.3,2,2c0.2,0.2,0.2,0.3,0,0.5c-0.7,0.7-1.3,1.3-2,2
					c-0.1,0.1-0.3,0.1-0.5,0c-0.1-0.1-0.1-0.3,0-0.5c0.6-0.6,1.1-1.1,1.7-1.7c0.1-0.1,0.1-0.1,0-0.1c-0.6-0.6-1.1-1.1-1.7-1.7
					c-0.1-0.1-0.2-0.2-0.1-0.4C124.4,62,124.5,61.9,124.7,61.9z"/>
			</g>
		</g>
	</g>
	<g>
		<g>
			<linearGradient id="SVGID_3_" gradientUnits="userSpaceOnUse" x1="12.9565" y1="85.9667" x2="132.0435" y2="85.9667">
				<stop  offset="0" style="stop-color:#8F48E0"/>
				<stop  offset="1" style="stop-color:#1A47E8"/>
			</linearGradient>
			<path class="st8" d="M125.9,92.1H19.1c-3.4,0-6.1-2.7-6.1-6.1l0,0c0-3.4,2.7-6.1,6.1-6.1h106.9c3.4,0,6.1,2.7,6.1,6.1l0,0
				C132,89.3,129.3,92.1,125.9,92.1z"/>
		</g>
		<circle class="st3" cx="125.7" cy="86" r="4.4"/>
		<g class="st4">
			<path class="st3" d="M101.2,87.2H19.4c-0.7,0-1.2-0.5-1.2-1.2l0,0c0-0.7,0.5-1.2,1.2-1.2h81.8c0.7,0,1.2,0.5,1.2,1.2l0,0
				C102.4,86.6,101.8,87.2,101.2,87.2z"/>
		</g>
		<g>
			<g>
				<path class="st7" d="M124.5,83.2c0.1,0,0.2,0,0.3,0.1c0.8,0.8,1.6,1.6,2.3,2.3c0.2,0.2,0.2,0.4,0,0.6c-0.8,0.8-1.6,1.6-2.3,2.3
					c-0.2,0.2-0.4,0.2-0.6,0c-0.2-0.2-0.2-0.4,0-0.6c0.7-0.7,1.3-1.3,2-2c0.1-0.1,0.1-0.1,0-0.2c-0.7-0.7-1.3-1.3-2-2
					c-0.1-0.1-0.2-0.3-0.1-0.4C124.2,83.3,124.3,83.2,124.5,83.2z"/>
			</g>
		</g>
	</g>
</g>
</svg>
