<?xml version="1.0" encoding="utf-8"?>
<!-- Generator: Adobe Illustrator 25.2.1, SVG Export Plug-In . SVG Version: 6.00 Build 0)  -->
<svg version="1.1" id="Layer_1" xmlns="http://www.w3.org/2000/svg" xmlns:xlink="http://www.w3.org/1999/xlink" x="0px" y="0px"
	 viewBox="0 0 145 110" style="enable-background:new 0 0 145 110;" xml:space="preserve">
<style type="text/css">
	.st0{fill:#EFEFEF;}
	.st1{fill:url(#SVGID_1_);}
	.st2{opacity:0.6;}
	.st3{fill:#FFFFFF;}
	.st4{opacity:0.3;}
	.st5{fill:#313233;}
	.st6{fill:url(#SVGID_2_);}
	.st7{fill:none;stroke:#FFFFFF;stroke-width:0.5;stroke-miterlimit:10;}
	.st8{fill:url(#SVGID_3_);}
</style>
<g>
	<rect class="st0" width="145" height="110"/>
</g>
<g>
	<g>
		<g>
			<linearGradient id="SVGID_1_" gradientUnits="userSpaceOnUse" x1="11" y1="31.3478" x2="134" y2="31.3478">
				<stop  offset="0" style="stop-color:#1A47E8"/>
				<stop  offset="1" style="stop-color:#8F48E0"/>
			</linearGradient>
			<rect x="11" y="9.3" class="st1" width="123" height="44"/>
		</g>
		<g class="st2">
			<path class="st3" d="M100.1,23.6h-67c-1.1,0-1.9-0.9-1.9-1.9l0,0c0-1.1,0.9-1.9,1.9-1.9h67c1.1,0,1.9,0.9,1.9,1.9l0,0
				C102,22.8,101.2,23.6,100.1,23.6z"/>
		</g>
		<g class="st4">
			<path class="st3" d="M124.6,36.8H17c-0.6,0-1-0.5-1-1v-0.2c0-0.6,0.5-1,1-1h107.5c0.6,0,1,0.5,1,1v0.2
				C125.6,36.3,125.2,36.8,124.6,36.8z"/>
		</g>
		<g class="st4">
			<path class="st3" d="M95.7,46.4H17c-0.6,0-1-0.5-1-1v-0.2c0-0.6,0.5-1,1-1h78.7c0.6,0,1,0.5,1,1v0.2
				C96.8,45.9,96.3,46.4,95.7,46.4z"/>
		</g>
		<g>
			<circle class="st3" cx="121.4" cy="20.8" r="5.5"/>
		</g>
		<g>
			<path class="st3" d="M17.8,26.1c0.1-0.5,0.2-1.1,0.3-1.7c0.1-0.4,0.1-0.7,0.2-1.1c0-0.1,0-0.2-0.1-0.3c-0.7-0.6-1.3-1.3-2-1.9
				c-0.1-0.1-0.2-0.3-0.2-0.5c0.1-0.2,0.2-0.2,0.4-0.3c0.9-0.1,1.8-0.3,2.8-0.4c0.1,0,0.2-0.1,0.2-0.2c0.4-0.8,0.8-1.6,1.2-2.5
				c0.1-0.2,0.2-0.3,0.4-0.3s0.3,0.1,0.4,0.3c0.4,0.8,0.8,1.6,1.2,2.4c0.1,0.2,0.2,0.2,0.3,0.2c0.9,0.1,1.8,0.3,2.8,0.4
				c0.2,0,0.3,0.1,0.3,0.3c0,0.2,0,0.3-0.1,0.4c-0.7,0.7-1.3,1.3-2,1.9c-0.1,0.1-0.1,0.2-0.1,0.4c0.2,0.9,0.3,1.8,0.5,2.7
				c0,0.2,0,0.4-0.2,0.5c-0.1,0.1-0.3,0-0.4,0c-0.8-0.4-1.6-0.8-2.5-1.3c-0.1-0.1-0.2-0.1-0.4,0c-0.8,0.4-1.6,0.9-2.5,1.3
				C18.1,26.6,17.8,26.4,17.8,26.1z"/>
		</g>
		<g>
			<path class="st5" d="M123.3,20c0.3,0,0.4,0.3,0.2,0.5l-1.9,1.9c-0.1,0.1-0.3,0.1-0.4,0l-1.9-1.9c-0.2-0.2-0.1-0.5,0.2-0.5H123.3z
				"/>
		</g>
	</g>
	<g>
		<g>
			<linearGradient id="SVGID_2_" gradientUnits="userSpaceOnUse" x1="11" y1="66" x2="134" y2="66">
				<stop  offset="0" style="stop-color:#8F48E0"/>
				<stop  offset="1" style="stop-color:#1A47E8"/>
			</linearGradient>
			<rect x="11" y="55" class="st6" width="123" height="22"/>
		</g>
		<g>
			<g class="st2">
				<path class="st3" d="M100.1,67.9h-67c-1.1,0-1.9-0.9-1.9-1.9l0,0c0-1.1,0.9-1.9,1.9-1.9h67c1.1,0,1.9,0.9,1.9,1.9l0,0
					C102,67.1,101.2,67.9,100.1,67.9z"/>
			</g>
			<g>
				<path class="st3" d="M17.8,70.4c0.1-0.5,0.2-1.1,0.3-1.7c0.1-0.4,0.1-0.7,0.2-1.1c0-0.1,0-0.2-0.1-0.3c-0.7-0.6-1.3-1.3-2-1.9
					C16.1,65.2,16,65,16,64.8c0.1-0.2,0.2-0.2,0.4-0.3c0.9-0.1,1.8-0.3,2.8-0.4c0.1,0,0.2-0.1,0.2-0.2c0.4-0.8,0.8-1.6,1.2-2.5
					c0.1-0.2,0.2-0.3,0.4-0.3s0.3,0.1,0.4,0.3c0.4,0.8,0.8,1.6,1.2,2.4c0.1,0.2,0.2,0.2,0.3,0.2c0.9,0.1,1.8,0.3,2.8,0.4
					c0.2,0,0.3,0.1,0.3,0.3c0,0.2,0,0.3-0.1,0.4c-0.7,0.7-1.3,1.3-2,1.9c-0.1,0.1-0.1,0.2-0.1,0.4c0.2,0.9,0.3,1.8,0.5,2.7
					c0,0.2,0,0.4-0.2,0.5c-0.1,0.1-0.3,0-0.4,0c-0.8-0.4-1.6-0.8-2.5-1.3c-0.1-0.1-0.2-0.1-0.4,0c-0.8,0.4-1.6,0.9-2.5,1.3
					C18.1,70.9,17.8,70.7,17.8,70.4z"/>
			</g>
			<g>
				<g>
					<circle class="st7" cx="121.4" cy="66" r="5.5"/>
				</g>
				<g>
					<path class="st3" d="M123.3,65.3c0.3,0,0.4,0.3,0.2,0.5l-1.9,1.9c-0.1,0.1-0.3,0.1-0.4,0l-1.9-1.9c-0.2-0.2-0.1-0.5,0.2-0.5
						H123.3z"/>
				</g>
			</g>
		</g>
	</g>
	<g>
		<g>
			<linearGradient id="SVGID_3_" gradientUnits="userSpaceOnUse" x1="11" y1="89.6522" x2="134" y2="89.6522">
				<stop  offset="0" style="stop-color:#8F48E0"/>
				<stop  offset="1" style="stop-color:#1A47E8"/>
			</linearGradient>
			<rect x="11" y="78.7" class="st8" width="123" height="22"/>
		</g>
		<g>
			<g class="st2">
				<path class="st3" d="M100.1,91.6h-67c-1.1,0-1.9-0.9-1.9-1.9l0,0c0-1.1,0.9-1.9,1.9-1.9h67c1.1,0,1.9,0.9,1.9,1.9l0,0
					C102,90.7,101.2,91.6,100.1,91.6z"/>
			</g>
			<g>
				<path class="st3" d="M17.8,94c0.1-0.5,0.2-1.1,0.3-1.7c0.1-0.4,0.1-0.7,0.2-1.1c0-0.1,0-0.2-0.1-0.3c-0.7-0.6-1.3-1.3-2-1.9
					c-0.1-0.1-0.2-0.3-0.2-0.5c0.1-0.2,0.2-0.2,0.4-0.3c0.9-0.1,1.8-0.3,2.8-0.4c0.1,0,0.2-0.1,0.2-0.2c0.4-0.8,0.8-1.6,1.2-2.5
					c0.1-0.2,0.2-0.3,0.4-0.3s0.3,0.1,0.4,0.3c0.4,0.8,0.8,1.6,1.2,2.4c0.1,0.2,0.2,0.2,0.3,0.2c0.9,0.1,1.8,0.3,2.8,0.4
					c0.2,0,0.3,0.1,0.3,0.3c0,0.2,0,0.3-0.1,0.4c-0.7,0.7-1.3,1.3-2,1.9c-0.1,0.1-0.1,0.2-0.1,0.4c0.2,0.9,0.3,1.8,0.5,2.7
					c0,0.2,0,0.4-0.2,0.5c-0.1,0.1-0.3,0-0.4,0c-0.8-0.4-1.6-0.8-2.5-1.3c-0.1-0.1-0.2-0.1-0.4,0c-0.8,0.4-1.6,0.9-2.5,1.3
					C18.1,94.5,17.8,94.4,17.8,94z"/>
			</g>
			<g>
				<g>
					<circle class="st7" cx="121.4" cy="89.7" r="5.5"/>
				</g>
				<g>
					<path class="st3" d="M123.3,88.9c0.3,0,0.4,0.3,0.2,0.5l-1.9,1.9c-0.1,0.1-0.3,0.1-0.4,0l-1.9-1.9c-0.2-0.2-0.1-0.5,0.2-0.5
						H123.3z"/>
				</g>
			</g>
		</g>
	</g>
</g>
</svg>
