<?xml version="1.0" encoding="utf-8"?>
<!-- Generator: Adobe Illustrator 25.2.1, SVG Export Plug-In . SVG Version: 6.00 Build 0)  -->
<svg version="1.1" id="Layer_1" xmlns="http://www.w3.org/2000/svg" xmlns:xlink="http://www.w3.org/1999/xlink" x="0px" y="0px"
	 viewBox="0 0 24 24" style="enable-background:new 0 0 24 24;" xml:space="preserve">
<style type="text/css">
	.st0{fill:url(#SVGID_1_);}
</style>
<linearGradient id="SVGID_1_" gradientUnits="userSpaceOnUse" x1="0" y1="12" x2="24" y2="12">
	<stop  offset="0" style="stop-color:#00AFFA"/>
	<stop  offset="1" style="stop-color:#0954C0"/>
</linearGradient>
<path class="st0" d="M22.6,13.84H1.4c-0.77,0-1.4,0.64-1.4,1.43v5.31C0,21.36,0.63,22,1.4,22h21.2c0.77,0,1.4-0.64,1.4-1.43v-5.31
	C24,14.48,23.37,13.84,22.6,13.84z M23,15.27v5.31c0,0.22-0.2,0.41-0.46,0.41H1.4C1.18,20.98,1,20.8,1,20.57v-5.31
	c0-0.22,0.18-0.41,0.41-0.41h21.13C22.8,14.86,23,15.04,23,15.27z M15.45,18.18c0,0.28-0.22,0.51-0.5,0.51H3.25
	c-0.28,0-0.5-0.23-0.5-0.51s0.22-0.51,0.5-0.51h11.71C15.23,17.67,15.45,17.9,15.45,18.18z M20.97,17.43l-1.44,1.47
	c-0.09,0.1-0.18,0.14-0.28,0.14S19.06,19,18.97,18.9l-1.44-1.47c-0.06-0.06-0.13-0.15-0.13-0.29c0-0.13,0.07-0.24,0.18-0.3
	c0.05-0.03,0.11-0.04,0.16-0.04c0.07,0,0.13,0.02,0.19,0.06c0.04,0.03,0.07,0.06,0.09,0.08l1.24,1.26l0.97-1.02l0.25-0.26
	c0.08-0.09,0.17-0.13,0.27-0.13l0.1,0.02c0.11,0.03,0.19,0.11,0.23,0.22c0.04,0.11,0.02,0.22-0.04,0.32L20.97,17.43z M22.6,2H1.4
	C0.63,2,0,2.64,0,3.43v5.31c0,0.79,0.63,1.43,1.4,1.43h21.2c0.77,0,1.4-0.64,1.4-1.43V3.43C24,2.64,23.37,2,22.6,2z M23,3.43v5.31
	c0,0.22-0.2,0.41-0.46,0.41H1.4C1.18,9.15,1,8.96,1,8.74V3.43C1,3.21,1.18,3.02,1.4,3.02h21.13C22.8,3.02,23,3.21,23,3.43z
	 M15.45,6.34c0,0.28-0.22,0.51-0.5,0.51H3.25c-0.28,0-0.5-0.23-0.5-0.51c0-0.28,0.22-0.51,0.5-0.51h11.71
	C15.23,5.83,15.45,6.06,15.45,6.34z M20.97,5.6l-1.44,1.47c-0.09,0.1-0.18,0.14-0.28,0.14s-0.19-0.04-0.28-0.14l-1.44-1.47
	C17.47,5.53,17.4,5.44,17.4,5.3c0-0.13,0.07-0.24,0.18-0.3c0.05-0.03,0.11-0.04,0.16-0.04c0.07,0,0.13,0.02,0.19,0.06
	c0.04,0.03,0.07,0.06,0.09,0.08l1.24,1.26l0.97-1.02l0.25-0.26c0.08-0.09,0.17-0.13,0.27-0.13l0.1,0.02
	c0.11,0.03,0.19,0.11,0.23,0.22c0.04,0.11,0.02,0.22-0.04,0.32L20.97,5.6z"/>
</svg>
