<?xml version="1.0" encoding="utf-8"?>
<!-- Generator: Adobe Illustrator 25.2.1, SVG Export Plug-In . SVG Version: 6.00 Build 0)  -->
<svg version="1.1" id="Layer_1" xmlns="http://www.w3.org/2000/svg" xmlns:xlink="http://www.w3.org/1999/xlink" x="0px" y="0px"
	 viewBox="0 0 320 160" style="enable-background:new 0 0 320 160;" xml:space="preserve">
<style type="text/css">
	.st0{fill:none;}
	.st1{fill:#FFFFFF;}
	.st2{fill:#F9F9F9;}
	.st3{fill-rule:evenodd;clip-rule:evenodd;fill:#E0E0E0;}
	.st4{fill:#3A3A3A;}
	.st5{fill-rule:evenodd;clip-rule:evenodd;fill:#0066FF;}
	.st6{fill:#646464;}
	.st7{fill-rule:evenodd;clip-rule:evenodd;fill:#565656;}
</style>
<rect class="st0" width="320" height="160"/>
<rect class="st1" width="320" height="160"/>
<rect class="st2" width="320" height="160"/>
<g>
	<g>
		<path class="st1" d="M24.5,37.2c0-1.6,1.3-2.9,2.9-2.9h265.2c1.6,0,2.9,1.3,2.9,2.9v85.5c0,1.6-1.3,2.9-2.9,2.9H27.4
			c-1.6,0-2.9-1.3-2.9-2.9V37.2z"/>
	</g>
	<path class="st3" d="M295.5,81.6H24.9v-0.4h270.6V81.6z"/>
	<path class="st4" d="M39.9,70.9c0,0.4-0.2,0.8-0.5,1c-0.3,0.2-0.7,0.4-1.3,0.4s-1-0.1-1.4-0.3v-0.8c0.2,0.1,0.5,0.2,0.7,0.2
		c0.3,0.1,0.5,0.1,0.7,0.1c0.3,0,0.6-0.1,0.7-0.2c0.2-0.1,0.2-0.3,0.2-0.5c0-0.2-0.1-0.3-0.2-0.5c-0.1-0.1-0.4-0.3-0.9-0.5
		c-0.4-0.2-0.8-0.4-0.9-0.6c-0.2-0.2-0.3-0.5-0.3-0.8c0-0.4,0.1-0.7,0.4-1c0.3-0.2,0.7-0.4,1.2-0.4c0.5,0,0.9,0.1,1.4,0.3l-0.3,0.7
		c-0.4-0.2-0.8-0.3-1.2-0.3c-0.3,0-0.5,0.1-0.6,0.2c-0.1,0.1-0.2,0.3-0.2,0.4c0,0.1,0,0.2,0.1,0.3c0.1,0.1,0.1,0.2,0.3,0.3
		c0.1,0.1,0.3,0.2,0.7,0.3c0.4,0.1,0.6,0.3,0.8,0.4c0.2,0.1,0.3,0.3,0.4,0.4C39.8,70.5,39.9,70.7,39.9,70.9z"/>
	<path class="st4" d="M44,72.2h-0.8V70c0-0.3-0.1-0.5-0.2-0.6c-0.1-0.1-0.3-0.2-0.5-0.2c-0.3,0-0.6,0.1-0.7,0.3
		c-0.2,0.2-0.2,0.5-0.2,1v1.8h-0.8V67h0.8v1.3c0,0.2,0,0.4,0,0.7h0.1c0.1-0.2,0.3-0.3,0.4-0.4c0.2-0.1,0.4-0.1,0.7-0.1
		c0.9,0,1.3,0.5,1.3,1.4V72.2z"/>
	<path class="st4" d="M48.4,70.4c0,0.6-0.2,1.1-0.5,1.4c-0.3,0.3-0.7,0.5-1.3,0.5c-0.3,0-0.7-0.1-0.9-0.2c-0.3-0.2-0.5-0.4-0.6-0.7
		c-0.1-0.3-0.2-0.6-0.2-1c0-0.6,0.2-1.1,0.5-1.4c0.3-0.3,0.7-0.5,1.3-0.5c0.5,0,1,0.2,1.3,0.5C48.2,69.3,48.4,69.8,48.4,70.4z
		 M45.7,70.4c0,0.9,0.3,1.3,0.9,1.3c0.6,0,0.9-0.4,0.9-1.3c0-0.8-0.3-1.3-0.9-1.3c-0.3,0-0.6,0.1-0.7,0.3
		C45.8,69.6,45.7,70,45.7,70.4z"/>
	<path class="st4" d="M51.9,72.2l-0.1-0.5h0c-0.1,0.2-0.3,0.3-0.5,0.4c-0.2,0.1-0.4,0.1-0.7,0.1c-0.4,0-0.8-0.1-1-0.3
		c-0.2-0.2-0.3-0.6-0.3-1v-2.4H50v2.3c0,0.3,0.1,0.5,0.2,0.6c0.1,0.1,0.3,0.2,0.5,0.2c0.3,0,0.6-0.1,0.7-0.3c0.2-0.2,0.2-0.5,0.2-1
		v-1.8h0.8v3.7H51.9z"/>
	<path class="st4" d="M54.4,72.2h-0.8V67h0.8V72.2z"/>
	<path class="st4" d="M56.8,72.3c-0.5,0-0.8-0.2-1.1-0.5s-0.4-0.8-0.4-1.4c0-0.6,0.1-1.1,0.4-1.4c0.3-0.3,0.6-0.5,1.1-0.5
		c0.5,0,0.9,0.2,1.1,0.5h0c0-0.3-0.1-0.5-0.1-0.6V67h0.8v5.2h-0.6l-0.1-0.5h0C57.7,72.1,57.3,72.3,56.8,72.3z M57,71.7
		c0.3,0,0.6-0.1,0.7-0.3c0.1-0.2,0.2-0.5,0.2-0.9v-0.1c0-0.5-0.1-0.8-0.2-1c-0.2-0.2-0.4-0.3-0.7-0.3c-0.3,0-0.5,0.1-0.6,0.3
		c-0.1,0.2-0.2,0.5-0.2,1c0,0.4,0.1,0.7,0.2,0.9C56.5,71.6,56.7,71.7,57,71.7z"/>
	<path class="st4" d="M61.7,72.2v-4.9h0.8v4.9H61.7z"/>
	<path class="st4" d="M67.6,67.9c-0.5,0-0.8,0.2-1.1,0.5c-0.3,0.3-0.4,0.8-0.4,1.3c0,0.6,0.1,1.1,0.4,1.4c0.3,0.3,0.6,0.5,1.1,0.5
		c0.2,0,0.4,0,0.6-0.1c0.2,0,0.4-0.1,0.6-0.2v0.7c-0.4,0.1-0.8,0.2-1.3,0.2c-0.7,0-1.3-0.2-1.7-0.6c-0.4-0.4-0.6-1.1-0.6-1.9
		c0-0.5,0.1-1,0.3-1.3c0.2-0.4,0.5-0.7,0.8-0.9c0.4-0.2,0.8-0.3,1.2-0.3c0.5,0,1,0.1,1.4,0.3l-0.3,0.7c-0.2-0.1-0.3-0.1-0.5-0.2
		C68,68,67.8,67.9,67.6,67.9z"/>
	<path class="st4" d="M71.7,68.5c0.2,0,0.3,0,0.4,0L72,69.2c-0.1,0-0.2,0-0.3,0c-0.3,0-0.6,0.1-0.8,0.3c-0.2,0.2-0.3,0.5-0.3,0.8
		v1.9h-0.8v-3.7h0.6l0.1,0.7h0c0.1-0.2,0.3-0.4,0.5-0.5C71.3,68.5,71.5,68.5,71.7,68.5z"/>
	<path class="st4" d="M74.4,72.3c-0.6,0-1-0.2-1.4-0.5c-0.3-0.3-0.5-0.8-0.5-1.4c0-0.6,0.2-1.1,0.5-1.4c0.3-0.3,0.7-0.5,1.2-0.5
		c0.5,0,0.9,0.1,1.2,0.4c0.3,0.3,0.4,0.7,0.4,1.2v0.4h-2.5c0,0.4,0.1,0.6,0.3,0.8c0.2,0.2,0.4,0.3,0.8,0.3c0.2,0,0.4,0,0.6-0.1
		c0.2,0,0.4-0.1,0.6-0.2V72c-0.2,0.1-0.4,0.2-0.6,0.2C74.9,72.3,74.7,72.3,74.4,72.3z M74.3,69.1c-0.2,0-0.5,0.1-0.6,0.2
		c-0.1,0.2-0.2,0.4-0.3,0.7h1.7c0-0.3-0.1-0.5-0.2-0.7C74.7,69.1,74.5,69.1,74.3,69.1z"/>
	<path class="st4" d="M79.1,72.2l-0.2-0.5h0c-0.2,0.2-0.4,0.4-0.5,0.5c-0.2,0.1-0.4,0.1-0.7,0.1c-0.4,0-0.6-0.1-0.9-0.3
		c-0.2-0.2-0.3-0.5-0.3-0.8c0-0.4,0.1-0.7,0.4-0.9c0.3-0.2,0.7-0.3,1.3-0.3l0.6,0v-0.2c0-0.2-0.1-0.4-0.2-0.5
		c-0.1-0.1-0.3-0.2-0.5-0.2c-0.2,0-0.4,0-0.5,0.1c-0.2,0.1-0.3,0.1-0.5,0.2l-0.3-0.6c0.2-0.1,0.4-0.2,0.7-0.2
		c0.2-0.1,0.5-0.1,0.7-0.1c0.5,0,0.8,0.1,1.1,0.3c0.2,0.2,0.4,0.5,0.4,1v2.5H79.1z M77.9,71.7c0.3,0,0.5-0.1,0.7-0.2
		c0.2-0.2,0.3-0.4,0.3-0.7v-0.3l-0.5,0c-0.4,0-0.6,0.1-0.8,0.2c-0.2,0.1-0.3,0.3-0.3,0.5c0,0.2,0,0.3,0.1,0.4
		C77.5,71.6,77.7,71.7,77.9,71.7z"/>
	<path class="st4" d="M82.1,71.7c0.2,0,0.4,0,0.6-0.1v0.6c-0.1,0-0.2,0.1-0.3,0.1c-0.1,0-0.3,0-0.4,0c-0.7,0-1.1-0.4-1.1-1.2v-2
		h-0.5v-0.3l0.5-0.3l0.3-0.8h0.5v0.8h1.1v0.6h-1.1v2c0,0.2,0,0.3,0.1,0.4C81.8,71.6,81.9,71.7,82.1,71.7z"/>
	<path class="st4" d="M85,72.3c-0.6,0-1-0.2-1.4-0.5c-0.3-0.3-0.5-0.8-0.5-1.4c0-0.6,0.2-1.1,0.5-1.4c0.3-0.3,0.7-0.5,1.2-0.5
		c0.5,0,0.9,0.1,1.2,0.4c0.3,0.3,0.4,0.7,0.4,1.2v0.4H84c0,0.4,0.1,0.6,0.3,0.8c0.2,0.2,0.4,0.3,0.8,0.3c0.2,0,0.4,0,0.6-0.1
		c0.2,0,0.4-0.1,0.6-0.2V72c-0.2,0.1-0.4,0.2-0.6,0.2C85.5,72.3,85.3,72.3,85,72.3z M84.9,69.1c-0.2,0-0.5,0.1-0.6,0.2
		C84.1,69.5,84,69.7,84,70h1.7c0-0.3-0.1-0.5-0.2-0.7C85.3,69.1,85.1,69.1,84.9,69.1z"/>
	<path class="st4" d="M92.3,72.2l-0.5-1.4h-1.9l-0.5,1.4h-0.8l1.8-4.9h0.9l1.8,4.9H92.3z M91.6,70.2l-0.5-1.3c0-0.1-0.1-0.2-0.1-0.4
		c-0.1-0.2-0.1-0.3-0.1-0.4c-0.1,0.3-0.1,0.6-0.3,0.9l-0.4,1.3H91.6z"/>
	<path class="st4" d="M97.7,72.2l-1.4-4.1h0c0,0.6,0.1,1.2,0.1,1.7v2.4h-0.7v-4.9h1.1l1.4,3.9h0l1.4-3.9h1.1v4.9h-0.8v-2.4
		c0-0.2,0-0.6,0-1c0-0.4,0-0.6,0-0.7h0l-1.5,4.1H97.7z"/>
	<path class="st4" d="M105.1,70.4c0,0.6-0.2,1.1-0.5,1.4c-0.3,0.3-0.7,0.5-1.3,0.5c-0.3,0-0.7-0.1-0.9-0.2c-0.3-0.2-0.5-0.4-0.6-0.7
		c-0.1-0.3-0.2-0.6-0.2-1c0-0.6,0.2-1.1,0.5-1.4s0.7-0.5,1.3-0.5c0.5,0,1,0.2,1.3,0.5C104.9,69.3,105.1,69.8,105.1,70.4z
		 M102.4,70.4c0,0.9,0.3,1.3,0.9,1.3c0.6,0,0.9-0.4,0.9-1.3c0-0.8-0.3-1.3-0.9-1.3c-0.3,0-0.6,0.1-0.7,0.3
		C102.4,69.6,102.4,70,102.4,70.4z"/>
	<path class="st4" d="M107.9,68.5c0.5,0,0.8,0.2,1.1,0.5c0.3,0.3,0.4,0.8,0.4,1.4c0,0.6-0.1,1.1-0.4,1.4c-0.3,0.3-0.6,0.5-1.1,0.5
		c-0.5,0-0.8-0.2-1.1-0.5h-0.1l-0.1,0.4H106V67h0.8v1.2c0,0.1,0,0.2,0,0.4s0,0.3,0,0.3h0C107,68.6,107.4,68.5,107.9,68.5z
		 M107.7,69.1c-0.3,0-0.5,0.1-0.7,0.3c-0.1,0.2-0.2,0.5-0.2,0.9v0.1c0,0.5,0.1,0.8,0.2,1c0.1,0.2,0.4,0.3,0.7,0.3
		c0.3,0,0.5-0.1,0.6-0.3c0.1-0.2,0.2-0.5,0.2-1C108.5,69.5,108.2,69.1,107.7,69.1z"/>
	<path class="st4" d="M111,72.2h-0.8v-3.7h0.8V72.2z M110.2,67.5c0-0.1,0-0.2,0.1-0.3c0.1-0.1,0.2-0.1,0.3-0.1c0.1,0,0.2,0,0.3,0.1
		c0.1,0.1,0.1,0.2,0.1,0.3c0,0.1,0,0.2-0.1,0.3c-0.1,0.1-0.2,0.1-0.3,0.1c-0.1,0-0.3,0-0.3-0.1C110.2,67.8,110.2,67.7,110.2,67.5z"
		/>
	<path class="st4" d="M112.9,72.2h-0.8V67h0.8V72.2z"/>
	<path class="st4" d="M115.7,72.3c-0.6,0-1-0.2-1.4-0.5c-0.3-0.3-0.5-0.8-0.5-1.4c0-0.6,0.2-1.1,0.5-1.4c0.3-0.3,0.7-0.5,1.2-0.5
		c0.5,0,0.9,0.1,1.2,0.4c0.3,0.3,0.4,0.7,0.4,1.2v0.4h-2.5c0,0.4,0.1,0.6,0.3,0.8c0.2,0.2,0.4,0.3,0.8,0.3c0.2,0,0.4,0,0.6-0.1
		c0.2,0,0.4-0.1,0.6-0.2V72c-0.2,0.1-0.4,0.2-0.6,0.2C116.2,72.3,115.9,72.3,115.7,72.3z M115.5,69.1c-0.2,0-0.5,0.1-0.6,0.2
		c-0.1,0.2-0.2,0.4-0.3,0.7h1.7c0-0.3-0.1-0.5-0.2-0.7C116,69.1,115.8,69.1,115.5,69.1z"/>
	<path class="st4" d="M124.2,69.8c0,0.8-0.2,1.4-0.6,1.9c-0.4,0.4-1,0.7-1.7,0.7c-0.7,0-1.3-0.2-1.7-0.7c-0.4-0.4-0.6-1.1-0.6-1.9
		c0-0.8,0.2-1.4,0.6-1.9c0.4-0.4,1-0.6,1.7-0.6c0.7,0,1.3,0.2,1.7,0.7C124,68.4,124.2,69,124.2,69.8z M120.5,69.8
		c0,0.6,0.1,1.1,0.4,1.4c0.2,0.3,0.6,0.5,1.1,0.5c0.5,0,0.8-0.2,1.1-0.5c0.2-0.3,0.4-0.8,0.4-1.4c0-0.6-0.1-1.1-0.4-1.4
		c-0.2-0.3-0.6-0.5-1.1-0.5c-0.5,0-0.8,0.2-1.1,0.5C120.6,68.7,120.5,69.2,120.5,69.8z"/>
	<path class="st4" d="M127.1,68.5c0.2,0,0.3,0,0.4,0l-0.1,0.7c-0.1,0-0.2,0-0.3,0c-0.3,0-0.6,0.1-0.8,0.3c-0.2,0.2-0.3,0.5-0.3,0.8
		v1.9h-0.8v-3.7h0.6l0.1,0.7h0c0.1-0.2,0.3-0.4,0.5-0.5C126.6,68.5,126.9,68.5,127.1,68.5z"/>
	<path class="st4" d="M133.1,72.2l-0.5-1.4h-1.9l-0.5,1.4h-0.8l1.8-4.9h0.9l1.8,4.9H133.1z M132.4,70.2l-0.5-1.3
		c0-0.1-0.1-0.2-0.1-0.4c-0.1-0.2-0.1-0.3-0.1-0.4c-0.1,0.3-0.1,0.6-0.3,0.9l-0.4,1.3H132.4z"/>
	<path class="st4" d="M140.9,72.2H140l-0.8-2.9c0-0.1-0.1-0.3-0.1-0.5c-0.1-0.2-0.1-0.4-0.1-0.5c0,0.1-0.1,0.3-0.1,0.6
		c0,0.2-0.1,0.4-0.1,0.5l-0.8,2.9H137l-0.6-2.5l-0.6-2.4h0.8l0.7,2.9c0.1,0.5,0.2,0.9,0.2,1.2c0-0.2,0.1-0.4,0.1-0.6
		c0-0.2,0.1-0.4,0.1-0.6l0.8-2.9h0.8l0.8,2.9c0.1,0.3,0.2,0.7,0.2,1.2c0-0.3,0.1-0.7,0.2-1.2l0.7-2.8h0.8L140.9,72.2z"/>
	<path class="st4" d="M144.4,72.3c-0.6,0-1-0.2-1.4-0.5c-0.3-0.3-0.5-0.8-0.5-1.4c0-0.6,0.2-1.1,0.5-1.4c0.3-0.3,0.7-0.5,1.2-0.5
		c0.5,0,0.9,0.1,1.2,0.4c0.3,0.3,0.4,0.7,0.4,1.2v0.4h-2.5c0,0.4,0.1,0.6,0.3,0.8c0.2,0.2,0.4,0.3,0.8,0.3c0.2,0,0.4,0,0.6-0.1
		c0.2,0,0.4-0.1,0.6-0.2V72c-0.2,0.1-0.4,0.2-0.6,0.2C144.8,72.3,144.6,72.3,144.4,72.3z M144.2,69.1c-0.2,0-0.5,0.1-0.6,0.2
		c-0.1,0.2-0.2,0.4-0.3,0.7h1.7c0-0.3-0.1-0.5-0.2-0.7C144.7,69.1,144.5,69.1,144.2,69.1z"/>
	<path class="st4" d="M148.6,68.5c0.5,0,0.8,0.2,1.1,0.5c0.3,0.3,0.4,0.8,0.4,1.4c0,0.6-0.1,1.1-0.4,1.4c-0.3,0.3-0.6,0.5-1.1,0.5
		c-0.5,0-0.8-0.2-1.1-0.5h-0.1l-0.1,0.4h-0.6V67h0.8v1.2c0,0.1,0,0.2,0,0.4s0,0.3,0,0.3h0C147.7,68.6,148.1,68.5,148.6,68.5z
		 M148.4,69.1c-0.3,0-0.5,0.1-0.7,0.3c-0.1,0.2-0.2,0.5-0.2,0.9v0.1c0,0.5,0.1,0.8,0.2,1c0.1,0.2,0.4,0.3,0.7,0.3
		c0.3,0,0.5-0.1,0.6-0.3c0.1-0.2,0.2-0.5,0.2-1C149.2,69.5,149,69.1,148.4,69.1z"/>
	<path class="st4" d="M155.9,72.2l-0.5-1.4h-1.9l-0.5,1.4h-0.8l1.8-4.9h0.9l1.8,4.9H155.9z M155.2,70.2l-0.5-1.3
		c0-0.1-0.1-0.2-0.1-0.4c-0.1-0.2-0.1-0.3-0.1-0.4c-0.1,0.3-0.1,0.6-0.3,0.9l-0.4,1.3H155.2z"/>
	<path class="st4" d="M159.2,72.3c-0.5,0-0.8-0.2-1.1-0.5h0c0,0.3,0,0.5,0,0.6v1.5h-0.8v-5.3h0.6c0,0.1,0.1,0.2,0.1,0.5h0
		c0.2-0.4,0.6-0.6,1.1-0.6c0.5,0,0.8,0.2,1.1,0.5c0.3,0.3,0.4,0.8,0.4,1.4c0,0.6-0.1,1.1-0.4,1.4C160,72.1,159.6,72.3,159.2,72.3z
		 M159,69.1c-0.3,0-0.5,0.1-0.7,0.3c-0.1,0.2-0.2,0.5-0.2,0.9v0.1c0,0.5,0.1,0.8,0.2,1c0.1,0.2,0.4,0.3,0.7,0.3
		c0.3,0,0.5-0.1,0.6-0.3s0.2-0.5,0.2-1c0-0.4-0.1-0.7-0.2-0.9C159.5,69.2,159.3,69.1,159,69.1z"/>
	<path class="st4" d="M163.4,72.3c-0.5,0-0.8-0.2-1.1-0.5h0c0,0.3,0,0.5,0,0.6v1.5h-0.8v-5.3h0.6c0,0.1,0.1,0.2,0.1,0.5h0
		c0.2-0.4,0.6-0.6,1.1-0.6c0.5,0,0.8,0.2,1.1,0.5c0.3,0.3,0.4,0.8,0.4,1.4c0,0.6-0.1,1.1-0.4,1.4C164.3,72.1,163.9,72.3,163.4,72.3z
		 M163.2,69.1c-0.3,0-0.5,0.1-0.7,0.3c-0.1,0.2-0.2,0.5-0.2,0.9v0.1c0,0.5,0.1,0.8,0.2,1c0.1,0.2,0.4,0.3,0.7,0.3
		c0.3,0,0.5-0.1,0.6-0.3c0.1-0.2,0.2-0.5,0.2-1c0-0.4-0.1-0.7-0.2-0.9C163.7,69.2,163.5,69.1,163.2,69.1z"/>
	<path class="st4" d="M166.2,70.7v-0.2c0-0.2,0-0.4,0.1-0.6c0.1-0.2,0.2-0.3,0.5-0.5c0.3-0.2,0.4-0.4,0.5-0.5
		c0.1-0.1,0.1-0.3,0.1-0.4c0-0.2-0.1-0.3-0.2-0.4c-0.1-0.1-0.3-0.2-0.5-0.2c-0.2,0-0.4,0-0.6,0.1c-0.2,0.1-0.4,0.1-0.5,0.2l-0.3-0.6
		c0.5-0.3,0.9-0.4,1.5-0.4c0.4,0,0.8,0.1,1,0.3c0.3,0.2,0.4,0.5,0.4,0.9c0,0.2,0,0.3-0.1,0.4c0,0.1-0.1,0.3-0.2,0.4
		c-0.1,0.1-0.3,0.3-0.5,0.5c-0.2,0.2-0.3,0.3-0.4,0.4c-0.1,0.1-0.1,0.3-0.1,0.4v0.2H166.2z M166.1,71.8c0-0.3,0.2-0.5,0.5-0.5
		c0.2,0,0.3,0,0.4,0.1c0.1,0.1,0.1,0.2,0.1,0.4c0,0.2,0,0.3-0.1,0.4c-0.1,0.1-0.2,0.1-0.4,0.1c-0.2,0-0.3,0-0.4-0.1
		C166.1,72.1,166.1,72,166.1,71.8z"/>
	<path class="st5" d="M281.5,71.4c-0.1,0.1-0.4,0.1-0.5,0l-1.9-1.9l-1.9,1.9c-0.1,0.1-0.4,0.1-0.5,0c-0.1-0.1-0.1-0.4,0-0.5l2.2-2.2
		c0.1-0.1,0.4-0.1,0.5,0l2.2,2.2C281.6,71,281.6,71.3,281.5,71.4z"/>
	<path class="st6" d="M40.1,90.6h-1.3v3.7h-0.5v-3.7h-1.3v-0.4h3.2V90.6z"/>
	<path class="st6" d="M41.1,91.6c0.2-0.3,0.5-0.4,0.9-0.4c0.6,0,1,0.4,1,1.1v2h-0.5v-2c0-0.2-0.1-0.4-0.2-0.5
		c-0.1-0.1-0.3-0.2-0.5-0.2c-0.2,0-0.3,0-0.4,0.1c-0.1,0.1-0.2,0.2-0.3,0.4v2.2h-0.5v-4.3h0.5V91.6z"/>
	<path class="st6" d="M44.4,94.2h-0.5v-3.1h0.5V94.2z M43.8,90.4c0-0.1,0-0.2,0.1-0.2c0.1-0.1,0.1-0.1,0.2-0.1c0.1,0,0.2,0,0.2,0.1
		c0.1,0.1,0.1,0.1,0.1,0.2c0,0.1,0,0.2-0.1,0.2c-0.1,0.1-0.1,0.1-0.2,0.1c-0.1,0-0.2,0-0.2-0.1C43.8,90.5,43.8,90.5,43.8,90.4z"/>
	<path class="st6" d="M47,93.4c0-0.1-0.1-0.2-0.2-0.3c-0.1-0.1-0.3-0.1-0.6-0.2c-0.3-0.1-0.5-0.1-0.6-0.2c-0.2-0.1-0.3-0.2-0.3-0.3
		c-0.1-0.1-0.1-0.2-0.1-0.4c0-0.2,0.1-0.5,0.3-0.6c0.2-0.2,0.5-0.3,0.8-0.3c0.3,0,0.6,0.1,0.8,0.3c0.2,0.2,0.3,0.4,0.3,0.7h-0.5
		c0-0.1-0.1-0.3-0.2-0.4c-0.1-0.1-0.3-0.2-0.5-0.2c-0.2,0-0.3,0-0.4,0.1c-0.1,0.1-0.2,0.2-0.2,0.3c0,0.1,0,0.2,0.1,0.3
		c0.1,0.1,0.3,0.1,0.5,0.2c0.3,0.1,0.5,0.1,0.6,0.2c0.2,0.1,0.3,0.2,0.4,0.3c0.1,0.1,0.1,0.3,0.1,0.4c0,0.3-0.1,0.5-0.3,0.7
		c-0.2,0.2-0.5,0.2-0.8,0.2c-0.2,0-0.5,0-0.6-0.1c-0.2-0.1-0.3-0.2-0.4-0.4c-0.1-0.2-0.2-0.3-0.2-0.5h0.5c0,0.2,0.1,0.3,0.2,0.4
		c0.1,0.1,0.3,0.2,0.5,0.2c0.2,0,0.4,0,0.5-0.1C46.9,93.7,47,93.6,47,93.4z"/>
	<path class="st6" d="M50.3,94.2h-0.5v-4.1h0.5V94.2z"/>
	<path class="st6" d="M53,93.4c0-0.1-0.1-0.2-0.2-0.3c-0.1-0.1-0.3-0.1-0.6-0.2c-0.3-0.1-0.5-0.1-0.6-0.2c-0.2-0.1-0.3-0.2-0.3-0.3
		c-0.1-0.1-0.1-0.2-0.1-0.4c0-0.2,0.1-0.5,0.3-0.6c0.2-0.2,0.5-0.3,0.8-0.3c0.3,0,0.6,0.1,0.8,0.3c0.2,0.2,0.3,0.4,0.3,0.7h-0.5
		c0-0.1-0.1-0.3-0.2-0.4c-0.1-0.1-0.3-0.2-0.5-0.2c-0.2,0-0.3,0-0.4,0.1c-0.1,0.1-0.2,0.2-0.2,0.3c0,0.1,0,0.2,0.1,0.3
		c0.1,0.1,0.3,0.1,0.5,0.2c0.3,0.1,0.5,0.1,0.6,0.2c0.2,0.1,0.3,0.2,0.4,0.3c0.1,0.1,0.1,0.3,0.1,0.4c0,0.3-0.1,0.5-0.3,0.7
		c-0.2,0.2-0.5,0.2-0.8,0.2c-0.2,0-0.5,0-0.6-0.1c-0.2-0.1-0.3-0.2-0.4-0.4c-0.1-0.2-0.2-0.3-0.2-0.5h0.5c0,0.2,0.1,0.3,0.2,0.4
		c0.1,0.1,0.3,0.2,0.5,0.2c0.2,0,0.4,0,0.5-0.1C52.9,93.7,53,93.6,53,93.4z"/>
	<path class="st6" d="M58.4,90.6h-1.3v3.7h-0.5v-3.7h-1.3v-0.4h3.2V90.6z"/>
	<path class="st6" d="M59.4,91.6c0.2-0.3,0.5-0.4,0.9-0.4c0.6,0,1,0.4,1,1.1v2h-0.5v-2c0-0.2-0.1-0.4-0.2-0.5
		c-0.1-0.1-0.3-0.2-0.5-0.2c-0.2,0-0.3,0-0.4,0.1c-0.1,0.1-0.2,0.2-0.3,0.4v2.2h-0.5v-4.3h0.5V91.6z"/>
	<path class="st6" d="M63.4,94.3c-0.4,0-0.7-0.1-1-0.4c-0.3-0.3-0.4-0.6-0.4-1.1v-0.1c0-0.3,0.1-0.6,0.2-0.8
		c0.1-0.2,0.3-0.4,0.5-0.6c0.2-0.1,0.4-0.2,0.7-0.2c0.4,0,0.7,0.1,0.9,0.4c0.2,0.3,0.3,0.6,0.3,1.1v0.2h-2.1c0,0.3,0.1,0.5,0.3,0.7
		c0.2,0.2,0.4,0.3,0.6,0.3c0.2,0,0.3,0,0.5-0.1c0.1-0.1,0.2-0.2,0.3-0.3l0.3,0.2C64.3,94.1,63.9,94.3,63.4,94.3z M63.3,91.6
		c-0.2,0-0.4,0.1-0.5,0.2c-0.1,0.2-0.2,0.4-0.3,0.6H64v0c0-0.3-0.1-0.5-0.2-0.6C63.7,91.6,63.5,91.6,63.3,91.6z"/>
	<path class="st6" d="M68.9,92.4h-1.7v1.8h-0.5v-4.1h2.5v0.4h-2V92h1.7V92.4z"/>
	<path class="st6" d="M70.3,94.2h-0.5v-3.1h0.5V94.2z M69.8,90.4c0-0.1,0-0.2,0.1-0.2c0.1-0.1,0.1-0.1,0.2-0.1s0.2,0,0.2,0.1
		c0.1,0.1,0.1,0.1,0.1,0.2c0,0.1,0,0.2-0.1,0.2c-0.1,0.1-0.1,0.1-0.2,0.1s-0.2,0-0.2-0.1C69.8,90.5,69.8,90.5,69.8,90.4z"/>
	<path class="st6" d="M72.7,91.7c-0.1,0-0.2,0-0.3,0c-0.3,0-0.6,0.1-0.7,0.4v2.2h-0.5v-3.1h0.5l0,0.4c0.2-0.3,0.4-0.4,0.7-0.4
		c0.1,0,0.2,0,0.2,0V91.7z"/>
	<path class="st6" d="M74.9,93.4c0-0.1-0.1-0.2-0.2-0.3c-0.1-0.1-0.3-0.1-0.6-0.2c-0.3-0.1-0.5-0.1-0.6-0.2
		c-0.2-0.1-0.3-0.2-0.3-0.3c-0.1-0.1-0.1-0.2-0.1-0.4c0-0.2,0.1-0.5,0.3-0.6c0.2-0.2,0.5-0.3,0.8-0.3c0.3,0,0.6,0.1,0.8,0.3
		c0.2,0.2,0.3,0.4,0.3,0.7h-0.5c0-0.1-0.1-0.3-0.2-0.4c-0.1-0.1-0.3-0.2-0.5-0.2c-0.2,0-0.3,0-0.4,0.1c-0.1,0.1-0.2,0.2-0.2,0.3
		c0,0.1,0,0.2,0.1,0.3c0.1,0.1,0.3,0.1,0.5,0.2c0.3,0.1,0.5,0.1,0.6,0.2c0.2,0.1,0.3,0.2,0.4,0.3c0.1,0.1,0.1,0.3,0.1,0.4
		c0,0.3-0.1,0.5-0.3,0.7c-0.2,0.2-0.5,0.2-0.8,0.2c-0.2,0-0.5,0-0.6-0.1c-0.2-0.1-0.3-0.2-0.4-0.4c-0.1-0.2-0.2-0.3-0.2-0.5h0.5
		c0,0.2,0.1,0.3,0.2,0.4c0.1,0.1,0.3,0.2,0.5,0.2c0.2,0,0.4,0,0.5-0.1C74.9,93.7,74.9,93.6,74.9,93.4z"/>
	<path class="st6" d="M76.8,90.5v0.7h0.6v0.4h-0.6v1.9c0,0.1,0,0.2,0.1,0.3c0.1,0.1,0.1,0.1,0.3,0.1c0.1,0,0.1,0,0.2,0v0.4
		c-0.1,0-0.3,0.1-0.4,0.1c-0.2,0-0.4-0.1-0.5-0.2c-0.1-0.1-0.2-0.3-0.2-0.6v-1.9h-0.6v-0.4h0.6v-0.7H76.8z"/>
	<path class="st6" d="M80.1,94.2h-0.5v-4.1h0.5V94.2z"/>
	<path class="st6" d="M81.7,90.5v0.7h0.6v0.4h-0.6v1.9c0,0.1,0,0.2,0.1,0.3c0.1,0.1,0.1,0.1,0.3,0.1c0.1,0,0.1,0,0.2,0v0.4
		c-0.1,0-0.3,0.1-0.4,0.1c-0.2,0-0.4-0.1-0.5-0.2c-0.1-0.1-0.2-0.3-0.2-0.6v-1.9h-0.6v-0.4h0.6v-0.7H81.7z"/>
	<path class="st6" d="M84.2,94.3c-0.4,0-0.7-0.1-1-0.4c-0.3-0.3-0.4-0.6-0.4-1.1v-0.1c0-0.3,0.1-0.6,0.2-0.8
		c0.1-0.2,0.3-0.4,0.5-0.6c0.2-0.1,0.4-0.2,0.7-0.2c0.4,0,0.7,0.1,0.9,0.4c0.2,0.3,0.3,0.6,0.3,1.1v0.2h-2.1c0,0.3,0.1,0.5,0.3,0.7
		c0.2,0.2,0.4,0.3,0.6,0.3c0.2,0,0.3,0,0.5-0.1c0.1-0.1,0.2-0.2,0.3-0.3l0.3,0.2C85.1,94.1,84.7,94.3,84.2,94.3z M84.1,91.6
		c-0.2,0-0.4,0.1-0.5,0.2c-0.1,0.2-0.2,0.4-0.3,0.6h1.5v0c0-0.3-0.1-0.5-0.2-0.6C84.5,91.6,84.3,91.6,84.1,91.6z"/>
	<path class="st6" d="M86.5,91.2l0,0.3c0.2-0.3,0.5-0.4,0.9-0.4c0.4,0,0.7,0.2,0.9,0.5c0.1-0.1,0.2-0.3,0.4-0.4
		c0.2-0.1,0.4-0.1,0.6-0.1c0.7,0,1,0.4,1,1.1v2h-0.5v-2c0-0.2,0-0.4-0.1-0.5c-0.1-0.1-0.3-0.2-0.5-0.2c-0.2,0-0.4,0.1-0.5,0.2
		c-0.1,0.1-0.2,0.3-0.2,0.5v2h-0.5v-2c0-0.4-0.2-0.7-0.7-0.7c-0.3,0-0.6,0.1-0.7,0.4v2.2H86v-3.1H86.5z"/>
	<path class="st6" d="M91.1,90.2l-0.1,1h-0.4l0-1.4h0.4V90.2z"/>
	<path class="st6" d="M93.3,93.4c0-0.1-0.1-0.2-0.2-0.3C93,93,92.8,93,92.6,92.9c-0.3-0.1-0.5-0.1-0.6-0.2c-0.2-0.1-0.3-0.2-0.3-0.3
		c-0.1-0.1-0.1-0.2-0.1-0.4c0-0.2,0.1-0.5,0.3-0.6c0.2-0.2,0.5-0.3,0.8-0.3c0.3,0,0.6,0.1,0.8,0.3c0.2,0.2,0.3,0.4,0.3,0.7h-0.5
		c0-0.1-0.1-0.3-0.2-0.4c-0.1-0.1-0.3-0.2-0.5-0.2c-0.2,0-0.3,0-0.4,0.1C92.1,91.8,92,91.9,92,92c0,0.1,0,0.2,0.1,0.3
		c0.1,0.1,0.3,0.1,0.5,0.2c0.3,0.1,0.5,0.1,0.6,0.2c0.2,0.1,0.3,0.2,0.4,0.3c0.1,0.1,0.1,0.3,0.1,0.4c0,0.3-0.1,0.5-0.3,0.7
		c-0.2,0.2-0.5,0.2-0.8,0.2c-0.2,0-0.5,0-0.6-0.1c-0.2-0.1-0.3-0.2-0.4-0.4c-0.1-0.2-0.2-0.3-0.2-0.5h0.5c0,0.2,0.1,0.3,0.2,0.4
		c0.1,0.1,0.3,0.2,0.5,0.2c0.2,0,0.4,0,0.5-0.1C93.2,93.7,93.3,93.6,93.3,93.4z"/>
	<path class="st6" d="M98.3,93.2h-1.7l-0.4,1.1h-0.6l1.6-4.1h0.5l1.6,4.1h-0.6L98.3,93.2z M96.7,92.7h1.4l-0.7-1.9L96.7,92.7z"/>
	<path class="st6" d="M100.9,93.9c0.2,0,0.3-0.1,0.5-0.2s0.2-0.3,0.2-0.4h0.5c0,0.2-0.1,0.3-0.2,0.5c-0.1,0.2-0.3,0.3-0.4,0.4
		c-0.2,0.1-0.4,0.1-0.6,0.1c-0.4,0-0.7-0.1-1-0.4c-0.2-0.3-0.4-0.7-0.4-1.1v-0.1c0-0.3,0.1-0.6,0.2-0.8c0.1-0.2,0.3-0.4,0.5-0.5
		c0.2-0.1,0.4-0.2,0.7-0.2c0.3,0,0.6,0.1,0.9,0.3c0.2,0.2,0.3,0.5,0.4,0.8h-0.5c0-0.2-0.1-0.4-0.2-0.5c-0.1-0.1-0.3-0.2-0.5-0.2
		c-0.3,0-0.5,0.1-0.6,0.3c-0.1,0.2-0.2,0.5-0.2,0.8v0.1c0,0.4,0.1,0.6,0.2,0.8C100.4,93.8,100.6,93.9,100.9,93.9z"/>
	<path class="st6" d="M103.9,93.9c0.2,0,0.3-0.1,0.5-0.2s0.2-0.3,0.2-0.4h0.5c0,0.2-0.1,0.3-0.2,0.5c-0.1,0.2-0.3,0.3-0.4,0.4
		c-0.2,0.1-0.4,0.1-0.6,0.1c-0.4,0-0.7-0.1-1-0.4c-0.2-0.3-0.4-0.7-0.4-1.1v-0.1c0-0.3,0.1-0.6,0.2-0.8c0.1-0.2,0.3-0.4,0.5-0.5
		c0.2-0.1,0.4-0.2,0.7-0.2c0.3,0,0.6,0.1,0.9,0.3c0.2,0.2,0.3,0.5,0.4,0.8h-0.5c0-0.2-0.1-0.4-0.2-0.5c-0.1-0.1-0.3-0.2-0.5-0.2
		c-0.3,0-0.5,0.1-0.6,0.3c-0.1,0.2-0.2,0.5-0.2,0.8v0.1c0,0.4,0.1,0.6,0.2,0.8C103.5,93.8,103.7,93.9,103.9,93.9z"/>
	<path class="st6" d="M105.6,92.7c0-0.3,0.1-0.6,0.2-0.8c0.1-0.2,0.3-0.4,0.5-0.6c0.2-0.1,0.4-0.2,0.7-0.2c0.4,0,0.8,0.1,1,0.4
		c0.3,0.3,0.4,0.7,0.4,1.1v0c0,0.3-0.1,0.6-0.2,0.8c-0.1,0.2-0.3,0.4-0.5,0.5c-0.2,0.1-0.5,0.2-0.7,0.2c-0.4,0-0.7-0.1-1-0.4
		C105.7,93.6,105.6,93.2,105.6,92.7L105.6,92.7z M106.1,92.7c0,0.3,0.1,0.6,0.2,0.8c0.2,0.2,0.4,0.3,0.6,0.3c0.3,0,0.5-0.1,0.6-0.3
		c0.2-0.2,0.2-0.5,0.2-0.9c0-0.3-0.1-0.6-0.2-0.8c-0.2-0.2-0.4-0.3-0.6-0.3c-0.3,0-0.5,0.1-0.6,0.3
		C106.2,92.1,106.1,92.4,106.1,92.7z"/>
	<path class="st6" d="M110.5,91.7c-0.1,0-0.2,0-0.3,0c-0.3,0-0.6,0.1-0.7,0.4v2.2H109v-3.1h0.5l0,0.4c0.2-0.3,0.4-0.4,0.7-0.4
		c0.1,0,0.2,0,0.2,0V91.7z"/>
	<path class="st6" d="M110.8,92.7c0-0.5,0.1-0.8,0.3-1.1c0.2-0.3,0.5-0.4,0.9-0.4c0.4,0,0.6,0.1,0.8,0.4v-1.6h0.5v4.3h-0.5l0-0.3
		c-0.2,0.3-0.5,0.4-0.9,0.4c-0.4,0-0.6-0.1-0.9-0.4C110.9,93.6,110.8,93.2,110.8,92.7L110.8,92.7z M111.3,92.7
		c0,0.3,0.1,0.6,0.2,0.8c0.1,0.2,0.3,0.3,0.6,0.3c0.3,0,0.6-0.1,0.7-0.4V92c-0.2-0.3-0.4-0.4-0.7-0.4c-0.3,0-0.5,0.1-0.6,0.3
		C111.4,92.1,111.3,92.4,111.3,92.7z"/>
	<path class="st6" d="M114.8,94.2h-0.5v-3.1h0.5V94.2z M114.2,90.4c0-0.1,0-0.2,0.1-0.2c0.1-0.1,0.1-0.1,0.2-0.1
		c0.1,0,0.2,0,0.2,0.1c0.1,0.1,0.1,0.1,0.1,0.2c0,0.1,0,0.2-0.1,0.2c-0.1,0.1-0.1,0.1-0.2,0.1c-0.1,0-0.2,0-0.2-0.1
		C114.2,90.5,114.2,90.5,114.2,90.4z"/>
	<path class="st6" d="M115.5,92.7c0-0.3,0.1-0.6,0.2-0.8c0.1-0.2,0.3-0.4,0.5-0.6c0.2-0.1,0.4-0.2,0.7-0.2c0.4,0,0.8,0.1,1,0.4
		c0.3,0.3,0.4,0.7,0.4,1.1v0c0,0.3-0.1,0.6-0.2,0.8c-0.1,0.2-0.3,0.4-0.5,0.5c-0.2,0.1-0.5,0.2-0.7,0.2c-0.4,0-0.7-0.1-1-0.4
		C115.6,93.6,115.5,93.2,115.5,92.7L115.5,92.7z M116,92.7c0,0.3,0.1,0.6,0.2,0.8c0.2,0.2,0.4,0.3,0.6,0.3c0.3,0,0.5-0.1,0.6-0.3
		c0.2-0.2,0.2-0.5,0.2-0.9c0-0.3-0.1-0.6-0.2-0.8c-0.2-0.2-0.4-0.3-0.6-0.3c-0.3,0-0.5,0.1-0.6,0.3C116.1,92.1,116,92.4,116,92.7z"
		/>
	<path class="st6" d="M119.4,91.2l0,0.4c0.2-0.3,0.5-0.4,0.9-0.4c0.6,0,1,0.4,1,1.1v2h-0.5v-2c0-0.2-0.1-0.4-0.2-0.5
		c-0.1-0.1-0.3-0.2-0.5-0.2c-0.2,0-0.3,0-0.4,0.1c-0.1,0.1-0.2,0.2-0.3,0.4v2.2h-0.5v-3.1H119.4z"/>
	<path class="st6" d="M123.6,94.2v-4.1h1.3c0.4,0,0.8,0.1,1,0.3c0.2,0.2,0.3,0.5,0.3,0.8c0,0.2-0.1,0.4-0.2,0.5
		c-0.1,0.1-0.3,0.3-0.4,0.3c0.2,0.1,0.4,0.2,0.5,0.4c0.1,0.2,0.2,0.4,0.2,0.6c0,0.4-0.1,0.7-0.4,0.9c-0.2,0.2-0.6,0.3-1,0.3H123.6z
		 M124.1,92.3v1.5h0.9c0.3,0,0.5-0.1,0.6-0.2c0.1-0.1,0.2-0.3,0.2-0.5c0-0.5-0.3-0.7-0.8-0.7H124.1z M124.1,91.9h0.8
		c0.2,0,0.4-0.1,0.6-0.2c0.1-0.1,0.2-0.3,0.2-0.5c0-0.2-0.1-0.4-0.2-0.5c-0.1-0.1-0.3-0.2-0.6-0.2h-0.8V91.9z"/>
	<path class="st6" d="M127,92.7c0-0.3,0.1-0.6,0.2-0.8c0.1-0.2,0.3-0.4,0.5-0.6c0.2-0.1,0.5-0.2,0.7-0.2c0.4,0,0.8,0.1,1,0.4
		c0.3,0.3,0.4,0.7,0.4,1.1v0c0,0.3-0.1,0.6-0.2,0.8c-0.1,0.2-0.3,0.4-0.5,0.5c-0.2,0.1-0.5,0.2-0.7,0.2c-0.4,0-0.7-0.1-1-0.4
		C127.1,93.6,127,93.2,127,92.7L127,92.7z M127.5,92.7c0,0.3,0.1,0.6,0.2,0.8c0.2,0.2,0.4,0.3,0.6,0.3c0.3,0,0.5-0.1,0.6-0.3
		c0.2-0.2,0.2-0.5,0.2-0.9c0-0.3-0.1-0.6-0.2-0.8c-0.2-0.2-0.4-0.3-0.6-0.3c-0.3,0-0.5,0.1-0.6,0.3
		C127.6,92.1,127.5,92.4,127.5,92.7z"/>
	<path class="st6" d="M130.3,92.7c0-0.5,0.1-0.8,0.3-1.1c0.2-0.3,0.5-0.4,0.9-0.4c0.4,0,0.6,0.1,0.8,0.4v-1.6h0.5v4.3h-0.5l0-0.3
		c-0.2,0.3-0.5,0.4-0.9,0.4c-0.4,0-0.6-0.1-0.9-0.4C130.4,93.6,130.3,93.2,130.3,92.7L130.3,92.7z M130.8,92.7
		c0,0.3,0.1,0.6,0.2,0.8c0.1,0.2,0.3,0.3,0.6,0.3c0.3,0,0.6-0.1,0.7-0.4V92c-0.2-0.3-0.4-0.4-0.7-0.4c-0.3,0-0.5,0.1-0.6,0.3
		C130.9,92.1,130.8,92.4,130.8,92.7z"/>
	<path class="st6" d="M134.6,93.5l0.7-2.3h0.6l-1.2,3.5c-0.2,0.5-0.5,0.8-0.9,0.8l-0.1,0l-0.2,0V95l0.1,0c0.2,0,0.3,0,0.4-0.1
		c0.1-0.1,0.2-0.2,0.2-0.4l0.1-0.3l-1.1-3h0.6L134.6,93.5z"/>
	<path class="st6" d="M136.1,94c0-0.1,0-0.2,0.1-0.2c0.1-0.1,0.1-0.1,0.2-0.1c0.1,0,0.2,0,0.2,0.1c0.1,0.1,0.1,0.1,0.1,0.2
		c0,0.1,0,0.2-0.1,0.2c-0.1,0.1-0.1,0.1-0.2,0.1c-0.1,0-0.2,0-0.2-0.1C136.1,94.1,136.1,94.1,136.1,94z"/>
	<path class="st6" d="M139.7,94.2h-0.5v-4.1h0.5V94.2z"/>
	<path class="st6" d="M141.3,90.5v0.7h0.6v0.4h-0.6v1.9c0,0.1,0,0.2,0.1,0.3c0.1,0.1,0.1,0.1,0.3,0.1c0.1,0,0.1,0,0.2,0v0.4
		c-0.1,0-0.3,0.1-0.4,0.1c-0.2,0-0.4-0.1-0.5-0.2c-0.1-0.1-0.2-0.3-0.2-0.6v-1.9h-0.6v-0.4h0.6v-0.7H141.3z"/>
	<path class="st6" d="M144.6,94.2h-0.5v-4.1h0.5V94.2z"/>
	<path class="st6" d="M147.3,93.4c0-0.1-0.1-0.2-0.2-0.3c-0.1-0.1-0.3-0.1-0.6-0.2c-0.3-0.1-0.5-0.1-0.6-0.2
		c-0.2-0.1-0.3-0.2-0.3-0.3c-0.1-0.1-0.1-0.2-0.1-0.4c0-0.2,0.1-0.5,0.3-0.6c0.2-0.2,0.5-0.3,0.8-0.3c0.3,0,0.6,0.1,0.8,0.3
		c0.2,0.2,0.3,0.4,0.3,0.7h-0.5c0-0.1-0.1-0.3-0.2-0.4c-0.1-0.1-0.3-0.2-0.5-0.2c-0.2,0-0.3,0-0.4,0.1c-0.1,0.1-0.2,0.2-0.2,0.3
		c0,0.1,0,0.2,0.1,0.3c0.1,0.1,0.3,0.1,0.5,0.2c0.3,0.1,0.5,0.1,0.6,0.2c0.2,0.1,0.3,0.2,0.4,0.3c0.1,0.1,0.1,0.3,0.1,0.4
		c0,0.3-0.1,0.5-0.3,0.7c-0.2,0.2-0.5,0.2-0.8,0.2c-0.2,0-0.5,0-0.6-0.1c-0.2-0.1-0.3-0.2-0.4-0.4c-0.1-0.2-0.2-0.3-0.2-0.5h0.5
		c0,0.2,0.1,0.3,0.2,0.4c0.1,0.1,0.3,0.2,0.5,0.2c0.2,0,0.4,0,0.5-0.1C147.2,93.7,147.3,93.6,147.3,93.4z"/>
	<path class="st6" d="M151.2,92.4c-0.5-0.1-0.8-0.3-1-0.5c-0.2-0.2-0.3-0.4-0.3-0.7c0-0.3,0.1-0.6,0.4-0.8c0.3-0.2,0.6-0.3,1-0.3
		c0.3,0,0.5,0.1,0.8,0.2c0.2,0.1,0.4,0.3,0.5,0.5c0.1,0.2,0.2,0.4,0.2,0.6h-0.5c0-0.2-0.1-0.4-0.2-0.6c-0.2-0.1-0.4-0.2-0.7-0.2
		c-0.3,0-0.5,0.1-0.6,0.2c-0.1,0.1-0.2,0.3-0.2,0.5c0,0.2,0.1,0.3,0.2,0.4c0.1,0.1,0.4,0.2,0.7,0.3c0.3,0.1,0.6,0.2,0.8,0.3
		c0.2,0.1,0.3,0.2,0.4,0.4c0.1,0.2,0.1,0.3,0.1,0.5c0,0.3-0.1,0.6-0.4,0.8c-0.3,0.2-0.6,0.3-1,0.3c-0.3,0-0.5-0.1-0.8-0.2
		c-0.2-0.1-0.4-0.3-0.6-0.4c-0.1-0.2-0.2-0.4-0.2-0.6h0.5c0,0.2,0.1,0.4,0.3,0.6c0.2,0.1,0.4,0.2,0.7,0.2c0.3,0,0.5-0.1,0.7-0.2
		c0.2-0.1,0.2-0.3,0.2-0.5c0-0.2-0.1-0.4-0.2-0.5C151.8,92.6,151.6,92.5,151.2,92.4z"/>
	<path class="st6" d="M153.9,91.6c0.2-0.3,0.5-0.4,0.9-0.4c0.6,0,1,0.4,1,1.1v2h-0.5v-2c0-0.2-0.1-0.4-0.2-0.5
		c-0.1-0.1-0.2-0.2-0.5-0.2c-0.2,0-0.3,0-0.4,0.1c-0.1,0.1-0.2,0.2-0.3,0.4v2.2h-0.5v-4.3h0.5V91.6z"/>
	<path class="st6" d="M156.4,92.7c0-0.3,0.1-0.6,0.2-0.8c0.1-0.2,0.3-0.4,0.5-0.6c0.2-0.1,0.4-0.2,0.7-0.2c0.4,0,0.8,0.1,1,0.4
		c0.3,0.3,0.4,0.7,0.4,1.1v0c0,0.3-0.1,0.6-0.2,0.8c-0.1,0.2-0.3,0.4-0.5,0.5c-0.2,0.1-0.5,0.2-0.7,0.2c-0.4,0-0.7-0.1-1-0.4
		C156.5,93.6,156.4,93.2,156.4,92.7L156.4,92.7z M156.9,92.7c0,0.3,0.1,0.6,0.2,0.8c0.2,0.2,0.4,0.3,0.6,0.3c0.3,0,0.5-0.1,0.6-0.3
		c0.2-0.2,0.2-0.5,0.2-0.9c0-0.3-0.1-0.6-0.2-0.8c-0.2-0.2-0.4-0.3-0.6-0.3c-0.3,0-0.5,0.1-0.6,0.3C157,92.1,156.9,92.4,156.9,92.7z
		"/>
	<path class="st6" d="M162.5,93.5l0.6-2.3h0.5l-0.9,3.1h-0.4l-0.7-2.3l-0.7,2.3h-0.4l-0.9-3.1h0.5l0.6,2.3l0.7-2.3h0.4L162.5,93.5z"
		/>
	<path class="st6" d="M164.6,91.2l0,0.4c0.2-0.3,0.5-0.4,0.9-0.4c0.6,0,1,0.4,1,1.1v2H166v-2c0-0.2-0.1-0.4-0.2-0.5
		c-0.1-0.1-0.3-0.2-0.5-0.2c-0.2,0-0.3,0-0.4,0.1c-0.1,0.1-0.2,0.2-0.3,0.4v2.2h-0.5v-3.1H164.6z"/>
	<path class="st6" d="M168.9,94.2v-4.1h1.3c0.4,0,0.8,0.1,1,0.3c0.2,0.2,0.3,0.5,0.3,0.8c0,0.2-0.1,0.4-0.2,0.5
		c-0.1,0.1-0.3,0.3-0.4,0.3c0.2,0.1,0.4,0.2,0.5,0.4c0.1,0.2,0.2,0.4,0.2,0.6c0,0.4-0.1,0.7-0.4,0.9c-0.2,0.2-0.6,0.3-1,0.3H168.9z
		 M169.4,92.3v1.5h0.9c0.3,0,0.5-0.1,0.6-0.2c0.1-0.1,0.2-0.3,0.2-0.5c0-0.5-0.3-0.7-0.8-0.7H169.4z M169.4,91.9h0.8
		c0.2,0,0.4-0.1,0.6-0.2c0.1-0.1,0.2-0.3,0.2-0.5c0-0.2-0.1-0.4-0.2-0.5c-0.1-0.1-0.3-0.2-0.6-0.2h-0.8V91.9z"/>
	<path class="st6" d="M173.4,93.5l0.7-2.3h0.6l-1.2,3.5c-0.2,0.5-0.5,0.8-0.9,0.8l-0.1,0l-0.2,0V95l0.1,0c0.2,0,0.3,0,0.4-0.1
		c0.1-0.1,0.2-0.2,0.2-0.4l0.1-0.3l-1.1-3h0.6L173.4,93.5z"/>
	<path class="st6" d="M176.6,94.2v-4.1h1.2c0.4,0,0.7,0.1,0.9,0.2c0.3,0.2,0.5,0.4,0.6,0.7c0.2,0.3,0.2,0.6,0.2,1v0.3
		c0,0.4-0.1,0.7-0.2,1c-0.1,0.3-0.4,0.5-0.6,0.7c-0.3,0.2-0.6,0.2-1,0.2H176.6z M177.2,90.6v3.2h0.6c0.4,0,0.7-0.1,1-0.4
		c0.2-0.3,0.4-0.6,0.4-1.1v-0.2c0-0.5-0.1-0.8-0.3-1.1c-0.2-0.3-0.5-0.4-0.9-0.4H177.2z"/>
	<path class="st6" d="M181.6,94.3c-0.4,0-0.8-0.1-1-0.4c-0.3-0.3-0.4-0.6-0.4-1.1v-0.1c0-0.3,0.1-0.6,0.2-0.8
		c0.1-0.2,0.3-0.4,0.5-0.6c0.2-0.1,0.4-0.2,0.7-0.2c0.4,0,0.7,0.1,0.9,0.4c0.2,0.3,0.3,0.6,0.3,1.1v0.2h-2.1c0,0.3,0.1,0.5,0.3,0.7
		c0.2,0.2,0.4,0.3,0.6,0.3c0.2,0,0.3,0,0.5-0.1c0.1-0.1,0.2-0.2,0.3-0.3l0.3,0.2C182.5,94.1,182.1,94.3,181.6,94.3z M181.5,91.6
		c-0.2,0-0.4,0.1-0.5,0.2c-0.1,0.2-0.2,0.4-0.3,0.6h1.5v0c0-0.3-0.1-0.5-0.2-0.6C181.9,91.6,181.7,91.6,181.5,91.6z"/>
	<path class="st6" d="M183.6,94.2v-2.6h-0.5v-0.4h0.5v-0.3c0-0.3,0.1-0.6,0.3-0.8c0.2-0.2,0.4-0.3,0.7-0.3c0.1,0,0.2,0,0.4,0l0,0.4
		c-0.1,0-0.2,0-0.3,0c-0.2,0-0.3,0-0.4,0.1c-0.1,0.1-0.1,0.2-0.1,0.4v0.3h0.7v0.4h-0.7v2.6H183.6z"/>
	<path class="st6" d="M187.3,94.2c0-0.1-0.1-0.2-0.1-0.3c-0.2,0.3-0.5,0.4-0.9,0.4c-0.3,0-0.5-0.1-0.7-0.3c-0.2-0.2-0.3-0.4-0.3-0.6
		c0-0.3,0.1-0.6,0.4-0.7c0.2-0.2,0.6-0.3,1-0.3h0.5v-0.2c0-0.2-0.1-0.3-0.2-0.4c-0.1-0.1-0.3-0.2-0.5-0.2c-0.2,0-0.3,0-0.5,0.1
		c-0.1,0.1-0.2,0.2-0.2,0.3h-0.5c0-0.2,0.1-0.3,0.2-0.4c0.1-0.1,0.3-0.3,0.4-0.3c0.2-0.1,0.4-0.1,0.6-0.1c0.4,0,0.6,0.1,0.8,0.3
		c0.2,0.2,0.3,0.4,0.3,0.7v1.4c0,0.3,0,0.5,0.1,0.7v0H187.3z M186.4,93.8c0.2,0,0.3,0,0.5-0.1c0.1-0.1,0.3-0.2,0.3-0.3v-0.6h-0.4
		c-0.6,0-1,0.2-1,0.6c0,0.2,0.1,0.3,0.2,0.4C186.1,93.8,186.2,93.8,186.4,93.8z"/>
	<path class="st6" d="M190.4,93.9c-0.2,0.2-0.5,0.4-0.9,0.4c-0.3,0-0.6-0.1-0.7-0.3c-0.2-0.2-0.3-0.5-0.3-0.8v-2h0.5v2
		c0,0.5,0.2,0.7,0.6,0.7c0.4,0,0.7-0.1,0.8-0.4v-2.2h0.5v3.1h-0.5L190.4,93.9z"/>
	<path class="st6" d="M192.3,94.2h-0.5v-4.3h0.5V94.2z"/>
	<path class="st6" d="M193.8,90.5v0.7h0.6v0.4h-0.6v1.9c0,0.1,0,0.2,0.1,0.3c0.1,0.1,0.1,0.1,0.3,0.1c0.1,0,0.1,0,0.2,0v0.4
		c-0.1,0-0.3,0.1-0.4,0.1c-0.2,0-0.4-0.1-0.5-0.2c-0.1-0.1-0.2-0.3-0.2-0.6v-1.9h-0.6v-0.4h0.6v-0.7H193.8z"/>
	<path class="st6" d="M195,95.1l-0.3-0.2c0.2-0.2,0.3-0.5,0.3-0.8v-0.5h0.5V94c0,0.2,0,0.4-0.1,0.6C195.3,94.8,195.1,94.9,195,95.1z
		"/>
	<path class="st6" d="M200.6,90.1v2.8c0,0.4-0.1,0.7-0.4,1c-0.2,0.2-0.6,0.4-1,0.4l-0.1,0c-0.4,0-0.8-0.1-1.1-0.4
		c-0.3-0.2-0.4-0.6-0.4-1v-2.8h0.5v2.8c0,0.3,0.1,0.5,0.2,0.7c0.2,0.2,0.4,0.2,0.7,0.2c0.3,0,0.5-0.1,0.7-0.2
		c0.2-0.2,0.2-0.4,0.2-0.7v-2.8H200.6z"/>
	<path class="st6" d="M201.8,91.2l0,0.4c0.2-0.3,0.5-0.4,0.9-0.4c0.6,0,1,0.4,1,1.1v2h-0.5v-2c0-0.2-0.1-0.4-0.2-0.5
		c-0.1-0.1-0.3-0.2-0.5-0.2c-0.2,0-0.3,0-0.4,0.1c-0.1,0.1-0.2,0.2-0.3,0.4v2.2h-0.5v-3.1H201.8z"/>
	<path class="st6" d="M205.2,90.5v0.7h0.6v0.4h-0.6v1.9c0,0.1,0,0.2,0.1,0.3c0.1,0.1,0.1,0.1,0.3,0.1c0.1,0,0.1,0,0.2,0v0.4
		c-0.1,0-0.3,0.1-0.4,0.1c-0.2,0-0.4-0.1-0.5-0.2c-0.1-0.1-0.2-0.3-0.2-0.6v-1.9h-0.6v-0.4h0.6v-0.7H205.2z"/>
	<path class="st6" d="M207,94.2h-0.5v-3.1h0.5V94.2z M206.4,90.4c0-0.1,0-0.2,0.1-0.2c0.1-0.1,0.1-0.1,0.2-0.1c0.1,0,0.2,0,0.2,0.1
		c0.1,0.1,0.1,0.1,0.1,0.2c0,0.1,0,0.2-0.1,0.2c-0.1,0.1-0.1,0.1-0.2,0.1c-0.1,0-0.2,0-0.2-0.1C206.4,90.5,206.4,90.5,206.4,90.4z"
		/>
	<path class="st6" d="M208.4,94.2h-0.5v-4.3h0.5V94.2z"/>
	<path class="st6" d="M213.4,90.6h-1.3v3.7h-0.5v-3.7h-1.3v-0.4h3.2V90.6z"/>
	<path class="st6" d="M214.5,91.6c0.2-0.3,0.5-0.4,0.9-0.4c0.6,0,1,0.4,1,1.1v2h-0.5v-2c0-0.2-0.1-0.4-0.2-0.5
		c-0.1-0.1-0.3-0.2-0.5-0.2c-0.2,0-0.3,0-0.4,0.1c-0.1,0.1-0.2,0.2-0.3,0.4v2.2H214v-4.3h0.5V91.6z"/>
	<path class="st6" d="M218.4,94.3c-0.4,0-0.8-0.1-1-0.4c-0.3-0.3-0.4-0.6-0.4-1.1v-0.1c0-0.3,0.1-0.6,0.2-0.8
		c0.1-0.2,0.3-0.4,0.5-0.6c0.2-0.1,0.4-0.2,0.7-0.2c0.4,0,0.7,0.1,0.9,0.4c0.2,0.3,0.3,0.6,0.3,1.1v0.2h-2.1c0,0.3,0.1,0.5,0.3,0.7
		c0.2,0.2,0.4,0.3,0.6,0.3c0.2,0,0.3,0,0.5-0.1c0.1-0.1,0.2-0.2,0.3-0.3l0.3,0.2C219.3,94.1,218.9,94.3,218.4,94.3z M218.4,91.6
		c-0.2,0-0.4,0.1-0.5,0.2c-0.1,0.2-0.2,0.4-0.3,0.6h1.5v0c0-0.3-0.1-0.5-0.2-0.6C218.7,91.6,218.6,91.6,218.4,91.6z"/>
	<path class="st6" d="M224.7,92.9c-0.1,0.4-0.2,0.8-0.5,1c-0.3,0.2-0.6,0.4-1.1,0.4c-0.5,0-0.9-0.2-1.2-0.5
		c-0.3-0.3-0.4-0.8-0.4-1.4V92c0-0.4,0.1-0.7,0.2-1c0.1-0.3,0.3-0.5,0.6-0.7c0.2-0.2,0.5-0.2,0.9-0.2c0.4,0,0.8,0.1,1,0.4
		c0.3,0.2,0.4,0.6,0.5,1h-0.5c0-0.3-0.2-0.6-0.3-0.7c-0.2-0.1-0.4-0.2-0.7-0.2c-0.3,0-0.6,0.1-0.8,0.4c-0.2,0.3-0.3,0.6-0.3,1.1v0.4
		c0,0.4,0.1,0.8,0.3,1.1c0.2,0.3,0.4,0.4,0.8,0.4c0.3,0,0.5-0.1,0.7-0.2c0.2-0.1,0.3-0.4,0.3-0.7H224.7z"/>
	<path class="st6" d="M225.3,92.7c0-0.3,0.1-0.6,0.2-0.8c0.1-0.2,0.3-0.4,0.5-0.6c0.2-0.1,0.4-0.2,0.7-0.2c0.4,0,0.8,0.1,1,0.4
		c0.3,0.3,0.4,0.7,0.4,1.1v0c0,0.3-0.1,0.6-0.2,0.8c-0.1,0.2-0.3,0.4-0.5,0.5c-0.2,0.1-0.5,0.2-0.7,0.2c-0.4,0-0.7-0.1-1-0.4
		C225.4,93.6,225.3,93.2,225.3,92.7L225.3,92.7z M225.8,92.7c0,0.3,0.1,0.6,0.2,0.8c0.2,0.2,0.4,0.3,0.6,0.3c0.3,0,0.5-0.1,0.6-0.3
		c0.2-0.2,0.2-0.5,0.2-0.9c0-0.3-0.1-0.6-0.2-0.8c-0.2-0.2-0.4-0.3-0.6-0.3c-0.3,0-0.5,0.1-0.6,0.3
		C225.9,92.1,225.8,92.4,225.8,92.7z"/>
	<path class="st6" d="M229.3,94.2h-0.5v-4.3h0.5V94.2z"/>
	<path class="st6" d="M230.7,94.2h-0.5v-4.3h0.5V94.2z"/>
	<path class="st6" d="M233.4,94.2c0-0.1-0.1-0.2-0.1-0.3c-0.2,0.3-0.5,0.4-0.9,0.4c-0.3,0-0.5-0.1-0.7-0.3c-0.2-0.2-0.3-0.4-0.3-0.6
		c0-0.3,0.1-0.6,0.4-0.7c0.2-0.2,0.6-0.3,1-0.3h0.5v-0.2c0-0.2-0.1-0.3-0.2-0.4c-0.1-0.1-0.3-0.2-0.5-0.2c-0.2,0-0.3,0-0.5,0.1
		c-0.1,0.1-0.2,0.2-0.2,0.3h-0.5c0-0.2,0.1-0.3,0.2-0.4c0.1-0.1,0.3-0.3,0.4-0.3c0.2-0.1,0.4-0.1,0.6-0.1c0.4,0,0.6,0.1,0.8,0.3
		c0.2,0.2,0.3,0.4,0.3,0.7v1.4c0,0.3,0,0.5,0.1,0.7v0H233.4z M232.5,93.8c0.2,0,0.3,0,0.5-0.1c0.1-0.1,0.3-0.2,0.3-0.3v-0.6h-0.4
		c-0.6,0-1,0.2-1,0.6c0,0.2,0.1,0.3,0.2,0.4C232.2,93.8,232.4,93.8,232.5,93.8z"/>
	<path class="st6" d="M237.2,92.7c0,0.5-0.1,0.8-0.3,1.1c-0.2,0.3-0.5,0.4-0.9,0.4c-0.4,0-0.7-0.1-0.9-0.4v1.5h-0.5v-4.2h0.5l0,0.3
		c0.2-0.3,0.5-0.4,0.9-0.4c0.4,0,0.7,0.1,0.9,0.4C237.1,91.8,237.2,92.2,237.2,92.7L237.2,92.7z M236.7,92.7c0-0.3-0.1-0.6-0.2-0.8
		c-0.1-0.2-0.3-0.3-0.6-0.3c-0.3,0-0.6,0.1-0.7,0.4v1.5c0.2,0.3,0.4,0.4,0.7,0.4c0.2,0,0.4-0.1,0.6-0.3
		C236.6,93.4,236.7,93.1,236.7,92.7z"/>
	<path class="st6" d="M239.7,93.4c0-0.1-0.1-0.2-0.2-0.3c-0.1-0.1-0.3-0.1-0.6-0.2c-0.3-0.1-0.5-0.1-0.6-0.2
		c-0.2-0.1-0.3-0.2-0.3-0.3c-0.1-0.1-0.1-0.2-0.1-0.4c0-0.2,0.1-0.5,0.3-0.6c0.2-0.2,0.5-0.3,0.8-0.3c0.3,0,0.6,0.1,0.8,0.3
		c0.2,0.2,0.3,0.4,0.3,0.7h-0.5c0-0.1-0.1-0.3-0.2-0.4c-0.1-0.1-0.3-0.2-0.5-0.2c-0.2,0-0.3,0-0.4,0.1c-0.1,0.1-0.2,0.2-0.2,0.3
		c0,0.1,0,0.2,0.1,0.3c0.1,0.1,0.3,0.1,0.5,0.2c0.3,0.1,0.5,0.1,0.6,0.2c0.2,0.1,0.3,0.2,0.4,0.3c0.1,0.1,0.1,0.3,0.1,0.4
		c0,0.3-0.1,0.5-0.3,0.7c-0.2,0.2-0.5,0.2-0.8,0.2c-0.2,0-0.5,0-0.6-0.1c-0.2-0.1-0.3-0.2-0.4-0.4c-0.1-0.2-0.2-0.3-0.2-0.5h0.5
		c0,0.2,0.1,0.3,0.2,0.4c0.1,0.1,0.3,0.2,0.5,0.2c0.2,0,0.4,0,0.5-0.1C239.6,93.7,239.7,93.6,239.7,93.4z"/>
	<path class="st6" d="M242.1,94.3c-0.4,0-0.8-0.1-1-0.4c-0.3-0.3-0.4-0.6-0.4-1.1v-0.1c0-0.3,0.1-0.6,0.2-0.8
		c0.1-0.2,0.3-0.4,0.5-0.6c0.2-0.1,0.4-0.2,0.7-0.2c0.4,0,0.7,0.1,0.9,0.4c0.2,0.3,0.3,0.6,0.3,1.1v0.2h-2.1c0,0.3,0.1,0.5,0.3,0.7
		c0.2,0.2,0.4,0.3,0.6,0.3c0.2,0,0.3,0,0.5-0.1c0.1-0.1,0.2-0.2,0.3-0.3l0.3,0.2C243,94.1,242.6,94.3,242.1,94.3z M242.1,91.6
		c-0.2,0-0.4,0.1-0.5,0.2c-0.1,0.2-0.2,0.4-0.3,0.6h1.5v0c0-0.3-0.1-0.5-0.2-0.6C242.5,91.6,242.3,91.6,242.1,91.6z"/>
	<path class="st6" d="M246,92.6v1.6h-0.5v-4.1h1.5c0.4,0,0.8,0.1,1.1,0.3c0.3,0.2,0.4,0.5,0.4,0.9c0,0.4-0.1,0.7-0.4,0.9
		c-0.2,0.2-0.6,0.3-1.1,0.3H246z M246,92.2h1c0.3,0,0.5-0.1,0.7-0.2c0.2-0.1,0.2-0.3,0.2-0.6c0-0.2-0.1-0.4-0.2-0.6
		c-0.2-0.1-0.4-0.2-0.6-0.2h-1V92.2z"/>
	<path class="st6" d="M249.6,94.2H249v-4.3h0.5V94.2z"/>
	<path class="st6" d="M252.3,93.9c-0.2,0.2-0.5,0.4-0.9,0.4c-0.3,0-0.6-0.1-0.7-0.3c-0.2-0.2-0.3-0.5-0.3-0.8v-2h0.5v2
		c0,0.5,0.2,0.7,0.6,0.7c0.4,0,0.7-0.1,0.8-0.4v-2.2h0.5v3.1h-0.5L252.3,93.9z"/>
	<path class="st6" d="M253.5,92.7c0-0.5,0.1-0.9,0.3-1.1c0.2-0.3,0.5-0.4,0.9-0.4c0.4,0,0.7,0.1,0.9,0.4l0-0.3h0.5v3
		c0,0.4-0.1,0.7-0.4,0.9c-0.2,0.2-0.5,0.3-0.9,0.3c-0.2,0-0.4,0-0.6-0.1c-0.2-0.1-0.4-0.2-0.5-0.4l0.3-0.3c0.2,0.3,0.5,0.4,0.8,0.4
		c0.3,0,0.5-0.1,0.6-0.2c0.1-0.1,0.2-0.3,0.2-0.6v-0.3c-0.2,0.2-0.5,0.4-0.9,0.4c-0.4,0-0.6-0.1-0.9-0.4
		C253.6,93.6,253.5,93.2,253.5,92.7z M254,92.7c0,0.3,0.1,0.6,0.2,0.8c0.1,0.2,0.3,0.3,0.6,0.3c0.3,0,0.6-0.1,0.7-0.4V92
		c-0.2-0.3-0.4-0.4-0.7-0.4c-0.3,0-0.5,0.1-0.6,0.3C254.1,92.1,254,92.4,254,92.7z"/>
	<path class="st6" d="M257.4,94.2h-0.5v-3.1h0.5V94.2z M256.8,90.4c0-0.1,0-0.2,0.1-0.2c0.1-0.1,0.1-0.1,0.2-0.1
		c0.1,0,0.2,0,0.2,0.1c0.1,0.1,0.1,0.1,0.1,0.2c0,0.1,0,0.2-0.1,0.2c-0.1,0.1-0.1,0.1-0.2,0.1c-0.1,0-0.2,0-0.2-0.1
		C256.9,90.5,256.8,90.5,256.8,90.4z"/>
	<path class="st6" d="M258.7,91.2l0,0.4c0.2-0.3,0.5-0.4,0.9-0.4c0.6,0,1,0.4,1,1.1v2h-0.5v-2c0-0.2-0.1-0.4-0.2-0.5
		c-0.1-0.1-0.3-0.2-0.5-0.2c-0.2,0-0.3,0-0.4,0.1c-0.1,0.1-0.2,0.2-0.3,0.4v2.2h-0.5v-3.1H258.7z"/>
	<path class="st6" d="M265.2,93.2h-1.7l-0.4,1.1h-0.6l1.6-4.1h0.5l1.6,4.1h-0.6L265.2,93.2z M263.6,92.7h1.4l-0.7-1.9L263.6,92.7z"
		/>
	<path class="st6" d="M266.5,92.7c0-0.5,0.1-0.8,0.3-1.1c0.2-0.3,0.5-0.4,0.9-0.4c0.4,0,0.6,0.1,0.8,0.4v-1.6h0.5v4.3h-0.5l0-0.3
		c-0.2,0.3-0.5,0.4-0.9,0.4c-0.4,0-0.6-0.1-0.9-0.4C266.6,93.6,266.5,93.2,266.5,92.7L266.5,92.7z M267,92.7c0,0.3,0.1,0.6,0.2,0.8
		c0.1,0.2,0.3,0.3,0.6,0.3c0.3,0,0.6-0.1,0.7-0.4V92c-0.2-0.3-0.4-0.4-0.7-0.4c-0.3,0-0.5,0.1-0.6,0.3C267.1,92.1,267,92.4,267,92.7
		z"/>
	<path class="st6" d="M269.8,92.7c0-0.5,0.1-0.8,0.3-1.1c0.2-0.3,0.5-0.4,0.9-0.4c0.4,0,0.6,0.1,0.8,0.4v-1.6h0.5v4.3h-0.5l0-0.3
		c-0.2,0.3-0.5,0.4-0.9,0.4c-0.4,0-0.6-0.1-0.9-0.4C269.9,93.6,269.8,93.2,269.8,92.7L269.8,92.7z M270.3,92.7
		c0,0.3,0.1,0.6,0.2,0.8c0.1,0.2,0.3,0.3,0.6,0.3c0.3,0,0.6-0.1,0.7-0.4V92c-0.2-0.3-0.4-0.4-0.7-0.4c-0.3,0-0.5,0.1-0.6,0.3
		C270.3,92.1,270.3,92.4,270.3,92.7z"/>
	<path class="st6" d="M274.9,93.4c0-0.1-0.1-0.2-0.2-0.3c-0.1-0.1-0.3-0.1-0.6-0.2c-0.3-0.1-0.5-0.1-0.6-0.2
		c-0.2-0.1-0.3-0.2-0.3-0.3c-0.1-0.1-0.1-0.2-0.1-0.4c0-0.2,0.1-0.5,0.3-0.6c0.2-0.2,0.5-0.3,0.8-0.3c0.3,0,0.6,0.1,0.8,0.3
		c0.2,0.2,0.3,0.4,0.3,0.7h-0.5c0-0.1-0.1-0.3-0.2-0.4c-0.1-0.1-0.3-0.2-0.5-0.2c-0.2,0-0.3,0-0.4,0.1c-0.1,0.1-0.2,0.2-0.2,0.3
		c0,0.1,0.1,0.2,0.1,0.3c0.1,0.1,0.3,0.1,0.5,0.2c0.3,0.1,0.5,0.1,0.6,0.2c0.2,0.1,0.3,0.2,0.4,0.3c0.1,0.1,0.1,0.3,0.1,0.4
		c0,0.3-0.1,0.5-0.3,0.7c-0.2,0.2-0.5,0.2-0.8,0.2c-0.2,0-0.5,0-0.6-0.1c-0.2-0.1-0.3-0.2-0.4-0.4c-0.1-0.2-0.2-0.3-0.2-0.5h0.5
		c0,0.2,0.1,0.3,0.2,0.4c0.1,0.1,0.3,0.2,0.5,0.2c0.2,0,0.4,0,0.5-0.1C274.9,93.7,274.9,93.6,274.9,93.4z"/>
	<path class="st6" d="M40.1,100h-1.3v3.7h-0.5V100h-1.3v-0.4h3.2V100z"/>
	<path class="st6" d="M41.1,100.9c0.2-0.3,0.5-0.4,0.9-0.4c0.6,0,1,0.4,1,1.1v2h-0.5v-2c0-0.2-0.1-0.4-0.2-0.5
		c-0.1-0.1-0.3-0.2-0.5-0.2c-0.2,0-0.3,0-0.4,0.1c-0.1,0.1-0.2,0.2-0.3,0.4v2.2h-0.5v-4.3h0.5V100.9z"/>
	<path class="st6" d="M45.1,103.7c-0.4,0-0.7-0.1-1-0.4c-0.3-0.3-0.4-0.6-0.4-1.1v-0.1c0-0.3,0.1-0.6,0.2-0.8
		c0.1-0.2,0.3-0.4,0.5-0.6c0.2-0.1,0.4-0.2,0.7-0.2c0.4,0,0.7,0.1,0.9,0.4c0.2,0.3,0.3,0.6,0.3,1.1v0.2h-2.1c0,0.3,0.1,0.5,0.3,0.7
		c0.2,0.2,0.4,0.3,0.6,0.3c0.2,0,0.3,0,0.5-0.1c0.1-0.1,0.2-0.2,0.3-0.3l0.3,0.2C45.9,103.5,45.6,103.7,45.1,103.7z M45,100.9
		c-0.2,0-0.4,0.1-0.5,0.2c-0.1,0.2-0.2,0.4-0.3,0.6h1.5v0c0-0.3-0.1-0.5-0.2-0.6C45.4,101,45.2,100.9,45,100.9z"/>
	<path class="st6" d="M50.6,102.6h-1.7l-0.4,1.1H48l1.6-4.1H50l1.6,4.1H51L50.6,102.6z M49.1,102.1h1.4l-0.7-1.9L49.1,102.1z"/>
	<path class="st6" d="M54.6,102.1c0,0.5-0.1,0.8-0.3,1.1c-0.2,0.3-0.5,0.4-0.9,0.4c-0.4,0-0.7-0.1-0.9-0.4v1.5H52v-4.2h0.5l0,0.3
		c0.2-0.3,0.5-0.4,0.9-0.4c0.4,0,0.7,0.1,0.9,0.4C54.5,101.2,54.6,101.6,54.6,102.1L54.6,102.1z M54.1,102.1c0-0.3-0.1-0.6-0.2-0.8
		c-0.1-0.2-0.3-0.3-0.6-0.3c-0.3,0-0.6,0.1-0.7,0.4v1.5c0.2,0.3,0.4,0.4,0.7,0.4c0.2,0,0.4-0.1,0.6-0.3
		C54,102.8,54.1,102.5,54.1,102.1z"/>
	<path class="st6" d="M57.9,102.1c0,0.5-0.1,0.8-0.3,1.1s-0.5,0.4-0.9,0.4c-0.4,0-0.7-0.1-0.9-0.4v1.5h-0.5v-4.2h0.5l0,0.3
		c0.2-0.3,0.5-0.4,0.9-0.4c0.4,0,0.7,0.1,0.9,0.4C57.8,101.2,57.9,101.6,57.9,102.1L57.9,102.1z M57.3,102.1c0-0.3-0.1-0.6-0.2-0.8
		c-0.1-0.2-0.3-0.3-0.6-0.3c-0.3,0-0.6,0.1-0.7,0.4v1.5c0.2,0.3,0.4,0.4,0.7,0.4c0.2,0,0.4-0.1,0.6-0.3
		C57.3,102.8,57.3,102.5,57.3,102.1z"/>
	<path class="st6" d="M60,101c-0.1,0-0.2,0-0.3,0c-0.3,0-0.6,0.1-0.7,0.4v2.2h-0.5v-3.1H59l0,0.4c0.2-0.3,0.4-0.4,0.7-0.4
		c0.1,0,0.2,0,0.2,0V101z"/>
	<path class="st6" d="M60.3,102.1c0-0.3,0.1-0.6,0.2-0.8c0.1-0.2,0.3-0.4,0.5-0.6c0.2-0.1,0.5-0.2,0.7-0.2c0.4,0,0.8,0.1,1,0.4
		c0.3,0.3,0.4,0.7,0.4,1.1v0c0,0.3-0.1,0.6-0.2,0.8c-0.1,0.2-0.3,0.4-0.5,0.5c-0.2,0.1-0.5,0.2-0.7,0.2c-0.4,0-0.7-0.1-1-0.4
		C60.4,103,60.3,102.6,60.3,102.1L60.3,102.1z M60.8,102.1c0,0.3,0.1,0.6,0.2,0.8c0.2,0.2,0.4,0.3,0.6,0.3c0.3,0,0.5-0.1,0.6-0.3
		c0.2-0.2,0.2-0.5,0.2-0.9c0-0.3-0.1-0.6-0.2-0.8c-0.2-0.2-0.4-0.3-0.6-0.3c-0.3,0-0.5,0.1-0.6,0.3
		C60.9,101.5,60.8,101.7,60.8,102.1z"/>
	<path class="st6" d="M66.3,102.1c0,0.5-0.1,0.8-0.3,1.1c-0.2,0.3-0.5,0.4-0.9,0.4c-0.4,0-0.7-0.1-0.9-0.4v1.5h-0.5v-4.2h0.5l0,0.3
		c0.2-0.3,0.5-0.4,0.9-0.4c0.4,0,0.7,0.1,0.9,0.4C66.2,101.2,66.3,101.6,66.3,102.1L66.3,102.1z M65.8,102.1c0-0.3-0.1-0.6-0.2-0.8
		c-0.1-0.2-0.3-0.3-0.6-0.3c-0.3,0-0.6,0.1-0.7,0.4v1.5c0.2,0.3,0.4,0.4,0.7,0.4c0.2,0,0.4-0.1,0.6-0.3
		C65.7,102.8,65.8,102.5,65.8,102.1z"/>
	<path class="st6" d="M68.4,101c-0.1,0-0.2,0-0.3,0c-0.3,0-0.6,0.1-0.7,0.4v2.2H67v-3.1h0.5l0,0.4c0.2-0.3,0.4-0.4,0.7-0.4
		c0.1,0,0.2,0,0.2,0V101z"/>
	<path class="st6" d="M69.5,103.6H69v-3.1h0.5V103.6z M68.9,99.8c0-0.1,0-0.2,0.1-0.2c0.1-0.1,0.1-0.1,0.2-0.1s0.2,0,0.2,0.1
		c0.1,0.1,0.1,0.1,0.1,0.2c0,0.1,0,0.2-0.1,0.2c-0.1,0.1-0.1,0.1-0.2,0.1s-0.2,0-0.2-0.1C69,99.9,68.9,99.8,68.9,99.8z"/>
	<path class="st6" d="M72.2,103.6c0-0.1-0.1-0.2-0.1-0.3c-0.2,0.3-0.5,0.4-0.9,0.4c-0.3,0-0.5-0.1-0.7-0.3c-0.2-0.2-0.3-0.4-0.3-0.6
		c0-0.3,0.1-0.6,0.4-0.7c0.2-0.2,0.6-0.3,1-0.3h0.5v-0.2c0-0.2-0.1-0.3-0.2-0.4c-0.1-0.1-0.3-0.2-0.5-0.2c-0.2,0-0.3,0-0.5,0.1
		c-0.1,0.1-0.2,0.2-0.2,0.3h-0.5c0-0.2,0.1-0.3,0.2-0.4c0.1-0.1,0.3-0.3,0.4-0.3c0.2-0.1,0.4-0.1,0.6-0.1c0.4,0,0.6,0.1,0.8,0.3
		c0.2,0.2,0.3,0.4,0.3,0.7v1.4c0,0.3,0,0.5,0.1,0.7v0H72.2z M71.3,103.2c0.2,0,0.3,0,0.5-0.1c0.1-0.1,0.3-0.2,0.3-0.3v-0.6h-0.4
		c-0.6,0-1,0.2-1,0.6c0,0.2,0.1,0.3,0.2,0.4C71,103.2,71.2,103.2,71.3,103.2z"/>
	<path class="st6" d="M74.2,99.8v0.7h0.6v0.4h-0.6v1.9c0,0.1,0,0.2,0.1,0.3c0.1,0.1,0.1,0.1,0.3,0.1c0.1,0,0.1,0,0.2,0v0.4
		c-0.1,0-0.3,0.1-0.4,0.1c-0.2,0-0.4-0.1-0.5-0.2c-0.1-0.1-0.2-0.3-0.2-0.6V101h-0.6v-0.4h0.6v-0.7H74.2z"/>
	<path class="st6" d="M76.6,103.7c-0.4,0-0.7-0.1-1-0.4c-0.3-0.3-0.4-0.6-0.4-1.1v-0.1c0-0.3,0.1-0.6,0.2-0.8
		c0.1-0.2,0.3-0.4,0.5-0.6c0.2-0.1,0.4-0.2,0.7-0.2c0.4,0,0.7,0.1,0.9,0.4c0.2,0.3,0.3,0.6,0.3,1.1v0.2h-2.1c0,0.3,0.1,0.5,0.3,0.7
		c0.2,0.2,0.4,0.3,0.6,0.3c0.2,0,0.3,0,0.5-0.1c0.1-0.1,0.2-0.2,0.3-0.3l0.3,0.2C77.5,103.5,77.1,103.7,76.6,103.7z M76.6,100.9
		c-0.2,0-0.4,0.1-0.5,0.2c-0.1,0.2-0.2,0.4-0.3,0.6h1.5v0c0-0.3-0.1-0.5-0.2-0.6C76.9,101,76.8,100.9,76.6,100.9z"/>
	<path class="st6" d="M83,102.3c-0.1,0.4-0.2,0.8-0.5,1c-0.3,0.2-0.6,0.4-1.1,0.4c-0.5,0-0.9-0.2-1.2-0.5c-0.3-0.3-0.4-0.8-0.4-1.4
		v-0.4c0-0.4,0.1-0.7,0.2-1c0.1-0.3,0.3-0.5,0.6-0.7c0.2-0.2,0.5-0.2,0.9-0.2c0.4,0,0.8,0.1,1,0.4c0.3,0.2,0.4,0.6,0.5,1h-0.5
		c0-0.3-0.1-0.6-0.3-0.7c-0.2-0.1-0.4-0.2-0.7-0.2c-0.3,0-0.6,0.1-0.8,0.4c-0.2,0.3-0.3,0.6-0.3,1.1v0.4c0,0.4,0.1,0.8,0.3,1.1
		c0.2,0.3,0.4,0.4,0.8,0.4c0.3,0,0.5-0.1,0.7-0.2c0.2-0.1,0.3-0.4,0.3-0.7H83z"/>
	<path class="st6" d="M84.2,103.6h-0.5v-4.3h0.5V103.6z"/>
	<path class="st6" d="M86.9,103.6c0-0.1-0.1-0.2-0.1-0.3c-0.2,0.3-0.5,0.4-0.9,0.4c-0.3,0-0.5-0.1-0.7-0.3c-0.2-0.2-0.3-0.4-0.3-0.6
		c0-0.3,0.1-0.6,0.4-0.7c0.2-0.2,0.6-0.3,1-0.3h0.5v-0.2c0-0.2-0.1-0.3-0.2-0.4c-0.1-0.1-0.3-0.2-0.5-0.2c-0.2,0-0.3,0-0.5,0.1
		c-0.1,0.1-0.2,0.2-0.2,0.3H85c0-0.2,0.1-0.3,0.2-0.4c0.1-0.1,0.3-0.3,0.4-0.3c0.2-0.1,0.4-0.1,0.6-0.1c0.4,0,0.6,0.1,0.8,0.3
		c0.2,0.2,0.3,0.4,0.3,0.7v1.4c0,0.3,0,0.5,0.1,0.7v0H86.9z M86,103.2c0.2,0,0.3,0,0.5-0.1c0.1-0.1,0.3-0.2,0.3-0.3v-0.6h-0.4
		c-0.6,0-1,0.2-1,0.6c0,0.2,0.1,0.3,0.2,0.4S85.9,103.2,86,103.2z"/>
	<path class="st6" d="M89.9,102.8c0-0.1-0.1-0.2-0.2-0.3c-0.1-0.1-0.3-0.1-0.6-0.2c-0.3-0.1-0.5-0.1-0.6-0.2
		c-0.2-0.1-0.3-0.2-0.3-0.3c-0.1-0.1-0.1-0.2-0.1-0.4c0-0.2,0.1-0.5,0.3-0.6c0.2-0.2,0.5-0.3,0.8-0.3c0.3,0,0.6,0.1,0.8,0.3
		c0.2,0.2,0.3,0.4,0.3,0.7h-0.5c0-0.1-0.1-0.3-0.2-0.4c-0.1-0.1-0.3-0.2-0.5-0.2c-0.2,0-0.3,0-0.4,0.1c-0.1,0.1-0.2,0.2-0.2,0.3
		c0,0.1,0,0.2,0.1,0.3c0.1,0.1,0.3,0.1,0.5,0.2c0.3,0.1,0.5,0.1,0.6,0.2c0.2,0.1,0.3,0.2,0.4,0.3c0.1,0.1,0.1,0.3,0.1,0.4
		c0,0.3-0.1,0.5-0.3,0.7c-0.2,0.2-0.5,0.2-0.8,0.2c-0.2,0-0.5,0-0.6-0.1c-0.2-0.1-0.3-0.2-0.4-0.4c-0.1-0.2-0.2-0.3-0.2-0.5h0.5
		c0,0.2,0.1,0.3,0.2,0.4c0.1,0.1,0.3,0.2,0.5,0.2c0.2,0,0.4,0,0.5-0.1C89.9,103.1,89.9,102.9,89.9,102.8z"/>
	<path class="st6" d="M92.9,102.8c0-0.1-0.1-0.2-0.2-0.3c-0.1-0.1-0.3-0.1-0.6-0.2c-0.3-0.1-0.5-0.1-0.6-0.2
		c-0.2-0.1-0.3-0.2-0.3-0.3c-0.1-0.1-0.1-0.2-0.1-0.4c0-0.2,0.1-0.5,0.3-0.6c0.2-0.2,0.5-0.3,0.8-0.3c0.3,0,0.6,0.1,0.8,0.3
		c0.2,0.2,0.3,0.4,0.3,0.7h-0.5c0-0.1-0.1-0.3-0.2-0.4c-0.1-0.1-0.3-0.2-0.5-0.2c-0.2,0-0.3,0-0.4,0.1c-0.1,0.1-0.2,0.2-0.2,0.3
		c0,0.1,0,0.2,0.1,0.3c0.1,0.1,0.3,0.1,0.5,0.2c0.3,0.1,0.5,0.1,0.6,0.2c0.2,0.1,0.3,0.2,0.4,0.3c0.1,0.1,0.1,0.3,0.1,0.4
		c0,0.3-0.1,0.5-0.3,0.7c-0.2,0.2-0.5,0.2-0.8,0.2c-0.2,0-0.5,0-0.6-0.1c-0.2-0.1-0.3-0.2-0.4-0.4c-0.1-0.2-0.2-0.3-0.2-0.5h0.5
		c0,0.2,0.1,0.3,0.2,0.4c0.1,0.1,0.3,0.2,0.5,0.2c0.2,0,0.4,0,0.5-0.1C92.8,103.1,92.9,102.9,92.9,102.8z"/>
	<path class="st6" d="M95.4,103.7c-0.4,0-0.7-0.1-1-0.4c-0.3-0.3-0.4-0.6-0.4-1.1v-0.1c0-0.3,0.1-0.6,0.2-0.8
		c0.1-0.2,0.3-0.4,0.5-0.6c0.2-0.1,0.4-0.2,0.7-0.2c0.4,0,0.7,0.1,0.9,0.4c0.2,0.3,0.3,0.6,0.3,1.1v0.2h-2.1c0,0.3,0.1,0.5,0.3,0.7
		c0.2,0.2,0.4,0.3,0.6,0.3c0.2,0,0.3,0,0.5-0.1c0.1-0.1,0.2-0.2,0.3-0.3l0.3,0.2C96.3,103.5,95.9,103.7,95.4,103.7z M95.3,100.9
		c-0.2,0-0.4,0.1-0.5,0.2c-0.1,0.2-0.2,0.4-0.3,0.6H96v0c0-0.3-0.1-0.5-0.2-0.6C95.7,101,95.5,100.9,95.3,100.9z"/>
	<path class="st6" d="M98.9,102.8c0-0.1-0.1-0.2-0.2-0.3c-0.1-0.1-0.3-0.1-0.6-0.2c-0.3-0.1-0.5-0.1-0.6-0.2
		c-0.2-0.1-0.3-0.2-0.3-0.3c-0.1-0.1-0.1-0.2-0.1-0.4c0-0.2,0.1-0.5,0.3-0.6c0.2-0.2,0.5-0.3,0.8-0.3c0.3,0,0.6,0.1,0.8,0.3
		c0.2,0.2,0.3,0.4,0.3,0.7h-0.5c0-0.1-0.1-0.3-0.2-0.4c-0.1-0.1-0.3-0.2-0.5-0.2c-0.2,0-0.3,0-0.4,0.1s-0.2,0.2-0.2,0.3
		c0,0.1,0,0.2,0.1,0.3c0.1,0.1,0.3,0.1,0.5,0.2c0.3,0.1,0.5,0.1,0.6,0.2s0.3,0.2,0.4,0.3c0.1,0.1,0.1,0.3,0.1,0.4
		c0,0.3-0.1,0.5-0.3,0.7c-0.2,0.2-0.5,0.2-0.8,0.2c-0.2,0-0.5,0-0.6-0.1c-0.2-0.1-0.3-0.2-0.4-0.4c-0.1-0.2-0.2-0.3-0.2-0.5h0.5
		c0,0.2,0.1,0.3,0.2,0.4c0.1,0.1,0.3,0.2,0.5,0.2c0.2,0,0.4,0,0.5-0.1C98.9,103.1,98.9,102.9,98.9,102.8z"/>
	<path class="st6" d="M104.4,100h-1.3v3.7h-0.5V100h-1.3v-0.4h3.2V100z"/>
	<path class="st6" d="M105.4,100.9c0.2-0.3,0.5-0.4,0.9-0.4c0.6,0,1,0.4,1,1.1v2h-0.5v-2c0-0.2-0.1-0.4-0.2-0.5
		c-0.1-0.1-0.3-0.2-0.5-0.2c-0.2,0-0.3,0-0.4,0.1c-0.1,0.1-0.2,0.2-0.3,0.4v2.2h-0.5v-4.3h0.5V100.9z"/>
	<path class="st6" d="M110,103.6c0-0.1-0.1-0.2-0.1-0.3c-0.2,0.3-0.5,0.4-0.9,0.4c-0.3,0-0.5-0.1-0.7-0.3c-0.2-0.2-0.3-0.4-0.3-0.6
		c0-0.3,0.1-0.6,0.4-0.7c0.2-0.2,0.6-0.3,1-0.3h0.5v-0.2c0-0.2-0.1-0.3-0.2-0.4c-0.1-0.1-0.3-0.2-0.5-0.2c-0.2,0-0.3,0-0.5,0.1
		c-0.1,0.1-0.2,0.2-0.2,0.3h-0.5c0-0.2,0.1-0.3,0.2-0.4c0.1-0.1,0.3-0.3,0.4-0.3c0.2-0.1,0.4-0.1,0.6-0.1c0.4,0,0.6,0.1,0.8,0.3
		c0.2,0.2,0.3,0.4,0.3,0.7v1.4c0,0.3,0,0.5,0.1,0.7v0H110z M109.1,103.2c0.2,0,0.3,0,0.5-0.1c0.1-0.1,0.3-0.2,0.3-0.3v-0.6h-0.4
		c-0.6,0-1,0.2-1,0.6c0,0.2,0.1,0.3,0.2,0.4S108.9,103.2,109.1,103.2z"/>
	<path class="st6" d="M111.9,99.8v0.7h0.6v0.4h-0.6v1.9c0,0.1,0,0.2,0.1,0.3c0.1,0.1,0.1,0.1,0.3,0.1c0.1,0,0.1,0,0.2,0v0.4
		c-0.1,0-0.3,0.1-0.4,0.1c-0.2,0-0.4-0.1-0.5-0.2c-0.1-0.1-0.2-0.3-0.2-0.6V101h-0.6v-0.4h0.6v-0.7H111.9z"/>
	<path class="st6" d="M115.5,102.3l0.1,0.5l0.1-0.5l0.8-2.9h0.5l0.8,2.9l0.1,0.5l0.1-0.6l0.6-2.8h0.5l-1,4.1h-0.5l-0.8-3l-0.1-0.3
		l-0.1,0.3l-0.9,3h-0.5l-1-4.1h0.5L115.5,102.3z"/>
	<path class="st6" d="M120.9,103.7c-0.4,0-0.8-0.1-1-0.4c-0.3-0.3-0.4-0.6-0.4-1.1v-0.1c0-0.3,0.1-0.6,0.2-0.8
		c0.1-0.2,0.3-0.4,0.5-0.6c0.2-0.1,0.4-0.2,0.7-0.2c0.4,0,0.7,0.1,0.9,0.4c0.2,0.3,0.3,0.6,0.3,1.1v0.2H120c0,0.3,0.1,0.5,0.3,0.7
		c0.2,0.2,0.4,0.3,0.6,0.3c0.2,0,0.3,0,0.5-0.1c0.1-0.1,0.2-0.2,0.3-0.3l0.3,0.2C121.8,103.5,121.4,103.7,120.9,103.7z M120.8,100.9
		c-0.2,0-0.4,0.1-0.5,0.2c-0.1,0.2-0.2,0.4-0.3,0.6h1.5v0c0-0.3-0.1-0.5-0.2-0.6C121.2,101,121,100.9,120.8,100.9z"/>
	<path class="st6" d="M127.1,99.5v2.8c0,0.4-0.1,0.7-0.4,1c-0.2,0.2-0.6,0.4-1,0.4l-0.1,0c-0.4,0-0.8-0.1-1.1-0.4
		c-0.3-0.2-0.4-0.6-0.4-1v-2.8h0.5v2.8c0,0.3,0.1,0.5,0.2,0.7c0.2,0.2,0.4,0.2,0.7,0.2c0.3,0,0.5-0.1,0.7-0.2
		c0.2-0.2,0.2-0.4,0.2-0.7v-2.8H127.1z"/>
	<path class="st6" d="M129.6,102.8c0-0.1-0.1-0.2-0.2-0.3c-0.1-0.1-0.3-0.1-0.6-0.2c-0.3-0.1-0.5-0.1-0.6-0.2
		c-0.2-0.1-0.3-0.2-0.3-0.3c-0.1-0.1-0.1-0.2-0.1-0.4c0-0.2,0.1-0.5,0.3-0.6c0.2-0.2,0.5-0.3,0.8-0.3c0.3,0,0.6,0.1,0.8,0.3
		c0.2,0.2,0.3,0.4,0.3,0.7h-0.5c0-0.1-0.1-0.3-0.2-0.4c-0.1-0.1-0.3-0.2-0.5-0.2c-0.2,0-0.3,0-0.4,0.1c-0.1,0.1-0.2,0.2-0.2,0.3
		c0,0.1,0.1,0.2,0.1,0.3c0.1,0.1,0.3,0.1,0.5,0.2c0.3,0.1,0.5,0.1,0.6,0.2s0.3,0.2,0.4,0.3c0.1,0.1,0.1,0.3,0.1,0.4
		c0,0.3-0.1,0.5-0.3,0.7c-0.2,0.2-0.5,0.2-0.8,0.2c-0.2,0-0.5,0-0.6-0.1c-0.2-0.1-0.3-0.2-0.4-0.4c-0.1-0.2-0.2-0.3-0.2-0.5h0.5
		c0,0.2,0.1,0.3,0.2,0.4c0.1,0.1,0.3,0.2,0.5,0.2c0.2,0,0.4,0,0.5-0.1C129.5,103.1,129.6,102.9,129.6,102.8z"/>
	<path class="st6" d="M132.1,103.7c-0.4,0-0.8-0.1-1-0.4c-0.3-0.3-0.4-0.6-0.4-1.1v-0.1c0-0.3,0.1-0.6,0.2-0.8
		c0.1-0.2,0.3-0.4,0.5-0.6c0.2-0.1,0.4-0.2,0.7-0.2c0.4,0,0.7,0.1,0.9,0.4c0.2,0.3,0.3,0.6,0.3,1.1v0.2h-2.1c0,0.3,0.1,0.5,0.3,0.7
		c0.2,0.2,0.4,0.3,0.6,0.3c0.2,0,0.3,0,0.5-0.1c0.1-0.1,0.2-0.2,0.3-0.3l0.3,0.2C133,103.5,132.6,103.7,132.1,103.7z M132,100.9
		c-0.2,0-0.4,0.1-0.5,0.2c-0.1,0.2-0.2,0.4-0.3,0.6h1.5v0c0-0.3-0.1-0.5-0.2-0.6C132.4,101,132.2,100.9,132,100.9z"/>
	<path class="st6" d="M138.1,100h-1.3v3.7h-0.5V100h-1.3v-0.4h3.2V100z"/>
	<path class="st6" d="M138.2,102.1c0-0.3,0.1-0.6,0.2-0.8c0.1-0.2,0.3-0.4,0.5-0.6c0.2-0.1,0.4-0.2,0.7-0.2c0.4,0,0.8,0.1,1,0.4
		c0.3,0.3,0.4,0.7,0.4,1.1v0c0,0.3-0.1,0.6-0.2,0.8c-0.1,0.2-0.3,0.4-0.5,0.5c-0.2,0.1-0.5,0.2-0.7,0.2c-0.4,0-0.7-0.1-1-0.4
		C138.3,103,138.2,102.6,138.2,102.1L138.2,102.1z M138.7,102.1c0,0.3,0.1,0.6,0.2,0.8c0.2,0.2,0.4,0.3,0.6,0.3
		c0.3,0,0.5-0.1,0.6-0.3c0.2-0.2,0.2-0.5,0.2-0.9c0-0.3-0.1-0.6-0.2-0.8c-0.2-0.2-0.4-0.3-0.6-0.3c-0.3,0-0.5,0.1-0.6,0.3
		C138.8,101.5,138.7,101.7,138.7,102.1z"/>
	<path class="st6" d="M144.4,101.8c-0.5-0.1-0.8-0.3-1-0.5c-0.2-0.2-0.3-0.4-0.3-0.7c0-0.3,0.1-0.6,0.4-0.8c0.3-0.2,0.6-0.3,1-0.3
		c0.3,0,0.5,0.1,0.8,0.2c0.2,0.1,0.4,0.3,0.5,0.5c0.1,0.2,0.2,0.4,0.2,0.6h-0.5c0-0.2-0.1-0.4-0.2-0.6c-0.2-0.1-0.4-0.2-0.7-0.2
		c-0.3,0-0.5,0.1-0.6,0.2c-0.1,0.1-0.2,0.3-0.2,0.5c0,0.2,0.1,0.3,0.2,0.4c0.1,0.1,0.4,0.2,0.7,0.3c0.3,0.1,0.6,0.2,0.8,0.3
		c0.2,0.1,0.3,0.2,0.4,0.4c0.1,0.2,0.1,0.3,0.1,0.5c0,0.3-0.1,0.6-0.4,0.8c-0.3,0.2-0.6,0.3-1,0.3c-0.3,0-0.5-0.1-0.8-0.2
		c-0.2-0.1-0.4-0.3-0.6-0.4c-0.1-0.2-0.2-0.4-0.2-0.6h0.5c0,0.2,0.1,0.4,0.3,0.6c0.2,0.1,0.4,0.2,0.7,0.2c0.3,0,0.5-0.1,0.7-0.2
		c0.2-0.1,0.2-0.3,0.2-0.5s-0.1-0.4-0.2-0.5C145,102,144.7,101.9,144.4,101.8z"/>
	<path class="st6" d="M147.2,99.8v0.7h0.6v0.4h-0.6v1.9c0,0.1,0,0.2,0.1,0.3c0.1,0.1,0.1,0.1,0.3,0.1c0.1,0,0.1,0,0.2,0v0.4
		c-0.1,0-0.3,0.1-0.4,0.1c-0.2,0-0.4-0.1-0.5-0.2c-0.1-0.1-0.2-0.3-0.2-0.6V101h-0.6v-0.4h0.6v-0.7H147.2z"/>
	<path class="st6" d="M149.4,102.9l0.7-2.3h0.6l-1.2,3.5c-0.2,0.5-0.5,0.8-0.9,0.8l-0.1,0l-0.2,0v-0.4l0.1,0c0.2,0,0.3,0,0.4-0.1
		c0.1-0.1,0.2-0.2,0.2-0.4l0.1-0.3l-1.1-3h0.6L149.4,102.9z"/>
	<path class="st6" d="M151.7,103.6h-0.5v-4.3h0.5V103.6z"/>
	<path class="st6" d="M153.8,103.7c-0.4,0-0.8-0.1-1-0.4c-0.3-0.3-0.4-0.6-0.4-1.1v-0.1c0-0.3,0.1-0.6,0.2-0.8
		c0.1-0.2,0.3-0.4,0.5-0.6c0.2-0.1,0.4-0.2,0.7-0.2c0.4,0,0.7,0.1,0.9,0.4c0.2,0.3,0.3,0.6,0.3,1.1v0.2h-2.1c0,0.3,0.1,0.5,0.3,0.7
		c0.2,0.2,0.4,0.3,0.6,0.3c0.2,0,0.3,0,0.5-0.1c0.1-0.1,0.2-0.2,0.3-0.3l0.3,0.2C154.7,103.5,154.3,103.7,153.8,103.7z M153.7,100.9
		c-0.2,0-0.4,0.1-0.5,0.2c-0.1,0.2-0.2,0.4-0.3,0.6h1.5v0c0-0.3-0.1-0.5-0.2-0.6C154.1,101,153.9,100.9,153.7,100.9z"/>
	<path class="st6" d="M159.4,101.7h-1.8v1.5h2.1v0.4h-2.6v-4.1h2.6v0.4h-2v1.3h1.8V101.7z"/>
	<path class="st6" d="M162.2,103.6c0-0.1-0.1-0.2-0.1-0.3c-0.2,0.3-0.5,0.4-0.9,0.4c-0.3,0-0.5-0.1-0.7-0.3
		c-0.2-0.2-0.3-0.4-0.3-0.6c0-0.3,0.1-0.6,0.4-0.7c0.2-0.2,0.6-0.3,1-0.3h0.5v-0.2c0-0.2-0.1-0.3-0.2-0.4c-0.1-0.1-0.3-0.2-0.5-0.2
		c-0.2,0-0.3,0-0.5,0.1c-0.1,0.1-0.2,0.2-0.2,0.3h-0.5c0-0.2,0.1-0.3,0.2-0.4c0.1-0.1,0.3-0.3,0.4-0.3c0.2-0.1,0.4-0.1,0.6-0.1
		c0.4,0,0.6,0.1,0.8,0.3c0.2,0.2,0.3,0.4,0.3,0.7v1.4c0,0.3,0,0.5,0.1,0.7v0H162.2z M161.3,103.2c0.2,0,0.3,0,0.5-0.1
		c0.1-0.1,0.3-0.2,0.3-0.3v-0.6h-0.4c-0.6,0-1,0.2-1,0.6c0,0.2,0.1,0.3,0.2,0.4C161,103.2,161.2,103.2,161.3,103.2z"/>
	<path class="st6" d="M164.7,103.3c0.2,0,0.3-0.1,0.5-0.2c0.1-0.1,0.2-0.3,0.2-0.4h0.5c0,0.2-0.1,0.3-0.2,0.5
		c-0.1,0.2-0.3,0.3-0.4,0.4c-0.2,0.1-0.4,0.1-0.6,0.1c-0.4,0-0.7-0.1-1-0.4c-0.2-0.3-0.4-0.7-0.4-1.1V102c0-0.3,0.1-0.6,0.2-0.8
		c0.1-0.2,0.3-0.4,0.5-0.5c0.2-0.1,0.4-0.2,0.7-0.2c0.3,0,0.6,0.1,0.9,0.3c0.2,0.2,0.3,0.5,0.4,0.8h-0.5c0-0.2-0.1-0.4-0.2-0.5
		c-0.1-0.1-0.3-0.2-0.5-0.2c-0.3,0-0.5,0.1-0.6,0.3c-0.1,0.2-0.2,0.5-0.2,0.8v0.1c0,0.4,0.1,0.6,0.2,0.8
		C164.2,103.2,164.4,103.3,164.7,103.3z"/>
	<path class="st6" d="M167,100.9c0.2-0.3,0.5-0.4,0.9-0.4c0.6,0,1,0.4,1,1.1v2h-0.5v-2c0-0.2-0.1-0.4-0.2-0.5
		c-0.1-0.1-0.2-0.2-0.5-0.2c-0.2,0-0.3,0-0.4,0.1c-0.1,0.1-0.2,0.2-0.3,0.4v2.2h-0.5v-4.3h0.5V100.9z"/>
	<path class="st6" d="M173.5,101.7h-1.8v1.5h2.1v0.4h-2.6v-4.1h2.6v0.4h-2v1.3h1.8V101.7z"/>
	<path class="st6" d="M174.9,103.6h-0.5v-4.3h0.5V103.6z"/>
	<path class="st6" d="M177,103.7c-0.4,0-0.8-0.1-1-0.4c-0.3-0.3-0.4-0.6-0.4-1.1v-0.1c0-0.3,0.1-0.6,0.2-0.8
		c0.1-0.2,0.3-0.4,0.5-0.6c0.2-0.1,0.4-0.2,0.7-0.2c0.4,0,0.7,0.1,0.9,0.4c0.2,0.3,0.3,0.6,0.3,1.1v0.2h-2.1c0,0.3,0.1,0.5,0.3,0.7
		c0.2,0.2,0.4,0.3,0.6,0.3c0.2,0,0.3,0,0.5-0.1c0.1-0.1,0.2-0.2,0.3-0.3l0.3,0.2C177.9,103.5,177.5,103.7,177,103.7z M177,100.9
		c-0.2,0-0.4,0.1-0.5,0.2c-0.1,0.2-0.2,0.4-0.3,0.6h1.5v0c0-0.3-0.1-0.5-0.2-0.6C177.4,101,177.2,100.9,177,100.9z"/>
	<path class="st6" d="M179.3,100.6l0,0.3c0.2-0.3,0.5-0.4,0.9-0.4c0.4,0,0.7,0.2,0.9,0.5c0.1-0.1,0.2-0.3,0.4-0.4
		c0.2-0.1,0.4-0.1,0.6-0.1c0.7,0,1,0.4,1,1.1v2h-0.5v-2c0-0.2,0-0.4-0.1-0.5c-0.1-0.1-0.3-0.2-0.5-0.2c-0.2,0-0.4,0.1-0.5,0.2
		c-0.1,0.1-0.2,0.3-0.2,0.5v2h-0.5v-2c0-0.4-0.2-0.7-0.7-0.7c-0.3,0-0.6,0.1-0.7,0.4v2.2h-0.5v-3.1H179.3z"/>
	<path class="st6" d="M185.2,103.7c-0.4,0-0.8-0.1-1-0.4c-0.3-0.3-0.4-0.6-0.4-1.1v-0.1c0-0.3,0.1-0.6,0.2-0.8
		c0.1-0.2,0.3-0.4,0.5-0.6c0.2-0.1,0.4-0.2,0.7-0.2c0.4,0,0.7,0.1,0.9,0.4c0.2,0.3,0.3,0.6,0.3,1.1v0.2h-2.1c0,0.3,0.1,0.5,0.3,0.7
		c0.2,0.2,0.4,0.3,0.6,0.3c0.2,0,0.3,0,0.5-0.1c0.1-0.1,0.2-0.2,0.3-0.3l0.3,0.2C186.1,103.5,185.7,103.7,185.2,103.7z M185.1,100.9
		c-0.2,0-0.4,0.1-0.5,0.2c-0.1,0.2-0.2,0.4-0.3,0.6h1.5v0c0-0.3-0.1-0.5-0.2-0.6C185.5,101,185.3,100.9,185.1,100.9z"/>
	<path class="st6" d="M187.4,100.6l0,0.4c0.2-0.3,0.5-0.4,0.9-0.4c0.6,0,1,0.4,1,1.1v2h-0.5v-2c0-0.2-0.1-0.4-0.2-0.5
		c-0.1-0.1-0.2-0.2-0.5-0.2c-0.2,0-0.3,0-0.4,0.1c-0.1,0.1-0.2,0.2-0.3,0.4v2.2H187v-3.1H187.4z"/>
	<path class="st6" d="M190.8,99.8v0.7h0.6v0.4h-0.6v1.9c0,0.1,0,0.2,0.1,0.3c0,0.1,0.1,0.1,0.3,0.1c0.1,0,0.1,0,0.2,0v0.4
		c-0.1,0-0.3,0.1-0.4,0.1c-0.2,0-0.4-0.1-0.5-0.2c-0.1-0.1-0.2-0.3-0.2-0.6V101h-0.6v-0.4h0.6v-0.7H190.8z"/>
	<path class="st6" d="M192,103.3c0-0.1,0-0.2,0.1-0.2c0.1-0.1,0.1-0.1,0.2-0.1s0.2,0,0.2,0.1c0.1,0.1,0.1,0.1,0.1,0.2
		c0,0.1,0,0.2-0.1,0.2c-0.1,0.1-0.1,0.1-0.2,0.1s-0.2,0-0.2-0.1C192.1,103.5,192,103.4,192,103.3z"/>
	<path class="st6" d="M197.8,100h-1.3v3.7h-0.5V100h-1.3v-0.4h3.2V100z"/>
	<path class="st6" d="M198.8,100.9c0.2-0.3,0.5-0.4,0.9-0.4c0.6,0,1,0.4,1,1.1v2h-0.5v-2c0-0.2-0.1-0.4-0.2-0.5
		c-0.1-0.1-0.3-0.2-0.5-0.2c-0.2,0-0.3,0-0.4,0.1c-0.1,0.1-0.2,0.2-0.3,0.4v2.2h-0.5v-4.3h0.5V100.9z"/>
	<path class="st6" d="M202.8,103.7c-0.4,0-0.8-0.1-1-0.4c-0.3-0.3-0.4-0.6-0.4-1.1v-0.1c0-0.3,0.1-0.6,0.2-0.8
		c0.1-0.2,0.3-0.4,0.5-0.6c0.2-0.1,0.4-0.2,0.7-0.2c0.4,0,0.7,0.1,0.9,0.4c0.2,0.3,0.3,0.6,0.3,1.1v0.2h-2.1c0,0.3,0.1,0.5,0.3,0.7
		c0.2,0.2,0.4,0.3,0.6,0.3c0.2,0,0.3,0,0.5-0.1c0.1-0.1,0.2-0.2,0.3-0.3l0.3,0.2C203.7,103.5,203.3,103.7,202.8,103.7z M202.7,100.9
		c-0.2,0-0.4,0.1-0.5,0.2c-0.1,0.2-0.2,0.4-0.3,0.6h1.5v0c0-0.3-0.1-0.5-0.2-0.6C203.1,101,202.9,100.9,202.7,100.9z"/>
	<path class="st6" d="M206.3,102.8c0-0.1-0.1-0.2-0.2-0.3c-0.1-0.1-0.3-0.1-0.6-0.2c-0.3-0.1-0.5-0.1-0.6-0.2
		c-0.2-0.1-0.3-0.2-0.3-0.3c-0.1-0.1-0.1-0.2-0.1-0.4c0-0.2,0.1-0.5,0.3-0.6c0.2-0.2,0.5-0.3,0.8-0.3c0.3,0,0.6,0.1,0.8,0.3
		c0.2,0.2,0.3,0.4,0.3,0.7h-0.5c0-0.1-0.1-0.3-0.2-0.4c-0.1-0.1-0.3-0.2-0.5-0.2c-0.2,0-0.3,0-0.4,0.1c-0.1,0.1-0.2,0.2-0.2,0.3
		c0,0.1,0.1,0.2,0.1,0.3c0.1,0.1,0.3,0.1,0.5,0.2c0.3,0.1,0.5,0.1,0.6,0.2s0.3,0.2,0.4,0.3c0.1,0.1,0.1,0.3,0.1,0.4
		c0,0.3-0.1,0.5-0.3,0.7c-0.2,0.2-0.5,0.2-0.8,0.2c-0.2,0-0.5,0-0.6-0.1c-0.2-0.1-0.3-0.2-0.4-0.4c-0.1-0.2-0.2-0.3-0.2-0.5h0.5
		c0,0.2,0.1,0.3,0.2,0.4c0.1,0.1,0.3,0.2,0.5,0.2c0.2,0,0.4,0,0.5-0.1C206.3,103.1,206.3,102.9,206.3,102.8z"/>
	<path class="st6" d="M208.8,103.7c-0.4,0-0.8-0.1-1-0.4c-0.3-0.3-0.4-0.6-0.4-1.1v-0.1c0-0.3,0.1-0.6,0.2-0.8
		c0.1-0.2,0.3-0.4,0.5-0.6c0.2-0.1,0.4-0.2,0.7-0.2c0.4,0,0.7,0.1,0.9,0.4c0.2,0.3,0.3,0.6,0.3,1.1v0.2h-2.1c0,0.3,0.1,0.5,0.3,0.7
		c0.2,0.2,0.4,0.3,0.6,0.3c0.2,0,0.3,0,0.5-0.1c0.1-0.1,0.2-0.2,0.3-0.3l0.3,0.2C209.7,103.5,209.3,103.7,208.8,103.7z M208.7,100.9
		c-0.2,0-0.4,0.1-0.5,0.2c-0.1,0.2-0.2,0.4-0.3,0.6h1.5v0c0-0.3-0.1-0.5-0.2-0.6C209.1,101,208.9,100.9,208.7,100.9z"/>
	<path class="st6" d="M215.1,102.3c-0.1,0.4-0.2,0.8-0.5,1c-0.3,0.2-0.6,0.4-1.1,0.4c-0.5,0-0.9-0.2-1.2-0.5
		c-0.3-0.3-0.4-0.8-0.4-1.4v-0.4c0-0.4,0.1-0.7,0.2-1c0.1-0.3,0.3-0.5,0.6-0.7c0.2-0.2,0.5-0.2,0.9-0.2c0.4,0,0.8,0.1,1,0.4
		c0.3,0.2,0.4,0.6,0.5,1h-0.5c0-0.3-0.1-0.6-0.3-0.7c-0.2-0.1-0.4-0.2-0.7-0.2c-0.3,0-0.6,0.1-0.8,0.4c-0.2,0.3-0.3,0.6-0.3,1.1v0.4
		c0,0.4,0.1,0.8,0.3,1.1s0.4,0.4,0.8,0.4c0.3,0,0.5-0.1,0.7-0.2c0.2-0.1,0.3-0.4,0.3-0.7H215.1z"/>
	<path class="st6" d="M216.4,103.6h-0.5v-4.3h0.5V103.6z"/>
	<path class="st6" d="M219.1,103.6c0-0.1-0.1-0.2-0.1-0.3c-0.2,0.3-0.5,0.4-0.9,0.4c-0.3,0-0.5-0.1-0.7-0.3
		c-0.2-0.2-0.3-0.4-0.3-0.6c0-0.3,0.1-0.6,0.4-0.7c0.2-0.2,0.6-0.3,1-0.3h0.5v-0.2c0-0.2-0.1-0.3-0.2-0.4c-0.1-0.1-0.3-0.2-0.5-0.2
		c-0.2,0-0.3,0-0.5,0.1c-0.1,0.1-0.2,0.2-0.2,0.3h-0.5c0-0.2,0.1-0.3,0.2-0.4c0.1-0.1,0.3-0.3,0.4-0.3c0.2-0.1,0.4-0.1,0.6-0.1
		c0.4,0,0.6,0.1,0.8,0.3c0.2,0.2,0.3,0.4,0.3,0.7v1.4c0,0.3,0,0.5,0.1,0.7v0H219.1z M218.2,103.2c0.2,0,0.3,0,0.5-0.1
		c0.1-0.1,0.3-0.2,0.3-0.3v-0.6h-0.4c-0.6,0-1,0.2-1,0.6c0,0.2,0.1,0.3,0.2,0.4C217.9,103.2,218,103.2,218.2,103.2z"/>
	<path class="st6" d="M222.1,102.8c0-0.1-0.1-0.2-0.2-0.3c-0.1-0.1-0.3-0.1-0.6-0.2c-0.3-0.1-0.5-0.1-0.6-0.2
		c-0.2-0.1-0.3-0.2-0.3-0.3c-0.1-0.1-0.1-0.2-0.1-0.4c0-0.2,0.1-0.5,0.3-0.6c0.2-0.2,0.5-0.3,0.8-0.3c0.3,0,0.6,0.1,0.8,0.3
		c0.2,0.2,0.3,0.4,0.3,0.7h-0.5c0-0.1-0.1-0.3-0.2-0.4c-0.1-0.1-0.3-0.2-0.5-0.2c-0.2,0-0.3,0-0.4,0.1c-0.1,0.1-0.2,0.2-0.2,0.3
		c0,0.1,0.1,0.2,0.1,0.3c0.1,0.1,0.3,0.1,0.5,0.2c0.3,0.1,0.5,0.1,0.6,0.2c0.2,0.1,0.3,0.2,0.4,0.3c0.1,0.1,0.1,0.3,0.1,0.4
		c0,0.3-0.1,0.5-0.3,0.7c-0.2,0.2-0.5,0.2-0.8,0.2c-0.2,0-0.5,0-0.6-0.1c-0.2-0.1-0.3-0.2-0.4-0.4c-0.1-0.2-0.2-0.3-0.2-0.5h0.5
		c0,0.2,0.1,0.3,0.2,0.4c0.1,0.1,0.3,0.2,0.5,0.2c0.2,0,0.4,0,0.5-0.1C222,103.1,222.1,102.9,222.1,102.8z"/>
	<path class="st6" d="M225.1,102.8c0-0.1-0.1-0.2-0.2-0.3c-0.1-0.1-0.3-0.1-0.6-0.2c-0.3-0.1-0.5-0.1-0.6-0.2
		c-0.2-0.1-0.3-0.2-0.3-0.3c-0.1-0.1-0.1-0.2-0.1-0.4c0-0.2,0.1-0.5,0.3-0.6c0.2-0.2,0.5-0.3,0.8-0.3c0.3,0,0.6,0.1,0.8,0.3
		c0.2,0.2,0.3,0.4,0.3,0.7h-0.5c0-0.1-0.1-0.3-0.2-0.4c-0.1-0.1-0.3-0.2-0.5-0.2c-0.2,0-0.3,0-0.4,0.1c-0.1,0.1-0.2,0.2-0.2,0.3
		c0,0.1,0.1,0.2,0.1,0.3c0.1,0.1,0.3,0.1,0.5,0.2c0.3,0.1,0.5,0.1,0.6,0.2c0.2,0.1,0.3,0.2,0.4,0.3c0.1,0.1,0.1,0.3,0.1,0.4
		c0,0.3-0.1,0.5-0.3,0.7c-0.2,0.2-0.5,0.2-0.8,0.2c-0.2,0-0.5,0-0.6-0.1c-0.2-0.1-0.3-0.2-0.4-0.4c-0.1-0.2-0.2-0.3-0.2-0.5h0.5
		c0,0.2,0.1,0.3,0.2,0.4c0.1,0.1,0.3,0.2,0.5,0.2c0.2,0,0.4,0,0.5-0.1C225,103.1,225.1,102.9,225.1,102.8z"/>
	<path class="st6" d="M227.6,103.7c-0.4,0-0.8-0.1-1-0.4c-0.3-0.3-0.4-0.6-0.4-1.1v-0.1c0-0.3,0.1-0.6,0.2-0.8
		c0.1-0.2,0.3-0.4,0.5-0.6c0.2-0.1,0.4-0.2,0.7-0.2c0.4,0,0.7,0.1,0.9,0.4c0.2,0.3,0.3,0.6,0.3,1.1v0.2h-2.1c0,0.3,0.1,0.5,0.3,0.7
		c0.2,0.2,0.4,0.3,0.6,0.3c0.2,0,0.3,0,0.5-0.1c0.1-0.1,0.2-0.2,0.3-0.3l0.3,0.2C228.4,103.5,228.1,103.7,227.6,103.7z M227.5,100.9
		c-0.2,0-0.4,0.1-0.5,0.2c-0.1,0.2-0.2,0.4-0.3,0.6h1.5v0c0-0.3-0.1-0.5-0.2-0.6C227.9,101,227.7,100.9,227.5,100.9z"/>
	<path class="st6" d="M231.1,102.8c0-0.1-0.1-0.2-0.2-0.3c-0.1-0.1-0.3-0.1-0.6-0.2c-0.3-0.1-0.5-0.1-0.6-0.2
		c-0.2-0.1-0.3-0.2-0.3-0.3c-0.1-0.1-0.1-0.2-0.1-0.4c0-0.2,0.1-0.5,0.3-0.6c0.2-0.2,0.5-0.3,0.8-0.3c0.3,0,0.6,0.1,0.8,0.3
		c0.2,0.2,0.3,0.4,0.3,0.7h-0.5c0-0.1-0.1-0.3-0.2-0.4c-0.1-0.1-0.3-0.2-0.5-0.2c-0.2,0-0.3,0-0.4,0.1c-0.1,0.1-0.2,0.2-0.2,0.3
		c0,0.1,0,0.2,0.1,0.3c0.1,0.1,0.3,0.1,0.5,0.2c0.3,0.1,0.5,0.1,0.6,0.2c0.2,0.1,0.3,0.2,0.4,0.3c0.1,0.1,0.1,0.3,0.1,0.4
		c0,0.3-0.1,0.5-0.3,0.7c-0.2,0.2-0.5,0.2-0.8,0.2c-0.2,0-0.5,0-0.6-0.1c-0.2-0.1-0.3-0.2-0.4-0.4c-0.1-0.2-0.2-0.3-0.2-0.5h0.5
		c0,0.2,0.1,0.3,0.2,0.4c0.1,0.1,0.3,0.2,0.5,0.2c0.2,0,0.4,0,0.5-0.1C231.1,103.1,231.1,102.9,231.1,102.8z"/>
	<path class="st6" d="M236.9,102.3c-0.1,0.4-0.2,0.8-0.5,1c-0.3,0.2-0.6,0.4-1.1,0.4c-0.5,0-0.9-0.2-1.2-0.5
		c-0.3-0.3-0.4-0.8-0.4-1.4v-0.4c0-0.4,0.1-0.7,0.2-1c0.1-0.3,0.3-0.5,0.6-0.7c0.2-0.2,0.5-0.2,0.9-0.2c0.4,0,0.8,0.1,1,0.4
		c0.3,0.2,0.4,0.6,0.5,1h-0.5c0-0.3-0.1-0.6-0.3-0.7c-0.2-0.1-0.4-0.2-0.7-0.2c-0.3,0-0.6,0.1-0.8,0.4c-0.2,0.3-0.3,0.6-0.3,1.1v0.4
		c0,0.4,0.1,0.8,0.3,1.1s0.4,0.4,0.8,0.4c0.3,0,0.5-0.1,0.7-0.2c0.2-0.1,0.3-0.4,0.3-0.7H236.9z"/>
	<path class="st6" d="M237.4,102.1c0-0.3,0.1-0.6,0.2-0.8c0.1-0.2,0.3-0.4,0.5-0.6c0.2-0.1,0.4-0.2,0.7-0.2c0.4,0,0.8,0.1,1,0.4
		c0.3,0.3,0.4,0.7,0.4,1.1v0c0,0.3-0.1,0.6-0.2,0.8c-0.1,0.2-0.3,0.4-0.5,0.5c-0.2,0.1-0.5,0.2-0.7,0.2c-0.4,0-0.7-0.1-1-0.4
		C237.5,103,237.4,102.6,237.4,102.1L237.4,102.1z M237.9,102.1c0,0.3,0.1,0.6,0.2,0.8c0.2,0.2,0.4,0.3,0.6,0.3
		c0.3,0,0.5-0.1,0.6-0.3c0.2-0.2,0.2-0.5,0.2-0.9c0-0.3-0.1-0.6-0.2-0.8c-0.2-0.2-0.4-0.3-0.6-0.3c-0.3,0-0.5,0.1-0.6,0.3
		C238,101.5,237.9,101.7,237.9,102.1z"/>
	<path class="st6" d="M241.3,100.6l0,0.4c0.2-0.3,0.5-0.4,0.9-0.4c0.6,0,1,0.4,1,1.1v2h-0.5v-2c0-0.2-0.1-0.4-0.2-0.5
		c-0.1-0.1-0.3-0.2-0.5-0.2c-0.2,0-0.3,0-0.4,0.1c-0.1,0.1-0.2,0.2-0.3,0.4v2.2h-0.5v-3.1H241.3z"/>
	<path class="st6" d="M244.7,99.8v0.7h0.6v0.4h-0.6v1.9c0,0.1,0,0.2,0.1,0.3c0.1,0.1,0.1,0.1,0.3,0.1c0.1,0,0.1,0,0.2,0v0.4
		c-0.1,0-0.3,0.1-0.4,0.1c-0.2,0-0.4-0.1-0.5-0.2c-0.1-0.1-0.2-0.3-0.2-0.6V101h-0.6v-0.4h0.6v-0.7H244.7z"/>
	<path class="st6" d="M247.4,101c-0.1,0-0.2,0-0.3,0c-0.3,0-0.6,0.1-0.7,0.4v2.2h-0.5v-3.1h0.5l0,0.4c0.2-0.3,0.4-0.4,0.7-0.4
		c0.1,0,0.2,0,0.2,0V101z"/>
	<path class="st6" d="M247.6,102.1c0-0.3,0.1-0.6,0.2-0.8c0.1-0.2,0.3-0.4,0.5-0.6c0.2-0.1,0.4-0.2,0.7-0.2c0.4,0,0.8,0.1,1,0.4
		c0.3,0.3,0.4,0.7,0.4,1.1v0c0,0.3-0.1,0.6-0.2,0.8c-0.1,0.2-0.3,0.4-0.5,0.5c-0.2,0.1-0.5,0.2-0.7,0.2c-0.4,0-0.7-0.1-1-0.4
		C247.8,103,247.6,102.6,247.6,102.1L247.6,102.1z M248.2,102.1c0,0.3,0.1,0.6,0.2,0.8c0.2,0.2,0.4,0.3,0.6,0.3
		c0.3,0,0.5-0.1,0.6-0.3c0.2-0.2,0.2-0.5,0.2-0.9c0-0.3-0.1-0.6-0.2-0.8c-0.2-0.2-0.4-0.3-0.6-0.3c-0.3,0-0.5,0.1-0.6,0.3
		C248.2,101.5,248.2,101.7,248.2,102.1z"/>
	<path class="st6" d="M251.6,103.6h-0.5v-4.3h0.5V103.6z"/>
	<path class="st6" d="M256.7,100h-1.3v3.7h-0.5V100h-1.3v-0.4h3.2V100z"/>
	<path class="st6" d="M257.8,100.9c0.2-0.3,0.5-0.4,0.9-0.4c0.6,0,1,0.4,1,1.1v2h-0.5v-2c0-0.2-0.1-0.4-0.2-0.5
		c-0.1-0.1-0.3-0.2-0.5-0.2c-0.2,0-0.3,0-0.4,0.1c-0.1,0.1-0.2,0.2-0.3,0.4v2.2h-0.5v-4.3h0.5V100.9z"/>
	<path class="st6" d="M261.7,103.7c-0.4,0-0.8-0.1-1-0.4c-0.3-0.3-0.4-0.6-0.4-1.1v-0.1c0-0.3,0.1-0.6,0.2-0.8
		c0.1-0.2,0.3-0.4,0.5-0.6c0.2-0.1,0.4-0.2,0.7-0.2c0.4,0,0.7,0.1,0.9,0.4c0.2,0.3,0.3,0.6,0.3,1.1v0.2h-2.1c0,0.3,0.1,0.5,0.3,0.7
		c0.2,0.2,0.4,0.3,0.6,0.3c0.2,0,0.3,0,0.5-0.1c0.1-0.1,0.2-0.2,0.3-0.3l0.3,0.2C262.6,103.5,262.2,103.7,261.7,103.7z M261.6,100.9
		c-0.2,0-0.4,0.1-0.5,0.2c-0.1,0.2-0.2,0.4-0.3,0.6h1.5v0c0-0.3-0.1-0.5-0.2-0.6C262,101,261.8,100.9,261.6,100.9z"/>
	<path class="st6" d="M40.4,111.1c0,0.4-0.1,0.8-0.2,1.1c-0.1,0.3-0.3,0.5-0.6,0.7c-0.2,0.2-0.5,0.2-0.9,0.2c-0.3,0-0.6-0.1-0.9-0.2
		c-0.2-0.2-0.4-0.4-0.6-0.7c-0.1-0.3-0.2-0.6-0.2-1v-0.3c0-0.4,0.1-0.7,0.2-1c0.1-0.3,0.3-0.5,0.6-0.7c0.3-0.2,0.5-0.2,0.9-0.2
		c0.3,0,0.6,0.1,0.9,0.2c0.3,0.2,0.4,0.4,0.6,0.7c0.1,0.3,0.2,0.7,0.2,1.1V111.1z M39.9,110.8c0-0.5-0.1-0.9-0.3-1.1
		c-0.2-0.3-0.5-0.4-0.8-0.4c-0.3,0-0.6,0.1-0.8,0.4c-0.2,0.3-0.3,0.6-0.3,1.1v0.3c0,0.5,0.1,0.8,0.3,1.1c0.2,0.3,0.5,0.4,0.8,0.4
		c0.3,0,0.6-0.1,0.8-0.4c0.2-0.3,0.3-0.6,0.3-1.1V110.8z"/>
	<path class="st6" d="M42.1,112.3l0.8-2.3h0.5l-1.1,3.1h-0.4l-1.1-3.1h0.5L42.1,112.3z"/>
	<path class="st6" d="M45.2,113.1c-0.4,0-0.7-0.1-1-0.4c-0.3-0.3-0.4-0.6-0.4-1.1v-0.1c0-0.3,0.1-0.6,0.2-0.8
		c0.1-0.2,0.3-0.4,0.5-0.6c0.2-0.1,0.4-0.2,0.7-0.2c0.4,0,0.7,0.1,0.9,0.4c0.2,0.3,0.3,0.6,0.3,1.1v0.2h-2.1c0,0.3,0.1,0.5,0.3,0.7
		c0.2,0.2,0.4,0.3,0.6,0.3c0.2,0,0.3,0,0.5-0.1s0.2-0.2,0.3-0.3l0.3,0.2C46.1,112.9,45.7,113.1,45.2,113.1z M45.1,110.3
		c-0.2,0-0.4,0.1-0.5,0.2c-0.1,0.2-0.2,0.4-0.3,0.6h1.5v0c0-0.3-0.1-0.5-0.2-0.6C45.5,110.4,45.3,110.3,45.1,110.3z"/>
	<path class="st6" d="M48.4,110.4c-0.1,0-0.2,0-0.3,0c-0.3,0-0.6,0.1-0.7,0.4v2.2H47V110h0.5l0,0.4c0.2-0.3,0.4-0.4,0.7-0.4
		c0.1,0,0.2,0,0.2,0V110.4z"/>
	<path class="st6" d="M50.7,113c0-0.1-0.1-0.2-0.1-0.3c-0.2,0.3-0.5,0.4-0.9,0.4c-0.3,0-0.5-0.1-0.7-0.3c-0.2-0.2-0.3-0.4-0.3-0.6
		c0-0.3,0.1-0.6,0.4-0.7c0.2-0.2,0.6-0.3,1-0.3h0.5v-0.2c0-0.2-0.1-0.3-0.2-0.4c-0.1-0.1-0.3-0.2-0.5-0.2c-0.2,0-0.3,0-0.5,0.1
		c-0.1,0.1-0.2,0.2-0.2,0.3h-0.5c0-0.2,0.1-0.3,0.2-0.4c0.1-0.1,0.3-0.3,0.4-0.3c0.2-0.1,0.4-0.1,0.6-0.1c0.4,0,0.6,0.1,0.8,0.3
		c0.2,0.2,0.3,0.4,0.3,0.7v1.4c0,0.3,0,0.5,0.1,0.7v0H50.7z M49.8,112.6c0.2,0,0.3,0,0.5-0.1c0.1-0.1,0.3-0.2,0.3-0.3v-0.6h-0.4
		c-0.6,0-1,0.2-1,0.6c0,0.2,0.1,0.3,0.2,0.4C49.5,112.6,49.6,112.6,49.8,112.6z"/>
	<path class="st6" d="M52.5,113H52v-4.3h0.5V113z"/>
	<path class="st6" d="M53.9,113h-0.5v-4.3h0.5V113z"/>
	<path class="st6" d="M58.5,111.9h-1.7l-0.4,1.1h-0.6l1.6-4.1h0.5l1.6,4.1h-0.6L58.5,111.9z M57,111.5h1.4l-0.7-1.9L57,111.5z"/>
	<path class="st6" d="M62.5,111.5c0,0.5-0.1,0.8-0.3,1.1s-0.5,0.4-0.9,0.4c-0.4,0-0.7-0.1-0.9-0.4v1.5h-0.5V110h0.5l0,0.3
		c0.2-0.3,0.5-0.4,0.9-0.4c0.4,0,0.7,0.1,0.9,0.4C62.4,110.6,62.5,111,62.5,111.5L62.5,111.5z M62,111.5c0-0.3-0.1-0.6-0.2-0.8
		c-0.1-0.2-0.3-0.3-0.6-0.3c-0.3,0-0.6,0.1-0.7,0.4v1.5c0.2,0.3,0.4,0.4,0.7,0.4c0.2,0,0.4-0.1,0.6-0.3
		C61.9,112.1,62,111.8,62,111.5z"/>
	<path class="st6" d="M65.8,111.5c0,0.5-0.1,0.8-0.3,1.1c-0.2,0.3-0.5,0.4-0.9,0.4c-0.4,0-0.7-0.1-0.9-0.4v1.5h-0.5V110h0.5l0,0.3
		c0.2-0.3,0.5-0.4,0.9-0.4c0.4,0,0.7,0.1,0.9,0.4C65.7,110.6,65.8,111,65.8,111.5L65.8,111.5z M65.2,111.5c0-0.3-0.1-0.6-0.2-0.8
		c-0.1-0.2-0.3-0.3-0.6-0.3c-0.3,0-0.6,0.1-0.7,0.4v1.5c0.2,0.3,0.4,0.4,0.7,0.4c0.2,0,0.4-0.1,0.6-0.3
		C65.2,112.1,65.2,111.8,65.2,111.5z"/>
	<path class="st6" d="M67.7,113.1c-0.4,0-0.7-0.1-1-0.4c-0.3-0.3-0.4-0.6-0.4-1.1v-0.1c0-0.3,0.1-0.6,0.2-0.8
		c0.1-0.2,0.3-0.4,0.5-0.6c0.2-0.1,0.4-0.2,0.7-0.2c0.4,0,0.7,0.1,0.9,0.4c0.2,0.3,0.3,0.6,0.3,1.1v0.2h-2.1c0,0.3,0.1,0.5,0.3,0.7
		c0.2,0.2,0.4,0.3,0.6,0.3c0.2,0,0.3,0,0.5-0.1s0.2-0.2,0.3-0.3l0.3,0.2C68.6,112.9,68.2,113.1,67.7,113.1z M67.6,110.3
		c-0.2,0-0.4,0.1-0.5,0.2c-0.1,0.2-0.2,0.4-0.3,0.6h1.5v0c0-0.3-0.1-0.5-0.2-0.6C68,110.4,67.8,110.3,67.6,110.3z"/>
	<path class="st6" d="M71.4,113c0-0.1-0.1-0.2-0.1-0.3c-0.2,0.3-0.5,0.4-0.9,0.4c-0.3,0-0.5-0.1-0.7-0.3c-0.2-0.2-0.3-0.4-0.3-0.6
		c0-0.3,0.1-0.6,0.4-0.7c0.2-0.2,0.6-0.3,1-0.3h0.5v-0.2c0-0.2-0.1-0.3-0.2-0.4c-0.1-0.1-0.3-0.2-0.5-0.2c-0.2,0-0.3,0-0.5,0.1
		s-0.2,0.2-0.2,0.3h-0.5c0-0.2,0.1-0.3,0.2-0.4c0.1-0.1,0.3-0.3,0.4-0.3c0.2-0.1,0.4-0.1,0.6-0.1c0.4,0,0.6,0.1,0.8,0.3
		c0.2,0.2,0.3,0.4,0.3,0.7v1.4c0,0.3,0,0.5,0.1,0.7v0H71.4z M70.5,112.6c0.2,0,0.3,0,0.5-0.1c0.1-0.1,0.3-0.2,0.3-0.3v-0.6h-0.4
		c-0.6,0-1,0.2-1,0.6c0,0.2,0.1,0.3,0.2,0.4C70.2,112.6,70.3,112.6,70.5,112.6z"/>
	<path class="st6" d="M74.1,110.4c-0.1,0-0.2,0-0.3,0c-0.3,0-0.6,0.1-0.7,0.4v2.2h-0.5V110h0.5l0,0.4c0.2-0.3,0.4-0.4,0.7-0.4
		c0.1,0,0.2,0,0.2,0V110.4z"/>
	<path class="st6" d="M76.4,113c0-0.1-0.1-0.2-0.1-0.3c-0.2,0.3-0.5,0.4-0.9,0.4c-0.3,0-0.5-0.1-0.7-0.3c-0.2-0.2-0.3-0.4-0.3-0.6
		c0-0.3,0.1-0.6,0.4-0.7c0.2-0.2,0.6-0.3,1-0.3h0.5v-0.2c0-0.2-0.1-0.3-0.2-0.4c-0.1-0.1-0.3-0.2-0.5-0.2c-0.2,0-0.3,0-0.5,0.1
		c-0.1,0.1-0.2,0.2-0.2,0.3h-0.5c0-0.2,0.1-0.3,0.2-0.4c0.1-0.1,0.3-0.3,0.4-0.3c0.2-0.1,0.4-0.1,0.6-0.1c0.4,0,0.6,0.1,0.8,0.3
		c0.2,0.2,0.3,0.4,0.3,0.7v1.4c0,0.3,0,0.5,0.1,0.7v0H76.4z M75.5,112.6c0.2,0,0.3,0,0.5-0.1c0.1-0.1,0.3-0.2,0.3-0.3v-0.6h-0.4
		c-0.6,0-1,0.2-1,0.6c0,0.2,0.1,0.3,0.2,0.4C75.2,112.6,75.3,112.6,75.5,112.6z"/>
	<path class="st6" d="M78.1,110l0,0.4c0.2-0.3,0.5-0.4,0.9-0.4c0.6,0,1,0.4,1,1.1v2h-0.5v-2c0-0.2-0.1-0.4-0.2-0.5
		c-0.1-0.1-0.3-0.2-0.5-0.2c-0.2,0-0.3,0-0.4,0.1s-0.2,0.2-0.3,0.4v2.2h-0.5V110H78.1z"/>
	<path class="st6" d="M82,112.6c0.2,0,0.3-0.1,0.5-0.2c0.1-0.1,0.2-0.3,0.2-0.4h0.5c0,0.2-0.1,0.3-0.2,0.5c-0.1,0.2-0.3,0.3-0.4,0.4
		c-0.2,0.1-0.4,0.1-0.6,0.1c-0.4,0-0.7-0.1-1-0.4c-0.2-0.3-0.4-0.7-0.4-1.1v-0.1c0-0.3,0.1-0.6,0.2-0.8c0.1-0.2,0.3-0.4,0.5-0.5
		c0.2-0.1,0.4-0.2,0.7-0.2c0.3,0,0.6,0.1,0.9,0.3c0.2,0.2,0.3,0.5,0.4,0.8h-0.5c0-0.2-0.1-0.4-0.2-0.5c-0.1-0.1-0.3-0.2-0.5-0.2
		c-0.3,0-0.5,0.1-0.6,0.3c-0.1,0.2-0.2,0.5-0.2,0.8v0.1c0,0.4,0.1,0.6,0.2,0.8C81.5,112.5,81.8,112.6,82,112.6z"/>
	<path class="st6" d="M85.1,113.1c-0.4,0-0.7-0.1-1-0.4c-0.3-0.3-0.4-0.6-0.4-1.1v-0.1c0-0.3,0.1-0.6,0.2-0.8
		c0.1-0.2,0.3-0.4,0.5-0.6c0.2-0.1,0.4-0.2,0.7-0.2c0.4,0,0.7,0.1,0.9,0.4c0.2,0.3,0.3,0.6,0.3,1.1v0.2h-2.1c0,0.3,0.1,0.5,0.3,0.7
		c0.2,0.2,0.4,0.3,0.6,0.3c0.2,0,0.3,0,0.5-0.1s0.2-0.2,0.3-0.3l0.3,0.2C86,112.9,85.6,113.1,85.1,113.1z M85,110.3
		c-0.2,0-0.4,0.1-0.5,0.2c-0.1,0.2-0.2,0.4-0.3,0.6h1.5v0c0-0.3-0.1-0.5-0.2-0.6C85.4,110.4,85.2,110.3,85,110.3z"/>
	<path class="st6" d="M89.8,109.3h-1.3v3.7h-0.5v-3.7h-1.3v-0.4h3.2V109.3z"/>
	<path class="st6" d="M90.8,110.3c0.2-0.3,0.5-0.4,0.9-0.4c0.6,0,1,0.4,1,1.1v2h-0.5v-2c0-0.2-0.1-0.4-0.2-0.5
		c-0.1-0.1-0.3-0.2-0.5-0.2c-0.2,0-0.3,0-0.4,0.1s-0.2,0.2-0.3,0.4v2.2h-0.5v-4.3h0.5V110.3z"/>
	<path class="st6" d="M94.1,113h-0.5V110h0.5V113z M93.5,109.1c0-0.1,0-0.2,0.1-0.2c0.1-0.1,0.1-0.1,0.2-0.1c0.1,0,0.2,0,0.2,0.1
		c0.1,0.1,0.1,0.1,0.1,0.2c0,0.1,0,0.2-0.1,0.2c-0.1,0.1-0.1,0.1-0.2,0.1c-0.1,0-0.2,0-0.2-0.1C93.5,109.3,93.5,109.2,93.5,109.1z"
		/>
	<path class="st6" d="M96.7,112.2c0-0.1-0.1-0.2-0.2-0.3c-0.1-0.1-0.3-0.1-0.6-0.2c-0.3-0.1-0.5-0.1-0.6-0.2
		c-0.2-0.1-0.3-0.2-0.3-0.3c-0.1-0.1-0.1-0.2-0.1-0.4c0-0.2,0.1-0.5,0.3-0.6c0.2-0.2,0.5-0.3,0.8-0.3c0.3,0,0.6,0.1,0.8,0.3
		c0.2,0.2,0.3,0.4,0.3,0.7h-0.5c0-0.1-0.1-0.3-0.2-0.4c-0.1-0.1-0.3-0.2-0.5-0.2c-0.2,0-0.3,0-0.4,0.1c-0.1,0.1-0.2,0.2-0.2,0.3
		c0,0.1,0,0.2,0.1,0.3c0.1,0.1,0.3,0.1,0.5,0.2c0.3,0.1,0.5,0.1,0.6,0.2c0.2,0.1,0.3,0.2,0.4,0.3c0.1,0.1,0.1,0.3,0.1,0.4
		c0,0.3-0.1,0.5-0.3,0.7c-0.2,0.2-0.5,0.2-0.8,0.2c-0.2,0-0.5,0-0.6-0.1c-0.2-0.1-0.3-0.2-0.4-0.4c-0.1-0.2-0.2-0.3-0.2-0.5h0.5
		c0,0.2,0.1,0.3,0.2,0.4c0.1,0.1,0.3,0.2,0.5,0.2c0.2,0,0.4,0,0.5-0.1C96.6,112.4,96.7,112.3,96.7,112.2z"/>
	<path class="st6" d="M100,113h-0.5v-4.1h0.5V113z"/>
	<path class="st6" d="M102.7,112.2c0-0.1-0.1-0.2-0.2-0.3c-0.1-0.1-0.3-0.1-0.6-0.2c-0.3-0.1-0.5-0.1-0.6-0.2
		c-0.2-0.1-0.3-0.2-0.3-0.3c-0.1-0.1-0.1-0.2-0.1-0.4c0-0.2,0.1-0.5,0.3-0.6c0.2-0.2,0.5-0.3,0.8-0.3c0.3,0,0.6,0.1,0.8,0.3
		c0.2,0.2,0.3,0.4,0.3,0.7h-0.5c0-0.1-0.1-0.3-0.2-0.4c-0.1-0.1-0.3-0.2-0.5-0.2c-0.2,0-0.3,0-0.4,0.1c-0.1,0.1-0.2,0.2-0.2,0.3
		c0,0.1,0,0.2,0.1,0.3c0.1,0.1,0.3,0.1,0.5,0.2c0.3,0.1,0.5,0.1,0.6,0.2c0.2,0.1,0.3,0.2,0.4,0.3c0.1,0.1,0.1,0.3,0.1,0.4
		c0,0.3-0.1,0.5-0.3,0.7c-0.2,0.2-0.5,0.2-0.8,0.2c-0.2,0-0.5,0-0.6-0.1c-0.2-0.1-0.3-0.2-0.4-0.4c-0.1-0.2-0.2-0.3-0.2-0.5h0.5
		c0,0.2,0.1,0.3,0.2,0.4c0.1,0.1,0.3,0.2,0.5,0.2c0.2,0,0.4,0,0.5-0.1C102.6,112.4,102.7,112.3,102.7,112.2z"/>
	<path class="st6" d="M108.1,109.3h-1.3v3.7h-0.5v-3.7h-1.3v-0.4h3.2V109.3z"/>
	<path class="st6" d="M109.2,110.3c0.2-0.3,0.5-0.4,0.9-0.4c0.6,0,1,0.4,1,1.1v2h-0.5v-2c0-0.2-0.1-0.4-0.2-0.5
		c-0.1-0.1-0.3-0.2-0.5-0.2c-0.2,0-0.3,0-0.4,0.1c-0.1,0.1-0.2,0.2-0.3,0.4v2.2h-0.5v-4.3h0.5V110.3z"/>
	<path class="st6" d="M113.1,113.1c-0.4,0-0.8-0.1-1-0.4c-0.3-0.3-0.4-0.6-0.4-1.1v-0.1c0-0.3,0.1-0.6,0.2-0.8
		c0.1-0.2,0.3-0.4,0.5-0.6c0.2-0.1,0.4-0.2,0.7-0.2c0.4,0,0.7,0.1,0.9,0.4c0.2,0.3,0.3,0.6,0.3,1.1v0.2h-2.1c0,0.3,0.1,0.5,0.3,0.7
		c0.2,0.2,0.4,0.3,0.6,0.3c0.2,0,0.3,0,0.5-0.1c0.1-0.1,0.2-0.2,0.3-0.3l0.3,0.2C114,112.9,113.6,113.1,113.1,113.1z M113,110.3
		c-0.2,0-0.4,0.1-0.5,0.2c-0.1,0.2-0.2,0.4-0.3,0.6h1.5v0c0-0.3-0.1-0.5-0.2-0.6C113.4,110.4,113.2,110.3,113,110.3z"/>
	<path class="st6" d="M118.7,111.2h-1.7v1.8h-0.5v-4.1h2.5v0.4h-2v1.4h1.7V111.2z"/>
	<path class="st6" d="M120.1,113h-0.5V110h0.5V113z M119.5,109.1c0-0.1,0-0.2,0.1-0.2c0.1-0.1,0.1-0.1,0.2-0.1c0.1,0,0.2,0,0.2,0.1
		c0.1,0.1,0.1,0.1,0.1,0.2c0,0.1,0,0.2-0.1,0.2c-0.1,0.1-0.1,0.1-0.2,0.1c-0.1,0-0.2,0-0.2-0.1C119.5,109.3,119.5,109.2,119.5,109.1
		z"/>
	<path class="st6" d="M122.4,110.4c-0.1,0-0.2,0-0.3,0c-0.3,0-0.6,0.1-0.7,0.4v2.2h-0.5V110h0.5l0,0.4c0.2-0.3,0.4-0.4,0.7-0.4
		c0.1,0,0.2,0,0.2,0V110.4z"/>
	<path class="st6" d="M124.6,112.2c0-0.1-0.1-0.2-0.2-0.3c-0.1-0.1-0.3-0.1-0.6-0.2c-0.3-0.1-0.5-0.1-0.6-0.2
		c-0.2-0.1-0.3-0.2-0.3-0.3c-0.1-0.1-0.1-0.2-0.1-0.4c0-0.2,0.1-0.5,0.3-0.6c0.2-0.2,0.5-0.3,0.8-0.3c0.3,0,0.6,0.1,0.8,0.3
		c0.2,0.2,0.3,0.4,0.3,0.7h-0.5c0-0.1-0.1-0.3-0.2-0.4c-0.1-0.1-0.3-0.2-0.5-0.2c-0.2,0-0.3,0-0.4,0.1c-0.1,0.1-0.2,0.2-0.2,0.3
		c0,0.1,0,0.2,0.2,0.3c0.1,0.1,0.3,0.1,0.5,0.2c0.3,0.1,0.5,0.1,0.6,0.2c0.2,0.1,0.3,0.2,0.4,0.3c0.1,0.1,0.1,0.3,0.1,0.4
		c0,0.3-0.1,0.5-0.3,0.7c-0.2,0.2-0.5,0.2-0.8,0.2c-0.2,0-0.5,0-0.6-0.1c-0.2-0.1-0.3-0.2-0.4-0.4c-0.1-0.2-0.2-0.3-0.2-0.5h0.5
		c0,0.2,0.1,0.3,0.2,0.4c0.1,0.1,0.3,0.2,0.5,0.2c0.2,0,0.4,0,0.5-0.1C124.6,112.4,124.6,112.3,124.6,112.2z"/>
	<path class="st6" d="M126.5,109.2v0.7h0.6v0.4h-0.6v1.9c0,0.1,0,0.2,0.1,0.3c0.1,0.1,0.1,0.1,0.3,0.1c0.1,0,0.1,0,0.2,0v0.4
		c-0.1,0-0.3,0.1-0.4,0.1c-0.2,0-0.4-0.1-0.5-0.2c-0.1-0.1-0.2-0.3-0.2-0.6v-1.9h-0.6V110h0.6v-0.7H126.5z"/>
	<path class="st6" d="M129.8,113h-0.5v-4.1h0.5V113z"/>
	<path class="st6" d="M131.4,109.2v0.7h0.6v0.4h-0.6v1.9c0,0.1,0,0.2,0.1,0.3c0.1,0.1,0.1,0.1,0.3,0.1c0.1,0,0.1,0,0.2,0v0.4
		c-0.1,0-0.3,0.1-0.4,0.1c-0.2,0-0.4-0.1-0.5-0.2c-0.1-0.1-0.2-0.3-0.2-0.6v-1.9h-0.6V110h0.6v-0.7H131.4z"/>
	<path class="st6" d="M133.9,113.1c-0.4,0-0.8-0.1-1-0.4c-0.3-0.3-0.4-0.6-0.4-1.1v-0.1c0-0.3,0.1-0.6,0.2-0.8
		c0.1-0.2,0.3-0.4,0.5-0.6c0.2-0.1,0.4-0.2,0.7-0.2c0.4,0,0.7,0.1,0.9,0.4c0.2,0.3,0.3,0.6,0.3,1.1v0.2H133c0,0.3,0.1,0.5,0.3,0.7
		c0.2,0.2,0.4,0.3,0.6,0.3c0.2,0,0.3,0,0.5-0.1c0.1-0.1,0.2-0.2,0.3-0.3l0.3,0.2C134.8,112.9,134.4,113.1,133.9,113.1z M133.8,110.3
		c-0.2,0-0.4,0.1-0.5,0.2c-0.1,0.2-0.2,0.4-0.3,0.6h1.5v0c0-0.3-0.1-0.5-0.2-0.6C134.2,110.4,134,110.3,133.8,110.3z"/>
	<path class="st6" d="M136.2,110l0,0.3c0.2-0.3,0.5-0.4,0.9-0.4c0.4,0,0.7,0.2,0.9,0.5c0.1-0.1,0.2-0.3,0.4-0.4
		c0.2-0.1,0.4-0.1,0.6-0.1c0.7,0,1,0.4,1,1.1v2h-0.5v-2c0-0.2-0.1-0.4-0.1-0.5c-0.1-0.1-0.3-0.2-0.5-0.2c-0.2,0-0.4,0.1-0.5,0.2
		c-0.1,0.1-0.2,0.3-0.2,0.5v2h-0.5v-2c0-0.4-0.2-0.7-0.7-0.7c-0.3,0-0.6,0.1-0.7,0.4v2.2h-0.5V110H136.2z"/>
	<path class="st6" d="M140.8,109l-0.1,1h-0.4l0-1.4h0.4V109z"/>
	<path class="st6" d="M143,112.2c0-0.1-0.1-0.2-0.2-0.3c-0.1-0.1-0.3-0.1-0.6-0.2c-0.3-0.1-0.5-0.1-0.6-0.2
		c-0.2-0.1-0.3-0.2-0.3-0.3c-0.1-0.1-0.1-0.2-0.1-0.4c0-0.2,0.1-0.5,0.3-0.6c0.2-0.2,0.5-0.3,0.8-0.3c0.3,0,0.6,0.1,0.8,0.3
		c0.2,0.2,0.3,0.4,0.3,0.7H143c0-0.1-0.1-0.3-0.2-0.4c-0.1-0.1-0.3-0.2-0.5-0.2c-0.2,0-0.3,0-0.4,0.1c-0.1,0.1-0.2,0.2-0.2,0.3
		c0,0.1,0,0.2,0.1,0.3c0.1,0.1,0.3,0.1,0.5,0.2c0.3,0.1,0.5,0.1,0.6,0.2c0.2,0.1,0.3,0.2,0.4,0.3c0.1,0.1,0.1,0.3,0.1,0.4
		c0,0.3-0.1,0.5-0.3,0.7c-0.2,0.2-0.5,0.2-0.8,0.2c-0.2,0-0.5,0-0.6-0.1c-0.2-0.1-0.3-0.2-0.4-0.4c-0.1-0.2-0.2-0.3-0.2-0.5h0.5
		c0,0.2,0.1,0.3,0.2,0.4c0.1,0.1,0.3,0.2,0.5,0.2c0.2,0,0.4,0,0.5-0.1C143,112.4,143,112.3,143,112.2z"/>
	<path class="st6" d="M148,111.9h-1.7l-0.4,1.1h-0.6l1.6-4.1h0.5l1.6,4.1h-0.6L148,111.9z M146.4,111.5h1.4l-0.7-1.9L146.4,111.5z"
		/>
	<path class="st6" d="M150.6,112.6c0.2,0,0.3-0.1,0.5-0.2c0.1-0.1,0.2-0.3,0.2-0.4h0.5c0,0.2-0.1,0.3-0.2,0.5
		c-0.1,0.2-0.3,0.3-0.4,0.4c-0.2,0.1-0.4,0.1-0.6,0.1c-0.4,0-0.7-0.1-1-0.4c-0.2-0.3-0.4-0.7-0.4-1.1v-0.1c0-0.3,0.1-0.6,0.2-0.8
		c0.1-0.2,0.3-0.4,0.5-0.5c0.2-0.1,0.4-0.2,0.7-0.2c0.3,0,0.6,0.1,0.9,0.3c0.2,0.2,0.3,0.5,0.4,0.8h-0.5c0-0.2-0.1-0.4-0.2-0.5
		c-0.1-0.1-0.3-0.2-0.5-0.2c-0.3,0-0.5,0.1-0.6,0.3c-0.1,0.2-0.2,0.5-0.2,0.8v0.1c0,0.4,0.1,0.6,0.2,0.8
		C150.2,112.5,150.4,112.6,150.6,112.6z"/>
	<path class="st6" d="M153.7,112.6c0.2,0,0.3-0.1,0.5-0.2c0.1-0.1,0.2-0.3,0.2-0.4h0.5c0,0.2-0.1,0.3-0.2,0.5
		c-0.1,0.2-0.3,0.3-0.4,0.4c-0.2,0.1-0.4,0.1-0.6,0.1c-0.4,0-0.7-0.1-1-0.4c-0.2-0.3-0.4-0.7-0.4-1.1v-0.1c0-0.3,0.1-0.6,0.2-0.8
		c0.1-0.2,0.3-0.4,0.5-0.5c0.2-0.1,0.4-0.2,0.7-0.2c0.3,0,0.6,0.1,0.9,0.3c0.2,0.2,0.3,0.5,0.4,0.8h-0.5c0-0.2-0.1-0.4-0.2-0.5
		c-0.1-0.1-0.3-0.2-0.5-0.2c-0.3,0-0.5,0.1-0.6,0.3c-0.1,0.2-0.2,0.5-0.2,0.8v0.1c0,0.4,0.1,0.6,0.2,0.8
		C153.2,112.5,153.4,112.6,153.7,112.6z"/>
	<path class="st6" d="M155.3,111.5c0-0.3,0.1-0.6,0.2-0.8c0.1-0.2,0.3-0.4,0.5-0.6c0.2-0.1,0.4-0.2,0.7-0.2c0.4,0,0.8,0.1,1,0.4
		c0.3,0.3,0.4,0.7,0.4,1.1v0c0,0.3-0.1,0.6-0.2,0.8c-0.1,0.2-0.3,0.4-0.5,0.5c-0.2,0.1-0.5,0.2-0.7,0.2c-0.4,0-0.7-0.1-1-0.4
		C155.4,112.3,155.3,112,155.3,111.5L155.3,111.5z M155.8,111.5c0,0.3,0.1,0.6,0.2,0.8c0.2,0.2,0.4,0.3,0.6,0.3
		c0.3,0,0.5-0.1,0.6-0.3c0.2-0.2,0.2-0.5,0.2-0.9c0-0.3-0.1-0.6-0.2-0.8c-0.2-0.2-0.4-0.3-0.6-0.3c-0.3,0-0.5,0.1-0.6,0.3
		C155.9,110.8,155.8,111.1,155.8,111.5z"/>
	<path class="st6" d="M160.2,110.4c-0.1,0-0.2,0-0.3,0c-0.3,0-0.6,0.1-0.7,0.4v2.2h-0.5V110h0.5l0,0.4c0.2-0.3,0.4-0.4,0.7-0.4
		c0.1,0,0.2,0,0.2,0V110.4z"/>
	<path class="st6" d="M160.5,111.5c0-0.5,0.1-0.8,0.3-1.1c0.2-0.3,0.5-0.4,0.9-0.4c0.4,0,0.6,0.1,0.8,0.4v-1.6h0.5v4.3h-0.5l0-0.3
		c-0.2,0.3-0.5,0.4-0.9,0.4c-0.4,0-0.6-0.1-0.9-0.4C160.6,112.3,160.5,112,160.5,111.5L160.5,111.5z M161,111.5
		c0,0.3,0.1,0.6,0.2,0.8c0.1,0.2,0.3,0.3,0.6,0.3c0.3,0,0.6-0.1,0.7-0.4v-1.4c-0.2-0.3-0.4-0.4-0.7-0.4c-0.3,0-0.5,0.1-0.6,0.3
		C161.1,110.8,161,111.1,161,111.5z"/>
	<path class="st6" d="M164.5,113H164V110h0.5V113z M163.9,109.1c0-0.1,0-0.2,0.1-0.2c0.1-0.1,0.1-0.1,0.2-0.1c0.1,0,0.2,0,0.2,0.1
		c0.1,0.1,0.1,0.1,0.1,0.2c0,0.1,0,0.2-0.1,0.2c-0.1,0.1-0.1,0.1-0.2,0.1c-0.1,0-0.2,0-0.2-0.1C163.9,109.3,163.9,109.2,163.9,109.1
		z"/>
	<path class="st6" d="M165.2,111.5c0-0.3,0.1-0.6,0.2-0.8c0.1-0.2,0.3-0.4,0.5-0.6c0.2-0.1,0.5-0.2,0.7-0.2c0.4,0,0.8,0.1,1,0.4
		c0.3,0.3,0.4,0.7,0.4,1.1v0c0,0.3-0.1,0.6-0.2,0.8c-0.1,0.2-0.3,0.4-0.5,0.5c-0.2,0.1-0.5,0.2-0.7,0.2c-0.4,0-0.7-0.1-1-0.4
		C165.3,112.3,165.2,112,165.2,111.5L165.2,111.5z M165.7,111.5c0,0.3,0.1,0.6,0.2,0.8c0.2,0.2,0.4,0.3,0.6,0.3
		c0.3,0,0.5-0.1,0.6-0.3c0.2-0.2,0.2-0.5,0.2-0.9c0-0.3-0.1-0.6-0.2-0.8c-0.2-0.2-0.4-0.3-0.6-0.3c-0.3,0-0.5,0.1-0.6,0.3
		C165.8,110.8,165.7,111.1,165.7,111.5z"/>
	<path class="st6" d="M169.1,110l0,0.4c0.2-0.3,0.5-0.4,0.9-0.4c0.6,0,1,0.4,1,1.1v2h-0.5v-2c0-0.2-0.1-0.4-0.2-0.5
		c-0.1-0.1-0.3-0.2-0.5-0.2c-0.2,0-0.3,0-0.4,0.1c-0.1,0.1-0.2,0.2-0.3,0.4v2.2h-0.5V110H169.1z"/>
	<path class="st6" d="M173.3,113v-4.1h1.3c0.4,0,0.8,0.1,1,0.3c0.2,0.2,0.3,0.5,0.3,0.8c0,0.2-0.1,0.4-0.2,0.5
		c-0.1,0.1-0.3,0.3-0.4,0.3c0.2,0.1,0.4,0.2,0.5,0.4c0.1,0.2,0.2,0.4,0.2,0.6c0,0.4-0.1,0.7-0.4,0.9c-0.2,0.2-0.6,0.3-1,0.3H173.3z
		 M173.8,111.1v1.5h0.9c0.3,0,0.4-0.1,0.6-0.2c0.1-0.1,0.2-0.3,0.2-0.5c0-0.5-0.3-0.7-0.8-0.7H173.8z M173.8,110.7h0.8
		c0.2,0,0.4-0.1,0.6-0.2c0.1-0.1,0.2-0.3,0.2-0.5c0-0.2-0.1-0.4-0.2-0.5c-0.1-0.1-0.3-0.2-0.6-0.2h-0.8V110.7z"/>
	<path class="st6" d="M176.7,111.5c0-0.3,0.1-0.6,0.2-0.8c0.1-0.2,0.3-0.4,0.5-0.6c0.2-0.1,0.5-0.2,0.7-0.2c0.4,0,0.8,0.1,1,0.4
		c0.3,0.3,0.4,0.7,0.4,1.1v0c0,0.3-0.1,0.6-0.2,0.8c-0.1,0.2-0.3,0.4-0.5,0.5c-0.2,0.1-0.5,0.2-0.7,0.2c-0.4,0-0.7-0.1-1-0.4
		C176.8,112.3,176.7,112,176.7,111.5L176.7,111.5z M177.2,111.5c0,0.3,0.1,0.6,0.2,0.8c0.2,0.2,0.4,0.3,0.6,0.3
		c0.3,0,0.5-0.1,0.6-0.3c0.2-0.2,0.2-0.5,0.2-0.9c0-0.3-0.1-0.6-0.2-0.8c-0.2-0.2-0.4-0.3-0.6-0.3c-0.3,0-0.5,0.1-0.6,0.3
		C177.3,110.8,177.2,111.1,177.2,111.5z"/>
	<path class="st6" d="M180,111.5c0-0.5,0.1-0.8,0.3-1.1c0.2-0.3,0.5-0.4,0.9-0.4c0.4,0,0.6,0.1,0.8,0.4v-1.6h0.5v4.3h-0.5l0-0.3
		c-0.2,0.3-0.5,0.4-0.9,0.4c-0.4,0-0.6-0.1-0.9-0.4C180.1,112.3,180,112,180,111.5L180,111.5z M180.5,111.5c0,0.3,0.1,0.6,0.2,0.8
		c0.1,0.2,0.3,0.3,0.6,0.3c0.3,0,0.6-0.1,0.7-0.4v-1.4c-0.2-0.3-0.4-0.4-0.7-0.4c-0.3,0-0.5,0.1-0.6,0.3
		C180.6,110.8,180.5,111.1,180.5,111.5z"/>
	<path class="st6" d="M184.4,112.2l0.7-2.3h0.6l-1.2,3.5c-0.2,0.5-0.5,0.8-0.9,0.8l-0.1,0l-0.2,0v-0.4l0.1,0c0.2,0,0.3,0,0.4-0.1
		c0.1-0.1,0.2-0.2,0.2-0.4l0.1-0.3l-1.1-3h0.6L184.4,112.2z"/>
	<path class="st6" d="M185.8,112.7c0-0.1,0-0.2,0.1-0.2c0.1-0.1,0.1-0.1,0.2-0.1c0.1,0,0.2,0,0.2,0.1c0.1,0.1,0.1,0.1,0.1,0.2
		c0,0.1,0,0.2-0.1,0.2c-0.1,0.1-0.1,0.1-0.2,0.1c-0.1,0-0.2,0-0.2-0.1C185.8,112.9,185.8,112.8,185.8,112.7z"/>
	<path class="st3" d="M295.1,59.6H24.9v-0.4h270.3V59.6z"/>
	<path class="st4" d="M41.6,50.2h-0.9l-0.8-2.9c0-0.1-0.1-0.3-0.1-0.5c-0.1-0.2-0.1-0.4-0.1-0.5c0,0.1-0.1,0.3-0.1,0.6
		c0,0.2-0.1,0.4-0.1,0.5l-0.8,2.9h-0.9l-0.6-2.5l-0.6-2.4h0.8l0.7,2.9c0.1,0.5,0.2,0.9,0.2,1.2c0-0.2,0.1-0.4,0.1-0.6
		c0-0.2,0.1-0.4,0.1-0.6l0.8-2.9H40l0.8,2.9c0.1,0.3,0.2,0.7,0.2,1.2c0-0.3,0.1-0.7,0.2-1.2l0.7-2.8h0.8L41.6,50.2z"/>
	<path class="st4" d="M46.7,50.2h-0.8v-2.3c0-0.3-0.1-0.5-0.2-0.6c-0.1-0.1-0.3-0.2-0.5-0.2c-0.3,0-0.6,0.1-0.7,0.3
		c-0.2,0.2-0.2,0.5-0.2,1v1.8h-0.8V45h0.8v1.3c0,0.2,0,0.4,0,0.7h0.1c0.1-0.2,0.3-0.3,0.4-0.4c0.2-0.1,0.4-0.1,0.7-0.1
		c0.9,0,1.3,0.5,1.3,1.4V50.2z"/>
	<path class="st4" d="M50.1,50.2L50,49.7h0c-0.2,0.2-0.4,0.4-0.5,0.5c-0.2,0.1-0.4,0.1-0.7,0.1c-0.4,0-0.6-0.1-0.9-0.3
		c-0.2-0.2-0.3-0.5-0.3-0.8c0-0.4,0.1-0.7,0.4-0.9c0.3-0.2,0.7-0.3,1.3-0.3l0.6,0v-0.2c0-0.2-0.1-0.4-0.2-0.5
		c-0.1-0.1-0.3-0.2-0.5-0.2c-0.2,0-0.4,0-0.5,0.1c-0.2,0.1-0.3,0.1-0.5,0.2l-0.3-0.6c0.2-0.1,0.4-0.2,0.7-0.2
		c0.2-0.1,0.5-0.1,0.7-0.1c0.5,0,0.8,0.1,1.1,0.3c0.2,0.2,0.4,0.5,0.4,1v2.5H50.1z M49,49.7c0.3,0,0.5-0.1,0.7-0.2
		c0.2-0.2,0.3-0.4,0.3-0.7v-0.3l-0.5,0c-0.4,0-0.6,0.1-0.8,0.2c-0.2,0.1-0.3,0.3-0.3,0.5c0,0.2,0,0.3,0.1,0.4
		C48.6,49.6,48.8,49.7,49,49.7z"/>
	<path class="st4" d="M53.2,49.6c0.2,0,0.4,0,0.6-0.1v0.6c-0.1,0-0.2,0.1-0.3,0.1c-0.1,0-0.3,0-0.4,0c-0.7,0-1.1-0.4-1.1-1.2v-2
		h-0.5v-0.3l0.5-0.3l0.3-0.8h0.5v0.8h1.1v0.6h-1.1v2c0,0.2,0,0.3,0.1,0.4C52.9,49.6,53,49.6,53.2,49.6z"/>
	<path class="st4" d="M58.4,45.9c-0.5,0-0.8,0.2-1.1,0.5c-0.3,0.3-0.4,0.8-0.4,1.3c0,0.6,0.1,1.1,0.4,1.4c0.3,0.3,0.6,0.5,1.1,0.5
		c0.2,0,0.4,0,0.6-0.1c0.2,0,0.4-0.1,0.6-0.2v0.7c-0.4,0.1-0.8,0.2-1.3,0.2c-0.7,0-1.3-0.2-1.7-0.6c-0.4-0.4-0.6-1.1-0.6-1.9
		c0-0.5,0.1-1,0.3-1.3c0.2-0.4,0.5-0.7,0.8-0.9c0.4-0.2,0.8-0.3,1.2-0.3c0.5,0,1,0.1,1.4,0.3l-0.3,0.7c-0.2-0.1-0.3-0.1-0.5-0.2
		C58.8,46,58.6,45.9,58.4,45.9z"/>
	<path class="st4" d="M62.9,50.2l-0.2-0.5h0c-0.2,0.2-0.4,0.4-0.5,0.5c-0.2,0.1-0.4,0.1-0.7,0.1c-0.4,0-0.6-0.1-0.9-0.3
		c-0.2-0.2-0.3-0.5-0.3-0.8c0-0.4,0.1-0.7,0.4-0.9c0.3-0.2,0.7-0.3,1.3-0.3l0.6,0v-0.2c0-0.2-0.1-0.4-0.2-0.5
		C62.4,47.1,62.3,47,62,47c-0.2,0-0.4,0-0.5,0.1c-0.2,0.1-0.3,0.1-0.5,0.2l-0.3-0.6c0.2-0.1,0.4-0.2,0.7-0.2
		c0.2-0.1,0.5-0.1,0.7-0.1c0.5,0,0.8,0.1,1.1,0.3c0.2,0.2,0.4,0.5,0.4,1v2.5H62.9z M61.8,49.7c0.3,0,0.5-0.1,0.7-0.2
		c0.2-0.2,0.3-0.4,0.3-0.7v-0.3l-0.5,0c-0.4,0-0.6,0.1-0.8,0.2c-0.2,0.1-0.3,0.3-0.3,0.5c0,0.2,0,0.3,0.1,0.4
		C61.4,49.6,61.6,49.7,61.8,49.7z"/>
	<path class="st4" d="M67.8,50.2h-0.8v-2.3c0-0.3-0.1-0.5-0.2-0.6c-0.1-0.1-0.3-0.2-0.5-0.2c-0.3,0-0.6,0.1-0.7,0.3s-0.2,0.5-0.2,1
		v1.8h-0.8v-3.7h0.6l0.1,0.5h0c0.1-0.2,0.3-0.3,0.5-0.4s0.4-0.1,0.7-0.1c0.9,0,1.3,0.5,1.3,1.4V50.2z"/>
	<path class="st4" d="M72.2,47.6l1.2-2.2h0.9l-1.6,3v1.9h-0.8v-1.9l-1.6-3H71L72.2,47.6z"/>
	<path class="st4" d="M78.1,48.4c0,0.6-0.2,1.1-0.5,1.4c-0.3,0.3-0.7,0.5-1.3,0.5c-0.3,0-0.7-0.1-0.9-0.2s-0.5-0.4-0.6-0.7
		c-0.1-0.3-0.2-0.6-0.2-1c0-0.6,0.2-1.1,0.5-1.4c0.3-0.3,0.7-0.5,1.3-0.5c0.5,0,1,0.2,1.3,0.5C77.9,47.3,78.1,47.8,78.1,48.4z
		 M75.4,48.4c0,0.9,0.3,1.3,0.9,1.3c0.6,0,0.9-0.4,0.9-1.3c0-0.8-0.3-1.3-0.9-1.3c-0.3,0-0.6,0.1-0.7,0.3
		C75.4,47.6,75.4,47.9,75.4,48.4z"/>
	<path class="st4" d="M81.6,50.2l-0.1-0.5h0c-0.1,0.2-0.3,0.3-0.5,0.4c-0.2,0.1-0.4,0.1-0.7,0.1c-0.4,0-0.8-0.1-1-0.3
		c-0.2-0.2-0.3-0.6-0.3-1v-2.4h0.8v2.3c0,0.3,0.1,0.5,0.2,0.6c0.1,0.1,0.3,0.2,0.5,0.2c0.3,0,0.6-0.1,0.7-0.3c0.2-0.2,0.2-0.5,0.2-1
		v-1.8h0.8v3.7H81.6z"/>
	<path class="st4" d="M89,50.2h-0.8V48H86v2.2h-0.8v-4.9H86v2h2.3v-2H89V50.2z"/>
	<path class="st4" d="M91.9,50.3c-0.6,0-1-0.2-1.4-0.5C90.2,49.4,90,49,90,48.4c0-0.6,0.2-1.1,0.5-1.4c0.3-0.3,0.7-0.5,1.2-0.5
		c0.5,0,0.9,0.1,1.2,0.4c0.3,0.3,0.4,0.7,0.4,1.2v0.4h-2.5c0,0.4,0.1,0.6,0.3,0.8c0.2,0.2,0.4,0.3,0.8,0.3c0.2,0,0.4,0,0.6-0.1
		c0.2,0,0.4-0.1,0.6-0.2V50c-0.2,0.1-0.4,0.2-0.6,0.2C92.3,50.3,92.1,50.3,91.9,50.3z M91.7,47c-0.2,0-0.5,0.1-0.6,0.2
		c-0.1,0.2-0.2,0.4-0.3,0.7h1.7c0-0.3-0.1-0.5-0.2-0.7C92.2,47.1,92,47,91.7,47z"/>
	<path class="st4" d="M95,50.2h-0.8V45H95V50.2z"/>
	<path class="st4" d="M98,50.3c-0.5,0-0.8-0.2-1.1-0.5h0c0,0.3,0,0.5,0,0.6v1.5h-0.8v-5.3h0.6c0,0.1,0.1,0.2,0.1,0.5h0
		c0.2-0.4,0.6-0.6,1.1-0.6c0.5,0,0.8,0.2,1.1,0.5c0.3,0.3,0.4,0.8,0.4,1.4c0,0.6-0.1,1.1-0.4,1.4C98.8,50.1,98.5,50.3,98,50.3z
		 M97.8,47.1c-0.3,0-0.5,0.1-0.7,0.3c-0.1,0.2-0.2,0.5-0.2,0.9v0.1c0,0.5,0.1,0.8,0.2,1c0.1,0.2,0.4,0.3,0.7,0.3
		c0.3,0,0.5-0.1,0.6-0.3c0.1-0.2,0.2-0.5,0.2-1c0-0.4-0.1-0.7-0.2-0.9C98.3,47.2,98.1,47.1,97.8,47.1z"/>
	<path class="st4" d="M104.4,50.2l-1.4-4.1h0c0,0.6,0.1,1.2,0.1,1.7v2.4h-0.7v-4.9h1.1l1.4,3.9h0l1.4-3.9h1.1v4.9h-0.8v-2.4
		c0-0.2,0-0.6,0-1c0-0.4,0-0.6,0-0.7h0l-1.5,4.1H104.4z"/>
	<path class="st4" d="M110.1,50.3c-0.6,0-1-0.2-1.4-0.5c-0.3-0.3-0.5-0.8-0.5-1.4c0-0.6,0.2-1.1,0.5-1.4c0.3-0.3,0.7-0.5,1.2-0.5
		c0.5,0,0.9,0.1,1.2,0.4c0.3,0.3,0.4,0.7,0.4,1.2v0.4h-2.5c0,0.4,0.1,0.6,0.3,0.8c0.2,0.2,0.4,0.3,0.8,0.3c0.2,0,0.4,0,0.6-0.1
		c0.2,0,0.4-0.1,0.6-0.2V50c-0.2,0.1-0.4,0.2-0.6,0.2C110.6,50.3,110.4,50.3,110.1,50.3z M110,47c-0.2,0-0.5,0.1-0.6,0.2
		c-0.2,0.2-0.2,0.4-0.3,0.7h1.7c0-0.3-0.1-0.5-0.2-0.7C110.4,47.1,110.2,47,110,47z"/>
	<path class="st4" d="M118.8,50.2H118l-0.8-2.9c0-0.1-0.1-0.3-0.1-0.5c-0.1-0.2-0.1-0.4-0.1-0.5c0,0.1-0.1,0.3-0.1,0.6
		c0,0.2-0.1,0.4-0.1,0.5l-0.8,2.9H115l-0.6-2.5l-0.6-2.4h0.8l0.7,2.9c0.1,0.5,0.2,0.9,0.2,1.2c0-0.2,0.1-0.4,0.1-0.6
		c0-0.2,0.1-0.4,0.1-0.6l0.8-2.9h0.8l0.8,2.9c0.1,0.3,0.2,0.7,0.2,1.2c0-0.3,0.1-0.7,0.2-1.2l0.7-2.8h0.8L118.8,50.2z"/>
	<path class="st4" d="M121.5,50.2h-0.8v-3.7h0.8V50.2z M120.7,45.5c0-0.1,0-0.2,0.1-0.3c0.1-0.1,0.2-0.1,0.3-0.1
		c0.1,0,0.2,0,0.3,0.1c0.1,0.1,0.1,0.2,0.1,0.3c0,0.1,0,0.2-0.1,0.3c-0.1,0.1-0.2,0.1-0.3,0.1c-0.1,0-0.3,0-0.3-0.1
		C120.7,45.8,120.7,45.7,120.7,45.5z"/>
	<path class="st4" d="M124,49.6c0.2,0,0.4,0,0.6-0.1v0.6c-0.1,0-0.2,0.1-0.3,0.1c-0.1,0-0.3,0-0.4,0c-0.7,0-1.1-0.4-1.1-1.2v-2h-0.5
		v-0.3l0.5-0.3l0.3-0.8h0.5v0.8h1.1v0.6h-1.1v2c0,0.2,0,0.3,0.1,0.4C123.7,49.6,123.9,49.6,124,49.6z"/>
	<path class="st4" d="M128.6,50.2h-0.8v-2.3c0-0.3-0.1-0.5-0.2-0.6c-0.1-0.1-0.3-0.2-0.5-0.2c-0.3,0-0.6,0.1-0.7,0.3
		c-0.2,0.2-0.2,0.5-0.2,1v1.8h-0.8V45h0.8v1.3c0,0.2,0,0.4,0,0.7h0c0.1-0.2,0.3-0.3,0.4-0.4c0.2-0.1,0.4-0.1,0.7-0.1
		c0.9,0,1.3,0.5,1.3,1.4V50.2z"/>
	<path class="st4" d="M130.1,48.7v-0.2c0-0.2,0-0.4,0.1-0.6c0.1-0.2,0.2-0.3,0.5-0.5c0.3-0.2,0.4-0.4,0.5-0.5
		c0.1-0.1,0.1-0.3,0.1-0.4c0-0.2-0.1-0.3-0.2-0.4c-0.1-0.1-0.3-0.2-0.5-0.2c-0.2,0-0.4,0-0.6,0.1c-0.2,0.1-0.4,0.1-0.5,0.2l-0.3-0.6
		c0.5-0.3,0.9-0.4,1.5-0.4c0.4,0,0.8,0.1,1,0.3c0.3,0.2,0.4,0.5,0.4,0.9c0,0.2,0,0.3-0.1,0.4c0,0.1-0.1,0.3-0.2,0.4
		c-0.1,0.1-0.3,0.3-0.5,0.5c-0.2,0.2-0.3,0.3-0.4,0.4c-0.1,0.1-0.1,0.3-0.1,0.4v0.2H130.1z M129.9,49.8c0-0.3,0.2-0.5,0.5-0.5
		c0.2,0,0.3,0,0.4,0.1c0.1,0.1,0.1,0.2,0.1,0.4c0,0.2,0,0.3-0.1,0.4c-0.1,0.1-0.2,0.1-0.4,0.1c-0.2,0-0.3,0-0.4-0.1
		C130,50.1,129.9,50,129.9,49.8z"/>
	<path class="st7" d="M277,46.9c0.1-0.1,0.4-0.1,0.5,0l1.9,1.9l1.9-1.9c0.1-0.1,0.4-0.1,0.5,0s0.1,0.4,0,0.5l-2.2,2.2
		c-0.1,0.1-0.4,0.1-0.5,0l-2.2-2.2C276.9,47.3,276.9,47,277,46.9z"/>
</g>
</svg>
