<?xml version="1.0" encoding="utf-8"?>
<!-- Generator: Adobe Illustrator 25.2.1, SVG Export Plug-In . SVG Version: 6.00 Build 0)  -->
<svg version="1.1" id="Layer_1" xmlns="http://www.w3.org/2000/svg" xmlns:xlink="http://www.w3.org/1999/xlink" x="0px" y="0px"
	 viewBox="0 0 145 110" style="enable-background:new 0 0 145 110;" xml:space="preserve">
<style type="text/css">
	.st0{fill:#EFEFEF;}
	.st1{fill:#FFFFFF;}
	.st2{fill:#ECEEEF;}
	.st3{fill:#0066FF;}
	.st4{fill:#CCCCCC;}
	.st5{fill:none;stroke:#FFFFFF;stroke-width:0.7452;stroke-linecap:round;stroke-linejoin:round;}
</style>
<g>
	<rect x="0" y="0" class="st0" width="145" height="110"/>
	<path class="st1" d="M10,94V16c0-3.3,2.7-6,6-6h113c3.3,0,6,2.7,6,6v78c0,3.3-2.7,6-6,6H16C12.7,100,10,97.3,10,94z"/>
	<path class="st2" d="M123.4,62.6H21.5c-1.1,0-2-0.9-2-2V49.4c0-1.1,0.9-2,2-2h101.9c1.1,0,2,0.9,2,2v11.1
		C125.4,61.7,124.5,62.6,123.4,62.6z"/>
	<path class="st3" d="M123.4,62.6h-13.1V47.4h13.1c1.1,0,2,0.9,2,2v11.1C125.4,61.7,124.5,62.6,123.4,62.6z"/>
	<path class="st4" d="M75.7,56.2H26.8c-0.7,0-1.2-0.6-1.2-1.2l0,0c0-0.7,0.6-1.2,1.2-1.2h48.9c0.7,0,1.2,0.6,1.2,1.2l0,0
		C76.9,55.7,76.3,56.2,75.7,56.2z"/>
	<g>
		<circle class="st5" cx="117.5" cy="54.6" r="3"/>
		<line class="st5" x1="121.2" y1="58.4" x2="119.6" y2="56.7"/>
	</g>
</g>
</svg>
