<?xml version="1.0" encoding="utf-8"?>
<!-- Generator: Adobe Illustrator 25.2.1, SVG Export Plug-In . SVG Version: 6.00 Build 0)  -->
<svg version="1.1" id="Layer_1" xmlns="http://www.w3.org/2000/svg" xmlns:xlink="http://www.w3.org/1999/xlink" x="0px" y="0px"
	 viewBox="0 0 145 110" style="enable-background:new 0 0 145 110;" xml:space="preserve">
<style type="text/css">
	.st0{fill:#EFEFEF;}
	.st1{fill:#FFFFFF;}
	.st2{fill:none;stroke:#0066FF;stroke-width:1.252;stroke-linecap:round;stroke-linejoin:round;}
	.st3{fill:none;stroke:#0066FF;stroke-linecap:round;stroke-linejoin:round;}
	.st4{fill:#A7BBD3;}
</style>
<g>
	<rect x="0" y="0" class="st0" width="145" height="110"/>
	<path class="st1" d="M10,94V16c0-3.3,2.7-6,6-6h113c3.3,0,6,2.7,6,6v78c0,3.3-2.7,6-6,6H16C12.7,100,10,97.3,10,94z"/>
	<g>
		<g>
			<g>
				<circle class="st2" cx="117.9" cy="50.9" r="4.9"/>
				<line class="st2" x1="124.1" y1="57" x2="121.4" y2="54.3"/>
			</g>
		</g>
		<line class="st3" x1="20.9" y1="64" x2="124.1" y2="64"/>
		<path class="st4" d="M22.4,53h65.2c0.8,0,1.5-0.7,1.5-1.5v0c0-0.8-0.7-1.5-1.5-1.5H22.4c-0.8,0-1.5,0.7-1.5,1.5v0
			C20.9,52.3,21.6,53,22.4,53z"/>
	</g>
</g>
</svg>
