<?xml version="1.0" encoding="utf-8"?>
<!-- Generator: Adobe Illustrator 25.2.1, SVG Export Plug-In . SVG Version: 6.00 Build 0)  -->
<svg version="1.1" id="Layer_1" xmlns="http://www.w3.org/2000/svg" xmlns:xlink="http://www.w3.org/1999/xlink" x="0px" y="0px"
	 viewBox="0 0 145 110" style="enable-background:new 0 0 145 110;" xml:space="preserve">
<style type="text/css">
	.st0{fill:#EFEFEF;}
	.st1{fill:#FFFFFF;}
	.st2{fill:#0066FF;}
	.st3{fill:#C9C9C9;}
	.st4{opacity:0.2;fill:#001028;}
</style>
<g>
	<rect x="0" y="0" class="st0" width="145" height="110"/>
	<path class="st1" d="M10,94V16c0-3.3,2.7-6,6-6h113c3.3,0,6,2.7,6,6v78c0,3.3-2.7,6-6,6H16C12.7,100,10,97.3,10,94z"/>
	<path class="st0" d="M123.5,35.1H21.5c-1.1,0-2-0.9-2-2V22c0-1.1,0.9-2,2-2h101.9c1.1,0,2,0.9,2,2v11.1
		C125.5,34.2,124.6,35.1,123.5,35.1z"/>
	<path class="st2" d="M29.5,25.6H45c1.1,0,2,0.9,2,2v0c0,1.1-0.9,2-2,2H29.5c-1.1,0-2-0.9-2-2v0C27.5,26.5,28.4,25.6,29.5,25.6z"/>
	<path class="st3" d="M53,25.6h15.5c1.1,0,2,0.9,2,2v0c0,1.1-0.9,2-2,2H53c-1.1,0-2-0.9-2-2v0C51,26.5,51.9,25.6,53,25.6z"/>
	<path class="st3" d="M76.5,25.6H92c1.1,0,2,0.9,2,2v0c0,1.1-0.9,2-2,2H76.5c-1.1,0-2-0.9-2-2v0C74.5,26.5,75.4,25.6,76.5,25.6z"/>
	<path class="st3" d="M100,25.6h15.5c1.1,0,2,0.9,2,2v0c0,1.1-0.9,2-2,2H100c-1.1,0-2-0.9-2-2v0C98,26.5,98.9,25.6,100,25.6z"/>
	<g>
		<g>
			<path class="st0" d="M50.5,79H20.4c-0.7,0-1.2-0.5-1.2-1.2V40.3c0-0.7,0.5-1.2,1.2-1.2h30.1c0.7,0,1.2,0.5,1.2,1.2v37.5
				C51.7,78.5,51.2,79,50.5,79z"/>
			<g>
				<path class="st4" d="M26,44.7h12.8c0.7,0,1.2,0.6,1.2,1.2v0c0,0.7-0.6,1.2-1.2,1.2H26c-0.7,0-1.2-0.6-1.2-1.2v0
					C24.8,45.3,25.4,44.7,26,44.7z"/>
				<path class="st2" d="M26,53.5h19c0.7,0,1.2,0.6,1.2,1.2v0c0,0.7-0.6,1.2-1.2,1.2H26c-0.7,0-1.2-0.6-1.2-1.2v0
					C24.8,54.1,25.4,53.5,26,53.5z"/>
				<path class="st4" d="M26,62.3h12.8c0.7,0,1.2,0.6,1.2,1.2l0,0c0,0.7-0.6,1.2-1.2,1.2H26c-0.7,0-1.2-0.6-1.2-1.2l0,0
					C24.8,62.9,25.4,62.3,26,62.3z"/>
				<path class="st4" d="M26,71.1h6.6c0.7,0,1.2,0.6,1.2,1.2l0,0c0,0.7-0.6,1.2-1.2,1.2H26c-0.7,0-1.2-0.6-1.2-1.2l0,0
					C24.8,71.7,25.4,71.1,26,71.1z"/>
			</g>
		</g>
		<g>
			<path class="st0" d="M88.2,55.2H57c-0.3,0-0.6-0.3-0.6-0.6V44.4c0-0.3,0.3-0.6,0.6-0.6h31.2c0.3,0,0.6,0.3,0.6,0.6v10.1
				C88.8,54.9,88.5,55.2,88.2,55.2z"/>
			<path class="st2" d="M63.2,48.4h19c0.7,0,1.2,0.6,1.2,1.2v0c0,0.7-0.6,1.2-1.2,1.2h-19c-0.7,0-1.2-0.6-1.2-1.2v0
				C61.9,49,62.5,48.4,63.2,48.4z"/>
		</g>
		<g>
			<path class="st0" d="M124.6,91H94.5c-0.7,0-1.2-0.5-1.2-1.2V52.3c0-0.7,0.5-1.2,1.2-1.2h30.1c0.7,0,1.2,0.5,1.2,1.2v37.5
				C125.8,90.5,125.2,91,124.6,91z"/>
			<g>
				<path class="st4" d="M100.1,56.7h12.8c0.7,0,1.2,0.6,1.2,1.2v0c0,0.7-0.6,1.2-1.2,1.2h-12.8c-0.7,0-1.2-0.6-1.2-1.2v0
					C98.9,57.3,99.4,56.7,100.1,56.7z"/>
				<path class="st2" d="M100.1,65.5h19c0.7,0,1.2,0.6,1.2,1.2l0,0c0,0.7-0.6,1.2-1.2,1.2h-19c-0.7,0-1.2-0.6-1.2-1.2l0,0
					C98.9,66.1,99.4,65.5,100.1,65.5z"/>
				<path class="st4" d="M100.1,74.3h12.8c0.7,0,1.2,0.6,1.2,1.2l0,0c0,0.7-0.6,1.2-1.2,1.2h-12.8c-0.7,0-1.2-0.6-1.2-1.2l0,0
					C98.9,74.9,99.4,74.3,100.1,74.3z"/>
				<path class="st4" d="M100.1,83.1h6.6c0.7,0,1.2,0.6,1.2,1.2v0c0,0.7-0.6,1.2-1.2,1.2h-6.6c-0.7,0-1.2-0.6-1.2-1.2v0
					C98.9,83.7,99.4,83.1,100.1,83.1z"/>
			</g>
		</g>
	</g>
</g>
</svg>
