<?xml version="1.0" encoding="utf-8"?>
<!-- Generator: Adobe Illustrator 25.2.1, SVG Export Plug-In . SVG Version: 6.00 Build 0)  -->
<svg version="1.1" id="Layer_1" xmlns="http://www.w3.org/2000/svg" xmlns:xlink="http://www.w3.org/1999/xlink" x="0px" y="0px"
	 viewBox="0 0 145 110" style="enable-background:new 0 0 145 110;" xml:space="preserve">
<style type="text/css">
	.st0{fill:#EFEFEF;}
	.st1{fill:#FFFFFF;}
	.st2{fill:#0066FF;}
	.st3{opacity:0.2;fill:#001028;}
</style>
<g>
	<rect x="0" y="0" class="st0" width="145" height="110"/>
	<path class="st1" d="M10,94V16c0-3.3,2.7-6,6-6h113c3.3,0,6,2.7,6,6v78c0,3.3-2.7,6-6,6H16C12.7,100,10,97.3,10,94z"/>
	<g>
		<g>
			<path class="st0" d="M115.5,45.9h-86c-1.1,0-2-0.9-2-2v-6c0-1.1,0.9-2,2-2h86c1.1,0,2,0.9,2,2v6C117.5,45,116.6,45.9,115.5,45.9z
				"/>
			<path class="st2" d="M37.5,38.9H73c1.1,0,2,0.9,2,2v0c0,1.1-0.9,2-2,2H37.5c-1.1,0-2-0.9-2-2v0C35.5,39.7,36.4,38.9,37.5,38.9z"
				/>
		</g>
		<g>
			<path class="st0" d="M115.5,31.7h-86c-1.1,0-2-0.9-2-2v-6c0-1.1,0.9-2,2-2h86c1.1,0,2,0.9,2,2v6
				C117.5,30.8,116.6,31.7,115.5,31.7z"/>
			<path class="st3" d="M37.5,24.7H63c1.1,0,2,0.9,2,2v0c0,1.1-0.9,2-2,2H37.5c-1.1,0-2-0.9-2-2v0C35.5,25.6,36.4,24.7,37.5,24.7z"
				/>
		</g>
		<g>
			<path class="st0" d="M115.5,60h-86c-1.1,0-2-0.9-2-2v-6c0-1.1,0.9-2,2-2h86c1.1,0,2,0.9,2,2v6C117.5,59.1,116.6,60,115.5,60z"/>
			<path class="st3" d="M37.5,53H83c1.1,0,2,0.9,2,2v0c0,1.1-0.9,2-2,2H37.5c-1.1,0-2-0.9-2-2v0C35.5,53.9,36.4,53,37.5,53z"/>
		</g>
		<g>
			<path class="st0" d="M115.5,74.1h-86c-1.1,0-2-0.9-2-2v-6c0-1.1,0.9-2,2-2h86c1.1,0,2,0.9,2,2v6
				C117.5,73.3,116.6,74.1,115.5,74.1z"/>
			<path class="st3" d="M37.5,67.1H73c1.1,0,2,0.9,2,2v0c0,1.1-0.9,2-2,2H37.5c-1.1,0-2-0.9-2-2v0C35.5,68,36.4,67.1,37.5,67.1z"/>
		</g>
		<g>
			<path class="st0" d="M115.5,88.3h-86c-1.1,0-2-0.9-2-2v-6c0-1.1,0.9-2,2-2h86c1.1,0,2,0.9,2,2v6
				C117.5,87.4,116.6,88.3,115.5,88.3z"/>
			<path class="st3" d="M37.5,81.3H63c1.1,0,2,0.9,2,2l0,0c0,1.1-0.9,2-2,2H37.5c-1.1,0-2-0.9-2-2l0,0
				C35.5,82.2,36.4,81.3,37.5,81.3z"/>
		</g>
	</g>
</g>
</svg>
