<?xml version="1.0" encoding="utf-8"?>
<!-- Generator: Adobe Illustrator 25.2.1, SVG Export Plug-In . SVG Version: 6.00 Build 0)  -->
<svg version="1.1" id="Layer_1" xmlns="http://www.w3.org/2000/svg" xmlns:xlink="http://www.w3.org/1999/xlink" x="0px" y="0px"
	 viewBox="0 0 145 110" style="enable-background:new 0 0 145 110;" xml:space="preserve">
<style type="text/css">
	.st0{fill:#EFEFEF;}
	.st1{fill:#A6A9B2;}
	.st2{opacity:0.85;}
	.st3{fill:#C5C8D3;}
	.st4{fill:url(#SVGID_1_);}
</style>
<g>
	<rect class="st0" width="145" height="110"/>
</g>
<g>
	<g>
		<g>
			<path class="st1" d="M122.7,29.8H22.3c-1.9,0-3.4-1.5-3.4-3.4l0,0c0-1.8,1.5-3.3,3.4-3.3h100.4c1.8,0,3.3,1.5,3.3,3.3l0,0
				C126.1,28.3,124.6,29.8,122.7,29.8z"/>
		</g>
		<g class="st2">
			<path class="st3" d="M114.9,45.3H20.9c-1.1,0-2-0.9-2-2l0,0c0-1.1,0.9-2,2-2h93.9c1.1,0,2,0.9,2,2l0,0
				C116.8,44.4,116,45.3,114.9,45.3z"/>
		</g>
		<g class="st2">
			<path class="st3" d="M89.9,56.8H20.9c-1.1,0-2-0.9-2-2l0,0c0-1.1,0.9-2,2-2h68.9c1.1,0,2,0.9,2,2l0,0
				C91.8,55.9,91,56.8,89.9,56.8z"/>
		</g>
	</g>
	<linearGradient id="SVGID_1_" gradientUnits="userSpaceOnUse" x1="18.92" y1="79.185" x2="76.21" y2="79.185">
		<stop  offset="0" style="stop-color:#124188"/>
		<stop  offset="1" style="stop-color:#0261EF"/>
	</linearGradient>
	<path class="st4" d="M68.5,86.9H26.6c-4.3,0-7.7-3.4-7.7-7.7l0,0c0-4.3,3.5-7.7,7.7-7.7h41.9c4.3,0,7.7,3.4,7.7,7.7l0,0
		C76.2,83.4,72.8,86.9,68.5,86.9z"/>
</g>
</svg>
