<?xml version="1.0" encoding="utf-8"?>
<!-- Generator: Adobe Illustrator 25.2.1, SVG Export Plug-In . SVG Version: 6.00 Build 0)  -->
<svg version="1.1" id="Layer_1" xmlns="http://www.w3.org/2000/svg" xmlns:xlink="http://www.w3.org/1999/xlink" x="0px" y="0px"
	 viewBox="0 0 145 110" style="enable-background:new 0 0 145 110;" xml:space="preserve">
<style type="text/css">
	.st0{fill:#EFEFEF;}
	.st1{fill:url(#SVGID_1_);}
	.st2{opacity:0.8;fill:#FFFFFF;enable-background:new    ;}
	.st3{opacity:0.5;fill:#FFFFFF;enable-background:new    ;}
	.st4{fill:#FFFFFF;}
	.st5{opacity:0.85;}
	.st6{fill:#C5C8D3;}
</style>
<g>
	<g>
		<rect class="st0" width="145" height="110"/>
	</g>
	<linearGradient id="SVGID_1_" gradientUnits="userSpaceOnUse" x1="24.1575" y1="103.3475" x2="120.8525" y2="6.6525">
		<stop  offset="0" style="stop-color:#0466FE"/>
		<stop  offset="1" style="stop-color:#AC70CF"/>
	</linearGradient>
	<path class="st1" d="M12.6,89.5v-69c0-3,2.5-5.5,5.5-5.5h108.8c3,0,5.5,2.5,5.5,5.5v69c0,3-2.5,5.5-5.5,5.5H18.1
		C15.1,95,12.6,92.5,12.6,89.5z"/>
	<g>
		<g>
			<path class="st2" d="M114.5,35.2H30.5c-1.5,0-2.8-1.2-2.8-2.8l0,0c0-1.5,1.2-2.8,2.8-2.8h83.9c1.6,0,2.8,1.2,2.8,2.8l0,0
				C117.3,33.9,116,35.2,114.5,35.2z"/>
			<path class="st3" d="M106.8,48.8H38.2c-0.8,0-1.4-0.6-1.4-1.4l0,0c0-0.8,0.6-1.4,1.4-1.4h68.6c0.8,0,1.4,0.6,1.4,1.4l0,0
				C108.2,48.2,107.6,48.8,106.8,48.8z"/>
			<path class="st3" d="M91.8,58.2H53.2c-0.8,0-1.4-0.6-1.4-1.4l0,0c0-0.8,0.6-1.4,1.4-1.4h38.6c0.8,0,1.4,0.6,1.4,1.4l0,0
				C93.2,57.5,92.6,58.2,91.8,58.2z"/>
		</g>
		<path class="st4" d="M90,80.4H55c-3.6,0-6.4-2.9-6.4-6.4l0,0c0-3.6,2.9-6.4,6.4-6.4h35c3.6,0,6.4,2.9,6.4,6.4l0,0
			C96.4,77.6,93.6,80.4,90,80.4z"/>
	</g>
	<g class="st5">
		<path class="st6" d="M85.7,75.2H59.3c-0.7,0-1.2-0.6-1.2-1.2l0,0c0-0.7,0.6-1.2,1.2-1.2h26.5c0.7,0,1.2,0.6,1.2,1.2l0,0
			C87,74.7,86.4,75.2,85.7,75.2z"/>
	</g>
</g>
</svg>
