<?xml version="1.0" encoding="utf-8"?>
<!-- Generator: Adobe Illustrator 25.2.1, SVG Export Plug-In . SVG Version: 6.00 Build 0)  -->
<svg version="1.1" id="Layer_1" xmlns="http://www.w3.org/2000/svg" xmlns:xlink="http://www.w3.org/1999/xlink" x="0px" y="0px"
	 viewBox="0 0 145 110" style="enable-background:new 0 0 145 110;" xml:space="preserve">
<style type="text/css">
	.st0{fill:#EFEFEF;}
	.st1{fill:#0A125E;}
	.st2{opacity:0.8;fill:#FFFFFF;enable-background:new    ;}
	.st3{opacity:0.5;fill:#FFFFFF;enable-background:new    ;}
	.st4{fill:#0066FF;}
	.st5{opacity:0.7;}
	.st6{fill:#FFFFFF;}
</style>
<g>
	<g>
		<rect class="st0" width="145" height="110"/>
	</g>
	<g>
		<path class="st1" d="M12.6,77.7V32.3h119.8v45.5H12.6z"/>
		<g>
			<path class="st2" d="M76.8,48.8H24.9c-1.1,0-2-0.9-2-2l0,0c0-1.1,0.9-2,2-2h51.8c1.1,0,2,0.9,2,2l0,0
				C78.8,47.9,77.9,48.8,76.8,48.8z"/>
			<path class="st3" d="M78.3,58.5H23.9c-0.6,0-1-0.5-1-1l0,0c0-0.6,0.5-1,1-1h54.3c0.6,0,1,0.5,1,1l0,0
				C79.3,58.1,78.8,58.5,78.3,58.5z"/>
			<path class="st3" d="M60.7,65.2H23.9c-0.6,0-1-0.4-1-1l0,0c0-0.6,0.5-1,1-1h36.8c0.6,0,1,0.5,1,1l0,0
				C61.7,64.8,61.3,65.2,60.7,65.2z"/>
		</g>
		<g>
			<path class="st4" d="M119.9,60h-18.4c-2.8,0-5-2.3-5-5l0,0c0-2.8,2.3-5,5-5h18.4c2.8,0,5,2.3,5,5l0,0
				C124.9,57.8,122.7,60,119.9,60z"/>
			<g class="st5">
				<path class="st6" d="M118.6,55.7h-15.8c-0.4,0-0.7-0.3-0.7-0.7V55c0-0.4,0.3-0.7,0.7-0.7h15.8c0.4,0,0.7,0.3,0.7,0.7V55
					C119.3,55.4,119,55.7,118.6,55.7z"/>
			</g>
		</g>
	</g>
</g>
</svg>
