<?xml version="1.0" encoding="utf-8"?>
<!-- Generator: Adobe Illustrator 25.2.1, SVG Export Plug-In . SVG Version: 6.00 Build 0)  -->
<svg version="1.1" id="Layer_1" xmlns="http://www.w3.org/2000/svg" xmlns:xlink="http://www.w3.org/1999/xlink" x="0px" y="0px"
	 viewBox="0 0 24 24" style="enable-background:new 0 0 24 24;" xml:space="preserve">
<style type="text/css">
	.st0{fill:url(#SVGID_1_);}
</style>
<g>
	<linearGradient id="SVGID_1_" gradientUnits="userSpaceOnUse" x1="9.094947e-13" y1="12" x2="24" y2="12">
		<stop  offset="0" style="stop-color:#00AFFA"/>
		<stop  offset="1" style="stop-color:#0954C0"/>
	</linearGradient>
	<path class="st0" d="M21.74,22.16c-0.05,0-0.1-0.01-0.15-0.02c-0.14-0.04-0.26-0.14-0.33-0.28l-1.19-2.37L19,20.39
		c-0.1,0.08-0.22,0.13-0.35,0.13c-0.07,0-0.14-0.01-0.21-0.04c-0.19-0.08-0.32-0.25-0.33-0.45l-0.55-6.5
		c-0.02-0.21,0.09-0.41,0.27-0.52c0.08-0.05,0.18-0.07,0.27-0.07c0.11,0,0.22,0.03,0.31,0.1l5.35,3.73
		c0.17,0.12,0.25,0.32,0.23,0.52c-0.03,0.2-0.16,0.37-0.35,0.44l-1.3,0.48l1.45,2.21c0.08,0.12,0.11,0.28,0.07,0.42
		c-0.03,0.14-0.13,0.27-0.26,0.34l-1.6,0.92C21.93,22.14,21.84,22.16,21.74,22.16z M21.89,21.14l0.96-0.56l-1.63-2.48
		c-0.06-0.09-0.07-0.2-0.04-0.3c0.03-0.1,0.11-0.18,0.21-0.21l1.32-0.48l-4.21-2.93l0.44,5.11l1.08-0.9
		c0.06-0.05,0.14-0.08,0.2-0.08l0.09,0.01c0.11,0.02,0.19,0.09,0.24,0.18L21.89,21.14z M16.75,15.51c0.3,0,0.54-0.24,0.54-0.54
		s-0.24-0.54-0.54-0.54H2.02c-0.52,0-0.94-0.42-0.94-0.94V3.86c0-0.52,0.42-0.94,0.94-0.94h19.22c0.52,0,0.94,0.42,0.94,0.94v9.63
		c0,0.26-0.1,0.5-0.29,0.68c-0.1,0.1-0.17,0.23-0.17,0.38c0,0.15,0.05,0.28,0.15,0.39c0.1,0.11,0.24,0.17,0.39,0.17
		c0.14,0,0.27-0.05,0.37-0.15c0.41-0.39,0.63-0.91,0.63-1.46V3.86c0-1.11-0.91-2.02-2.02-2.02H2.02C0.91,1.84,0,2.74,0,3.86v9.63
		c0,1.11,0.91,2.02,2.02,2.02H16.75z M3.88,9.87c-0.03,0-0.06,0-0.09-0.02C3.67,9.81,3.6,9.67,3.65,9.54l0.9-2.36
		C4.6,7.06,4.71,6.98,4.83,6.98s0.23,0.07,0.28,0.19L6,9.54c0.05,0.13-0.02,0.27-0.14,0.32c-0.02,0-0.04,0-0.06,0
		c-0.15,0-0.23-0.06-0.26-0.15L5.38,9.29h-1.1L4.11,9.71C4.08,9.81,3.98,9.87,3.88,9.87z M4.46,8.79h0.73L4.83,7.83L4.46,8.79z
		 M17.52,9.63v-1.6l1.17,1.69c0.05,0.07,0.12,0.12,0.26,0.12c0.02,0,0.03,0,0.05,0c0.12-0.04,0.2-0.15,0.2-0.29l-0.02-2.32
		c0-0.13-0.11-0.24-0.25-0.24c-0.07,0-0.13,0.03-0.17,0.07c-0.05,0.05-0.07,0.11-0.07,0.18l0.02,1.63l-1.22-1.77
		C17.43,7.03,17.37,7,17.24,7c-0.02,0-0.03,0-0.05,0c-0.1,0.03-0.17,0.13-0.17,0.24v2.39c0,0.14,0.11,0.25,0.25,0.25
		C17.4,9.87,17.52,9.76,17.52,9.63z M12.61,9.63v-2.4c0-0.14-0.11-0.25-0.25-0.25c-0.14,0-0.25,0.11-0.25,0.25v2.4
		c0,0.14,0.11,0.25,0.25,0.25C12.5,9.87,12.61,9.76,12.61,9.63z M8.76,9.57C8.8,9.53,8.84,9.49,8.88,9.45
		C8.92,9.4,8.94,9.33,8.94,9.27C8.93,9.2,8.9,9.14,8.85,9.1C8.8,9.06,8.75,9.04,8.69,9.04c-0.07,0-0.14,0.03-0.19,0.09L8.43,9.2
		C8.3,9.32,8.13,9.38,7.93,9.38c-0.52,0-0.95-0.43-0.95-0.95c0-0.52,0.43-0.95,0.95-0.95c0.19,0,0.37,0.06,0.53,0.16
		C8.51,7.67,8.55,7.68,8.6,7.68c0.08,0,0.16-0.04,0.21-0.11c0.08-0.11,0.05-0.27-0.07-0.34C8.5,7.07,8.22,6.98,7.93,6.98
		c-0.8,0-1.45,0.65-1.45,1.45c0,0.8,0.65,1.45,1.45,1.45C8.25,9.87,8.54,9.77,8.76,9.57z M10.73,9.63V7.48h0.42
		c0.14,0,0.25-0.11,0.25-0.25c0-0.14-0.11-0.25-0.25-0.25H9.83c-0.14,0-0.25,0.11-0.25,0.25c0,0.14,0.11,0.25,0.25,0.25h0.41v2.15
		c0,0.14,0.11,0.25,0.25,0.25S10.73,9.76,10.73,9.63z M14.83,9.87c-0.8,0-1.45-0.65-1.45-1.45c0-0.8,0.65-1.45,1.45-1.45
		s1.45,0.65,1.45,1.45C16.27,9.22,15.62,9.87,14.83,9.87z M14.83,7.48c-0.52,0-0.95,0.43-0.95,0.95c0,0.52,0.43,0.95,0.95,0.95
		s0.95-0.43,0.95-0.95C15.78,7.9,15.35,7.48,14.83,7.48z"/>
</g>
</svg>
