<?xml version="1.0" encoding="utf-8"?>
<!-- Generator: Adobe Illustrator 25.2.1, SVG Export Plug-In . SVG Version: 6.00 Build 0)  -->
<svg version="1.1" id="Layer_1" xmlns="http://www.w3.org/2000/svg" xmlns:xlink="http://www.w3.org/1999/xlink" x="0px" y="0px"
	 viewBox="0 0 320 160" style="enable-background:new 0 0 320 160;" xml:space="preserve">
<style type="text/css">
	.st0{fill:#FFFFFF;}
	.st1{fill:#646464;}
	.st2{fill:url(#SVGID_1_);}
</style>
<rect class="st0" width="320" height="160"/>
<g>
	<g>
		<path class="st1" d="M28,62.2v0.6h-1.6v5h-0.7v-5h-1.6v-0.6H28z"/>
		<path class="st1" d="M31,63.4c0.5,0,0.9,0.2,1.2,0.5c0.3,0.3,0.5,0.8,0.5,1.4v2.5H32v-2.5c0-0.4-0.1-0.8-0.3-1S31.1,64,30.8,64
			c-0.4,0-0.7,0.1-1,0.4c-0.2,0.2-0.4,0.6-0.4,1.1v2.3h-0.7v-5.9h0.7v2.6c0.1-0.3,0.3-0.6,0.6-0.8C30.3,63.4,30.6,63.4,31,63.4z"/>
		<path class="st1" d="M33.7,62.1c0-0.1,0-0.2,0.1-0.3c0.1-0.1,0.2-0.1,0.4-0.1s0.3,0,0.4,0.1c0.1,0.1,0.1,0.2,0.1,0.3
			s0,0.2-0.1,0.3c-0.1,0.1-0.2,0.1-0.4,0.1s-0.3,0-0.4-0.1C33.7,62.4,33.7,62.3,33.7,62.1z M34.5,63.4v4.3h-0.7v-4.3H34.5z"/>
		<path class="st1" d="M37.1,63.4c0.5,0,0.9,0.1,1.2,0.4c0.3,0.2,0.5,0.6,0.5,1h-0.7c0-0.3-0.1-0.5-0.3-0.6
			c-0.2-0.2-0.4-0.2-0.7-0.2c-0.3,0-0.5,0.1-0.6,0.2c-0.1,0.1-0.2,0.3-0.2,0.5c0,0.2,0,0.3,0.1,0.4c0.1,0.1,0.2,0.2,0.4,0.2
			c0.2,0.1,0.3,0.1,0.6,0.2c0.3,0.1,0.6,0.2,0.8,0.2c0.2,0.1,0.4,0.2,0.5,0.4c0.1,0.2,0.2,0.4,0.2,0.7c0,0.3-0.1,0.6-0.4,0.9
			c-0.3,0.2-0.6,0.3-1.1,0.3c-0.5,0-0.9-0.1-1.3-0.4s-0.5-0.6-0.6-1h0.7c0,0.3,0.1,0.5,0.3,0.6c0.2,0.2,0.5,0.2,0.8,0.2
			c0.2,0,0.4-0.1,0.6-0.2c0.1-0.1,0.2-0.3,0.2-0.5c0-0.2-0.1-0.3-0.2-0.4c-0.1-0.1-0.2-0.2-0.4-0.2s-0.3-0.1-0.6-0.2
			c-0.3-0.1-0.6-0.2-0.8-0.2c-0.2-0.1-0.3-0.2-0.5-0.3c-0.1-0.2-0.2-0.4-0.2-0.7c0-0.4,0.1-0.7,0.4-0.9
			C36.2,63.5,36.6,63.4,37.1,63.4z"/>
		<path class="st1" d="M42.5,62.2v5.6h-0.7v-5.6H42.5z"/>
		<path class="st1" d="M45,63.4c0.5,0,0.9,0.1,1.2,0.4c0.3,0.2,0.5,0.6,0.6,1H46c0-0.3-0.1-0.5-0.3-0.6c-0.2-0.2-0.4-0.2-0.7-0.2
			c-0.3,0-0.5,0.1-0.6,0.2c-0.1,0.1-0.2,0.3-0.2,0.5c0,0.2,0,0.3,0.1,0.4c0.1,0.1,0.2,0.2,0.4,0.2c0.2,0.1,0.3,0.1,0.6,0.2
			c0.3,0.1,0.6,0.2,0.8,0.2c0.2,0.1,0.4,0.2,0.5,0.4c0.1,0.2,0.2,0.4,0.2,0.7c0,0.3-0.1,0.6-0.4,0.9c-0.3,0.2-0.6,0.3-1.1,0.3
			c-0.5,0-0.9-0.1-1.3-0.4s-0.5-0.6-0.6-1h0.7c0,0.3,0.1,0.5,0.3,0.6c0.2,0.2,0.5,0.2,0.8,0.2c0.2,0,0.4-0.1,0.6-0.2
			c0.1-0.1,0.2-0.3,0.2-0.5c0-0.2-0.1-0.3-0.2-0.4S45.7,66,45.6,66s-0.3-0.1-0.6-0.2c-0.3-0.1-0.6-0.2-0.8-0.2
			c-0.2-0.1-0.3-0.2-0.5-0.3c-0.1-0.2-0.2-0.4-0.2-0.7c0-0.4,0.1-0.7,0.4-0.9C44.2,63.5,44.5,63.4,45,63.4z"/>
		<path class="st1" d="M53.1,62.2v0.6h-1.6v5h-0.7v-5h-1.6v-0.6H53.1z"/>
		<path class="st1" d="M56.1,63.4c0.5,0,0.9,0.2,1.2,0.5c0.3,0.3,0.5,0.8,0.5,1.4v2.5h-0.7v-2.5c0-0.4-0.1-0.8-0.3-1
			S56.3,64,55.9,64c-0.4,0-0.7,0.1-0.9,0.4c-0.2,0.2-0.4,0.6-0.4,1.1v2.3h-0.7v-5.9h0.7v2.6c0.1-0.3,0.3-0.6,0.6-0.8
			C55.4,63.4,55.8,63.4,56.1,63.4z"/>
		<path class="st1" d="M62.9,65.4c0,0.2,0,0.3,0,0.4h-3.5c0,0.5,0.2,0.9,0.4,1.1c0.3,0.2,0.6,0.4,1,0.4c0.3,0,0.6-0.1,0.9-0.3
			c0.2-0.2,0.4-0.4,0.4-0.7h0.8c0,0.3-0.2,0.6-0.4,0.8c-0.2,0.2-0.4,0.4-0.7,0.6c-0.3,0.1-0.6,0.2-1,0.2c-0.4,0-0.8-0.1-1.1-0.3
			s-0.6-0.4-0.8-0.8c-0.2-0.3-0.3-0.7-0.3-1.2s0.1-0.8,0.3-1.2c0.2-0.3,0.4-0.6,0.8-0.8s0.7-0.3,1.1-0.3c0.4,0,0.8,0.1,1.1,0.3
			c0.3,0.2,0.6,0.4,0.7,0.7C62.9,64.7,62.9,65,62.9,65.4z M62.2,65.4c0-0.3,0-0.6-0.2-0.8c-0.1-0.2-0.3-0.4-0.5-0.5S61.1,64,60.9,64
			c-0.4,0-0.7,0.1-1,0.4c-0.3,0.2-0.4,0.6-0.4,1.1H62.2z"/>
		<path class="st1" d="M69,62.2v0.6h-2.4v1.9h2.1v0.6h-2.1v2.5h-0.7v-5.6L69,62.2L69,62.2z"/>
		<path class="st1" d="M69.7,62.1c0-0.1,0-0.2,0.1-0.3s0.2-0.1,0.4-0.1s0.3,0,0.4,0.1c0.1,0.1,0.1,0.2,0.1,0.3s0,0.2-0.1,0.3
			c-0.1,0.1-0.2,0.1-0.4,0.1s-0.3,0-0.4-0.1C69.8,62.4,69.7,62.3,69.7,62.1z M70.6,63.4v4.3h-0.7v-4.3H70.6z"/>
		<path class="st1" d="M72.5,64.3c0.1-0.3,0.3-0.5,0.6-0.7s0.6-0.2,1-0.2v0.8h-0.2c-0.4,0-0.7,0.1-1,0.3s-0.4,0.6-0.4,1v2.3h-0.7
			v-4.3h0.7V64.3z"/>
		<path class="st1" d="M76.2,63.4c0.5,0,0.9,0.1,1.2,0.4c0.3,0.2,0.5,0.6,0.6,1h-0.7c0-0.3-0.1-0.5-0.3-0.6
			c-0.2-0.2-0.4-0.2-0.7-0.2c-0.3,0-0.5,0.1-0.6,0.2c-0.1,0.1-0.2,0.3-0.2,0.5c0,0.2,0.1,0.3,0.1,0.4c0.1,0.1,0.2,0.2,0.4,0.2
			c0.2,0.1,0.3,0.1,0.6,0.2c0.3,0.1,0.6,0.2,0.8,0.2c0.2,0.1,0.4,0.2,0.5,0.4c0.1,0.2,0.2,0.4,0.2,0.7c0,0.3-0.1,0.6-0.4,0.9
			c-0.3,0.2-0.6,0.3-1.1,0.3c-0.5,0-0.9-0.1-1.3-0.4c-0.3-0.2-0.5-0.6-0.6-1h0.7c0,0.3,0.1,0.5,0.3,0.6c0.2,0.2,0.5,0.2,0.8,0.2
			c0.2,0,0.4-0.1,0.6-0.2c0.1-0.1,0.2-0.3,0.2-0.5c0-0.2-0.1-0.3-0.2-0.4S76.9,66,76.7,66s-0.3-0.1-0.6-0.2
			c-0.3-0.1-0.6-0.2-0.8-0.2c-0.2-0.1-0.3-0.2-0.5-0.3c-0.1-0.2-0.2-0.4-0.2-0.7c0-0.4,0.1-0.7,0.4-0.9
			C75.3,63.5,75.7,63.4,76.2,63.4z"/>
		<path class="st1" d="M81,67.1v0.6h-0.5c-0.4,0-0.8-0.1-1-0.3s-0.3-0.6-0.3-1.1V64h-0.7v-0.6h0.7v-1.1h0.7v1.1H81V64h-1.1v2.4
			c0,0.3,0.1,0.5,0.2,0.6c0.1,0.1,0.3,0.2,0.5,0.2L81,67.1L81,67.1z"/>
		<path class="st1" d="M84.5,62.2v5.6h-0.7v-5.6H84.5z"/>
		<path class="st1" d="M87.8,67.1v0.6h-0.5c-0.4,0-0.8-0.1-1-0.3s-0.3-0.6-0.3-1.1V64h-0.7v-0.6h0.7v-1.1h0.7v1.1h1.1V64h-1.1v2.4
			c0,0.3,0.1,0.5,0.2,0.6c0.1,0.1,0.3,0.2,0.5,0.2L87.8,67.1L87.8,67.1z"/>
		<path class="st1" d="M92.7,65.4c0,0.2,0,0.3,0,0.4h-3.5c0,0.5,0.2,0.9,0.4,1.1c0.3,0.2,0.6,0.4,1,0.4c0.3,0,0.6-0.1,0.9-0.3
			c0.2-0.2,0.4-0.4,0.4-0.7h0.8c-0.1,0.3-0.2,0.6-0.4,0.8c-0.2,0.2-0.4,0.4-0.7,0.6c-0.3,0.1-0.6,0.2-1,0.2c-0.4,0-0.8-0.1-1.1-0.3
			s-0.6-0.4-0.8-0.8c-0.2-0.3-0.3-0.7-0.3-1.2s0.1-0.8,0.3-1.2c0.2-0.3,0.4-0.6,0.8-0.8s0.7-0.3,1.1-0.3s0.8,0.1,1.1,0.3
			c0.3,0.2,0.6,0.4,0.7,0.7C92.6,64.7,92.7,65,92.7,65.4z M91.9,65.4c0-0.3,0-0.6-0.2-0.8s-0.3-0.4-0.5-0.5S90.8,64,90.6,64
			c-0.4,0-0.7,0.1-1,0.4c-0.3,0.2-0.4,0.6-0.4,1.1H91.9z"/>
		<path class="st1" d="M98.9,63.4c0.5,0,0.9,0.2,1.2,0.5c0.3,0.3,0.5,0.8,0.5,1.4v2.5h-0.7v-2.5c0-0.4-0.1-0.8-0.3-1
			c-0.2-0.2-0.5-0.3-0.9-0.3c-0.4,0-0.7,0.1-0.9,0.4c-0.2,0.2-0.3,0.6-0.3,1.1v2.3h-0.7v-2.5c0-0.4-0.1-0.8-0.3-1
			c-0.2-0.2-0.5-0.3-0.9-0.3c-0.4,0-0.7,0.1-0.9,0.4c-0.2,0.2-0.3,0.6-0.3,1.1v2.3h-0.7v-4.3h0.7v1c0.1-0.3,0.3-0.6,0.6-0.8
			c0.3-0.2,0.6-0.3,0.9-0.3c0.4,0,0.7,0.1,1,0.3c0.3,0.2,0.5,0.5,0.6,0.8c0.1-0.3,0.3-0.6,0.6-0.8C98.3,63.5,98.6,63.4,98.9,63.4z"
			/>
		<path class="st1" d="M102.2,61.5l-0.1,1.6h-0.5l-0.1-1.6H102.2z"/>
		<path class="st1" d="M104.5,63.4c0.5,0,0.9,0.1,1.2,0.4c0.3,0.2,0.5,0.6,0.6,1h-0.7c0-0.3-0.1-0.5-0.3-0.6
			c-0.2-0.2-0.4-0.2-0.7-0.2c-0.3,0-0.5,0.1-0.6,0.2c-0.1,0.1-0.2,0.3-0.2,0.5c0,0.2,0.1,0.3,0.1,0.4c0.1,0.1,0.2,0.2,0.4,0.2
			c0.2,0.1,0.3,0.1,0.6,0.2c0.3,0.1,0.6,0.2,0.8,0.2c0.2,0.1,0.4,0.2,0.5,0.4c0.1,0.2,0.2,0.4,0.2,0.7c0,0.3-0.1,0.6-0.4,0.9
			c-0.3,0.2-0.6,0.3-1.1,0.3c-0.5,0-0.9-0.1-1.3-0.4c-0.3-0.2-0.5-0.6-0.6-1h0.7c0,0.3,0.1,0.5,0.3,0.6c0.2,0.2,0.5,0.2,0.8,0.2
			c0.2,0,0.4-0.1,0.6-0.2c0.1-0.1,0.2-0.3,0.2-0.5c0-0.2-0.1-0.3-0.2-0.4S105.2,66,105,66c-0.2-0.1-0.3-0.1-0.6-0.2
			c-0.3-0.1-0.6-0.2-0.8-0.2c-0.2-0.1-0.3-0.2-0.5-0.3c-0.1-0.2-0.2-0.4-0.2-0.7c0-0.4,0.1-0.7,0.4-0.9
			C103.6,63.5,104,63.4,104.5,63.4z"/>
		<path class="st1" d="M112.4,66.5H110l-0.5,1.3h-0.8l2.1-5.5h0.8l2.1,5.5h-0.8L112.4,66.5z M112.2,65.9l-1-2.8l-1,2.8H112.2z"/>
		<path class="st1" d="M116.3,63.4c0.6,0,1,0.2,1.4,0.4c0.4,0.3,0.6,0.7,0.7,1.2h-0.8c-0.1-0.3-0.2-0.6-0.4-0.7
			c-0.2-0.2-0.5-0.3-0.9-0.3c-0.2,0-0.5,0.1-0.7,0.2c-0.2,0.1-0.4,0.3-0.5,0.5s-0.2,0.5-0.2,0.9c0,0.3,0.1,0.7,0.2,0.9
			c0.1,0.2,0.3,0.4,0.5,0.5c0.2,0.1,0.4,0.2,0.7,0.2c0.3,0,0.6-0.1,0.9-0.3c0.2-0.2,0.4-0.4,0.4-0.7h0.8c-0.1,0.5-0.3,0.9-0.7,1.2
			c-0.4,0.3-0.8,0.4-1.4,0.4c-0.4,0-0.8-0.1-1.1-0.3s-0.6-0.4-0.8-0.8c-0.2-0.3-0.3-0.7-0.3-1.2s0.1-0.8,0.3-1.2
			c0.2-0.3,0.4-0.6,0.8-0.8C115.6,63.5,115.9,63.4,116.3,63.4z"/>
		<path class="st1" d="M121.3,63.4c0.6,0,1,0.2,1.4,0.4c0.4,0.3,0.6,0.7,0.7,1.2h-0.8c-0.1-0.3-0.2-0.6-0.4-0.7
			c-0.2-0.2-0.5-0.3-0.9-0.3c-0.2,0-0.5,0.1-0.7,0.2c-0.2,0.1-0.4,0.3-0.5,0.5s-0.2,0.5-0.2,0.9c0,0.3,0.1,0.7,0.2,0.9
			c0.1,0.2,0.3,0.4,0.5,0.5c0.2,0.1,0.4,0.2,0.7,0.2c0.3,0,0.6-0.1,0.9-0.3c0.2-0.2,0.4-0.4,0.4-0.7h0.8c-0.1,0.5-0.3,0.9-0.7,1.2
			c-0.4,0.3-0.8,0.4-1.4,0.4c-0.4,0-0.8-0.1-1.1-0.3s-0.6-0.4-0.8-0.8c-0.2-0.3-0.3-0.7-0.3-1.2s0.1-0.8,0.3-1.2
			c0.2-0.3,0.4-0.6,0.8-0.8C120.5,63.5,120.9,63.4,121.3,63.4z"/>
		<path class="st1" d="M126.2,63.4c0.4,0,0.8,0.1,1.1,0.3s0.6,0.4,0.8,0.8c0.2,0.3,0.3,0.7,0.3,1.2s-0.1,0.8-0.3,1.2
			c-0.2,0.3-0.4,0.6-0.8,0.8c-0.3,0.2-0.7,0.3-1.1,0.3c-0.4,0-0.8-0.1-1.1-0.3c-0.3-0.2-0.6-0.4-0.8-0.8c-0.2-0.3-0.3-0.7-0.3-1.2
			s0.1-0.8,0.3-1.2s0.4-0.6,0.8-0.8C125.5,63.5,125.8,63.4,126.2,63.4z M126.2,64c-0.3,0-0.5,0.1-0.7,0.2c-0.2,0.1-0.4,0.3-0.5,0.5
			c-0.1,0.2-0.2,0.5-0.2,0.9c0,0.3,0.1,0.6,0.2,0.9c0.1,0.2,0.3,0.4,0.5,0.5c0.2,0.1,0.5,0.2,0.7,0.2s0.5-0.1,0.7-0.2
			c0.2-0.1,0.4-0.3,0.5-0.5c0.1-0.2,0.2-0.5,0.2-0.9s-0.1-0.7-0.2-0.9c-0.1-0.2-0.3-0.4-0.5-0.5C126.7,64.1,126.5,64,126.2,64z"/>
		<path class="st1" d="M130.1,64.3c0.1-0.3,0.4-0.5,0.6-0.7s0.6-0.2,1-0.2v0.8h-0.2c-0.4,0-0.7,0.1-1,0.3s-0.4,0.6-0.4,1v2.3h-0.7
			v-4.3h0.7V64.3z"/>
		<path class="st1" d="M134.2,63.4c0.4,0,0.8,0.1,1.1,0.3c0.3,0.2,0.5,0.5,0.6,0.8v-2.6h0.7v5.9h-0.7v-1.1c-0.1,0.3-0.3,0.6-0.6,0.8
			c-0.3,0.2-0.6,0.3-1.1,0.3c-0.4,0-0.7-0.1-1-0.3s-0.5-0.4-0.7-0.8c-0.2-0.3-0.2-0.7-0.2-1.2s0.1-0.8,0.2-1.2
			c0.2-0.3,0.4-0.6,0.7-0.8S133.8,63.4,134.2,63.4z M134.4,64c-0.4,0-0.8,0.1-1.1,0.4c-0.3,0.3-0.4,0.7-0.4,1.2s0.1,0.9,0.4,1.2
			c0.3,0.3,0.6,0.4,1.1,0.4c0.3,0,0.5-0.1,0.8-0.2c0.2-0.1,0.4-0.3,0.5-0.6s0.2-0.5,0.2-0.8s-0.1-0.6-0.2-0.8s-0.3-0.4-0.5-0.6
			C134.9,64.1,134.7,64,134.4,64z"/>
		<path class="st1" d="M137.6,62.1c0-0.1,0.1-0.2,0.1-0.3c0.1-0.1,0.2-0.1,0.4-0.1s0.3,0,0.4,0.1c0.1,0.1,0.1,0.2,0.1,0.3
			s0,0.2-0.1,0.3c-0.1,0.1-0.2,0.1-0.4,0.1s-0.3,0-0.4-0.1C137.7,62.4,137.6,62.3,137.6,62.1z M138.5,63.4v4.3h-0.7v-4.3H138.5z"/>
		<path class="st1" d="M141.6,63.4c0.4,0,0.8,0.1,1.1,0.3s0.6,0.4,0.8,0.8s0.3,0.7,0.3,1.2s-0.1,0.8-0.3,1.2
			c-0.2,0.3-0.4,0.6-0.8,0.8c-0.3,0.2-0.7,0.3-1.1,0.3s-0.8-0.1-1.1-0.3c-0.3-0.2-0.6-0.4-0.8-0.8c-0.2-0.3-0.3-0.7-0.3-1.2
			s0.1-0.8,0.3-1.2c0.2-0.3,0.4-0.6,0.8-0.8S141.2,63.4,141.6,63.4z M141.6,64c-0.3,0-0.5,0.1-0.7,0.2c-0.2,0.1-0.4,0.3-0.5,0.5
			c-0.1,0.2-0.2,0.5-0.2,0.9c0,0.3,0.1,0.6,0.2,0.9c0.1,0.2,0.3,0.4,0.5,0.5c0.2,0.1,0.5,0.2,0.7,0.2s0.5-0.1,0.7-0.2
			c0.2-0.1,0.4-0.3,0.5-0.5c0.1-0.2,0.2-0.5,0.2-0.9s-0.1-0.7-0.2-0.9c-0.1-0.2-0.3-0.4-0.5-0.5C142.1,64.1,141.9,64,141.6,64z"/>
		<path class="st1" d="M147,63.4c0.5,0,0.9,0.2,1.2,0.5c0.3,0.3,0.5,0.8,0.5,1.4v2.5H148v-2.5c0-0.4-0.1-0.8-0.3-1s-0.5-0.3-0.9-0.3
			c-0.4,0-0.7,0.1-0.9,0.4c-0.2,0.2-0.4,0.6-0.4,1.1v2.3h-0.7v-4.3h0.7v1c0.1-0.3,0.3-0.6,0.6-0.8C146.3,63.4,146.7,63.4,147,63.4z"
			/>
		<path class="st1" d="M154.5,64.9c0.3,0.1,0.6,0.2,0.8,0.5c0.2,0.2,0.3,0.6,0.3,0.9c0,0.4-0.2,0.8-0.5,1.1
			c-0.3,0.3-0.8,0.4-1.3,0.4h-2.1v-5.6h2.1c0.6,0,1,0.1,1.3,0.4s0.4,0.6,0.4,1c0,0.4-0.1,0.7-0.3,0.9
			C155.1,64.7,154.8,64.8,154.5,64.9z M152.5,64.6h1.2c0.4,0,0.6-0.1,0.8-0.2c0.2-0.2,0.3-0.4,0.3-0.7c0-0.3-0.1-0.5-0.3-0.7
			c-0.2-0.2-0.5-0.2-0.9-0.2h-1.2L152.5,64.6L152.5,64.6z M153.7,67.2c0.4,0,0.7-0.1,0.9-0.3c0.2-0.2,0.3-0.4,0.3-0.7
			c0-0.3-0.1-0.6-0.3-0.7c-0.2-0.2-0.5-0.3-0.9-0.3h-1.2v2H153.7z"/>
		<path class="st1" d="M158.5,63.4c0.4,0,0.8,0.1,1.1,0.3s0.6,0.4,0.8,0.8s0.3,0.7,0.3,1.2s-0.1,0.8-0.3,1.2
			c-0.2,0.3-0.4,0.6-0.8,0.8c-0.3,0.2-0.7,0.3-1.1,0.3s-0.8-0.1-1.1-0.3c-0.3-0.2-0.6-0.4-0.8-0.8c-0.2-0.3-0.3-0.7-0.3-1.2
			s0.1-0.8,0.3-1.2c0.2-0.3,0.4-0.6,0.8-0.8C157.8,63.5,158.1,63.4,158.5,63.4z M158.5,64c-0.3,0-0.5,0.1-0.7,0.2
			c-0.2,0.1-0.4,0.3-0.5,0.5c-0.1,0.2-0.2,0.5-0.2,0.9c0,0.3,0.1,0.6,0.2,0.9c0.1,0.2,0.3,0.4,0.5,0.5c0.2,0.1,0.5,0.2,0.7,0.2
			s0.5-0.1,0.7-0.2c0.2-0.1,0.4-0.3,0.5-0.5c0.1-0.2,0.2-0.5,0.2-0.9s-0.1-0.7-0.2-0.9c-0.1-0.2-0.3-0.4-0.5-0.5
			C159,64.1,158.8,64,158.5,64z"/>
		<path class="st1" d="M163.5,63.4c0.4,0,0.8,0.1,1.1,0.3c0.3,0.2,0.5,0.5,0.6,0.8v-2.6h0.7v5.9h-0.7v-1.1c-0.1,0.3-0.3,0.6-0.6,0.8
			c-0.3,0.2-0.6,0.3-1.1,0.3c-0.4,0-0.7-0.1-1-0.3s-0.5-0.4-0.7-0.8c-0.2-0.3-0.2-0.7-0.2-1.2s0.1-0.8,0.2-1.2
			c0.2-0.3,0.4-0.6,0.7-0.8S163.1,63.4,163.5,63.4z M163.7,64c-0.4,0-0.8,0.1-1.1,0.4c-0.3,0.3-0.4,0.7-0.4,1.2s0.1,0.9,0.4,1.2
			c0.3,0.3,0.6,0.4,1.1,0.4c0.3,0,0.5-0.1,0.8-0.2c0.2-0.1,0.4-0.3,0.5-0.6s0.2-0.5,0.2-0.8s-0.1-0.6-0.2-0.8s-0.3-0.4-0.5-0.6
			C164.2,64.1,163.9,64,163.7,64z"/>
		<path class="st1" d="M167.3,63.4l1.4,3.4l1.3-3.4h0.8l-2.6,6.4h-0.8l0.9-2.1l-1.8-4.3L167.3,63.4L167.3,63.4z"/>
		<path class="st1" d="M174.2,62.2v5.6h-0.7v-5.6H174.2z"/>
		<path class="st1" d="M177.4,67.1v0.6h-0.5c-0.4,0-0.8-0.1-1-0.3s-0.3-0.6-0.3-1.1V64h-0.6v-0.6h0.6v-1.1h0.7v1.1h1.1V64h-1.1v2.4
			c0,0.3,0.1,0.5,0.1,0.6c0.1,0.1,0.3,0.2,0.5,0.2L177.4,67.1L177.4,67.1z"/>
		<path class="st1" d="M181,62.2v5.6h-0.7v-5.6H181z"/>
		<path class="st1" d="M183.5,63.4c0.5,0,0.9,0.1,1.2,0.4c0.3,0.2,0.5,0.6,0.6,1h-0.7c0-0.3-0.1-0.5-0.3-0.6
			c-0.2-0.2-0.4-0.2-0.7-0.2c-0.3,0-0.5,0.1-0.6,0.2c-0.1,0.1-0.2,0.3-0.2,0.5c0,0.2,0.1,0.3,0.1,0.4c0.1,0.1,0.2,0.2,0.4,0.2
			c0.1,0.1,0.4,0.1,0.6,0.2c0.3,0.1,0.6,0.2,0.8,0.2c0.2,0.1,0.4,0.2,0.5,0.4c0.1,0.2,0.2,0.4,0.2,0.7c0,0.3-0.1,0.6-0.4,0.9
			c-0.3,0.2-0.6,0.3-1.1,0.3c-0.5,0-0.9-0.1-1.3-0.4s-0.5-0.6-0.6-1h0.7c0,0.3,0.1,0.5,0.3,0.6c0.2,0.2,0.5,0.2,0.8,0.2
			c0.2,0,0.4-0.1,0.6-0.2c0.1-0.1,0.2-0.3,0.2-0.5c0-0.2-0.1-0.3-0.1-0.4s-0.2-0.2-0.4-0.2s-0.4-0.1-0.6-0.2
			c-0.3-0.1-0.6-0.2-0.8-0.2c-0.2-0.1-0.4-0.2-0.5-0.3c-0.1-0.2-0.2-0.4-0.2-0.7c0-0.4,0.1-0.7,0.4-0.9
			C182.7,63.5,183,63.4,183.5,63.4z"/>
		<path class="st1" d="M191.7,66.3c0,0.3-0.1,0.5-0.2,0.7c-0.1,0.2-0.3,0.4-0.6,0.6c-0.3,0.1-0.6,0.2-1,0.2c-0.4,0-0.7-0.1-1-0.2
			c-0.3-0.1-0.5-0.3-0.7-0.6s-0.3-0.5-0.3-0.8h0.8c0,0.2,0.1,0.3,0.2,0.5c0.1,0.2,0.2,0.3,0.4,0.4c0.2,0.1,0.4,0.1,0.6,0.1
			c0.3,0,0.6-0.1,0.7-0.2s0.2-0.4,0.2-0.7c0-0.2-0.1-0.4-0.2-0.6c-0.1-0.1-0.3-0.2-0.4-0.3c-0.2-0.1-0.4-0.2-0.7-0.3
			c-0.4-0.1-0.6-0.2-0.9-0.3c-0.2-0.1-0.4-0.3-0.6-0.5c-0.1-0.2-0.2-0.5-0.2-0.8c0-0.3,0.1-0.6,0.2-0.8c0.1-0.2,0.3-0.4,0.6-0.5
			c0.3-0.1,0.6-0.2,0.9-0.2c0.6,0,1,0.1,1.3,0.4c0.3,0.3,0.5,0.6,0.6,1h-0.8c0-0.2-0.2-0.4-0.3-0.6s-0.4-0.2-0.8-0.2
			c-0.3,0-0.5,0.1-0.7,0.2c-0.2,0.2-0.3,0.4-0.3,0.6c0,0.2,0.1,0.4,0.2,0.5c0.1,0.1,0.3,0.2,0.4,0.3c0.2,0.1,0.4,0.2,0.7,0.2
			c0.4,0.1,0.6,0.2,0.9,0.3c0.2,0.1,0.4,0.3,0.6,0.5C191.7,65.7,191.7,66,191.7,66.3z"/>
		<path class="st1" d="M195,63.4c0.5,0,0.9,0.2,1.2,0.5c0.3,0.3,0.5,0.8,0.5,1.4v2.5H196v-2.5c0-0.4-0.1-0.8-0.3-1s-0.5-0.3-0.9-0.3
			c-0.4,0-0.7,0.1-0.9,0.4c-0.2,0.2-0.4,0.6-0.4,1.1v2.3h-0.7v-5.9h0.7v2.6c0.1-0.3,0.3-0.6,0.6-0.8C194.3,63.4,194.6,63.4,195,63.4
			z"/>
		<path class="st1" d="M199.8,63.4c0.4,0,0.8,0.1,1.1,0.3s0.6,0.4,0.8,0.8s0.3,0.7,0.3,1.2s-0.1,0.8-0.3,1.2
			c-0.2,0.3-0.4,0.6-0.8,0.8c-0.3,0.2-0.7,0.3-1.1,0.3s-0.8-0.1-1.1-0.3c-0.3-0.2-0.6-0.4-0.8-0.8c-0.2-0.3-0.3-0.7-0.3-1.2
			s0.1-0.8,0.3-1.2c0.2-0.3,0.4-0.6,0.8-0.8S199.4,63.4,199.8,63.4z M199.8,64c-0.3,0-0.5,0.1-0.7,0.2c-0.2,0.1-0.4,0.3-0.5,0.5
			c-0.1,0.2-0.2,0.5-0.2,0.9c0,0.3,0.1,0.6,0.2,0.9c0.1,0.2,0.3,0.4,0.5,0.5c0.2,0.1,0.5,0.2,0.7,0.2s0.5-0.1,0.7-0.2
			c0.2-0.1,0.4-0.3,0.5-0.5c0.1-0.2,0.2-0.5,0.2-0.9s-0.1-0.7-0.2-0.9c-0.1-0.2-0.3-0.4-0.5-0.5C200.3,64.1,200,64,199.8,64z"/>
		<path class="st1" d="M208.9,63.4l-1.2,4.3h-0.8l-1.2-3.5l-1.2,3.5h-0.8l-1.2-4.3h0.7l0.9,3.7l1.2-3.7h0.8l1.2,3.7l0.9-3.7H208.9z"
			/>
		<path class="st1" d="M211.8,63.4c0.5,0,0.9,0.2,1.2,0.5c0.3,0.3,0.5,0.8,0.5,1.4v2.5h-0.7v-2.5c0-0.4-0.1-0.8-0.3-1
			S212,64,211.6,64c-0.4,0-0.7,0.1-0.9,0.4c-0.2,0.2-0.4,0.6-0.4,1.1v2.3h-0.7v-4.3h0.7v1c0.1-0.3,0.3-0.6,0.6-0.8
			C211.1,63.4,211.5,63.4,211.8,63.4z"/>
		<path class="st1" d="M219.3,64.9c0.3,0.1,0.6,0.2,0.8,0.5c0.2,0.2,0.3,0.6,0.3,0.9c0,0.4-0.2,0.8-0.5,1.1
			c-0.3,0.3-0.8,0.4-1.3,0.4h-2.1v-5.6h2.1c0.6,0,1,0.1,1.3,0.4s0.4,0.6,0.4,1c0,0.4-0.1,0.7-0.3,0.9
			C219.9,64.7,219.6,64.8,219.3,64.9z M217.3,64.6h1.2c0.4,0,0.6-0.1,0.8-0.2c0.2-0.2,0.3-0.4,0.3-0.7c0-0.3-0.1-0.5-0.3-0.7
			c-0.2-0.2-0.5-0.2-0.9-0.2h-1.2L217.3,64.6L217.3,64.6z M218.5,67.2c0.4,0,0.7-0.1,0.9-0.3c0.2-0.2,0.3-0.4,0.3-0.7
			c0-0.3-0.1-0.6-0.3-0.7c-0.2-0.2-0.5-0.3-0.9-0.3h-1.2v2H218.5z"/>
		<path class="st1" d="M221.7,63.4l1.4,3.4l1.3-3.4h0.8l-2.6,6.4h-0.8l0.9-2.1l-1.8-4.3L221.7,63.4L221.7,63.4z"/>
		<path class="st1" d="M232.5,65c0,0.6-0.1,1.1-0.3,1.5c-0.2,0.4-0.6,0.7-1,1c-0.4,0.2-1,0.3-1.6,0.3h-1.8v-5.6h1.8
			c0.6,0,1.1,0.1,1.6,0.3c0.4,0.2,0.8,0.5,1,1C232.4,63.9,232.5,64.4,232.5,65z M229.6,67.1c0.7,0,1.3-0.2,1.7-0.6
			c0.4-0.4,0.6-0.9,0.6-1.6c0-0.7-0.2-1.2-0.6-1.6c-0.4-0.4-0.9-0.6-1.7-0.6h-1v4.3C228.6,67.1,229.6,67.1,229.6,67.1z"/>
		<path class="st1" d="M237.5,65.4c0,0.2,0,0.3,0,0.4H234c0,0.5,0.2,0.9,0.4,1.1c0.3,0.2,0.6,0.4,1,0.4c0.4,0,0.6-0.1,0.9-0.3
			c0.2-0.2,0.4-0.4,0.4-0.7h0.8c-0.1,0.3-0.2,0.6-0.4,0.8c-0.2,0.2-0.4,0.4-0.7,0.6c-0.3,0.1-0.6,0.2-1,0.2c-0.4,0-0.8-0.1-1.1-0.3
			s-0.6-0.4-0.8-0.8c-0.2-0.3-0.3-0.7-0.3-1.2s0.1-0.8,0.3-1.2c0.2-0.3,0.4-0.6,0.8-0.8c0.3-0.2,0.7-0.3,1.1-0.3s0.8,0.1,1.1,0.3
			c0.3,0.2,0.6,0.4,0.7,0.7C237.4,64.7,237.5,65,237.5,65.4z M236.8,65.4c0-0.3,0-0.6-0.2-0.8c-0.1-0.2-0.3-0.4-0.5-0.5
			c-0.2-0.1-0.4-0.2-0.7-0.2c-0.4,0-0.7,0.1-1,0.4c-0.3,0.2-0.4,0.6-0.4,1.1H236.8z"/>
		<path class="st1" d="M240.4,62.4c-0.4,0-0.7,0.1-0.8,0.2s-0.2,0.4-0.2,0.7v0.1h1v0.6h-1v3.7h-0.7v-3.7H238v-0.6h0.6v-0.2
			c0-1,0.6-1.5,1.8-1.5V62.4z"/>
		<path class="st1" d="M243,63.4c0.4,0,0.8,0.1,1.1,0.3c0.3,0.2,0.5,0.5,0.6,0.8v-1.1h0.7v4.3h-0.7v-1.1c-0.1,0.3-0.3,0.6-0.6,0.8
			c-0.3,0.2-0.6,0.3-1.1,0.3c-0.4,0-0.7-0.1-1-0.3s-0.5-0.4-0.7-0.8c-0.2-0.3-0.2-0.7-0.2-1.2s0.1-0.8,0.2-1.2
			c0.2-0.3,0.4-0.6,0.7-0.8S242.6,63.4,243,63.4z M243.2,64c-0.4,0-0.8,0.1-1.1,0.4c-0.3,0.3-0.4,0.7-0.4,1.2s0.1,0.9,0.4,1.2
			c0.3,0.3,0.6,0.4,1.1,0.4c0.3,0,0.5-0.1,0.8-0.2c0.2-0.1,0.4-0.3,0.5-0.6s0.2-0.5,0.2-0.8s-0.1-0.6-0.2-0.8s-0.3-0.4-0.5-0.6
			C243.7,64.1,243.5,64,243.2,64z"/>
		<path class="st1" d="M250.4,63.4v4.3h-0.7v-1c-0.1,0.3-0.3,0.6-0.6,0.8c-0.3,0.2-0.6,0.3-1,0.3c-0.5,0-0.9-0.2-1.2-0.5
			c-0.3-0.3-0.5-0.8-0.5-1.4v-2.5h0.7v2.5c0,0.4,0.1,0.8,0.3,1c0.2,0.2,0.5,0.3,0.9,0.3c0.4,0,0.7-0.1,0.9-0.4
			c0.2-0.3,0.4-0.6,0.4-1.1v-2.3L250.4,63.4L250.4,63.4z"/>
		<path class="st1" d="M252.3,61.9v5.9h-0.7v-5.9H252.3z"/>
		<path class="st1" d="M255.5,67.1v0.6H255c-0.4,0-0.8-0.1-1-0.3s-0.3-0.6-0.3-1.1V64H253v-0.6h0.6v-1.1h0.7v1.1h1.1V64h-1.1v2.4
			c0,0.3,0.1,0.5,0.1,0.6c0.1,0.1,0.3,0.2,0.5,0.2L255.5,67.1L255.5,67.1z"/>
		<path class="st1" d="M261.8,62.2v0.6h-1.6v5h-0.7v-5h-1.6v-0.6H261.8z"/>
		<path class="st1" d="M264.8,63.4c0.5,0,0.9,0.2,1.2,0.5c0.3,0.3,0.5,0.8,0.5,1.4v2.5h-0.7v-2.5c0-0.4-0.1-0.8-0.3-1
			s-0.5-0.3-0.9-0.3c-0.4,0-0.7,0.1-1,0.4c-0.2,0.2-0.4,0.6-0.4,1.1v2.3h-0.7v-5.9h0.7v2.6c0.1-0.3,0.3-0.6,0.6-0.8
			C264.1,63.4,264.4,63.4,264.8,63.4z"/>
		<path class="st1" d="M271.6,65.4c0,0.2,0,0.3,0,0.4h-3.5c0,0.5,0.2,0.9,0.4,1.1c0.3,0.2,0.6,0.4,1,0.4c0.4,0,0.6-0.1,0.9-0.3
			c0.2-0.2,0.4-0.4,0.4-0.7h0.8c0,0.3-0.2,0.6-0.4,0.8c-0.2,0.2-0.4,0.4-0.7,0.6c-0.3,0.1-0.6,0.2-1,0.2c-0.4,0-0.8-0.1-1.1-0.3
			c-0.3-0.2-0.6-0.4-0.8-0.8c-0.2-0.3-0.3-0.7-0.3-1.2s0.1-0.8,0.3-1.2c0.2-0.3,0.4-0.6,0.8-0.8s0.7-0.3,1.1-0.3
			c0.4,0,0.8,0.1,1.1,0.3c0.3,0.2,0.6,0.4,0.7,0.7C271.5,64.7,271.6,65,271.6,65.4z M270.9,65.4c0-0.3,0-0.6-0.2-0.8
			s-0.3-0.4-0.5-0.5c-0.2-0.1-0.4-0.2-0.7-0.2c-0.4,0-0.7,0.1-1,0.4c-0.3,0.2-0.4,0.6-0.4,1.1H270.9z"/>
		<path class="st1" d="M272.8,63.4l1.4,3.4l1.3-3.4h0.8l-2.6,6.4h-0.8l0.9-2.1l-1.8-4.3L272.8,63.4L272.8,63.4z"/>
		<path class="st1" d="M282.4,62.2v0.6h-1.6v5h-0.7v-5h-1.6v-0.6H282.4z"/>
		<path class="st1" d="M285.4,63.4c0.5,0,0.9,0.2,1.2,0.5c0.3,0.3,0.5,0.8,0.5,1.4v2.5h-0.7v-2.5c0-0.4-0.1-0.8-0.3-1
			s-0.5-0.3-0.9-0.3c-0.4,0-0.7,0.1-1,0.4c-0.2,0.2-0.4,0.6-0.4,1.1v2.3h-0.7v-5.9h0.7v2.6c0.1-0.3,0.3-0.6,0.6-0.8
			C284.7,63.4,285,63.4,285.4,63.4z"/>
		<path class="st1" d="M288.1,62.1c0-0.1,0-0.2,0.1-0.3s0.2-0.1,0.4-0.1s0.3,0,0.4,0.1c0.1,0.1,0.1,0.2,0.1,0.3s0,0.2-0.1,0.3
			c-0.1,0.1-0.2,0.1-0.4,0.1s-0.3,0-0.4-0.1C288.1,62.4,288.1,62.3,288.1,62.1z M288.9,63.4v4.3h-0.7v-4.3H288.9z"/>
		<path class="st1" d="M292.4,63.4c0.5,0,0.9,0.2,1.2,0.5c0.3,0.3,0.5,0.8,0.5,1.4v2.5h-0.7v-2.5c0-0.4-0.1-0.8-0.3-1
			s-0.5-0.3-0.9-0.3c-0.4,0-0.7,0.1-1,0.4c-0.2,0.2-0.4,0.6-0.4,1.1v2.3h-0.7v-4.3h0.7v1c0.1-0.3,0.3-0.6,0.6-0.8
			C291.7,63.4,292,63.4,292.4,63.4z"/>
		<path class="st1" d="M297.6,67.8l-1.7-2v2h-0.7v-5.9h0.7v3.4l1.6-1.9h0.9l-2,2.2l2,2.2L297.6,67.8L297.6,67.8z"/>
		<path class="st1" d="M27.1,76c0.7,0,1.2,0.2,1.7,0.5c0.4,0.3,0.8,0.8,0.9,1.4h-0.8c-0.1-0.4-0.4-0.7-0.7-0.9
			c-0.3-0.2-0.7-0.3-1.2-0.3c-0.4,0-0.7,0.1-1,0.3c-0.3,0.2-0.5,0.4-0.7,0.8c-0.2,0.3-0.2,0.7-0.2,1.2c0,0.4,0.1,0.8,0.2,1.2
			s0.4,0.6,0.7,0.8c0.3,0.2,0.6,0.3,1,0.3c0.5,0,0.9-0.1,1.2-0.3s0.5-0.5,0.7-0.9h0.8c-0.2,0.6-0.5,1-0.9,1.4
			c-0.4,0.3-1,0.5-1.7,0.5c-0.5,0-1-0.1-1.4-0.4s-0.7-0.6-0.9-1c-0.2-0.4-0.3-0.9-0.3-1.5c0-0.6,0.1-1.1,0.3-1.5
			c0.2-0.4,0.5-0.8,0.9-1C26.1,76.1,26.5,76,27.1,76z"/>
		<path class="st1" d="M32.6,77.2c0.4,0,0.8,0.1,1.1,0.3s0.6,0.4,0.8,0.8c0.2,0.3,0.3,0.7,0.3,1.2c0,0.4-0.1,0.8-0.3,1.2
			c-0.2,0.3-0.4,0.6-0.8,0.8c-0.3,0.2-0.7,0.3-1.1,0.3s-0.8-0.1-1.1-0.3c-0.3-0.2-0.6-0.4-0.8-0.8c-0.2-0.3-0.3-0.7-0.3-1.2
			c0-0.4,0.1-0.8,0.3-1.2c0.2-0.3,0.5-0.6,0.8-0.8C31.8,77.3,32.2,77.2,32.6,77.2z M32.6,77.9c-0.3,0-0.5,0.1-0.7,0.2
			c-0.2,0.1-0.4,0.3-0.5,0.5c-0.1,0.2-0.2,0.5-0.2,0.9c0,0.3,0.1,0.6,0.2,0.9c0.1,0.2,0.3,0.4,0.5,0.5c0.2,0.1,0.5,0.2,0.7,0.2
			c0.3,0,0.5-0.1,0.7-0.2c0.2-0.1,0.4-0.3,0.5-0.5c0.1-0.2,0.2-0.5,0.2-0.9s-0.1-0.7-0.2-0.9c-0.1-0.2-0.3-0.4-0.5-0.5
			C33.1,77.9,32.9,77.9,32.6,77.9z"/>
		<path class="st1" d="M36.4,75.8v5.9h-0.7v-5.9H36.4z"/>
		<path class="st1" d="M38.3,75.8v5.9h-0.7v-5.9H38.3z"/>
		<path class="st1" d="M41.3,77.2c0.4,0,0.8,0.1,1.1,0.3c0.3,0.2,0.5,0.5,0.6,0.8v-1.1h0.7v4.3H43v-1.1c-0.1,0.3-0.3,0.6-0.6,0.8
			c-0.3,0.2-0.7,0.3-1.1,0.3c-0.4,0-0.7-0.1-1-0.3c-0.3-0.2-0.5-0.4-0.7-0.8c-0.2-0.3-0.2-0.7-0.2-1.2c0-0.4,0.1-0.8,0.2-1.2
			c0.2-0.3,0.4-0.6,0.7-0.8C40.5,77.3,40.9,77.2,41.3,77.2z M41.5,77.9c-0.4,0-0.8,0.1-1.1,0.4C40.2,78.6,40,79,40,79.5
			s0.1,0.9,0.4,1.2c0.3,0.3,0.6,0.4,1.1,0.4c0.3,0,0.5-0.1,0.8-0.2c0.2-0.1,0.4-0.3,0.5-0.6c0.1-0.2,0.2-0.5,0.2-0.8
			s-0.1-0.6-0.2-0.8s-0.3-0.4-0.5-0.6C42,78,41.8,77.9,41.5,77.9z"/>
		<path class="st1" d="M47.2,77.2c0.4,0,0.7,0.1,1,0.3c0.3,0.2,0.5,0.4,0.7,0.8s0.3,0.7,0.3,1.2c0,0.4-0.1,0.8-0.3,1.2
			c-0.2,0.3-0.4,0.6-0.7,0.8c-0.3,0.2-0.7,0.3-1,0.3c-0.4,0-0.8-0.1-1.1-0.3c-0.3-0.2-0.5-0.5-0.6-0.8v3.2h-0.7v-6.4h0.7v1.1
			c0.1-0.3,0.3-0.6,0.6-0.8C46.5,77.4,46.8,77.2,47.2,77.2z M47,77.9c-0.3,0-0.5,0.1-0.8,0.2c-0.2,0.1-0.4,0.3-0.5,0.6
			c-0.1,0.2-0.2,0.5-0.2,0.8s0.1,0.6,0.2,0.8s0.3,0.4,0.5,0.6c0.2,0.1,0.5,0.2,0.8,0.2c0.5,0,0.8-0.1,1.1-0.4
			c0.3-0.3,0.4-0.7,0.4-1.2c0-0.5-0.1-0.9-0.4-1.2C47.8,78,47.5,77.9,47,77.9z"/>
		<path class="st1" d="M51.5,77.2c0.5,0,0.9,0.1,1.2,0.4c0.3,0.2,0.5,0.6,0.6,1h-0.7c0-0.3-0.1-0.5-0.3-0.6
			c-0.2-0.2-0.4-0.2-0.7-0.2c-0.3,0-0.5,0.1-0.6,0.2c-0.1,0.1-0.2,0.3-0.2,0.5c0,0.2,0,0.3,0.1,0.4c0.1,0.1,0.2,0.2,0.4,0.2
			c0.2,0.1,0.3,0.1,0.6,0.2c0.3,0.1,0.6,0.2,0.8,0.2c0.2,0.1,0.4,0.2,0.5,0.4c0.1,0.2,0.2,0.4,0.2,0.7c0,0.3-0.1,0.6-0.4,0.9
			c-0.3,0.2-0.6,0.3-1.1,0.3c-0.5,0-0.9-0.1-1.3-0.4s-0.5-0.6-0.6-1h0.7c0,0.3,0.1,0.5,0.3,0.6c0.2,0.2,0.5,0.2,0.8,0.2
			c0.2,0,0.4-0.1,0.6-0.2c0.1-0.1,0.2-0.3,0.2-0.5c0-0.2-0.1-0.3-0.2-0.4s-0.2-0.2-0.4-0.2s-0.3-0.1-0.6-0.2
			c-0.3-0.1-0.6-0.2-0.8-0.2c-0.2-0.1-0.3-0.2-0.5-0.3C50.1,79,50,78.7,50,78.5c0-0.4,0.1-0.7,0.4-0.9
			C50.7,77.4,51.1,77.2,51.5,77.2z"/>
		<path class="st1" d="M58.3,79.2c0,0.2,0,0.3,0,0.4h-3.5c0,0.5,0.2,0.9,0.4,1.1c0.3,0.2,0.6,0.4,1,0.4c0.3,0,0.6-0.1,0.9-0.3
			c0.2-0.2,0.4-0.4,0.4-0.7h0.8c-0.1,0.3-0.2,0.6-0.4,0.8c-0.2,0.2-0.4,0.4-0.7,0.6c-0.3,0.1-0.6,0.2-1,0.2c-0.4,0-0.8-0.1-1.1-0.3
			s-0.6-0.4-0.8-0.8c-0.2-0.3-0.3-0.7-0.3-1.2c0-0.4,0.1-0.8,0.3-1.2c0.2-0.3,0.4-0.6,0.8-0.8s0.7-0.3,1.1-0.3s0.8,0.1,1.1,0.3
			c0.3,0.2,0.6,0.4,0.7,0.7C58.2,78.5,58.3,78.9,58.3,79.2z M57.6,79.3c0-0.3,0-0.6-0.2-0.8c-0.1-0.2-0.3-0.4-0.5-0.5
			c-0.2-0.1-0.4-0.2-0.7-0.2c-0.4,0-0.7,0.1-1,0.4c-0.3,0.2-0.4,0.6-0.4,1.1H57.6z"/>
		<path class="st1" d="M61.9,79.4v2.2h-0.7v-5.6H63c0.6,0,1.1,0.2,1.4,0.4c0.3,0.3,0.5,0.7,0.5,1.2c0,0.5-0.2,0.9-0.5,1.2
			c-0.3,0.3-0.8,0.4-1.4,0.4H61.9z M62.9,78.8c0.4,0,0.8-0.1,0.9-0.3c0.2-0.2,0.3-0.4,0.3-0.8c0-0.3-0.1-0.6-0.3-0.8
			c-0.2-0.2-0.5-0.3-0.9-0.3h-1v2.1L62.9,78.8L62.9,78.8z"/>
		<path class="st1" d="M66.4,75.8v5.9h-0.7v-5.9H66.4z"/>
		<path class="st1" d="M71.5,77.3v4.3h-0.7v-1c-0.1,0.3-0.3,0.6-0.6,0.8c-0.3,0.2-0.6,0.3-1,0.3c-0.5,0-0.9-0.2-1.2-0.5
			c-0.3-0.3-0.5-0.8-0.5-1.4v-2.5h0.7v2.5c0,0.4,0.1,0.8,0.3,1c0.2,0.2,0.5,0.3,0.9,0.3c0.4,0,0.7-0.1,0.9-0.4
			c0.2-0.3,0.4-0.6,0.4-1.1v-2.3L71.5,77.3L71.5,77.3z"/>
		<path class="st1" d="M74.4,77.2c0.4,0,0.8,0.1,1.1,0.3c0.3,0.2,0.5,0.5,0.6,0.8v-1.1h0.7v4.4c0,0.4-0.1,0.8-0.2,1.1
			s-0.4,0.6-0.7,0.7s-0.7,0.3-1.1,0.3c-0.6,0-1.1-0.1-1.4-0.4c-0.4-0.3-0.6-0.7-0.7-1.1h0.7c0.1,0.3,0.2,0.5,0.5,0.7
			c0.2,0.2,0.5,0.2,0.9,0.2c0.4,0,0.7-0.1,1-0.4s0.4-0.6,0.4-1.1v-1.2c-0.1,0.3-0.3,0.6-0.6,0.8c-0.3,0.2-0.7,0.3-1.1,0.3
			c-0.4,0-0.7-0.1-1-0.3c-0.3-0.2-0.5-0.4-0.7-0.8c-0.2-0.3-0.2-0.7-0.2-1.2c0-0.4,0.1-0.8,0.2-1.2c0.2-0.3,0.4-0.6,0.7-0.8
			C73.7,77.3,74,77.2,74.4,77.2z M74.6,77.9c-0.4,0-0.8,0.1-1.1,0.4c-0.3,0.3-0.4,0.7-0.4,1.2s0.1,0.9,0.4,1.2
			c0.3,0.3,0.6,0.4,1.1,0.4c0.3,0,0.5-0.1,0.8-0.2c0.2-0.1,0.4-0.3,0.5-0.6s0.2-0.5,0.2-0.8s-0.1-0.6-0.2-0.8
			c-0.1-0.2-0.3-0.4-0.5-0.6C75.2,78,74.9,77.9,74.6,77.9z"/>
		<path class="st1" d="M77.8,76c0-0.1,0.1-0.2,0.1-0.3c0.1-0.1,0.2-0.1,0.4-0.1s0.3,0,0.4,0.1c0.1,0.1,0.1,0.2,0.1,0.3
			c0,0.1,0,0.2-0.1,0.3c-0.1,0.1-0.2,0.1-0.4,0.1s-0.3,0-0.4-0.1C77.9,76.3,77.8,76.2,77.8,76z M78.7,77.3v4.3H78v-4.3H78.7z"/>
		<path class="st1" d="M82.1,77.2c0.5,0,0.9,0.2,1.2,0.5c0.3,0.3,0.5,0.8,0.5,1.4v2.5h-0.7v-2.5c0-0.4-0.1-0.8-0.3-1
			s-0.5-0.3-0.9-0.3c-0.4,0-0.7,0.1-0.9,0.4c-0.2,0.2-0.4,0.6-0.4,1.1v2.3h-0.7v-4.3h0.7v1c0.1-0.3,0.3-0.6,0.6-0.8
			C81.4,77.3,81.8,77.2,82.1,77.2z"/>
		<path class="st1" d="M90.2,80.4h-2.5l-0.5,1.3h-0.8l2.1-5.5h0.8l2.1,5.5h-0.8L90.2,80.4z M90,79.8L89,77l-1,2.8H90z"/>
		<path class="st1" d="M93.9,77.2c0.4,0,0.8,0.1,1.1,0.3c0.3,0.2,0.5,0.5,0.6,0.8v-2.6h0.7v5.9h-0.7v-1.1c-0.1,0.3-0.3,0.6-0.6,0.8
			c-0.3,0.2-0.7,0.3-1.1,0.3c-0.4,0-0.7-0.1-1-0.3c-0.3-0.2-0.5-0.4-0.7-0.8c-0.2-0.3-0.2-0.7-0.2-1.2c0-0.4,0.1-0.8,0.2-1.2
			c0.2-0.3,0.4-0.6,0.7-0.8C93.2,77.3,93.6,77.2,93.9,77.2z M94.1,77.9c-0.4,0-0.8,0.1-1.1,0.4c-0.3,0.3-0.4,0.7-0.4,1.2
			s0.1,0.9,0.4,1.2c0.3,0.3,0.6,0.4,1.1,0.4c0.3,0,0.5-0.1,0.8-0.2c0.2-0.1,0.4-0.3,0.5-0.6s0.2-0.5,0.2-0.8s-0.1-0.6-0.2-0.8
			c-0.1-0.2-0.3-0.4-0.5-0.6C94.7,78,94.4,77.9,94.1,77.9z"/>
		<path class="st1" d="M99.3,77.2c0.4,0,0.8,0.1,1.1,0.3c0.3,0.2,0.5,0.5,0.6,0.8v-2.6h0.7v5.9H101v-1.1c-0.1,0.3-0.3,0.6-0.6,0.8
			c-0.3,0.2-0.7,0.3-1.1,0.3c-0.4,0-0.7-0.1-1-0.3c-0.3-0.2-0.5-0.4-0.7-0.8c-0.2-0.3-0.2-0.7-0.2-1.2c0-0.4,0.1-0.8,0.2-1.2
			c0.2-0.3,0.4-0.6,0.7-0.8C98.6,77.3,98.9,77.2,99.3,77.2z M99.5,77.9c-0.4,0-0.8,0.1-1.1,0.4C98.2,78.6,98,79,98,79.5
			s0.1,0.9,0.4,1.2c0.3,0.3,0.6,0.4,1.1,0.4c0.3,0,0.5-0.1,0.8-0.2c0.2-0.1,0.4-0.3,0.5-0.6s0.2-0.5,0.2-0.8s-0.1-0.6-0.2-0.8
			c-0.1-0.2-0.3-0.4-0.5-0.6C100,78,99.8,77.9,99.5,77.9z"/>
		<path class="st1" d="M104.2,77.2c0.5,0,0.9,0.1,1.2,0.4c0.3,0.2,0.5,0.6,0.6,1h-0.7c0-0.3-0.1-0.5-0.3-0.6
			c-0.2-0.2-0.4-0.2-0.7-0.2c-0.3,0-0.5,0.1-0.6,0.2c-0.1,0.1-0.2,0.3-0.2,0.5c0,0.2,0.1,0.3,0.1,0.4c0.1,0.1,0.2,0.2,0.4,0.2
			c0.2,0.1,0.3,0.1,0.6,0.2c0.3,0.1,0.6,0.2,0.8,0.2c0.2,0.1,0.4,0.2,0.5,0.4c0.1,0.2,0.2,0.4,0.2,0.7c0,0.3-0.1,0.6-0.4,0.9
			c-0.3,0.2-0.6,0.3-1.1,0.3c-0.5,0-0.9-0.1-1.3-0.4c-0.3-0.2-0.5-0.6-0.6-1h0.7c0,0.3,0.1,0.5,0.3,0.6c0.2,0.2,0.5,0.2,0.8,0.2
			c0.2,0,0.4-0.1,0.6-0.2c0.1-0.1,0.2-0.3,0.2-0.5c0-0.2-0.1-0.3-0.2-0.4s-0.2-0.2-0.4-0.2c-0.2-0.1-0.3-0.1-0.6-0.2
			c-0.3-0.1-0.6-0.2-0.8-0.2c-0.2-0.1-0.3-0.2-0.5-0.3c-0.1-0.2-0.2-0.4-0.2-0.7c0-0.4,0.1-0.7,0.4-0.9
			C103.4,77.4,103.7,77.2,104.2,77.2z"/>
		<path class="st1" d="M109.6,81.1h2v0.6h-2.7v-5.6h0.7C109.6,76.1,109.6,81.1,109.6,81.1z"/>
		<path class="st1" d="M112.2,76c0-0.1,0.1-0.2,0.1-0.3c0.1-0.1,0.2-0.1,0.4-0.1s0.3,0,0.4,0.1c0.1,0.1,0.1,0.2,0.1,0.3
			c0,0.1-0.1,0.2-0.1,0.3c-0.1,0.1-0.2,0.1-0.4,0.1s-0.3,0-0.4-0.1C112.3,76.3,112.2,76.2,112.2,76z M113.1,77.3v4.3h-0.7v-4.3
			H113.1z"/>
		<path class="st1" d="M114.9,75.8v5.9h-0.7v-5.9H114.9z"/>
		<path class="st1" d="M116.4,77.3l1.4,3.4l1.3-3.4h0.8l-2.6,6.4h-0.8l0.9-2.1l-1.8-4.3L116.4,77.3L116.4,77.3z"/>
		<path class="st1" d="M126.8,76.1v5.6h-0.7v-2.6h-2.8v2.6h-0.7v-5.6h0.7v2.4h2.8v-2.4H126.8z"/>
		<path class="st1" d="M129.8,77.2c0.4,0,0.8,0.1,1.1,0.3c0.3,0.2,0.5,0.5,0.6,0.8v-1.1h0.7v4.3h-0.7v-1.1c-0.1,0.3-0.3,0.6-0.6,0.8
			c-0.3,0.2-0.6,0.3-1.1,0.3c-0.4,0-0.7-0.1-1-0.3s-0.5-0.4-0.7-0.8c-0.2-0.3-0.3-0.7-0.3-1.2c0-0.4,0.1-0.8,0.3-1.2
			c0.2-0.3,0.4-0.6,0.7-0.8C129,77.3,129.4,77.2,129.8,77.2z M130,77.9c-0.4,0-0.8,0.1-1.1,0.4c-0.3,0.3-0.4,0.7-0.4,1.2
			s0.1,0.9,0.4,1.2c0.3,0.3,0.6,0.4,1.1,0.4c0.3,0,0.5-0.1,0.8-0.2c0.2-0.1,0.4-0.3,0.5-0.6s0.2-0.5,0.2-0.8s-0.1-0.6-0.2-0.8
			s-0.3-0.4-0.5-0.6C130.5,78,130.3,77.9,130,77.9z"/>
		<path class="st1" d="M134.7,77.2c0.5,0,0.9,0.1,1.2,0.4c0.3,0.2,0.5,0.6,0.6,1h-0.7c0-0.3-0.1-0.5-0.3-0.6
			c-0.2-0.2-0.4-0.2-0.7-0.2c-0.3,0-0.5,0.1-0.6,0.2c-0.1,0.1-0.2,0.3-0.2,0.5c0,0.2,0.1,0.3,0.1,0.4c0.1,0.1,0.2,0.2,0.4,0.2
			c0.1,0.1,0.4,0.1,0.6,0.2c0.3,0.1,0.6,0.2,0.8,0.2c0.2,0.1,0.4,0.2,0.5,0.4c0.1,0.2,0.2,0.4,0.2,0.7c0,0.3-0.1,0.6-0.4,0.9
			c-0.3,0.2-0.6,0.3-1.1,0.3c-0.5,0-0.9-0.1-1.3-0.4s-0.5-0.6-0.6-1h0.7c0,0.3,0.1,0.5,0.3,0.6c0.2,0.2,0.5,0.2,0.8,0.2
			c0.2,0,0.4-0.1,0.6-0.2c0.1-0.1,0.2-0.3,0.2-0.5c0-0.2-0.1-0.3-0.1-0.4c-0.1-0.1-0.2-0.2-0.4-0.2s-0.4-0.1-0.6-0.2
			c-0.3-0.1-0.6-0.2-0.8-0.2c-0.2-0.1-0.4-0.2-0.5-0.3c-0.1-0.2-0.2-0.4-0.2-0.7c0-0.4,0.1-0.7,0.4-0.9
			C133.9,77.4,134.2,77.2,134.7,77.2z"/>
		<path class="st1" d="M142.8,76.1v0.6h-1.6v5h-0.7v-5h-1.6v-0.6H142.8z"/>
		<path class="st1" d="M145.5,77.2c0.4,0,0.8,0.1,1.1,0.3s0.6,0.4,0.8,0.8s0.3,0.7,0.3,1.2c0,0.4-0.1,0.8-0.3,1.2
			c-0.2,0.3-0.4,0.6-0.8,0.8c-0.3,0.2-0.7,0.3-1.1,0.3s-0.8-0.1-1.1-0.3c-0.3-0.2-0.6-0.4-0.8-0.8c-0.2-0.3-0.3-0.7-0.3-1.2
			c0-0.4,0.1-0.8,0.3-1.2c0.2-0.3,0.4-0.6,0.8-0.8C144.7,77.3,145.1,77.2,145.5,77.2z M145.5,77.9c-0.3,0-0.5,0.1-0.7,0.2
			c-0.2,0.1-0.4,0.3-0.5,0.5c-0.1,0.2-0.2,0.5-0.2,0.9c0,0.3,0.1,0.6,0.2,0.9c0.1,0.2,0.3,0.4,0.5,0.5c0.2,0.1,0.5,0.2,0.7,0.2
			s0.5-0.1,0.7-0.2c0.2-0.1,0.4-0.3,0.5-0.5c0.1-0.2,0.2-0.5,0.2-0.9s-0.1-0.7-0.2-0.9c-0.1-0.2-0.3-0.4-0.5-0.5
			C146,77.9,145.8,77.9,145.5,77.9z"/>
		<path class="st1" d="M153.8,76.1v0.6h-2.4v1.9h2.1v0.6h-2.1v2.5h-0.7v-5.6H153.8z"/>
		<path class="st1" d="M156.6,77.2c0.4,0,0.8,0.1,1.1,0.3s0.6,0.4,0.8,0.8s0.3,0.7,0.3,1.2c0,0.4-0.1,0.8-0.3,1.2
			c-0.2,0.3-0.4,0.6-0.8,0.8c-0.3,0.2-0.7,0.3-1.1,0.3s-0.8-0.1-1.1-0.3c-0.3-0.2-0.6-0.4-0.8-0.8c-0.2-0.3-0.3-0.7-0.3-1.2
			c0-0.4,0.1-0.8,0.3-1.2c0.2-0.3,0.4-0.6,0.8-0.8C155.8,77.3,156.2,77.2,156.6,77.2z M156.6,77.9c-0.3,0-0.5,0.1-0.7,0.2
			c-0.2,0.1-0.4,0.3-0.5,0.5c-0.1,0.2-0.2,0.5-0.2,0.9c0,0.3,0.1,0.6,0.2,0.9c0.1,0.2,0.3,0.4,0.5,0.5c0.2,0.1,0.5,0.2,0.7,0.2
			s0.5-0.1,0.7-0.2c0.2-0.1,0.4-0.3,0.5-0.5c0.1-0.2,0.2-0.5,0.2-0.9s-0.1-0.7-0.2-0.9c-0.1-0.2-0.3-0.4-0.5-0.5
			C157.1,77.9,156.8,77.9,156.6,77.9z"/>
		<path class="st1" d="M160.4,75.8v5.9h-0.7v-5.9H160.4z"/>
		<path class="st1" d="M162.3,75.8v5.9h-0.7v-5.9H162.3z"/>
		<path class="st1" d="M165.4,77.2c0.4,0,0.8,0.1,1.1,0.3s0.6,0.4,0.8,0.8s0.3,0.7,0.3,1.2c0,0.4-0.1,0.8-0.3,1.2
			c-0.2,0.3-0.4,0.6-0.8,0.8c-0.3,0.2-0.7,0.3-1.1,0.3s-0.8-0.1-1.1-0.3c-0.3-0.2-0.6-0.4-0.8-0.8c-0.2-0.3-0.3-0.7-0.3-1.2
			c0-0.4,0.1-0.8,0.3-1.2c0.2-0.3,0.4-0.6,0.8-0.8C164.6,77.3,165,77.2,165.4,77.2z M165.4,77.9c-0.3,0-0.5,0.1-0.7,0.2
			c-0.2,0.1-0.4,0.3-0.5,0.5c-0.1,0.2-0.2,0.5-0.2,0.9c0,0.3,0.1,0.6,0.2,0.9c0.1,0.2,0.3,0.4,0.5,0.5c0.2,0.1,0.5,0.2,0.7,0.2
			s0.5-0.1,0.7-0.2c0.2-0.1,0.4-0.3,0.5-0.5c0.1-0.2,0.2-0.5,0.2-0.9s-0.1-0.7-0.2-0.9c-0.1-0.2-0.3-0.4-0.5-0.5
			C165.9,77.9,165.7,77.9,165.4,77.9z"/>
		<path class="st1" d="M174.5,77.3l-1.2,4.3h-0.8l-1.2-3.5l-1.2,3.5h-0.8l-1.2-4.3h0.7l0.9,3.7l1.2-3.7h0.8l1.2,3.7l0.9-3.7H174.5z"
			/>
		<path class="st1" d="M175.7,80.8v0.8h-0.9v-0.8H175.7z"/>
	</g>
	<g>
		<path d="M27,42.8h3.3v1.5H25v-9.9h2V42.8z"/>
		<path d="M38.7,40.8H33c0,0.7,0.2,1.2,0.6,1.5c0.3,0.3,0.8,0.5,1.3,0.5c0.5,0,0.8-0.1,1.1-0.3c0.3-0.2,0.5-0.5,0.6-0.9h2.1
			c-0.1,0.5-0.3,1-0.7,1.5s-0.8,0.8-1.3,1c-0.5,0.2-1.1,0.4-1.8,0.4c-0.8,0-1.4-0.2-2-0.5c-0.6-0.3-1-0.8-1.4-1.4
			c-0.3-0.6-0.5-1.3-0.5-2.1s0.2-1.5,0.5-2.1c0.3-0.6,0.8-1.1,1.4-1.4c0.6-0.3,1.3-0.5,2-0.5c0.8,0,1.4,0.2,2,0.5
			c0.6,0.3,1,0.8,1.3,1.3c0.3,0.6,0.5,1.2,0.5,1.9C38.8,40.3,38.8,40.6,38.7,40.8z M36.3,38.5C35.9,38.2,35.5,38,35,38
			c-0.5,0-1,0.2-1.3,0.5c-0.4,0.3-0.6,0.8-0.6,1.4h3.8C36.8,39.3,36.7,38.8,36.3,38.5z"/>
		<path d="M44.3,42.6v1.7h-1c-0.9,0-1.5-0.2-2-0.6c-0.5-0.4-0.7-1.1-0.7-2.1v-3.4h-1.1v-1.7h1.1v-1.9h2v1.9h1.7v1.7h-1.7v3.4
			c0,0.4,0.1,0.6,0.2,0.8c0.1,0.1,0.4,0.2,0.8,0.2H44.3z"/>
		<path d="M47.3,34.3c0,0.6-0.1,1.1-0.4,1.4c-0.3,0.3-0.7,0.5-1.3,0.5v-0.8c0.2,0,0.4-0.1,0.5-0.2s0.2-0.4,0.2-0.7v-0.3h-0.8v-1.5
			h1.6C47.2,33.3,47.3,33.8,47.3,34.3z"/>
		<path d="M53.7,37.2c0.6,0.5,0.9,1.1,1.1,1.9h-1.8c-0.1-0.4-0.2-0.7-0.5-0.9c-0.3-0.2-0.6-0.3-1-0.3c-0.3,0-0.6,0.1-0.8,0.2
			c-0.2,0.2-0.3,0.4-0.3,0.6c0,0.2,0.1,0.4,0.2,0.5s0.3,0.2,0.6,0.3s0.5,0.2,1,0.3c0.6,0.1,1.1,0.3,1.4,0.4c0.4,0.1,0.7,0.4,1,0.7
			c0.3,0.3,0.4,0.7,0.4,1.3c0,0.7-0.3,1.2-0.8,1.6s-1.2,0.6-2.1,0.6c-1,0-1.8-0.2-2.4-0.7c-0.6-0.5-1-1.1-1.1-1.9h1.9
			c0,0.4,0.2,0.7,0.5,0.9c0.3,0.2,0.7,0.3,1.1,0.3c0.3,0,0.6-0.1,0.8-0.2c0.2-0.2,0.3-0.4,0.3-0.6c0-0.2-0.1-0.4-0.2-0.5
			c-0.2-0.1-0.3-0.2-0.6-0.3s-0.6-0.2-1-0.3c-0.6-0.1-1-0.3-1.4-0.4c-0.4-0.1-0.7-0.4-0.9-0.7c-0.3-0.3-0.4-0.7-0.4-1.2
			c0-0.7,0.3-1.2,0.8-1.6s1.2-0.6,2.1-0.6C52.4,36.5,53.2,36.7,53.7,37.2z"/>
		<path d="M72.4,34.4l-2.4,9.9h-2.4l-1.8-7.2l-1.9,7.2h-2.4L59,34.4h2.1l1.5,7.7l2-7.7h2.2l2,7.7l1.5-7.7H72.4z"/>
		<path d="M79.3,36.9c0.6,0.3,1.1,0.8,1.4,1.4s0.5,1.3,0.5,2.1s-0.2,1.5-0.5,2.1c-0.3,0.6-0.8,1.1-1.4,1.4c-0.6,0.3-1.3,0.5-2,0.5
			s-1.4-0.2-2-0.5c-0.6-0.3-1.1-0.8-1.4-1.4c-0.3-0.6-0.5-1.3-0.5-2.1s0.2-1.5,0.5-2.1s0.8-1.1,1.4-1.4s1.3-0.5,2-0.5
			S78.7,36.6,79.3,36.9z M75.9,38.7c-0.4,0.4-0.6,0.9-0.6,1.7s0.2,1.3,0.6,1.7c0.4,0.4,0.8,0.6,1.4,0.6s1-0.2,1.4-0.6
			s0.6-0.9,0.6-1.7s-0.2-1.3-0.6-1.7s-0.8-0.6-1.4-0.6S76.3,38.4,75.9,38.7z"/>
		<path d="M85.8,36.9c0.5-0.3,1-0.4,1.6-0.4v2.1h-0.6c-1.4,0-2.2,0.7-2.2,2v3.7h-2v-7.8h2V38C84.9,37.5,85.3,37.2,85.8,36.9z"/>
		<path d="M93,44.3l-2.6-3.4v3.4h-2V33.9h2v5.8l2.5-3.2h2.3l-3.3,3.9l3.3,3.9H93z"/>
		<path d="M106.2,34.4V36h-2.7v8.3h-2V36h-2.7v-1.6H106.2z"/>
		<path d="M112.9,36.9c0.6,0.3,1.1,0.8,1.4,1.4s0.5,1.3,0.5,2.1s-0.2,1.5-0.5,2.1c-0.3,0.6-0.8,1.1-1.4,1.4c-0.6,0.3-1.3,0.5-2,0.5
			s-1.4-0.2-2-0.5c-0.6-0.3-1.1-0.8-1.4-1.4c-0.3-0.6-0.5-1.3-0.5-2.1s0.2-1.5,0.5-2.1s0.8-1.1,1.4-1.4s1.3-0.5,2-0.5
			S112.3,36.6,112.9,36.9z M109.4,38.7c-0.4,0.4-0.6,0.9-0.6,1.7s0.2,1.3,0.6,1.7c0.4,0.4,0.8,0.6,1.4,0.6s1-0.2,1.4-0.6
			s0.6-0.9,0.6-1.7s-0.2-1.3-0.6-1.7s-0.8-0.6-1.4-0.6S109.8,38.4,109.4,38.7z"/>
		<path d="M120.9,36.9c0.5,0.3,0.8,0.7,1,1.2v-1.6h2v7.8c0,0.7-0.1,1.4-0.4,1.9c-0.3,0.6-0.7,1-1.3,1.4c-0.6,0.3-1.2,0.5-2.1,0.5
			c-1.1,0-2-0.3-2.7-0.8c-0.7-0.5-1.1-1.3-1.3-2.2h1.9c0.1,0.4,0.3,0.7,0.7,0.9s0.7,0.3,1.2,0.3c0.6,0,1-0.2,1.4-0.5
			c0.4-0.3,0.5-0.9,0.5-1.5v-1.7c-0.2,0.5-0.5,0.9-1,1.3c-0.5,0.3-1,0.5-1.7,0.5s-1.2-0.2-1.8-0.5c-0.5-0.3-0.9-0.8-1.2-1.4
			s-0.4-1.3-0.4-2.1s0.1-1.5,0.4-2.1s0.7-1.1,1.2-1.4c0.5-0.3,1.1-0.5,1.8-0.5S120.5,36.6,120.9,36.9z M118.4,38.8
			c-0.4,0.4-0.6,1-0.6,1.7c0,0.7,0.2,1.2,0.6,1.6c0.4,0.4,0.9,0.6,1.5,0.6c0.6,0,1.1-0.2,1.5-0.6c0.4-0.4,0.6-0.9,0.6-1.6
			c0-0.7-0.2-1.2-0.6-1.6c-0.4-0.4-0.9-0.6-1.5-0.6C119.2,38.2,118.7,38.4,118.4,38.8z"/>
		<path d="M132.9,40.8h-5.7c0,0.7,0.2,1.2,0.6,1.5c0.3,0.3,0.8,0.5,1.3,0.5c0.5,0,0.8-0.1,1.1-0.3c0.3-0.2,0.5-0.5,0.6-0.9h2.1
			c-0.1,0.5-0.3,1-0.7,1.5s-0.8,0.8-1.3,1c-0.5,0.2-1.1,0.4-1.8,0.4c-0.8,0-1.4-0.2-2-0.5c-0.6-0.3-1-0.8-1.4-1.4
			c-0.3-0.6-0.5-1.3-0.5-2.1s0.2-1.5,0.5-2.1c0.3-0.6,0.8-1.1,1.4-1.4c0.6-0.3,1.3-0.5,2-0.5c0.8,0,1.4,0.2,2,0.5
			c0.6,0.3,1,0.8,1.3,1.3c0.3,0.6,0.5,1.2,0.5,1.9C133,40.3,132.9,40.6,132.9,40.8z M130.5,38.5c-0.4-0.3-0.8-0.5-1.3-0.5
			c-0.5,0-1,0.2-1.3,0.5c-0.4,0.3-0.6,0.8-0.6,1.4h3.8C131,39.3,130.8,38.8,130.5,38.5z"/>
		<path d="M138.5,42.6v1.7h-1c-0.9,0-1.5-0.2-2-0.6c-0.5-0.4-0.7-1.1-0.7-2.1v-3.4h-1.1v-1.7h1.1v-1.9h2v1.9h1.7v1.7h-1.7v3.4
			c0,0.4,0.1,0.6,0.2,0.8c0.1,0.1,0.4,0.2,0.8,0.2H138.5z"/>
		<path d="M146.7,37.3c0.5,0.6,0.8,1.4,0.8,2.5v4.5h-2V40c0-0.6-0.2-1.1-0.5-1.4c-0.3-0.3-0.8-0.5-1.3-0.5c-0.6,0-1,0.2-1.3,0.5
			c-0.3,0.4-0.5,0.9-0.5,1.6v4.1h-2V33.9h2v4.2c0.2-0.5,0.5-0.9,1-1.2c0.5-0.3,1-0.4,1.6-0.4C145.4,36.4,146.1,36.7,146.7,37.3z"/>
		<path d="M156.4,40.8h-5.7c0,0.7,0.2,1.2,0.6,1.5c0.3,0.3,0.8,0.5,1.3,0.5c0.5,0,0.8-0.1,1.1-0.3c0.3-0.2,0.5-0.5,0.6-0.9h2.1
			c-0.1,0.5-0.3,1-0.7,1.5s-0.8,0.8-1.3,1c-0.5,0.2-1.1,0.4-1.8,0.4c-0.8,0-1.4-0.2-2-0.5c-0.6-0.3-1-0.8-1.4-1.4
			c-0.3-0.6-0.5-1.3-0.5-2.1s0.2-1.5,0.5-2.1c0.3-0.6,0.8-1.1,1.4-1.4s1.3-0.5,2-0.5c0.8,0,1.4,0.2,2,0.5c0.6,0.3,1,0.8,1.3,1.3
			s0.5,1.2,0.5,1.9C156.5,40.3,156.5,40.6,156.4,40.8z M154,38.5c-0.4-0.3-0.8-0.5-1.3-0.5c-0.5,0-1,0.2-1.3,0.5s-0.6,0.8-0.6,1.4
			h3.8C154.5,39.3,154.4,38.8,154,38.5z"/>
		<path d="M161,36.9c0.5-0.3,1-0.4,1.6-0.4v2.1H162c-1.4,0-2.2,0.7-2.2,2v3.7h-2v-7.8h2V38C160.2,37.5,160.6,37.2,161,36.9z"/>
		<path d="M179.7,34.4l-2.4,9.9h-2.4l-1.8-7.2l-1.9,7.2h-2.4l-2.4-9.9h2.1l1.5,7.7l2-7.7h2.2l2,7.7l1.5-7.7H179.7z"/>
		<path d="M181.2,33.6c0.2-0.2,0.5-0.3,0.9-0.3c0.4,0,0.7,0.1,0.9,0.3c0.2,0.2,0.3,0.5,0.3,0.8c0,0.3-0.1,0.6-0.3,0.8
			c-0.2,0.2-0.5,0.3-0.9,0.3c-0.4,0-0.7-0.1-0.9-0.3c-0.2-0.2-0.3-0.5-0.3-0.8C180.9,34,181,33.8,181.2,33.6z M183,36.6v7.8h-2v-7.8
			H183z"/>
		<path d="M189,42.6v1.7h-1c-0.9,0-1.5-0.2-2-0.6s-0.7-1.1-0.7-2.1v-3.4h-1.1v-1.7h1.1v-1.9h2v1.9h1.7v1.7h-1.7v3.4
			c0,0.4,0.1,0.6,0.2,0.8s0.4,0.2,0.8,0.2H189z"/>
		<path d="M197.2,37.3c0.5,0.6,0.8,1.4,0.8,2.5v4.5h-2V40c0-0.6-0.2-1.1-0.5-1.4c-0.3-0.3-0.8-0.5-1.3-0.5c-0.6,0-1,0.2-1.3,0.5
			c-0.3,0.4-0.5,0.9-0.5,1.6v4.1h-2V33.9h2v4.2c0.2-0.5,0.5-0.9,1-1.2c0.5-0.3,1-0.4,1.6-0.4C195.9,36.4,196.6,36.7,197.2,37.3z"/>
		<path d="M210.3,35.2c0.8,0.6,1.3,1.4,1.5,2.4h-2.1c-0.2-0.4-0.5-0.8-0.9-1.1c-0.4-0.3-0.9-0.4-1.5-0.4c-0.6,0-1.1,0.1-1.5,0.4
			c-0.4,0.3-0.8,0.6-1,1.1c-0.2,0.5-0.4,1.1-0.4,1.7c0,1,0.3,1.8,0.8,2.4s1.3,0.9,2.3,0.9c0.7,0,1.3-0.2,1.8-0.6
			c0.5-0.4,0.8-1,1-1.8H207v-1.4h5v1.9c-0.1,0.7-0.4,1.3-0.8,1.8c-0.4,0.6-0.9,1-1.6,1.3c-0.7,0.3-1.4,0.5-2.3,0.5
			c-1,0-1.8-0.2-2.6-0.6c-0.7-0.4-1.3-1-1.7-1.8c-0.4-0.8-0.6-1.6-0.6-2.6s0.2-1.9,0.6-2.6c0.4-0.8,1-1.4,1.7-1.8s1.6-0.6,2.6-0.6
			C208.5,34.3,209.5,34.6,210.3,35.2z"/>
		<path d="M220.9,36.6v7.8h-2v-1.6c-0.2,0.5-0.5,0.9-1,1.2c-0.5,0.3-1,0.4-1.6,0.4c-0.9,0-1.6-0.3-2.1-0.9c-0.5-0.6-0.8-1.4-0.8-2.5
			v-4.5h2v4.3c0,0.6,0.2,1.1,0.5,1.4c0.3,0.3,0.7,0.5,1.3,0.5c0.6,0,1-0.2,1.4-0.5c0.3-0.4,0.5-0.9,0.5-1.6v-4.1H220.9z"/>
		<path d="M226.9,42.6v1.7h-1c-0.9,0-1.5-0.2-2-0.6s-0.7-1.1-0.7-2.1v-3.4h-1.1v-1.7h1.1v-1.9h2v1.9h1.7v1.7h-1.7v3.4
			c0,0.4,0.1,0.6,0.2,0.8s0.4,0.2,0.8,0.2H226.9z"/>
		<path d="M235.5,40.8h-5.7c0,0.7,0.2,1.2,0.6,1.5c0.3,0.3,0.8,0.5,1.3,0.5c0.5,0,0.8-0.1,1.1-0.3c0.3-0.2,0.5-0.5,0.6-0.9h2.1
			c-0.1,0.5-0.3,1-0.7,1.5s-0.8,0.8-1.3,1c-0.5,0.2-1.1,0.4-1.8,0.4c-0.8,0-1.4-0.2-2-0.5c-0.6-0.3-1-0.8-1.4-1.4
			c-0.3-0.6-0.5-1.3-0.5-2.1s0.2-1.5,0.5-2.1c0.3-0.6,0.8-1.1,1.4-1.4s1.3-0.5,2-0.5c0.8,0,1.4,0.2,2,0.5c0.6,0.3,1,0.8,1.3,1.3
			s0.5,1.2,0.5,1.9C235.6,40.3,235.5,40.6,235.5,40.8z M233.1,38.5c-0.4-0.3-0.8-0.5-1.3-0.5c-0.5,0-1,0.2-1.3,0.5s-0.6,0.8-0.6,1.4
			h3.8C233.6,39.3,233.4,38.8,233.1,38.5z"/>
		<path d="M243.7,37.3c0.5,0.6,0.8,1.4,0.8,2.5v4.5h-2V40c0-0.6-0.2-1.1-0.5-1.4c-0.3-0.3-0.8-0.5-1.3-0.5c-0.6,0-1,0.2-1.3,0.5
			c-0.3,0.4-0.5,0.9-0.5,1.6v4.1h-2v-7.8h2v1.6c0.2-0.5,0.5-0.9,1-1.2c0.5-0.3,1-0.4,1.6-0.4C242.5,36.4,243.2,36.7,243.7,37.3z"/>
		<path d="M252.7,36.9c0.5,0.3,0.9,0.8,1.2,1.4c0.3,0.6,0.4,1.3,0.4,2.1s-0.1,1.5-0.4,2.1c-0.3,0.6-0.7,1.1-1.2,1.4
			s-1.1,0.5-1.8,0.5s-1.2-0.2-1.7-0.5c-0.5-0.3-0.8-0.7-1-1.3v1.6h-2V33.9h2v4.2c0.2-0.5,0.5-0.9,1-1.2c0.5-0.3,1-0.5,1.7-0.5
			S252.1,36.6,252.7,36.9z M248.8,38.8c-0.4,0.4-0.6,1-0.6,1.6c0,0.7,0.2,1.2,0.6,1.6c0.4,0.4,0.9,0.6,1.5,0.6
			c0.6,0,1.1-0.2,1.5-0.6c0.4-0.4,0.6-0.9,0.6-1.6c0-0.7-0.2-1.3-0.6-1.7c-0.4-0.4-0.9-0.6-1.5-0.6
			C249.7,38.2,249.2,38.4,248.8,38.8z"/>
		<path d="M262.9,40.8h-5.7c0,0.7,0.2,1.2,0.6,1.5c0.3,0.3,0.8,0.5,1.3,0.5c0.5,0,0.8-0.1,1.1-0.3c0.3-0.2,0.5-0.5,0.6-0.9h2.1
			c-0.1,0.5-0.3,1-0.7,1.5s-0.8,0.8-1.3,1c-0.5,0.2-1.1,0.4-1.8,0.4c-0.8,0-1.4-0.2-2-0.5c-0.6-0.3-1-0.8-1.4-1.4
			c-0.3-0.6-0.5-1.3-0.5-2.1s0.2-1.5,0.5-2.1c0.3-0.6,0.8-1.1,1.4-1.4s1.3-0.5,2-0.5c0.8,0,1.4,0.2,2,0.5c0.6,0.3,1,0.8,1.3,1.3
			s0.5,1.2,0.5,1.9C263,40.3,263,40.6,262.9,40.8z M260.5,38.5c-0.4-0.3-0.8-0.5-1.3-0.5c-0.5,0-1,0.2-1.3,0.5s-0.6,0.8-0.6,1.4h3.8
			C261.1,39.3,260.9,38.8,260.5,38.5z"/>
		<path d="M267.5,36.9c0.5-0.3,1-0.4,1.6-0.4v2.1h-0.6c-1.4,0-2.2,0.7-2.2,2v3.7h-2v-7.8h2V38C266.7,37.5,267.1,37.2,267.5,36.9z"/>
		<path d="M274.9,36.9c0.5,0.3,0.8,0.7,1,1.2v-1.6h2v7.8c0,0.7-0.1,1.4-0.4,1.9c-0.3,0.6-0.7,1-1.3,1.4c-0.6,0.3-1.2,0.5-2.1,0.5
			c-1.1,0-2-0.3-2.7-0.8c-0.7-0.5-1.1-1.3-1.3-2.2h1.9c0.1,0.4,0.3,0.7,0.7,0.9c0.3,0.2,0.7,0.3,1.2,0.3c0.6,0,1-0.2,1.4-0.5
			c0.4-0.3,0.5-0.9,0.5-1.5v-1.7c-0.2,0.5-0.5,0.9-1,1.3c-0.5,0.3-1,0.5-1.7,0.5s-1.2-0.2-1.8-0.5s-0.9-0.8-1.2-1.4
			s-0.4-1.3-0.4-2.1s0.1-1.5,0.4-2.1s0.7-1.1,1.2-1.4s1.1-0.5,1.8-0.5S274.5,36.6,274.9,36.9z M272.4,38.8c-0.4,0.4-0.6,1-0.6,1.7
			c0,0.7,0.2,1.2,0.6,1.6c0.4,0.4,0.9,0.6,1.5,0.6c0.6,0,1.1-0.2,1.5-0.6c0.4-0.4,0.6-0.9,0.6-1.6c0-0.7-0.2-1.2-0.6-1.6
			c-0.4-0.4-0.9-0.6-1.5-0.6C273.3,38.2,272.8,38.4,272.4,38.8z"/>
	</g>
	<g>
		
			<linearGradient id="SVGID_1_" gradientUnits="userSpaceOnUse" x1="107.9431" y1="644.5669" x2="40.0091" y2="704.2615" gradientTransform="matrix(1 0 0 1 0 -560)">
			<stop  offset="0" style="stop-color:#0361F0"/>
			<stop  offset="1" style="stop-color:#124087"/>
		</linearGradient>
		<path class="st2" d="M33.5,101.7h80.9c6.6,0,12,5.7,12,12.8l0,0c0,7.1-5.4,12.8-12,12.8H33.5c-6.6,0-12-5.7-12-12.8l0,0
			C21.5,107.4,26.9,101.7,33.5,101.7z"/>
		<g>
			<path class="st0" d="M43,118.3l-1.6-2.8h-0.6v2.8h-1.4v-7.1h2.7c0.8,0,1.4,0.2,1.9,0.6c0.4,0.4,0.6,0.9,0.6,1.6
				c0,0.5-0.1,1-0.4,1.3c-0.3,0.4-0.7,0.6-1.3,0.7l1.8,2.8H43z M40.8,114.6h1.2c0.8,0,1.2-0.4,1.2-1.1c0-0.3-0.1-0.6-0.3-0.8
				s-0.5-0.3-0.9-0.3h-1.2V114.6z"/>
			<path class="st0" d="M48.9,113.1c0.3,0.2,0.6,0.5,0.7,0.9v-1.2H51v5.5h-1.4v-1.2c-0.1,0.4-0.4,0.7-0.7,0.9
				c-0.3,0.2-0.7,0.3-1.2,0.3c-0.5,0-0.9-0.1-1.3-0.3c-0.4-0.2-0.7-0.6-0.9-1s-0.3-0.9-0.3-1.5c0-0.6,0.1-1.1,0.3-1.5s0.5-0.8,0.9-1
				c0.4-0.2,0.8-0.3,1.3-0.3C48.2,112.7,48.6,112.8,48.9,113.1z M47.1,114.4c-0.3,0.3-0.4,0.7-0.4,1.2s0.1,0.9,0.4,1.2
				s0.6,0.4,1.1,0.4c0.4,0,0.8-0.1,1.1-0.4c0.3-0.3,0.4-0.7,0.4-1.2c0-0.5-0.1-0.9-0.4-1.2c-0.3-0.3-0.6-0.4-1.1-0.4
				C47.7,114,47.3,114.1,47.1,114.4z"/>
			<path class="st0" d="M55.6,113.1c0.3,0.2,0.6,0.5,0.7,0.9v-3h1.4v7.4h-1.4v-1.2c-0.1,0.4-0.4,0.7-0.7,0.9
				c-0.3,0.2-0.7,0.3-1.2,0.3c-0.5,0-0.9-0.1-1.3-0.3c-0.4-0.2-0.7-0.6-0.9-1s-0.3-0.9-0.3-1.5c0-0.6,0.1-1.1,0.3-1.5s0.5-0.8,0.9-1
				c0.4-0.2,0.8-0.3,1.3-0.3C54.9,112.7,55.3,112.8,55.6,113.1z M53.8,114.4c-0.3,0.3-0.4,0.7-0.4,1.2s0.1,0.9,0.4,1.2
				s0.6,0.4,1.1,0.4c0.4,0,0.8-0.1,1.1-0.4c0.3-0.3,0.4-0.7,0.4-1.2c0-0.5-0.1-0.9-0.4-1.2c-0.3-0.3-0.6-0.4-1.1-0.4
				C54.5,114,54.1,114.1,53.8,114.4z"/>
			<path class="st0" d="M59.1,110.7c0.2-0.1,0.4-0.2,0.6-0.2c0.3,0,0.5,0.1,0.6,0.2c0.2,0.1,0.2,0.3,0.2,0.6c0,0.2-0.1,0.4-0.2,0.5
				S60,112,59.8,112c-0.3,0-0.5-0.1-0.6-0.2c-0.2-0.1-0.2-0.3-0.2-0.5C58.9,111,59,110.8,59.1,110.7z M60.4,112.8v5.5H59v-5.5H60.4z
				"/>
			<path class="st0" d="M67,112.8v5.5h-1.4v-1.1c-0.1,0.4-0.4,0.7-0.7,0.9c-0.3,0.2-0.7,0.3-1.2,0.3c-0.6,0-1.1-0.2-1.5-0.6
				c-0.4-0.4-0.6-1-0.6-1.8v-3.2H63v3.1c0,0.4,0.1,0.8,0.3,1s0.5,0.4,0.9,0.4c0.4,0,0.7-0.1,1-0.4c0.2-0.3,0.4-0.6,0.4-1.1v-2.9H67z
				"/>
			<path class="st0" d="M71.8,113.2c0.4,0.3,0.7,0.8,0.8,1.4h-1.3c-0.1-0.3-0.2-0.5-0.4-0.6s-0.4-0.2-0.7-0.2
				c-0.2,0-0.4,0.1-0.6,0.2s-0.2,0.3-0.2,0.5c0,0.2,0.1,0.3,0.2,0.4c0.1,0.1,0.2,0.2,0.4,0.2c0.2,0.1,0.4,0.1,0.7,0.2
				c0.4,0.1,0.8,0.2,1,0.3c0.3,0.1,0.5,0.3,0.7,0.5s0.3,0.5,0.3,0.9c0,0.5-0.2,0.9-0.6,1.1c-0.4,0.3-0.9,0.4-1.5,0.4
				c-0.7,0-1.3-0.2-1.7-0.5c-0.4-0.3-0.7-0.8-0.8-1.4h1.3c0,0.3,0.2,0.5,0.4,0.6c0.2,0.2,0.5,0.2,0.8,0.2c0.2,0,0.4-0.1,0.5-0.2
				c0.1-0.1,0.2-0.3,0.2-0.5c0-0.2-0.1-0.3-0.2-0.4c-0.1-0.1-0.2-0.2-0.4-0.2c-0.2-0.1-0.4-0.1-0.7-0.2c-0.4-0.1-0.7-0.2-1-0.3
				c-0.3-0.1-0.5-0.3-0.7-0.5c-0.2-0.2-0.3-0.5-0.3-0.9c0-0.5,0.2-0.9,0.5-1.2s0.9-0.5,1.5-0.5C70.9,112.7,71.4,112.9,71.8,113.2z"
				/>
			<path class="st0" d="M80.9,115.3c0.3,0.3,0.4,0.7,0.4,1.1c0,0.6-0.2,1.1-0.6,1.4c-0.4,0.3-1,0.5-1.7,0.5h-3v-7.1h3
				c0.7,0,1.3,0.2,1.6,0.5s0.6,0.8,0.6,1.3c0,0.4-0.1,0.8-0.3,1.1c-0.2,0.3-0.5,0.5-0.9,0.6C80.3,114.8,80.6,115,80.9,115.3z
				 M77.3,114.2h1.3c0.4,0,0.6-0.1,0.8-0.2c0.2-0.2,0.3-0.4,0.3-0.7c0-0.3-0.1-0.5-0.3-0.7c-0.2-0.2-0.5-0.2-0.8-0.2h-1.2V114.2z
				 M79.5,116.9c0.2-0.2,0.3-0.4,0.3-0.7c0-0.3-0.1-0.6-0.3-0.7c-0.2-0.2-0.5-0.3-0.9-0.3h-1.3v1.9h1.3
				C79,117.2,79.3,117.1,79.5,116.9z"/>
			<path class="st0" d="M87.5,112.8v5.5h-1.4v-1.1c-0.1,0.4-0.4,0.7-0.7,0.9c-0.3,0.2-0.7,0.3-1.2,0.3c-0.6,0-1.1-0.2-1.5-0.6
				c-0.4-0.4-0.6-1-0.6-1.8v-3.2h1.4v3.1c0,0.4,0.1,0.8,0.3,1s0.5,0.4,0.9,0.4c0.4,0,0.7-0.1,1-0.4c0.2-0.3,0.4-0.6,0.4-1.1v-2.9
				H87.5z"/>
			<path class="st0" d="M91.8,117.1v1.2H91c-0.6,0-1.1-0.2-1.4-0.5s-0.5-0.8-0.5-1.5V114h-0.8v-1.2h0.8v-1.4h1.4v1.4h1.2v1.2h-1.2
				v2.4c0,0.3,0.1,0.5,0.2,0.6c0.1,0.1,0.3,0.2,0.5,0.2H91.8z"/>
			<path class="st0" d="M95.7,117.1v1.2H95c-0.6,0-1.1-0.2-1.4-0.5s-0.5-0.8-0.5-1.5V114h-0.8v-1.2h0.8v-1.4h1.4v1.4h1.2v1.2h-1.2
				v2.4c0,0.3,0.1,0.5,0.2,0.6c0.1,0.1,0.3,0.2,0.5,0.2H95.7z"/>
			<path class="st0" d="M100.8,113.1c0.4,0.2,0.8,0.6,1,1s0.4,0.9,0.4,1.5c0,0.6-0.1,1.1-0.4,1.5s-0.6,0.8-1,1
				c-0.4,0.2-0.9,0.3-1.5,0.3s-1-0.1-1.5-0.3c-0.4-0.2-0.8-0.6-1-1s-0.4-0.9-0.4-1.5c0-0.6,0.1-1.1,0.4-1.5s0.6-0.8,1-1
				c0.4-0.2,0.9-0.3,1.5-0.3S100.3,112.8,100.8,113.1z M98.3,114.4c-0.3,0.3-0.4,0.7-0.4,1.2c0,0.5,0.1,0.9,0.4,1.2
				c0.3,0.3,0.6,0.4,1,0.4c0.4,0,0.7-0.1,1-0.4c0.3-0.3,0.4-0.7,0.4-1.2c0-0.5-0.1-0.9-0.4-1.2c-0.3-0.3-0.6-0.4-1-0.4
				C98.9,114,98.6,114.1,98.3,114.4z"/>
			<path class="st0" d="M108,113.4c0.4,0.4,0.6,1,0.6,1.8v3.2h-1.4v-3.1c0-0.4-0.1-0.8-0.3-1s-0.5-0.4-0.9-0.4c-0.4,0-0.7,0.1-1,0.4
				c-0.2,0.3-0.4,0.6-0.4,1.1v2.9h-1.4v-5.5h1.4v1.1c0.1-0.4,0.4-0.7,0.7-0.9s0.7-0.3,1.2-0.3C107.1,112.7,107.6,112.9,108,113.4z"
				/>
		</g>
	</g>
</g>
</svg>
