<?xml version="1.0" encoding="utf-8"?>
<!-- Generator: Adobe Illustrator 25.2.1, SVG Export Plug-In . SVG Version: 6.00 Build 0)  -->
<svg version="1.1" id="Layer_1" xmlns="http://www.w3.org/2000/svg" xmlns:xlink="http://www.w3.org/1999/xlink" x="0px" y="0px"
	 viewBox="0 0 145 110" style="enable-background:new 0 0 145 110;" xml:space="preserve">
<style type="text/css">
	.st0{fill:#EFEFEF;}
	.st1{fill:#0066FF;}
	.st2{fill:#FFFFFF;}
	.st3{opacity:0.2;fill:#FFFFFF;enable-background:new    ;}
	.st4{opacity:0.15;fill:#0066FF;enable-background:new    ;}
</style>
<g>
	<rect class="st0" width="145" height="110"/>
	<g>
		<path class="st1" d="M14.7,35h57.8v40H14.7c-2.6,0-4.7-2.1-4.7-4.7V39.7C10,37.1,12.1,35,14.7,35z"/>
		<g>
			<path class="st2" d="M73,74.5v-39h57.3c2.3,0,4.2,1.9,4.2,4.2v30.6c0,2.3-1.9,4.2-4.2,4.2H73z"/>
			<path class="st1" d="M130.3,36c2,0,3.7,1.7,3.7,3.7v30.6c0,2-1.7,3.7-3.7,3.7H73.5V36H130.3 M130.3,35H72.5v40h57.8
				c2.6,0,4.7-2.1,4.7-4.7V39.7C135,37.1,132.9,35,130.3,35L130.3,35z"/>
		</g>
		<polygon class="st1" points="48.7,74.9 41.3,82.3 33.8,74.9 		"/>
		<path class="st3" d="M60.8,58.1h-39c-1.7,0-3.1-1.4-3.1-3.1l0,0c0-1.7,1.4-3.1,3.1-3.1h39c1.7,0,3.1,1.4,3.1,3.1l0,0
			C63.9,56.7,62.5,58.1,60.8,58.1z"/>
		<path class="st4" d="M123.3,58.1h-39c-1.7,0-3.1-1.4-3.1-3.1l0,0c0-1.7,1.4-3.1,3.1-3.1h39c1.7,0,3.1,1.4,3.1,3.1l0,0
			C126.4,56.7,125,58.1,123.3,58.1z"/>
	</g>
</g>
</svg>
