<?xml version="1.0" encoding="utf-8"?>
<!-- Generator: Adobe Illustrator 25.2.1, SVG Export Plug-In . SVG Version: 6.00 Build 0)  -->
<svg version="1.1" id="Layer_1" xmlns="http://www.w3.org/2000/svg" xmlns:xlink="http://www.w3.org/1999/xlink" x="0px" y="0px"
	 viewBox="0 0 145 110" style="enable-background:new 0 0 145 110;" xml:space="preserve">
<style type="text/css">
	.st0{fill:#EFEFEF;}
	.st1{fill:#FFFFFF;}
	.st2{fill:#E5E5E5;}
	.st3{fill:none;stroke:#CCCCCC;stroke-miterlimit:10;}
	.st4{fill:#0066FF;}
	.st5{opacity:0.2;fill:#0066FF;enable-background:new    ;}
	.st6{opacity:0.5;}
</style>
<g>
	<rect class="st0" width="145" height="110"/>
	<rect x="12" y="12" class="st1" width="121" height="28.7"/>
	<rect x="12" y="40.7" class="st2" width="121" height="28.7"/>
	<rect x="12" y="69.3" class="st2" width="121" height="28.7"/>
	<line class="st3" x1="12" y1="69.3" x2="133" y2="69.3"/>
	<line class="st3" x1="12" y1="98" x2="133" y2="98"/>
	<rect x="12" y="12" class="st4" width="3" height="28.7"/>
	<path class="st5" d="M117.7,27.5h-65c-1.4,0-2.5-1.1-2.5-2.5l0,0c0-1.4,1.1-2.5,2.5-2.5h65c1.4,0,2.5,1.1,2.5,2.5l0,0
		C120.2,26.4,119,27.5,117.7,27.5z"/>
	<g>
		<g>
			<path class="st4" d="M44.2,24.7c0,0.1,0,0.2,0,0.3c-0.1,0.3-0.4,0.5-0.7,0.5c-0.2,0-0.4,0-0.6,0c-0.2,0-0.2,0-0.2,0.2
				c0,1.6,0,3.1,0,4.7c0,0.3-0.1,0.4-0.4,0.4c-0.9,0-1.9,0-2.8,0c-0.3,0-0.4-0.1-0.4-0.4c0-0.9,0-1.9,0-2.8c0-0.1,0-0.2-0.1-0.2
				c-0.5,0-0.9,0-1.4,0c-0.2,0-0.2,0-0.2,0.2c0,0.9,0,1.9,0,2.8c0,0.1,0,0.2-0.1,0.3c-0.1,0.1-0.2,0.1-0.3,0.1c-0.4,0-0.8,0-1.3,0
				s-1,0-1.5,0c-0.3,0-0.5-0.1-0.5-0.5s0-0.8,0-1.2c0-1.2,0-2.4,0-3.5c0-0.2,0-0.2-0.2-0.2s-0.4,0-0.6,0c-0.3,0-0.5-0.2-0.6-0.4
				c-0.1-0.3,0-0.5,0.2-0.7c1.8-1.6,3.6-3.2,5.3-4.9c0.3-0.3,0.6-0.3,1,0c1.8,1.6,3.6,3.2,5.3,4.9C44,24.4,44.1,24.5,44.2,24.7z"/>
		</g>
	</g>
	<g>
		<g>
			<path class="st5" d="M117.7,87.5h-65c-1.4,0-2.5-1.1-2.5-2.5l0,0c0-1.4,1.1-2.5,2.5-2.5h65c1.4,0,2.5,1.1,2.5,2.5l0,0
				C120.2,86.4,119,87.5,117.7,87.5z"/>
			<g class="st6">
				<path class="st4" d="M44.2,84.7c0,0.1,0,0.2,0,0.3c-0.1,0.3-0.4,0.5-0.7,0.5c-0.2,0-0.4,0-0.6,0c-0.2,0-0.2,0-0.2,0.2
					c0,1.6,0,3.1,0,4.7c0,0.3-0.1,0.4-0.4,0.4c-0.9,0-1.9,0-2.8,0c-0.3,0-0.4-0.1-0.4-0.4c0-0.9,0-1.9,0-2.8c0-0.1,0-0.2-0.1-0.2
					c-0.5,0-0.9,0-1.4,0c-0.2,0-0.2,0-0.2,0.2c0,0.9,0,1.9,0,2.8c0,0.1,0,0.2-0.1,0.3c-0.1,0.1-0.2,0.1-0.3,0.1c-0.4,0-0.8,0-1.3,0
					s-1,0-1.5,0c-0.3,0-0.5-0.1-0.5-0.5s0-0.8,0-1.2c0-1.2,0-2.4,0-3.5c0-0.2,0-0.2-0.2-0.2s-0.4,0-0.6,0c-0.3,0-0.5-0.2-0.6-0.4
					c-0.1-0.3,0-0.5,0.2-0.7c1.8-1.6,3.6-3.2,5.3-4.9c0.3-0.3,0.6-0.3,1,0c1.8,1.6,3.6,3.2,5.3,4.9C44,84.4,44.1,84.5,44.2,84.7z"/>
			</g>
		</g>
	</g>
	<g>
		<g>
			<path class="st5" d="M117.7,57.5h-65c-1.4,0-2.5-1.1-2.5-2.5l0,0c0-1.4,1.1-2.5,2.5-2.5h65c1.4,0,2.5,1.1,2.5,2.5l0,0
				C120.2,56.4,119,57.5,117.7,57.5z"/>
			<g class="st6">
				<path class="st4" d="M44.2,54.7c0,0.1,0,0.2,0,0.3c-0.1,0.3-0.4,0.5-0.7,0.5c-0.2,0-0.4,0-0.6,0c-0.2,0-0.2,0-0.2,0.2
					c0,1.6,0,3.1,0,4.7c0,0.3-0.1,0.4-0.4,0.4c-0.9,0-1.9,0-2.8,0c-0.3,0-0.4-0.1-0.4-0.4c0-0.9,0-1.9,0-2.8c0-0.1,0-0.2-0.1-0.2
					c-0.5,0-0.9,0-1.4,0c-0.2,0-0.2,0-0.2,0.2c0,0.9,0,1.9,0,2.8c0,0.1,0,0.2-0.1,0.3s-0.2,0.1-0.3,0.1c-0.4,0-0.8,0-1.3,0
					s-1,0-1.5,0c-0.3,0-0.5-0.1-0.5-0.5s0-0.8,0-1.2c0-1.2,0-2.4,0-3.5c0-0.2,0-0.2-0.2-0.2s-0.4,0-0.6,0c-0.3,0-0.5-0.2-0.6-0.4
					c-0.1-0.3,0-0.5,0.2-0.7c1.8-1.6,3.6-3.2,5.3-4.9c0.3-0.3,0.6-0.3,1,0c1.8,1.6,3.6,3.2,5.3,4.9C44,54.4,44.1,54.5,44.2,54.7z"/>
			</g>
		</g>
	</g>
</g>
</svg>
