<?xml version="1.0" encoding="utf-8"?>
<!-- Generator: Adobe Illustrator 25.2.1, SVG Export Plug-In . SVG Version: 6.00 Build 0)  -->
<svg version="1.1" id="Layer_1" xmlns="http://www.w3.org/2000/svg" xmlns:xlink="http://www.w3.org/1999/xlink" x="0px" y="0px"
	 viewBox="0 0 145 110" style="enable-background:new 0 0 145 110;" xml:space="preserve">
<style type="text/css">
	.st0{fill:#EFEFEF;}
	.st1{fill:#0066FF;}
	.st2{opacity:0.5;fill:#FFFFFF;enable-background:new    ;}
	.st3{fill:#FFFFFF;}
	.st4{fill:#C6C6C6;}
</style>
<g>
	<rect class="st0" width="145" height="110"/>
	<g>
		<g>
			<path class="st1" d="M12,30h52.5c2.2,0,4,1.8,4,4v42c0,2.2-1.8,4-4,4H12c-2.2,0-4-1.8-4-4V34C8,31.8,9.8,30,12,30z"/>
			<g>
				<path class="st2" d="M58.9,67H17.6c-1.1,0-2-0.9-2-2l0,0c0-1.1,0.9-2,2-2h41.3c1.1,0,2,0.9,2,2l0,0C60.9,66.1,60,67,58.9,67z"/>
				<g>
					<path class="st3" d="M43.3,49.3c0,0.1,0,0.2,0,0.4c-0.1,0.4-0.4,0.6-0.9,0.6c-0.2,0-0.4,0-0.6,0c-0.2,0-0.2,0-0.2,0.2
						c0,1.8,0,3.6,0,5.4c0,0.3-0.2,0.5-0.5,0.5c-1.1,0-2.2,0-3.3,0c-0.3,0-0.5-0.2-0.5-0.5c0-1.1,0-2.1,0-3.2c0-0.1,0-0.2-0.2-0.2
						c-0.5,0-1.1,0-1.6,0c-0.2,0-0.2,0-0.2,0.2c0,1.1,0,2.1,0,3.2c0,0.1,0,0.3-0.1,0.4c-0.1,0.1-0.2,0.1-0.4,0.1c-0.5,0-1,0-1.4,0
						c-0.6,0-1.2,0-1.8,0c-0.4,0-0.5-0.2-0.5-0.5c0-0.4,0-0.9,0-1.3c0-1.4,0-2.7,0-4.1c0-0.2,0-0.2-0.2-0.2s-0.5,0-0.7,0
						c-0.4,0-0.6-0.2-0.7-0.5s0-0.6,0.2-0.8c2-1.9,4.1-3.7,6.1-5.6c0.4-0.3,0.7-0.3,1.1,0c2,1.9,4.1,3.7,6.1,5.6
						C43.1,49,43.2,49.1,43.3,49.3z"/>
				</g>
			</g>
		</g>
		<g>
			<path class="st4" d="M80.5,30H133c2.2,0,4,1.8,4,4v42c0,2.2-1.8,4-4,4H80.5c-2.2,0-4-1.8-4-4V34C76.5,31.8,78.3,30,80.5,30z"/>
			<g>
				<path class="st2" d="M127.4,67H86.1c-1.1,0-2-0.9-2-2l0,0c0-1.1,0.9-2,2-2h41.3c1.1,0,2,0.9,2,2l0,0
					C129.4,66.1,128.5,67,127.4,67z"/>
				<g>
					<path class="st3" d="M111.8,49.3c0,0.1,0,0.2,0,0.4c-0.1,0.4-0.4,0.6-0.9,0.6c-0.2,0-0.4,0-0.6,0s-0.2,0-0.2,0.2
						c0,1.8,0,3.6,0,5.4c0,0.3-0.2,0.5-0.5,0.5c-1.1,0-2.2,0-3.3,0c-0.3,0-0.5-0.2-0.5-0.5c0-1.1,0-2.1,0-3.2c0-0.1,0-0.2-0.2-0.2
						c-0.5,0-1.1,0-1.6,0c-0.2,0-0.2,0-0.2,0.2c0,1.1,0,2.1,0,3.2c0,0.1,0,0.3-0.1,0.4c-0.1,0.1-0.2,0.1-0.4,0.1c-0.5,0-1,0-1.4,0
						c-0.6,0-1.2,0-1.8,0c-0.4,0-0.5-0.2-0.5-0.5c0-0.4,0-0.9,0-1.3c0-1.4,0-2.7,0-4.1c0-0.2,0-0.2-0.2-0.2s-0.5,0-0.7,0
						c-0.4,0-0.6-0.2-0.7-0.5s0-0.6,0.2-0.8c2-1.9,4.1-3.7,6.1-5.6c0.4-0.3,0.7-0.3,1.1,0c2,1.9,4.1,3.7,6.1,5.6
						C111.6,49,111.7,49.1,111.8,49.3z"/>
				</g>
			</g>
		</g>
	</g>
</g>
</svg>
