<?xml version="1.0" encoding="utf-8"?>
<!-- Generator: Adobe Illustrator 25.2.1, SVG Export Plug-In . SVG Version: 6.00 Build 0)  -->
<svg version="1.1" id="Layer_1" xmlns="http://www.w3.org/2000/svg" xmlns:xlink="http://www.w3.org/1999/xlink" x="0px" y="0px"
	 viewBox="0 0 145 110" style="enable-background:new 0 0 145 110;" xml:space="preserve">
<style type="text/css">
	.st0{fill:#F2F3F7;}
	.st1{fill:url(#SVGID_1_);}
</style>
<g>
	<rect class="st0" width="145" height="110"/>
</g>
<g>
	<g>
		
			<linearGradient id="SVGID_1_" gradientUnits="userSpaceOnUse" x1="72.5" y1="43.4989" x2="72.5" y2="66.5011" gradientTransform="matrix(1 0 0 -1 0 110)">
			<stop  offset="0" style="stop-color:#2F15CB"/>
			<stop  offset="1" style="stop-color:#9808EA"/>
		</linearGradient>
		<path class="st1" d="M36.8,51.4h-5.7v-5.8h-3.6v15.1h3.6v-6.3h5.7v6.3h3.7V45.6h-3.7V51.4z M78.9,50.9c-0.3-0.7-0.8-1.3-1.4-1.7
			c-0.7-0.4-1.4-0.6-2.3-0.6c-1,0-1.9,0.2-2.6,0.7c-0.8,0.5-1.4,1.2-1.8,2.1c-0.5,0.9-0.7,2-0.7,3.2c0,1.2,0.2,2.3,0.7,3.2
			c0.4,0.9,1.1,1.6,1.8,2.1c0.8,0.5,1.7,0.7,2.6,0.7c0.9,0,1.7-0.2,2.3-0.6c0.7-0.4,1.1-1,1.4-1.7v2.2h3.6V44.9h-3.6V50.9z
			 M78.2,56.8c-0.5,0.5-1.1,0.8-1.9,0.8c-0.8,0-1.4-0.3-1.9-0.8s-0.7-1.2-0.7-2.1c0-0.9,0.2-1.6,0.7-2.1c0.5-0.5,1.1-0.8,1.9-0.8
			c0.8,0,1.4,0.3,1.9,0.8s0.7,1.2,0.7,2.1C78.9,55.6,78.7,56.3,78.2,56.8z M51.5,49.3c-0.9-0.5-1.9-0.7-3.1-0.7
			c-1.2,0-2.2,0.2-3.1,0.7s-1.6,1.2-2.1,2.1c-0.5,0.9-0.8,2-0.8,3.2c0,1.2,0.3,2.3,0.8,3.2c0.5,0.9,1.2,1.6,2.1,2.1
			c0.9,0.5,1.9,0.7,3.1,0.7c1,0,1.9-0.2,2.7-0.6c0.8-0.4,1.5-0.9,2-1.6c0.5-0.7,0.9-1.4,1-2.3h-3.9c-0.1,0.4-0.3,0.8-0.7,1
			c-0.4,0.3-0.8,0.4-1.3,0.4c-0.6,0-1.2-0.2-1.6-0.6s-0.6-1-0.7-1.9h8.2c0.1-0.4,0.1-0.7,0.1-1c0-1.1-0.2-2.1-0.7-3
			C53,50.5,52.4,49.8,51.5,49.3z M45.9,53.8c0.1-0.8,0.3-1.3,0.7-1.7c0.4-0.4,1-0.6,1.7-0.6c0.6,0,1.2,0.2,1.6,0.6
			c0.4,0.4,0.6,1,0.6,1.8C50.6,53.8,45.9,53.8,45.9,53.8z M64.5,50.9c-0.3-0.7-0.8-1.3-1.5-1.7c-0.7-0.4-1.4-0.6-2.3-0.6
			c-1,0-1.9,0.2-2.6,0.7c-0.8,0.5-1.4,1.2-1.8,2.1c-0.5,0.9-0.7,2-0.7,3.2c0,1.2,0.2,2.3,0.7,3.2c0.4,0.9,1.1,1.6,1.8,2.1
			c0.8,0.5,1.7,0.7,2.6,0.7c0.9,0,1.7-0.2,2.3-0.6c0.7-0.4,1.1-1,1.5-1.7v2.2h3.6V48.8h-3.6V50.9z M63.7,56.8
			c-0.5,0.5-1.1,0.8-1.9,0.8c-0.8,0-1.4-0.3-1.9-0.8c-0.5-0.5-0.7-1.2-0.7-2.1c0-0.9,0.2-1.6,0.7-2.1c0.5-0.5,1.1-0.8,1.9-0.8
			c0.8,0,1.4,0.3,1.9,0.8c0.5,0.5,0.7,1.2,0.7,2.1C64.5,55.6,64.2,56.3,63.7,56.8z M113.9,50.9c-0.3-0.7-0.8-1.3-1.5-1.7
			c-0.7-0.4-1.4-0.6-2.3-0.6c-1,0-1.9,0.2-2.6,0.7c-0.8,0.5-1.4,1.2-1.8,2.1c-0.5,0.9-0.7,2-0.7,3.2c0,1.2,0.2,2.3,0.7,3.2
			c0.4,0.9,1.1,1.6,1.8,2.1c0.8,0.5,1.7,0.7,2.6,0.7c0.9,0,1.7-0.2,2.3-0.6c0.7-0.4,1.1-1,1.5-1.7v2.1c0,0.9-0.2,1.6-0.7,2.1
			c-0.5,0.4-1.1,0.7-1.8,0.7c-0.7,0-1.2-0.1-1.6-0.4c-0.4-0.3-0.7-0.7-0.8-1.1h-3.6c0.2,1.5,0.9,2.6,1.9,3.4
			c1.1,0.8,2.5,1.3,4.3,1.3c1.3,0,2.4-0.3,3.3-0.8c0.9-0.5,1.5-1.2,2-2.1c0.4-0.9,0.6-1.9,0.6-3V48.8h-3.6V50.9z M113.2,56.8
			c-0.5,0.5-1.1,0.8-1.9,0.8c-0.8,0-1.4-0.3-1.9-0.8c-0.5-0.5-0.7-1.2-0.7-2.1c0-0.9,0.2-1.6,0.7-2.1c0.5-0.5,1.1-0.8,1.9-0.8
			c0.8,0,1.4,0.3,1.9,0.8s0.7,1.2,0.7,2.1C113.9,55.6,113.7,56.3,113.2,56.8z M85.1,60.7h3.6V48.8h-3.6V60.7z M98.8,48.6
			c-0.9,0-1.7,0.2-2.4,0.6c-0.7,0.4-1.2,1-1.5,1.7v-2.2h-3.6v11.9h3.6v-6.3c0-0.9,0.2-1.5,0.7-2c0.4-0.5,1-0.7,1.8-0.7
			c0.7,0,1.3,0.2,1.7,0.7c0.4,0.4,0.6,1.1,0.6,1.9v6.5h3.6v-6.9c0-1.6-0.4-2.8-1.2-3.8C101.2,49.1,100.1,48.6,98.8,48.6z M86.9,43.5
			c-0.7,0-1.2,0.2-1.6,0.5c-0.4,0.4-0.6,0.8-0.6,1.4c0,0.5,0.2,1,0.6,1.4c0.4,0.4,0.9,0.5,1.6,0.5s1.2-0.2,1.6-0.5
			c0.4-0.4,0.6-0.8,0.6-1.4c0-0.6-0.2-1-0.6-1.4C88.1,43.7,87.6,43.5,86.9,43.5z"/>
	</g>
</g>
</svg>
