<?xml version="1.0" encoding="utf-8"?>
<!-- Generator: Adobe Illustrator 25.2.1, SVG Export Plug-In . SVG Version: 6.00 Build 0)  -->
<svg version="1.1" id="Layer_1" xmlns="http://www.w3.org/2000/svg" xmlns:xlink="http://www.w3.org/1999/xlink" x="0px" y="0px"
	 viewBox="0 0 145 110" style="enable-background:new 0 0 145 110;" xml:space="preserve">
<style type="text/css">
	.st0{fill:#F2F3F7;}
	.st1{fill:url(#SVGID_1_);}
	.st2{fill:#C2C3C6;}
</style>
<g>
	<rect class="st0" width="145" height="110"/>
</g>
<g>
	<g>
		<g>
			
				<linearGradient id="SVGID_1_" gradientUnits="userSpaceOnUse" x1="27.4348" y1="46.2397" x2="117.5652" y2="46.2397" gradientTransform="matrix(1 0 0 -1 0 110)">
				<stop  offset="0" style="stop-color:#27D1DE"/>
				<stop  offset="1" style="stop-color:#4D61E6"/>
			</linearGradient>
			<path class="st1" d="M36.8,60.2h-5.7v-5.8h-3.6v15.1h3.6v-6.3h5.7v6.3h3.7V54.4h-3.7V60.2z M78.9,59.7c-0.3-0.7-0.8-1.3-1.4-1.7
				c-0.7-0.4-1.4-0.6-2.3-0.6c-1,0-1.9,0.2-2.6,0.7c-0.8,0.5-1.4,1.2-1.8,2.1c-0.5,0.9-0.7,2-0.7,3.2c0,1.2,0.2,2.3,0.7,3.2
				c0.4,0.9,1.1,1.6,1.8,2.1c0.8,0.5,1.7,0.7,2.6,0.7c0.9,0,1.7-0.2,2.3-0.6c0.7-0.4,1.1-1,1.4-1.7v2.2h3.6V53.6h-3.6V59.7z
				 M78.2,65.6c-0.5,0.5-1.1,0.8-1.9,0.8c-0.8,0-1.4-0.3-1.9-0.8s-0.7-1.2-0.7-2.1c0-0.9,0.2-1.6,0.7-2.1c0.5-0.5,1.1-0.8,1.9-0.8
				c0.8,0,1.4,0.3,1.9,0.8c0.5,0.5,0.7,1.2,0.7,2.1C78.9,64.4,78.7,65,78.2,65.6z M51.5,58.1c-0.9-0.5-1.9-0.7-3.1-0.7
				c-1.2,0-2.2,0.2-3.1,0.7s-1.6,1.2-2.1,2.1c-0.5,0.9-0.8,2-0.8,3.2c0,1.2,0.3,2.3,0.8,3.2c0.5,0.9,1.2,1.6,2.1,2.1
				c0.9,0.5,1.9,0.7,3.1,0.7c1,0,1.9-0.2,2.7-0.6c0.8-0.4,1.5-0.9,2-1.6s0.9-1.4,1-2.3h-3.9c-0.1,0.4-0.3,0.8-0.7,1
				c-0.4,0.3-0.8,0.4-1.3,0.4c-0.6,0-1.2-0.2-1.6-0.6s-0.6-1-0.7-1.9h8.2c0.1-0.4,0.1-0.7,0.1-1c0-1.1-0.2-2.1-0.7-3
				C53,59.2,52.4,58.6,51.5,58.1z M45.9,62.6c0.1-0.8,0.3-1.3,0.7-1.7c0.4-0.4,1-0.6,1.7-0.6c0.6,0,1.2,0.2,1.6,0.6
				c0.4,0.4,0.6,1,0.6,1.8C50.6,62.6,45.9,62.6,45.9,62.6z M64.5,59.7C64.2,59,63.7,58.4,63,58c-0.7-0.4-1.4-0.6-2.3-0.6
				c-1,0-1.9,0.2-2.6,0.7c-0.8,0.5-1.4,1.2-1.8,2.1c-0.5,0.9-0.7,2-0.7,3.2c0,1.2,0.2,2.3,0.7,3.2s1.1,1.6,1.8,2.1
				c0.8,0.5,1.7,0.7,2.6,0.7c0.9,0,1.7-0.2,2.3-0.6c0.7-0.4,1.1-1,1.5-1.7v2.2h3.6V57.5h-3.6V59.7z M63.7,65.6
				c-0.5,0.5-1.1,0.8-1.9,0.8c-0.8,0-1.4-0.3-1.9-0.8c-0.5-0.5-0.7-1.2-0.7-2.1c0-0.9,0.2-1.6,0.7-2.1c0.5-0.5,1.1-0.8,1.9-0.8
				c0.8,0,1.4,0.3,1.9,0.8c0.5,0.5,0.7,1.2,0.7,2.1C64.5,64.4,64.2,65,63.7,65.6z M113.9,59.7c-0.3-0.7-0.8-1.3-1.5-1.7
				c-0.7-0.4-1.4-0.6-2.3-0.6c-1,0-1.9,0.2-2.6,0.7c-0.8,0.5-1.4,1.2-1.8,2.1c-0.5,0.9-0.7,2-0.7,3.2c0,1.2,0.2,2.3,0.7,3.2
				c0.4,0.9,1.1,1.6,1.8,2.1c0.8,0.5,1.7,0.7,2.6,0.7c0.9,0,1.7-0.2,2.3-0.6c0.7-0.4,1.1-1,1.5-1.7v2.1c0,0.9-0.2,1.6-0.7,2.1
				c-0.5,0.4-1.1,0.7-1.8,0.7c-0.7,0-1.2-0.1-1.6-0.4c-0.4-0.3-0.7-0.7-0.8-1.1h-3.6c0.2,1.5,0.9,2.6,1.9,3.4
				c1.1,0.8,2.5,1.3,4.3,1.3c1.3,0,2.4-0.3,3.3-0.8c0.9-0.5,1.5-1.2,2-2.1c0.4-0.9,0.6-1.9,0.6-3V57.5h-3.6V59.7z M113.2,65.6
				c-0.5,0.5-1.1,0.8-1.9,0.8c-0.8,0-1.4-0.3-1.9-0.8c-0.5-0.5-0.7-1.2-0.7-2.1c0-0.9,0.2-1.6,0.7-2.1c0.5-0.5,1.1-0.8,1.9-0.8
				c0.8,0,1.4,0.3,1.9,0.8c0.5,0.5,0.7,1.2,0.7,2.1C113.9,64.4,113.7,65,113.2,65.6z M85.1,69.4h3.6V57.5h-3.6V69.4z M98.8,57.4
				c-0.9,0-1.7,0.2-2.4,0.6c-0.7,0.4-1.2,1-1.5,1.7v-2.2h-3.6v11.9h3.6v-6.3c0-0.9,0.2-1.5,0.7-2s1-0.7,1.8-0.7
				c0.7,0,1.3,0.2,1.7,0.7c0.4,0.4,0.6,1.1,0.6,1.9v6.5h3.6v-6.9c0-1.6-0.4-2.8-1.2-3.8C101.2,57.8,100.1,57.4,98.8,57.4z
				 M86.9,52.3c-0.7,0-1.2,0.2-1.6,0.5c-0.4,0.4-0.6,0.8-0.6,1.4c0,0.5,0.2,1,0.6,1.4c0.4,0.4,0.9,0.5,1.6,0.5s1.2-0.2,1.6-0.5
				s0.6-0.8,0.6-1.4c0-0.6-0.2-1-0.6-1.4C88.1,52.4,87.6,52.3,86.9,52.3z"/>
		</g>
	</g>
	<path class="st2" d="M97.7,34.7H30.2c-1.5,0-2.7,1.2-2.7,2.7v0c0,1.5,1.2,2.7,2.7,2.7h67.5c1.5,0,2.7-1.2,2.7-2.7v0
		C100.4,36,99.2,34.7,97.7,34.7z"/>
</g>
</svg>
