<?xml version="1.0" encoding="utf-8"?>
<!-- Generator: Adobe Illustrator 25.2.1, SVG Export Plug-In . SVG Version: 6.00 Build 0)  -->
<svg version="1.1" id="Layer_1" xmlns="http://www.w3.org/2000/svg" xmlns:xlink="http://www.w3.org/1999/xlink" x="0px" y="0px"
	 viewBox="0 0 24 24" style="enable-background:new 0 0 24 24;" xml:space="preserve">
<style type="text/css">
	.st0{fill:url(#SVGID_1_);}
</style>
<linearGradient id="SVGID_1_" gradientUnits="userSpaceOnUse" x1="0" y1="12" x2="24" y2="12">
	<stop  offset="0" style="stop-color:#00AFFA"/>
	<stop  offset="1" style="stop-color:#0954C0"/>
</linearGradient>
<path class="st0" d="M0.49,22.99c-0.38-0.01-0.47-0.09-0.48-0.46C0,22.05,0,21.56,0.01,21.08c0.01-0.35,0.1-0.43,0.45-0.44
	c0.19-0.01,0.38-0.01,0.57-0.01c0.18,0,0.55,0.01,0.55,0.01c0.31,0,0.53-0.08,0.7-0.25c0.16-0.17,0.24-0.39,0.22-0.67
	c-0.01-0.12,0-0.24,0-0.36l0-14.82c0-0.93-0.23-1.16-1.18-1.16l-0.53,0c-0.12,0-0.23,0-0.35-0.01C0.13,3.35,0.01,3.28,0.01,2.9
	C0,2.43,0,1.96,0.01,1.49C0.01,1.09,0.1,1.01,0.5,1.01c0.76,0,5.04,0,5.04,0l2.94,0c0.46,0,0.53,0.08,0.54,0.55l0,0.14
	c0,0.42,0.01,0.85,0,1.27c-0.01,0.29-0.11,0.39-0.4,0.41C8.42,3.37,8.23,3.38,8.04,3.38c-0.18,0-0.54-0.01-0.54-0.01
	c-0.35,0-0.57,0.08-0.73,0.24C6.6,3.78,6.52,4,6.52,4.3c0.01,1.86,0.01,3.72,0,5.59c0,0.29,0.08,0.52,0.25,0.68
	c0.23,0.22,0.52,0.25,0.72,0.25l4.52,0c1.5,0,4.52,0.01,4.52,0.01c0.12,0,0.46,0,0.7-0.25c0.25-0.25,0.25-0.59,0.25-0.71
	c-0.01-1.84-0.01-3.69,0-5.54c0-0.12,0-0.47-0.25-0.72c-0.17-0.16-0.4-0.25-0.69-0.25c-0.25,0.01-0.42,0.01-0.6,0.01
	c-0.19,0-0.38-0.01-0.57-0.02C15.1,3.35,15,3.25,14.99,2.98c-0.02-0.44-0.01-0.89-0.01-1.33l0-0.12c0.01-0.46,0.08-0.52,0.55-0.53
	l7.23,0c0.25,0,0.49,0,0.74,0.01c0.38,0.01,0.47,0.09,0.48,0.46c0.01,0.48,0.01,0.97,0,1.45c-0.01,0.34-0.1,0.43-0.45,0.45
	c-0.19,0.01-0.38,0.01-0.58,0.01c-0.18,0-0.54-0.01-0.54-0.01c-0.31,0-0.53,0.08-0.7,0.25c-0.16,0.17-0.24,0.39-0.22,0.67
	c0.01,0.12,0,0.25,0,0.37l0,14.82c0,0.93,0.23,1.16,1.18,1.16l0.53,0c0.12,0,0.23,0,0.35,0.01c0.32,0.01,0.43,0.09,0.44,0.46
	c0.01,0.47,0.01,0.94,0,1.41c-0.01,0.4-0.09,0.49-0.5,0.49c-0.76,0-4.84,0-4.84,0l-1.75,0c-0.46,0-0.93,0-1.39-0.01
	c-0.46,0-0.53-0.07-0.54-0.54l0-0.14c0-0.42-0.01-0.85,0-1.27c0.01-0.3,0.1-0.39,0.4-0.41c0.19-0.01,0.38-0.01,0.57-0.01
	c0.18,0,0.36,0,0.54,0.01c0.01,0,0.02,0,0.03,0c0.18,0,0.48-0.02,0.71-0.24c0.17-0.17,0.25-0.39,0.25-0.69
	c-0.01-1.86-0.01-3.72,0-5.59c0-0.29-0.08-0.52-0.25-0.68c-0.25-0.25-0.59-0.25-0.76-0.25l-6.96,0.01c-0.65,0-1.29,0-1.94-0.01
	c0,0-0.01,0-0.01,0c-0.16,0-0.53,0.01-0.79,0.26c-0.24,0.24-0.27,0.57-0.26,0.79c0.02,1.78,0.02,3.56,0,5.34
	c0,0.23,0.02,0.57,0.27,0.81c0.17,0.17,0.41,0.26,0.71,0.26c0.05,0,0.1,0,0.16-0.01c0.14-0.01,0.28-0.02,0.42-0.02
	c0.19,0,0.37,0.01,0.56,0.02C8.9,20.65,9,20.75,9.01,21.02c0.01,0.44,0.01,0.89,0,1.33l0,0.12c0,0.46-0.08,0.52-0.55,0.53L1.29,23
	C1.02,23,0.76,23,0.49,22.99z"/>
</svg>
