<?xml version="1.0" encoding="utf-8"?>
<!-- Generator: Adobe Illustrator 25.2.1, SVG Export Plug-In . SVG Version: 6.00 Build 0)  -->
<svg version="1.1" id="Layer_1" xmlns="http://www.w3.org/2000/svg" xmlns:xlink="http://www.w3.org/1999/xlink" x="0px" y="0px"
	 viewBox="0 0 320 160" style="enable-background:new 0 0 320 160;" xml:space="preserve">
<style type="text/css">
	.st0{fill:#FFFFFF;}
	.st1{fill:url(#SVGID_1_);}
</style>
<rect class="st0" width="320" height="160"/>
<g>
	<g>
		<linearGradient id="SVGID_1_" gradientUnits="userSpaceOnUse" x1="33.5674" y1="80" x2="286.4326" y2="80">
			<stop  offset="0" style="stop-color:#0047FD"/>
			<stop  offset="1" style="stop-color:#F93794"/>
		</linearGradient>
		<path class="st1" d="M106.5,79.2c-0.6-0.2-1.4-0.5-2.3-0.7c-0.9-0.2-1.5-0.4-1.9-0.6s-0.6-0.5-0.6-0.9c0-0.3,0.1-0.6,0.3-0.8
			s0.5-0.3,1-0.3c0.5,0,1,0.1,1.4,0.4s0.6,0.7,0.7,1.2h3.5c-0.2-1.3-0.8-2.3-1.7-3.1c-0.9-0.8-2.2-1.2-3.7-1.2c-1.5,0-2.7,0.3-3.5,1
			c-0.8,0.7-1.3,1.6-1.3,2.7c0,0.9,0.2,1.5,0.6,2s0.9,0.8,1.5,1.1c0.6,0.2,1.3,0.4,2.2,0.6c0.9,0.2,1.6,0.4,2,0.6s0.6,0.5,0.6,0.9
			c0,0.3-0.1,0.6-0.3,0.8c-0.2,0.2-0.5,0.3-1,0.3c-0.6,0-1.1-0.1-1.5-0.4c-0.4-0.3-0.6-0.7-0.7-1.2h-3.6c0.2,1.4,0.8,2.4,1.8,3.1
			c1,0.7,2.3,1.1,4,1.1c1,0,1.8-0.2,2.6-0.5c0.7-0.3,1.3-0.7,1.7-1.3c0.4-0.5,0.6-1.2,0.6-1.9c0-0.9-0.2-1.6-0.7-2.1
			C107.6,79.8,107.1,79.4,106.5,79.2z M124.5,77.8c0.8-0.2,1.5-0.6,2-1.2c0.5-0.6,0.7-1.4,0.7-2.3c0-1.3-0.4-2.3-1.3-2.9
			c-0.9-0.7-2.1-1-3.7-1h-7.1v15.6h7.2c1.7,0,2.9-0.4,3.8-1.1c0.9-0.7,1.3-1.8,1.3-3.1c0-0.9-0.3-1.7-0.8-2.4
			C126.2,78.5,125.4,78.1,124.5,77.8z M118.9,73.3h2.4c1.3,0,2,0.6,2,1.7c0,1.1-0.7,1.7-2,1.7h-2.5V73.3z M121.6,82.8h-2.7v-3.5h2.7
			c0.7,0,1.2,0.2,1.6,0.5c0.4,0.3,0.5,0.8,0.5,1.3C123.7,82.2,123,82.8,121.6,82.8z M92.2,80.1c0,0.9-0.2,1.6-0.7,2.1
			c-0.4,0.5-1,0.7-1.8,0.7c-0.7,0-1.3-0.2-1.7-0.7c-0.4-0.5-0.6-1.1-0.6-1.9v-6.7h-3.7v7.1c0,1.6,0.4,2.9,1.2,3.9
			c0.8,0.9,1.9,1.4,3.4,1.4c0.9,0,1.7-0.2,2.4-0.6s1.2-1,1.6-1.7v2.2H96V73.6h-3.8V80.1z M77.4,85.8h3.8V73.6h-3.8V85.8z M79.3,68.1
			c-0.7,0-1.2,0.2-1.6,0.6S77,69.5,77,70.1c0,0.6,0.2,1,0.6,1.4s1,0.6,1.6,0.6c0.7,0,1.2-0.2,1.6-0.6s0.6-0.8,0.6-1.4
			c0-0.6-0.2-1-0.6-1.4S80,68.1,79.3,68.1z M71,75.8c-0.3-0.7-0.8-1.3-1.5-1.7c-0.7-0.4-1.5-0.6-2.4-0.6c-1,0-1.9,0.3-2.7,0.8
			c-0.8,0.5-1.4,1.2-1.9,2.2s-0.7,2.1-0.7,3.4c0,1.3,0.2,2.4,0.7,3.3s1.1,1.7,1.9,2.2c0.8,0.5,1.7,0.8,2.7,0.8
			c0.9,0,1.7-0.2,2.4-0.6c0.7-0.4,1.2-1,1.5-1.7v2.2h3.8V69.6H71V75.8z M70.3,81.9c-0.5,0.5-1.2,0.8-1.9,0.8c-0.8,0-1.5-0.3-1.9-0.8
			c-0.5-0.5-0.7-1.3-0.7-2.2s0.2-1.7,0.7-2.2c0.5-0.5,1.1-0.8,1.9-0.8c0.8,0,1.4,0.3,1.9,0.8c0.5,0.5,0.8,1.3,0.8,2.2
			C71.1,80.6,70.8,81.3,70.3,81.9z M44.7,78.1c0.6-0.8,0.9-1.8,0.9-2.9c0-1-0.2-1.8-0.6-2.5c-0.4-0.7-1.1-1.3-1.9-1.7
			c-0.9-0.4-1.9-0.6-3.1-0.6h-6.4v15.6h3.8V80h0.9l3.4,5.9h4.2L42,79.7C43.2,79.4,44.1,78.9,44.7,78.1z M41.3,76.9
			c-0.4,0.3-0.9,0.5-1.6,0.5h-2.3v-3.9h2.3c0.7,0,1.3,0.2,1.6,0.5c0.4,0.4,0.5,0.8,0.5,1.5C41.8,76.1,41.7,76.6,41.3,76.9z
			 M56.1,75.8c-0.3-0.7-0.8-1.3-1.5-1.7c-0.7-0.4-1.5-0.6-2.4-0.6c-1,0-1.9,0.3-2.7,0.8c-0.8,0.5-1.4,1.2-1.9,2.2s-0.7,2.1-0.7,3.4
			c0,1.3,0.2,2.4,0.7,3.3s1.1,1.7,1.9,2.2c0.8,0.5,1.7,0.8,2.7,0.8c0.9,0,1.7-0.2,2.4-0.6c0.7-0.4,1.2-1,1.5-1.7v2.2h3.7V73.6h-3.7
			V75.8z M55.4,81.9c-0.5,0.5-1.2,0.8-1.9,0.8c-0.8,0-1.5-0.3-1.9-0.8c-0.5-0.5-0.7-1.3-0.7-2.2s0.2-1.7,0.7-2.2
			c0.5-0.5,1.1-0.8,1.9-0.8c0.8,0,1.4,0.3,1.9,0.8c0.5,0.5,0.8,1.3,0.8,2.2C56.1,80.6,55.9,81.3,55.4,81.9z M252.9,85.8h3.8V73.6
			h-3.8V85.8z M246.5,75.8c-0.3-0.7-0.8-1.3-1.5-1.7c-0.7-0.4-1.5-0.6-2.4-0.6c-1,0-1.9,0.3-2.7,0.8c-0.8,0.5-1.4,1.2-1.9,2.2
			c-0.5,0.9-0.7,2.1-0.7,3.4c0,1.3,0.2,2.4,0.7,3.3c0.5,1,1.1,1.7,1.9,2.2c0.8,0.5,1.7,0.8,2.7,0.8c0.9,0,1.7-0.2,2.4-0.6
			c0.7-0.4,1.2-1,1.5-1.7v2.2h3.8V69.6h-3.8V75.8z M245.8,81.9c-0.5,0.5-1.2,0.8-1.9,0.8c-0.8,0-1.5-0.3-1.9-0.8
			c-0.5-0.5-0.7-1.3-0.7-2.2s0.2-1.7,0.7-2.2s1.1-0.8,1.9-0.8c0.8,0,1.4,0.3,1.9,0.8c0.5,0.5,0.8,1.3,0.8,2.2
			C246.5,80.6,246.3,81.3,245.8,81.9z M254.8,68.1c-0.7,0-1.2,0.2-1.6,0.6c-0.4,0.4-0.6,0.8-0.6,1.4c0,0.6,0.2,1,0.6,1.4
			c0.4,0.4,1,0.6,1.6,0.6c0.7,0,1.2-0.2,1.6-0.6c0.4-0.4,0.6-0.8,0.6-1.4c0-0.6-0.2-1-0.6-1.4C256,68.3,255.4,68.1,254.8,68.1z
			 M231.6,75.8c-0.3-0.7-0.8-1.3-1.5-1.7c-0.7-0.4-1.5-0.6-2.4-0.6c-1,0-1.9,0.3-2.7,0.8c-0.8,0.5-1.4,1.2-1.9,2.2
			c-0.5,0.9-0.7,2.1-0.7,3.4c0,1.3,0.2,2.4,0.7,3.3c0.5,1,1.1,1.7,1.9,2.2c0.8,0.5,1.7,0.8,2.7,0.8c0.9,0,1.7-0.2,2.4-0.6
			c0.7-0.4,1.2-1,1.5-1.7v2.2h3.7V73.6h-3.7V75.8z M230.9,81.9c-0.5,0.5-1.2,0.8-1.9,0.8c-0.8,0-1.5-0.3-1.9-0.8
			c-0.5-0.5-0.7-1.3-0.7-2.2s0.2-1.7,0.7-2.2s1.1-0.8,1.9-0.8c0.8,0,1.4,0.3,1.9,0.8c0.5,0.5,0.8,1.3,0.8,2.2
			C231.6,80.6,231.4,81.3,230.9,81.9z M267,73.4c-0.9,0-1.8,0.2-2.5,0.6c-0.7,0.4-1.2,1-1.6,1.7v-2.2h-3.8v12.3h3.8v-6.5
			c0-0.9,0.2-1.6,0.7-2.1c0.4-0.5,1.1-0.7,1.8-0.7c0.7,0,1.3,0.2,1.7,0.7c0.4,0.5,0.6,1.1,0.6,1.9v6.7h3.8v-7.1
			c0-1.6-0.4-2.9-1.2-3.9C269.6,73.9,268.4,73.4,267,73.4z M282.7,73.6v2.2c-0.3-0.7-0.8-1.3-1.5-1.7c-0.7-0.4-1.5-0.6-2.4-0.6
			c-1,0-1.9,0.3-2.7,0.8c-0.8,0.5-1.4,1.2-1.9,2.2c-0.5,0.9-0.7,2.1-0.7,3.4c0,1.3,0.2,2.4,0.7,3.3c0.5,1,1.1,1.7,1.9,2.2
			c0.8,0.5,1.7,0.8,2.7,0.8c0.9,0,1.7-0.2,2.4-0.6c0.7-0.4,1.2-1,1.5-1.7v2.2c0,1-0.2,1.7-0.7,2.1s-1.1,0.7-1.9,0.7
			c-0.7,0-1.2-0.1-1.6-0.4c-0.4-0.3-0.7-0.7-0.8-1.2h-3.7c0.2,1.5,0.9,2.7,2,3.6c1.1,0.9,2.6,1.3,4.4,1.3c1.3,0,2.5-0.3,3.4-0.8
			s1.6-1.3,2-2.2c0.4-0.9,0.7-1.9,0.7-3.1V73.6H282.7z M281.9,81.9c-0.5,0.5-1.2,0.8-1.9,0.8c-0.8,0-1.5-0.3-1.9-0.8
			c-0.5-0.5-0.7-1.3-0.7-2.2s0.2-1.7,0.7-2.2s1.1-0.8,1.9-0.8c0.8,0,1.4,0.3,1.9,0.8c0.5,0.5,0.8,1.3,0.8,2.2
			C282.7,80.6,282.4,81.3,281.9,81.9z M218.2,74.2c-0.9-0.5-2-0.7-3.2-0.7c-1.2,0-2.3,0.3-3.2,0.8s-1.7,1.2-2.2,2.2
			c-0.5,0.9-0.8,2.1-0.8,3.4c0,1.3,0.3,2.4,0.8,3.3s1.3,1.7,2.2,2.2c0.9,0.5,2,0.8,3.2,0.8c1,0,2-0.2,2.8-0.6s1.5-0.9,2.1-1.6
			c0.5-0.7,0.9-1.5,1.1-2.3h-4c-0.1,0.4-0.4,0.8-0.7,1.1c-0.4,0.3-0.8,0.4-1.4,0.4c-0.7,0-1.2-0.2-1.6-0.6c-0.4-0.4-0.7-1.1-0.7-2
			h8.5c0.1-0.4,0.1-0.7,0.1-1c0-1.2-0.3-2.2-0.8-3.1S219.1,74.7,218.2,74.2z M212.5,78.8c0.1-0.8,0.3-1.4,0.8-1.8
			c0.5-0.4,1-0.6,1.7-0.6c0.7,0,1.2,0.2,1.7,0.6c0.4,0.4,0.7,1,0.6,1.8H212.5z M155.4,76.6c0.6,0,1,0.1,1.4,0.4
			c0.4,0.3,0.6,0.7,0.7,1.2h4c-0.3-1.5-1-2.7-2-3.6c-1.1-0.9-2.4-1.3-4-1.3c-1.2,0-2.3,0.3-3.2,0.8s-1.7,1.2-2.2,2.2
			s-0.8,2.1-0.8,3.4c0,1.3,0.3,2.4,0.8,3.3c0.5,1,1.3,1.7,2.2,2.2c0.9,0.5,2,0.8,3.2,0.8c1.6,0,2.9-0.4,4-1.3c1.1-0.9,1.7-2.1,2-3.6
			h-4c-0.1,0.5-0.4,0.9-0.7,1.2c-0.4,0.3-0.8,0.4-1.4,0.4c-0.7,0-1.2-0.3-1.6-0.8c-0.4-0.5-0.6-1.3-0.6-2.3s0.2-1.8,0.6-2.3
			C154.2,76.9,154.7,76.6,155.4,76.6z M203.1,76.3h-5.9v-6h-3.8v15.6h3.8v-6.5h5.9v6.5h3.8V70.3h-3.8V76.3z M129.5,85.8h3.8V69.6
			h-3.8V85.8z M144.9,74.2c-1-0.5-2-0.8-3.3-0.8c-1.2,0-2.3,0.3-3.3,0.8c-1,0.5-1.7,1.2-2.3,2.2c-0.5,1-0.8,2.1-0.8,3.3
			c0,1.3,0.3,2.4,0.8,3.3c0.6,1,1.3,1.7,2.3,2.2c1,0.5,2.1,0.8,3.3,0.8c1.2,0,2.3-0.3,3.3-0.8c1-0.5,1.7-1.2,2.3-2.2
			c0.5-1,0.8-2.1,0.8-3.3c0-1.3-0.3-2.4-0.8-3.3C146.6,75.4,145.9,74.7,144.9,74.2z M143.4,81.9c-0.5,0.5-1.1,0.8-1.8,0.8
			c-0.7,0-1.3-0.3-1.8-0.8c-0.5-0.5-0.7-1.3-0.7-2.2s0.2-1.7,0.7-2.3c0.5-0.5,1.1-0.8,1.8-0.8c0.7,0,1.3,0.3,1.8,0.8
			c0.5,0.5,0.7,1.3,0.7,2.3S143.9,81.4,143.4,81.9z M175.3,73.6h-4.4l-3.7,4.9v-8.9h-3.8v16.3h3.8v-5.2l3.7,5.2h4.5l-5.1-6.1
			L175.3,73.6z M184.7,79.2c-0.6-0.2-1.4-0.5-2.3-0.7c-0.9-0.2-1.5-0.4-1.9-0.6c-0.4-0.2-0.6-0.5-0.6-0.9c0-0.3,0.1-0.6,0.3-0.8
			s0.5-0.3,1-0.3c0.5,0,1,0.1,1.4,0.4s0.6,0.7,0.7,1.2h3.5c-0.2-1.3-0.8-2.3-1.7-3.1c-0.9-0.8-2.2-1.2-3.7-1.2c-1.5,0-2.7,0.3-3.5,1
			c-0.8,0.7-1.3,1.6-1.3,2.7c0,0.9,0.2,1.5,0.6,2c0.4,0.5,0.9,0.8,1.5,1.1c0.6,0.2,1.3,0.4,2.2,0.6c0.9,0.2,1.6,0.4,2,0.6
			s0.6,0.5,0.6,0.9c0,0.3-0.1,0.6-0.3,0.8c-0.2,0.2-0.5,0.3-1,0.3c-0.6,0-1.1-0.1-1.5-0.4s-0.6-0.7-0.7-1.2h-3.6
			c0.2,1.4,0.8,2.4,1.8,3.1c1,0.7,2.3,1.1,4,1.1c1,0,1.8-0.2,2.6-0.5c0.7-0.3,1.3-0.7,1.6-1.3c0.4-0.5,0.6-1.2,0.6-1.9
			c0-0.9-0.2-1.6-0.7-2.1C185.8,79.8,185.3,79.4,184.7,79.2z"/>
	</g>
</g>
</svg>
