<?xml version="1.0" encoding="utf-8"?>
<!-- Generator: Adobe Illustrator 25.2.1, SVG Export Plug-In . SVG Version: 6.00 Build 0)  -->
<svg version="1.1" id="Layer_1" xmlns="http://www.w3.org/2000/svg" xmlns:xlink="http://www.w3.org/1999/xlink" x="0px" y="0px"
	 viewBox="0 0 145 110" style="enable-background:new 0 0 145 110;" xml:space="preserve">
<style type="text/css">
	.st0{fill:#EFEFEF;}
	.st1{fill:#FFFFFF;}
	.st2{fill:#747E93;}
	.st3{fill:#C6C8CC;}
	.st4{fill:#EDEDED;}
</style>
<g>
	<g>
		<rect class="st0" width="145" height="110"/>
	</g>
	<g>
		<path class="st1" d="M12.4,33.9H48c1.3,0,2.3,1,2.3,2.3v37.4c0,1.3-1,2.3-2.3,2.3H12.4c-1.3,0-2.3-1-2.3-2.3V36.3
			C10,35,11.1,33.9,12.4,33.9z"/>
		<path class="st1" d="M97,33.9h35.6c1.3,0,2.3,1,2.3,2.3v37.4c0,1.3-1,2.3-2.3,2.3H97c-1.3,0-2.3-1-2.3-2.3V36.3
			C94.7,35,95.7,33.9,97,33.9z"/>
		<g>
			<g>
				<g>
					<path class="st2" d="M26.5,49.4c0-0.5-0.1-0.9-0.4-1.2c-0.2-0.3-0.6-0.4-1.1-0.4c-1.1,0-1.6,0.7-1.7,2.2h-2.2
						c0.1-1.3,0.5-2.3,1.2-3c0.7-0.7,1.7-1,2.8-1c1.2,0,2.1,0.3,2.7,0.9s0.9,1.4,0.9,2.4c0,0.8-0.2,1.6-0.7,2.4
						c-0.5,0.8-1.1,1.5-1.8,2.2c-0.7,0.7-1.5,1.2-2.3,1.7H29v1.8h-8v-1.7C24.7,53.1,26.5,51.1,26.5,49.4z"/>
					<path class="st2" d="M30.1,55.1v-1.9l5.4-7.3H38v7.2h1.5v2H38v2.3h-2.3v-2.3H30.1z M35.9,48.6l-3.4,4.6h3.4V48.6z"/>
				</g>
			</g>
			<g>
				<path class="st3" d="M42.1,65.7H18.2c-0.6,0-1.1-0.5-1.1-1.1v0c0-0.6,0.5-1.1,1.1-1.1h23.9c0.6,0,1.1,0.5,1.1,1.1v0
					C43.2,65.2,42.7,65.7,42.1,65.7z"/>
			</g>
		</g>
		<g>
			<g>
				<g>
					<path class="st2" d="M111.8,49.4c0-0.5-0.1-0.9-0.4-1.2c-0.2-0.3-0.6-0.4-1.1-0.4c-1.1,0-1.6,0.7-1.7,2.2h-2.2
						c0.1-1.3,0.5-2.3,1.2-3c0.7-0.7,1.7-1,2.8-1c1.2,0,2.1,0.3,2.7,0.9s0.9,1.4,0.9,2.4c0,0.8-0.2,1.6-0.7,2.4
						c-0.5,0.8-1.1,1.5-1.8,2.2c-0.7,0.7-1.5,1.2-2.3,1.7h4.9v1.8h-8v-1.7C110,53.1,111.8,51.1,111.8,49.4z"/>
					<path class="st2" d="M120.8,49.4c0-0.5-0.1-0.9-0.4-1.2c-0.2-0.3-0.6-0.4-1.1-0.4c-1.1,0-1.6,0.7-1.7,2.2h-2.2
						c0.1-1.3,0.5-2.3,1.2-3c0.7-0.7,1.7-1,2.8-1c1.2,0,2.1,0.3,2.7,0.9s0.9,1.4,0.9,2.4c0,0.8-0.2,1.6-0.7,2.4
						c-0.5,0.8-1.1,1.5-1.8,2.2c-0.7,0.7-1.5,1.2-2.3,1.7h4.9v1.8h-8v-1.7C119,53.1,120.8,51.1,120.8,49.4z"/>
				</g>
			</g>
			<g>
				<path class="st3" d="M126.8,65.7h-23.9c-0.6,0-1.1-0.5-1.1-1.1v0c0-0.6,0.5-1.1,1.1-1.1h23.9c0.6,0,1.1,0.5,1.1,1.1v0
					C127.8,65.2,127.3,65.7,126.8,65.7z"/>
			</g>
		</g>
		<g>
			
				<image style="overflow:visible;opacity:0.1;" width="71" height="74" xlink:href="E1AD1B92.png"  transform="matrix(1 0 0 1 44 25)">
			</image>
			<g>
				<path class="st1" d="M54.7,33.9h35.6c1.3,0,2.3,1,2.3,2.3v37.4c0,1.3-1,2.3-2.3,2.3H54.7c-1.3,0-2.3-1-2.3-2.3V36.3
					C52.3,35,53.4,33.9,54.7,33.9z"/>
			</g>
		</g>
		<g>
			<g>
				<circle class="st4" cx="51.3" cy="49.4" r="3.2"/>
			</g>
			<g>
				<circle class="st4" cx="51.3" cy="60.6" r="3.2"/>
			</g>
		</g>
		<g>
			<g>
				<circle class="st4" cx="93.7" cy="49.4" r="3.2"/>
			</g>
			<g>
				<circle class="st4" cx="93.7" cy="60.6" r="3.2"/>
			</g>
		</g>
		<g>
			<g>
				<g>
					<path class="st2" d="M65,48.2v-2.1H69v11.3h-2.4v-9.2H65z"/>
					<path class="st2" d="M71.6,47.2c0.3-0.5,0.8-0.8,1.4-1.1c0.6-0.3,1.3-0.4,2.2-0.4s1.6,0.1,2.2,0.4c0.6,0.3,1.1,0.7,1.4,1.1
						c0.3,0.5,0.5,1,0.5,1.5c0,0.6-0.1,1.1-0.4,1.6s-0.7,0.8-1.3,1c0.7,0.3,1.2,0.6,1.5,1.1s0.5,1.1,0.5,1.8c0,0.7-0.2,1.4-0.6,1.9
						c-0.4,0.5-0.9,0.9-1.5,1.2s-1.4,0.4-2.2,0.4s-1.6-0.1-2.2-0.4s-1.2-0.7-1.5-1.2c-0.4-0.5-0.6-1.2-0.6-1.9
						c0-0.7,0.2-1.3,0.5-1.8s0.9-0.9,1.5-1.1c-0.6-0.2-1-0.5-1.4-1s-0.5-1-0.5-1.6C71.1,48.2,71.3,47.7,71.6,47.2z M73.6,55.3
						c0.4,0.3,0.9,0.5,1.5,0.5s1.1-0.2,1.5-0.5c0.4-0.3,0.6-0.8,0.6-1.3c0-0.6-0.2-1-0.6-1.3c-0.4-0.3-0.9-0.5-1.5-0.5
						c-0.6,0-1.1,0.2-1.5,0.5c-0.4,0.3-0.6,0.7-0.6,1.3C73.1,54.6,73.2,55,73.6,55.3z M73.8,50.3c0.3,0.3,0.8,0.4,1.3,0.4
						c0.6,0,1-0.1,1.3-0.4c0.3-0.3,0.5-0.7,0.5-1.2c0-0.5-0.2-0.9-0.5-1.2s-0.8-0.4-1.3-0.4c-0.5,0-1,0.1-1.3,0.4s-0.5,0.7-0.5,1.2
						C73.4,49.6,73.5,50,73.8,50.3z"/>
				</g>
			</g>
			<g>
				<path class="st3" d="M84.4,65.7H60.6c-0.6,0-1.1-0.5-1.1-1.1v0c0-0.6,0.5-1.1,1.1-1.1h23.9c0.6,0,1.1,0.5,1.1,1.1v0
					C85.5,65.2,85,65.7,84.4,65.7z"/>
			</g>
		</g>
	</g>
</g>
</svg>
