<?xml version="1.0" encoding="utf-8"?>
<!-- Generator: Adobe Illustrator 25.2.1, SVG Export Plug-In . SVG Version: 6.00 Build 0)  -->
<svg version="1.1" id="Layer_1" xmlns="http://www.w3.org/2000/svg" xmlns:xlink="http://www.w3.org/1999/xlink" x="0px" y="0px"
	 viewBox="0 0 145 110" style="enable-background:new 0 0 145 110;" xml:space="preserve">
<style type="text/css">
	.st0{fill:#EFEFEF;}
	.st1{fill:#8B59F7;}
	.st2{opacity:0.2;}
	.st3{fill:#FFFFFF;}
	.st4{opacity:0.5;fill:#FFFFFF;}
</style>
<g>
	<g>
		<rect class="st0" width="145" height="110"/>
	</g>
	<g>
		<g>
			<path class="st1" d="M100.5,33.9h32.5c2.1,0,3.9,1.7,3.9,3.9v34.3c0,2.1-1.7,3.9-3.9,3.9h-32.5c-2.1,0-3.9-1.7-3.9-3.9V37.8
				C96.7,35.7,98.4,33.9,100.5,33.9z"/>
			<g>
				<g>
					<path class="st3" d="M115.4,47.9H110v2.8c0.2-0.3,0.6-0.5,1-0.7c0.4-0.2,0.9-0.3,1.4-0.3c0.8,0,1.4,0.2,1.9,0.5
						c0.5,0.3,0.9,0.8,1.2,1.3c0.3,0.6,0.4,1.2,0.4,1.9c0,1.2-0.3,2.2-1,2.9c-0.7,0.7-1.6,1.1-2.9,1.1c-0.8,0-1.5-0.1-2.1-0.4
						c-0.6-0.3-1.1-0.7-1.4-1.2c-0.3-0.5-0.5-1.1-0.6-1.8h2.2c0.1,0.5,0.3,0.9,0.6,1.1c0.3,0.3,0.7,0.4,1.2,0.4
						c0.6,0,1.1-0.2,1.4-0.6c0.3-0.4,0.5-0.9,0.5-1.5c0-0.6-0.2-1.1-0.5-1.4c-0.3-0.3-0.8-0.5-1.4-0.5c-0.4,0-0.8,0.1-1.1,0.3
						c-0.3,0.2-0.5,0.4-0.7,0.7h-2.2v-6.7h7.4V47.9z"/>
					<path class="st3" d="M117.3,55.1v-1.9l5.4-7.3h2.4v7.2h1.5v2h-1.5v2.3h-2.3v-2.3H117.3z M123,48.6l-3.4,4.6h3.4V48.6z"/>
				</g>
			</g>
			<g class="st2">
				<path class="st3" d="M126.8,69.7h-19.9c-1.7,0-3.1-1.4-3.1-3.1v0c0-1.7,1.4-3.1,3.1-3.1h19.9c1.7,0,3.1,1.4,3.1,3.1v0
					C129.8,68.3,128.4,69.7,126.8,69.7z"/>
			</g>
			<path class="st4" d="M124.8,67.3h-15.9c-0.4,0-0.7-0.3-0.7-0.7l0,0c0-0.4,0.3-0.7,0.7-0.7h15.9c0.4,0,0.7,0.3,0.7,0.7l0,0
				C125.5,67,125.2,67.3,124.8,67.3z"/>
		</g>
		<g>
			<path class="st1" d="M56.2,33.9h32.5c2.1,0,3.9,1.7,3.9,3.9v34.3c0,2.1-1.7,3.9-3.9,3.9H56.2c-2.1,0-3.9-1.7-3.9-3.9V37.8
				C52.3,35.7,54.1,33.9,56.2,33.9z"/>
			<g>
				<g>
					<path class="st3" d="M62.8,55.1v-1.9l5.4-7.3h2.4v7.2h1.5v2h-1.5v2.3h-2.3v-2.3H62.8z M68.5,48.6l-3.4,4.6h3.4V48.6z"/>
					<path class="st3" d="M74.2,47.2c0.3-0.5,0.8-0.8,1.4-1.1c0.6-0.3,1.3-0.4,2.2-0.4s1.6,0.1,2.2,0.4c0.6,0.3,1.1,0.7,1.4,1.1
						c0.3,0.5,0.5,1,0.5,1.5c0,0.6-0.2,1.1-0.4,1.6s-0.7,0.8-1.3,1c0.7,0.3,1.2,0.6,1.5,1.1s0.5,1.1,0.5,1.8c0,0.7-0.2,1.4-0.6,1.9
						c-0.4,0.5-0.9,0.9-1.5,1.2c-0.6,0.3-1.4,0.4-2.2,0.4c-0.8,0-1.6-0.1-2.2-0.4c-0.6-0.3-1.2-0.7-1.5-1.2
						c-0.4-0.5-0.6-1.2-0.6-1.9c0-0.7,0.2-1.3,0.5-1.8s0.9-0.9,1.5-1.1c-0.6-0.2-1-0.5-1.4-1c-0.3-0.4-0.5-1-0.5-1.6
						C73.7,48.2,73.9,47.7,74.2,47.2z M76.2,55.3c0.4,0.3,0.9,0.5,1.5,0.5c0.6,0,1.1-0.2,1.5-0.5c0.4-0.3,0.6-0.8,0.6-1.3
						c0-0.6-0.2-1-0.6-1.3c-0.4-0.3-0.9-0.5-1.5-0.5c-0.6,0-1.1,0.2-1.5,0.5c-0.4,0.3-0.6,0.7-0.6,1.3C75.6,54.6,75.8,55,76.2,55.3z
						 M76.4,50.3c0.3,0.3,0.8,0.4,1.3,0.4c0.6,0,1-0.1,1.3-0.4c0.3-0.3,0.5-0.7,0.5-1.2c0-0.5-0.2-0.9-0.5-1.2
						c-0.3-0.3-0.8-0.4-1.3-0.4c-0.5,0-1,0.1-1.3,0.4c-0.3,0.3-0.5,0.7-0.5,1.2C75.9,49.6,76.1,50,76.4,50.3z"/>
				</g>
			</g>
			<g class="st2">
				<path class="st3" d="M82.5,69.7H62.5c-1.7,0-3.1-1.4-3.1-3.1v0c0-1.7,1.4-3.1,3.1-3.1h19.9c1.7,0,3.1,1.4,3.1,3.1v0
					C85.5,68.3,84.1,69.7,82.5,69.7z"/>
			</g>
			<path class="st4" d="M80.5,67.3H64.5c-0.4,0-0.7-0.3-0.7-0.7l0,0c0-0.4,0.3-0.7,0.7-0.7h15.9c0.4,0,0.7,0.3,0.7,0.7l0,0
				C81.2,67,80.9,67.3,80.5,67.3z"/>
		</g>
		<g>
			<path class="st1" d="M11.9,33.9h32.5c2.1,0,3.9,1.7,3.9,3.9v34.3c0,2.1-1.7,3.9-3.9,3.9H11.9c-2.1,0-3.9-1.7-3.9-3.9V37.8
				C8,35.7,9.8,33.9,11.9,33.9z"/>
			<g>
				<g>
					<path class="st3" d="M25.1,46.1c0.5,0.3,1,0.6,1.2,1.1c0.3,0.5,0.4,1,0.4,1.6c0,0.7-0.2,1.3-0.6,1.8s-0.9,0.7-1.6,0.9v0.1
						c1.6,0.5,2.4,1.4,2.4,2.8c0,1-0.3,1.8-1,2.4c-0.7,0.6-1.6,0.9-2.8,0.9c-1.3,0-2.3-0.3-3-0.9C19.5,56,19.1,55,19,53.8h2.2
						c0.1,0.6,0.2,1,0.6,1.4c0.3,0.3,0.8,0.5,1.4,0.5c0.5,0,0.9-0.1,1.2-0.4c0.3-0.3,0.4-0.7,0.4-1.1c0-0.5-0.2-1-0.6-1.2
						s-1-0.4-1.8-0.4h-0.5v-1.8h0.5c1.5,0,2.2-0.5,2.2-1.6c0-0.5-0.1-0.8-0.4-1.1c-0.3-0.3-0.6-0.4-1.1-0.4c-0.5,0-0.9,0.2-1.2,0.5
						c-0.3,0.3-0.5,0.7-0.5,1.3h-2.2c0.1-1.2,0.4-2,1.1-2.7s1.6-0.9,2.8-0.9C23.9,45.7,24.6,45.8,25.1,46.1z"/>
					<path class="st3" d="M36.8,47.9h-5.4v2.8c0.2-0.3,0.6-0.5,1-0.7c0.4-0.2,0.9-0.3,1.4-0.3c0.8,0,1.4,0.2,1.9,0.5
						c0.5,0.3,0.9,0.8,1.2,1.3c0.3,0.6,0.4,1.2,0.4,1.9c0,1.2-0.3,2.2-1,2.9c-0.7,0.7-1.6,1.1-2.9,1.1c-0.8,0-1.5-0.1-2.1-0.4
						c-0.6-0.3-1.1-0.7-1.4-1.2c-0.3-0.5-0.5-1.1-0.6-1.8h2.2c0.1,0.5,0.3,0.9,0.6,1.1c0.3,0.3,0.7,0.4,1.2,0.4
						c0.6,0,1.1-0.2,1.4-0.6c0.3-0.4,0.5-0.9,0.5-1.5c0-0.6-0.2-1.1-0.5-1.4c-0.3-0.3-0.8-0.5-1.4-0.5c-0.4,0-0.8,0.1-1.1,0.3
						c-0.3,0.2-0.5,0.4-0.7,0.7h-2.2v-6.7h7.4V47.9z"/>
				</g>
			</g>
			<g class="st2">
				<path class="st3" d="M38.1,69.7H18.2c-1.7,0-3.1-1.4-3.1-3.1v0c0-1.7,1.4-3.1,3.1-3.1h19.9c1.7,0,3.1,1.4,3.1,3.1l0,0
					C41.2,68.3,39.8,69.7,38.1,69.7z"/>
			</g>
			<path class="st4" d="M36.2,67.3H20.2c-0.4,0-0.7-0.3-0.7-0.7l0,0c0-0.4,0.3-0.7,0.7-0.7h15.9c0.4,0,0.7,0.3,0.7,0.7l0,0
				C36.9,67,36.6,67.3,36.2,67.3z"/>
		</g>
	</g>
</g>
</svg>
