<?xml version="1.0" encoding="utf-8"?>
<!-- Generator: Adobe Illustrator 25.2.1, SVG Export Plug-In . SVG Version: 6.00 Build 0)  -->
<svg version="1.1" id="Layer_1" xmlns="http://www.w3.org/2000/svg" xmlns:xlink="http://www.w3.org/1999/xlink" x="0px" y="0px"
	 viewBox="0 0 145 110" style="enable-background:new 0 0 145 110;" xml:space="preserve">
<style type="text/css">
	.st0{fill:#EFEFEF;}
	.st1{fill:#8B59F7;}
	.st2{opacity:0.2;}
	.st3{fill:#FFFFFF;}
	.st4{opacity:0.5;fill:#FFFFFF;}
	.st5{fill:#009DE2;}
	.st6{opacity:0.3;}
	.st7{fill:url(#SVGID_1_);}
	.st8{fill:url(#SVGID_2_);}
	.st9{fill:url(#SVGID_3_);}
	.st10{fill:url(#SVGID_4_);}
	.st11{fill:url(#SVGID_5_);}
	.st12{fill:url(#SVGID_6_);}
</style>
<g>
	<g>
		<rect class="st0" width="145" height="110"/>
	</g>
	<rect x="96.7" y="33.9" class="st5" width="40.3" height="42.1"/>
	<g>
		<g>
			<path class="st3" d="M115.4,47.6H110v2.8c0.2-0.3,0.6-0.5,1-0.7c0.4-0.2,0.9-0.3,1.4-0.3c0.8,0,1.4,0.2,1.9,0.5s0.9,0.8,1.2,1.3
				c0.2,0.6,0.4,1.2,0.4,1.9c0,1.2-0.3,2.2-1,2.9c-0.7,0.7-1.6,1.1-2.9,1.1c-0.8,0-1.5-0.1-2.1-0.4c-0.6-0.3-1.1-0.7-1.4-1.2
				c-0.3-0.5-0.5-1.1-0.6-1.8h2.2c0.1,0.5,0.3,0.9,0.6,1.1c0.3,0.3,0.7,0.4,1.2,0.4c0.6,0,1.1-0.2,1.4-0.6c0.3-0.4,0.5-0.9,0.5-1.5
				c0-0.6-0.2-1.1-0.5-1.4c-0.3-0.3-0.8-0.5-1.4-0.5c-0.4,0-0.8,0.1-1.1,0.3s-0.5,0.4-0.7,0.7h-2.2v-6.7h7.4V47.6z"/>
			<path class="st3" d="M117.3,54.8v-1.9l5.4-7.3h2.4v7.2h1.5v2h-1.5v2.3h-2.3v-2.3H117.3z M123,48.3l-3.4,4.6h3.4V48.3z"/>
		</g>
	</g>
	<g class="st6">
		<path class="st3" d="M128.3,66.3h-23c-0.8,0-1.5-0.7-1.5-1.5v0c0-0.8,0.7-1.5,1.5-1.5h23c0.8,0,1.5,0.7,1.5,1.5l0,0
			C129.8,65.6,129.1,66.3,128.3,66.3z"/>
	</g>
	<g>
		<rect x="52.3" y="33.9" class="st5" width="40.3" height="42.1"/>
		<g>
			<g>
				<g>
					<path class="st3" d="M62.8,54.8v-1.9l5.4-7.3h2.4v7.2h1.5v2h-1.5v2.3h-2.3v-2.3H62.8z M68.5,48.3l-3.4,4.6h3.4V48.3z"/>
					<path class="st3" d="M74.2,46.9c0.3-0.5,0.8-0.8,1.4-1.1c0.6-0.3,1.3-0.4,2.2-0.4s1.6,0.1,2.2,0.4c0.6,0.3,1.1,0.7,1.4,1.1
						c0.3,0.5,0.5,1,0.5,1.5c0,0.6-0.2,1.1-0.4,1.6s-0.7,0.8-1.3,1c0.7,0.3,1.2,0.6,1.5,1.1s0.5,1.1,0.5,1.8c0,0.7-0.2,1.4-0.6,1.9
						c-0.4,0.5-0.9,0.9-1.5,1.2c-0.6,0.3-1.4,0.4-2.2,0.4c-0.8,0-1.6-0.1-2.2-0.4c-0.6-0.3-1.2-0.7-1.5-1.2
						c-0.4-0.5-0.6-1.2-0.6-1.9c0-0.7,0.2-1.3,0.5-1.8s0.9-0.9,1.5-1.1c-0.6-0.2-1-0.5-1.4-1c-0.3-0.4-0.5-1-0.5-1.6
						C73.7,47.8,73.9,47.3,74.2,46.9z M76.2,55c0.4,0.3,0.9,0.5,1.5,0.5c0.6,0,1.1-0.2,1.5-0.5c0.4-0.3,0.6-0.8,0.6-1.3
						c0-0.6-0.2-1-0.6-1.3c-0.4-0.3-0.9-0.5-1.5-0.5c-0.6,0-1.1,0.2-1.5,0.5c-0.4,0.3-0.6,0.7-0.6,1.3C75.6,54.2,75.8,54.7,76.2,55z
						 M76.4,49.9c0.3,0.3,0.8,0.4,1.3,0.4c0.6,0,1-0.1,1.3-0.4c0.3-0.3,0.5-0.7,0.5-1.2c0-0.5-0.2-0.9-0.5-1.2
						c-0.3-0.3-0.8-0.4-1.3-0.4c-0.5,0-1,0.1-1.3,0.4c-0.3,0.3-0.5,0.7-0.5,1.2C75.9,49.3,76.1,49.6,76.4,49.9z"/>
				</g>
			</g>
			<g class="st6">
				<path class="st3" d="M84,66.3H61c-0.8,0-1.5-0.7-1.5-1.5v0c0-0.8,0.7-1.5,1.5-1.5h23c0.8,0,1.5,0.7,1.5,1.5v0
					C85.5,65.6,84.8,66.3,84,66.3z"/>
			</g>
		</g>
	</g>
	<g>
		<rect x="8" y="33.9" class="st5" width="40.3" height="42.1"/>
		<g>
			<g>
				<g>
					<path class="st3" d="M25.1,45.8c0.5,0.3,1,0.6,1.2,1.1c0.3,0.5,0.4,1,0.4,1.6c0,0.7-0.2,1.3-0.6,1.8s-0.9,0.7-1.6,0.9v0.1
						c1.6,0.5,2.4,1.4,2.4,2.8c0,1-0.3,1.8-1,2.4c-0.7,0.6-1.6,0.9-2.8,0.9c-1.3,0-2.3-0.3-3-0.9c-0.7-0.6-1.2-1.6-1.2-2.8h2.2
						c0.1,0.6,0.2,1,0.6,1.4c0.3,0.3,0.8,0.5,1.4,0.5c0.5,0,0.9-0.1,1.2-0.4c0.3-0.3,0.4-0.7,0.4-1.1c0-0.5-0.2-1-0.6-1.2
						s-1-0.4-1.8-0.4h-0.5v-1.8h0.5c1.5,0,2.2-0.5,2.2-1.6c0-0.5-0.1-0.8-0.4-1.1c-0.3-0.3-0.6-0.4-1.1-0.4c-0.5,0-0.9,0.2-1.2,0.5
						c-0.3,0.3-0.5,0.7-0.5,1.3h-2.2c0.1-1.2,0.4-2,1.1-2.7s1.6-0.9,2.8-0.9C23.9,45.4,24.6,45.5,25.1,45.8z"/>
					<path class="st3" d="M36.8,47.6h-5.4v2.8c0.2-0.3,0.6-0.5,1-0.7c0.4-0.2,0.9-0.3,1.4-0.3c0.8,0,1.4,0.2,1.9,0.5
						c0.5,0.3,0.9,0.8,1.2,1.3c0.3,0.6,0.4,1.2,0.4,1.9c0,1.2-0.3,2.2-1,2.9c-0.7,0.7-1.6,1.1-2.9,1.1c-0.8,0-1.5-0.1-2.1-0.4
						c-0.6-0.3-1.1-0.7-1.4-1.2c-0.3-0.5-0.5-1.1-0.6-1.8h2.2c0.1,0.5,0.3,0.9,0.6,1.1c0.3,0.3,0.7,0.4,1.2,0.4
						c0.6,0,1.1-0.2,1.4-0.6c0.3-0.4,0.5-0.9,0.5-1.5c0-0.6-0.2-1.1-0.5-1.4c-0.3-0.3-0.8-0.5-1.4-0.5c-0.4,0-0.8,0.1-1.1,0.3
						c-0.3,0.2-0.5,0.4-0.7,0.7h-2.2v-6.7h7.4V47.6z"/>
				</g>
			</g>
			<g class="st6">
				<path class="st3" d="M39.7,66.3h-23c-0.8,0-1.5-0.7-1.5-1.5v0c0-0.8,0.7-1.5,1.5-1.5h23c0.8,0,1.5,0.7,1.5,1.5l0,0
					C41.2,65.6,40.5,66.3,39.7,66.3z"/>
			</g>
		</g>
	</g>
	<g>
		<linearGradient id="SVGID_1_" gradientUnits="userSpaceOnUse" x1="135.052" y1="36.2574" x2="128.3998" y2="41.3444">
			<stop  offset="0" style="stop-color:#FFFFFF"/>
			<stop  offset="1" style="stop-color:#FFFFFF;stop-opacity:0"/>
		</linearGradient>
		<path class="st7" d="M134.5,35.9c-2.5,0-5.1,0-7.6,0.1c-2.5,0.1-5.1,0.2-7.6,0.4c2.5,0.2,5.1,0.3,7.6,0.4c2.4,0.1,4.7,0.1,7.1,0.1
			c0,1.9,0,3.7,0.1,5.6c0.1,2,0.2,4,0.4,6.1c0.2-2,0.3-4,0.4-6.1c0.1-2,0.1-4,0.1-6.1l0-0.5L134.5,35.9z"/>
		
			<linearGradient id="SVGID_2_" gradientUnits="userSpaceOnUse" x1="10279.835" y1="53.6786" x2="10273.1826" y2="58.7656" gradientTransform="matrix(-1 0 0 -1 10378.3926 127.4212)">
			<stop  offset="0" style="stop-color:#FFFFFF"/>
			<stop  offset="1" style="stop-color:#FFFFFF;stop-opacity:0"/>
		</linearGradient>
		<path class="st8" d="M99.1,74.1c2.5,0,5.1,0,7.6-0.1c2.5-0.1,5.1-0.2,7.6-0.4c-2.5-0.2-5.1-0.3-7.6-0.4c-2.4-0.1-4.7-0.1-7.1-0.1
			c0-1.9,0-3.7-0.1-5.6c-0.1-2-0.2-4-0.4-6.1c-0.2,2-0.3,4-0.4,6.1c-0.1,2-0.1,4-0.1,6.1l0,0.5L99.1,74.1z"/>
	</g>
	<g>
		<linearGradient id="SVGID_3_" gradientUnits="userSpaceOnUse" x1="90.7474" y1="36.2574" x2="84.0952" y2="41.3444">
			<stop  offset="0" style="stop-color:#FFFFFF"/>
			<stop  offset="1" style="stop-color:#FFFFFF;stop-opacity:0"/>
		</linearGradient>
		<path class="st9" d="M90.2,35.9c-2.5,0-5.1,0-7.6,0.1c-2.5,0.1-5.1,0.2-7.6,0.4c2.5,0.2,5.1,0.3,7.6,0.4c2.4,0.1,4.7,0.1,7.1,0.1
			c0,1.9,0,3.7,0.1,5.6c0.1,2,0.2,4,0.4,6.1c0.2-2,0.3-4,0.4-6.1c0.1-2,0.1-4,0.1-6.1l0-0.5L90.2,35.9z"/>
		
			<linearGradient id="SVGID_4_" gradientUnits="userSpaceOnUse" x1="10324.1396" y1="53.6786" x2="10317.4873" y2="58.7656" gradientTransform="matrix(-1 0 0 -1 10378.3926 127.4212)">
			<stop  offset="0" style="stop-color:#FFFFFF"/>
			<stop  offset="1" style="stop-color:#FFFFFF;stop-opacity:0"/>
		</linearGradient>
		<path class="st10" d="M54.8,74.1c2.5,0,5.1,0,7.6-0.1c2.5-0.1,5.1-0.2,7.6-0.4c-2.5-0.2-5.1-0.3-7.6-0.4c-2.4-0.1-4.7-0.1-7.1-0.1
			c0-1.9,0-3.7-0.1-5.6c-0.1-2-0.2-4-0.4-6.1c-0.2,2-0.3,4-0.4,6.1c-0.1,2-0.1,4-0.1,6.1l0,0.5L54.8,74.1z"/>
	</g>
	<g>
		<linearGradient id="SVGID_5_" gradientUnits="userSpaceOnUse" x1="46.4431" y1="36.2574" x2="39.7909" y2="41.3444">
			<stop  offset="0" style="stop-color:#FFFFFF"/>
			<stop  offset="1" style="stop-color:#FFFFFF;stop-opacity:0"/>
		</linearGradient>
		<path class="st11" d="M45.9,35.9c-2.5,0-5.1,0-7.6,0.1c-2.5,0.1-5.1,0.2-7.6,0.4c2.5,0.2,5.1,0.3,7.6,0.4c2.4,0.1,4.7,0.1,7.1,0.1
			c0,1.9,0,3.7,0.1,5.6c0.1,2,0.2,4,0.4,6.1c0.2-2,0.3-4,0.4-6.1c0.1-2,0.1-4,0.1-6.1l0-0.5L45.9,35.9z"/>
		
			<linearGradient id="SVGID_6_" gradientUnits="userSpaceOnUse" x1="10368.4443" y1="53.6786" x2="10361.792" y2="58.7656" gradientTransform="matrix(-1 0 0 -1 10378.3926 127.4212)">
			<stop  offset="0" style="stop-color:#FFFFFF"/>
			<stop  offset="1" style="stop-color:#FFFFFF;stop-opacity:0"/>
		</linearGradient>
		<path class="st12" d="M10.5,74.1c2.5,0,5.1,0,7.6-0.1c2.5-0.1,5.1-0.2,7.6-0.4c-2.5-0.2-5.1-0.3-7.6-0.4c-2.4-0.1-4.7-0.1-7.1-0.1
			c0-1.9,0-3.7-0.1-5.6c-0.1-2-0.2-4-0.4-6.1c-0.2,2-0.3,4-0.4,6.1c-0.1,2-0.1,4-0.1,6.1l0,0.5L10.5,74.1z"/>
	</g>
</g>
</svg>
