<?xml version="1.0" encoding="utf-8"?>
<!-- Generator: Adobe Illustrator 25.2.1, SVG Export Plug-In . SVG Version: 6.00 Build 0)  -->
<svg version="1.1" id="Layer_1" xmlns="http://www.w3.org/2000/svg" xmlns:xlink="http://www.w3.org/1999/xlink" x="0px" y="0px"
	 viewBox="0 0 145 110" style="enable-background:new 0 0 145 110;" xml:space="preserve">
<style type="text/css">
	.st0{fill:#EFEFEF;}
	.st1{fill:#8B59F7;}
	.st2{fill:#FFFFFF;}
	.st3{opacity:0.2;}
	.st4{opacity:0.5;fill:#FFFFFF;}
	.st5{fill:#0367FF;}
	.st6{fill:#626E82;}
	.st7{fill:#C6C8CC;}
</style>
<g>
	<g>
		<rect class="st0" width="145" height="110"/>
	</g>
	<g>
		<path class="st5" d="M27.2,35.4c10.3,0,18.7,8.4,18.7,18.7v1.8c0,10.3-8.4,18.7-18.7,18.7S8.5,66.2,8.5,55.9v-1.8
			C8.5,43.8,16.9,35.4,27.2,35.4 M27.2,33.9L27.2,33.9C16.1,33.9,7,43,7,54.1v1.8c0,11.1,9,20.2,20.2,20.2h0
			c11.1,0,20.2-9,20.2-20.2v-1.8C47.3,43,38.3,33.9,27.2,33.9L27.2,33.9z"/>
	</g>
	<g>
		<path class="st5" d="M117.8,35.4c10.3,0,18.7,8.4,18.7,18.7v1.8c0,10.3-8.4,18.7-18.7,18.7c-10.3,0-18.7-8.4-18.7-18.7v-1.8
			C99.2,43.8,107.5,35.4,117.8,35.4 M117.8,33.9L117.8,33.9c-11.1,0-20.2,9-20.2,20.2v1.8c0,11.1,9,20.2,20.2,20.2h0
			c11.1,0,20.2-9,20.2-20.2v-1.8C138,43,128.9,33.9,117.8,33.9L117.8,33.9z"/>
	</g>
	<g>
		<g>
			<g>
				<path class="st6" d="M23.5,49.4c0-0.5-0.1-0.9-0.4-1.2c-0.2-0.3-0.6-0.4-1.1-0.4c-1.1,0-1.6,0.7-1.7,2.2h-2.2
					c0.1-1.3,0.5-2.3,1.2-3c0.7-0.7,1.7-1,2.8-1c1.2,0,2.1,0.3,2.7,0.9s0.9,1.4,0.9,2.4c0,0.8-0.2,1.6-0.7,2.4
					c-0.5,0.8-1.1,1.5-1.8,2.2c-0.7,0.7-1.5,1.2-2.3,1.7H26v1.8h-8v-1.7C21.7,53.1,23.5,51.1,23.5,49.4z"/>
				<path class="st6" d="M27.1,55.1v-1.9l5.4-7.3H35v7.2h1.5v2H35v2.3h-2.3v-2.3H27.1z M32.9,48.6l-3.4,4.6h3.4V48.6z"/>
			</g>
		</g>
		<g>
			<path class="st7" d="M37.7,65.7H16.7c-0.6,0-1.1-0.5-1.1-1.1v0c0-0.6,0.5-1.1,1.1-1.1h21.1c0.6,0,1.1,0.5,1.1,1.1v0
				C38.8,65.2,38.3,65.7,37.7,65.7z"/>
		</g>
	</g>
	<g>
		<g>
			<g>
				<path class="st6" d="M114.8,49.4c0-0.5-0.1-0.9-0.4-1.2c-0.2-0.3-0.6-0.4-1.1-0.4c-1.1,0-1.6,0.7-1.7,2.2h-2.2
					c0.1-1.3,0.5-2.3,1.2-3c0.7-0.7,1.7-1,2.8-1c1.2,0,2.1,0.3,2.7,0.9s0.9,1.4,0.9,2.4c0,0.8-0.2,1.6-0.7,2.4
					c-0.5,0.8-1.1,1.5-1.8,2.2c-0.7,0.7-1.5,1.2-2.3,1.7h4.9v1.8h-8v-1.7C113,53.1,114.8,51.1,114.8,49.4z"/>
				<path class="st6" d="M123.8,49.4c0-0.5-0.1-0.9-0.4-1.2c-0.2-0.3-0.6-0.4-1.1-0.4c-1.1,0-1.6,0.7-1.7,2.2h-2.2
					c0.1-1.3,0.5-2.3,1.2-3c0.7-0.7,1.7-1,2.8-1c1.2,0,2.1,0.3,2.7,0.9s0.9,1.4,0.9,2.4c0,0.8-0.2,1.6-0.7,2.4
					c-0.5,0.8-1.1,1.5-1.8,2.2c-0.7,0.7-1.5,1.2-2.3,1.7h4.9v1.8h-8v-1.7C122,53.1,123.8,51.1,123.8,49.4z"/>
			</g>
		</g>
		<g>
			<path class="st7" d="M127.2,65.7h-18.7c-0.6,0-1.1-0.5-1.1-1.1v0c0-0.6,0.5-1.1,1.1-1.1h18.7c0.6,0,1.1,0.5,1.1,1.1v0
				C128.2,65.2,127.8,65.7,127.2,65.7z"/>
		</g>
	</g>
	<g>
		<path class="st5" d="M72.5,35.4c10.3,0,18.7,8.4,18.7,18.7v1.8c0,10.3-8.4,18.7-18.7,18.7c-10.3,0-18.7-8.4-18.7-18.7v-1.8
			C53.8,43.8,62.2,35.4,72.5,35.4 M72.5,33.9L72.5,33.9c-11.1,0-20.2,9-20.2,20.2v1.8c0,11.1,9,20.2,20.2,20.2h0
			c11.1,0,20.2-9,20.2-20.2v-1.8C92.7,43,83.6,33.9,72.5,33.9L72.5,33.9z"/>
	</g>
	<g>
		<g>
			<g>
				<path class="st6" d="M65,48.2v-2.1H69v11.3h-2.4v-9.2H65z"/>
				<path class="st6" d="M71.6,47.2c0.3-0.5,0.8-0.8,1.4-1.1c0.6-0.3,1.3-0.4,2.2-0.4s1.6,0.1,2.2,0.4c0.6,0.3,1.1,0.7,1.4,1.1
					c0.3,0.5,0.5,1,0.5,1.5c0,0.6-0.2,1.1-0.4,1.6s-0.7,0.8-1.3,1c0.7,0.3,1.2,0.6,1.5,1.1s0.5,1.1,0.5,1.8c0,0.7-0.2,1.4-0.6,1.9
					c-0.4,0.5-0.9,0.9-1.5,1.2c-0.6,0.3-1.4,0.4-2.2,0.4c-0.8,0-1.6-0.1-2.2-0.4c-0.6-0.3-1.2-0.7-1.5-1.2c-0.4-0.5-0.6-1.2-0.6-1.9
					c0-0.7,0.2-1.3,0.5-1.8s0.9-0.9,1.5-1.1c-0.6-0.2-1-0.5-1.4-1s-0.5-1-0.5-1.6C71.1,48.2,71.3,47.7,71.6,47.2z M73.6,55.3
					c0.4,0.3,0.9,0.5,1.5,0.5c0.6,0,1.1-0.2,1.5-0.5c0.4-0.3,0.6-0.8,0.6-1.3c0-0.6-0.2-1-0.6-1.3c-0.4-0.3-0.9-0.5-1.5-0.5
					c-0.6,0-1.1,0.2-1.5,0.5c-0.4,0.3-0.6,0.7-0.6,1.3C73.1,54.6,73.2,55,73.6,55.3z M73.8,50.3c0.3,0.3,0.8,0.4,1.3,0.4
					c0.6,0,1-0.1,1.3-0.4c0.3-0.3,0.5-0.7,0.5-1.2c0-0.5-0.2-0.9-0.5-1.2c-0.3-0.3-0.8-0.4-1.3-0.4c-0.5,0-1,0.1-1.3,0.4
					c-0.3,0.3-0.5,0.7-0.5,1.2C73.4,49.6,73.5,50,73.8,50.3z"/>
			</g>
		</g>
		<g>
			<path class="st7" d="M82.1,65.7H62.9c-0.6,0-1.1-0.5-1.1-1.1v0c0-0.6,0.5-1.1,1.1-1.1h19.2c0.6,0,1.1,0.5,1.1,1.1v0
				C83.1,65.2,82.7,65.7,82.1,65.7z"/>
		</g>
	</g>
</g>
</svg>
