<?xml version="1.0" encoding="utf-8"?>
<!-- Generator: Adobe Illustrator 25.2.1, SVG Export Plug-In . SVG Version: 6.00 Build 0)  -->
<svg version="1.1" id="Layer_1" xmlns="http://www.w3.org/2000/svg" xmlns:xlink="http://www.w3.org/1999/xlink" x="0px" y="0px"
	 viewBox="0 0 145 110" style="enable-background:new 0 0 145 110;" xml:space="preserve">
<style type="text/css">
	.st0{fill:#EFEFEF;}
	.st1{fill:#FFFFFF;}
	.st2{fill:#747E93;}
	.st3{fill:#B8BCC1;}
</style>
<g>
	<g>
		<rect class="st0" width="145" height="110"/>
	</g>
	<g>
		<g>
			<g>
				<g>
					<path class="st1" d="M12.5,46.3h24.4c0.9,0,1.6,0.7,1.6,1.6v25.6c0,0.9-0.7,1.6-1.6,1.6H12.5c-0.9,0-1.6-0.7-1.6-1.6V47.9
						C10.9,47,11.7,46.3,12.5,46.3z"/>
					<g>
						<g>
							<path class="st2" d="M19.9,64.2v-1.6l6-7.9H28v7.8h1.7v1.7H28v2.6h-2v-2.6H19.9z M26.1,57l-4.2,5.5h4.2V57z"/>
						</g>
					</g>
				</g>
				<g>
					<path class="st1" d="M42.4,46.3h24.4c0.9,0,1.6,0.7,1.6,1.6v25.6c0,0.9-0.7,1.6-1.6,1.6H42.4c-0.9,0-1.6-0.7-1.6-1.6V47.9
						C40.8,47,41.5,46.3,42.4,46.3z"/>
					<g>
						<g>
							<path class="st2" d="M55.8,61.6c1.1-1.2,1.7-2.3,1.7-3.4c0-0.6-0.2-1.1-0.5-1.5c-0.3-0.4-0.8-0.5-1.5-0.5
								c-0.7,0-1.2,0.2-1.6,0.7c-0.4,0.4-0.5,1.1-0.6,1.9h-1.9c0.1-1.4,0.5-2.4,1.3-3.1c0.8-0.7,1.7-1.1,2.9-1.1
								c1.2,0,2.1,0.3,2.7,0.9s1,1.5,1,2.6c0,0.9-0.3,1.8-0.8,2.7c-0.5,0.9-1.2,1.7-2,2.5s-1.7,1.4-2.6,1.9h5.7v1.6h-8.3v-1.4
								C53.2,64,54.7,62.8,55.8,61.6z"/>
						</g>
					</g>
				</g>
			</g>
			<g>
				<path class="st3" d="M55.7,37.8H23.6c-1.2,0-2.2-1-2.2-2.2v0c0-1.2,1-2.2,2.2-2.2h32.1c1.2,0,2.2,1,2.2,2.2v0
					C57.9,36.8,56.9,37.8,55.7,37.8z"/>
			</g>
		</g>
		<g>
			<g>
				<g>
					<path class="st1" d="M78.3,46.3h24.4c0.9,0,1.6,0.7,1.6,1.6v25.6c0,0.9-0.7,1.6-1.6,1.6H78.3c-0.9,0-1.6-0.7-1.6-1.6V47.9
						C76.7,47,77.4,46.3,78.3,46.3z"/>
					<g>
						<g>
							<path class="st2" d="M94.4,56.3h-5.9v3.6c0.3-0.4,0.7-0.6,1.2-0.8c0.5-0.2,1-0.3,1.6-0.3c0.8,0,1.5,0.2,2.1,0.5
								c0.6,0.4,1,0.8,1.2,1.4c0.3,0.6,0.4,1.2,0.4,2c0,1.3-0.4,2.3-1.1,3.1c-0.7,0.8-1.7,1.2-3.1,1.2c-1.3,0-2.3-0.3-3-1
								c-0.8-0.7-1.2-1.6-1.3-2.7h1.9c0.1,0.6,0.4,1.1,0.8,1.4c0.4,0.4,0.9,0.5,1.5,0.5c0.8,0,1.3-0.2,1.7-0.7
								c0.4-0.5,0.6-1.1,0.6-1.9c0-0.7-0.2-1.3-0.6-1.7s-1-0.6-1.7-0.6c-0.5,0-1,0.1-1.4,0.3s-0.7,0.5-0.9,0.9h-1.9v-6.9h7.7V56.3z"
								/>
						</g>
					</g>
				</g>
				<g>
					<path class="st1" d="M108.1,46.3h24.4c0.9,0,1.6,0.7,1.6,1.6v25.6c0,0.9-0.7,1.6-1.6,1.6h-24.4c-0.9,0-1.6-0.7-1.6-1.6V47.9
						C106.5,47,107.2,46.3,108.1,46.3z"/>
					<g>
						<g>
							<path class="st2" d="M116.5,64.2v-1.6l6-7.9h2.1v7.8h1.7v1.7h-1.7v2.6h-2v-2.6H116.5z M122.7,57l-4.2,5.5h4.2V57z"/>
						</g>
					</g>
				</g>
			</g>
			<g>
				<path class="st3" d="M121.5,37.8H89.2c-1.2,0-2.2-1-2.2-2.2v0c0-1.2,1-2.2,2.2-2.2h32.3c1.2,0,2.2,1,2.2,2.2v0
					C123.8,36.8,122.8,37.8,121.5,37.8z"/>
			</g>
		</g>
	</g>
</g>
</svg>
