<?xml version="1.0" encoding="utf-8"?>
<!-- Generator: Adobe Illustrator 25.2.1, SVG Export Plug-In . SVG Version: 6.00 Build 0)  -->
<svg version="1.1" id="Layer_1" xmlns="http://www.w3.org/2000/svg" xmlns:xlink="http://www.w3.org/1999/xlink" x="0px" y="0px"
	 viewBox="0 0 320 160" style="enable-background:new 0 0 320 160;" xml:space="preserve">
<style type="text/css">
	.st0{clip-path:url(#SVGID_2_);}
	.st1{fill:#F8F8F8;}
	.st2{fill:#FFFFFF;}
	.st3{fill:url(#SVGID_3_);}
	.st4{fill:url(#SVGID_4_);}
	.st5{fill:#444444;}
	.st6{fill:url(#SVGID_5_);}
	.st7{fill:url(#SVGID_6_);}
	.st8{fill:#DBDBDB;}
	.st9{fill:url(#SVGID_7_);}
	.st10{fill:url(#SVGID_8_);}
	.st11{fill:url(#SVGID_9_);}
	.st12{fill:url(#SVGID_10_);}
</style>
<g>
	<defs>
		<rect id="SVGID_1_" width="320" height="160"/>
	</defs>
	<clipPath id="SVGID_2_">
		<use xlink:href="#SVGID_1_"  style="overflow:visible;"/>
	</clipPath>
	<g class="st0">
		<rect class="st1" width="320" height="160"/>
		<g>
			<path class="st2" d="M231,52.5c0-4.1,3.3-7.5,7.5-7.5h54.1c4.1,0,7.5,3.3,7.5,7.5v54.9c0,4.1-3.3,7.5-7.5,7.5h-54.1
				c-4.1,0-7.5-3.3-7.5-7.5V52.5z"/>
		</g>
		
			<linearGradient id="SVGID_3_" gradientUnits="userSpaceOnUse" x1="276.84" y1="107.8035" x2="246.307" y2="80.9715" gradientTransform="matrix(1 0 0 -1 0 162)">
			<stop  offset="0" style="stop-color:#361CD6"/>
			<stop  offset="1" style="stop-color:#E1427B"/>
		</linearGradient>
		<path class="st3" d="M248.2,62.7v13.8h5.2c0.3-1.1,1.2-1.9,2.7-1.9c1.9,0,3,1.1,3,3.2c0,2-0.9,3.5-2.9,3.5c-1.8,0-2.7-1.1-2.9-2.3
			h-5.3c0.2,4,3.2,6.9,8.4,6.9c5.1,0,8-3.2,8-8c0-3.7-1.9-7.6-7-7.6c-1.8,0-3.4,0.7-4.2,1.6v-4.4h9.9v-4.7H248.2z"/>
		
			<linearGradient id="SVGID_4_" gradientUnits="userSpaceOnUse" x1="286.1331" y1="97.2285" x2="255.6001" y2="70.3965" gradientTransform="matrix(1 0 0 -1 0 162)">
			<stop  offset="0" style="stop-color:#361CD6"/>
			<stop  offset="1" style="stop-color:#E1427B"/>
		</linearGradient>
		<path class="st4" d="M268.1,79.1c0.3,3.5,2.7,6.9,7.7,6.9c6.2,0,8-4.4,8-12.2c0-7-1.8-11.5-8.4-11.5c-4.9,0-7.9,3-7.9,7.7
			c0,4.9,3,7.4,7,7.4c2,0,3.7-0.8,4.6-2.1c0,4.4-0.8,6.3-3.1,6.3c-1.7,0-2.6-0.9-2.9-2.5H268.1z M275.7,73.1c-2.1,0-3.1-1.3-3.1-3
			c0-1.9,1.1-3.1,3-3.1c1.8,0,3,1.1,3,3.2C278.6,71.9,277.5,73.1,275.7,73.1z"/>
		<path class="st5" d="M252.5,101.5c0-2-2.9-1.2-2.9-2.5c0-0.5,0.4-0.8,0.9-0.8c0.6,0,0.9,0.4,0.9,0.7h1c-0.1-0.9-0.8-1.5-1.9-1.5
			c-1.1,0-1.9,0.6-1.9,1.6c0,2,2.9,1.2,2.9,2.5c0,0.5-0.4,0.8-1,0.8c-0.6,0-0.9-0.4-1-0.8h-1c0,1,0.8,1.6,1.9,1.6
			C251.8,103.1,252.5,102.3,252.5,101.5z"/>
		<path class="st5" d="M255.4,99.4c0.7,0,1.2,0.4,1.2,1.1h-2.4C254.3,99.8,254.8,99.4,255.4,99.4z M257.4,101.7h-1
			c-0.2,0.3-0.5,0.6-1,0.6c-0.7,0-1.2-0.4-1.2-1.2h3.3c0-0.2,0-0.3,0-0.4c0-1.3-0.9-2.1-2.1-2.1c-1.3,0-2.2,0.9-2.2,2.2
			c0,1.4,0.9,2.3,2.2,2.3C256.5,103.1,257.2,102.5,257.4,101.7z"/>
		<path class="st5" d="M258.1,100.8c0,1.4,0.9,2.3,2.1,2.3c1.1,0,1.8-0.6,2-1.4h-1c-0.2,0.5-0.5,0.7-1,0.7c-0.7,0-1.2-0.5-1.2-1.5
			c0-0.9,0.5-1.5,1.2-1.5c0.5,0,0.9,0.3,1,0.7h1c-0.2-0.9-0.9-1.4-2-1.4C259,98.6,258.1,99.5,258.1,100.8z"/>
		<path class="st5" d="M267.3,100.8c0-1.4-1-2.2-2.2-2.2c-1.2,0-2.2,0.9-2.2,2.2c0,1.4,0.9,2.3,2.2,2.3
			C266.3,103.1,267.3,102.2,267.3,100.8z M263.8,100.8c0-1,0.6-1.5,1.3-1.5c0.7,0,1.3,0.5,1.3,1.5c0,1-0.7,1.5-1.3,1.5
			C264.4,102.3,263.8,101.8,263.8,100.8z"/>
		<path class="st5" d="M271.3,103h0.9v-2.6c0-1.2-0.8-1.9-1.8-1.9c-0.5,0-1,0.2-1.3,0.6v-0.5h-0.9v4.4h0.9v-2.4
			c0-0.8,0.4-1.2,1.1-1.2c0.7,0,1.1,0.4,1.1,1.2V103z"/>
		<path class="st5" d="M273.1,100.8c0,1.3,0.9,2.3,2.1,2.3c0.7,0,1.2-0.3,1.5-0.7v0.7h0.9v-5.9h-0.9v2.1c-0.3-0.4-0.9-0.7-1.5-0.7
			C274,98.6,273.1,99.5,273.1,100.8z M276.6,100.8c0,0.9-0.6,1.5-1.3,1.5c-0.7,0-1.3-0.5-1.3-1.5c0-0.9,0.6-1.4,1.3-1.4
			C276,99.4,276.6,99.9,276.6,100.8z"/>
		<path class="st5" d="M282,101.8c0-1.6-2.5-1.1-2.5-2c0-0.3,0.3-0.5,0.7-0.5c0.5,0,0.8,0.3,0.8,0.6h0.9c0-0.9-0.7-1.4-1.7-1.4
			c-1,0-1.7,0.6-1.7,1.3c0,1.6,2.5,1.1,2.5,2c0,0.3-0.3,0.5-0.8,0.5c-0.5,0-0.8-0.3-0.9-0.6h-0.9c0,0.8,0.8,1.4,1.8,1.4
			C281.3,103.1,282,102.5,282,101.8z"/>
		<g>
			<path class="st2" d="M160.7,52.5c0-4.1,3.3-7.5,7.5-7.5h54.1c4.1,0,7.5,3.3,7.5,7.5v54.9c0,4.1-3.3,7.5-7.5,7.5h-54.1
				c-4.1,0-7.5-3.3-7.5-7.5V52.5z"/>
		</g>
		
			<linearGradient id="SVGID_5_" gradientUnits="userSpaceOnUse" x1="208.6714" y1="105.9944" x2="177.9984" y2="77.8674" gradientTransform="matrix(1 0 0 -1 0 162)">
			<stop  offset="0" style="stop-color:#361CD6"/>
			<stop  offset="1" style="stop-color:#E1427B"/>
		</linearGradient>
		<path class="st6" d="M186.1,85.9h5.4v-4.1h2.6v-4.7h-2.6v-14h-6l-10,14.3v4.4h10.6V85.9z M181.2,77.1l5.3-8v8H181.2z"/>
		
			<linearGradient id="SVGID_6_" gradientUnits="userSpaceOnUse" x1="215.7065" y1="98.3225" x2="185.0336" y2="70.1955" gradientTransform="matrix(1 0 0 -1 0 162)">
			<stop  offset="0" style="stop-color:#361CD6"/>
			<stop  offset="1" style="stop-color:#E1427B"/>
		</linearGradient>
		<path class="st7" d="M198.3,62.7v13.8h5.2c0.3-1.1,1.2-1.9,2.7-1.9c1.9,0,3,1.1,3,3.2c0,2-0.9,3.5-2.9,3.5c-1.8,0-2.7-1.1-2.9-2.3
			H198c0.2,4,3.2,6.9,8.4,6.9c5.1,0,8-3.2,8-8c0-3.7-1.9-7.6-7-7.6c-1.8,0-3.4,0.7-4.2,1.6v-4.4h9.9v-4.7H198.3z"/>
		<path class="st5" d="M179.8,103h0.9v-3.8l1.7,3.8h0.6l1.7-3.8v3.8h0.9v-5.5h-1l-1.9,4.3l-1.9-4.3h-1V103z"/>
		<path class="st5" d="M186.8,103h0.9v-4.4h-0.9V103z M187.3,98.1c0.3,0,0.6-0.3,0.6-0.6s-0.3-0.6-0.6-0.6c-0.3,0-0.6,0.3-0.6,0.6
			S187,98.1,187.3,98.1z"/>
		<path class="st5" d="M192,103h0.9v-2.6c0-1.2-0.8-1.9-1.8-1.9c-0.5,0-1,0.2-1.3,0.6v-0.5h-0.9v4.4h0.9v-2.4c0-0.8,0.4-1.2,1.1-1.2
			c0.7,0,1.1,0.4,1.1,1.2V103z"/>
		<path class="st5" d="M198,98.7h-0.9v2.4c0,0.8-0.4,1.2-1.1,1.2c-0.7,0-1.1-0.4-1.1-1.2v-2.4H194v2.6c0,1.2,0.8,1.9,1.8,1.9
			c0.5,0,1-0.2,1.3-0.6v0.5h0.9V98.7z"/>
		<path class="st5" d="M199.3,101.8c0,0.9,0.5,1.2,1.3,1.2h0.7v-0.8h-0.6c-0.4,0-0.5-0.1-0.5-0.5v-2.4h1.1v-0.7h-1.1v-1.1h-0.9v1.1
			h-0.5v0.7h0.5V101.8z"/>
		<path class="st5" d="M204,99.4c0.7,0,1.2,0.4,1.2,1.1h-2.4C202.9,99.8,203.4,99.4,204,99.4z M206,101.7h-1c-0.2,0.3-0.5,0.6-1,0.6
			c-0.7,0-1.2-0.4-1.2-1.2h3.3c0-0.2,0-0.3,0-0.4c0-1.3-0.9-2.1-2.1-2.1c-1.3,0-2.2,0.9-2.2,2.2c0,1.4,0.9,2.3,2.2,2.3
			C205.1,103.1,205.8,102.5,206,101.7z"/>
		<path class="st5" d="M210.3,101.8c0-1.6-2.5-1.1-2.5-2c0-0.3,0.3-0.5,0.7-0.5c0.5,0,0.8,0.3,0.8,0.6h0.9c0-0.9-0.7-1.4-1.7-1.4
			c-1,0-1.7,0.6-1.7,1.3c0,1.6,2.5,1.1,2.5,2c0,0.3-0.3,0.5-0.8,0.5c-0.5,0-0.8-0.3-0.9-0.6h-0.9c0,0.8,0.8,1.4,1.8,1.4
			C209.6,103.1,210.3,102.5,210.3,101.8z"/>
		<path class="st8" d="M233.3,91c0-1.5-1.1-2.6-2.5-2.6c-1.5,0-2.6,1.1-2.6,2.6c0,1.5,1.1,2.6,2.6,2.6
			C232.1,93.6,233.3,92.5,233.3,91z M233.3,72.9c0-1.5-1.1-2.6-2.5-2.6c-1.5,0-2.6,1.1-2.6,2.6c0,1.5,1.1,2.6,2.6,2.6
			C232.1,75.5,233.3,74.4,233.3,72.9z"/>
		<g>
			<path class="st2" d="M90.3,52.5c0-4.1,3.3-7.5,7.5-7.5h54.1c4.1,0,7.5,3.3,7.5,7.5v54.9c0,4.1-3.3,7.5-7.5,7.5H97.8
				c-4.1,0-7.5-3.3-7.5-7.5V52.5z"/>
		</g>
		
			<linearGradient id="SVGID_7_" gradientUnits="userSpaceOnUse" x1="136.9167" y1="106.3292" x2="106.5867" y2="80.8347" gradientTransform="matrix(1 0 0 -1 0 162)">
			<stop  offset="0" style="stop-color:#361CD6"/>
			<stop  offset="1" style="stop-color:#E1427B"/>
		</linearGradient>
		<path class="st9" d="M107.5,79.1c0.3,3.5,2.7,6.9,7.7,6.9c6.2,0,8-4.4,8-12.2c0-7-1.8-11.5-8.4-11.5c-4.9,0-7.9,3-7.9,7.7
			c0,4.9,3,7.4,7,7.4c2,0,3.7-0.8,4.6-2.1c0,4.4-0.8,6.3-3.1,6.3c-1.7,0-2.6-0.9-2.9-2.5H107.5z M115.2,73.1c-2.1,0-3.1-1.3-3.1-3
			c0-1.9,1.1-3.1,3-3.1c1.8,0,3,1.1,3,3.2C118.1,71.9,116.9,73.1,115.2,73.1z"/>
		
			<linearGradient id="SVGID_8_" gradientUnits="userSpaceOnUse" x1="144.9659" y1="96.7533" x2="114.6359" y2="71.2588" gradientTransform="matrix(1 0 0 -1 0 162)">
			<stop  offset="0" style="stop-color:#361CD6"/>
			<stop  offset="1" style="stop-color:#E1427B"/>
		</linearGradient>
		<path class="st10" d="M126.4,69.3h5.3c0.1-1.3,0.7-2.5,2.5-2.5c1.5,0,2.4,0.9,2.4,2.4c0,2.1-1.8,2.5-3.6,2.5h-1v4.4h1
			c2.8,0,4.1,0.8,4.1,2.9c0,1.5-0.9,2.6-2.6,2.6c-2,0-3-1.2-3-3h-5.3c0.2,5.2,3.6,7.5,8.4,7.5c4.8,0,7.6-2.8,7.6-6.7
			c0-3-1.6-4.8-3.9-5.6v-0.1c1.6-0.5,3.5-2.2,3.5-5.2c0-3.5-2.6-6.3-7.5-6.3C129.5,62.2,126.6,64.7,126.4,69.3z"/>
		<path class="st5" d="M117.4,103h0.9v-5.5h-0.9v2.4h-2.6v-2.4h-0.9v5.5h0.9v-2.4h2.6V103z"/>
		<path class="st5" d="M123.6,100.8c0-1.4-1-2.2-2.2-2.2c-1.2,0-2.2,0.9-2.2,2.2c0,1.4,0.9,2.3,2.2,2.3
			C122.6,103.1,123.6,102.2,123.6,100.8z M120.1,100.8c0-1,0.6-1.5,1.3-1.5c0.7,0,1.3,0.5,1.3,1.5c0,1-0.7,1.5-1.3,1.5
			C120.7,102.3,120.1,101.8,120.1,100.8z"/>
		<path class="st5" d="M128.5,98.7h-0.9v2.4c0,0.8-0.4,1.2-1.1,1.2c-0.7,0-1.1-0.4-1.1-1.2v-2.4h-0.9v2.6c0,1.2,0.8,1.9,1.8,1.9
			c0.5,0,1-0.2,1.3-0.6v0.5h0.9V98.7z"/>
		<path class="st5" d="M130.6,100.7c0-0.9,0.4-1.2,1.1-1.2h0.2v-0.9c-0.6,0-1.1,0.3-1.3,0.7v-0.6h-0.9v4.4h0.9V100.7z"/>
		<path class="st5" d="M136,101.8c0-1.6-2.5-1.1-2.5-2c0-0.3,0.3-0.5,0.7-0.5c0.5,0,0.8,0.3,0.8,0.6h0.9c0-0.9-0.7-1.4-1.7-1.4
			c-1,0-1.7,0.6-1.7,1.3c0,1.6,2.5,1.1,2.5,2c0,0.3-0.3,0.5-0.8,0.5c-0.5,0-0.8-0.3-0.9-0.6h-0.9c0,0.8,0.8,1.4,1.8,1.4
			C135.3,103.1,136,102.5,136,101.8z"/>
		<path class="st8" d="M162.5,91c0-1.5-1.1-2.6-2.5-2.6c-1.5,0-2.6,1.1-2.6,2.6c0,1.5,1.1,2.6,2.6,2.6
			C161.4,93.6,162.5,92.5,162.5,91z M162.5,72.9c0-1.5-1.1-2.6-2.5-2.6c-1.5,0-2.6,1.1-2.6,2.6c0,1.5,1.1,2.6,2.6,2.6
			C161.4,75.5,162.5,74.4,162.5,72.9z"/>
		<g>
			<path class="st2" d="M20,52.5c0-4.1,3.3-7.5,7.5-7.5h54.1c4.1,0,7.5,3.3,7.5,7.5v54.9c0,4.1-3.3,7.5-7.5,7.5H27.5
				c-4.1,0-7.5-3.3-7.5-7.5V52.5z"/>
		</g>
		
			<linearGradient id="SVGID_9_" gradientUnits="userSpaceOnUse" x1="67.2454" y1="105.546" x2="36.9158" y2="80.0515" gradientTransform="matrix(1 0 0 -1 0 162)">
			<stop  offset="0" style="stop-color:#361CD6"/>
			<stop  offset="1" style="stop-color:#E1427B"/>
		</linearGradient>
		<path class="st11" d="M36.2,85.6h15.9v-4.4h-8.5c3.7-2.8,8.2-6.9,8.2-11.9c0-3.9-2.3-7-7.6-7c-4.2,0-7.8,2.4-8,8h5.2
			c0-2.2,0.9-3.4,2.6-3.4c1.6,0,2.4,1.1,2.4,2.8c0,3.9-5.2,7.9-10.1,12V85.6z"/>
		
			<linearGradient id="SVGID_10_" gradientUnits="userSpaceOnUse" x1="73.7415" y1="97.8179" x2="43.4119" y2="72.3234" gradientTransform="matrix(1 0 0 -1 0 162)">
			<stop  offset="0" style="stop-color:#361CD6"/>
			<stop  offset="1" style="stop-color:#E1427B"/>
		</linearGradient>
		<path class="st12" d="M55.9,62.7v13.8h5.2c0.3-1.1,1.2-1.9,2.7-1.9c1.9,0,3,1.1,3,3.2c0,2-0.9,3.5-2.9,3.5c-1.8,0-2.7-1.1-2.9-2.3
			h-5.3c0.2,4,3.2,6.9,8.4,6.9c5.1,0,8-3.2,8-8c0-3.7-1.9-7.6-7-7.6c-1.8,0-3.4,0.7-4.2,1.6v-4.4h9.9v-4.7H55.9z"/>
		<path class="st5" d="M46.8,97.5H45v5.5h1.8c1.8,0,2.9-1,2.9-2.7C49.7,98.6,48.5,97.5,46.8,97.5z M45.9,102.3v-4h0.9
			c1.3,0,2,0.8,2,2c0,1.2-0.7,2-2,2H45.9z"/>
		<path class="st5" d="M50.3,100.8c0,1.3,0.9,2.3,2,2.3c0.7,0,1.3-0.3,1.5-0.7v0.6h0.9v-4.4h-0.9v0.6c-0.3-0.4-0.8-0.7-1.5-0.7
			C51.2,98.6,50.3,99.5,50.3,100.8z M53.9,100.8c0,0.9-0.6,1.5-1.3,1.5c-0.7,0-1.3-0.5-1.3-1.5c0-0.9,0.6-1.4,1.3-1.4
			C53.2,99.4,53.9,99.9,53.9,100.8z"/>
		<path class="st5" d="M57.7,102l-1.2-3.3h-1l1.7,4.3l-0.9,2.1h0.9l2.7-6.4h-0.9L57.7,102z"/>
		<path class="st5" d="M63.8,101.8c0-1.6-2.5-1.1-2.5-2c0-0.3,0.3-0.5,0.7-0.5c0.5,0,0.8,0.3,0.8,0.6h0.9c0-0.9-0.7-1.4-1.7-1.4
			c-1,0-1.7,0.6-1.7,1.3c0,1.6,2.5,1.1,2.5,2c0,0.3-0.3,0.5-0.8,0.5c-0.5,0-0.8-0.3-0.9-0.6h-0.9c0,0.8,0.8,1.4,1.8,1.4
			C63.2,103.1,63.8,102.5,63.8,101.8z"/>
		<path class="st8" d="M92.2,91c0-1.5-1.1-2.6-2.5-2.6c-1.5,0-2.6,1.1-2.6,2.6c0,1.5,1.1,2.6,2.6,2.6C91,93.6,92.2,92.5,92.2,91z
			 M92.2,72.9c0-1.5-1.1-2.6-2.5-2.6c-1.5,0-2.6,1.1-2.6,2.6c0,1.5,1.1,2.6,2.6,2.6C91,75.5,92.2,74.4,92.2,72.9z"/>
	</g>
</g>
</svg>
