<?xml version="1.0" encoding="utf-8"?>
<!-- Generator: Adobe Illustrator 25.2.1, SVG Export Plug-In . SVG Version: 6.00 Build 0)  -->
<svg version="1.1" id="Layer_1" xmlns="http://www.w3.org/2000/svg" xmlns:xlink="http://www.w3.org/1999/xlink" x="0px" y="0px"
	 viewBox="0 0 145 110" style="enable-background:new 0 0 145 110;" xml:space="preserve">
<style type="text/css">
	.st0{fill:#EFEFEF;}
	.st1{fill:#9A9EA8;}
	.st2{fill:#BDC0C6;}
	.st3{fill:url(#SVGID_1_);}
</style>
<g>
	<g>
		<rect class="st0" width="145" height="110"/>
	</g>
	<g>
		<path class="st1" d="M121.5,70.2h-98c-3.3,0-6-2.7-6-6v0c0-3.3,2.7-6,6-6h98c3.3,0,6,2.7,6,6v0C127.5,67.5,124.8,70.2,121.5,70.2z
			"/>
		<path class="st2" d="M65.8,45.8H20.5c-1.7,0-3-1.3-3-3v0c0-1.7,1.3-3,3-3h45.3c1.7,0,3,1.3,3,3v0C68.8,44.5,67.5,45.8,65.8,45.8z"
			/>
		<linearGradient id="SVGID_1_" gradientUnits="userSpaceOnUse" x1="73.8261" y1="42.7935" x2="103.4565" y2="42.7935">
			<stop  offset="0" style="stop-color:#0066FF"/>
			<stop  offset="1" style="stop-color:#EFEFEF;stop-opacity:0"/>
		</linearGradient>
		<path class="st3" d="M100.5,45.8H76.8c-1.7,0-3-1.3-3-3v0c0-1.7,1.3-3,3-3h23.6c1.7,0,3,1.3,3,3v0
			C103.5,44.5,102.1,45.8,100.5,45.8z"/>
	</g>
</g>
</svg>
