<?xml version="1.0" encoding="utf-8"?>
<!-- Generator: Adobe Illustrator 25.2.1, SVG Export Plug-In . SVG Version: 6.00 Build 0)  -->
<svg version="1.1" id="Layer_1" xmlns="http://www.w3.org/2000/svg" xmlns:xlink="http://www.w3.org/1999/xlink" x="0px" y="0px"
	 viewBox="0 0 145 110" style="enable-background:new 0 0 145 110;" xml:space="preserve">
<style type="text/css">
	.st0{fill:#EFEFEF;}
	.st1{fill:#9A9EA8;}
	.st2{fill:#BDC0C6;}
	.st3{fill:#0066FF;}
</style>
<g>
	<g>
		<rect class="st0" width="145" height="110"/>
	</g>
	<g>
		<path class="st1" d="M121.5,70.2h-98c-3.3,0-6-2.7-6-6v0c0-3.3,2.7-6,6-6h98c3.3,0,6,2.7,6,6v0C127.5,67.5,124.8,70.2,121.5,70.2z
			"/>
		<g>
			<path class="st2" d="M100.2,45.8H44.8c-1.7,0-3-1.3-3-3v0c0-1.7,1.3-3,3-3h55.3c1.7,0,3,1.3,3,3v0
				C103.2,44.5,101.8,45.8,100.2,45.8z"/>
			<path class="st3" d="M33.8,45.8L33.8,45.8c-1.7,0-3-1.3-3-3v0c0-1.7,1.3-3,3-3h0c1.7,0,3,1.3,3,3v0
				C36.8,44.5,35.5,45.8,33.8,45.8z"/>
			<path class="st3" d="M111.2,45.8L111.2,45.8c-1.7,0-3-1.3-3-3v0c0-1.7,1.3-3,3-3h0c1.7,0,3,1.3,3,3v0
				C114.2,44.5,112.8,45.8,111.2,45.8z"/>
		</g>
	</g>
</g>
</svg>
