<?xml version="1.0" encoding="utf-8"?>
<!-- Generator: Adobe Illustrator 25.2.1, SVG Export Plug-In . SVG Version: 6.00 Build 0)  -->
<svg version="1.1" id="Layer_1" xmlns="http://www.w3.org/2000/svg" xmlns:xlink="http://www.w3.org/1999/xlink" x="0px" y="0px"
	 viewBox="0 0 320 160" style="enable-background:new 0 0 320 160;" xml:space="preserve">
<style type="text/css">
	.st0{fill:#F8F8F8;}
	.st1{fill:#646464;}
</style>
<rect class="st0" width="320" height="160"/>
<path d="M108.7,18.1v9.1h-1.8v-9.1H108.7z"/>
<path d="M119.5,20c0.9,0,1.6,0.3,2.1,0.8c0.5,0.5,0.8,1.3,0.8,2.3v4.2h-1.8v-4c0-0.6-0.1-1-0.4-1.3c-0.3-0.3-0.7-0.5-1.2-0.5
	c-0.5,0-0.9,0.2-1.2,0.5c-0.3,0.3-0.5,0.8-0.5,1.4v3.8h-1.8v-4c0-0.6-0.1-1-0.4-1.3c-0.3-0.3-0.7-0.5-1.2-0.5
	c-0.5,0-0.9,0.2-1.2,0.5c-0.3,0.3-0.5,0.8-0.5,1.4v3.8h-1.8v-7.2h1.8v1.4c0.2-0.5,0.5-0.8,0.9-1.1c0.4-0.3,0.9-0.4,1.4-0.4
	c0.6,0,1.1,0.1,1.5,0.4c0.4,0.3,0.8,0.7,1,1.2c0.2-0.5,0.6-0.9,1-1.2C118.4,20.1,118.9,20,119.5,20z"/>
<path d="M126.7,20c0.6,0,1.1,0.1,1.6,0.4c0.4,0.3,0.7,0.7,0.9,1.2v-1.5h1.8v7.2h-1.8v-1.5c-0.2,0.5-0.5,0.9-0.9,1.2
	c-0.4,0.3-0.9,0.4-1.6,0.4c-0.6,0-1.1-0.1-1.6-0.4c-0.5-0.3-0.9-0.7-1.1-1.3c-0.3-0.6-0.4-1.2-0.4-2c0-0.8,0.1-1.4,0.4-2
	c0.3-0.6,0.7-1,1.1-1.3C125.5,20.1,126.1,20,126.7,20z M127.3,21.6c-0.6,0-1,0.2-1.4,0.6c-0.3,0.4-0.5,0.9-0.5,1.5s0.2,1.2,0.5,1.5
	c0.3,0.4,0.8,0.5,1.4,0.5c0.6,0,1-0.2,1.4-0.6c0.4-0.4,0.5-0.9,0.5-1.5c0-0.6-0.2-1.1-0.5-1.5C128.3,21.8,127.8,21.6,127.3,21.6z"/>
<path d="M135.5,20c0.6,0,1.1,0.1,1.6,0.4c0.4,0.3,0.7,0.7,0.9,1.2v-1.5h1.8v7.2c0,0.7-0.1,1.3-0.4,1.8c-0.3,0.5-0.7,1-1.2,1.3
	c-0.5,0.3-1.1,0.5-1.9,0.5c-1,0-1.9-0.2-2.5-0.7c-0.6-0.5-1-1.2-1.2-2h1.8c0.1,0.4,0.3,0.6,0.6,0.8c0.3,0.2,0.7,0.3,1.2,0.3
	c0.5,0,1-0.2,1.3-0.5c0.3-0.3,0.5-0.8,0.5-1.4v-1.5c-0.2,0.5-0.5,0.9-0.9,1.2c-0.4,0.3-0.9,0.4-1.6,0.4c-0.6,0-1.1-0.1-1.6-0.4
	c-0.5-0.3-0.9-0.7-1.1-1.3c-0.3-0.6-0.4-1.2-0.4-2c0-0.8,0.1-1.4,0.4-2c0.3-0.6,0.7-1,1.1-1.3S134.8,20,135.5,20z M136,21.6
	c-0.6,0-1,0.2-1.4,0.6c-0.3,0.4-0.5,0.9-0.5,1.5s0.2,1.2,0.5,1.5c0.3,0.4,0.8,0.5,1.4,0.5c0.6,0,1-0.2,1.4-0.6
	c0.4-0.4,0.5-0.9,0.5-1.5c0-0.6-0.2-1.1-0.5-1.5C137,21.8,136.6,21.6,136,21.6z"/>
<path d="M148.1,23.4c0,0.2,0,0.4-0.1,0.6h-5.3c0,0.6,0.2,1.1,0.5,1.4c0.3,0.3,0.7,0.5,1.2,0.5c0.4,0,0.8-0.1,1.1-0.3
	c0.3-0.2,0.5-0.5,0.5-0.8h1.9c-0.1,0.5-0.3,1-0.6,1.3c-0.3,0.4-0.7,0.7-1.2,0.9c-0.5,0.2-1,0.3-1.6,0.3c-0.7,0-1.3-0.1-1.9-0.4
	c-0.5-0.3-1-0.7-1.3-1.3c-0.3-0.6-0.5-1.2-0.5-2c0-0.8,0.2-1.4,0.5-2c0.3-0.6,0.7-1,1.3-1.3c0.5-0.3,1.2-0.4,1.9-0.4
	c0.7,0,1.3,0.1,1.9,0.4c0.5,0.3,0.9,0.7,1.2,1.2C148,22.1,148.1,22.7,148.1,23.4z M146.3,23.2c0-0.6-0.1-1-0.5-1.3
	c-0.3-0.3-0.7-0.5-1.2-0.5c-0.5,0-0.9,0.2-1.2,0.5c-0.3,0.3-0.5,0.7-0.6,1.3H146.3z"/>
<path d="M156.5,18c1.1,0,2,0.3,2.8,0.8c0.7,0.5,1.2,1.3,1.4,2.2h-1.9c-0.2-0.4-0.5-0.7-0.9-1c-0.4-0.3-0.9-0.4-1.4-0.4
	c-0.5,0-1,0.1-1.4,0.4c-0.4,0.2-0.7,0.6-0.9,1c-0.2,0.4-0.3,1-0.3,1.6c0,1,0.3,1.7,0.8,2.2c0.5,0.5,1.2,0.8,2.1,0.8
	c0.7,0,1.2-0.2,1.7-0.6c0.5-0.4,0.8-0.9,0.9-1.6h-3.1v-1.3h4.6V24c-0.1,0.6-0.4,1.2-0.8,1.7c-0.4,0.5-0.9,0.9-1.5,1.2
	c-0.6,0.3-1.3,0.5-2.1,0.5c-0.9,0-1.7-0.2-2.4-0.6c-0.7-0.4-1.2-0.9-1.6-1.6c-0.4-0.7-0.6-1.5-0.6-2.4c0-0.9,0.2-1.7,0.6-2.4
	c0.4-0.7,0.9-1.3,1.6-1.7C154.8,18.2,155.6,18,156.5,18z"/>
<path d="M164,21.4c0.3-0.5,0.6-0.8,1.1-1.1c0.4-0.3,0.9-0.4,1.5-0.4v2h-0.5c-1.3,0-2,0.6-2,1.9v3.5h-1.8v-7.2h1.8V21.4z"/>
<path d="M167.4,18c0-0.3,0.1-0.5,0.3-0.7c0.2-0.2,0.5-0.3,0.8-0.3c0.3,0,0.6,0.1,0.8,0.3c0.2,0.2,0.3,0.4,0.3,0.7
	c0,0.3-0.1,0.5-0.3,0.7c-0.2,0.2-0.5,0.3-0.8,0.3c-0.3,0-0.6-0.1-0.8-0.3C167.5,18.5,167.4,18.3,167.4,18z M169.4,20.1v7.2h-1.8
	v-7.2H169.4z"/>
<path d="M173.9,20c0.6,0,1.1,0.1,1.5,0.4c0.4,0.3,0.7,0.7,0.9,1.2v-3.9h1.8v9.6h-1.8v-1.5c-0.2,0.5-0.5,0.9-0.9,1.2
	c-0.4,0.3-0.9,0.4-1.5,0.4c-0.6,0-1.1-0.1-1.6-0.4c-0.5-0.3-0.9-0.7-1.1-1.3c-0.3-0.6-0.4-1.2-0.4-2c0-0.8,0.1-1.4,0.4-2
	c0.3-0.6,0.7-1,1.1-1.3C172.7,20.1,173.3,20,173.9,20z M174.5,21.6c-0.6,0-1,0.2-1.4,0.6c-0.3,0.4-0.5,0.9-0.5,1.5s0.2,1.2,0.5,1.5
	c0.3,0.4,0.8,0.5,1.4,0.5c0.6,0,1-0.2,1.4-0.6c0.4-0.4,0.5-0.9,0.5-1.5c0-0.6-0.2-1.1-0.5-1.5C175.5,21.8,175,21.6,174.5,21.6z"/>
<path d="M188.9,24.7c0,0.5-0.1,0.9-0.4,1.3c-0.2,0.4-0.6,0.7-1,0.9c-0.5,0.2-1,0.3-1.7,0.3c-0.6,0-1.2-0.1-1.7-0.3
	c-0.5-0.2-0.9-0.5-1.2-1c-0.3-0.4-0.5-0.9-0.5-1.5h1.9c0,0.4,0.2,0.7,0.4,0.9c0.3,0.2,0.6,0.4,1,0.4c0.4,0,0.7-0.1,0.9-0.3
	c0.2-0.2,0.3-0.5,0.3-0.8c0-0.3-0.1-0.5-0.2-0.7c-0.2-0.2-0.4-0.3-0.6-0.5c-0.3-0.1-0.6-0.2-1-0.4c-0.6-0.2-1-0.4-1.4-0.6
	c-0.4-0.2-0.7-0.5-0.9-0.8c-0.3-0.4-0.4-0.8-0.4-1.4c0-0.8,0.3-1.4,0.8-1.9c0.6-0.5,1.3-0.7,2.3-0.7c1,0,1.7,0.2,2.3,0.7
	c0.6,0.5,0.9,1.1,1,1.9h-2c-0.1-0.3-0.2-0.6-0.4-0.8c-0.2-0.2-0.5-0.3-0.9-0.3c-0.3,0-0.6,0.1-0.8,0.3c-0.2,0.2-0.3,0.4-0.3,0.8
	c0,0.3,0.1,0.5,0.2,0.7c0.2,0.2,0.4,0.3,0.6,0.4c0.2,0.1,0.6,0.2,1,0.4c0.6,0.2,1.1,0.4,1.4,0.6c0.4,0.2,0.7,0.5,0.9,0.8
	C188.8,23.7,188.9,24.1,188.9,24.7z"/>
<path d="M194.1,25.7v1.6h-1c-0.8,0-1.4-0.2-1.9-0.6c-0.4-0.4-0.6-1-0.6-1.9v-3.1h-1v-1.5h1v-1.8h1.8v1.8h1.6v1.5h-1.6v3.1
	c0,0.3,0.1,0.6,0.2,0.7c0.1,0.1,0.4,0.2,0.7,0.2H194.1z"/>
<path d="M196.7,20.1l2,4.9l1.8-4.9h2L198,30.7h-2l1.6-3.6l-3-7H196.7z"/>
<path d="M205.1,17.6v9.6h-1.8v-9.6H205.1z"/>
<path d="M213.5,23.4c0,0.2,0,0.4-0.1,0.6h-5.3c0,0.6,0.2,1.1,0.5,1.4c0.3,0.3,0.7,0.5,1.2,0.5c0.4,0,0.8-0.1,1.1-0.3
	c0.3-0.2,0.5-0.5,0.5-0.8h1.9c-0.1,0.5-0.3,1-0.6,1.3c-0.3,0.4-0.7,0.7-1.2,0.9c-0.5,0.2-1,0.3-1.6,0.3c-0.7,0-1.3-0.1-1.9-0.4
	c-0.5-0.3-1-0.7-1.3-1.3c-0.3-0.6-0.5-1.2-0.5-2c0-0.8,0.2-1.4,0.5-2c0.3-0.6,0.7-1,1.3-1.3c0.5-0.3,1.2-0.4,1.9-0.4
	c0.7,0,1.3,0.1,1.9,0.4c0.5,0.3,0.9,0.7,1.2,1.2C213.4,22.1,213.5,22.7,213.5,23.4z M211.7,23.2c0-0.6-0.1-1-0.5-1.3
	c-0.3-0.3-0.7-0.5-1.2-0.5c-0.5,0-0.9,0.2-1.2,0.5c-0.3,0.3-0.5,0.7-0.6,1.3H211.7z"/>
<path class="st1" d="M61.4,42.5l0.1,0.6l0.1-0.6l1-3.4h0.5l0.9,3.4l0.1,0.6l0.1-0.7l0.8-3.4h0.7l-1.2,4.9H64l-1-3.6l-0.1-0.4
	l-0.1,0.4l-1,3.6h-0.6L60,39.2h0.6L61.4,42.5z"/>
<path class="st1" d="M67,40.9c0.3-0.3,0.6-0.5,1.1-0.5c0.8,0,1.2,0.4,1.2,1.3v2.4h-0.6v-2.4c0-0.3-0.1-0.5-0.2-0.6
	c-0.1-0.1-0.3-0.2-0.6-0.2c-0.2,0-0.4,0.1-0.5,0.2c-0.2,0.1-0.3,0.2-0.4,0.4v2.6h-0.6v-5.2H67V40.9z"/>
<path class="st1" d="M71.7,44.1c-0.5,0-0.9-0.2-1.2-0.5c-0.3-0.3-0.5-0.8-0.5-1.3v-0.1c0-0.4,0.1-0.7,0.2-1c0.1-0.3,0.3-0.5,0.6-0.7
	c0.2-0.2,0.5-0.2,0.8-0.2c0.5,0,0.8,0.2,1.1,0.5c0.3,0.3,0.4,0.8,0.4,1.3v0.3h-2.5c0,0.4,0.1,0.7,0.3,0.9c0.2,0.2,0.5,0.3,0.8,0.3
	c0.2,0,0.4,0,0.6-0.1c0.2-0.1,0.3-0.2,0.4-0.4l0.4,0.3C72.8,43.9,72.3,44.1,71.7,44.1z M71.6,40.9c-0.3,0-0.5,0.1-0.6,0.3
	c-0.2,0.2-0.3,0.4-0.3,0.8h1.8v0c0-0.3-0.1-0.6-0.3-0.7C72.1,41,71.9,40.9,71.6,40.9z"/>
<path class="st1" d="M74.5,40.4l0,0.5c0.3-0.4,0.6-0.5,1.1-0.5c0.8,0,1.2,0.4,1.2,1.3v2.4h-0.6v-2.4c0-0.3-0.1-0.5-0.2-0.6
	c-0.1-0.1-0.3-0.2-0.6-0.2c-0.2,0-0.4,0.1-0.5,0.2c-0.2,0.1-0.3,0.2-0.4,0.4v2.6h-0.6v-3.7H74.5z"/>
<path class="st1" d="M82.2,42.8h-2.1l-0.5,1.3H79l1.9-4.9h0.6l1.9,4.9h-0.7L82.2,42.8z M80.3,42.3H82L81.2,40L80.3,42.3z"/>
<path class="st1" d="M84.5,40.4l0,0.5c0.3-0.4,0.6-0.5,1.1-0.5c0.8,0,1.2,0.4,1.2,1.3v2.4h-0.6v-2.4c0-0.3-0.1-0.5-0.2-0.6
	c-0.1-0.1-0.3-0.2-0.5-0.2c-0.2,0-0.4,0.1-0.5,0.2c-0.2,0.1-0.3,0.2-0.4,0.4v2.6h-0.6v-3.7H84.5z"/>
<path class="st1" d="M93,39.2v3.3c0,0.5-0.1,0.8-0.4,1.1c-0.3,0.3-0.7,0.5-1.2,0.5l-0.2,0c-0.5,0-1-0.1-1.3-0.4
	c-0.3-0.3-0.5-0.7-0.5-1.2v-3.3h0.6v3.3c0,0.4,0.1,0.6,0.3,0.8c0.2,0.2,0.5,0.3,0.8,0.3c0.4,0,0.6-0.1,0.8-0.3
	c0.2-0.2,0.3-0.5,0.3-0.8v-3.3H93z"/>
<path class="st1" d="M94.5,40.4l0,0.5c0.3-0.4,0.6-0.5,1.1-0.5c0.8,0,1.2,0.4,1.2,1.3v2.4h-0.6v-2.4c0-0.3-0.1-0.5-0.2-0.6
	c-0.1-0.1-0.3-0.2-0.5-0.2c-0.2,0-0.4,0.1-0.5,0.2c-0.2,0.1-0.3,0.2-0.4,0.4v2.6h-0.6v-3.7H94.5z"/>
<path class="st1" d="M98.7,42.4l-0.4,0.4v1.3h-0.6v-5.2h0.6V42l0.3-0.4l1.1-1.2h0.8L99.2,42l1.6,2.1H100L98.7,42.4z"/>
<path class="st1" d="M101.8,40.4l0,0.5c0.3-0.4,0.6-0.5,1.1-0.5c0.8,0,1.2,0.4,1.2,1.3v2.4h-0.6v-2.4c0-0.3-0.1-0.5-0.2-0.6
	c-0.1-0.1-0.3-0.2-0.6-0.2c-0.2,0-0.4,0.1-0.5,0.2c-0.2,0.1-0.3,0.2-0.4,0.4v2.6h-0.6v-3.7H101.8z"/>
<path class="st1" d="M104.9,42.2c0-0.4,0.1-0.7,0.2-1c0.1-0.3,0.3-0.5,0.6-0.7c0.3-0.2,0.5-0.2,0.9-0.2c0.5,0,0.9,0.2,1.2,0.5
	c0.3,0.3,0.5,0.8,0.5,1.4v0c0,0.4-0.1,0.7-0.2,1c-0.1,0.3-0.3,0.5-0.6,0.7c-0.3,0.2-0.5,0.2-0.9,0.2c-0.5,0-0.9-0.2-1.2-0.5
	C105,43.3,104.9,42.8,104.9,42.2L104.9,42.2z M105.5,42.3c0,0.4,0.1,0.7,0.3,1c0.2,0.2,0.4,0.4,0.8,0.4c0.3,0,0.6-0.1,0.8-0.4
	c0.2-0.2,0.3-0.6,0.3-1c0-0.4-0.1-0.7-0.3-1c-0.2-0.2-0.4-0.4-0.8-0.4c-0.3,0-0.6,0.1-0.7,0.4C105.6,41.5,105.5,41.8,105.5,42.3z"/>
<path class="st1" d="M112.2,43.2l0.7-2.8h0.6l-1.1,3.7H112l-0.9-2.8l-0.9,2.8h-0.5l-1.1-3.7h0.6l0.7,2.7l0.9-2.7h0.5L112.2,43.2z"/>
<path class="st1" d="M114.8,40.4l0,0.5c0.3-0.4,0.6-0.5,1.1-0.5c0.8,0,1.2,0.4,1.2,1.3v2.4h-0.6v-2.4c0-0.3-0.1-0.5-0.2-0.6
	c-0.1-0.1-0.3-0.2-0.6-0.2c-0.2,0-0.4,0.1-0.5,0.2c-0.2,0.1-0.3,0.2-0.4,0.4v2.6h-0.6v-3.7H114.8z"/>
<path class="st1" d="M120.5,42.2v1.9h-0.6v-4.9h1.8c0.5,0,1,0.1,1.3,0.4c0.3,0.3,0.5,0.6,0.5,1.1c0,0.5-0.2,0.8-0.4,1.1
	c-0.3,0.3-0.7,0.4-1.3,0.4H120.5z M120.5,41.6h1.2c0.3,0,0.6-0.1,0.8-0.2c0.2-0.2,0.3-0.4,0.3-0.7c0-0.3-0.1-0.5-0.3-0.7
	c-0.2-0.2-0.4-0.3-0.8-0.3h-1.2V41.6z"/>
<path class="st1" d="M125.8,41c-0.1,0-0.2,0-0.3,0c-0.4,0-0.7,0.2-0.8,0.5v2.6h-0.6v-3.7h0.6l0,0.4c0.2-0.3,0.5-0.5,0.9-0.5
	c0.1,0,0.2,0,0.3,0V41z"/>
<path class="st1" d="M127.1,44.1h-0.6v-3.7h0.6V44.1z M126.4,39.5c0-0.1,0-0.2,0.1-0.3c0.1-0.1,0.2-0.1,0.3-0.1c0.1,0,0.2,0,0.3,0.1
	c0.1,0.1,0.1,0.2,0.1,0.3c0,0.1,0,0.2-0.1,0.3c-0.1,0.1-0.2,0.1-0.3,0.1c-0.1,0-0.2,0-0.3-0.1C126.4,39.6,126.4,39.6,126.4,39.5z"/>
<path class="st1" d="M128.7,40.4l0,0.5c0.3-0.4,0.6-0.5,1.1-0.5c0.8,0,1.2,0.4,1.2,1.3v2.4h-0.6v-2.4c0-0.3-0.1-0.5-0.2-0.6
	c-0.1-0.1-0.3-0.2-0.6-0.2c-0.2,0-0.4,0.1-0.5,0.2c-0.2,0.1-0.3,0.2-0.4,0.4v2.6h-0.6v-3.7H128.7z"/>
<path class="st1" d="M132.8,39.5v0.9h0.7v0.5h-0.7v2.3c0,0.1,0,0.3,0.1,0.3c0.1,0.1,0.2,0.1,0.3,0.1c0.1,0,0.2,0,0.3,0v0.5
	c-0.2,0-0.3,0.1-0.5,0.1c-0.3,0-0.5-0.1-0.6-0.3c-0.1-0.2-0.2-0.4-0.2-0.7v-2.3h-0.7v-0.5h0.7v-0.9H132.8z"/>
<path class="st1" d="M135.7,44.1c-0.5,0-0.9-0.2-1.2-0.5c-0.3-0.3-0.5-0.8-0.5-1.3v-0.1c0-0.4,0.1-0.7,0.2-1
	c0.1-0.3,0.3-0.5,0.6-0.7c0.2-0.2,0.5-0.2,0.8-0.2c0.5,0,0.8,0.2,1.1,0.5c0.3,0.3,0.4,0.8,0.4,1.3v0.3h-2.5c0,0.4,0.1,0.7,0.3,0.9
	c0.2,0.2,0.5,0.3,0.8,0.3c0.2,0,0.4,0,0.6-0.1c0.2-0.1,0.3-0.2,0.4-0.4l0.4,0.3C136.8,43.9,136.3,44.1,135.7,44.1z M135.6,40.9
	c-0.3,0-0.5,0.1-0.6,0.3c-0.2,0.2-0.3,0.4-0.3,0.8h1.8v0c0-0.3-0.1-0.6-0.3-0.7C136.1,41,135.9,40.9,135.6,40.9z"/>
<path class="st1" d="M139.6,41c-0.1,0-0.2,0-0.3,0c-0.4,0-0.7,0.2-0.8,0.5v2.6h-0.6v-3.7h0.6l0,0.4c0.2-0.3,0.5-0.5,0.9-0.5
	c0.1,0,0.2,0,0.3,0V41z"/>
<path class="st1" d="M145.2,39.7h-1.6v4.4H143v-4.4h-1.6v-0.5h3.8V39.7z"/>
<path class="st1" d="M145.4,42.2c0-0.4,0.1-0.7,0.2-1c0.1-0.3,0.3-0.5,0.6-0.7c0.3-0.2,0.5-0.2,0.9-0.2c0.5,0,0.9,0.2,1.2,0.5
	c0.3,0.3,0.5,0.8,0.5,1.4v0c0,0.4-0.1,0.7-0.2,1c-0.1,0.3-0.3,0.5-0.6,0.7c-0.3,0.2-0.5,0.2-0.9,0.2c-0.5,0-0.9-0.2-1.2-0.5
	C145.5,43.3,145.4,42.8,145.4,42.2L145.4,42.2z M146,42.3c0,0.4,0.1,0.7,0.3,1c0.2,0.2,0.4,0.4,0.8,0.4c0.3,0,0.6-0.1,0.8-0.4
	c0.2-0.2,0.3-0.6,0.3-1c0-0.4-0.1-0.7-0.3-1c-0.2-0.2-0.4-0.4-0.8-0.4c-0.3,0-0.6,0.1-0.7,0.4C146.1,41.5,146,41.8,146,42.3z"/>
<path class="st1" d="M149.3,42.2c0-0.4,0.1-0.7,0.2-1c0.1-0.3,0.3-0.5,0.6-0.7c0.3-0.2,0.5-0.2,0.9-0.2c0.5,0,0.9,0.2,1.2,0.5
	c0.3,0.3,0.5,0.8,0.5,1.4v0c0,0.4-0.1,0.7-0.2,1c-0.1,0.3-0.3,0.5-0.6,0.7c-0.3,0.2-0.5,0.2-0.9,0.2c-0.5,0-0.9-0.2-1.2-0.5
	C149.5,43.3,149.3,42.8,149.3,42.2L149.3,42.2z M149.9,42.3c0,0.4,0.1,0.7,0.3,1c0.2,0.2,0.4,0.4,0.8,0.4c0.3,0,0.6-0.1,0.8-0.4
	c0.2-0.2,0.3-0.6,0.3-1c0-0.4-0.1-0.7-0.3-1c-0.2-0.2-0.4-0.4-0.8-0.4c-0.3,0-0.6,0.1-0.7,0.4C150,41.5,149.9,41.8,149.9,42.3z"/>
<path class="st1" d="M154.4,42.4l-0.4,0.4v1.3h-0.6v-5.2h0.6V42l0.3-0.4l1.1-1.2h0.8l-1.4,1.5l1.6,2.1h-0.7L154.4,42.4z"/>
<path class="st1" d="M161.4,42.8h-2.1l-0.5,1.3h-0.7l1.9-4.9h0.6l1.9,4.9h-0.7L161.4,42.8z M159.6,42.3h1.7l-0.8-2.3L159.6,42.3z"/>
<path class="st1" d="M168.6,43.4c-0.2,0.2-0.4,0.4-0.7,0.5c-0.3,0.1-0.6,0.2-1,0.2c-0.4,0-0.8-0.1-1.1-0.3c-0.3-0.2-0.6-0.5-0.7-0.8
	c-0.2-0.3-0.3-0.7-0.3-1.2v-0.4c0-0.7,0.2-1.3,0.5-1.7c0.3-0.4,0.8-0.6,1.5-0.6c0.5,0,0.9,0.1,1.2,0.4c0.3,0.3,0.5,0.6,0.6,1.1h-0.6
	c-0.1-0.7-0.5-1-1.2-1c-0.4,0-0.8,0.2-1,0.5c-0.2,0.3-0.3,0.7-0.3,1.3v0.4c0,0.6,0.1,1,0.4,1.3c0.3,0.3,0.6,0.5,1,0.5
	c0.2,0,0.5,0,0.6-0.1c0.2-0.1,0.3-0.1,0.5-0.3v-1.1h-1.1v-0.5h1.8V43.4z"/>
<path class="st1" d="M171.8,44.1c0-0.1-0.1-0.2-0.1-0.4c-0.3,0.3-0.6,0.5-1,0.5c-0.4,0-0.7-0.1-0.9-0.3c-0.2-0.2-0.3-0.5-0.3-0.8
	c0-0.4,0.1-0.7,0.4-0.9c0.3-0.2,0.7-0.3,1.2-0.3h0.6v-0.3c0-0.2-0.1-0.4-0.2-0.5c-0.1-0.1-0.3-0.2-0.6-0.2c-0.2,0-0.4,0.1-0.6,0.2
	c-0.2,0.1-0.2,0.2-0.2,0.4h-0.6c0-0.2,0.1-0.4,0.2-0.5c0.1-0.2,0.3-0.3,0.5-0.4c0.2-0.1,0.5-0.1,0.7-0.1c0.4,0,0.8,0.1,1,0.3
	c0.2,0.2,0.4,0.5,0.4,0.9v1.7c0,0.3,0,0.6,0.1,0.8v0.1H171.8z M170.8,43.6c0.2,0,0.4-0.1,0.6-0.2c0.2-0.1,0.3-0.2,0.4-0.4v-0.7h-0.5
	c-0.8,0-1.1,0.2-1.1,0.7c0,0.2,0.1,0.3,0.2,0.5S170.6,43.6,170.8,43.6z"/>
<path class="st1" d="M174,44.1h-0.6v-5.2h0.6V44.1z"/>
<path class="st1" d="M175.7,44.1h-0.6v-5.2h0.6V44.1z"/>
<path class="st1" d="M178.2,44.1c-0.5,0-0.9-0.2-1.2-0.5c-0.3-0.3-0.5-0.8-0.5-1.3v-0.1c0-0.4,0.1-0.7,0.2-1
	c0.1-0.3,0.3-0.5,0.6-0.7c0.2-0.2,0.5-0.2,0.8-0.2c0.5,0,0.8,0.2,1.1,0.5c0.3,0.3,0.4,0.8,0.4,1.3v0.3h-2.5c0,0.4,0.1,0.7,0.3,0.9
	c0.2,0.2,0.5,0.3,0.8,0.3c0.2,0,0.4,0,0.6-0.1c0.2-0.1,0.3-0.2,0.4-0.4l0.4,0.3C179.3,43.9,178.8,44.1,178.2,44.1z M178.1,40.9
	c-0.3,0-0.5,0.1-0.6,0.3c-0.2,0.2-0.3,0.4-0.3,0.8h1.8v0c0-0.3-0.1-0.6-0.3-0.7C178.6,41,178.4,40.9,178.1,40.9z"/>
<path class="st1" d="M181.5,43.2l0.9-2.7h0.7l-1.5,4.2c-0.2,0.6-0.6,0.9-1.1,0.9l-0.1,0l-0.2,0V45l0.2,0c0.2,0,0.4,0,0.5-0.1
	c0.1-0.1,0.2-0.2,0.3-0.5l0.1-0.4l-1.3-3.6h0.7L181.5,43.2z"/>
<path class="st1" d="M189.2,41.8c0,0.5-0.1,0.9-0.2,1.3c-0.2,0.4-0.4,0.6-0.7,0.8c-0.3,0.2-0.6,0.3-1,0.3c-0.4,0-0.7-0.1-1-0.3
	c-0.3-0.2-0.5-0.5-0.7-0.8c-0.2-0.4-0.2-0.8-0.3-1.2v-0.4c0-0.5,0.1-0.9,0.2-1.3c0.2-0.4,0.4-0.6,0.7-0.8c0.3-0.2,0.6-0.3,1-0.3
	c0.4,0,0.7,0.1,1,0.3c0.3,0.2,0.5,0.5,0.7,0.8c0.2,0.4,0.2,0.8,0.2,1.3V41.8z M188.5,41.5c0-0.6-0.1-1-0.4-1.3
	c-0.2-0.3-0.6-0.5-1-0.5c-0.4,0-0.7,0.2-1,0.5c-0.2,0.3-0.4,0.7-0.4,1.3v0.4c0,0.6,0.1,1,0.4,1.3c0.2,0.3,0.6,0.5,1,0.5
	c0.4,0,0.7-0.2,1-0.5c0.2-0.3,0.3-0.7,0.4-1.3V41.5z"/>
<path class="st1" d="M190.4,44.1v-3.2h-0.6v-0.5h0.6v-0.4c0-0.4,0.1-0.7,0.3-0.9c0.2-0.2,0.5-0.3,0.9-0.3c0.1,0,0.3,0,0.4,0.1l0,0.5
	c-0.1,0-0.2,0-0.3,0c-0.2,0-0.4,0.1-0.5,0.2c-0.1,0.1-0.2,0.3-0.2,0.5v0.4h0.8v0.5H191v3.2H190.4z"/>
<path class="st1" d="M197.5,39.7h-1.6v4.4h-0.6v-4.4h-1.6v-0.5h3.8V39.7z"/>
<path class="st1" d="M199.1,43.2l0.9-2.7h0.7l-1.5,4.2c-0.2,0.6-0.6,0.9-1.1,0.9l-0.1,0l-0.2,0V45l0.2,0c0.2,0,0.4,0,0.5-0.1
	c0.1-0.1,0.2-0.2,0.3-0.5l0.1-0.4l-1.3-3.6h0.7L199.1,43.2z"/>
<path class="st1" d="M204.3,42.3c0,0.6-0.1,1-0.4,1.3c-0.3,0.3-0.6,0.5-1,0.5c-0.4,0-0.8-0.1-1-0.4v1.8h-0.6v-5.1h0.6l0,0.4
	c0.3-0.3,0.6-0.5,1.1-0.5c0.4,0,0.8,0.2,1,0.5C204.1,41.2,204.3,41.7,204.3,42.3L204.3,42.3z M203.6,42.2c0-0.4-0.1-0.7-0.3-1
	c-0.2-0.2-0.4-0.4-0.7-0.4c-0.4,0-0.7,0.2-0.9,0.5v1.7c0.2,0.3,0.5,0.5,0.9,0.5c0.3,0,0.5-0.1,0.7-0.4
	C203.6,43,203.6,42.7,203.6,42.2z"/>
<path class="st1" d="M206.6,44.1c-0.5,0-0.9-0.2-1.2-0.5c-0.3-0.3-0.5-0.8-0.5-1.3v-0.1c0-0.4,0.1-0.7,0.2-1
	c0.1-0.3,0.3-0.5,0.6-0.7c0.2-0.2,0.5-0.2,0.8-0.2c0.5,0,0.8,0.2,1.1,0.5c0.3,0.3,0.4,0.8,0.4,1.3v0.3h-2.5c0,0.4,0.1,0.7,0.3,0.9
	c0.2,0.2,0.5,0.3,0.8,0.3c0.2,0,0.4,0,0.6-0.1c0.2-0.1,0.3-0.2,0.4-0.4l0.4,0.3C207.6,43.9,207.2,44.1,206.6,44.1z M206.5,40.9
	c-0.3,0-0.5,0.1-0.6,0.3c-0.2,0.2-0.3,0.4-0.3,0.8h1.8v0c0-0.3-0.1-0.6-0.3-0.7C207,41,206.8,40.9,206.5,40.9z"/>
<path class="st1" d="M213.3,42.8h-2.1l-0.5,1.3h-0.7l1.9-4.9h0.6l1.9,4.9h-0.7L213.3,42.8z M211.4,42.3h1.7l-0.8-2.3L211.4,42.3z"/>
<path class="st1" d="M215.5,40.4l0,0.5c0.3-0.4,0.6-0.5,1.1-0.5c0.8,0,1.2,0.4,1.2,1.3v2.4h-0.6v-2.4c0-0.3-0.1-0.5-0.2-0.6
	c-0.1-0.1-0.3-0.2-0.6-0.2c-0.2,0-0.4,0.1-0.5,0.2c-0.2,0.1-0.3,0.2-0.4,0.4v2.6H215v-3.7H215.5z"/>
<path class="st1" d="M218.6,42.2c0-0.6,0.1-1,0.4-1.3c0.3-0.3,0.6-0.5,1-0.5c0.4,0,0.8,0.1,1,0.4v-1.9h0.6v5.2h-0.6l0-0.4
	c-0.2,0.3-0.6,0.5-1,0.5c-0.4,0-0.8-0.2-1-0.5C218.7,43.3,218.6,42.8,218.6,42.2L218.6,42.2z M219.2,42.3c0,0.4,0.1,0.7,0.3,1
	c0.2,0.2,0.4,0.4,0.7,0.4c0.4,0,0.7-0.2,0.9-0.5v-1.7c-0.2-0.3-0.5-0.5-0.9-0.5c-0.3,0-0.5,0.1-0.7,0.4
	C219.3,41.5,219.2,41.8,219.2,42.3z"/>
<path class="st1" d="M225.9,41.9c-0.6-0.2-1-0.4-1.2-0.6c-0.3-0.2-0.4-0.5-0.4-0.9c0-0.4,0.2-0.7,0.5-1c0.3-0.3,0.7-0.4,1.2-0.4
	c0.3,0,0.6,0.1,0.9,0.2c0.3,0.1,0.5,0.3,0.6,0.5c0.1,0.2,0.2,0.5,0.2,0.8h-0.7c0-0.3-0.1-0.5-0.3-0.7c-0.2-0.2-0.5-0.3-0.8-0.3
	c-0.3,0-0.6,0.1-0.7,0.2c-0.2,0.1-0.3,0.3-0.3,0.6c0,0.2,0.1,0.4,0.3,0.5c0.2,0.1,0.5,0.3,0.9,0.4c0.4,0.1,0.7,0.2,1,0.4
	c0.2,0.1,0.4,0.3,0.5,0.5c0.1,0.2,0.2,0.4,0.2,0.7c0,0.4-0.2,0.7-0.5,1c-0.3,0.2-0.7,0.4-1.2,0.4c-0.3,0-0.7-0.1-0.9-0.2
	c-0.3-0.1-0.5-0.3-0.7-0.5c-0.2-0.2-0.2-0.5-0.2-0.8h0.7c0,0.3,0.1,0.5,0.3,0.7c0.2,0.2,0.5,0.3,0.9,0.3c0.3,0,0.6-0.1,0.8-0.2
	c0.2-0.1,0.3-0.3,0.3-0.6c0-0.2-0.1-0.4-0.3-0.6C226.7,42.2,226.4,42,225.9,41.9z"/>
<path class="st1" d="M229.9,43.6c0.2,0,0.4-0.1,0.6-0.2c0.2-0.1,0.3-0.3,0.3-0.5h0.6c0,0.2-0.1,0.4-0.2,0.6
	c-0.1,0.2-0.3,0.3-0.5,0.5c-0.2,0.1-0.5,0.2-0.7,0.2c-0.5,0-0.9-0.2-1.2-0.5c-0.3-0.3-0.4-0.8-0.4-1.4v-0.1c0-0.4,0.1-0.7,0.2-0.9
	c0.1-0.3,0.3-0.5,0.6-0.6c0.2-0.2,0.5-0.2,0.9-0.2c0.4,0,0.7,0.1,1,0.4c0.3,0.2,0.4,0.6,0.4,1h-0.6c0-0.2-0.1-0.4-0.3-0.6
	c-0.2-0.2-0.4-0.2-0.6-0.2c-0.3,0-0.6,0.1-0.7,0.3c-0.2,0.2-0.3,0.6-0.3,1v0.1c0,0.4,0.1,0.7,0.3,1S229.6,43.6,229.9,43.6z"/>
<path class="st1" d="M233.9,41c-0.1,0-0.2,0-0.3,0c-0.4,0-0.7,0.2-0.8,0.5v2.6h-0.6v-3.7h0.6l0,0.4c0.2-0.3,0.5-0.5,0.9-0.5
	c0.1,0,0.2,0,0.3,0V41z"/>
<path class="st1" d="M236.6,44.1c0-0.1-0.1-0.2-0.1-0.4c-0.3,0.3-0.6,0.5-1,0.5c-0.4,0-0.7-0.1-0.9-0.3c-0.2-0.2-0.3-0.5-0.3-0.8
	c0-0.4,0.1-0.7,0.4-0.9c0.3-0.2,0.7-0.3,1.2-0.3h0.6v-0.3c0-0.2-0.1-0.4-0.2-0.5c-0.1-0.1-0.3-0.2-0.6-0.2c-0.2,0-0.4,0.1-0.6,0.2
	c-0.2,0.1-0.2,0.2-0.2,0.4h-0.6c0-0.2,0.1-0.4,0.2-0.5c0.1-0.2,0.3-0.3,0.5-0.4c0.2-0.1,0.5-0.1,0.7-0.1c0.4,0,0.8,0.1,1,0.3
	c0.2,0.2,0.4,0.5,0.4,0.9v1.7c0,0.3,0,0.6,0.1,0.8v0.1H236.6z M235.5,43.6c0.2,0,0.4-0.1,0.6-0.2c0.2-0.1,0.3-0.2,0.4-0.4v-0.7H236
	c-0.8,0-1.1,0.2-1.1,0.7c0,0.2,0.1,0.3,0.2,0.5C235.2,43.6,235.3,43.6,235.5,43.6z"/>
<path class="st1" d="M238.7,40.4l0,0.4c0.3-0.3,0.6-0.5,1.1-0.5c0.5,0,0.9,0.2,1,0.6c0.1-0.2,0.3-0.3,0.5-0.4
	c0.2-0.1,0.4-0.2,0.7-0.2c0.8,0,1.2,0.4,1.2,1.3v2.4h-0.6v-2.4c0-0.3-0.1-0.5-0.2-0.6c-0.1-0.1-0.3-0.2-0.6-0.2
	c-0.2,0-0.4,0.1-0.6,0.2c-0.2,0.1-0.2,0.3-0.3,0.6v2.4h-0.6v-2.4c0-0.5-0.3-0.8-0.8-0.8c-0.4,0-0.7,0.2-0.8,0.5v2.7h-0.6v-3.7H238.7
	z"/>
<path class="st1" d="M247.2,42.3c0,0.6-0.1,1-0.4,1.3c-0.3,0.3-0.6,0.5-1,0.5c-0.5,0-0.8-0.2-1.1-0.5l0,0.4h-0.6v-5.2h0.6v1.9
	c0.3-0.3,0.6-0.5,1-0.5c0.4,0,0.8,0.2,1,0.5C247.1,41.2,247.2,41.7,247.2,42.3L247.2,42.3z M246.6,42.2c0-0.4-0.1-0.8-0.2-1
	s-0.4-0.3-0.7-0.3c-0.4,0-0.7,0.2-0.9,0.6V43c0.2,0.4,0.5,0.6,0.9,0.6c0.3,0,0.5-0.1,0.7-0.3C246.5,43,246.6,42.7,246.6,42.2z"/>
<path class="st1" d="M248.7,44.1h-0.6v-5.2h0.6V44.1z"/>
<path class="st1" d="M251.2,44.1c-0.5,0-0.9-0.2-1.2-0.5c-0.3-0.3-0.5-0.8-0.5-1.3v-0.1c0-0.4,0.1-0.7,0.2-1
	c0.1-0.3,0.3-0.5,0.6-0.7c0.2-0.2,0.5-0.2,0.8-0.2c0.5,0,0.8,0.2,1.1,0.5c0.3,0.3,0.4,0.8,0.4,1.3v0.3h-2.5c0,0.4,0.1,0.7,0.3,0.9
	c0.2,0.2,0.5,0.3,0.8,0.3c0.2,0,0.4,0,0.6-0.1c0.2-0.1,0.3-0.2,0.4-0.4l0.4,0.3C252.3,43.9,251.8,44.1,251.2,44.1z M251.1,40.9
	c-0.3,0-0.5,0.1-0.6,0.3c-0.2,0.2-0.3,0.4-0.3,0.8h1.8v0c0-0.3-0.1-0.6-0.3-0.7C251.6,41,251.4,40.9,251.1,40.9z"/>
<path class="st1" d="M253.2,42.2c0-0.6,0.1-1,0.4-1.3c0.3-0.3,0.6-0.5,1-0.5c0.4,0,0.8,0.1,1,0.4v-1.9h0.6v5.2h-0.6l0-0.4
	c-0.2,0.3-0.6,0.5-1,0.5c-0.4,0-0.8-0.2-1-0.5C253.3,43.3,253.2,42.8,253.2,42.2L253.2,42.2z M253.8,42.3c0,0.4,0.1,0.7,0.3,1
	c0.2,0.2,0.4,0.4,0.7,0.4c0.4,0,0.7-0.2,0.9-0.5v-1.7c-0.2-0.3-0.5-0.5-0.9-0.5c-0.3,0-0.5,0.1-0.7,0.4
	C253.9,41.5,253.8,41.8,253.8,42.3z"/>
<path class="st1" d="M258.5,43.2l0.9-2.8h0.6l-1.3,3.7h-0.5l-1.3-3.7h0.6L258.5,43.2z"/>
<g>
	<defs>
		<path id="SVGID_1_" d="M27,61h76c3.3,0,6,2.7,6,6v69c0,3.3-2.7,6-6,6H27c-3.3,0-6-2.7-6-6V67C21,63.7,23.7,61,27,61z"/>
	</defs>
	<clipPath id="SVGID_2_">
		<use xlink:href="#SVGID_1_"  style="overflow:visible;"/>
	</clipPath>
	<g style="clip-path:url(#SVGID_2_);">
		
			<image style="overflow:visible;" width="89" height="82" xlink:href="../../../Rectangle 218-2.png"  transform="matrix(1 0 0 1 20.5 60.5)">
		</image>
	</g>
</g>
<g>
	<defs>
		<path id="SVGID_3_" d="M122,61h76c3.3,0,6,2.7,6,6v69c0,3.3-2.7,6-6,6h-76c-3.3,0-6-2.7-6-6V67C116,63.7,118.7,61,122,61z"/>
	</defs>
	<clipPath id="SVGID_4_">
		<use xlink:href="#SVGID_3_"  style="overflow:visible;"/>
	</clipPath>
	<g style="clip-path:url(#SVGID_4_);">
		
			<image style="overflow:visible;" width="90" height="82" xlink:href="../../../Rectangle 218-1.png"  transform="matrix(1 0 0 1 115 60.5)">
		</image>
	</g>
</g>
<g>
	<defs>
		<path id="SVGID_5_" d="M217,61h76c3.3,0,6,2.7,6,6v69c0,3.3-2.7,6-6,6h-76c-3.3,0-6-2.7-6-6V67C211,63.7,213.7,61,217,61z"/>
	</defs>
	<clipPath id="SVGID_6_">
		<use xlink:href="#SVGID_5_"  style="overflow:visible;"/>
	</clipPath>
	<g style="clip-path:url(#SVGID_6_);">
		
			<image style="overflow:visible;" width="89" height="82" xlink:href="../../../Rectangle 218.png"  transform="matrix(1 0 0 1 210.5 60.5)">
		</image>
	</g>
</g>
</svg>
