<?xml version="1.0" encoding="utf-8"?>
<!-- Generator: Adobe Illustrator 25.2.1, SVG Export Plug-In . SVG Version: 6.00 Build 0)  -->
<svg version="1.1" id="Layer_1" xmlns="http://www.w3.org/2000/svg" xmlns:xlink="http://www.w3.org/1999/xlink" x="0px" y="0px"
	 viewBox="0 0 145 110" style="enable-background:new 0 0 145 110;" xml:space="preserve">
<style type="text/css">
	.st0{fill:#EFEFEF;}
	.st1{fill:#FFFFFF;}
	.st2{fill:#B4B7C1;}
	.st3{fill:#0066FF;}
</style>
<g>
	<rect class="st0" width="145" height="110"/>
</g>
<g>
	<g>
		<path class="st1" d="M15,71.4V38.6c0-4.2,3.5-7.7,7.7-7.7h99.6c4.2,0,7.7,3.5,7.7,7.7v32.8c0,4.2-3.4,7.7-7.7,7.7H22.7
			C18.5,79.1,15,75.6,15,71.4z"/>
	</g>
</g>
<g>
	<g>
		<path class="st2" d="M110.8,68.5H34.2c-0.8,0-1.5-0.7-1.5-1.5l0,0c0-0.8,0.7-1.5,1.5-1.5h76.6c0.8,0,1.5,0.7,1.5,1.5l0,0
			C112.3,67.8,111.6,68.5,110.8,68.5z"/>
	</g>
</g>
<g>
	<g>
		<path class="st3" d="M79.4,41.5c-2.3,0-4.6,0-6.9,0s-4.6,0-6.9,0c-1.1,0-1.6,0.6-1.6,1.6c0,3.1,0,6.2,0,9.3c0,1.1,0.6,1.6,1.7,1.6
			c1.4,0,2.9,0,4.3,0c0.3,0,0.3,0.1,0.3,0.4c-0.1,0.4-0.3,0.7-0.4,1.1c-0.2,0.5,0,0.8,0.5,0.8c1.5,0,3,0,4.5,0
			c0.5,0,0.8-0.4,0.5-0.9c-0.2-0.4-0.3-0.7-0.4-1.1c-0.1-0.3,0-0.3,0.3-0.3c1.5,0,2.9,0,4.4,0c1.1,0,1.6-0.6,1.6-1.6
			c0-3.1,0-6.2,0-9.3C81.1,42.1,80.5,41.5,79.4,41.5z M79.4,50.7c-2.3,0-4.6,0-6.9,0c-2.3,0-4.6,0-6.9,0c-0.5,0-0.5-0.1-0.5-0.5
			c0-2.3,0-4.6,0-7c0-0.4,0.1-0.5,0.5-0.5c4.6,0,9.2,0,13.9,0c0.4,0,0.5,0.1,0.5,0.5c0,2.3,0,4.6,0,7C79.9,50.6,79.9,50.7,79.4,50.7
			z"/>
		<path class="st3" d="M79.4,41.5c-2.3,0-4.6,0-6.9,0s-4.6,0-6.9,0c-1.1,0-1.6,0.6-1.6,1.6c0,3.1,0,6.2,0,9.3c0,1.1,0.6,1.6,1.7,1.6
			c1.4,0,2.9,0,4.3,0c0.3,0,0.3,0.1,0.3,0.4c-0.1,0.4-0.3,0.7-0.4,1.1c-0.2,0.5,0,0.8,0.5,0.8c1.5,0,3,0,4.5,0
			c0.5,0,0.8-0.4,0.5-0.9c-0.2-0.4-0.3-0.7-0.4-1.1c-0.1-0.3,0-0.3,0.3-0.3c1.5,0,2.9,0,4.4,0c1.1,0,1.6-0.6,1.6-1.6
			c0-3.1,0-6.2,0-9.3C81.1,42.1,80.5,41.5,79.4,41.5z M79.4,50.7c-2.3,0-4.6,0-6.9,0c-2.3,0-4.6,0-6.9,0c-0.5,0-0.5-0.1-0.5-0.5
			c0-2.3,0-4.6,0-7c0-0.4,0.1-0.5,0.5-0.5c4.6,0,9.2,0,13.9,0c0.4,0,0.5,0.1,0.5,0.5c0,2.3,0,4.6,0,7C79.9,50.6,79.9,50.7,79.4,50.7
			z"/>
	</g>
</g>
</svg>
