<?xml version="1.0" encoding="utf-8"?>
<!-- Generator: Adobe Illustrator 25.2.1, SVG Export Plug-In . SVG Version: 6.00 Build 0)  -->
<svg version="1.1" id="Layer_1" xmlns="http://www.w3.org/2000/svg" xmlns:xlink="http://www.w3.org/1999/xlink" x="0px" y="0px"
	 viewBox="0 0 145 110" style="enable-background:new 0 0 145 110;" xml:space="preserve">
<style type="text/css">
	.st0{fill:#EFEFEF;}
	.st1{fill:#0066FF;}
	.st2{opacity:0.45;}
	.st3{fill:#FFFFFF;}
</style>
<g>
	<rect class="st0" width="145" height="110"/>
</g>
<path class="st1" d="M15,73.5v-37c0-3.1,2.5-5.6,5.6-5.6h103.8c3.1,0,5.6,2.5,5.6,5.6v37c0,3.1-2.5,5.6-5.6,5.6H20.6
	C17.5,79.1,15,76.6,15,73.5z"/>
<g class="st2">
	<g>
		<path class="st3" d="M110.8,67.5H34.2c-0.8,0-1.5-0.7-1.5-1.5l0,0c0-0.8,0.7-1.5,1.5-1.5h76.6c0.8,0,1.5,0.7,1.5,1.5l0,0
			C112.3,66.8,111.6,67.5,110.8,67.5z"/>
	</g>
</g>
<g>
	<g>
		<path class="st3" d="M79.4,42.5c-2.3,0-4.6,0-6.9,0s-4.6,0-6.9,0c-1.1,0-1.6,0.6-1.6,1.6c0,3.1,0,6.2,0,9.3c0,1.1,0.6,1.6,1.7,1.6
			c1.4,0,2.9,0,4.3,0c0.3,0,0.3,0.1,0.3,0.4c-0.1,0.4-0.3,0.7-0.4,1.1c-0.2,0.5,0,0.8,0.5,0.8c1.5,0,3,0,4.5,0
			c0.5,0,0.8-0.4,0.5-0.9c-0.2-0.4-0.3-0.7-0.4-1.1c-0.1-0.3,0-0.3,0.3-0.3c1.5,0,2.9,0,4.4,0c1.1,0,1.6-0.6,1.6-1.6
			c0-3.1,0-6.2,0-9.3C81.1,43.1,80.5,42.5,79.4,42.5z M79.4,51.7c-2.3,0-4.6,0-6.9,0c-2.3,0-4.6,0-6.9,0c-0.5,0-0.5-0.1-0.5-0.5
			c0-2.3,0-4.6,0-7c0-0.4,0.1-0.5,0.5-0.5c4.6,0,9.2,0,13.9,0c0.4,0,0.5,0.1,0.5,0.5c0,2.3,0,4.6,0,7C79.9,51.6,79.9,51.7,79.4,51.7
			z"/>
		<path class="st3" d="M79.4,42.5c-2.3,0-4.6,0-6.9,0s-4.6,0-6.9,0c-1.1,0-1.6,0.6-1.6,1.6c0,3.1,0,6.2,0,9.3c0,1.1,0.6,1.6,1.7,1.6
			c1.4,0,2.9,0,4.3,0c0.3,0,0.3,0.1,0.3,0.4c-0.1,0.4-0.3,0.7-0.4,1.1c-0.2,0.5,0,0.8,0.5,0.8c1.5,0,3,0,4.5,0
			c0.5,0,0.8-0.4,0.5-0.9c-0.2-0.4-0.3-0.7-0.4-1.1c-0.1-0.3,0-0.3,0.3-0.3c1.5,0,2.9,0,4.4,0c1.1,0,1.6-0.6,1.6-1.6
			c0-3.1,0-6.2,0-9.3C81.1,43.1,80.5,42.5,79.4,42.5z M79.4,51.7c-2.3,0-4.6,0-6.9,0c-2.3,0-4.6,0-6.9,0c-0.5,0-0.5-0.1-0.5-0.5
			c0-2.3,0-4.6,0-7c0-0.4,0.1-0.5,0.5-0.5c4.6,0,9.2,0,13.9,0c0.4,0,0.5,0.1,0.5,0.5c0,2.3,0,4.6,0,7C79.9,51.6,79.9,51.7,79.4,51.7
			z"/>
	</g>
</g>
</svg>
