<?xml version="1.0" encoding="utf-8"?>
<!-- Generator: Adobe Illustrator 25.2.1, SVG Export Plug-In . SVG Version: 6.00 Build 0)  -->
<svg version="1.1" id="Layer_1" xmlns="http://www.w3.org/2000/svg" xmlns:xlink="http://www.w3.org/1999/xlink" x="0px" y="0px"
	 viewBox="0 0 145 110" style="enable-background:new 0 0 145 110;" xml:space="preserve">
<style type="text/css">
	.st0{fill:#EFEFEF;}
	.st1{fill:#FFFFFF;}
	.st2{opacity:0.5;}
	.st3{fill:#B4B7C1;}
	.st4{fill:#0066FF;}
</style>
<g>
	<rect class="st0" width="145" height="110"/>
</g>
<path class="st1" d="M15,71.4V38.6c0-4.2,3.5-7.7,7.7-7.7h99.6c4.2,0,7.7,3.5,7.7,7.7v32.8c0,4.2-3.4,7.7-7.7,7.7H22.7
	C18.5,79.1,15,75.6,15,71.4z"/>
<g class="st2">
	<g>
		<path class="st3" d="M110.8,69.6H34.2c-0.8,0-1.5-0.7-1.5-1.5l0,0c0-0.8,0.7-1.5,1.5-1.5h76.6c0.8,0,1.5,0.7,1.5,1.5l0,0
			C112.3,69,111.6,69.6,110.8,69.6z"/>
	</g>
</g>
<circle class="st4" cx="72.1" cy="50.1" r="9.7"/>
<g>
	<path class="st1" d="M76,45.9c-1.3,0-2.6,0-3.9,0s-2.6,0-3.9,0c-0.6,0-0.9,0.3-0.9,0.9c0,1.7,0,3.5,0,5.2c0,0.6,0.3,0.9,0.9,0.9
		c0.8,0,1.6,0,2.4,0c0.2,0,0.2,0.1,0.2,0.2c-0.1,0.2-0.2,0.4-0.2,0.6c-0.1,0.3,0,0.5,0.3,0.5c0.8,0,1.7,0,2.5,0
		c0.3,0,0.4-0.2,0.3-0.5c-0.1-0.2-0.2-0.4-0.2-0.6c0-0.1,0-0.2,0.1-0.2c0.8,0,1.6,0,2.4,0c0.6,0,0.9-0.3,0.9-0.9c0-1.7,0-3.5,0-5.2
		C76.9,46.2,76.6,45.9,76,45.9z M76,51.1c-1.3,0-2.6,0-3.9,0s-2.6,0-3.9,0c-0.3,0-0.3,0-0.3-0.3c0-1.3,0-2.6,0-3.9
		c0-0.2,0-0.3,0.3-0.3c2.6,0,5.2,0,7.8,0c0.2,0,0.3,0,0.3,0.3c0,1.3,0,2.6,0,3.9C76.3,51,76.2,51.1,76,51.1z"/>
	<path class="st1" d="M76,45.9c-1.3,0-2.6,0-3.9,0s-2.6,0-3.9,0c-0.6,0-0.9,0.3-0.9,0.9c0,1.7,0,3.5,0,5.2c0,0.6,0.3,0.9,0.9,0.9
		c0.8,0,1.6,0,2.4,0c0.2,0,0.2,0.1,0.2,0.2c-0.1,0.2-0.2,0.4-0.2,0.6c-0.1,0.3,0,0.5,0.3,0.5c0.8,0,1.7,0,2.5,0
		c0.3,0,0.4-0.2,0.3-0.5c-0.1-0.2-0.2-0.4-0.2-0.6c0-0.1,0-0.2,0.1-0.2c0.8,0,1.6,0,2.4,0c0.6,0,0.9-0.3,0.9-0.9c0-1.7,0-3.5,0-5.2
		C76.9,46.2,76.6,45.9,76,45.9z M76,51.1c-1.3,0-2.6,0-3.9,0s-2.6,0-3.9,0c-0.3,0-0.3,0-0.3-0.3c0-1.3,0-2.6,0-3.9
		c0-0.2,0-0.3,0.3-0.3c2.6,0,5.2,0,7.8,0c0.2,0,0.3,0,0.3,0.3c0,1.3,0,2.6,0,3.9C76.3,51,76.2,51.1,76,51.1z"/>
</g>
</svg>
