<?xml version="1.0" encoding="utf-8"?>
<!-- Generator: Adobe Illustrator 25.2.1, SVG Export Plug-In . SVG Version: 6.00 Build 0)  -->
<svg version="1.1" id="Layer_1" xmlns="http://www.w3.org/2000/svg" xmlns:xlink="http://www.w3.org/1999/xlink" x="0px" y="0px"
	 viewBox="0 0 24 24" style="enable-background:new 0 0 24 24;" xml:space="preserve">
<style type="text/css">
	.st0{fill:url(#SVGID_1_);}
</style>
<g>
	<linearGradient id="SVGID_1_" gradientUnits="userSpaceOnUse" x1="1.562530e-05" y1="12" x2="24" y2="12">
		<stop  offset="0" style="stop-color:#00AFFA"/>
		<stop  offset="1" style="stop-color:#0954C0"/>
	</linearGradient>
	<path class="st0" d="M20.64,24H3.36C1.51,24,0,22.49,0,20.64V3.36C0,1.51,1.51,0,3.36,0h17.28C22.49,0,24,1.51,24,3.36v17.28
		C24,22.49,22.49,24,20.64,24z M3.36,0.96c-1.32,0-2.4,1.08-2.4,2.4v17.28c0,1.32,1.08,2.4,2.4,2.4h17.28c1.32,0,2.4-1.08,2.4-2.4
		V3.36c0-1.32-1.08-2.4-2.4-2.4H3.36z M20.28,16.7L20.28,16.7c0-0.27-0.21-0.48-0.48-0.48H4.2c-0.27,0-0.48,0.21-0.48,0.48v0
		c0,0.27,0.21,0.48,0.48,0.48h15.6C20.07,17.18,20.28,16.96,20.28,16.7z M18.33,19.66L18.33,19.66c0-0.27-0.21-0.48-0.48-0.48H6.15
		c-0.27,0-0.48,0.21-0.48,0.48v0c0,0.27,0.21,0.48,0.48,0.48h11.7C18.12,20.14,18.33,19.93,18.33,19.66z M9.23,13.03
		c-0.09,0-0.18-0.03-0.26-0.08c-0.13-0.1-0.2-0.26-0.17-0.42l0.48-2.81L7.22,7.64C7.1,7.53,7.06,7.35,7.11,7.2
		C7.16,7.04,7.29,6.93,7.46,6.9l2.82-0.41l1.34-2.61c0.07-0.15,0.22-0.24,0.39-0.24c0.17,0,0.31,0.09,0.39,0.24l1.26,2.56l2.9,0.46
		c0.16,0.02,0.3,0.14,0.35,0.29c0.05,0.16,0.01,0.33-0.11,0.44l-2.04,1.99l0.45,2.87l0.01,0.1c0,0.24-0.19,0.43-0.43,0.43
		c-0.07,0-0.14-0.02-0.2-0.05l-2.52-1.33l-2.62,1.33C9.37,13.02,9.3,13.03,9.23,13.03z M12,10.71c0.07,0,0.14,0.02,0.2,0.05l2,1.05
		l-0.38-2.22c-0.02-0.14,0.02-0.28,0.12-0.38l1.61-1.57l-2.23-0.32C13.18,7.29,13.06,7.2,13,7.07l-1-2.02l-1,2.02
		c-0.06,0.13-0.18,0.22-0.33,0.24L8.45,7.63l1.61,1.57c0.1,0.1,0.15,0.24,0.12,0.38L9.8,11.81l1.99-1.05
		C11.86,10.73,11.93,10.71,12,10.71z"/>
</g>
</svg>
