<?xml version="1.0" encoding="utf-8"?>
<!-- Generator: Adobe Illustrator 25.2.1, SVG Export Plug-In . SVG Version: 6.00 Build 0)  -->
<svg version="1.1" id="Layer_1" xmlns="http://www.w3.org/2000/svg" xmlns:xlink="http://www.w3.org/1999/xlink" x="0px" y="0px"
	 viewBox="0 0 320 160" style="enable-background:new 0 0 320 160;" xml:space="preserve">
<style type="text/css">
	.st0{fill:#FFFFFF;}
	.st1{fill:#FFFFFF;stroke:#E5E5E5;stroke-miterlimit:10;}
	.st2{fill:#3A3A3A;}
	.st3{fill:#0066FF;}
</style>
<rect class="st0" width="320" height="160"/>
<rect class="st0" width="320" height="160"/>
<path class="st1" d="M33.4,24.9c0-5,3.1-9.1,7-9.1h239.2c3.8,0,7,4.1,7,9.1v110.1c0,5-3.1,9.1-7,9.1H40.4c-3.8,0-7-4.1-7-9.1
	C33.4,135.1,33.4,24.9,33.4,24.9z"/>
<g>
	<g>
		<path class="st2" d="M66.9,108.9l-2.8-4.3h-1.5v4.3h-1.4V98.3h3.5c1.2,0,2.1,0.3,2.7,0.9c0.6,0.6,0.9,1.3,0.9,2.3
			c0,0.9-0.2,1.6-0.7,2.1c-0.5,0.5-1.2,0.9-2.1,1l2.9,4.4H66.9z M62.6,103.6h2c1.5,0,2.3-0.7,2.3-2c0-1.4-0.8-2-2.3-2h-2V103.6z"/>
		<path class="st2" d="M75.4,101.2c0.6,0.4,0.9,0.9,1.2,1.6v-2.1h1.4v8.2h-1.4v-2.1c-0.2,0.7-0.6,1.2-1.2,1.6
			c-0.6,0.4-1.2,0.6-2,0.6c-0.7,0-1.4-0.2-2-0.5c-0.6-0.3-1-0.8-1.3-1.5c-0.3-0.6-0.5-1.4-0.5-2.2c0-0.9,0.2-1.6,0.5-2.2
			c0.3-0.6,0.8-1.1,1.3-1.5s1.2-0.5,2-0.5C74.2,100.6,74.8,100.8,75.4,101.2z M71.7,102.6c-0.5,0.5-0.8,1.3-0.8,2.2
			c0,0.9,0.3,1.7,0.8,2.2s1.2,0.8,2,0.8c0.5,0,1-0.1,1.4-0.4c0.4-0.2,0.8-0.6,1-1.1c0.2-0.5,0.4-1,0.4-1.6c0-0.6-0.1-1.1-0.4-1.6
			c-0.2-0.5-0.6-0.8-1-1.1c-0.4-0.2-0.9-0.4-1.4-0.4C72.9,101.8,72.2,102.1,71.7,102.6z"/>
		<path class="st2" d="M85.5,101.2c0.6,0.4,0.9,0.9,1.2,1.6v-5H88v11.1h-1.4v-2.1c-0.2,0.7-0.6,1.2-1.2,1.6c-0.6,0.4-1.2,0.6-2,0.6
			c-0.7,0-1.4-0.2-2-0.5c-0.6-0.3-1-0.8-1.3-1.5c-0.3-0.6-0.5-1.4-0.5-2.2c0-0.9,0.2-1.6,0.5-2.2c0.3-0.6,0.8-1.1,1.3-1.5
			s1.2-0.5,2-0.5C84.3,100.6,85,100.8,85.5,101.2z M81.9,102.6c-0.5,0.5-0.8,1.3-0.8,2.2c0,0.9,0.3,1.7,0.8,2.2s1.2,0.8,2,0.8
			c0.5,0,1-0.1,1.4-0.4c0.4-0.2,0.8-0.6,1-1.1c0.2-0.5,0.4-1,0.4-1.6c0-0.6-0.1-1.1-0.4-1.6c-0.2-0.5-0.6-0.8-1-1.1
			c-0.4-0.2-0.9-0.4-1.4-0.4C83,101.8,82.4,102.1,81.9,102.6z"/>
		<path class="st2" d="M90.2,97.7c0.2-0.2,0.4-0.2,0.7-0.2c0.3,0,0.5,0.1,0.7,0.2c0.2,0.2,0.3,0.4,0.3,0.6c0,0.2-0.1,0.5-0.3,0.6
			c-0.2,0.2-0.4,0.2-0.7,0.2c-0.3,0-0.5-0.1-0.7-0.2c-0.2-0.2-0.3-0.4-0.3-0.6C90,98,90.1,97.8,90.2,97.7z M91.6,100.7v8.2h-1.4
			v-8.2H91.6z"/>
		<path class="st2" d="M101.1,100.7v8.2h-1.4V107c-0.2,0.7-0.6,1.2-1.1,1.5c-0.5,0.4-1.2,0.5-1.9,0.5c-1,0-1.7-0.3-2.3-0.9
			c-0.6-0.6-0.9-1.5-0.9-2.6v-4.8h1.4v4.7c0,0.8,0.2,1.5,0.6,1.9c0.4,0.4,1,0.7,1.7,0.7c0.8,0,1.3-0.2,1.8-0.7s0.7-1.2,0.7-2.1v-4.4
			H101.1z"/>
		<path class="st2" d="M108.1,101.3c0.6,0.5,0.9,1.1,1,2h-1.3c-0.1-0.5-0.3-0.9-0.6-1.2c-0.3-0.3-0.8-0.5-1.4-0.5
			c-0.5,0-0.9,0.1-1.1,0.4c-0.3,0.2-0.4,0.6-0.4,1c0,0.3,0.1,0.5,0.3,0.7c0.2,0.2,0.4,0.3,0.7,0.4c0.3,0.1,0.7,0.2,1.1,0.3
			c0.6,0.1,1.1,0.3,1.5,0.4c0.4,0.1,0.7,0.4,1,0.7c0.3,0.3,0.4,0.8,0.4,1.3c0,0.7-0.3,1.2-0.8,1.6c-0.5,0.4-1.2,0.6-2,0.6
			c-1,0-1.8-0.2-2.4-0.7c-0.6-0.5-1-1.1-1.1-2h1.3c0.1,0.5,0.3,0.9,0.7,1.2c0.4,0.3,0.9,0.5,1.5,0.5c0.5,0,0.8-0.1,1.1-0.4
			c0.3-0.2,0.4-0.6,0.4-0.9c0-0.3-0.1-0.6-0.3-0.8c-0.2-0.2-0.4-0.3-0.7-0.4c-0.3-0.1-0.7-0.2-1.2-0.3c-0.6-0.1-1.1-0.3-1.5-0.4
			c-0.4-0.1-0.7-0.4-0.9-0.7c-0.3-0.3-0.4-0.7-0.4-1.2c0-0.7,0.3-1.2,0.8-1.7c0.5-0.4,1.2-0.6,2.1-0.6
			C106.8,100.6,107.5,100.8,108.1,101.3z"/>
		<path class="st2" d="M121.5,104.4c0.4,0.5,0.6,1,0.6,1.7c0,0.9-0.3,1.5-0.9,2.1c-0.6,0.5-1.4,0.8-2.5,0.8h-3.9V98.3h3.9
			c1.1,0,1.9,0.2,2.4,0.7c0.5,0.5,0.8,1.1,0.8,1.9c0,0.7-0.2,1.2-0.5,1.6c-0.4,0.4-0.8,0.7-1.4,0.8
			C120.5,103.6,121.1,103.9,121.5,104.4z M116.1,103h2.3c0.7,0,1.2-0.2,1.5-0.5c0.4-0.3,0.5-0.7,0.5-1.3c0-0.5-0.2-1-0.5-1.3
			c-0.4-0.3-0.9-0.5-1.6-0.5h-2.2V103z M120.1,107.3c0.4-0.3,0.6-0.8,0.6-1.4c0-0.6-0.2-1.1-0.6-1.4c-0.4-0.3-1-0.5-1.7-0.5h-2.3
			v3.8h2.3C119.1,107.8,119.7,107.6,120.1,107.3z"/>
		<path class="st2" d="M125.2,97.8v11.1h-1.4V97.8H125.2z"/>
		<path class="st2" d="M133.2,101.1c0.6,0.3,1.1,0.8,1.5,1.5c0.4,0.6,0.5,1.4,0.5,2.2c0,0.9-0.2,1.6-0.5,2.2s-0.8,1.1-1.5,1.5
			c-0.6,0.3-1.3,0.5-2.1,0.5c-0.8,0-1.5-0.2-2.1-0.5c-0.6-0.3-1.1-0.8-1.5-1.5s-0.5-1.4-0.5-2.2c0-0.9,0.2-1.6,0.5-2.2
			c0.4-0.6,0.9-1.1,1.5-1.5s1.3-0.5,2.1-0.5C131.9,100.6,132.6,100.8,133.2,101.1z M129.7,102.1c-0.4,0.2-0.8,0.6-1,1
			c-0.3,0.5-0.4,1-0.4,1.7c0,0.7,0.1,1.2,0.4,1.7c0.3,0.5,0.6,0.8,1,1c0.4,0.2,0.9,0.3,1.4,0.3c0.5,0,0.9-0.1,1.4-0.3s0.8-0.6,1-1
			s0.4-1,0.4-1.7c0-0.7-0.1-1.2-0.4-1.7c-0.3-0.5-0.6-0.8-1-1c-0.4-0.2-0.9-0.3-1.4-0.3C130.6,101.8,130.1,101.9,129.7,102.1z"/>
		<path class="st2" d="M143.3,101.4c0.7,0.6,1.1,1.3,1.3,2.2h-1.4c-0.1-0.6-0.4-1.1-0.8-1.4c-0.4-0.3-1-0.5-1.7-0.5
			c-0.5,0-0.9,0.1-1.3,0.3c-0.4,0.2-0.7,0.6-1,1c-0.2,0.5-0.4,1-0.4,1.7c0,0.7,0.1,1.2,0.4,1.7c0.2,0.5,0.6,0.8,1,1
			c0.4,0.2,0.8,0.3,1.3,0.3c0.7,0,1.2-0.2,1.7-0.5c0.4-0.3,0.7-0.8,0.8-1.4h1.4c-0.2,1-0.6,1.7-1.3,2.3s-1.6,0.8-2.6,0.8
			c-0.8,0-1.5-0.2-2.1-0.5c-0.6-0.3-1.1-0.8-1.4-1.5s-0.5-1.4-0.5-2.2c0-0.9,0.2-1.6,0.5-2.2c0.3-0.6,0.8-1.1,1.4-1.5
			c0.6-0.3,1.3-0.5,2.1-0.5C141.7,100.6,142.6,100.9,143.3,101.4z"/>
		<path class="st2" d="M150.8,108.9l-3.1-3.7v3.7h-1.4V97.8h1.4v6.4l3.1-3.6h1.7l-3.7,4.1l3.8,4.1H150.8z"/>
		<path class="st2" d="M158.6,101.3c0.6,0.5,0.9,1.1,1,2h-1.3c-0.1-0.5-0.3-0.9-0.6-1.2c-0.3-0.3-0.8-0.5-1.4-0.5
			c-0.5,0-0.9,0.1-1.1,0.4c-0.3,0.2-0.4,0.6-0.4,1c0,0.3,0.1,0.5,0.3,0.7c0.2,0.2,0.4,0.3,0.7,0.4c0.3,0.1,0.7,0.2,1.1,0.3
			c0.6,0.1,1.1,0.3,1.5,0.4c0.4,0.1,0.7,0.4,1,0.7c0.3,0.3,0.4,0.8,0.4,1.3c0,0.7-0.3,1.2-0.8,1.6c-0.5,0.4-1.2,0.6-2,0.6
			c-1,0-1.8-0.2-2.4-0.7c-0.6-0.5-1-1.1-1.1-2h1.3c0.1,0.5,0.3,0.9,0.7,1.2c0.4,0.3,0.9,0.5,1.5,0.5c0.5,0,0.8-0.1,1.1-0.4
			c0.3-0.2,0.4-0.6,0.4-0.9c0-0.3-0.1-0.6-0.3-0.8c-0.2-0.2-0.4-0.3-0.7-0.4c-0.3-0.1-0.7-0.2-1.2-0.3c-0.6-0.1-1.1-0.3-1.5-0.4
			c-0.4-0.1-0.7-0.4-0.9-0.7c-0.3-0.3-0.4-0.7-0.4-1.2c0-0.7,0.3-1.2,0.8-1.7c0.5-0.4,1.2-0.6,2.1-0.6
			C157.2,100.6,158,100.8,158.6,101.3z"/>
		<path class="st2" d="M166.6,98.3v10.6h-1.4V98.3H166.6z"/>
		<path class="st2" d="M175,101.4c0.7,0.6,1.1,1.3,1.3,2.2h-1.4c-0.1-0.6-0.4-1.1-0.8-1.4c-0.4-0.3-1-0.5-1.7-0.5
			c-0.5,0-0.9,0.1-1.3,0.3c-0.4,0.2-0.7,0.6-1,1c-0.2,0.5-0.4,1-0.4,1.7c0,0.7,0.1,1.2,0.4,1.7c0.2,0.5,0.6,0.8,1,1
			c0.4,0.2,0.8,0.3,1.3,0.3c0.7,0,1.2-0.2,1.7-0.5c0.4-0.3,0.7-0.8,0.8-1.4h1.4c-0.2,1-0.6,1.7-1.3,2.3c-0.7,0.6-1.6,0.8-2.6,0.8
			c-0.8,0-1.5-0.2-2.1-0.5c-0.6-0.3-1.1-0.8-1.4-1.5c-0.3-0.6-0.5-1.4-0.5-2.2c0-0.9,0.2-1.6,0.5-2.2c0.3-0.6,0.8-1.1,1.4-1.5
			s1.3-0.5,2.1-0.5C173.4,100.6,174.3,100.9,175,101.4z"/>
		<path class="st2" d="M183.9,101.1c0.6,0.3,1.1,0.8,1.5,1.5c0.4,0.6,0.5,1.4,0.5,2.2c0,0.9-0.2,1.6-0.5,2.2
			c-0.4,0.6-0.8,1.1-1.5,1.5c-0.6,0.3-1.3,0.5-2.1,0.5s-1.5-0.2-2.1-0.5c-0.6-0.3-1.1-0.8-1.5-1.5c-0.4-0.6-0.5-1.4-0.5-2.2
			c0-0.9,0.2-1.6,0.5-2.2c0.4-0.6,0.9-1.1,1.5-1.5s1.3-0.5,2.1-0.5S183.3,100.8,183.9,101.1z M180.4,102.1c-0.4,0.2-0.8,0.6-1,1
			c-0.3,0.5-0.4,1-0.4,1.7c0,0.7,0.1,1.2,0.4,1.7s0.6,0.8,1,1s0.9,0.3,1.4,0.3s0.9-0.1,1.4-0.3s0.8-0.6,1-1s0.4-1,0.4-1.7
			c0-0.7-0.1-1.2-0.4-1.7c-0.3-0.5-0.6-0.8-1-1c-0.4-0.2-0.9-0.3-1.4-0.3S180.9,101.9,180.4,102.1z"/>
		<path class="st2" d="M194.4,101.5c0.6,0.6,0.9,1.5,0.9,2.7v4.8h-1.4v-4.7c0-0.8-0.2-1.5-0.6-1.9c-0.4-0.4-1-0.7-1.7-0.7
			c-0.8,0-1.3,0.2-1.8,0.7s-0.7,1.2-0.7,2.1v4.4h-1.4v-8.2h1.4v2c0.2-0.7,0.6-1.2,1.1-1.5s1.2-0.5,1.9-0.5
			C193,100.6,193.8,100.9,194.4,101.5z"/>
		<path class="st2" d="M207.8,104.4c0.4,0.5,0.6,1,0.6,1.7c0,0.9-0.3,1.5-0.9,2.1c-0.6,0.5-1.4,0.8-2.5,0.8h-3.9V98.3h3.9
			c1.1,0,1.9,0.2,2.4,0.7c0.5,0.5,0.8,1.1,0.8,1.9c0,0.7-0.2,1.2-0.5,1.6s-0.8,0.7-1.4,0.8C206.9,103.6,207.4,103.9,207.8,104.4z
			 M202.4,103h2.3c0.7,0,1.2-0.2,1.5-0.5c0.4-0.3,0.5-0.7,0.5-1.3c0-0.5-0.2-1-0.5-1.3c-0.4-0.3-0.9-0.5-1.6-0.5h-2.2V103z
			 M206.4,107.3c0.4-0.3,0.6-0.8,0.6-1.4c0-0.6-0.2-1.1-0.6-1.4c-0.4-0.3-1-0.5-1.7-0.5h-2.3v3.8h2.3
			C205.5,107.8,206,107.6,206.4,107.3z"/>
		<path class="st2" d="M216,101.1c0.6,0.3,1.1,0.8,1.5,1.5c0.4,0.6,0.5,1.4,0.5,2.2c0,0.9-0.2,1.6-0.5,2.2c-0.4,0.6-0.8,1.1-1.5,1.5
			c-0.6,0.3-1.3,0.5-2.1,0.5s-1.5-0.2-2.1-0.5c-0.6-0.3-1.1-0.8-1.5-1.5c-0.4-0.6-0.5-1.4-0.5-2.2c0-0.9,0.2-1.6,0.5-2.2
			c0.4-0.6,0.9-1.1,1.5-1.5s1.3-0.5,2.1-0.5S215.4,100.8,216,101.1z M212.5,102.1c-0.4,0.2-0.8,0.6-1,1c-0.3,0.5-0.4,1-0.4,1.7
			c0,0.7,0.1,1.2,0.4,1.7s0.6,0.8,1,1s0.9,0.3,1.4,0.3s0.9-0.1,1.4-0.3s0.8-0.6,1-1s0.4-1,0.4-1.7c0-0.7-0.1-1.2-0.4-1.7
			c-0.3-0.5-0.6-0.8-1-1c-0.4-0.2-0.9-0.3-1.4-0.3S212.9,101.9,212.5,102.1z"/>
		<path class="st2" d="M224.5,108.9l-2.1-3.2l-1.9,3.2h-1.5l2.7-4.2l-2.7-4h1.6l2.1,3.1l1.9-3.1h1.5l-2.7,4.1l2.8,4.1H224.5z"/>
		<path class="st2" d="M237.5,98.3v1.1h-3v9.5h-1.4v-9.5h-3v-1.1H237.5z"/>
		<path class="st2" d="M238.9,97.7c0.2-0.2,0.4-0.2,0.7-0.2c0.3,0,0.5,0.1,0.7,0.2c0.2,0.2,0.3,0.4,0.3,0.6c0,0.2-0.1,0.5-0.3,0.6
			c-0.2,0.2-0.4,0.2-0.7,0.2c-0.3,0-0.5-0.1-0.7-0.2c-0.2-0.2-0.3-0.4-0.3-0.6C238.6,98,238.7,97.8,238.9,97.7z M240.2,100.7v8.2
			h-1.4v-8.2H240.2z"/>
		<path class="st2" d="M246.4,107.7v1.2h-1c-0.8,0-1.5-0.2-1.9-0.6c-0.4-0.4-0.6-1.1-0.6-2v-4.4h-1.2v-1.2h1.2v-2.1h1.4v2.1h2.1v1.2
			h-2.1v4.5c0,0.5,0.1,0.9,0.3,1.1c0.2,0.2,0.5,0.3,1,0.3H246.4z"/>
		<path class="st2" d="M249.4,97.8v11.1H248V97.8H249.4z"/>
		<path class="st2" d="M259.1,105.1h-6.6c0,0.9,0.3,1.6,0.8,2.1s1.1,0.7,1.9,0.7c0.7,0,1.2-0.2,1.7-0.5c0.4-0.3,0.7-0.8,0.8-1.3h1.5
			c-0.1,0.6-0.3,1.1-0.7,1.5c-0.3,0.5-0.8,0.8-1.3,1.1s-1.2,0.4-1.9,0.4c-0.8,0-1.5-0.2-2.1-0.5c-0.6-0.3-1.1-0.8-1.4-1.5
			c-0.3-0.6-0.5-1.4-0.5-2.2c0-0.9,0.2-1.6,0.5-2.2c0.3-0.6,0.8-1.1,1.4-1.5c0.6-0.3,1.3-0.5,2.1-0.5c0.8,0,1.5,0.2,2.1,0.5
			c0.6,0.3,1.1,0.8,1.4,1.4c0.3,0.6,0.5,1.2,0.5,1.9C259.2,104.6,259.1,104.9,259.1,105.1z M257.5,102.9c-0.2-0.4-0.5-0.7-0.9-0.9
			s-0.8-0.3-1.3-0.3c-0.8,0-1.4,0.2-1.9,0.7c-0.5,0.5-0.8,1.1-0.8,2h5.3C257.8,103.8,257.7,103.3,257.5,102.9z"/>
	</g>
	<g>
		<path class="st3" d="M160.4,42.9c5.4,0,10.8,0,16.1,0c0.8,0,1.5,0,2.3,0.4c1.2,0.8,1.5,1.5,1.5,2.7c0,8.1,0,15.8,0,23.8
			c0,1.9-1.5,3.5-3.5,3.5c-3.5,0-6.9,0-10.4,0c-0.8,0-1.2,0.4-0.8,0.8c0,0.8,0.4,1.5,0.8,2.3c0.4,0.8,0.8,1.2,1.5,1.5
			c0.4,0,0.8,0.4,0.8,0.8c0,0.8-0.4,0.8-1.2,0.8c-0.8,0-1.2,0-1.9,0c-4.2,0-8.1,0-12.3,0c-0.4,0-0.8,0-1.2,0c-0.4,0-0.8-0.4-0.8-0.8
			c0-0.4,0.4-0.8,0.8-0.8c0.8,0,1.5-0.4,1.9-1.2c0.4-1.2,0.8-2.3,0.8-3.5c0-0.4-0.4-0.4-0.8-0.4c-1.5,0-3.1,0-4.6,0
			c-1.9,0-4.2,0-6.1,0c-2.3,0-3.8-1.5-3.8-3.8c0-7.7,0-15,0-22.7c0-2.3,1.5-4.2,4.2-3.8C149.6,42.9,155,42.9,160.4,42.9z
			 M160.4,66.4c5.4,0,10.4,0,15.8,0c0.8,0,1.2-0.4,1.2-1.2c0-6.1,0-11.9,0-18.1c0-0.8-0.4-1.2-1.2-1.2c-10.4,0-20.7,0-31.1,0
			c-0.8,0-1.2,0.4-1.2,1.2c0,6.1,0,11.9,0,18.1c0,0.8,0.4,1.2,1.2,1.2C150,66.4,155,66.4,160.4,66.4z M158.8,70.2
			c0,0.8,0.8,1.5,1.5,1.5s1.5-0.8,1.5-1.5s-0.8-1.5-1.5-1.5C159.6,68.3,158.8,69,158.8,70.2z"/>
	</g>
</g>
</svg>
