<?xml version="1.0" encoding="utf-8"?>
<!-- Generator: Adobe Illustrator 25.2.1, SVG Export Plug-In . SVG Version: 6.00 Build 0)  -->
<svg version="1.1" id="Layer_1" xmlns="http://www.w3.org/2000/svg" xmlns:xlink="http://www.w3.org/1999/xlink" x="0px" y="0px"
	 viewBox="0 0 145 110" style="enable-background:new 0 0 145 110;" xml:space="preserve">
<style type="text/css">
	.st0{fill:#EFEFEF;}
	.st1{fill:#A6A9B2;}
	.st2{opacity:0.85;}
	.st3{fill:#C5C8D3;}
	.st4{fill:#0066FF;}
	.st5{fill:#FFFFFF;}
	.st6{fill:#003D99;}
</style>
<g>
	<g>
		<rect class="st0" width="145" height="110"/>
	</g>
	<g>
		<g>
			<g>
				<path class="st1" d="M127,23.9H48.4c-1.3,0-2.4-1.1-2.4-2.4l0,0c0-1.3,1.1-2.4,2.4-2.4H127c1.3,0,2.4,1.1,2.4,2.4l0,0
					C129.3,22.8,128.3,23.9,127,23.9z"/>
			</g>
			<g class="st2">
				<path class="st3" d="M125.4,34.9H47c-0.6,0-1-0.5-1-1v-0.4c0-0.6,0.5-1,1-1h78.4c0.6,0,1,0.5,1,1v0.4
					C126.4,34.5,126,34.9,125.4,34.9z"/>
			</g>
			<g class="st2">
				<path class="st3" d="M108.2,43.8H47c-0.6,0-1-0.5-1-1v-0.4c0-0.6,0.5-1,1-1h61.2c0.6,0,1,0.5,1,1v0.4
					C109.3,43.3,108.8,43.8,108.2,43.8z"/>
			</g>
		</g>
	</g>
	<g>
		<g>
			<g>
				<path class="st1" d="M127,70.9H48.4c-1.3,0-2.4-1.1-2.4-2.4l0,0c0-1.3,1.1-2.4,2.4-2.4H127c1.3,0,2.4,1.1,2.4,2.4l0,0
					C129.3,69.9,128.3,70.9,127,70.9z"/>
			</g>
			<g class="st2">
				<path class="st3" d="M125.4,82H47c-0.6,0-1-0.4-1-1v-0.4c0-0.6,0.5-1,1-1h78.4c0.6,0,1,0.4,1,1v0.4C126.4,81.5,126,82,125.4,82z
					"/>
			</g>
			<g class="st2">
				<path class="st3" d="M108.2,90.8H47c-0.6,0-1-0.4-1-1v-0.4c0-0.6,0.5-1,1-1h61.2c0.6,0,1,0.4,1,1v0.4
					C109.3,90.4,108.8,90.8,108.2,90.8z"/>
			</g>
		</g>
	</g>
	<g>
		<g>
			<circle class="st4" cx="26.9" cy="31.2" r="11.2"/>
			<g>
				<path class="st5" d="M26.3,31.2c0,1-0.2,1.8-0.6,2.3s-1,0.8-1.8,0.8c-0.8,0-1.4-0.2-1.7-0.8c-0.4-0.5-0.6-1.3-0.6-2.2V30
					c0-1,0.2-1.8,0.6-2.3s1-0.8,1.8-0.8s1.4,0.2,1.7,0.8s0.6,1.2,0.6,2.2V31.2z M25.1,29.8c0-0.7-0.1-1.2-0.3-1.5s-0.5-0.5-0.9-0.5
					c-0.4,0-0.7,0.1-0.9,0.4s-0.3,0.8-0.3,1.4v1.6c0,0.7,0.1,1.2,0.3,1.5s0.5,0.5,0.9,0.5c0.4,0,0.7-0.2,0.9-0.5
					c0.2-0.3,0.3-0.8,0.3-1.4L25.1,29.8L25.1,29.8z"/>
				<path class="st5" d="M30.6,34.2h-1.2v-5.7L27.7,29v-1l2.8-1h0.1V34.2z"/>
			</g>
		</g>
		<g>
			<circle class="st6" cx="26.9" cy="78.3" r="11.2"/>
			<g>
				<path class="st5" d="M26.3,78.2c0,1-0.2,1.8-0.6,2.3s-1,0.8-1.8,0.8c-0.8,0-1.4-0.2-1.7-0.8c-0.4-0.5-0.6-1.3-0.6-2.2V77
					c0-1,0.2-1.8,0.6-2.3s1-0.8,1.8-0.8s1.4,0.2,1.7,0.8s0.6,1.2,0.6,2.2V78.2z M25.1,76.9c0-0.7-0.1-1.2-0.3-1.5s-0.5-0.5-0.9-0.5
					c-0.4,0-0.7,0.2-0.9,0.4s-0.3,0.8-0.3,1.4v1.6c0,0.7,0.1,1.2,0.3,1.5c0.2,0.3,0.5,0.5,0.9,0.5c0.4,0,0.7-0.2,0.9-0.4
					c0.2-0.3,0.3-0.8,0.3-1.4L25.1,76.9L25.1,76.9z"/>
				<path class="st5" d="M32.2,81.2h-4.8v-0.8l2.4-2.6c0.3-0.4,0.6-0.7,0.7-1c0.1-0.2,0.2-0.5,0.2-0.8c0-0.3-0.1-0.6-0.3-0.8
					s-0.5-0.3-0.8-0.3c-0.4,0-0.7,0.1-0.9,0.3c-0.2,0.2-0.3,0.6-0.3,1h-1.2c0-0.4,0.1-0.8,0.3-1.2c0.2-0.3,0.5-0.6,0.8-0.8
					c0.4-0.2,0.8-0.3,1.3-0.3c0.7,0,1.2,0.2,1.6,0.5s0.6,0.8,0.6,1.4c0,0.3-0.1,0.7-0.3,1.1c-0.2,0.4-0.5,0.8-1,1.3l-1.7,1.9h3.3
					V81.2z"/>
			</g>
		</g>
	</g>
</g>
</svg>
