<?xml version="1.0" encoding="utf-8"?>
<!-- Generator: Adobe Illustrator 25.2.1, SVG Export Plug-In . SVG Version: 6.00 Build 0)  -->
<svg version="1.1" id="Layer_1" xmlns="http://www.w3.org/2000/svg" xmlns:xlink="http://www.w3.org/1999/xlink" x="0px" y="0px"
	 viewBox="0 0 145 110" style="enable-background:new 0 0 145 110;" xml:space="preserve">
<style type="text/css">
	.st0{fill:#EFEFEF;}
	.st1{fill:#F2FFF0;}
	.st2{fill:#9FA1AA;}
	.st3{opacity:0.85;}
	.st4{fill:#C5C8D3;}
	.st5{fill:#DCDEE2;}
</style>
<g>
	<g>
		<rect class="st0" width="145" height="110"/>
	</g>
	<path class="st1" d="M14.4,25.1h52.7c1.3,0,2.4,1.1,2.4,2.4v55c0,1.3-1.1,2.4-2.4,2.4H14.4c-1.3,0-2.4-1.1-2.4-2.4v-55
		C12,26.2,13.1,25.1,14.4,25.1z"/>
	<path class="st1" d="M77.9,25.1h52.7c1.3,0,2.4,1.1,2.4,2.4v55c0,1.3-1.1,2.4-2.4,2.4H77.9c-1.3,0-2.4-1.1-2.4-2.4v-55
		C75.5,26.2,76.6,25.1,77.9,25.1z"/>
	<g>
		<path class="st2" d="M60.5,44.7H25.5c-1.5,0-2.8-1.2-2.8-2.8l0,0c0-1.5,1.2-2.8,2.8-2.8h35.1c1.5,0,2.8,1.2,2.8,2.8l0,0
			C63.3,43.5,62.1,44.7,60.5,44.7z"/>
		<g class="st3">
			<path class="st4" d="M60.8,53.5H23.6c-0.5,0-0.9-0.4-0.9-0.9l0,0c0-0.5,0.4-0.9,0.9-0.9h37.3c0.5,0,0.9,0.4,0.9,0.9l0,0
				C61.8,53.2,61.3,53.5,60.8,53.5z"/>
		</g>
		<g class="st3">
			<path class="st4" d="M58.3,59.3H23.6c-0.5,0-0.9-0.4-0.9-0.9l0,0c0-0.5,0.4-0.9,0.9-0.9h34.8c0.5,0,0.9,0.4,0.9,0.9l0,0
				C59.2,58.9,58.8,59.3,58.3,59.3z"/>
		</g>
		<g class="st3">
			<path class="st4" d="M56.8,65.1H23.6c-0.5,0-0.9-0.4-0.9-0.9l0,0c0-0.5,0.4-0.9,0.9-0.9h33.3c0.5,0,0.9,0.4,0.9,0.9l0,0
				C57.8,64.7,57.3,65.1,56.8,65.1z"/>
		</g>
		<g class="st3">
			<path class="st4" d="M43.8,70.9H23.6c-0.5,0-0.9-0.4-0.9-0.9l0,0c0-0.5,0.4-0.9,0.9-0.9h20.3c0.5,0,0.9,0.4,0.9,0.9l0,0
				C44.8,70.5,44.3,70.9,43.8,70.9z"/>
		</g>
	</g>
	<g>
		<path class="st2" d="M124,44.7H91c-1.5,0-2.8-1.2-2.8-2.8l0,0c0-1.5,1.2-2.8,2.8-2.8H124c1.5,0,2.8,1.2,2.8,2.8l0,0
			C126.8,43.5,125.6,44.7,124,44.7z"/>
		<g class="st3">
			<path class="st4" d="M124.3,53.5H89.1c-0.5,0-0.9-0.4-0.9-0.9l0,0c0-0.5,0.4-0.9,0.9-0.9h35.3c0.5,0,0.9,0.4,0.9,0.9l0,0
				C125.2,53.2,124.8,53.5,124.3,53.5z"/>
		</g>
		<g class="st3">
			<path class="st4" d="M121.8,59.3H89.1c-0.5,0-0.9-0.4-0.9-0.9l0,0c0-0.5,0.4-0.9,0.9-0.9h32.8c0.5,0,0.9,0.4,0.9,0.9l0,0
				C122.8,58.9,122.3,59.3,121.8,59.3z"/>
		</g>
		<g class="st3">
			<path class="st4" d="M120.3,65.1H89.1c-0.5,0-0.9-0.4-0.9-0.9l0,0c0-0.5,0.4-0.9,0.9-0.9h31.3c0.5,0,0.9,0.4,0.9,0.9l0,0
				C121.2,64.7,120.8,65.1,120.3,65.1z"/>
		</g>
		<g class="st3">
			<path class="st4" d="M107.3,70.9H89.1c-0.5,0-0.9-0.4-0.9-0.9l0,0c0-0.5,0.4-0.9,0.9-0.9h18.3c0.5,0,0.9,0.4,0.9,0.9l0,0
				C108.2,70.5,107.8,70.9,107.3,70.9z"/>
		</g>
	</g>
</g>
<g>
	<path class="st5" d="M17.6,42.3c0,0.6-0.1,1.1-0.3,1.4s-0.6,0.5-1,0.5c-0.5,0-0.8-0.2-1-0.5s-0.4-0.8-0.4-1.3v-0.7
		c0-0.6,0.1-1.1,0.3-1.4s0.6-0.5,1.1-0.5c0.5,0,0.8,0.1,1,0.4s0.3,0.7,0.4,1.3V42.3z M16.9,41.5c0-0.4-0.1-0.7-0.2-0.9
		s-0.3-0.3-0.5-0.3c-0.2,0-0.4,0.1-0.5,0.3s-0.2,0.5-0.2,0.8v1c0,0.4,0.1,0.7,0.2,0.9s0.3,0.3,0.5,0.3c0.2,0,0.4-0.1,0.5-0.3
		s0.2-0.5,0.2-0.8V41.5z"/>
	<path class="st5" d="M20.2,44.1h-0.7v-3.4l-1,0.4v-0.6l1.7-0.6h0.1V44.1z"/>
</g>
<g>
	<path class="st5" d="M83.1,42.3c0,0.6-0.1,1.1-0.3,1.4s-0.6,0.5-1,0.5c-0.5,0-0.8-0.2-1-0.5s-0.4-0.8-0.4-1.3v-0.7
		c0-0.6,0.1-1.1,0.3-1.4s0.6-0.5,1.1-0.5c0.5,0,0.8,0.1,1,0.4s0.3,0.7,0.4,1.3V42.3z M82.4,41.5c0-0.4-0.1-0.7-0.2-0.9
		s-0.3-0.3-0.5-0.3c-0.2,0-0.4,0.1-0.5,0.3S81,41,81,41.4v1c0,0.4,0.1,0.7,0.2,0.9s0.3,0.3,0.5,0.3c0.2,0,0.4-0.1,0.5-0.3
		s0.2-0.5,0.2-0.8V41.5z"/>
</g>
<g>
	<path class="st5" d="M86.6,44.1h-2.9v-0.5l1.4-1.5c0.2-0.2,0.4-0.4,0.4-0.6s0.1-0.3,0.1-0.5c0-0.2-0.1-0.4-0.2-0.5
		c-0.1-0.1-0.3-0.2-0.5-0.2c-0.2,0-0.4,0.1-0.5,0.2s-0.2,0.3-0.2,0.6h-0.7c0-0.3,0.1-0.5,0.2-0.7s0.3-0.4,0.5-0.5
		c0.2-0.1,0.5-0.2,0.8-0.2c0.4,0,0.7,0.1,1,0.3c0.2,0.2,0.4,0.5,0.4,0.9c0,0.2-0.1,0.4-0.2,0.7c-0.1,0.2-0.3,0.5-0.6,0.8l-1,1.1h2
		V44.1z"/>
</g>
</svg>
