<?xml version="1.0" encoding="utf-8"?>
<!-- Generator: Adobe Illustrator 25.2.1, SVG Export Plug-In . SVG Version: 6.00 Build 0)  -->
<svg version="1.1" id="Layer_1" xmlns="http://www.w3.org/2000/svg" xmlns:xlink="http://www.w3.org/1999/xlink" x="0px" y="0px"
	 viewBox="0 0 145 110" style="enable-background:new 0 0 145 110;" xml:space="preserve">
<style type="text/css">
	.st0{fill:#EFEFEF;}
	.st1{fill:#FFFFFF;}
	.st2{fill:#A6A9B2;}
	.st3{opacity:0.85;}
	.st4{fill:#C5C8D3;}
	.st5{fill:#0066FF;stroke:#FFFFFF;stroke-width:1.5;stroke-miterlimit:10;}
</style>
<g>
	<g>
		<rect class="st0" width="145" height="110"/>
	</g>
	<g>
		<path class="st1" d="M20.8,29.4h46c3.2,0,5.8,2.6,5.8,5.8v39.6c0,3.2-2.6,5.8-5.8,5.8h-46c-3.2,0-5.8-2.6-5.8-5.8V35.2
			C15,32,17.6,29.4,20.8,29.4z"/>
		<path class="st1" d="M84.3,29.4h46c3.2,0,5.8,2.6,5.8,5.8v39.6c0,3.2-2.6,5.8-5.8,5.8h-46c-3.2,0-5.8-2.6-5.8-5.8V35.2
			C78.5,32,81.1,29.4,84.3,29.4z"/>
		<g>
			<path class="st2" d="M63.6,44.7H24c-1.5,0-2.8-1.2-2.8-2.8l0,0c0-1.5,1.2-2.8,2.8-2.8h39.6c1.5,0,2.8,1.2,2.8,2.8l0,0
				C66.4,43.5,65.1,44.7,63.6,44.7z"/>
			<g class="st3">
				<path class="st4" d="M63.9,53.5H22.1c-0.5,0-0.9-0.4-0.9-0.9l0,0c0-0.5,0.4-0.9,0.9-0.9h41.8c0.5,0,0.9,0.4,0.9,0.9l0,0
					C64.8,53.2,64.4,53.5,63.9,53.5z"/>
			</g>
			<g class="st3">
				<path class="st4" d="M61.4,59.3H22.1c-0.5,0-0.9-0.4-0.9-0.9l0,0c0-0.5,0.4-0.9,0.9-0.9h39.3c0.5,0,0.9,0.4,0.9,0.9l0,0
					C62.3,58.9,61.9,59.3,61.4,59.3z"/>
			</g>
			<g class="st3">
				<path class="st4" d="M59.9,65.1H22.1c-0.5,0-0.9-0.4-0.9-0.9l0,0c0-0.5,0.4-0.9,0.9-0.9h37.8c0.5,0,0.9,0.4,0.9,0.9l0,0
					C60.8,64.7,60.4,65.1,59.9,65.1z"/>
			</g>
			<g class="st3">
				<path class="st4" d="M46.9,70.9H22.1c-0.5,0-0.9-0.4-0.9-0.9l0,0c0-0.5,0.4-0.9,0.9-0.9h24.8c0.5,0,0.9,0.4,0.9,0.9l0,0
					C47.8,70.5,47.4,70.9,46.9,70.9z"/>
			</g>
		</g>
		<g>
			<path class="st2" d="M127.1,44.7H87.5c-1.5,0-2.8-1.2-2.8-2.8l0,0c0-1.5,1.2-2.8,2.8-2.8h39.6c1.5,0,2.8,1.2,2.8,2.8l0,0
				C129.9,43.5,128.6,44.7,127.1,44.7z"/>
			<g class="st3">
				<path class="st4" d="M127.4,53.5H85.6c-0.5,0-0.9-0.4-0.9-0.9l0,0c0-0.5,0.4-0.9,0.9-0.9h41.8c0.5,0,0.9,0.4,0.9,0.9l0,0
					C128.3,53.2,127.9,53.5,127.4,53.5z"/>
			</g>
			<g class="st3">
				<path class="st4" d="M124.9,59.3H85.6c-0.5,0-0.9-0.4-0.9-0.9l0,0c0-0.5,0.4-0.9,0.9-0.9h39.3c0.5,0,0.9,0.4,0.9,0.9l0,0
					C125.8,58.9,125.4,59.3,124.9,59.3z"/>
			</g>
			<g class="st3">
				<path class="st4" d="M123.4,65.1H85.6c-0.5,0-0.9-0.4-0.9-0.9l0,0c0-0.5,0.4-0.9,0.9-0.9h37.8c0.5,0,0.9,0.4,0.9,0.9l0,0
					C124.3,64.7,123.9,65.1,123.4,65.1z"/>
			</g>
			<g class="st3">
				<path class="st4" d="M110.4,70.9H85.6c-0.5,0-0.9-0.4-0.9-0.9l0,0c0-0.5,0.4-0.9,0.9-0.9h24.8c0.5,0,0.9,0.4,0.9,0.9l0,0
					C111.3,70.5,110.9,70.9,110.4,70.9z"/>
			</g>
		</g>
		<g>
			<circle class="st5" cx="15" cy="29.3" r="6.1"/>
			<g>
				<path class="st1" d="M14.8,29.2c0,0.6-0.1,1-0.3,1.3c-0.2,0.3-0.5,0.4-0.9,0.4c-0.4,0-0.7-0.1-0.9-0.4c-0.2-0.3-0.3-0.7-0.3-1.2
					v-0.7c0-0.6,0.1-1,0.3-1.2s0.5-0.4,0.9-0.4s0.7,0.1,0.9,0.4s0.3,0.7,0.3,1.2V29.2z M14.1,28.5c0-0.4-0.1-0.6-0.1-0.8
					c-0.1-0.2-0.3-0.2-0.5-0.2s-0.4,0.1-0.5,0.2c-0.1,0.2-0.1,0.4-0.2,0.8v0.9c0,0.4,0.1,0.6,0.1,0.8c0.1,0.2,0.3,0.3,0.5,0.3
					s0.4-0.1,0.5-0.2c0.1-0.2,0.1-0.4,0.2-0.8V28.5z"/>
				<path class="st1" d="M17.1,30.9h-0.6v-3.1l-0.9,0.3v-0.5L17,27h0.1L17.1,30.9L17.1,30.9z"/>
			</g>
		</g>
		<g>
			<circle class="st5" cx="78.5" cy="29.2" r="6.1"/>
			<g>
				<path class="st1" d="M78.3,29.2c0,0.6-0.1,1-0.3,1.3c-0.2,0.3-0.5,0.4-0.9,0.4c-0.4,0-0.7-0.1-0.9-0.4c-0.2-0.3-0.3-0.7-0.3-1.2
					v-0.7c0-0.6,0.1-1,0.3-1.2s0.5-0.4,0.9-0.4s0.7,0.1,0.9,0.4s0.3,0.7,0.3,1.2C78.3,28.5,78.3,29.2,78.3,29.2z M77.6,28.5
					c0-0.4-0.1-0.6-0.2-0.8s-0.3-0.2-0.5-0.2s-0.4,0.1-0.5,0.2c-0.1,0.2-0.2,0.4-0.2,0.8v0.9c0,0.4,0.1,0.6,0.2,0.8s0.3,0.3,0.5,0.3
					s0.4-0.1,0.5-0.2c0.1-0.2,0.2-0.4,0.2-0.8V28.5z"/>
				<path class="st1" d="M81.4,30.8h-2.6v-0.4l1.3-1.4c0.2-0.2,0.3-0.4,0.4-0.5c0.1-0.1,0.1-0.3,0.1-0.4c0-0.2-0.1-0.3-0.2-0.5
					c-0.1-0.1-0.2-0.2-0.4-0.2c-0.2,0-0.4,0.1-0.5,0.2c-0.1,0.1-0.2,0.3-0.2,0.5h-0.7c0-0.2,0.1-0.5,0.2-0.6
					c0.1-0.2,0.3-0.3,0.5-0.4s0.4-0.2,0.7-0.2c0.4,0,0.7,0.1,0.9,0.3s0.3,0.5,0.3,0.8c0,0.2-0.1,0.4-0.2,0.6
					c-0.1,0.2-0.3,0.5-0.5,0.7l-0.9,1h1.8L81.4,30.8L81.4,30.8z"/>
			</g>
		</g>
	</g>
</g>
</svg>
