<?xml version="1.0" encoding="utf-8"?>
<!-- Generator: Adobe Illustrator 25.2.1, SVG Export Plug-In . SVG Version: 6.00 Build 0)  -->
<svg version="1.1" id="Layer_1" xmlns="http://www.w3.org/2000/svg" xmlns:xlink="http://www.w3.org/1999/xlink" x="0px" y="0px"
	 viewBox="0 0 24 24" style="enable-background:new 0 0 24 24;" xml:space="preserve">
<style type="text/css">
	.st0{fill:url(#SVGID_1_);}
</style>
<linearGradient id="SVGID_1_" gradientUnits="userSpaceOnUse" x1="0" y1="12" x2="24" y2="12">
	<stop  offset="0" style="stop-color:#00AFFA"/>
	<stop  offset="1" style="stop-color:#0954C0"/>
</linearGradient>
<path class="st0" d="M11.65,14.41c-0.72,0-0.98-0.62-0.98-1.04c0-1.06,0.84-1.71,1.66-2.34c0.78-0.6,1.58-1.22,1.58-2.18
	c0-1.11-0.76-1.79-1.98-1.79c-1.4,0-1.77,0.81-2.08,1.47C9.59,9.07,9.39,9.5,8.69,9.5c-0.46,0-1-0.24-1-0.93
	c0-1.69,1.97-3.23,4.13-3.23c2.08,0,4.51,0.92,4.51,3.51c0,1.58-1.26,2.48-2.28,3.2c-0.45,0.32-0.84,0.6-1.04,0.89
	c-0.14,0.21-0.22,0.42-0.3,0.64C12.51,14.06,12.38,14.41,11.65,14.41z M13.04,17.34c0-0.73-0.59-1.32-1.32-1.32
	c-0.73,0-1.32,0.59-1.32,1.32c0,0.73,0.59,1.32,1.32,1.32C12.45,18.65,13.04,18.06,13.04,17.34z M24,12c0-6.62-5.38-12-12-12
	C5.38,0,0,5.38,0,12c0,6.62,5.38,12,12,12C18.62,24,24,18.62,24,12z M22.83,12c0,5.97-4.86,10.83-10.83,10.83S1.17,17.97,1.17,12
	C1.17,6.03,6.03,1.17,12,1.17S22.83,6.03,22.83,12z"/>
</svg>
