<?xml version="1.0" encoding="utf-8"?>
<!-- Generator: Adobe Illustrator 25.2.1, SVG Export Plug-In . SVG Version: 6.00 Build 0)  -->
<svg version="1.1" id="Layer_1" xmlns="http://www.w3.org/2000/svg" xmlns:xlink="http://www.w3.org/1999/xlink" x="0px" y="0px"
	 viewBox="0 0 320 160" style="enable-background:new 0 0 320 160;" xml:space="preserve">
<style type="text/css">
	.st0{fill:#FFFFFF;}
	.st1{fill:#0043A9;}
	.st2{fill:#646464;}
	.st3{fill:#0066FF;}
</style>
<rect class="st0" width="320" height="160"/>
<g>
	<path class="st1" d="M54.2,108.5c0,8.4-6.8,15.2-15.2,15.2s-15.2-6.8-15.2-15.2S30.5,93.3,39,93.3S54.2,100.1,54.2,108.5z"/>
	<path class="st0" d="M34.3,108.3c0,1.8,0.5,3.2,2.2,3.2c1.7,0,2.2-1.4,2.2-3.2c0-1.8-0.5-3.2-2.2-3.2
		C34.7,105.2,34.3,106.5,34.3,108.3z M37.9,108.3c0,1.4-0.2,2.5-1.4,2.5c-1.2,0-1.4-1.1-1.4-2.5c0-1.3,0.2-2.5,1.4-2.5
		C37.7,105.9,37.9,107,37.9,108.3z"/>
	<path class="st0" d="M39.7,111.5h4.2v-0.7h-3c1.1-0.9,2.8-2.3,2.8-3.8c0-1.2-0.8-1.9-1.9-1.9c-1.1,0-2,0.7-2,2h0.8
		c0-0.8,0.5-1.4,1.3-1.4c0.8,0,1.2,0.5,1.2,1.2c0,1.3-1.6,2.5-3.2,3.9L39.7,111.5L39.7,111.5z"/>
	<path class="st2" d="M71.9,119.1h-2.1l-0.5,1.3h-0.7l1.9-5h0.6l1.9,5h-0.7L71.9,119.1z M70,118.6h1.7l-0.8-2.3L70,118.6z"/>
	<path class="st2" d="M74.3,120.4h-0.6v-5.2h0.6V120.4z"/>
	<path class="st2" d="M76,120.4h-0.6v-3.7H76V120.4z M75.3,115.8c0-0.1,0-0.2,0.1-0.3c0.1-0.1,0.2-0.1,0.3-0.1c0.1,0,0.2,0,0.3,0.1
		c0.1,0.1,0.1,0.2,0.1,0.3c0,0.1,0,0.2-0.1,0.3c-0.1,0.1-0.2,0.1-0.3,0.1s-0.2,0-0.3-0.1C75.3,115.9,75.3,115.9,75.3,115.8z"/>
	<path class="st2" d="M76.8,118.5c0-0.6,0.1-1,0.4-1.4c0.3-0.3,0.6-0.5,1.1-0.5c0.4,0,0.8,0.2,1,0.4l0-0.4h0.6v5.1h-0.6v-1.8
		c-0.3,0.3-0.6,0.4-1,0.4c-0.4,0-0.8-0.2-1.1-0.5C76.9,119.6,76.8,119.2,76.8,118.5L76.8,118.5L76.8,118.5z M77.5,118.6
		c0,0.4,0.1,0.8,0.3,1c0.2,0.2,0.4,0.4,0.7,0.4c0.4,0,0.7-0.2,0.9-0.5v-1.8c-0.2-0.3-0.5-0.5-0.8-0.5c-0.3,0-0.5,0.1-0.7,0.4
		C77.5,117.8,77.5,118.1,77.5,118.6z"/>
	<path class="st2" d="M83.2,120c-0.2,0.3-0.6,0.4-1.1,0.4c-0.4,0-0.7-0.1-0.9-0.3c-0.2-0.2-0.3-0.6-0.3-1v-2.4h0.6v2.4
		c0,0.6,0.2,0.8,0.7,0.8c0.5,0,0.8-0.2,1-0.5v-2.7h0.6v3.7h-0.6L83.2,120z"/>
	<path class="st2" d="M87,120.4c0-0.1-0.1-0.2-0.1-0.4c-0.3,0.3-0.6,0.5-1,0.5c-0.4,0-0.7-0.1-0.9-0.3c-0.2-0.2-0.3-0.5-0.3-0.8
		c0-0.4,0.1-0.7,0.4-0.9c0.3-0.2,0.7-0.3,1.2-0.3h0.6v-0.3c0-0.2-0.1-0.4-0.2-0.5c-0.1-0.1-0.3-0.2-0.6-0.2c-0.2,0-0.4,0.1-0.6,0.2
		c-0.2,0.1-0.2,0.3-0.2,0.4h-0.6c0-0.2,0.1-0.4,0.2-0.5c0.1-0.2,0.3-0.3,0.5-0.4c0.2-0.1,0.5-0.2,0.7-0.2c0.4,0,0.8,0.1,1,0.3
		c0.2,0.2,0.4,0.5,0.4,0.9v1.7c0,0.3,0,0.6,0.1,0.8v0.1C87.7,120.4,87,120.4,87,120.4z M86,119.9c0.2,0,0.4-0.1,0.6-0.2
		c0.2-0.1,0.3-0.2,0.4-0.4v-0.8h-0.5c-0.8,0-1.2,0.2-1.2,0.7c0,0.2,0.1,0.4,0.2,0.5C85.6,119.9,85.8,119.9,86,119.9z"/>
	<path class="st2" d="M89.1,116.7l0,0.4c0.3-0.3,0.6-0.5,1.1-0.5c0.5,0,0.9,0.2,1,0.6c0.1-0.2,0.3-0.3,0.5-0.4
		c0.2-0.1,0.4-0.2,0.7-0.2c0.8,0,1.2,0.4,1.2,1.3v2.5h-0.6V118c0-0.3-0.1-0.5-0.2-0.6c-0.1-0.1-0.3-0.2-0.6-0.2
		c-0.2,0-0.4,0.1-0.6,0.2c-0.2,0.1-0.2,0.3-0.3,0.6v2.4h-0.6V118c0-0.5-0.3-0.8-0.8-0.8c-0.4,0-0.7,0.2-0.8,0.5v2.7h-0.6v-3.7
		L89.1,116.7L89.1,116.7z"/>
	<path class="st2" d="M100,115.5v3.4c0,0.5-0.2,0.8-0.4,1.2c-0.3,0.3-0.7,0.5-1.2,0.5l-0.2,0c-0.5,0-1-0.2-1.3-0.4
		c-0.3-0.3-0.5-0.7-0.5-1.2v-3.4H97v3.4c0,0.4,0.1,0.6,0.3,0.8c0.2,0.2,0.5,0.3,0.8,0.3s0.7-0.1,0.8-0.3c0.2-0.2,0.3-0.5,0.3-0.8
		v-3.4L100,115.5L100,115.5z"/>
	<path class="st2" d="M101.6,120.4H101v-5.2h0.6V120.4z"/>
	<path class="st2" d="M103.4,115.8v0.9h0.7v0.5h-0.7v2.3c0,0.2,0,0.3,0.1,0.3c0.1,0.1,0.2,0.1,0.3,0.1c0.1,0,0.2,0,0.3,0v0.5
		c-0.2,0.1-0.3,0.1-0.5,0.1c-0.3,0-0.5-0.1-0.6-0.3c-0.1-0.2-0.2-0.4-0.2-0.7v-2.3h-0.7v-0.5h0.7v-0.9
		C102.8,115.8,103.4,115.8,103.4,115.8z"/>
	<path class="st2" d="M106.7,117.3c-0.1,0-0.2,0-0.3,0c-0.4,0-0.7,0.2-0.8,0.5v2.6h-0.6v-3.7h0.6l0,0.4c0.2-0.3,0.5-0.5,0.9-0.5
		c0.1,0,0.2,0,0.3,0.1C106.7,116.7,106.7,117.3,106.7,117.3z"/>
	<path class="st2" d="M107.9,120.4h-0.6v-3.7h0.6V120.4z M107.2,115.8c0-0.1,0-0.2,0.1-0.3c0.1-0.1,0.2-0.1,0.3-0.1s0.2,0,0.3,0.1
		c0.1,0.1,0.1,0.2,0.1,0.3c0,0.1,0,0.2-0.1,0.3c-0.1,0.1-0.2,0.1-0.3,0.1s-0.2,0-0.3-0.1C107.3,115.9,107.2,115.9,107.2,115.8z"/>
	<path class="st2" d="M110.4,120c0.2,0,0.4-0.1,0.6-0.2c0.2-0.1,0.3-0.3,0.3-0.5h0.6c0,0.2-0.1,0.4-0.2,0.6
		c-0.1,0.2-0.3,0.3-0.5,0.5c-0.2,0.1-0.5,0.2-0.7,0.2c-0.5,0-0.9-0.2-1.2-0.5c-0.3-0.3-0.4-0.8-0.4-1.4v-0.1c0-0.4,0.1-0.7,0.2-1
		c0.1-0.3,0.3-0.5,0.6-0.6c0.3-0.2,0.5-0.2,0.9-0.2c0.4,0,0.8,0.1,1,0.4c0.3,0.3,0.4,0.6,0.4,1h-0.6c0-0.2-0.1-0.4-0.3-0.6
		c-0.2-0.2-0.4-0.2-0.6-0.2c-0.3,0-0.6,0.1-0.7,0.3c-0.2,0.2-0.3,0.6-0.3,1v0.1c0,0.4,0.1,0.7,0.3,1
		C109.8,119.9,110.1,120,110.4,120z"/>
	<path class="st2" d="M114.1,120.5c-0.5,0-0.9-0.2-1.2-0.5c-0.3-0.3-0.5-0.8-0.5-1.3v-0.1c0-0.4,0.1-0.7,0.2-1
		c0.1-0.3,0.3-0.5,0.6-0.7c0.3-0.2,0.5-0.2,0.8-0.2c0.5,0,0.8,0.2,1.1,0.5s0.4,0.8,0.4,1.4v0.3H113c0,0.4,0.1,0.7,0.3,0.9
		c0.2,0.2,0.5,0.3,0.8,0.3c0.2,0,0.4-0.1,0.6-0.1c0.2-0.1,0.3-0.2,0.4-0.4l0.4,0.3C115.2,120.2,114.7,120.5,114.1,120.5z M114,117.2
		c-0.3,0-0.5,0.1-0.6,0.3c-0.2,0.2-0.3,0.4-0.3,0.8h1.8v-0.1c0-0.3-0.1-0.6-0.3-0.7C114.5,117.3,114.3,117.2,114,117.2z"/>
	<path class="st2" d="M118.4,119.4c0-0.2-0.1-0.3-0.2-0.4c-0.1-0.1-0.4-0.2-0.7-0.2c-0.3-0.1-0.6-0.2-0.8-0.2
		c-0.2-0.1-0.3-0.2-0.4-0.3c-0.1-0.1-0.1-0.3-0.1-0.5c0-0.3,0.1-0.6,0.4-0.8c0.3-0.2,0.6-0.3,1-0.3c0.4,0,0.8,0.1,1,0.3
		c0.3,0.2,0.4,0.5,0.4,0.8h-0.6c0-0.2-0.1-0.3-0.2-0.4c-0.1-0.1-0.3-0.2-0.6-0.2s-0.4,0.1-0.5,0.2c-0.1,0.1-0.2,0.2-0.2,0.4
		c0,0.2,0.1,0.3,0.2,0.3c0.1,0.1,0.3,0.2,0.6,0.2c0.3,0.1,0.6,0.2,0.8,0.3c0.2,0.1,0.3,0.2,0.4,0.4c0.1,0.1,0.1,0.3,0.1,0.5
		c0,0.3-0.1,0.6-0.4,0.8c-0.3,0.2-0.6,0.3-1,0.3c-0.3,0-0.6-0.1-0.8-0.2c-0.2-0.1-0.4-0.3-0.5-0.4c-0.1-0.2-0.2-0.4-0.2-0.6h0.6
		c0,0.2,0.1,0.4,0.3,0.5c0.2,0.1,0.4,0.2,0.6,0.2c0.2,0,0.4-0.1,0.6-0.1C118.3,119.7,118.4,119.6,118.4,119.4z"/>
	<path class="st2" d="M125.5,120.4h-0.7l-2.5-3.8v3.8h-0.7v-5h0.7l2.5,3.8v-3.8h0.6C125.5,115.5,125.5,120.4,125.5,120.4z"/>
	<path class="st2" d="M127.2,120.4h-0.6v-3.7h0.6V120.4z M126.5,115.8c0-0.1,0-0.2,0.1-0.3c0.1-0.1,0.2-0.1,0.3-0.1
		c0.1,0,0.2,0,0.3,0.1c0.1,0.1,0.1,0.2,0.1,0.3c0,0.1,0,0.2-0.1,0.3c-0.1,0.1-0.2,0.1-0.3,0.1c-0.1,0-0.2,0-0.3-0.1
		C126.6,115.9,126.5,115.9,126.5,115.8z"/>
	<path class="st2" d="M130.4,119.4c0-0.2-0.1-0.3-0.2-0.4c-0.1-0.1-0.4-0.2-0.7-0.2c-0.3-0.1-0.6-0.2-0.8-0.2
		c-0.2-0.1-0.3-0.2-0.4-0.3c-0.1-0.1-0.1-0.3-0.1-0.5c0-0.3,0.1-0.6,0.4-0.8c0.3-0.2,0.6-0.3,1-0.3c0.4,0,0.8,0.1,1,0.3
		c0.3,0.2,0.4,0.5,0.4,0.8h-0.6c0-0.2-0.1-0.3-0.2-0.4c-0.1-0.1-0.3-0.2-0.6-0.2s-0.4,0.1-0.5,0.2c-0.1,0.1-0.2,0.2-0.2,0.4
		c0,0.2,0.1,0.3,0.2,0.3c0.1,0.1,0.3,0.2,0.6,0.2c0.3,0.1,0.6,0.2,0.8,0.3c0.2,0.1,0.3,0.2,0.4,0.4c0.1,0.1,0.1,0.3,0.1,0.5
		c0,0.3-0.1,0.6-0.4,0.8c-0.3,0.2-0.6,0.3-1,0.3c-0.3,0-0.6-0.1-0.8-0.2c-0.2-0.1-0.4-0.3-0.5-0.4c-0.1-0.2-0.2-0.4-0.2-0.6h0.6
		c0,0.2,0.1,0.4,0.3,0.5c0.2,0.1,0.4,0.2,0.6,0.2c0.2,0,0.4-0.1,0.6-0.1C130.3,119.7,130.4,119.6,130.4,119.4z"/>
	<path class="st2" d="M132.5,120.4h-0.6v-5.2h0.6V120.4z"/>
	<path class="st2" d="M139,118.8c-0.1,0.5-0.3,0.9-0.6,1.2c-0.3,0.3-0.8,0.4-1.3,0.4c-0.6,0-1-0.2-1.4-0.6c-0.4-0.4-0.5-1-0.5-1.7
		v-0.5c0-0.5,0.1-0.9,0.2-1.2c0.2-0.4,0.4-0.6,0.7-0.8c0.3-0.2,0.6-0.3,1-0.3c0.5,0,0.9,0.2,1.3,0.4c0.3,0.3,0.5,0.7,0.6,1.2h-0.7
		c-0.1-0.4-0.2-0.7-0.4-0.9s-0.5-0.3-0.8-0.3c-0.4,0-0.7,0.2-1,0.5c-0.2,0.3-0.4,0.7-0.4,1.3v0.5c0,0.5,0.1,1,0.3,1.3
		c0.2,0.3,0.5,0.5,0.9,0.5c0.4,0,0.6-0.1,0.8-0.2c0.2-0.2,0.3-0.5,0.4-0.9L139,118.8L139,118.8z"/>
	<path class="st2" d="M139.6,118.5c0-0.4,0.1-0.7,0.2-1c0.1-0.3,0.3-0.5,0.6-0.7c0.3-0.2,0.5-0.2,0.9-0.2c0.5,0,0.9,0.2,1.2,0.5
		c0.3,0.3,0.5,0.8,0.5,1.4v0c0,0.4-0.1,0.7-0.2,1c-0.1,0.3-0.3,0.5-0.6,0.7c-0.3,0.2-0.5,0.2-0.9,0.2c-0.5,0-0.9-0.2-1.2-0.5
		C139.8,119.6,139.6,119.1,139.6,118.5L139.6,118.5L139.6,118.5z M140.3,118.6c0,0.4,0.1,0.7,0.3,1c0.2,0.3,0.4,0.4,0.8,0.4
		c0.3,0,0.6-0.1,0.8-0.4c0.2-0.3,0.3-0.6,0.3-1c0-0.4-0.1-0.7-0.3-1c-0.2-0.3-0.4-0.4-0.8-0.4c-0.3,0-0.6,0.1-0.7,0.4
		C140.3,117.8,140.3,118.1,140.3,118.6z"/>
	<path class="st2" d="M144.3,116.7l0,0.5c0.3-0.4,0.6-0.5,1.1-0.5c0.8,0,1.2,0.4,1.2,1.3v2.4H146V118c0-0.3-0.1-0.5-0.2-0.6
		c-0.1-0.1-0.3-0.2-0.6-0.2c-0.2,0-0.4,0.1-0.5,0.2c-0.2,0.1-0.3,0.3-0.4,0.4v2.6h-0.6v-3.7L144.3,116.7L144.3,116.7z"/>
	<path class="st2" d="M148.8,119.6l0.9-2.8h0.6l-1.3,3.7h-0.5l-1.3-3.7h0.6L148.8,119.6z"/>
	<path class="st2" d="M153.2,120.4c0-0.1-0.1-0.2-0.1-0.4c-0.3,0.3-0.6,0.5-1,0.5c-0.4,0-0.7-0.1-0.9-0.3c-0.2-0.2-0.3-0.5-0.3-0.8
		c0-0.4,0.1-0.7,0.4-0.9c0.3-0.2,0.7-0.3,1.2-0.3h0.6v-0.3c0-0.2-0.1-0.4-0.2-0.5c-0.1-0.1-0.3-0.2-0.6-0.2c-0.2,0-0.4,0.1-0.6,0.2
		c-0.2,0.1-0.2,0.3-0.2,0.4h-0.6c0-0.2,0.1-0.4,0.2-0.5c0.1-0.2,0.3-0.3,0.5-0.4c0.2-0.1,0.5-0.2,0.7-0.2c0.4,0,0.8,0.1,1,0.3
		c0.2,0.2,0.4,0.5,0.4,0.9v1.7c0,0.3,0,0.6,0.1,0.8v0.1C153.8,120.4,153.2,120.4,153.2,120.4z M152.1,119.9c0.2,0,0.4-0.1,0.6-0.2
		c0.2-0.1,0.3-0.2,0.4-0.4v-0.8h-0.5c-0.8,0-1.2,0.2-1.2,0.7c0,0.2,0.1,0.4,0.2,0.5C151.8,119.9,151.9,119.9,152.1,119.9z"/>
	<path class="st2" d="M155.4,120.4h-0.6v-5.2h0.6V120.4z"/>
	<path class="st2" d="M157.1,120.4h-0.6v-5.2h0.6V120.4z"/>
	<path class="st2" d="M158.8,120.4h-0.6v-3.7h0.6V120.4z M158.1,115.8c0-0.1,0-0.2,0.1-0.3c0.1-0.1,0.2-0.1,0.3-0.1
		c0.1,0,0.2,0,0.3,0.1c0.1,0.1,0.1,0.2,0.1,0.3c0,0.1,0,0.2-0.1,0.3c-0.1,0.1-0.2,0.1-0.3,0.1c-0.1,0-0.2,0-0.3-0.1
		C158.1,115.9,158.1,115.9,158.1,115.8z"/>
	<path class="st2" d="M161.9,119.4c0-0.2-0.1-0.3-0.2-0.4c-0.1-0.1-0.4-0.2-0.7-0.2c-0.3-0.1-0.6-0.2-0.8-0.2
		c-0.2-0.1-0.3-0.2-0.4-0.3c-0.1-0.1-0.1-0.3-0.1-0.5c0-0.3,0.1-0.6,0.4-0.8c0.3-0.2,0.6-0.3,1-0.3c0.4,0,0.8,0.1,1,0.3
		c0.3,0.2,0.4,0.5,0.4,0.8h-0.6c0-0.2-0.1-0.3-0.2-0.4c-0.1-0.1-0.3-0.2-0.6-0.2c-0.2,0-0.4,0.1-0.5,0.2c-0.1,0.1-0.2,0.2-0.2,0.4
		c0,0.2,0.1,0.3,0.2,0.3c0.1,0.1,0.3,0.2,0.6,0.2c0.3,0.1,0.6,0.2,0.8,0.3c0.2,0.1,0.3,0.2,0.4,0.4c0.1,0.1,0.1,0.3,0.1,0.5
		c0,0.3-0.1,0.6-0.4,0.8c-0.3,0.2-0.6,0.3-1,0.3c-0.3,0-0.6-0.1-0.8-0.2c-0.2-0.1-0.4-0.3-0.5-0.4c-0.1-0.2-0.2-0.4-0.2-0.6h0.6
		c0,0.2,0.1,0.4,0.3,0.5c0.2,0.1,0.4,0.2,0.6,0.2c0.2,0,0.4-0.1,0.6-0.1C161.8,119.7,161.9,119.6,161.9,119.4z"/>
	<path class="st2" d="M163.4,121.4l-0.4-0.2c0.2-0.3,0.3-0.6,0.3-0.9v-0.6h0.6v0.5c0,0.2-0.1,0.5-0.2,0.7
		C163.7,121.1,163.5,121.3,163.4,121.4z"/>
	<path class="st2" d="M169.4,118.1h-2.1v1.8h2.5v0.5h-3.1v-5h3.1v0.5h-2.5v1.6h2.1V118.1z"/>
	<path class="st2" d="M171.1,120.4h-0.6v-5.2h0.6V120.4z"/>
	<path class="st2" d="M173.6,120.5c-0.5,0-0.9-0.2-1.2-0.5c-0.3-0.3-0.5-0.8-0.5-1.3v-0.1c0-0.4,0.1-0.7,0.2-1
		c0.1-0.3,0.3-0.5,0.6-0.7c0.3-0.2,0.5-0.2,0.8-0.2c0.5,0,0.8,0.2,1.1,0.5s0.4,0.8,0.4,1.4v0.3h-2.5c0,0.4,0.1,0.7,0.3,0.9
		s0.5,0.3,0.8,0.3c0.2,0,0.4-0.1,0.6-0.1c0.2-0.1,0.3-0.2,0.4-0.4l0.4,0.3C174.7,120.2,174.3,120.5,173.6,120.5z M173.6,117.2
		c-0.3,0-0.5,0.1-0.6,0.3c-0.2,0.2-0.3,0.4-0.3,0.8h1.8v-0.1c0-0.3-0.1-0.6-0.3-0.7C174,117.3,173.8,117.2,173.6,117.2z"/>
	<path class="st2" d="M176.4,116.7l0,0.4c0.3-0.3,0.6-0.5,1.1-0.5c0.5,0,0.9,0.2,1,0.6c0.1-0.2,0.3-0.3,0.5-0.4
		c0.2-0.1,0.4-0.2,0.7-0.2c0.8,0,1.2,0.4,1.2,1.3v2.5h-0.6V118c0-0.3-0.1-0.5-0.2-0.6c-0.1-0.1-0.3-0.2-0.6-0.2
		c-0.2,0-0.4,0.1-0.6,0.2c-0.2,0.1-0.2,0.3-0.3,0.6v2.4h-0.6V118c0-0.5-0.3-0.8-0.8-0.8c-0.4,0-0.7,0.2-0.8,0.5v2.7h-0.6v-3.7
		L176.4,116.7L176.4,116.7z"/>
	<path class="st2" d="M183.4,120.5c-0.5,0-0.9-0.2-1.2-0.5c-0.3-0.3-0.5-0.8-0.5-1.3v-0.1c0-0.4,0.1-0.7,0.2-1
		c0.1-0.3,0.3-0.5,0.6-0.7c0.3-0.2,0.5-0.2,0.8-0.2c0.5,0,0.8,0.2,1.1,0.5s0.4,0.8,0.4,1.4v0.3h-2.5c0,0.4,0.1,0.7,0.3,0.9
		c0.2,0.2,0.5,0.3,0.8,0.3c0.2,0,0.4-0.1,0.6-0.1c0.2-0.1,0.3-0.2,0.4-0.4l0.4,0.3C184.5,120.2,184.1,120.5,183.4,120.5z
		 M183.4,117.2c-0.3,0-0.5,0.1-0.6,0.3c-0.2,0.2-0.3,0.4-0.3,0.8h1.8v-0.1c0-0.3-0.1-0.6-0.3-0.7
		C183.8,117.3,183.6,117.2,183.4,117.2z"/>
	<path class="st2" d="M186.2,116.7l0,0.5c0.3-0.4,0.6-0.5,1.1-0.5c0.8,0,1.2,0.4,1.2,1.3v2.4h-0.6V118c0-0.3-0.1-0.5-0.2-0.6
		c-0.1-0.1-0.3-0.2-0.6-0.2c-0.2,0-0.4,0.1-0.5,0.2c-0.2,0.1-0.3,0.3-0.4,0.4v2.6h-0.6v-3.7L186.2,116.7L186.2,116.7z"/>
	<path class="st2" d="M190.3,115.8v0.9h0.7v0.5h-0.7v2.3c0,0.2,0,0.3,0.1,0.3c0.1,0.1,0.2,0.1,0.3,0.1c0.1,0,0.2,0,0.3,0v0.5
		c-0.2,0.1-0.3,0.1-0.5,0.1c-0.3,0-0.5-0.1-0.6-0.3c-0.1-0.2-0.2-0.4-0.2-0.7v-2.3H189v-0.5h0.7v-0.9
		C189.7,115.8,190.3,115.8,190.3,115.8z"/>
	<path class="st2" d="M194,120c-0.2,0.3-0.6,0.4-1.1,0.4c-0.4,0-0.7-0.1-0.9-0.3s-0.3-0.6-0.3-1v-2.4h0.6v2.4c0,0.6,0.2,0.8,0.7,0.8
		c0.5,0,0.8-0.2,1-0.5v-2.7h0.6v3.7H194L194,120z"/>
	<path class="st2" d="M196.2,116.7l0,0.4c0.3-0.3,0.6-0.5,1.1-0.5c0.5,0,0.9,0.2,1,0.6c0.1-0.2,0.3-0.3,0.5-0.4
		c0.2-0.1,0.4-0.2,0.7-0.2c0.8,0,1.2,0.4,1.2,1.3v2.5h-0.6V118c0-0.3-0.1-0.5-0.2-0.6c-0.1-0.1-0.3-0.2-0.6-0.2
		c-0.2,0-0.4,0.1-0.6,0.2c-0.2,0.1-0.2,0.3-0.3,0.6v2.4h-0.6V118c0-0.5-0.3-0.8-0.8-0.8c-0.4,0-0.7,0.2-0.8,0.5v2.7h-0.6v-3.7
		L196.2,116.7L196.2,116.7z"/>
	<path class="st2" d="M204.3,115.5l1.6,4l1.6-4h0.8v5h-0.7v-1.9l0.1-2.1l-1.6,4h-0.5l-1.6-4l0.1,2.1v1.9h-0.7v-5
		C203.5,115.5,204.3,115.5,204.3,115.5z"/>
	<path class="st2" d="M211.7,120.4c0-0.1-0.1-0.2-0.1-0.4c-0.3,0.3-0.6,0.5-1,0.5c-0.4,0-0.7-0.1-0.9-0.3c-0.2-0.2-0.3-0.5-0.3-0.8
		c0-0.4,0.1-0.7,0.4-0.9c0.3-0.2,0.7-0.3,1.2-0.3h0.6v-0.3c0-0.2-0.1-0.4-0.2-0.5c-0.1-0.1-0.3-0.2-0.6-0.2c-0.2,0-0.4,0.1-0.6,0.2
		c-0.2,0.1-0.2,0.3-0.2,0.4h-0.6c0-0.2,0.1-0.4,0.2-0.5c0.1-0.2,0.3-0.3,0.5-0.4c0.2-0.1,0.5-0.2,0.7-0.2c0.4,0,0.8,0.1,1,0.3
		c0.2,0.2,0.4,0.5,0.4,0.9v1.7c0,0.3,0,0.6,0.1,0.8v0.1C212.4,120.4,211.7,120.4,211.7,120.4z M210.7,119.9c0.2,0,0.4-0.1,0.6-0.2
		c0.2-0.1,0.3-0.2,0.4-0.4v-0.8h-0.5c-0.8,0-1.2,0.2-1.2,0.7c0,0.2,0.1,0.4,0.2,0.5C210.3,119.9,210.5,119.9,210.7,119.9z"/>
	<path class="st2" d="M215.5,120c-0.2,0.3-0.6,0.4-1.1,0.4c-0.4,0-0.7-0.1-0.9-0.3s-0.3-0.6-0.3-1v-2.4h0.6v2.4
		c0,0.6,0.2,0.8,0.7,0.8c0.5,0,0.8-0.2,1-0.5v-2.7h0.6v3.7h-0.6L215.5,120z"/>
	<path class="st2" d="M218.9,117.3c-0.1,0-0.2,0-0.3,0c-0.4,0-0.7,0.2-0.8,0.5v2.6h-0.6v-3.7h0.6l0,0.4c0.2-0.3,0.5-0.5,0.9-0.5
		c0.1,0,0.2,0,0.3,0.1L218.9,117.3L218.9,117.3z"/>
	<path class="st2" d="M220.1,120.4h-0.6v-3.7h0.6V120.4z M219.5,115.8c0-0.1,0-0.2,0.1-0.3c0.1-0.1,0.2-0.1,0.3-0.1
		c0.1,0,0.2,0,0.3,0.1c0.1,0.1,0.1,0.2,0.1,0.3c0,0.1,0,0.2-0.1,0.3c-0.1,0.1-0.2,0.1-0.3,0.1c-0.1,0-0.2,0-0.3-0.1
		C219.5,115.9,219.5,115.9,219.5,115.8z"/>
	<path class="st2" d="M223.3,119.4c0-0.2-0.1-0.3-0.2-0.4c-0.1-0.1-0.4-0.2-0.7-0.2c-0.3-0.1-0.6-0.2-0.8-0.2
		c-0.2-0.1-0.3-0.2-0.4-0.3c-0.1-0.1-0.1-0.3-0.1-0.5c0-0.3,0.1-0.6,0.4-0.8c0.3-0.2,0.6-0.3,1-0.3c0.4,0,0.8,0.1,1,0.3
		c0.3,0.2,0.4,0.5,0.4,0.8h-0.6c0-0.2-0.1-0.3-0.2-0.4c-0.1-0.1-0.3-0.2-0.6-0.2c-0.2,0-0.4,0.1-0.5,0.2c-0.1,0.1-0.2,0.2-0.2,0.4
		c0,0.2,0.1,0.3,0.2,0.3c0.1,0.1,0.3,0.2,0.6,0.2c0.3,0.1,0.6,0.2,0.8,0.3c0.2,0.1,0.3,0.2,0.4,0.4c0.1,0.1,0.1,0.3,0.1,0.5
		c0,0.3-0.1,0.6-0.4,0.8c-0.3,0.2-0.6,0.3-1,0.3c-0.3,0-0.6-0.1-0.8-0.2c-0.2-0.1-0.4-0.3-0.5-0.4c-0.1-0.2-0.2-0.4-0.2-0.6h0.6
		c0,0.2,0.1,0.4,0.3,0.5c0.2,0.1,0.4,0.2,0.6,0.2c0.2,0,0.4-0.1,0.6-0.1C223.2,119.7,223.3,119.6,223.3,119.4z"/>
	<path class="st2" d="M229.9,116h-1.6v4.4h-0.6V116H226v-0.5h3.8L229.9,116L229.9,116z"/>
	<path class="st2" d="M231.2,120.4h-0.6v-3.7h0.6V120.4z M230.5,115.8c0-0.1,0-0.2,0.1-0.3c0.1-0.1,0.2-0.1,0.3-0.1s0.2,0,0.3,0.1
		c0.1,0.1,0.1,0.2,0.1,0.3c0,0.1,0,0.2-0.1,0.3c-0.1,0.1-0.2,0.1-0.3,0.1s-0.2,0-0.3-0.1C230.5,115.9,230.5,115.9,230.5,115.8z"/>
	<path class="st2" d="M232.8,116.7l0,0.5c0.3-0.4,0.6-0.5,1.1-0.5c0.8,0,1.2,0.4,1.2,1.3v2.4h-0.6V118c0-0.3-0.1-0.5-0.2-0.6
		c-0.1-0.1-0.3-0.2-0.6-0.2c-0.2,0-0.4,0.1-0.5,0.2c-0.2,0.1-0.3,0.3-0.4,0.4v2.6h-0.6v-3.7L232.8,116.7L232.8,116.7z"/>
	<path class="st2" d="M237.5,120c0.2,0,0.4-0.1,0.6-0.2s0.3-0.3,0.3-0.5h0.6c0,0.2-0.1,0.4-0.2,0.6c-0.1,0.2-0.3,0.3-0.5,0.5
		c-0.2,0.1-0.5,0.2-0.7,0.2c-0.5,0-0.9-0.2-1.2-0.5c-0.3-0.3-0.4-0.8-0.4-1.4v-0.1c0-0.4,0.1-0.7,0.2-1c0.1-0.3,0.3-0.5,0.6-0.6
		c0.3-0.2,0.5-0.2,0.9-0.2c0.4,0,0.8,0.1,1,0.4c0.3,0.3,0.4,0.6,0.4,1h-0.6c0-0.2-0.1-0.4-0.3-0.6c-0.2-0.2-0.4-0.2-0.6-0.2
		c-0.3,0-0.6,0.1-0.7,0.3c-0.2,0.2-0.3,0.6-0.3,1v0.1c0,0.4,0.1,0.7,0.3,1C236.9,119.9,237.2,120,237.5,120z"/>
	<path class="st2" d="M240.4,120.4h-0.6v-3.7h0.6V120.4z M239.7,115.8c0-0.1,0-0.2,0.1-0.3c0.1-0.1,0.2-0.1,0.3-0.1
		c0.1,0,0.2,0,0.3,0.1c0.1,0.1,0.1,0.2,0.1,0.3c0,0.1,0,0.2-0.1,0.3c-0.1,0.1-0.2,0.1-0.3,0.1c-0.1,0-0.2,0-0.3-0.1
		C239.7,115.9,239.7,115.9,239.7,115.8z"/>
	<path class="st2" d="M241.2,118.5c0-0.6,0.1-1,0.4-1.4c0.3-0.3,0.6-0.5,1-0.5c0.4,0,0.8,0.2,1,0.4v-1.9h0.6v5.2h-0.6l0-0.4
		c-0.3,0.3-0.6,0.5-1,0.5c-0.4,0-0.8-0.2-1-0.5C241.4,119.6,241.2,119.1,241.2,118.5L241.2,118.5L241.2,118.5z M241.8,118.6
		c0,0.4,0.1,0.7,0.3,1c0.2,0.2,0.4,0.4,0.7,0.4c0.4,0,0.7-0.2,0.9-0.5v-1.7c-0.2-0.3-0.5-0.5-0.9-0.5c-0.3,0-0.5,0.1-0.7,0.4
		C241.9,117.8,241.8,118.1,241.8,118.6z"/>
	<path class="st2" d="M247.6,120c-0.2,0.3-0.6,0.4-1.1,0.4c-0.4,0-0.7-0.1-0.9-0.3c-0.2-0.2-0.3-0.6-0.3-1v-2.4h0.6v2.4
		c0,0.6,0.2,0.8,0.7,0.8c0.5,0,0.8-0.2,1-0.5v-2.7h0.6v3.7h-0.6L247.6,120z"/>
	<path class="st2" d="M249.7,116.7l0,0.5c0.3-0.4,0.6-0.5,1.1-0.5c0.8,0,1.2,0.4,1.2,1.3v2.4h-0.6V118c0-0.3-0.1-0.5-0.2-0.6
		c-0.1-0.1-0.3-0.2-0.6-0.2c-0.2,0-0.4,0.1-0.5,0.2c-0.2,0.1-0.3,0.3-0.4,0.4v2.6h-0.6v-3.7L249.7,116.7L249.7,116.7z"/>
	<path class="st2" d="M253.8,115.8v0.9h0.7v0.5h-0.7v2.3c0,0.2,0,0.3,0.1,0.3c0.1,0.1,0.2,0.1,0.3,0.1c0.1,0,0.2,0,0.3,0v0.5
		c-0.2,0.1-0.3,0.1-0.5,0.1c-0.3,0-0.5-0.1-0.6-0.3c-0.1-0.2-0.2-0.4-0.2-0.7v-2.3h-0.7v-0.5h0.7v-0.9
		C253.2,115.8,253.8,115.8,253.8,115.8z"/>
	<path class="st2" d="M255.2,121.4l-0.4-0.2c0.2-0.3,0.3-0.6,0.3-0.9v-0.6h0.6v0.5c0,0.2-0.1,0.5-0.2,0.7
		C255.5,121.1,255.4,121.3,255.2,121.4z"/>
	<path class="st2" d="M259.1,119.9h2.4v0.5h-3v-5h0.7L259.1,119.9L259.1,119.9z"/>
	<path class="st2" d="M264.4,120.4c0-0.1-0.1-0.2-0.1-0.4c-0.3,0.3-0.6,0.5-1,0.5c-0.4,0-0.7-0.1-0.9-0.3c-0.2-0.2-0.3-0.5-0.3-0.8
		c0-0.4,0.1-0.7,0.4-0.9c0.3-0.2,0.7-0.3,1.2-0.3h0.6v-0.3c0-0.2-0.1-0.4-0.2-0.5c-0.1-0.1-0.3-0.2-0.6-0.2c-0.2,0-0.4,0.1-0.6,0.2
		c-0.2,0.1-0.2,0.3-0.2,0.4H262c0-0.2,0.1-0.4,0.2-0.5c0.1-0.2,0.3-0.3,0.5-0.4c0.2-0.1,0.5-0.2,0.7-0.2c0.4,0,0.8,0.1,1,0.3
		c0.2,0.2,0.4,0.5,0.4,0.9v1.7c0,0.3,0,0.6,0.1,0.8v0.1C265,120.4,264.4,120.4,264.4,120.4z M263.3,119.9c0.2,0,0.4-0.1,0.6-0.2
		c0.2-0.1,0.3-0.2,0.4-0.4v-0.8h-0.5c-0.8,0-1.2,0.2-1.2,0.7c0,0.2,0.1,0.4,0.2,0.5C263,119.9,263.1,119.9,263.3,119.9z"/>
	<path class="st2" d="M265.7,118.5c0-0.4,0.1-0.7,0.2-1c0.1-0.3,0.3-0.5,0.6-0.7c0.3-0.2,0.5-0.2,0.9-0.2c0.5,0,0.9,0.2,1.2,0.5
		c0.3,0.3,0.5,0.8,0.5,1.4v0c0,0.4-0.1,0.7-0.2,1c-0.1,0.3-0.3,0.5-0.6,0.7c-0.3,0.2-0.5,0.2-0.9,0.2c-0.5,0-0.9-0.2-1.2-0.5
		C265.9,119.6,265.7,119.1,265.7,118.5L265.7,118.5L265.7,118.5z M266.4,118.6c0,0.4,0.1,0.7,0.3,1c0.2,0.3,0.4,0.4,0.8,0.4
		c0.3,0,0.6-0.1,0.8-0.4c0.2-0.3,0.3-0.6,0.3-1c0-0.4-0.1-0.7-0.3-1c-0.2-0.3-0.4-0.4-0.8-0.4c-0.3,0-0.6,0.1-0.7,0.4
		C266.4,117.8,266.4,118.1,266.4,118.6z"/>
	<path class="st2" d="M271.6,117.3c-0.1,0-0.2,0-0.3,0c-0.4,0-0.7,0.2-0.8,0.5v2.6h-0.6v-3.7h0.6l0,0.4c0.2-0.3,0.5-0.5,0.9-0.5
		c0.1,0,0.2,0,0.3,0.1L271.6,117.3L271.6,117.3z"/>
	<path class="st2" d="M273.7,120.5c-0.5,0-0.9-0.2-1.2-0.5c-0.3-0.3-0.5-0.8-0.5-1.3v-0.1c0-0.4,0.1-0.7,0.2-1
		c0.1-0.3,0.3-0.5,0.6-0.7c0.3-0.2,0.5-0.2,0.8-0.2c0.5,0,0.8,0.2,1.1,0.5c0.3,0.3,0.4,0.8,0.4,1.4v0.3h-2.5c0,0.4,0.1,0.7,0.3,0.9
		s0.5,0.3,0.8,0.3c0.2,0,0.4-0.1,0.6-0.1c0.2-0.1,0.3-0.2,0.4-0.4l0.4,0.3C274.7,120.2,274.3,120.5,273.7,120.5z M273.6,117.2
		c-0.3,0-0.5,0.1-0.6,0.3c-0.2,0.2-0.3,0.4-0.3,0.8h1.8v-0.1c0-0.3-0.1-0.6-0.3-0.7C274.1,117.3,273.9,117.2,273.6,117.2z"/>
	<path class="st2" d="M277.4,120.5c-0.5,0-0.9-0.2-1.2-0.5c-0.3-0.3-0.5-0.8-0.5-1.3v-0.1c0-0.4,0.1-0.7,0.2-1
		c0.1-0.3,0.3-0.5,0.6-0.7c0.3-0.2,0.5-0.2,0.8-0.2c0.5,0,0.8,0.2,1.1,0.5c0.3,0.3,0.4,0.8,0.4,1.4v0.3h-2.5c0,0.4,0.1,0.7,0.3,0.9
		s0.5,0.3,0.8,0.3c0.2,0,0.4-0.1,0.6-0.1c0.2-0.1,0.3-0.2,0.4-0.4l0.4,0.3C278.4,120.2,278,120.5,277.4,120.5z M277.3,117.2
		c-0.3,0-0.5,0.1-0.6,0.3c-0.2,0.2-0.3,0.4-0.3,0.8h1.8v-0.1c0-0.3-0.1-0.6-0.3-0.7C277.8,117.3,277.6,117.2,277.3,117.2z"/>
	<path class="st2" d="M280.4,115.8v0.9h0.7v0.5h-0.7v2.3c0,0.2,0,0.3,0.1,0.3c0.1,0.1,0.2,0.1,0.3,0.1c0.1,0,0.2,0,0.3,0v0.5
		c-0.2,0.1-0.3,0.1-0.5,0.1c-0.3,0-0.5-0.1-0.6-0.3c-0.1-0.2-0.2-0.4-0.2-0.7v-2.3h-0.7v-0.5h0.7v-0.9
		C279.8,115.8,280.4,115.8,280.4,115.8z"/>
	<path class="st2" d="M287.4,120.4h-0.7l-2.5-3.8v3.8h-0.7v-5h0.7l2.5,3.8v-3.8h0.6V120.4L287.4,120.4z"/>
	<path class="st2" d="M289.2,120.4h-0.6v-3.7h0.6V120.4z M288.5,115.8c0-0.1,0-0.2,0.1-0.3c0.1-0.1,0.2-0.1,0.3-0.1s0.2,0,0.3,0.1
		c0.1,0.1,0.1,0.2,0.1,0.3c0,0.1,0,0.2-0.1,0.3c-0.1,0.1-0.2,0.1-0.3,0.1s-0.2,0-0.3-0.1C288.5,115.9,288.5,115.9,288.5,115.8z"/>
	<path class="st2" d="M292.3,119.4c0-0.2-0.1-0.3-0.2-0.4c-0.1-0.1-0.4-0.2-0.7-0.2c-0.3-0.1-0.6-0.2-0.8-0.2
		c-0.2-0.1-0.3-0.2-0.4-0.3c-0.1-0.1-0.1-0.3-0.1-0.5c0-0.3,0.1-0.6,0.4-0.8c0.3-0.2,0.6-0.3,1-0.3c0.4,0,0.8,0.1,1,0.3
		c0.3,0.2,0.4,0.5,0.4,0.8h-0.6c0-0.2-0.1-0.3-0.2-0.4c-0.1-0.1-0.3-0.2-0.6-0.2s-0.4,0.1-0.5,0.2c-0.1,0.1-0.2,0.2-0.2,0.4
		c0,0.2,0.1,0.3,0.2,0.3c0.1,0.1,0.3,0.2,0.6,0.2c0.3,0.1,0.6,0.2,0.8,0.3c0.2,0.1,0.3,0.2,0.4,0.4c0.1,0.1,0.1,0.3,0.1,0.5
		c0,0.3-0.1,0.6-0.4,0.8c-0.3,0.2-0.6,0.3-1,0.3c-0.3,0-0.6-0.1-0.8-0.2c-0.2-0.1-0.4-0.3-0.5-0.4c-0.1-0.2-0.2-0.4-0.2-0.6h0.6
		c0,0.2,0.1,0.4,0.3,0.5c0.2,0.1,0.4,0.2,0.6,0.2c0.2,0,0.4-0.1,0.6-0.1C292.3,119.7,292.3,119.6,292.3,119.4z"/>
	<path class="st2" d="M294.5,120.4h-0.6v-5.2h0.6V120.4z"/>
	<path class="st2" d="M295.5,120.1c0-0.1,0-0.2,0.1-0.3c0.1-0.1,0.2-0.1,0.3-0.1c0.1,0,0.2,0,0.3,0.1c0.1,0.1,0.1,0.2,0.1,0.3
		c0,0.1,0,0.2-0.1,0.3c-0.1,0.1-0.2,0.1-0.3,0.1s-0.2,0-0.3-0.1C295.5,120.3,295.5,120.2,295.5,120.1z"/>
	<path class="st2" d="M70,126.8l1.6,4l1.6-4h0.8v5h-0.6v-1.9l0.1-2.1l-1.6,4h-0.5l-1.6-4l0.1,2.1v1.9h-0.7v-5
		C69.1,126.8,70,126.8,70,126.8z"/>
	<path class="st2" d="M74.9,129.9c0-0.4,0.1-0.7,0.2-1c0.1-0.3,0.3-0.5,0.6-0.7c0.3-0.2,0.5-0.2,0.9-0.2c0.5,0,0.9,0.2,1.2,0.5
		c0.3,0.3,0.5,0.8,0.5,1.4v0.1c0,0.4-0.1,0.7-0.2,1c-0.1,0.3-0.3,0.5-0.6,0.7c-0.3,0.2-0.5,0.2-0.9,0.2c-0.5,0-0.9-0.2-1.2-0.5
		C75.1,130.9,75,130.5,74.9,129.9L74.9,129.9L74.9,129.9z M75.6,129.9c0,0.4,0.1,0.7,0.3,1c0.2,0.3,0.4,0.4,0.8,0.4s0.6-0.1,0.8-0.4
		c0.2-0.3,0.3-0.6,0.3-1c0-0.4-0.1-0.7-0.3-1c-0.2-0.3-0.4-0.4-0.8-0.4s-0.6,0.1-0.7,0.4C75.7,129.1,75.6,129.5,75.6,129.9z"/>
	<path class="st2" d="M80.9,128.6c-0.1,0-0.2,0-0.3,0c-0.4,0-0.7,0.2-0.8,0.5v2.6h-0.6v-3.7h0.6l0,0.4c0.2-0.3,0.5-0.5,0.9-0.5
		c0.1,0,0.2,0,0.3,0.1C80.9,128,80.9,128.6,80.9,128.6z"/>
	<path class="st2" d="M84.6,129.9c0,0.6-0.1,1-0.4,1.4c-0.3,0.3-0.6,0.5-1,0.5c-0.5,0-0.8-0.2-1.1-0.5l0,0.4h-0.6v-5.2h0.6v1.9
		c0.3-0.3,0.6-0.5,1-0.5c0.4,0,0.8,0.2,1,0.5C84.4,128.8,84.6,129.3,84.6,129.9L84.6,129.9L84.6,129.9z M83.9,129.9
		c0-0.4-0.1-0.8-0.3-1c-0.2-0.2-0.4-0.4-0.7-0.4c-0.4,0-0.7,0.2-0.9,0.6v1.6c0.2,0.4,0.5,0.6,0.9,0.6c0.3,0,0.5-0.1,0.7-0.4
		C83.9,130.7,83.9,130.3,83.9,129.9z"/>
	<path class="st2" d="M86.1,131.7h-0.6V128h0.6V131.7z M85.4,127.1c0-0.1,0-0.2,0.1-0.3c0.1-0.1,0.2-0.1,0.3-0.1
		c0.1,0,0.2,0,0.3,0.1c0.1,0.1,0.1,0.2,0.1,0.3c0,0.1,0,0.2-0.1,0.3c-0.1,0.1-0.2,0.1-0.3,0.1c-0.1,0-0.2,0-0.3-0.1
		C85.4,127.3,85.4,127.2,85.4,127.1z"/>
	<path class="st2" d="M92.7,129.4c0,0.5-0.1,0.9-0.2,1.3c-0.2,0.4-0.4,0.6-0.7,0.8c-0.3,0.2-0.6,0.3-1,0.3c-0.4,0-0.7-0.1-1-0.3
		c-0.3-0.2-0.5-0.5-0.7-0.8c-0.2-0.4-0.3-0.8-0.3-1.2v-0.4c0-0.5,0.1-0.9,0.3-1.3c0.2-0.4,0.4-0.6,0.7-0.8c0.3-0.2,0.6-0.3,1-0.3
		c0.4,0,0.7,0.1,1,0.3c0.3,0.2,0.5,0.5,0.7,0.8c0.2,0.4,0.2,0.8,0.2,1.3L92.7,129.4L92.7,129.4z M92,129.1c0-0.6-0.1-1-0.4-1.4
		c-0.2-0.3-0.6-0.5-1-0.5s-0.7,0.2-1,0.5c-0.2,0.3-0.4,0.7-0.4,1.3v0.4c0,0.6,0.1,1,0.4,1.3c0.2,0.3,0.6,0.5,1,0.5s0.7-0.2,1-0.5
		s0.4-0.7,0.4-1.3L92,129.1L92,129.1z"/>
	<path class="st2" d="M95.3,128.6c-0.1,0-0.2,0-0.3,0c-0.4,0-0.7,0.2-0.8,0.5v2.6h-0.6v-3.7h0.6l0,0.4c0.2-0.3,0.5-0.5,0.9-0.5
		c0.1,0,0.2,0,0.3,0.1C95.3,128,95.3,128.6,95.3,128.6z"/>
	<path class="st2" d="M96.5,128l0,0.5c0.3-0.4,0.6-0.5,1.1-0.5c0.8,0,1.2,0.4,1.2,1.3v2.4h-0.6v-2.4c0-0.3-0.1-0.5-0.2-0.6
		c-0.1-0.1-0.3-0.2-0.6-0.2c-0.2,0-0.4,0.1-0.5,0.2c-0.2,0.1-0.3,0.3-0.4,0.4v2.6h-0.6V128L96.5,128L96.5,128z"/>
	<path class="st2" d="M102,131.7c0-0.1-0.1-0.2-0.1-0.4c-0.3,0.3-0.6,0.5-1,0.5c-0.4,0-0.7-0.1-0.9-0.3c-0.2-0.2-0.3-0.5-0.3-0.8
		c0-0.4,0.1-0.7,0.4-0.9c0.3-0.2,0.7-0.3,1.2-0.3h0.6v-0.3c0-0.2-0.1-0.4-0.2-0.5c-0.1-0.1-0.3-0.2-0.6-0.2c-0.2,0-0.4,0.1-0.6,0.2
		c-0.2,0.1-0.2,0.3-0.2,0.4h-0.6c0-0.2,0.1-0.4,0.2-0.5c0.1-0.2,0.3-0.3,0.5-0.4c0.2-0.1,0.5-0.2,0.7-0.2c0.4,0,0.8,0.1,1,0.3
		c0.2,0.2,0.4,0.5,0.4,0.9v1.7c0,0.3,0,0.6,0.1,0.8v0.1C102.7,131.7,102,131.7,102,131.7z M101,131.2c0.2,0,0.4-0.1,0.6-0.2
		c0.2-0.1,0.3-0.2,0.4-0.4v-0.8h-0.5c-0.8,0-1.2,0.2-1.2,0.7c0,0.2,0.1,0.4,0.2,0.5C100.6,131.2,100.8,131.2,101,131.2z"/>
	<path class="st2" d="M105.3,128.6c-0.1,0-0.2,0-0.3,0c-0.4,0-0.7,0.2-0.8,0.5v2.6h-0.6v-3.7h0.6l0,0.4c0.2-0.3,0.5-0.5,0.9-0.5
		c0.1,0,0.2,0,0.3,0.1C105.3,128,105.3,128.6,105.3,128.6z"/>
	<path class="st2" d="M107.4,131.8c-0.5,0-0.9-0.2-1.2-0.5c-0.3-0.3-0.5-0.8-0.5-1.3v-0.1c0-0.4,0.1-0.7,0.2-1
		c0.1-0.3,0.3-0.5,0.6-0.7c0.3-0.2,0.5-0.2,0.8-0.2c0.5,0,0.8,0.2,1.1,0.5c0.3,0.3,0.4,0.8,0.4,1.4v0.3h-2.5c0,0.4,0.1,0.7,0.3,0.9
		c0.2,0.2,0.5,0.3,0.8,0.3c0.2,0,0.4-0.1,0.6-0.1c0.2-0.1,0.3-0.2,0.4-0.4l0.4,0.3C108.5,131.6,108,131.8,107.4,131.8z M107.3,128.5
		c-0.3,0-0.5,0.1-0.6,0.3c-0.2,0.2-0.3,0.4-0.3,0.8h1.8v-0.1c0-0.3-0.1-0.6-0.3-0.7C107.8,128.6,107.6,128.5,107.3,128.5z"/>
	<path class="st2" d="M115,130.2c-0.1,0.5-0.3,0.9-0.6,1.2c-0.3,0.3-0.8,0.4-1.3,0.4c-0.6,0-1-0.2-1.4-0.6c-0.4-0.4-0.5-1-0.5-1.7
		V129c0-0.5,0.1-0.9,0.2-1.2c0.2-0.4,0.4-0.6,0.7-0.8c0.3-0.2,0.6-0.3,1-0.3c0.5,0,0.9,0.2,1.3,0.4c0.3,0.3,0.5,0.7,0.6,1.2h-0.7
		c-0.1-0.4-0.2-0.7-0.4-0.9s-0.5-0.3-0.8-0.3c-0.4,0-0.7,0.2-1,0.5c-0.2,0.3-0.4,0.7-0.4,1.3v0.5c0,0.5,0.1,1,0.3,1.3
		c0.2,0.3,0.5,0.5,0.9,0.5c0.4,0,0.6-0.1,0.8-0.2c0.2-0.2,0.3-0.5,0.4-0.9L115,130.2L115,130.2z"/>
	<path class="st2" d="M115.6,129.9c0-0.4,0.1-0.7,0.2-1c0.1-0.3,0.3-0.5,0.6-0.7c0.3-0.2,0.5-0.2,0.9-0.2c0.5,0,0.9,0.2,1.2,0.5
		c0.3,0.3,0.5,0.8,0.5,1.4v0.1c0,0.4-0.1,0.7-0.2,1c-0.1,0.3-0.3,0.5-0.6,0.7c-0.3,0.2-0.5,0.2-0.9,0.2c-0.5,0-0.9-0.2-1.2-0.5
		C115.8,130.9,115.6,130.5,115.6,129.9L115.6,129.9L115.6,129.9z M116.3,129.9c0,0.4,0.1,0.7,0.3,1c0.2,0.3,0.4,0.4,0.8,0.4
		s0.6-0.1,0.8-0.4c0.2-0.3,0.3-0.6,0.3-1c0-0.4-0.1-0.7-0.3-1c-0.2-0.3-0.4-0.4-0.8-0.4s-0.6,0.1-0.7,0.4
		C116.4,129.1,116.3,129.5,116.3,129.9z"/>
	<path class="st2" d="M120.4,128l0,0.5c0.3-0.4,0.6-0.5,1.1-0.5c0.8,0,1.2,0.4,1.2,1.3v2.4H122v-2.4c0-0.3-0.1-0.5-0.2-0.6
		c-0.1-0.1-0.3-0.2-0.6-0.2c-0.2,0-0.4,0.1-0.5,0.2c-0.2,0.1-0.3,0.3-0.4,0.4v2.6h-0.6V128L120.4,128L120.4,128z"/>
	<path class="st2" d="M123.5,129.9c0-0.6,0.1-1,0.4-1.4c0.3-0.3,0.6-0.5,1-0.5c0.4,0,0.8,0.2,1,0.5l0-0.4h0.6v3.6
		c0,0.5-0.1,0.8-0.4,1.1c-0.3,0.3-0.7,0.4-1.1,0.4c-0.3,0-0.5-0.1-0.8-0.2c-0.3-0.1-0.4-0.3-0.6-0.5l0.3-0.4c0.3,0.3,0.6,0.5,1,0.5
		c0.3,0,0.5-0.1,0.7-0.3c0.2-0.2,0.3-0.4,0.3-0.7v-0.3c-0.3,0.3-0.6,0.4-1,0.4s-0.8-0.2-1-0.5C123.6,130.9,123.5,130.5,123.5,129.9z
		 M124.1,129.9c0,0.4,0.1,0.7,0.3,1c0.2,0.2,0.4,0.4,0.7,0.4c0.4,0,0.7-0.2,0.9-0.5V129c-0.2-0.4-0.5-0.5-0.9-0.5
		c-0.3,0-0.5,0.1-0.7,0.4C124.2,129.1,124.1,129.5,124.1,129.9z"/>
	<path class="st2" d="M129.8,131.4c-0.2,0.3-0.6,0.4-1.1,0.4c-0.4,0-0.7-0.1-0.9-0.3c-0.2-0.2-0.3-0.6-0.3-1V128h0.6v2.4
		c0,0.6,0.2,0.8,0.7,0.8c0.5,0,0.8-0.2,1-0.5V128h0.6v3.7h-0.6L129.8,131.4z"/>
	<path class="st2" d="M132.9,131.8c-0.5,0-0.9-0.2-1.2-0.5c-0.3-0.3-0.5-0.8-0.5-1.3v-0.1c0-0.4,0.1-0.7,0.2-1
		c0.1-0.3,0.3-0.5,0.6-0.7c0.3-0.2,0.5-0.2,0.8-0.2c0.5,0,0.8,0.2,1.1,0.5c0.3,0.3,0.4,0.8,0.4,1.4v0.3h-2.5c0,0.4,0.1,0.7,0.3,0.9
		c0.2,0.2,0.5,0.3,0.8,0.3c0.2,0,0.4-0.1,0.6-0.1c0.2-0.1,0.3-0.2,0.4-0.4l0.4,0.3C134,131.6,133.5,131.8,132.9,131.8z M132.8,128.5
		c-0.3,0-0.5,0.1-0.6,0.3s-0.3,0.4-0.3,0.8h1.8v-0.1c0-0.3-0.1-0.6-0.3-0.7C133.3,128.6,133.1,128.5,132.8,128.5z"/>
	<path class="st2" d="M139.6,129.5h-2.1v2.2h-0.7v-5h3.1v0.5h-2.4v1.7h2.1V129.5z"/>
	<path class="st2" d="M141.3,131.7h-0.6V128h0.6V131.7z M140.6,127.1c0-0.1,0-0.2,0.1-0.3c0.1-0.1,0.2-0.1,0.3-0.1s0.2,0,0.3,0.1
		c0.1,0.1,0.1,0.2,0.1,0.3c0,0.1,0,0.2-0.1,0.3c-0.1,0.1-0.2,0.1-0.3,0.1s-0.2,0-0.3-0.1C140.7,127.3,140.6,127.2,140.6,127.1z"/>
	<path class="st2" d="M142.9,128l0,0.5c0.3-0.4,0.6-0.5,1.1-0.5c0.8,0,1.2,0.4,1.2,1.3v2.4h-0.6v-2.4c0-0.3-0.1-0.5-0.2-0.6
		c-0.1-0.1-0.3-0.2-0.6-0.2c-0.2,0-0.4,0.1-0.5,0.2c-0.2,0.1-0.3,0.3-0.4,0.4v2.6h-0.6V128L142.9,128L142.9,128z"/>
	<path class="st2" d="M146.9,131.7h-0.6V128h0.6V131.7z M146.2,127.1c0-0.1,0-0.2,0.1-0.3c0.1-0.1,0.2-0.1,0.3-0.1
		c0.1,0,0.2,0,0.3,0.1c0.1,0.1,0.1,0.2,0.1,0.3c0,0.1,0,0.2-0.1,0.3c-0.1,0.1-0.2,0.1-0.3,0.1c-0.1,0-0.2,0-0.3-0.1
		C146.2,127.3,146.2,127.2,146.2,127.1z"/>
	<path class="st2" d="M151,129.9c0,0.6-0.1,1-0.4,1.4c-0.3,0.3-0.6,0.5-1,0.5c-0.5,0-0.8-0.2-1.1-0.5l0,0.4h-0.6v-5.2h0.6v1.9
		c0.3-0.3,0.6-0.5,1-0.5c0.4,0,0.8,0.2,1,0.5C150.8,128.8,151,129.3,151,129.9L151,129.9L151,129.9z M150.3,129.9
		c0-0.4-0.1-0.8-0.3-1c-0.2-0.2-0.4-0.4-0.7-0.4c-0.4,0-0.7,0.2-0.9,0.6v1.6c0.2,0.4,0.5,0.6,0.9,0.6c0.3,0,0.5-0.1,0.7-0.4
		C150.3,130.7,150.3,130.3,150.3,129.9z"/>
	<path class="st2" d="M154,131.4c-0.2,0.3-0.6,0.4-1.1,0.4c-0.4,0-0.7-0.1-0.9-0.3c-0.2-0.2-0.3-0.6-0.3-1V128h0.6v2.4
		c0,0.6,0.2,0.8,0.7,0.8c0.5,0,0.8-0.2,1-0.5V128h0.6v3.7h-0.6L154,131.4z"/>
	<path class="st2" d="M157.7,130.8c0-0.2-0.1-0.3-0.2-0.4c-0.1-0.1-0.4-0.2-0.7-0.2c-0.3-0.1-0.6-0.2-0.8-0.2
		c-0.2-0.1-0.3-0.2-0.4-0.3c-0.1-0.1-0.1-0.3-0.1-0.5c0-0.3,0.1-0.6,0.4-0.8c0.3-0.2,0.6-0.3,1-0.3c0.4,0,0.8,0.1,1,0.3
		c0.3,0.2,0.4,0.5,0.4,0.8h-0.6c0-0.2-0.1-0.3-0.2-0.4c-0.1-0.1-0.3-0.2-0.6-0.2c-0.2,0-0.4,0.1-0.5,0.2c-0.1,0.1-0.2,0.2-0.2,0.4
		c0,0.2,0.1,0.3,0.2,0.3s0.3,0.2,0.6,0.2c0.3,0.1,0.6,0.2,0.8,0.3c0.2,0.1,0.3,0.2,0.4,0.4c0.1,0.1,0.1,0.3,0.1,0.5
		c0,0.3-0.1,0.6-0.4,0.8c-0.3,0.2-0.6,0.3-1,0.3c-0.3,0-0.6-0.1-0.8-0.2c-0.2-0.1-0.4-0.3-0.5-0.4c-0.1-0.2-0.2-0.4-0.2-0.6h0.6
		c0,0.2,0.1,0.4,0.3,0.5c0.2,0.1,0.4,0.2,0.6,0.2c0.2,0,0.4-0.1,0.6-0.1C157.7,131,157.7,130.9,157.7,130.8z"/>
	<path class="st2" d="M159.2,131.4c0-0.1,0-0.2,0.1-0.3c0.1-0.1,0.2-0.1,0.3-0.1s0.2,0,0.3,0.1s0.1,0.2,0.1,0.3c0,0.1,0,0.2-0.1,0.3
		s-0.2,0.1-0.3,0.1c-0.1,0-0.2,0-0.3-0.1C159.3,131.6,159.2,131.5,159.2,131.4z"/>
	<path class="st2" d="M163.5,129.8v1.9h-0.7v-5h1.8c0.5,0,1,0.1,1.3,0.4c0.3,0.3,0.5,0.6,0.5,1.1c0,0.5-0.2,0.8-0.5,1.1
		c-0.3,0.3-0.7,0.4-1.3,0.4H163.5z M163.5,129.2h1.2c0.4,0,0.6-0.1,0.8-0.2c0.2-0.2,0.3-0.4,0.3-0.7c0-0.3-0.1-0.5-0.3-0.7
		s-0.4-0.3-0.8-0.3h-1.2L163.5,129.2L163.5,129.2z"/>
	<path class="st2" d="M168.6,131.8c-0.5,0-0.9-0.2-1.2-0.5c-0.3-0.3-0.5-0.8-0.5-1.3v-0.1c0-0.4,0.1-0.7,0.2-1
		c0.1-0.3,0.3-0.5,0.6-0.7c0.3-0.2,0.5-0.2,0.8-0.2c0.5,0,0.8,0.2,1.1,0.5c0.3,0.3,0.4,0.8,0.4,1.4v0.3h-2.5c0,0.4,0.1,0.7,0.3,0.9
		c0.2,0.2,0.5,0.3,0.8,0.3c0.2,0,0.4-0.1,0.6-0.1c0.2-0.1,0.3-0.2,0.4-0.4l0.4,0.3C169.7,131.6,169.3,131.8,168.6,131.8z
		 M168.6,128.5c-0.3,0-0.5,0.1-0.6,0.3s-0.3,0.4-0.3,0.8h1.8v-0.1c0-0.3-0.1-0.6-0.3-0.7C169,128.6,168.8,128.5,168.6,128.5z"/>
	<path class="st2" d="M171.5,131.7h-0.6v-5.2h0.6V131.7z"/>
	<path class="st2" d="M173.2,131.7h-0.6v-5.2h0.6V131.7z"/>
	<path class="st2" d="M175.7,131.8c-0.5,0-0.9-0.2-1.2-0.5c-0.3-0.3-0.5-0.8-0.5-1.3v-0.1c0-0.4,0.1-0.7,0.2-1
		c0.1-0.3,0.3-0.5,0.6-0.7c0.3-0.2,0.5-0.2,0.8-0.2c0.5,0,0.8,0.2,1.1,0.5c0.3,0.3,0.4,0.8,0.4,1.4v0.3h-2.5c0,0.4,0.1,0.7,0.3,0.9
		c0.2,0.2,0.5,0.3,0.8,0.3c0.2,0,0.4-0.1,0.6-0.1c0.2-0.1,0.3-0.2,0.4-0.4l0.4,0.3C176.8,131.6,176.3,131.8,175.7,131.8z
		 M175.6,128.5c-0.3,0-0.5,0.1-0.6,0.3c-0.2,0.2-0.3,0.4-0.3,0.8h1.8v-0.1c0-0.3-0.1-0.6-0.3-0.7
		C176.1,128.6,175.9,128.5,175.6,128.5z"/>
	<path class="st2" d="M178.5,128l0,0.5c0.3-0.4,0.6-0.5,1.1-0.5c0.8,0,1.2,0.4,1.2,1.3v2.4h-0.6v-2.4c0-0.3-0.1-0.5-0.2-0.6
		c-0.1-0.1-0.3-0.2-0.6-0.2c-0.2,0-0.4,0.1-0.5,0.2c-0.2,0.1-0.3,0.3-0.4,0.4v2.6h-0.6V128L178.5,128L178.5,128z"/>
	<path class="st2" d="M182.6,127.2v0.9h0.7v0.5h-0.7v2.3c0,0.2,0,0.3,0.1,0.3c0.1,0.1,0.2,0.1,0.3,0.1c0.1,0,0.2,0,0.3,0v0.5
		c-0.2,0.1-0.3,0.1-0.5,0.1c-0.3,0-0.5-0.1-0.6-0.3c-0.1-0.2-0.2-0.4-0.2-0.7v-2.3h-0.7V128h0.7v-0.9
		C182,127.2,182.6,127.2,182.6,127.2z"/>
	<path class="st2" d="M185.5,131.8c-0.5,0-0.9-0.2-1.2-0.5c-0.3-0.3-0.5-0.8-0.5-1.3v-0.1c0-0.4,0.1-0.7,0.2-1
		c0.1-0.3,0.3-0.5,0.6-0.7c0.3-0.2,0.5-0.2,0.8-0.2c0.5,0,0.8,0.2,1.1,0.5c0.3,0.3,0.4,0.8,0.4,1.4v0.3h-2.5c0,0.4,0.1,0.7,0.3,0.9
		c0.2,0.2,0.5,0.3,0.8,0.3c0.2,0,0.4-0.1,0.6-0.1c0.2-0.1,0.3-0.2,0.4-0.4l0.4,0.3C186.6,131.6,186.1,131.8,185.5,131.8z
		 M185.5,128.5c-0.3,0-0.5,0.1-0.6,0.3s-0.3,0.4-0.3,0.8h1.8v-0.1c0-0.3-0.1-0.6-0.3-0.7C185.9,128.6,185.7,128.5,185.5,128.5z"/>
	<path class="st2" d="M189.8,130.8c0-0.2-0.1-0.3-0.2-0.4c-0.1-0.1-0.4-0.2-0.7-0.2c-0.3-0.1-0.6-0.2-0.8-0.2
		c-0.2-0.1-0.3-0.2-0.4-0.3c-0.1-0.1-0.1-0.3-0.1-0.5c0-0.3,0.1-0.6,0.4-0.8c0.3-0.2,0.6-0.3,1-0.3c0.4,0,0.8,0.1,1,0.3
		c0.3,0.2,0.4,0.5,0.4,0.8h-0.6c0-0.2-0.1-0.3-0.2-0.4c-0.1-0.1-0.3-0.2-0.6-0.2c-0.2,0-0.4,0.1-0.5,0.2s-0.2,0.2-0.2,0.4
		c0,0.2,0.1,0.3,0.2,0.3c0.1,0.1,0.3,0.2,0.6,0.2c0.3,0.1,0.6,0.2,0.8,0.3c0.2,0.1,0.3,0.2,0.4,0.4c0.1,0.1,0.1,0.3,0.1,0.5
		c0,0.3-0.1,0.6-0.4,0.8c-0.3,0.2-0.6,0.3-1,0.3c-0.3,0-0.6-0.1-0.8-0.2c-0.2-0.1-0.4-0.3-0.5-0.4c-0.1-0.2-0.2-0.4-0.2-0.6h0.6
		c0,0.2,0.1,0.4,0.3,0.5c0.2,0.1,0.4,0.2,0.6,0.2c0.2,0,0.4-0.1,0.6-0.1C189.8,131,189.8,130.9,189.8,130.8z"/>
	<path class="st2" d="M191.1,129.9c0-0.6,0.1-1,0.4-1.4c0.3-0.3,0.6-0.5,1.1-0.5c0.4,0,0.8,0.2,1,0.4l0-0.4h0.6v5.1h-0.6v-1.8
		c-0.3,0.3-0.6,0.4-1,0.4c-0.4,0-0.8-0.2-1.1-0.5C191.2,130.9,191.1,130.5,191.1,129.9L191.1,129.9L191.1,129.9z M191.8,129.9
		c0,0.4,0.1,0.8,0.3,1s0.4,0.4,0.7,0.4c0.4,0,0.7-0.2,0.9-0.5V129c-0.2-0.3-0.5-0.5-0.8-0.5c-0.3,0-0.5,0.1-0.7,0.4
		C191.8,129.1,191.8,129.5,191.8,129.9z"/>
	<path class="st2" d="M197.5,131.4c-0.2,0.3-0.6,0.4-1.1,0.4c-0.4,0-0.7-0.1-0.9-0.3c-0.2-0.2-0.3-0.6-0.3-1V128h0.6v2.4
		c0,0.6,0.2,0.8,0.7,0.8c0.5,0,0.8-0.2,1-0.5V128h0.6v3.7h-0.6L197.5,131.4z"/>
	<path class="st2" d="M200.6,131.8c-0.5,0-0.9-0.2-1.2-0.5c-0.3-0.3-0.5-0.8-0.5-1.3v-0.1c0-0.4,0.1-0.7,0.2-1
		c0.1-0.3,0.3-0.5,0.6-0.7c0.3-0.2,0.5-0.2,0.8-0.2c0.5,0,0.8,0.2,1.1,0.5c0.3,0.3,0.4,0.8,0.4,1.4v0.3h-2.5c0,0.4,0.1,0.7,0.3,0.9
		c0.2,0.2,0.5,0.3,0.8,0.3c0.2,0,0.4-0.1,0.6-0.1c0.2-0.1,0.3-0.2,0.4-0.4l0.4,0.3C201.7,131.6,201.2,131.8,200.6,131.8z
		 M200.5,128.5c-0.3,0-0.5,0.1-0.6,0.3s-0.3,0.4-0.3,0.8h1.8v-0.1c0-0.3-0.1-0.6-0.3-0.7C201,128.6,200.8,128.5,200.5,128.5z"/>
	<path class="st2" d="M207.3,129.5h-2.1v2.2h-0.7v-5h3.1v0.5h-2.4v1.7h2.1L207.3,129.5L207.3,129.5z"/>
	<path class="st2" d="M209.8,131.8c-0.5,0-0.9-0.2-1.2-0.5c-0.3-0.3-0.5-0.8-0.5-1.3v-0.1c0-0.4,0.1-0.7,0.2-1
		c0.1-0.3,0.3-0.5,0.6-0.7c0.3-0.2,0.5-0.2,0.8-0.2c0.5,0,0.8,0.2,1.1,0.5c0.3,0.3,0.4,0.8,0.4,1.4v0.3h-2.5c0,0.4,0.1,0.7,0.3,0.9
		c0.2,0.2,0.5,0.3,0.8,0.3c0.2,0,0.4-0.1,0.6-0.1c0.2-0.1,0.3-0.2,0.4-0.4l0.4,0.3C210.9,131.6,210.4,131.8,209.8,131.8z
		 M209.7,128.5c-0.3,0-0.5,0.1-0.6,0.3s-0.3,0.4-0.3,0.8h1.8v-0.1c0-0.3-0.1-0.6-0.3-0.7C210.2,128.6,210,128.5,209.7,128.5z"/>
	<path class="st2" d="M214.2,131.4c-0.2,0.3-0.6,0.4-1.1,0.4c-0.4,0-0.7-0.1-0.9-0.3c-0.2-0.2-0.3-0.6-0.3-1V128h0.6v2.4
		c0,0.6,0.2,0.8,0.7,0.8c0.5,0,0.8-0.2,1-0.5V128h0.6v3.7h-0.6L214.2,131.4z"/>
	<path class="st2" d="M215.7,129.9c0-0.6,0.1-1,0.4-1.4c0.3-0.3,0.6-0.5,1-0.5c0.4,0,0.8,0.2,1,0.5l0-0.4h0.6v3.6
		c0,0.5-0.1,0.8-0.4,1.1c-0.3,0.3-0.7,0.4-1.1,0.4c-0.3,0-0.5-0.1-0.8-0.2c-0.3-0.1-0.4-0.3-0.6-0.5l0.3-0.4c0.3,0.3,0.6,0.5,1,0.5
		c0.3,0,0.5-0.1,0.7-0.3c0.2-0.2,0.3-0.4,0.3-0.7v-0.3c-0.3,0.3-0.6,0.4-1,0.4s-0.8-0.2-1-0.5C215.8,130.9,215.7,130.5,215.7,129.9z
		 M216.3,129.9c0,0.4,0.1,0.7,0.3,1c0.2,0.2,0.4,0.4,0.7,0.4c0.4,0,0.7-0.2,0.9-0.5V129c-0.2-0.4-0.5-0.5-0.9-0.5
		c-0.3,0-0.5,0.1-0.7,0.4C216.4,129.1,216.3,129.5,216.3,129.9z"/>
	<path class="st2" d="M220.4,131.7h-0.6V128h0.6V131.7z M219.7,127.1c0-0.1,0-0.2,0.1-0.3c0.1-0.1,0.2-0.1,0.3-0.1s0.2,0,0.3,0.1
		c0.1,0.1,0.1,0.2,0.1,0.3c0,0.1,0,0.2-0.1,0.3c-0.1,0.1-0.2,0.1-0.3,0.1s-0.2,0-0.3-0.1C219.8,127.3,219.7,127.2,219.7,127.1z"/>
	<path class="st2" d="M223.7,131.7c0-0.1-0.1-0.2-0.1-0.4c-0.3,0.3-0.6,0.5-1,0.5c-0.4,0-0.7-0.1-0.9-0.3c-0.2-0.2-0.3-0.5-0.3-0.8
		c0-0.4,0.1-0.7,0.4-0.9c0.3-0.2,0.7-0.3,1.2-0.3h0.6v-0.3c0-0.2-0.1-0.4-0.2-0.5c-0.1-0.1-0.3-0.2-0.6-0.2c-0.2,0-0.4,0.1-0.6,0.2
		c-0.2,0.1-0.2,0.3-0.2,0.4h-0.6c0-0.2,0.1-0.4,0.2-0.5c0.1-0.2,0.3-0.3,0.5-0.4c0.2-0.1,0.5-0.2,0.7-0.2c0.4,0,0.8,0.1,1,0.3
		c0.2,0.2,0.4,0.5,0.4,0.9v1.7c0,0.3,0,0.6,0.1,0.8v0.1C224.3,131.7,223.7,131.7,223.7,131.7z M222.6,131.2c0.2,0,0.4-0.1,0.6-0.2
		c0.2-0.1,0.3-0.2,0.4-0.4v-0.8h-0.5c-0.8,0-1.2,0.2-1.2,0.7c0,0.2,0.1,0.4,0.2,0.5C222.3,131.2,222.4,131.2,222.6,131.2z"/>
	<path class="st2" d="M226,127.2v0.9h0.7v0.5H226v2.3c0,0.2,0,0.3,0.1,0.3c0.1,0.1,0.2,0.1,0.3,0.1c0.1,0,0.2,0,0.3,0v0.5
		c-0.2,0.1-0.3,0.1-0.5,0.1c-0.3,0-0.5-0.1-0.6-0.3c-0.1-0.2-0.2-0.4-0.2-0.7v-2.3h-0.7V128h0.7v-0.9
		C225.4,127.2,226,127.2,226,127.2z"/>
	<path d="M73.3,101.8h1v-6.4h-1v2.8h-3v-2.8h-1v6.4h1v-2.8h3V101.8z"/>
	<path d="M80.6,99.2c0-1.6-1.2-2.6-2.6-2.6c-1.5,0-2.6,1-2.6,2.6s1.1,2.6,2.6,2.6C79.4,101.8,80.6,100.8,80.6,99.2z M76.5,99.2
		c0-1.2,0.7-1.7,1.5-1.7c0.8,0,1.5,0.6,1.5,1.7s-0.8,1.7-1.6,1.7C77.1,100.9,76.5,100.3,76.5,99.2z"/>
	<path d="M82.6,101.8h1.1l1-3.8l1,3.8h1.1l1.6-5.1h-1l-1,4.1l-1-4.1h-1.1l-1.1,4.1l-1.1-4.1H81L82.6,101.8z"/>
	<path d="M91.7,101.8h1v-4.4l2,4.4h0.7l2-4.4v4.4h1v-6.4h-1.1l-2.3,5l-2.3-5h-1.1C91.7,95.3,91.7,101.8,91.7,101.8z"/>
	<path d="M99.5,99.2c0,1.6,1.1,2.7,2.4,2.7c0.8,0,1.5-0.4,1.8-0.8v0.8h1.1v-5.1h-1.1v0.7c-0.3-0.4-0.9-0.8-1.8-0.8
		C100.5,96.6,99.5,97.6,99.5,99.2z M103.6,99.2c0,1.1-0.7,1.7-1.5,1.7c-0.8,0-1.5-0.6-1.5-1.7c0-1.1,0.8-1.7,1.5-1.7
		C102.9,97.5,103.6,98.1,103.6,99.2z"/>
	<path d="M109.7,101.8h1v-3c0-1.4-0.9-2.2-2.1-2.2c-0.6,0-1.2,0.3-1.5,0.7v-0.6h-1v5.1h1v-2.8c0-0.9,0.5-1.4,1.3-1.4
		c0.8,0,1.3,0.5,1.3,1.4L109.7,101.8L109.7,101.8z"/>
	<path d="M114.1,100.5l-1.4-3.9h-1.2l2,5l-1,2.5h1.1l3.1-7.5h-1.1L114.1,100.5z"/>
	<path d="M119.5,96.2h1.7v5.6h1v-5.6h1.7v-0.9h-4.5L119.5,96.2L119.5,96.2z"/>
	<path d="M125.1,101.8h1v-5.1h-1V101.8z M125.6,96c0.4,0,0.7-0.3,0.7-0.7c0-0.4-0.3-0.7-0.7-0.7c-0.4,0-0.7,0.3-0.7,0.7
		C125,95.7,125.2,96,125.6,96z"/>
	<path d="M134.8,101.8h1v-3c0-1.4-0.9-2.2-2.1-2.2c-0.7,0-1.5,0.4-1.8,1c-0.4-0.7-1-1-1.8-1c-0.6,0-1.2,0.3-1.5,0.7v-0.6h-1v5.1h1
		v-2.8c0-0.9,0.5-1.4,1.3-1.4c0.8,0,1.3,0.5,1.3,1.4v2.8h1v-2.8c0-0.9,0.5-1.4,1.3-1.4c0.8,0,1.3,0.5,1.3,1.4L134.8,101.8
		L134.8,101.8z"/>
	<path d="M139.3,97.5c0.8,0,1.4,0.5,1.4,1.3h-2.8C138,97.9,138.6,97.5,139.3,97.5z M141.7,100.2h-1.1c-0.2,0.4-0.6,0.7-1.2,0.7
		c-0.8,0-1.4-0.5-1.5-1.4h3.9c0-0.2,0-0.3,0-0.5c0-1.5-1-2.5-2.5-2.5c-1.5,0-2.5,1-2.5,2.6c0,1.6,1.1,2.6,2.5,2.6
		C140.6,101.8,141.4,101.1,141.7,100.2z"/>
	<path d="M146.6,100.3c-0.1-1.8-2.9-1.3-2.9-2.3c0-0.3,0.3-0.6,0.9-0.6c0.6,0,0.9,0.3,0.9,0.7h1c-0.1-1-0.8-1.6-2-1.6
		c-1.2,0-2,0.7-2,1.5c0,1.9,3,1.3,3,2.3c0,0.4-0.3,0.6-0.9,0.6c-0.6,0-1-0.3-1-0.8h-1.1c0.1,0.9,0.9,1.6,2.1,1.6
		C145.9,101.8,146.6,101.2,146.6,100.3z"/>
	<path d="M150.2,101.8h1v-6.4h-1V101.8z"/>
	<path d="M156.3,101.8l1.2,0l1.4-4.9l1.4,4.9h1.2l1.9-6.4h-1.1l-1.3,5.2l-1.3-5.2h-1.2l-1.4,5.2l-1.3-5.2h-1.1L156.3,101.8z"/>
	<path d="M164.3,101.8h1v-5.1h-1V101.8z M164.8,96c0.4,0,0.7-0.3,0.7-0.7c0-0.4-0.3-0.7-0.7-0.7s-0.7,0.3-0.7,0.7
		C164.1,95.7,164.4,96,164.8,96z"/>
	<path d="M166.7,101.8h1v-6.8h-1V101.8z"/>
	<path d="M169.1,101.8h1v-6.8h-1V101.8z"/>
	<path d="M177.6,99.9c0,0.6-0.4,1-1.2,1H175v-2h1.4C177.1,98.9,177.6,99.3,177.6,99.9z M177.4,97.1c0,0.6-0.4,0.9-1.1,0.9H175v-1.8
		h1.3C177,96.2,177.4,96.5,177.4,97.1z M178.6,100c0-0.8-0.6-1.5-1.2-1.6c0.6-0.2,1.1-0.7,1.1-1.5c0-0.9-0.7-1.7-2.1-1.7H174v6.4
		h2.6C177.9,101.8,178.6,101,178.6,100z"/>
	<path d="M181.9,97.5c0.8,0,1.4,0.5,1.4,1.3h-2.8C180.7,97.9,181.2,97.5,181.9,97.5z M184.3,100.2h-1.1c-0.2,0.4-0.6,0.7-1.2,0.7
		c-0.8,0-1.4-0.5-1.5-1.4h3.9c0-0.2,0-0.3,0-0.5c0-1.5-1-2.5-2.5-2.5c-1.5,0-2.5,1-2.5,2.6c0,1.6,1.1,2.6,2.5,2.6
		C183.2,101.8,184,101.1,184.3,100.2z"/>
	<path d="M187.5,98.5c0,1.9,1.5,3.3,3.3,3.3c1.3,0,2.5-0.7,3-1.9h-1.3c-0.3,0.7-0.9,1-1.7,1c-1.3,0-2.2-0.9-2.2-2.4
		c0-1.5,0.9-2.4,2.2-2.4c0.8,0,1.4,0.3,1.7,1h1.3c-0.5-1.3-1.6-1.9-3-1.9C189,95.2,187.5,96.6,187.5,98.5z"/>
	<path d="M195.1,101.8h1v-2.8c0-0.9,0.5-1.4,1.3-1.4c0.8,0,1.3,0.5,1.3,1.4v2.8h1v-3c0-1.4-0.9-2.2-2-2.2c-0.7,0-1.2,0.3-1.6,0.7
		v-2.3h-1L195.1,101.8L195.1,101.8z"/>
	<path d="M200.7,99.2c0,1.6,1.1,2.7,2.4,2.7c0.8,0,1.5-0.4,1.8-0.8v0.8h1.1v-5.1h-1.1v0.7c-0.3-0.4-0.9-0.8-1.8-0.8
		C201.8,96.6,200.7,97.6,200.7,99.2z M204.9,99.2c0,1.1-0.7,1.7-1.5,1.7c-0.8,0-1.5-0.6-1.5-1.7c0-1.1,0.8-1.7,1.5-1.7
		C204.1,97.5,204.9,98.1,204.9,99.2z"/>
	<path d="M208.4,99.1c0-1.1,0.5-1.4,1.3-1.4h0.3v-1.1c-0.7,0-1.2,0.3-1.5,0.8v-0.7h-1v5.1h1L208.4,99.1L208.4,99.1z"/>
	<path d="M210.5,99.2c0,1.6,1.1,2.7,2.4,2.7c0.8,0,1.4-0.4,1.8-0.8v0.8c0,1-0.6,1.5-1.4,1.5c-0.7,0-1.3-0.4-1.5-0.9h-1
		c0.1,1.1,1.1,1.8,2.5,1.8c1.6,0,2.5-1,2.5-2.4v-5.2h-1.1v0.7c-0.3-0.4-0.9-0.8-1.8-0.8C211.6,96.6,210.5,97.6,210.5,99.2z
		 M214.7,99.2c0,1.1-0.7,1.7-1.5,1.7c-0.8,0-1.5-0.6-1.5-1.7c0-1.1,0.8-1.7,1.5-1.7C213.9,97.5,214.7,98.1,214.7,99.2z"/>
	<path d="M219.3,97.5c0.8,0,1.4,0.5,1.4,1.3h-2.8C218,97.9,218.6,97.5,219.3,97.5z M221.7,100.2h-1.1c-0.2,0.4-0.6,0.7-1.2,0.7
		c-0.8,0-1.4-0.5-1.5-1.4h3.9c0-0.2,0-0.3,0-0.5c0-1.5-1-2.5-2.5-2.5c-1.5,0-2.5,1-2.5,2.6c0,1.6,1.1,2.6,2.5,2.6
		C220.6,101.8,221.4,101.1,221.7,100.2z"/>
	<path d="M222.5,99.2c0,1.6,1.1,2.7,2.4,2.7c0.8,0,1.4-0.4,1.8-0.8v0.8h1.1v-6.9h-1.1v2.5c-0.4-0.5-1.1-0.8-1.8-0.8
		C223.6,96.6,222.5,97.6,222.5,99.2z M226.7,99.2c0,1.1-0.7,1.7-1.5,1.7c-0.8,0-1.5-0.6-1.5-1.7c0-1.1,0.8-1.7,1.5-1.7
		C225.9,97.5,226.7,98.1,226.7,99.2z"/>
	<path d="M228.8,97.1h1c0-0.6,0.4-1,1.1-1c0.7,0,1.1,0.4,1.1,1c0,1-0.8,1.2-1.8,1.2h-0.3l0.1,1.5h0.9l0-0.7c1.2,0,2.2-0.6,2.2-1.9
		c0-1.2-0.8-1.9-2.1-1.9C229.6,95.2,228.8,96,228.8,97.1z M230.9,101.1c0-0.4-0.3-0.7-0.7-0.7s-0.7,0.3-0.7,0.7s0.3,0.7,0.7,0.7
		S230.9,101.5,230.9,101.1z"/>
	<path class="st3" d="M54.2,42c0,8.4-6.8,15.2-15.2,15.2S23.7,50.4,23.7,42S30.6,26.8,39,26.8S54.2,33.6,54.2,42z"/>
	<path class="st0" d="M34.3,41.9c0,1.8,0.5,3.2,2.2,3.2c1.7,0,2.2-1.4,2.2-3.2c0-1.8-0.5-3.2-2.2-3.2S34.3,40.1,34.3,41.9z
		 M37.9,41.9c0,1.4-0.2,2.5-1.4,2.5c-1.2,0-1.4-1.1-1.4-2.5c0-1.3,0.2-2.5,1.4-2.5C37.7,39.4,37.9,40.6,37.9,41.9z"/>
	<path class="st0" d="M40.4,45.1h0.8v-6.3h-1.6v0.7h0.8C40.4,39.5,40.4,45.1,40.4,45.1z"/>
	<path class="st2" d="M71.9,52.6h-2.1l-0.5,1.3h-0.7l1.9-5h0.6l1.9,5h-0.7L71.9,52.6z M70,52.1h1.7l-0.8-2.3L70,52.1z"/>
	<path class="st2" d="M74.3,53.9h-0.6v-5.2h0.6V53.9z"/>
	<path class="st2" d="M76,53.9h-0.6v-3.7H76V53.9z M75.3,49.3c0-0.1,0-0.2,0.1-0.3c0.1-0.1,0.2-0.1,0.3-0.1c0.1,0,0.2,0,0.3,0.1
		c0.1,0.1,0.1,0.2,0.1,0.3s0,0.2-0.1,0.3c-0.1,0.1-0.2,0.1-0.3,0.1s-0.2,0-0.3-0.1C75.3,49.5,75.3,49.4,75.3,49.3z"/>
	<path class="st2" d="M76.8,52.1c0-0.6,0.1-1,0.4-1.4c0.3-0.3,0.6-0.5,1.1-0.5c0.4,0,0.8,0.2,1,0.4l0-0.4h0.6v5.1h-0.6v-1.8
		c-0.3,0.3-0.6,0.4-1,0.4c-0.4,0-0.8-0.2-1.1-0.5S76.8,52.7,76.8,52.1L76.8,52.1L76.8,52.1z M77.5,52.1c0,0.4,0.1,0.8,0.3,1
		c0.2,0.2,0.4,0.4,0.7,0.4c0.4,0,0.7-0.2,0.9-0.5v-1.8c-0.2-0.3-0.5-0.5-0.8-0.5c-0.3,0-0.5,0.1-0.7,0.4
		C77.5,51.3,77.5,51.7,77.5,52.1z"/>
	<path class="st2" d="M83.2,53.6C83,53.9,82.6,54,82.1,54c-0.4,0-0.7-0.1-0.9-0.3c-0.2-0.2-0.3-0.6-0.3-1v-2.4h0.6v2.4
		c0,0.6,0.2,0.8,0.7,0.8c0.5,0,0.8-0.2,1-0.5v-2.7h0.6v3.7h-0.6L83.2,53.6z"/>
	<path class="st2" d="M87,53.9c0-0.1-0.1-0.2-0.1-0.4c-0.3,0.3-0.6,0.5-1,0.5c-0.4,0-0.7-0.1-0.9-0.3c-0.2-0.2-0.3-0.5-0.3-0.8
		c0-0.4,0.1-0.7,0.4-0.9c0.3-0.2,0.7-0.3,1.2-0.3h0.6v-0.3c0-0.2-0.1-0.4-0.2-0.5c-0.1-0.1-0.3-0.2-0.6-0.2c-0.2,0-0.4,0.1-0.6,0.2
		c-0.2,0.1-0.2,0.3-0.2,0.4h-0.6c0-0.2,0.1-0.4,0.2-0.5c0.1-0.2,0.3-0.3,0.5-0.4c0.3-0.1,0.5-0.2,0.8-0.2c0.4,0,0.8,0.1,1,0.3
		c0.2,0.2,0.4,0.5,0.4,0.9v1.7c0,0.3,0,0.6,0.1,0.8v0.1H87z M86,53.5c0.2,0,0.4-0.1,0.6-0.2c0.2-0.1,0.3-0.2,0.4-0.4v-0.8h-0.5
		c-0.8,0-1.2,0.2-1.2,0.7c0,0.2,0.1,0.4,0.2,0.5C85.6,53.4,85.8,53.5,86,53.5z"/>
	<path class="st2" d="M89.1,50.3l0,0.4c0.3-0.3,0.6-0.5,1.1-0.5c0.5,0,0.9,0.2,1,0.6c0.1-0.2,0.3-0.3,0.5-0.4
		c0.2-0.1,0.4-0.2,0.7-0.2c0.8,0,1.2,0.4,1.2,1.3v2.5h-0.6v-2.4c0-0.3-0.1-0.5-0.2-0.6c-0.1-0.1-0.3-0.2-0.6-0.2
		c-0.2,0-0.4,0.1-0.6,0.2c-0.2,0.1-0.2,0.3-0.3,0.6v2.4h-0.6v-2.4c0-0.5-0.3-0.8-0.8-0.8c-0.4,0-0.7,0.2-0.8,0.5v2.7h-0.6v-3.7
		L89.1,50.3L89.1,50.3z"/>
	<path class="st2" d="M100,49v3.4c0,0.5-0.2,0.8-0.4,1.2c-0.3,0.3-0.7,0.5-1.2,0.5l-0.2,0c-0.5,0-1-0.2-1.3-0.4s-0.5-0.7-0.5-1.2V49
		H97v3.4c0,0.4,0.1,0.6,0.3,0.8c0.2,0.2,0.5,0.3,0.8,0.3s0.7-0.1,0.8-0.3c0.2-0.2,0.3-0.5,0.3-0.8V49L100,49L100,49z"/>
	<path class="st2" d="M101.6,53.9H101v-5.2h0.6V53.9z"/>
	<path class="st2" d="M103.4,49.4v0.9h0.7v0.5h-0.7V53c0,0.2,0,0.3,0.1,0.3c0.1,0.1,0.2,0.1,0.3,0.1c0.1,0,0.2,0,0.3,0v0.5
		c-0.2,0.1-0.3,0.1-0.5,0.1c-0.3,0-0.5-0.1-0.6-0.3c-0.1-0.2-0.2-0.4-0.2-0.7v-2.3h-0.7v-0.5h0.7v-0.9H103.4z"/>
	<path class="st2" d="M106.7,50.8c-0.1,0-0.2,0-0.3,0c-0.4,0-0.7,0.2-0.8,0.5V54h-0.6v-3.7h0.6l0,0.4c0.2-0.3,0.5-0.5,0.9-0.5
		c0.1,0,0.2,0,0.3,0.1C106.7,50.3,106.7,50.8,106.7,50.8z"/>
	<path class="st2" d="M107.9,53.9h-0.6v-3.7h0.6V53.9z M107.2,49.3c0-0.1,0-0.2,0.1-0.3c0.1-0.1,0.2-0.1,0.3-0.1s0.2,0,0.3,0.1
		c0.1,0.1,0.1,0.2,0.1,0.3s0,0.2-0.1,0.3c-0.1,0.1-0.2,0.1-0.3,0.1s-0.2,0-0.3-0.1C107.3,49.5,107.2,49.4,107.2,49.3z"/>
	<path class="st2" d="M110.4,53.5c0.2,0,0.4-0.1,0.6-0.2c0.2-0.1,0.3-0.3,0.3-0.5h0.6c0,0.2-0.1,0.4-0.2,0.6
		c-0.1,0.2-0.3,0.3-0.5,0.5c-0.2,0.1-0.5,0.2-0.7,0.2c-0.5,0-0.9-0.2-1.2-0.5c-0.3-0.3-0.4-0.8-0.4-1.4V52c0-0.4,0.1-0.7,0.2-1
		c0.1-0.3,0.3-0.5,0.6-0.6c0.3-0.2,0.5-0.2,0.9-0.2c0.4,0,0.8,0.1,1,0.4c0.3,0.3,0.4,0.6,0.4,1h-0.6c0-0.2-0.1-0.4-0.3-0.6
		c-0.2-0.2-0.4-0.2-0.6-0.2c-0.3,0-0.6,0.1-0.7,0.3c-0.2,0.2-0.3,0.6-0.3,1v0.1c0,0.4,0.1,0.7,0.3,1
		C109.8,53.4,110.1,53.5,110.4,53.5z"/>
	<path class="st2" d="M114.1,54c-0.5,0-0.9-0.2-1.2-0.5c-0.3-0.3-0.5-0.8-0.5-1.3v-0.1c0-0.4,0.1-0.7,0.2-1c0.1-0.3,0.3-0.5,0.6-0.7
		c0.3-0.2,0.5-0.2,0.8-0.2c0.5,0,0.8,0.2,1.1,0.5c0.3,0.3,0.4,0.8,0.4,1.4v0.3H113c0,0.4,0.1,0.7,0.3,0.9c0.2,0.2,0.5,0.3,0.8,0.3
		c0.2,0,0.4-0.1,0.6-0.1c0.2-0.1,0.3-0.2,0.4-0.4l0.4,0.3C115.2,53.8,114.7,54,114.1,54z M114,50.7c-0.3,0-0.5,0.1-0.6,0.3
		c-0.2,0.2-0.3,0.4-0.3,0.8h1.8v0c0-0.3-0.1-0.6-0.3-0.7C114.5,50.8,114.3,50.7,114,50.7z"/>
	<path class="st2" d="M118.4,53c0-0.2-0.1-0.3-0.2-0.4c-0.1-0.1-0.4-0.2-0.7-0.2c-0.3-0.1-0.6-0.2-0.8-0.2c-0.2-0.1-0.3-0.2-0.4-0.3
		c-0.1-0.1-0.1-0.3-0.1-0.5c0-0.3,0.1-0.6,0.4-0.8c0.3-0.2,0.6-0.3,1-0.3c0.4,0,0.8,0.1,1,0.3c0.3,0.2,0.4,0.5,0.4,0.8h-0.6
		c0-0.2-0.1-0.3-0.2-0.4c-0.1-0.1-0.3-0.2-0.6-0.2s-0.4,0.1-0.5,0.2c-0.1,0.1-0.2,0.2-0.2,0.4c0,0.2,0.1,0.3,0.2,0.3
		c0.1,0.1,0.3,0.2,0.6,0.2c0.3,0.1,0.6,0.2,0.8,0.3c0.2,0.1,0.3,0.2,0.4,0.4c0.1,0.1,0.1,0.3,0.1,0.5c0,0.3-0.1,0.6-0.4,0.8
		c-0.3,0.2-0.6,0.3-1,0.3c-0.3,0-0.6-0.1-0.8-0.2c-0.2-0.1-0.4-0.3-0.5-0.4c-0.1-0.2-0.2-0.4-0.2-0.6h0.6c0,0.2,0.1,0.4,0.3,0.5
		c0.2,0.1,0.4,0.2,0.6,0.2c0.2,0,0.4-0.1,0.6-0.1C118.3,53.3,118.4,53.1,118.4,53z"/>
	<path class="st2" d="M125.5,53.9h-0.7l-2.5-3.8v3.8h-0.7v-5h0.7l2.5,3.8V49h0.6C125.5,49,125.5,53.9,125.5,53.9z"/>
	<path class="st2" d="M127.2,53.9h-0.6v-3.7h0.6V53.9z M126.5,49.3c0-0.1,0-0.2,0.1-0.3c0.1-0.1,0.2-0.1,0.3-0.1
		c0.1,0,0.2,0,0.3,0.1c0.1,0.1,0.1,0.2,0.1,0.3s0,0.2-0.1,0.3c-0.1,0.1-0.2,0.1-0.3,0.1c-0.1,0-0.2,0-0.3-0.1
		C126.6,49.5,126.5,49.4,126.5,49.3z"/>
	<path class="st2" d="M130.4,53c0-0.2-0.1-0.3-0.2-0.4c-0.1-0.1-0.4-0.2-0.7-0.2c-0.3-0.1-0.6-0.2-0.8-0.2c-0.2-0.1-0.3-0.2-0.4-0.3
		c-0.1-0.1-0.1-0.3-0.1-0.5c0-0.3,0.1-0.6,0.4-0.8c0.3-0.2,0.6-0.3,1-0.3c0.4,0,0.8,0.1,1,0.3c0.3,0.2,0.4,0.5,0.4,0.8h-0.6
		c0-0.2-0.1-0.3-0.2-0.4c-0.1-0.1-0.3-0.2-0.6-0.2s-0.4,0.1-0.5,0.2c-0.1,0.1-0.2,0.2-0.2,0.4c0,0.2,0.1,0.3,0.2,0.3
		c0.1,0.1,0.3,0.2,0.6,0.2c0.3,0.1,0.6,0.2,0.8,0.3c0.2,0.1,0.3,0.2,0.4,0.4c0.1,0.1,0.1,0.3,0.1,0.5c0,0.3-0.1,0.6-0.4,0.8
		c-0.3,0.2-0.6,0.3-1,0.3c-0.3,0-0.6-0.1-0.8-0.2c-0.2-0.1-0.4-0.3-0.5-0.4c-0.1-0.2-0.2-0.4-0.2-0.6h0.6c0,0.2,0.1,0.4,0.3,0.5
		c0.2,0.1,0.4,0.2,0.6,0.2c0.2,0,0.4-0.1,0.6-0.1C130.3,53.3,130.4,53.1,130.4,53z"/>
	<path class="st2" d="M132.5,53.9h-0.6v-5.2h0.6V53.9z"/>
	<path class="st2" d="M139,52.4c-0.1,0.5-0.3,0.9-0.6,1.2c-0.3,0.3-0.8,0.4-1.3,0.4c-0.6,0-1-0.2-1.4-0.6c-0.4-0.4-0.5-1-0.5-1.7
		v-0.5c0-0.5,0.1-0.9,0.2-1.2c0.2-0.4,0.4-0.6,0.7-0.8c0.3-0.2,0.6-0.3,1-0.3c0.5,0,0.9,0.2,1.3,0.4c0.3,0.3,0.5,0.7,0.6,1.2h-0.7
		c-0.1-0.4-0.2-0.7-0.4-0.9s-0.5-0.3-0.8-0.3c-0.4,0-0.7,0.2-1,0.5c-0.2,0.3-0.4,0.7-0.4,1.3v0.5c0,0.5,0.1,1,0.3,1.3
		c0.2,0.3,0.5,0.5,0.9,0.5c0.4,0,0.6-0.1,0.8-0.2s0.3-0.5,0.4-0.9L139,52.4L139,52.4z"/>
	<path class="st2" d="M139.6,52.1c0-0.4,0.1-0.7,0.2-1c0.1-0.3,0.3-0.5,0.6-0.7c0.3-0.2,0.5-0.2,0.9-0.2c0.5,0,0.9,0.2,1.2,0.5
		c0.3,0.3,0.5,0.8,0.5,1.4v0c0,0.4-0.1,0.7-0.2,1c-0.1,0.3-0.3,0.5-0.6,0.7c-0.3,0.2-0.5,0.2-0.9,0.2c-0.5,0-0.9-0.2-1.2-0.5
		C139.8,53.1,139.6,52.6,139.6,52.1L139.6,52.1L139.6,52.1z M140.3,52.1c0,0.4,0.1,0.7,0.3,1s0.4,0.4,0.8,0.4c0.3,0,0.6-0.1,0.8-0.4
		c0.2-0.3,0.3-0.6,0.3-1c0-0.4-0.1-0.7-0.3-1c-0.2-0.3-0.4-0.4-0.8-0.4c-0.3,0-0.6,0.1-0.7,0.4C140.3,51.3,140.3,51.7,140.3,52.1z"
		/>
	<path class="st2" d="M144.3,50.3l0,0.5c0.3-0.4,0.6-0.5,1.1-0.5c0.8,0,1.2,0.4,1.2,1.3v2.4H146v-2.4c0-0.3-0.1-0.5-0.2-0.6
		c-0.1-0.1-0.3-0.2-0.6-0.2c-0.2,0-0.4,0.1-0.5,0.2c-0.2,0.1-0.3,0.3-0.4,0.4v2.6h-0.6v-3.7L144.3,50.3L144.3,50.3z"/>
	<path class="st2" d="M148.8,53.1l0.9-2.8h0.6l-1.3,3.7h-0.5l-1.3-3.7h0.6L148.8,53.1z"/>
	<path class="st2" d="M153.2,53.9c0-0.1-0.1-0.2-0.1-0.4c-0.3,0.3-0.6,0.5-1,0.5c-0.4,0-0.7-0.1-0.9-0.3c-0.2-0.2-0.3-0.5-0.3-0.8
		c0-0.4,0.1-0.7,0.4-0.9c0.3-0.2,0.7-0.3,1.2-0.3h0.6v-0.3c0-0.2-0.1-0.4-0.2-0.5c-0.1-0.1-0.3-0.2-0.6-0.2c-0.2,0-0.4,0.1-0.6,0.2
		c-0.2,0.1-0.2,0.3-0.2,0.4h-0.6c0-0.2,0.1-0.4,0.2-0.5c0.1-0.2,0.3-0.3,0.5-0.4c0.2-0.1,0.5-0.2,0.7-0.2c0.4,0,0.8,0.1,1,0.3
		s0.4,0.5,0.4,0.9v1.7c0,0.3,0,0.6,0.1,0.8v0.1C153.8,53.9,153.2,53.9,153.2,53.9z M152.1,53.5c0.2,0,0.4-0.1,0.6-0.2
		c0.2-0.1,0.3-0.2,0.4-0.4v-0.8h-0.5c-0.8,0-1.2,0.2-1.2,0.7c0,0.2,0.1,0.4,0.2,0.5C151.8,53.4,151.9,53.5,152.1,53.5z"/>
	<path class="st2" d="M155.4,53.9h-0.6v-5.2h0.6V53.9z"/>
	<path class="st2" d="M157.1,53.9h-0.6v-5.2h0.6V53.9z"/>
	<path class="st2" d="M158.8,53.9h-0.6v-3.7h0.6V53.9z M158.1,49.3c0-0.1,0-0.2,0.1-0.3c0.1-0.1,0.2-0.1,0.3-0.1
		c0.1,0,0.2,0,0.3,0.1c0.1,0.1,0.1,0.2,0.1,0.3s0,0.2-0.1,0.3c-0.1,0.1-0.2,0.1-0.3,0.1c-0.1,0-0.2,0-0.3-0.1
		C158.1,49.5,158.1,49.4,158.1,49.3z"/>
	<path class="st2" d="M161.9,53c0-0.2-0.1-0.3-0.2-0.4c-0.1-0.1-0.4-0.2-0.7-0.2c-0.3-0.1-0.6-0.2-0.8-0.2c-0.2-0.1-0.3-0.2-0.4-0.3
		c-0.1-0.1-0.1-0.3-0.1-0.5c0-0.3,0.1-0.6,0.4-0.8c0.3-0.2,0.6-0.3,1-0.3c0.4,0,0.8,0.1,1,0.3c0.3,0.2,0.4,0.5,0.4,0.8h-0.6
		c0-0.2-0.1-0.3-0.2-0.4c-0.1-0.1-0.3-0.2-0.6-0.2c-0.2,0-0.4,0.1-0.5,0.2c-0.1,0.1-0.2,0.2-0.2,0.4c0,0.2,0.1,0.3,0.2,0.3
		c0.1,0.1,0.3,0.2,0.6,0.2c0.3,0.1,0.6,0.2,0.8,0.3c0.2,0.1,0.3,0.2,0.4,0.4c0.1,0.1,0.1,0.3,0.1,0.5c0,0.3-0.1,0.6-0.4,0.8
		c-0.3,0.2-0.6,0.3-1,0.3c-0.3,0-0.6-0.1-0.8-0.2c-0.2-0.1-0.4-0.3-0.5-0.4c-0.1-0.2-0.2-0.4-0.2-0.6h0.6c0,0.2,0.1,0.4,0.3,0.5
		c0.2,0.1,0.4,0.2,0.6,0.2c0.2,0,0.4-0.1,0.6-0.1C161.8,53.3,161.9,53.1,161.9,53z"/>
	<path class="st2" d="M163.4,54.9l-0.4-0.2c0.2-0.3,0.3-0.6,0.3-0.9v-0.6h0.6v0.5c0,0.2-0.1,0.5-0.2,0.7
		C163.7,54.6,163.5,54.8,163.4,54.9z"/>
	<path class="st2" d="M169.4,51.6h-2.1v1.8h2.5v0.5h-3.1v-5h3.1v0.5h-2.5v1.6h2.1V51.6z"/>
	<path class="st2" d="M171.1,53.9h-0.6v-5.2h0.6V53.9z"/>
	<path class="st2" d="M173.6,54c-0.5,0-0.9-0.2-1.2-0.5c-0.3-0.3-0.5-0.8-0.5-1.3v-0.1c0-0.4,0.1-0.7,0.2-1c0.1-0.3,0.3-0.5,0.6-0.7
		c0.3-0.2,0.5-0.2,0.8-0.2c0.5,0,0.8,0.2,1.1,0.5c0.3,0.3,0.4,0.8,0.4,1.4v0.3h-2.5c0,0.4,0.1,0.7,0.3,0.9c0.2,0.2,0.5,0.3,0.8,0.3
		c0.2,0,0.4-0.1,0.6-0.1c0.2-0.1,0.3-0.2,0.4-0.4l0.4,0.3C174.7,53.8,174.3,54,173.6,54z M173.6,50.7c-0.3,0-0.5,0.1-0.6,0.3
		c-0.2,0.2-0.3,0.4-0.3,0.8h1.8v0c0-0.3-0.1-0.6-0.3-0.7C174,50.8,173.8,50.7,173.6,50.7z"/>
	<path class="st2" d="M176.4,50.3l0,0.4c0.3-0.3,0.6-0.5,1.1-0.5c0.5,0,0.9,0.2,1,0.6c0.1-0.2,0.3-0.3,0.5-0.4
		c0.2-0.1,0.4-0.2,0.7-0.2c0.8,0,1.2,0.4,1.2,1.3v2.5h-0.6v-2.4c0-0.3-0.1-0.5-0.2-0.6c-0.1-0.1-0.3-0.2-0.6-0.2
		c-0.2,0-0.4,0.1-0.6,0.2c-0.2,0.1-0.2,0.3-0.3,0.6v2.4h-0.6v-2.4c0-0.5-0.3-0.8-0.8-0.8c-0.4,0-0.7,0.2-0.8,0.5v2.7h-0.6v-3.7
		L176.4,50.3L176.4,50.3z"/>
	<path class="st2" d="M183.4,54c-0.5,0-0.9-0.2-1.2-0.5c-0.3-0.3-0.5-0.8-0.5-1.3v-0.1c0-0.4,0.1-0.7,0.2-1c0.1-0.3,0.3-0.5,0.6-0.7
		c0.3-0.2,0.5-0.2,0.8-0.2c0.5,0,0.8,0.2,1.1,0.5c0.3,0.3,0.4,0.8,0.4,1.4v0.3h-2.5c0,0.4,0.1,0.7,0.3,0.9c0.2,0.2,0.5,0.3,0.8,0.3
		c0.2,0,0.4-0.1,0.6-0.1c0.2-0.1,0.3-0.2,0.4-0.4l0.4,0.3C184.5,53.8,184.1,54,183.4,54z M183.4,50.7c-0.3,0-0.5,0.1-0.6,0.3
		c-0.2,0.2-0.3,0.4-0.3,0.8h1.8v0c0-0.3-0.1-0.6-0.3-0.7C183.8,50.8,183.6,50.7,183.4,50.7z"/>
	<path class="st2" d="M186.2,50.3l0,0.5c0.3-0.4,0.6-0.5,1.1-0.5c0.8,0,1.2,0.4,1.2,1.3v2.4h-0.6v-2.4c0-0.3-0.1-0.5-0.2-0.6
		c-0.1-0.1-0.3-0.2-0.6-0.2c-0.2,0-0.4,0.1-0.5,0.2c-0.2,0.1-0.3,0.3-0.4,0.4v2.6h-0.6v-3.7L186.2,50.3L186.2,50.3z"/>
	<path class="st2" d="M190.3,49.4v0.9h0.7v0.5h-0.7V53c0,0.2,0,0.3,0.1,0.3c0.1,0.1,0.2,0.1,0.3,0.1c0.1,0,0.2,0,0.3,0v0.5
		c-0.2,0.1-0.3,0.1-0.5,0.1c-0.3,0-0.5-0.1-0.6-0.3c-0.1-0.2-0.2-0.4-0.2-0.7v-2.3H189v-0.5h0.7v-0.9H190.3z"/>
	<path class="st2" d="M194,53.6c-0.2,0.3-0.6,0.4-1.1,0.4c-0.4,0-0.7-0.1-0.9-0.3c-0.2-0.2-0.3-0.6-0.3-1v-2.4h0.6v2.4
		c0,0.6,0.2,0.8,0.7,0.8c0.5,0,0.8-0.2,1-0.5v-2.7h0.6v3.7H194L194,53.6z"/>
	<path class="st2" d="M196.2,50.3l0,0.4c0.3-0.3,0.6-0.5,1.1-0.5c0.5,0,0.9,0.2,1,0.6c0.1-0.2,0.3-0.3,0.5-0.4
		c0.2-0.1,0.4-0.2,0.7-0.2c0.8,0,1.2,0.4,1.2,1.3v2.5h-0.6v-2.4c0-0.3-0.1-0.5-0.2-0.6c-0.1-0.1-0.3-0.2-0.6-0.2
		c-0.2,0-0.4,0.1-0.6,0.2c-0.2,0.1-0.2,0.3-0.3,0.6v2.4h-0.6v-2.4c0-0.5-0.3-0.8-0.8-0.8c-0.4,0-0.7,0.2-0.8,0.5v2.7h-0.6v-3.7
		L196.2,50.3L196.2,50.3z"/>
	<path class="st2" d="M204.3,49l1.6,4l1.6-4h0.8v5h-0.7V52l0.1-2.1l-1.6,4h-0.5l-1.6-4l0.1,2.1v1.9h-0.7v-5H204.3z"/>
	<path class="st2" d="M211.7,53.9c0-0.1-0.1-0.2-0.1-0.4c-0.3,0.3-0.6,0.5-1,0.5c-0.4,0-0.7-0.1-0.9-0.3c-0.2-0.2-0.3-0.5-0.3-0.8
		c0-0.4,0.1-0.7,0.4-0.9c0.3-0.2,0.7-0.3,1.2-0.3h0.6v-0.3c0-0.2-0.1-0.4-0.2-0.5c-0.1-0.1-0.3-0.2-0.6-0.2c-0.2,0-0.4,0.1-0.6,0.2
		c-0.2,0.1-0.2,0.3-0.2,0.4h-0.6c0-0.2,0.1-0.4,0.2-0.5c0.1-0.2,0.3-0.3,0.5-0.4c0.2-0.1,0.5-0.2,0.7-0.2c0.4,0,0.8,0.1,1,0.3
		c0.2,0.2,0.4,0.5,0.4,0.9v1.7c0,0.3,0,0.6,0.1,0.8v0.1C212.4,53.9,211.7,53.9,211.7,53.9z M210.7,53.5c0.2,0,0.4-0.1,0.6-0.2
		c0.2-0.1,0.3-0.2,0.4-0.4v-0.8h-0.5c-0.8,0-1.2,0.2-1.2,0.7c0,0.2,0.1,0.4,0.2,0.5C210.3,53.4,210.5,53.5,210.7,53.5z"/>
	<path class="st2" d="M215.5,53.6c-0.2,0.3-0.6,0.4-1.1,0.4c-0.4,0-0.7-0.1-0.9-0.3c-0.2-0.2-0.3-0.6-0.3-1v-2.4h0.6v2.4
		c0,0.6,0.2,0.8,0.7,0.8c0.5,0,0.8-0.2,1-0.5v-2.7h0.6v3.7h-0.6L215.5,53.6z"/>
	<path class="st2" d="M218.9,50.8c-0.1,0-0.2,0-0.3,0c-0.4,0-0.7,0.2-0.8,0.5V54h-0.6v-3.7h0.6l0,0.4c0.2-0.3,0.5-0.5,0.9-0.5
		c0.1,0,0.2,0,0.3,0.1L218.9,50.8L218.9,50.8z"/>
	<path class="st2" d="M220.1,53.9h-0.6v-3.7h0.6V53.9z M219.5,49.3c0-0.1,0-0.2,0.1-0.3c0.1-0.1,0.2-0.1,0.3-0.1
		c0.1,0,0.2,0,0.3,0.1c0.1,0.1,0.1,0.2,0.1,0.3s0,0.2-0.1,0.3c-0.1,0.1-0.2,0.1-0.3,0.1c-0.1,0-0.2,0-0.3-0.1
		C219.5,49.5,219.5,49.4,219.5,49.3z"/>
	<path class="st2" d="M223.3,53c0-0.2-0.1-0.3-0.2-0.4c-0.1-0.1-0.4-0.2-0.7-0.2c-0.3-0.1-0.6-0.2-0.8-0.2c-0.2-0.1-0.3-0.2-0.4-0.3
		c-0.1-0.1-0.1-0.3-0.1-0.5c0-0.3,0.1-0.6,0.4-0.8c0.3-0.2,0.6-0.3,1-0.3c0.4,0,0.8,0.1,1,0.3c0.3,0.2,0.4,0.5,0.4,0.8h-0.6
		c0-0.2-0.1-0.3-0.2-0.4c-0.1-0.1-0.3-0.2-0.6-0.2c-0.2,0-0.4,0.1-0.5,0.2c-0.1,0.1-0.2,0.2-0.2,0.4c0,0.2,0.1,0.3,0.2,0.3
		c0.1,0.1,0.3,0.2,0.6,0.2c0.3,0.1,0.6,0.2,0.8,0.3c0.2,0.1,0.3,0.2,0.4,0.4c0.1,0.1,0.1,0.3,0.1,0.5c0,0.3-0.1,0.6-0.4,0.8
		s-0.6,0.3-1,0.3c-0.3,0-0.6-0.1-0.8-0.2c-0.2-0.1-0.4-0.3-0.5-0.4c-0.1-0.2-0.2-0.4-0.2-0.6h0.6c0,0.2,0.1,0.4,0.3,0.5
		c0.2,0.1,0.4,0.2,0.6,0.2c0.2,0,0.4-0.1,0.6-0.1C223.2,53.3,223.3,53.1,223.3,53z"/>
	<path class="st2" d="M229.9,49.5h-1.6v4.4h-0.6v-4.4H226V49h3.8L229.9,49.5L229.9,49.5z"/>
	<path class="st2" d="M231.2,53.9h-0.6v-3.7h0.6V53.9z M230.5,49.3c0-0.1,0-0.2,0.1-0.3c0.1-0.1,0.2-0.1,0.3-0.1s0.2,0,0.3,0.1
		c0.1,0.1,0.1,0.2,0.1,0.3s0,0.2-0.1,0.3c-0.1,0.1-0.2,0.1-0.3,0.1s-0.2,0-0.3-0.1C230.5,49.5,230.5,49.4,230.5,49.3z"/>
	<path class="st2" d="M232.8,50.3l0,0.5c0.3-0.4,0.6-0.5,1.1-0.5c0.8,0,1.2,0.4,1.2,1.3v2.4h-0.6v-2.4c0-0.3-0.1-0.5-0.2-0.6
		c-0.1-0.1-0.3-0.2-0.6-0.2c-0.2,0-0.4,0.1-0.5,0.2c-0.2,0.1-0.3,0.3-0.4,0.4v2.6h-0.6v-3.7L232.8,50.3L232.8,50.3z"/>
	<path class="st2" d="M237.5,53.5c0.2,0,0.4-0.1,0.6-0.2c0.2-0.1,0.3-0.3,0.3-0.5h0.6c0,0.2-0.1,0.4-0.2,0.6
		c-0.1,0.2-0.3,0.3-0.5,0.5c-0.2,0.1-0.5,0.2-0.7,0.2c-0.5,0-0.9-0.2-1.2-0.5c-0.3-0.3-0.4-0.8-0.4-1.4V52c0-0.4,0.1-0.7,0.2-1
		c0.1-0.3,0.3-0.5,0.6-0.6c0.3-0.2,0.5-0.2,0.9-0.2c0.4,0,0.8,0.1,1,0.4c0.3,0.3,0.4,0.6,0.4,1h-0.6c0-0.2-0.1-0.4-0.3-0.6
		c-0.2-0.2-0.4-0.2-0.6-0.2c-0.3,0-0.6,0.1-0.7,0.3c-0.2,0.2-0.3,0.6-0.3,1v0.1c0,0.4,0.1,0.7,0.3,1
		C236.9,53.4,237.2,53.5,237.5,53.5z"/>
	<path class="st2" d="M240.4,53.9h-0.6v-3.7h0.6V53.9z M239.7,49.3c0-0.1,0-0.2,0.1-0.3c0.1-0.1,0.2-0.1,0.3-0.1
		c0.1,0,0.2,0,0.3,0.1c0.1,0.1,0.1,0.2,0.1,0.3s0,0.2-0.1,0.3c-0.1,0.1-0.2,0.1-0.3,0.1c-0.1,0-0.2,0-0.3-0.1
		C239.7,49.5,239.7,49.4,239.7,49.3z"/>
	<path class="st2" d="M241.2,52.1c0-0.6,0.1-1,0.4-1.4c0.3-0.3,0.6-0.5,1-0.5c0.4,0,0.8,0.2,1,0.4v-1.9h0.6v5.2h-0.6l0-0.4
		c-0.3,0.3-0.6,0.5-1,0.5c-0.4,0-0.8-0.2-1-0.5C241.4,53.1,241.2,52.7,241.2,52.1L241.2,52.1L241.2,52.1z M241.8,52.1
		c0,0.4,0.1,0.7,0.3,1c0.2,0.2,0.4,0.4,0.7,0.4c0.4,0,0.7-0.2,0.9-0.5v-1.7c-0.2-0.3-0.5-0.5-0.9-0.5c-0.3,0-0.5,0.1-0.7,0.4
		C241.9,51.3,241.8,51.7,241.8,52.1z"/>
	<path class="st2" d="M247.6,53.6c-0.2,0.3-0.6,0.4-1.1,0.4c-0.4,0-0.7-0.1-0.9-0.3c-0.2-0.2-0.3-0.6-0.3-1v-2.4h0.6v2.4
		c0,0.6,0.2,0.8,0.7,0.8c0.5,0,0.8-0.2,1-0.5v-2.7h0.6v3.7h-0.6L247.6,53.6z"/>
	<path class="st2" d="M249.7,50.3l0,0.5c0.3-0.4,0.6-0.5,1.1-0.5c0.8,0,1.2,0.4,1.2,1.3v2.4h-0.6v-2.4c0-0.3-0.1-0.5-0.2-0.6
		c-0.1-0.1-0.3-0.2-0.6-0.2c-0.2,0-0.4,0.1-0.5,0.2c-0.2,0.1-0.3,0.3-0.4,0.4v2.6h-0.6v-3.7L249.7,50.3L249.7,50.3z"/>
	<path class="st2" d="M253.8,49.4v0.9h0.7v0.5h-0.7V53c0,0.2,0,0.3,0.1,0.3c0.1,0.1,0.2,0.1,0.3,0.1c0.1,0,0.2,0,0.3,0v0.5
		c-0.2,0.1-0.3,0.1-0.5,0.1c-0.3,0-0.5-0.1-0.6-0.3c-0.1-0.2-0.2-0.4-0.2-0.7v-2.3h-0.7v-0.5h0.7v-0.9H253.8z"/>
	<path class="st2" d="M255.2,54.9l-0.4-0.2c0.2-0.3,0.3-0.6,0.3-0.9v-0.6h0.6v0.5c0,0.2-0.1,0.5-0.2,0.7
		C255.5,54.6,255.4,54.8,255.2,54.9z"/>
	<path class="st2" d="M259.1,53.4h2.4v0.5h-3v-5h0.7L259.1,53.4L259.1,53.4z"/>
	<path class="st2" d="M264.4,53.9c0-0.1-0.1-0.2-0.1-0.4c-0.3,0.3-0.6,0.5-1,0.5c-0.4,0-0.7-0.1-0.9-0.3c-0.2-0.2-0.3-0.5-0.3-0.8
		c0-0.4,0.1-0.7,0.4-0.9c0.3-0.2,0.7-0.3,1.2-0.3h0.6v-0.3c0-0.2-0.1-0.4-0.2-0.5c-0.1-0.1-0.3-0.2-0.6-0.2c-0.2,0-0.4,0.1-0.6,0.2
		c-0.2,0.1-0.2,0.3-0.2,0.4H262c0-0.2,0.1-0.4,0.2-0.5c0.1-0.2,0.3-0.3,0.5-0.4c0.2-0.1,0.5-0.2,0.7-0.2c0.4,0,0.8,0.1,1,0.3
		s0.4,0.5,0.4,0.9v1.7c0,0.3,0,0.6,0.1,0.8v0.1C265,53.9,264.4,53.9,264.4,53.9z M263.3,53.5c0.2,0,0.4-0.1,0.6-0.2
		c0.2-0.1,0.3-0.2,0.4-0.4v-0.8h-0.5c-0.8,0-1.2,0.2-1.2,0.7c0,0.2,0.1,0.4,0.2,0.5C263,53.4,263.1,53.5,263.3,53.5z"/>
	<path class="st2" d="M265.7,52.1c0-0.4,0.1-0.7,0.2-1c0.1-0.3,0.3-0.5,0.6-0.7c0.3-0.2,0.5-0.2,0.9-0.2c0.5,0,0.9,0.2,1.2,0.5
		c0.3,0.3,0.5,0.8,0.5,1.4v0c0,0.4-0.1,0.7-0.2,1c-0.1,0.3-0.3,0.5-0.6,0.7c-0.3,0.2-0.5,0.2-0.9,0.2c-0.5,0-0.9-0.2-1.2-0.5
		C265.9,53.1,265.7,52.6,265.7,52.1L265.7,52.1L265.7,52.1z M266.4,52.1c0,0.4,0.1,0.7,0.3,1s0.4,0.4,0.8,0.4c0.3,0,0.6-0.1,0.8-0.4
		s0.3-0.6,0.3-1c0-0.4-0.1-0.7-0.3-1c-0.2-0.3-0.4-0.4-0.8-0.4c-0.3,0-0.6,0.1-0.7,0.4C266.4,51.3,266.4,51.7,266.4,52.1z"/>
	<path class="st2" d="M271.6,50.8c-0.1,0-0.2,0-0.3,0c-0.4,0-0.7,0.2-0.8,0.5V54h-0.6v-3.7h0.6l0,0.4c0.2-0.3,0.5-0.5,0.9-0.5
		c0.1,0,0.2,0,0.3,0.1L271.6,50.8L271.6,50.8z"/>
	<path class="st2" d="M273.7,54c-0.5,0-0.9-0.2-1.2-0.5c-0.3-0.3-0.5-0.8-0.5-1.3v-0.1c0-0.4,0.1-0.7,0.2-1c0.1-0.3,0.3-0.5,0.6-0.7
		c0.3-0.2,0.5-0.2,0.8-0.2c0.5,0,0.8,0.2,1.1,0.5c0.3,0.3,0.4,0.8,0.4,1.4v0.3h-2.5c0,0.4,0.1,0.7,0.3,0.9c0.2,0.2,0.5,0.3,0.8,0.3
		c0.2,0,0.4-0.1,0.6-0.1c0.2-0.1,0.3-0.2,0.4-0.4l0.4,0.3C274.7,53.8,274.3,54,273.7,54z M273.6,50.7c-0.3,0-0.5,0.1-0.6,0.3
		c-0.2,0.2-0.3,0.4-0.3,0.8h1.8v0c0-0.3-0.1-0.6-0.3-0.7C274.1,50.8,273.9,50.7,273.6,50.7z"/>
	<path class="st2" d="M277.4,54c-0.5,0-0.9-0.2-1.2-0.5c-0.3-0.3-0.5-0.8-0.5-1.3v-0.1c0-0.4,0.1-0.7,0.2-1c0.1-0.3,0.3-0.5,0.6-0.7
		c0.3-0.2,0.5-0.2,0.8-0.2c0.5,0,0.8,0.2,1.1,0.5c0.3,0.3,0.4,0.8,0.4,1.4v0.3h-2.5c0,0.4,0.1,0.7,0.3,0.9c0.2,0.2,0.5,0.3,0.8,0.3
		c0.2,0,0.4-0.1,0.6-0.1c0.2-0.1,0.3-0.2,0.4-0.4l0.4,0.3C278.4,53.8,278,54,277.4,54z M277.3,50.7c-0.3,0-0.5,0.1-0.6,0.3
		c-0.2,0.2-0.3,0.4-0.3,0.8h1.8v0c0-0.3-0.1-0.6-0.3-0.7C277.8,50.8,277.6,50.7,277.3,50.7z"/>
	<path class="st2" d="M280.4,49.4v0.9h0.7v0.5h-0.7V53c0,0.2,0,0.3,0.1,0.3c0.1,0.1,0.2,0.1,0.3,0.1c0.1,0,0.2,0,0.3,0v0.5
		c-0.2,0.1-0.3,0.1-0.5,0.1c-0.3,0-0.5-0.1-0.6-0.3c-0.1-0.2-0.2-0.4-0.2-0.7v-2.3h-0.7v-0.5h0.7v-0.9H280.4z"/>
	<path class="st2" d="M287.4,53.9h-0.7l-2.5-3.8v3.8h-0.7v-5h0.7l2.5,3.8V49h0.6V53.9L287.4,53.9z"/>
	<path class="st2" d="M289.2,53.9h-0.6v-3.7h0.6V53.9z M288.5,49.3c0-0.1,0-0.2,0.1-0.3c0.1-0.1,0.2-0.1,0.3-0.1s0.2,0,0.3,0.1
		c0.1,0.1,0.1,0.2,0.1,0.3s0,0.2-0.1,0.3c-0.1,0.1-0.2,0.1-0.3,0.1s-0.2,0-0.3-0.1C288.5,49.5,288.5,49.4,288.5,49.3z"/>
	<path class="st2" d="M292.3,53c0-0.2-0.1-0.3-0.2-0.4c-0.1-0.1-0.4-0.2-0.7-0.2c-0.3-0.1-0.6-0.2-0.8-0.2c-0.2-0.1-0.3-0.2-0.4-0.3
		c-0.1-0.1-0.1-0.3-0.1-0.5c0-0.3,0.1-0.6,0.4-0.8c0.3-0.2,0.6-0.3,1-0.3c0.4,0,0.8,0.1,1,0.3c0.3,0.2,0.4,0.5,0.4,0.8h-0.6
		c0-0.2-0.1-0.3-0.2-0.4c-0.1-0.1-0.3-0.2-0.6-0.2s-0.4,0.1-0.5,0.2c-0.1,0.1-0.2,0.2-0.2,0.4c0,0.2,0.1,0.3,0.2,0.3
		c0.1,0.1,0.3,0.2,0.6,0.2c0.3,0.1,0.6,0.2,0.8,0.3c0.2,0.1,0.3,0.2,0.4,0.4c0.1,0.1,0.1,0.3,0.1,0.5c0,0.3-0.1,0.6-0.4,0.8
		c-0.3,0.2-0.6,0.3-1,0.3c-0.3,0-0.6-0.1-0.8-0.2c-0.2-0.1-0.4-0.3-0.5-0.4c-0.1-0.2-0.2-0.4-0.2-0.6h0.6c0,0.2,0.1,0.4,0.3,0.5
		c0.2,0.1,0.4,0.2,0.6,0.2c0.2,0,0.4-0.1,0.6-0.1C292.3,53.3,292.3,53.1,292.3,53z"/>
	<path class="st2" d="M294.5,53.9h-0.6v-5.2h0.6V53.9z"/>
	<path class="st2" d="M295.5,53.6c0-0.1,0-0.2,0.1-0.3c0.1-0.1,0.2-0.1,0.3-0.1c0.1,0,0.2,0,0.3,0.1c0.1,0.1,0.1,0.2,0.1,0.3
		c0,0.1,0,0.2-0.1,0.3c-0.1,0.1-0.2,0.1-0.3,0.1s-0.2,0-0.3-0.1C295.5,53.8,295.5,53.7,295.5,53.6z"/>
	<path class="st2" d="M70,60.3l1.6,4l1.6-4h0.8v5h-0.6v-1.9l0.1-2.1l-1.6,4h-0.5l-1.6-4l0.1,2.1v1.9h-0.7v-5
		C69.1,60.3,70,60.3,70,60.3z"/>
	<path class="st2" d="M74.9,63.4c0-0.4,0.1-0.7,0.2-1c0.1-0.3,0.3-0.5,0.6-0.7c0.3-0.2,0.5-0.2,0.9-0.2c0.5,0,0.9,0.2,1.2,0.5
		c0.3,0.3,0.5,0.8,0.5,1.4v0c0,0.4-0.1,0.7-0.2,1s-0.3,0.5-0.6,0.7c-0.3,0.2-0.5,0.2-0.9,0.2c-0.5,0-0.9-0.2-1.2-0.5
		C75.1,64.4,75,64,74.9,63.4L74.9,63.4L74.9,63.4z M75.6,63.4c0,0.4,0.1,0.7,0.3,1c0.2,0.3,0.4,0.4,0.8,0.4s0.6-0.1,0.8-0.4
		c0.2-0.3,0.3-0.6,0.3-1c0-0.4-0.1-0.7-0.3-1c-0.2-0.3-0.4-0.4-0.8-0.4s-0.6,0.1-0.7,0.4C75.7,62.6,75.6,63,75.6,63.4z"/>
	<path class="st2" d="M80.9,62.1c-0.1,0-0.2,0-0.3,0c-0.4,0-0.7,0.2-0.8,0.5v2.6h-0.6v-3.7h0.6l0,0.4c0.2-0.3,0.5-0.5,0.9-0.5
		c0.1,0,0.2,0,0.3,0.1C80.9,61.6,80.9,62.1,80.9,62.1z"/>
	<path class="st2" d="M84.6,63.4c0,0.6-0.1,1-0.4,1.4c-0.3,0.3-0.6,0.5-1,0.5c-0.5,0-0.8-0.2-1.1-0.5l0,0.4h-0.6V60h0.6V62
		c0.3-0.3,0.6-0.5,1-0.5c0.4,0,0.8,0.2,1,0.5C84.4,62.3,84.6,62.8,84.6,63.4L84.6,63.4L84.6,63.4z M83.9,63.4c0-0.4-0.1-0.8-0.3-1
		C83.5,62.2,83.3,62,83,62c-0.4,0-0.7,0.2-0.9,0.6v1.6c0.2,0.4,0.5,0.6,0.9,0.6c0.3,0,0.5-0.1,0.7-0.4
		C83.9,64.2,83.9,63.8,83.9,63.4z"/>
	<path class="st2" d="M86.1,65.3h-0.6v-3.7h0.6V65.3z M85.4,60.6c0-0.1,0-0.2,0.1-0.3c0.1-0.1,0.2-0.1,0.3-0.1c0.1,0,0.2,0,0.3,0.1
		c0.1,0.1,0.1,0.2,0.1,0.3s0,0.2-0.1,0.3c-0.1,0.1-0.2,0.1-0.3,0.1c-0.1,0-0.2,0-0.3-0.1C85.4,60.8,85.4,60.7,85.4,60.6z"/>
	<path class="st2" d="M92.7,62.9c0,0.5-0.1,0.9-0.2,1.3c-0.2,0.4-0.4,0.6-0.7,0.8c-0.3,0.2-0.6,0.3-1,0.3c-0.4,0-0.7-0.1-1-0.3
		c-0.3-0.2-0.5-0.5-0.7-0.8c-0.2-0.4-0.3-0.8-0.3-1.2v-0.4c0-0.5,0.1-0.9,0.3-1.3c0.2-0.4,0.4-0.6,0.7-0.8c0.3-0.2,0.6-0.3,1-0.3
		c0.4,0,0.7,0.1,1,0.3c0.3,0.2,0.5,0.5,0.7,0.8c0.2,0.4,0.2,0.8,0.2,1.3L92.7,62.9L92.7,62.9z M92,62.6c0-0.6-0.1-1-0.4-1.4
		c-0.2-0.3-0.6-0.5-1-0.5s-0.7,0.2-1,0.5c-0.2,0.3-0.4,0.7-0.4,1.3v0.4c0,0.6,0.1,1,0.4,1.3c0.2,0.3,0.6,0.5,1,0.5s0.7-0.2,1-0.5
		C91.9,64,92,63.5,92,63L92,62.6L92,62.6z"/>
	<path class="st2" d="M95.3,62.1c-0.1,0-0.2,0-0.3,0c-0.4,0-0.7,0.2-0.8,0.5v2.6h-0.6v-3.7h0.6l0,0.4c0.2-0.3,0.5-0.5,0.9-0.5
		c0.1,0,0.2,0,0.3,0.1C95.3,61.6,95.3,62.1,95.3,62.1z"/>
	<path class="st2" d="M96.5,61.6l0,0.5c0.3-0.4,0.6-0.5,1.1-0.5c0.8,0,1.2,0.4,1.2,1.3v2.4h-0.6v-2.4c0-0.3-0.1-0.5-0.2-0.6
		c-0.1-0.1-0.3-0.2-0.6-0.2c-0.2,0-0.4,0.1-0.5,0.2c-0.2,0.1-0.3,0.3-0.4,0.4v2.6h-0.6v-3.7H96.5z"/>
	<path class="st2" d="M102,65.3c0-0.1-0.1-0.2-0.1-0.4c-0.3,0.3-0.6,0.5-1,0.5c-0.4,0-0.7-0.1-0.9-0.3c-0.2-0.2-0.3-0.5-0.3-0.8
		c0-0.4,0.1-0.7,0.4-0.9c0.3-0.2,0.7-0.3,1.2-0.3h0.6v-0.3c0-0.2-0.1-0.4-0.2-0.5c-0.1-0.1-0.3-0.2-0.6-0.2c-0.2,0-0.4,0.1-0.6,0.2
		c-0.2,0.1-0.2,0.3-0.2,0.4h-0.6c0-0.2,0.1-0.4,0.2-0.5c0.1-0.2,0.3-0.3,0.5-0.4c0.2-0.1,0.5-0.2,0.7-0.2c0.4,0,0.8,0.1,1,0.3
		c0.2,0.2,0.4,0.5,0.4,0.9v1.7c0,0.3,0,0.6,0.1,0.8v0.1C102.7,65.3,102,65.3,102,65.3z M101,64.8c0.2,0,0.4-0.1,0.6-0.2
		c0.2-0.1,0.3-0.2,0.4-0.4v-0.8h-0.5c-0.8,0-1.2,0.2-1.2,0.7c0,0.2,0.1,0.4,0.2,0.5C100.6,64.7,100.8,64.8,101,64.8z"/>
	<path class="st2" d="M105.3,62.1c-0.1,0-0.2,0-0.3,0c-0.4,0-0.7,0.2-0.8,0.5v2.6h-0.6v-3.7h0.6l0,0.4c0.2-0.3,0.5-0.5,0.9-0.5
		c0.1,0,0.2,0,0.3,0.1C105.3,61.6,105.3,62.1,105.3,62.1z"/>
	<path class="st2" d="M107.4,65.3c-0.5,0-0.9-0.2-1.2-0.5c-0.3-0.3-0.5-0.8-0.5-1.3v-0.1c0-0.4,0.1-0.7,0.2-1
		c0.1-0.3,0.3-0.5,0.6-0.7c0.3-0.2,0.5-0.2,0.8-0.2c0.5,0,0.8,0.2,1.1,0.5s0.4,0.8,0.4,1.4v0.3h-2.5c0,0.4,0.1,0.7,0.3,0.9
		s0.5,0.3,0.8,0.3c0.2,0,0.4-0.1,0.6-0.1c0.2-0.1,0.3-0.2,0.4-0.4l0.4,0.3C108.5,65.1,108,65.3,107.4,65.3z M107.3,62
		c-0.3,0-0.5,0.1-0.6,0.3c-0.2,0.2-0.3,0.4-0.3,0.8h1.8V63c0-0.3-0.1-0.6-0.3-0.7C107.8,62.1,107.6,62,107.3,62z"/>
	<path class="st2" d="M115,63.7c-0.1,0.5-0.3,0.9-0.6,1.2c-0.3,0.3-0.8,0.4-1.3,0.4c-0.6,0-1-0.2-1.4-0.6c-0.4-0.4-0.5-1-0.5-1.7
		v-0.5c0-0.5,0.1-0.9,0.2-1.2c0.2-0.4,0.4-0.6,0.7-0.8c0.3-0.2,0.6-0.3,1-0.3c0.5,0,0.9,0.2,1.3,0.4s0.5,0.7,0.6,1.2h-0.7
		c-0.1-0.4-0.2-0.7-0.4-0.9c-0.2-0.2-0.5-0.3-0.8-0.3c-0.4,0-0.7,0.2-1,0.5c-0.2,0.3-0.3,0.7-0.3,1.3V63c0,0.5,0.1,1,0.3,1.3
		c0.2,0.3,0.5,0.5,0.9,0.5c0.4,0,0.6-0.1,0.8-0.2c0.2-0.2,0.3-0.5,0.4-0.9L115,63.7L115,63.7z"/>
	<path class="st2" d="M115.6,63.4c0-0.4,0.1-0.7,0.2-1c0.1-0.3,0.3-0.5,0.6-0.7c0.3-0.2,0.5-0.2,0.9-0.2c0.5,0,0.9,0.2,1.2,0.5
		c0.3,0.3,0.5,0.8,0.5,1.4v0c0,0.4-0.1,0.7-0.2,1c-0.1,0.3-0.3,0.5-0.6,0.7c-0.3,0.2-0.5,0.2-0.9,0.2c-0.5,0-0.9-0.2-1.2-0.5
		C115.8,64.4,115.6,64,115.6,63.4L115.6,63.4L115.6,63.4z M116.3,63.4c0,0.4,0.1,0.7,0.3,1c0.2,0.3,0.4,0.4,0.8,0.4s0.6-0.1,0.8-0.4
		s0.3-0.6,0.3-1c0-0.4-0.1-0.7-0.3-1c-0.2-0.3-0.4-0.4-0.8-0.4s-0.6,0.1-0.7,0.4C116.4,62.6,116.3,63,116.3,63.4z"/>
	<path class="st2" d="M120.4,61.6l0,0.5c0.3-0.4,0.6-0.5,1.1-0.5c0.8,0,1.2,0.4,1.2,1.3v2.4H122v-2.4c0-0.3-0.1-0.5-0.2-0.6
		c-0.1-0.1-0.3-0.2-0.6-0.2c-0.2,0-0.4,0.1-0.5,0.2c-0.2,0.1-0.3,0.3-0.4,0.4v2.6h-0.6v-3.7H120.4z"/>
	<path class="st2" d="M123.5,63.4c0-0.6,0.1-1,0.4-1.4s0.6-0.5,1-0.5c0.4,0,0.8,0.2,1,0.5l0.1-0.4h0.6v3.6c0,0.5-0.1,0.8-0.4,1.1
		c-0.3,0.3-0.7,0.4-1.1,0.4c-0.3,0-0.5-0.1-0.8-0.2c-0.3-0.1-0.4-0.3-0.6-0.5l0.3-0.4c0.3,0.3,0.6,0.5,1,0.5c0.3,0,0.5-0.1,0.7-0.3
		c0.2-0.2,0.3-0.4,0.3-0.7v-0.3c-0.3,0.3-0.6,0.4-1,0.4s-0.8-0.2-1-0.5C123.6,64.5,123.5,64,123.5,63.4z M124.1,63.4
		c0,0.4,0.1,0.7,0.3,1c0.2,0.2,0.4,0.4,0.7,0.4c0.4,0,0.7-0.2,0.9-0.5v-1.7c-0.2-0.4-0.5-0.5-0.9-0.5c-0.3,0-0.5,0.1-0.7,0.4
		C124.2,62.6,124.1,63,124.1,63.4z"/>
	<path class="st2" d="M129.8,64.9c-0.2,0.3-0.6,0.4-1.1,0.4c-0.4,0-0.7-0.1-0.9-0.3c-0.2-0.2-0.3-0.6-0.3-1v-2.4h0.6V64
		c0,0.6,0.2,0.8,0.7,0.8c0.5,0,0.8-0.2,1-0.5v-2.7h0.6v3.7h-0.6L129.8,64.9z"/>
	<path class="st2" d="M132.9,65.3c-0.5,0-0.9-0.2-1.2-0.5c-0.3-0.3-0.5-0.8-0.5-1.3v-0.1c0-0.4,0.1-0.7,0.2-1
		c0.1-0.3,0.3-0.5,0.6-0.7c0.3-0.2,0.5-0.2,0.8-0.2c0.5,0,0.8,0.2,1.1,0.5s0.4,0.8,0.4,1.4v0.3h-2.5c0,0.4,0.1,0.7,0.3,0.9
		c0.2,0.2,0.5,0.3,0.8,0.3c0.2,0,0.4-0.1,0.6-0.1c0.2-0.1,0.3-0.2,0.4-0.4l0.4,0.3C134,65.1,133.5,65.3,132.9,65.3z M132.8,62
		c-0.3,0-0.5,0.1-0.6,0.3c-0.2,0.2-0.3,0.4-0.3,0.8h1.8V63c0-0.3-0.1-0.6-0.3-0.7C133.3,62.1,133.1,62,132.8,62z"/>
	<path class="st2" d="M139.6,63.1h-2.1v2.2h-0.7v-5h3.1v0.5h-2.4v1.7h2.1V63.1z"/>
	<path class="st2" d="M141.3,65.3h-0.6v-3.7h0.6V65.3z M140.6,60.6c0-0.1,0-0.2,0.1-0.3c0.1-0.1,0.2-0.1,0.3-0.1s0.2,0,0.3,0.1
		c0.1,0.1,0.1,0.2,0.1,0.3s0,0.2-0.1,0.3c-0.1,0.1-0.2,0.1-0.3,0.1s-0.2,0-0.3-0.1C140.7,60.8,140.6,60.7,140.6,60.6z"/>
	<path class="st2" d="M142.9,61.6l0,0.5c0.3-0.4,0.6-0.5,1.1-0.5c0.8,0,1.2,0.4,1.2,1.3v2.4h-0.6v-2.4c0-0.3-0.1-0.5-0.2-0.6
		c-0.1-0.1-0.3-0.2-0.6-0.2c-0.2,0-0.4,0.1-0.5,0.2c-0.2,0.1-0.3,0.3-0.4,0.4v2.6h-0.6v-3.7H142.9z"/>
	<path class="st2" d="M146.9,65.3h-0.6v-3.7h0.6V65.3z M146.2,60.6c0-0.1,0-0.2,0.1-0.3c0.1-0.1,0.2-0.1,0.3-0.1
		c0.1,0,0.2,0,0.3,0.1c0.1,0.1,0.1,0.2,0.1,0.3s0,0.2-0.1,0.3c-0.1,0.1-0.2,0.1-0.3,0.1c-0.1,0-0.2,0-0.3-0.1
		C146.2,60.8,146.2,60.7,146.2,60.6z"/>
	<path class="st2" d="M151,63.4c0,0.6-0.1,1-0.4,1.4c-0.3,0.3-0.6,0.5-1,0.5c-0.5,0-0.8-0.2-1.1-0.5l0,0.4h-0.6V60h0.6V62
		c0.3-0.3,0.6-0.5,1-0.5c0.4,0,0.8,0.2,1,0.5C150.8,62.3,151,62.8,151,63.4L151,63.4L151,63.4z M150.3,63.4c0-0.4-0.1-0.8-0.3-1
		c-0.2-0.2-0.4-0.4-0.7-0.4c-0.4,0-0.7,0.2-0.9,0.6v1.6c0.2,0.4,0.5,0.6,0.9,0.6c0.3,0,0.5-0.1,0.7-0.4
		C150.3,64.2,150.3,63.8,150.3,63.4z"/>
	<path class="st2" d="M154,64.9c-0.2,0.3-0.6,0.4-1.1,0.4c-0.4,0-0.7-0.1-0.9-0.3c-0.2-0.2-0.3-0.6-0.3-1v-2.4h0.6V64
		c0,0.6,0.2,0.8,0.7,0.8c0.5,0,0.8-0.2,1-0.5v-2.7h0.6v3.7h-0.6L154,64.9z"/>
	<path class="st2" d="M157.7,64.3c0-0.2-0.1-0.3-0.2-0.4c-0.1-0.1-0.4-0.2-0.7-0.2c-0.3-0.1-0.6-0.2-0.8-0.2
		c-0.2-0.1-0.3-0.2-0.4-0.3c-0.1-0.1-0.1-0.3-0.1-0.5c0-0.3,0.1-0.6,0.4-0.8c0.3-0.2,0.6-0.3,1-0.3c0.4,0,0.8,0.1,1,0.3
		c0.3,0.2,0.4,0.5,0.4,0.8h-0.6c0-0.2-0.1-0.3-0.2-0.4c-0.1-0.1-0.3-0.2-0.6-0.2c-0.2,0-0.4,0.1-0.5,0.2c-0.1,0.1-0.2,0.2-0.2,0.4
		c0,0.2,0.1,0.3,0.2,0.3c0.1,0.1,0.3,0.2,0.6,0.2c0.3,0.1,0.6,0.2,0.8,0.3c0.2,0.1,0.3,0.2,0.4,0.4c0.1,0.1,0.1,0.3,0.1,0.5
		c0,0.3-0.1,0.6-0.4,0.8c-0.3,0.2-0.6,0.3-1,0.3c-0.3,0-0.6-0.1-0.8-0.2c-0.2-0.1-0.4-0.3-0.5-0.4c-0.1-0.2-0.2-0.4-0.2-0.6h0.6
		c0,0.2,0.1,0.4,0.3,0.5c0.2,0.1,0.4,0.2,0.6,0.2c0.2,0,0.4-0.1,0.6-0.1C157.7,64.6,157.7,64.4,157.7,64.3z"/>
	<path class="st2" d="M159.2,64.9c0-0.1,0-0.2,0.1-0.3c0.1-0.1,0.2-0.1,0.3-0.1s0.2,0,0.3,0.1s0.1,0.2,0.1,0.3c0,0.1,0,0.2-0.1,0.3
		s-0.2,0.1-0.3,0.1c-0.1,0-0.2,0-0.3-0.1C159.3,65.1,159.2,65,159.2,64.9z"/>
	<path class="st2" d="M163.5,63.3v1.9h-0.7v-5h1.8c0.5,0,1,0.1,1.3,0.4c0.3,0.3,0.5,0.6,0.5,1.1c0,0.5-0.2,0.8-0.5,1.1
		c-0.3,0.3-0.7,0.4-1.3,0.4H163.5z M163.5,62.8h1.2c0.4,0,0.6-0.1,0.8-0.2c0.2-0.2,0.3-0.4,0.3-0.7c0-0.3-0.1-0.5-0.3-0.7
		c-0.2-0.2-0.4-0.3-0.8-0.3h-1.2L163.5,62.8L163.5,62.8z"/>
	<path class="st2" d="M168.6,65.3c-0.5,0-0.9-0.2-1.2-0.5c-0.3-0.3-0.5-0.8-0.5-1.3v-0.1c0-0.4,0.1-0.7,0.2-1
		c0.1-0.3,0.3-0.5,0.6-0.7c0.3-0.2,0.5-0.2,0.8-0.2c0.5,0,0.8,0.2,1.1,0.5s0.4,0.8,0.4,1.4v0.3h-2.5c0,0.4,0.1,0.7,0.3,0.9
		c0.2,0.2,0.5,0.3,0.8,0.3c0.2,0,0.4-0.1,0.6-0.1c0.2-0.1,0.3-0.2,0.4-0.4l0.4,0.3C169.7,65.1,169.3,65.3,168.6,65.3z M168.6,62
		c-0.3,0-0.5,0.1-0.6,0.3c-0.2,0.2-0.3,0.4-0.3,0.8h1.8V63c0-0.3-0.1-0.6-0.3-0.7C169,62.1,168.8,62,168.6,62z"/>
	<path class="st2" d="M171.5,65.3h-0.6V60h0.6V65.3z"/>
	<path class="st2" d="M173.2,65.3h-0.6V60h0.6V65.3z"/>
	<path class="st2" d="M175.7,65.3c-0.5,0-0.9-0.2-1.2-0.5c-0.3-0.3-0.5-0.8-0.5-1.3v-0.1c0-0.4,0.1-0.7,0.2-1
		c0.1-0.3,0.3-0.5,0.6-0.7c0.3-0.2,0.5-0.2,0.8-0.2c0.5,0,0.8,0.2,1.1,0.5s0.4,0.8,0.4,1.4v0.3h-2.5c0,0.4,0.1,0.7,0.3,0.9
		s0.5,0.3,0.8,0.3c0.2,0,0.4-0.1,0.6-0.1c0.2-0.1,0.3-0.2,0.4-0.4l0.4,0.3C176.8,65.1,176.3,65.3,175.7,65.3z M175.6,62
		c-0.3,0-0.5,0.1-0.6,0.3c-0.2,0.2-0.3,0.4-0.3,0.8h1.8V63c0-0.3-0.1-0.6-0.3-0.7C176.1,62.1,175.9,62,175.6,62z"/>
	<path class="st2" d="M178.5,61.6l0,0.5c0.3-0.4,0.6-0.5,1.1-0.5c0.8,0,1.2,0.4,1.2,1.3v2.4h-0.6v-2.4c0-0.3-0.1-0.5-0.2-0.6
		c-0.1-0.1-0.3-0.2-0.6-0.2c-0.2,0-0.4,0.1-0.5,0.2c-0.2,0.1-0.3,0.3-0.4,0.4v2.6h-0.6v-3.7H178.5z"/>
	<path class="st2" d="M182.6,60.7v0.9h0.7v0.5h-0.7v2.3c0,0.2,0,0.3,0.1,0.3s0.2,0.1,0.3,0.1c0.1,0,0.2,0,0.3,0v0.5
		c-0.2,0.1-0.3,0.1-0.5,0.1c-0.3,0-0.5-0.1-0.6-0.3c-0.1-0.2-0.2-0.4-0.2-0.7v-2.3h-0.7v-0.5h0.7v-0.9L182.6,60.7L182.6,60.7z"/>
	<path class="st2" d="M185.5,65.3c-0.5,0-0.9-0.2-1.2-0.5c-0.3-0.3-0.5-0.8-0.5-1.3v-0.1c0-0.4,0.1-0.7,0.2-1
		c0.1-0.3,0.3-0.5,0.6-0.7c0.3-0.2,0.5-0.2,0.8-0.2c0.5,0,0.8,0.2,1.1,0.5c0.3,0.3,0.4,0.8,0.4,1.4v0.3h-2.5c0,0.4,0.1,0.7,0.3,0.9
		c0.2,0.2,0.5,0.3,0.8,0.3c0.2,0,0.4-0.1,0.6-0.1c0.2-0.1,0.3-0.2,0.4-0.4l0.4,0.3C186.6,65.1,186.1,65.3,185.5,65.3z M185.5,62
		c-0.3,0-0.5,0.1-0.6,0.3c-0.2,0.2-0.3,0.4-0.3,0.8h1.8V63c0-0.3-0.1-0.6-0.3-0.7C185.9,62.1,185.7,62,185.5,62z"/>
	<path class="st2" d="M189.8,64.3c0-0.2-0.1-0.3-0.2-0.4c-0.1-0.1-0.4-0.2-0.7-0.2c-0.3-0.1-0.6-0.2-0.8-0.2
		c-0.2-0.1-0.3-0.2-0.4-0.3c-0.1-0.1-0.1-0.3-0.1-0.5c0-0.3,0.1-0.6,0.4-0.8c0.3-0.2,0.6-0.3,1-0.3c0.4,0,0.8,0.1,1,0.3
		c0.3,0.2,0.4,0.5,0.4,0.8h-0.6c0-0.2-0.1-0.3-0.2-0.4c-0.1-0.1-0.3-0.2-0.6-0.2c-0.2,0-0.4,0.1-0.5,0.2c-0.1,0.1-0.2,0.2-0.2,0.4
		c0,0.2,0.1,0.3,0.2,0.3c0.1,0.1,0.3,0.2,0.6,0.2c0.3,0.1,0.6,0.2,0.8,0.3c0.2,0.1,0.3,0.2,0.4,0.4c0.1,0.1,0.1,0.3,0.1,0.5
		c0,0.3-0.1,0.6-0.4,0.8c-0.3,0.2-0.6,0.3-1,0.3c-0.3,0-0.6-0.1-0.8-0.2c-0.2-0.1-0.4-0.3-0.5-0.4c-0.1-0.2-0.2-0.4-0.2-0.6h0.6
		c0,0.2,0.1,0.4,0.3,0.5c0.2,0.1,0.4,0.2,0.6,0.2c0.2,0,0.4-0.1,0.6-0.1C189.8,64.6,189.8,64.4,189.8,64.3z"/>
	<path class="st2" d="M191.1,63.4c0-0.6,0.1-1,0.4-1.4c0.3-0.3,0.6-0.5,1.1-0.5c0.4,0,0.8,0.2,1,0.4l0.1-0.4h0.6v5.1h-0.6v-1.8
		c-0.3,0.3-0.6,0.4-1,0.4c-0.4,0-0.8-0.2-1.1-0.5C191.3,64.5,191.1,64,191.1,63.4L191.1,63.4L191.1,63.4z M191.8,63.4
		c0,0.4,0.1,0.8,0.3,1s0.4,0.4,0.7,0.4c0.4,0,0.7-0.2,0.9-0.5v-1.8c-0.2-0.3-0.5-0.5-0.8-0.5c-0.3,0-0.5,0.1-0.7,0.4
		C191.8,62.6,191.8,63,191.8,63.4z"/>
	<path class="st2" d="M197.5,64.9c-0.2,0.3-0.6,0.4-1.1,0.4c-0.4,0-0.7-0.1-0.9-0.3s-0.3-0.6-0.3-1v-2.4h0.6V64
		c0,0.6,0.2,0.8,0.7,0.8c0.5,0,0.8-0.2,1-0.5v-2.7h0.6v3.7h-0.6L197.5,64.9z"/>
	<path class="st2" d="M200.6,65.3c-0.5,0-0.9-0.2-1.2-0.5c-0.3-0.3-0.5-0.8-0.5-1.3v-0.1c0-0.4,0.1-0.7,0.2-1
		c0.1-0.3,0.3-0.5,0.6-0.7c0.3-0.2,0.5-0.2,0.8-0.2c0.5,0,0.8,0.2,1.1,0.5c0.3,0.3,0.4,0.8,0.4,1.4v0.3h-2.5c0,0.4,0.1,0.7,0.3,0.9
		c0.2,0.2,0.5,0.3,0.8,0.3c0.2,0,0.4-0.1,0.6-0.1c0.2-0.1,0.3-0.2,0.4-0.4l0.4,0.3C201.7,65.1,201.2,65.3,200.6,65.3z M200.5,62
		c-0.3,0-0.5,0.1-0.6,0.3c-0.2,0.2-0.3,0.4-0.3,0.8h1.8V63c0-0.3-0.1-0.6-0.3-0.7C201,62.1,200.8,62,200.5,62z"/>
	<path class="st2" d="M207.3,63.1h-2.1v2.2h-0.7v-5h3.1v0.5h-2.4v1.7h2.1L207.3,63.1L207.3,63.1z"/>
	<path class="st2" d="M209.8,65.3c-0.5,0-0.9-0.2-1.2-0.5c-0.3-0.3-0.5-0.8-0.5-1.3v-0.1c0-0.4,0.1-0.7,0.2-1
		c0.1-0.3,0.3-0.5,0.6-0.7c0.3-0.2,0.5-0.2,0.8-0.2c0.5,0,0.8,0.2,1.1,0.5s0.4,0.8,0.4,1.4v0.3h-2.5c0,0.4,0.1,0.7,0.3,0.9
		s0.5,0.3,0.8,0.3c0.2,0,0.4-0.1,0.6-0.1c0.2-0.1,0.3-0.2,0.4-0.4l0.4,0.3C210.9,65.1,210.4,65.3,209.8,65.3z M209.7,62
		c-0.3,0-0.5,0.1-0.6,0.3c-0.2,0.2-0.3,0.4-0.3,0.8h1.8V63c0-0.3-0.1-0.6-0.3-0.7C210.2,62.1,210,62,209.7,62z"/>
	<path class="st2" d="M214.2,64.9c-0.2,0.3-0.6,0.4-1.1,0.4c-0.4,0-0.7-0.1-0.9-0.3c-0.2-0.2-0.3-0.6-0.3-1v-2.4h0.6V64
		c0,0.6,0.2,0.8,0.7,0.8c0.5,0,0.8-0.2,1-0.5v-2.7h0.6v3.7h-0.6L214.2,64.9z"/>
	<path class="st2" d="M215.7,63.4c0-0.6,0.1-1,0.4-1.4c0.3-0.3,0.6-0.5,1-0.5c0.4,0,0.8,0.2,1,0.5l0-0.4h0.6v3.6
		c0,0.5-0.1,0.8-0.4,1.1c-0.3,0.3-0.7,0.4-1.1,0.4c-0.3,0-0.5-0.1-0.8-0.2c-0.3-0.1-0.4-0.3-0.6-0.5l0.3-0.4c0.3,0.3,0.6,0.5,1,0.5
		c0.3,0,0.5-0.1,0.7-0.3c0.2-0.2,0.3-0.4,0.3-0.7v-0.3c-0.3,0.3-0.6,0.4-1,0.4s-0.8-0.2-1-0.5C215.8,64.5,215.7,64,215.7,63.4z
		 M216.3,63.4c0,0.4,0.1,0.7,0.3,1c0.2,0.2,0.4,0.4,0.7,0.4c0.4,0,0.7-0.2,0.9-0.5v-1.7c-0.2-0.4-0.5-0.5-0.9-0.5
		c-0.3,0-0.5,0.1-0.7,0.4C216.4,62.6,216.3,63,216.3,63.4z"/>
	<path class="st2" d="M220.4,65.3h-0.6v-3.7h0.6V65.3z M219.7,60.6c0-0.1,0-0.2,0.1-0.3c0.1-0.1,0.2-0.1,0.3-0.1s0.2,0,0.3,0.1
		c0.1,0.1,0.1,0.2,0.1,0.3s0,0.2-0.1,0.3c-0.1,0.1-0.2,0.1-0.3,0.1s-0.2,0-0.3-0.1C219.8,60.8,219.7,60.7,219.7,60.6z"/>
	<path class="st2" d="M223.7,65.3c0-0.1-0.1-0.2-0.1-0.4c-0.3,0.3-0.6,0.5-1,0.5c-0.4,0-0.7-0.1-0.9-0.3c-0.2-0.2-0.3-0.5-0.3-0.8
		c0-0.4,0.1-0.7,0.4-0.9c0.3-0.2,0.7-0.3,1.2-0.3h0.6v-0.3c0-0.2-0.1-0.4-0.2-0.5c-0.1-0.1-0.3-0.2-0.6-0.2c-0.2,0-0.4,0.1-0.6,0.2
		c-0.2,0.1-0.2,0.3-0.2,0.4h-0.6c0-0.2,0.1-0.4,0.2-0.5c0.1-0.2,0.3-0.3,0.5-0.4c0.2-0.1,0.5-0.2,0.7-0.2c0.4,0,0.8,0.1,1,0.3
		c0.2,0.2,0.4,0.5,0.4,0.9v1.7c0,0.3,0,0.6,0.1,0.8v0.1C224.3,65.3,223.7,65.3,223.7,65.3z M222.6,64.8c0.2,0,0.4-0.1,0.6-0.2
		c0.2-0.1,0.3-0.2,0.4-0.4v-0.8h-0.5c-0.8,0-1.2,0.2-1.2,0.7c0,0.2,0.1,0.4,0.2,0.5C222.3,64.7,222.4,64.8,222.6,64.8z"/>
	<path class="st2" d="M226,60.7v0.9h0.7v0.5H226v2.3c0,0.2,0,0.3,0.1,0.3s0.2,0.1,0.3,0.1c0.1,0,0.2,0,0.3,0v0.5
		c-0.2,0.1-0.3,0.1-0.5,0.1c-0.3,0-0.5-0.1-0.6-0.3c-0.1-0.2-0.2-0.4-0.2-0.7v-2.3h-0.7v-0.5h0.7v-0.9L226,60.7L226,60.7z"/>
	<path d="M73.3,35.1h1v-6.4h-1v2.8h-3v-2.8h-1v6.4h1v-2.8h3V35.1z"/>
	<path d="M80.6,32.5c0-1.6-1.2-2.6-2.6-2.6c-1.5,0-2.6,1-2.6,2.6c0,1.6,1.1,2.6,2.6,2.6C79.4,35.2,80.6,34.1,80.6,32.5z M76.5,32.5
		c0-1.2,0.7-1.7,1.5-1.7c0.8,0,1.5,0.6,1.5,1.7s-0.8,1.7-1.6,1.7C77.1,34.3,76.5,33.7,76.5,32.5z"/>
	<path d="M82.6,35.1h1.1l1-3.8l1,3.8h1.1l1.6-5.1h-1l-1,4.1l-1-4.1h-1.1l-1.1,4.1L82.1,30H81L82.6,35.1z"/>
	<path d="M93.8,28.7h-2.1v6.4h2.1c2.1,0,3.4-1.2,3.4-3.2C97.2,29.9,95.8,28.7,93.8,28.7z M92.7,34.2v-4.7h1c1.5,0,2.3,0.9,2.3,2.4
		s-0.8,2.3-2.3,2.3H92.7z"/>
	<path d="M103.1,32.5c0-1.6-1.2-2.6-2.6-2.6c-1.5,0-2.6,1-2.6,2.6c0,1.6,1.1,2.6,2.6,2.6C101.9,35.2,103.1,34.1,103.1,32.5z
		 M98.9,32.5c0-1.2,0.7-1.7,1.5-1.7c0.8,0,1.5,0.6,1.5,1.7s-0.8,1.7-1.6,1.7C99.6,34.3,98.9,33.7,98.9,32.5z"/>
	<path d="M106.3,30.8c0.8,0,1.4,0.5,1.4,1.3h-2.8C105,31.3,105.5,30.8,106.3,30.8z M108.6,33.6h-1.1c-0.2,0.4-0.6,0.7-1.2,0.7
		c-0.8,0-1.4-0.5-1.5-1.4h3.9c0-0.2,0-0.3,0-0.5c0-1.5-1-2.5-2.5-2.5c-1.5,0-2.5,1-2.5,2.6c0,1.6,1.1,2.6,2.5,2.6
		C107.6,35.2,108.4,34.5,108.6,33.6z"/>
	<path d="M113.6,33.7c-0.1-1.8-2.9-1.3-2.9-2.3c0-0.3,0.3-0.6,0.9-0.6s0.9,0.3,0.9,0.7h1c-0.1-1-0.8-1.6-2-1.6c-1.2,0-2,0.7-2,1.5
		c0,1.9,3,1.3,3,2.3c0,0.4-0.3,0.6-0.9,0.6c-0.6,0-1-0.3-1-0.8h-1.1c0.1,0.9,0.9,1.6,2.1,1.6C112.9,35.2,113.6,34.5,113.6,33.7z"/>
	<path d="M116.8,29.5h1.7v5.6h1v-5.6h1.7v-0.9h-4.5L116.8,29.5L116.8,29.5z"/>
	<path d="M122.4,35.1h1v-2.8c0-0.9,0.5-1.4,1.3-1.4c0.8,0,1.3,0.5,1.3,1.4v2.8h1v-3c0-1.4-0.9-2.2-2-2.2c-0.7,0-1.2,0.3-1.6,0.7
		v-2.3h-1L122.4,35.1L122.4,35.1z"/>
	<path d="M128.4,35.1h1V30h-1V35.1z M128.9,29.3c0.4,0,0.7-0.3,0.7-0.7c0-0.4-0.3-0.7-0.7-0.7s-0.7,0.3-0.7,0.7
		C128.3,29,128.5,29.3,128.9,29.3z"/>
	<path d="M134.6,33.7c-0.1-1.8-2.9-1.3-2.9-2.3c0-0.3,0.3-0.6,0.9-0.6s0.9,0.3,0.9,0.7h1c-0.1-1-0.8-1.6-2-1.6c-1.2,0-2,0.7-2,1.5
		c0,1.9,3,1.3,3,2.3c0,0.4-0.3,0.6-0.9,0.6c-0.6,0-1-0.3-1-0.8h-1.1c0.1,0.9,0.9,1.6,2.1,1.6C133.9,35.2,134.6,34.5,134.6,33.7z"/>
	<path d="M139.2,31.6v-2.1h1.2c0.8,0,1.2,0.4,1.2,1c0,0.6-0.4,1-1.2,1C140.4,31.6,139.2,31.6,139.2,31.6z M142.7,30.6
		c0-1-0.7-1.9-2.3-1.9h-2.2v6.4h1v-2.6h1.2C142.1,32.5,142.7,31.5,142.7,30.6z"/>
	<path d="M143.7,35.1h1v-6.8h-1V35.1z"/>
	<path d="M145.8,32.5c0,1.6,1.1,2.7,2.4,2.7c0.8,0,1.5-0.4,1.8-0.8v0.8h1.1V30h-1.1v0.7c-0.3-0.4-0.9-0.8-1.8-0.8
		C146.8,29.9,145.8,30.9,145.8,32.5z M149.9,32.5c0,1.1-0.7,1.7-1.5,1.7c-0.8,0-1.5-0.6-1.5-1.7c0-1.1,0.8-1.7,1.5-1.7
		S149.9,31.4,149.9,32.5z"/>
	<path d="M156,35.1h1v-3c0-1.4-0.9-2.2-2.1-2.2c-0.6,0-1.2,0.3-1.5,0.7V30h-1v5.1h1v-2.8c0-0.9,0.5-1.4,1.3-1.4
		c0.8,0,1.3,0.5,1.3,1.4L156,35.1L156,35.1z"/>
	<path d="M162.1,35.1l1.2,0l1.4-4.9l1.4,4.9h1.2l1.9-6.4H168l-1.3,5.2l-1.3-5.2h-1.2l-1.4,5.2l-1.3-5.2h-1.1L162.1,35.1z"/>
	<path d="M174.9,32.5c0-1.6-1.2-2.6-2.6-2.6c-1.5,0-2.6,1-2.6,2.6c0,1.6,1.1,2.6,2.6,2.6C173.7,35.2,174.9,34.1,174.9,32.5z
		 M170.7,32.5c0-1.2,0.7-1.7,1.5-1.7c0.8,0,1.5,0.6,1.5,1.7s-0.8,1.7-1.6,1.7C171.4,34.3,170.7,33.7,170.7,32.5z"/>
	<path d="M177,32.4c0-1.1,0.5-1.4,1.3-1.4h0.3v-1.1c-0.7,0-1.2,0.3-1.5,0.8V30h-1v5.1h1L177,32.4L177,32.4z"/>
	<path d="M179.5,35.1h1v-2.2l1.9,2.2h1.4l-2.4-2.5l2.4-2.6h-1.5l-1.8,2.2v-4h-1V35.1z"/>
	<path d="M184.2,30.5h1c0-0.6,0.4-1,1.1-1c0.7,0,1.1,0.4,1.1,1c0,1-0.8,1.2-1.8,1.2h-0.3l0.1,1.5h0.9l0-0.7c1.2,0,2.2-0.6,2.2-1.9
		c0-1.2-0.8-1.9-2.1-1.9C185,28.6,184.2,29.4,184.2,30.5z M186.4,34.5c0-0.4-0.3-0.7-0.7-0.7c-0.4,0-0.7,0.3-0.7,0.7
		c0,0.4,0.3,0.7,0.7,0.7C186.1,35.1,186.4,34.9,186.4,34.5z"/>
</g>
</svg>
