<?xml version="1.0" encoding="utf-8"?>
<!-- Generator: Adobe Illustrator 25.2.1, SVG Export Plug-In . SVG Version: 6.00 Build 0)  -->
<svg version="1.1" id="Layer_1" xmlns="http://www.w3.org/2000/svg" xmlns:xlink="http://www.w3.org/1999/xlink" x="0px" y="0px"
	 viewBox="0 0 145 110" style="enable-background:new 0 0 145 110;" xml:space="preserve">
<style type="text/css">
	.st0{fill:#EFEFEF;}
	.st1{fill:#0066FF;}
</style>
<g>
	<rect class="st0" width="145" height="110"/>
</g>
<g>
	<g>
		<path class="st1" d="M127.1,34c1.1,0,1.9,0.9,1.9,1.9v38.1c0,1.1-0.9,1.9-1.9,1.9H17.9c-1.1,0-1.9-0.9-1.9-1.9V35.9
			c0-1.1,0.9-1.9,1.9-1.9H127.1 M127.1,33H17.9c-1.6,0-2.9,1.3-2.9,2.9v38.1c0,1.6,1.3,2.9,2.9,2.9h109.1c1.6,0,2.9-1.3,2.9-2.9
			V35.9C130,34.3,128.7,33,127.1,33L127.1,33z"/>
	</g>
</g>
<g>
	<path class="st1" d="M34.4,55.2h-1.8v3.6H31v-9.2h3.3c1.1,0,1.9,0.2,2.5,0.7c0.6,0.5,0.9,1.2,0.9,2.1c0,0.6-0.1,1.1-0.4,1.6
		c-0.3,0.4-0.7,0.7-1.2,1l2.1,3.9v0.1h-1.7L34.4,55.2z M32.6,53.9h1.7c0.5,0,1-0.1,1.3-0.4c0.3-0.3,0.5-0.6,0.5-1.1
		c0-0.5-0.1-0.9-0.4-1.1c-0.3-0.3-0.7-0.4-1.3-0.4h-1.7V53.9z"/>
	<path class="st1" d="M43.3,58.8c-0.1-0.1-0.1-0.3-0.2-0.6c-0.5,0.5-1.1,0.8-1.8,0.8c-0.7,0-1.3-0.2-1.7-0.6
		c-0.4-0.4-0.7-0.9-0.7-1.5c0-0.7,0.3-1.3,0.8-1.7s1.3-0.6,2.3-0.6h0.9v-0.5c0-0.4-0.1-0.6-0.3-0.9c-0.2-0.2-0.5-0.3-0.9-0.3
		c-0.4,0-0.6,0.1-0.9,0.3s-0.3,0.4-0.3,0.7h-1.5c0-0.4,0.1-0.7,0.4-1.1c0.2-0.3,0.6-0.6,1-0.8c0.4-0.2,0.9-0.3,1.4-0.3
		c0.8,0,1.4,0.2,1.9,0.6s0.7,1,0.7,1.7v3.1c0,0.6,0.1,1.1,0.3,1.5v0.1H43.3z M41.6,57.7c0.3,0,0.6-0.1,0.9-0.2
		c0.3-0.1,0.5-0.3,0.6-0.6v-1.3h-0.8c-0.6,0-1,0.1-1.3,0.3c-0.3,0.2-0.4,0.5-0.4,0.8c0,0.3,0.1,0.5,0.3,0.7
		C41,57.6,41.3,57.7,41.6,57.7z"/>
	<path class="st1" d="M46.2,55.3c0-1.1,0.2-1.9,0.7-2.6c0.5-0.6,1.1-1,2-1c0.7,0,1.3,0.3,1.8,0.8V49h1.5v9.8h-1.4l-0.1-0.7
		c-0.5,0.6-1.1,0.8-1.8,0.8c-0.8,0-1.5-0.3-2-1C46.5,57.3,46.2,56.4,46.2,55.3z M47.8,55.4c0,0.7,0.1,1.2,0.4,1.6
		c0.3,0.4,0.7,0.6,1.1,0.6c0.6,0,1.1-0.3,1.4-0.8v-2.9c-0.3-0.6-0.7-0.8-1.4-0.8c-0.5,0-0.9,0.2-1.2,0.6S47.8,54.6,47.8,55.4z"/>
	<path class="st1" d="M54.1,50.1c0-0.2,0.1-0.4,0.2-0.6c0.1-0.2,0.4-0.2,0.6-0.2s0.5,0.1,0.6,0.2c0.2,0.2,0.2,0.4,0.2,0.6
		c0,0.2-0.1,0.4-0.2,0.6C55.5,50.9,55.3,51,55,51s-0.5-0.1-0.6-0.2C54.2,50.6,54.1,50.4,54.1,50.1z M55.7,58.8h-1.5v-6.9h1.5V58.8z"
		/>
	<path class="st1" d="M61.9,58.1c-0.5,0.5-1.1,0.8-1.9,0.8c-0.7,0-1.3-0.2-1.7-0.7s-0.6-1.1-0.6-1.9v-4.5h1.5v4.4
		c0,0.9,0.4,1.3,1.1,1.3c0.7,0,1.3-0.3,1.5-0.8v-4.9h1.5v6.9h-1.5L61.9,58.1z"/>
	<path class="st1" d="M69,56.9c0-0.3-0.1-0.5-0.3-0.6c-0.2-0.1-0.6-0.3-1.1-0.4c-0.5-0.1-1-0.2-1.3-0.4c-0.8-0.4-1.2-0.9-1.2-1.6
		c0-0.6,0.2-1.1,0.7-1.5c0.5-0.4,1.1-0.6,1.9-0.6c0.8,0,1.5,0.2,2,0.6c0.5,0.4,0.8,0.9,0.8,1.6H69c0-0.3-0.1-0.5-0.3-0.7
		c-0.2-0.2-0.5-0.3-0.9-0.3c-0.3,0-0.6,0.1-0.8,0.2c-0.2,0.2-0.3,0.4-0.3,0.6c0,0.2,0.1,0.4,0.3,0.6c0.2,0.1,0.6,0.3,1.2,0.4
		c0.6,0.1,1.1,0.3,1.4,0.5c0.3,0.2,0.6,0.4,0.8,0.7c0.2,0.3,0.3,0.6,0.3,0.9c0,0.6-0.3,1.1-0.8,1.5c-0.5,0.4-1.2,0.6-2,0.6
		c-0.6,0-1.1-0.1-1.5-0.3s-0.8-0.5-1-0.8s-0.4-0.7-0.4-1.1h1.5c0,0.4,0.2,0.6,0.4,0.8c0.3,0.2,0.6,0.3,1,0.3c0.4,0,0.7-0.1,0.9-0.2
		C68.9,57.4,69,57.2,69,56.9z"/>
	<path class="st1" d="M75.8,58.8v-9.2H79c1,0,1.8,0.2,2.4,0.6c0.5,0.4,0.8,1,0.8,1.9c0,0.4-0.1,0.8-0.3,1.1c-0.2,0.3-0.6,0.6-1,0.8
		c0.5,0.1,0.9,0.4,1.2,0.8c0.3,0.4,0.4,0.8,0.4,1.4c0,0.9-0.3,1.5-0.8,2s-1.4,0.7-2.4,0.7H75.8z M77.4,53.4H79
		c0.5,0,0.9-0.1,1.2-0.3c0.3-0.2,0.4-0.5,0.4-1c0-0.5-0.1-0.8-0.4-1c-0.3-0.2-0.7-0.3-1.2-0.3h-1.6V53.4z M77.4,54.6v2.9h1.8
		c0.5,0,0.9-0.1,1.2-0.4c0.3-0.2,0.4-0.6,0.4-1c0-1-0.5-1.5-1.5-1.5H77.4z"/>
	<path class="st1" d="M88.3,58.1c-0.5,0.5-1.1,0.8-1.9,0.8c-0.7,0-1.3-0.2-1.7-0.7c-0.4-0.4-0.6-1.1-0.6-1.9v-4.5h1.5v4.4
		c0,0.9,0.4,1.3,1.1,1.3c0.8,0,1.3-0.3,1.5-0.8v-4.9h1.5v6.9h-1.5L88.3,58.1z"/>
	<path class="st1" d="M93.5,50.3v1.7h1.2v1.1h-1.2v3.8c0,0.3,0.1,0.5,0.2,0.6c0.1,0.1,0.3,0.2,0.6,0.2c0.2,0,0.4,0,0.5-0.1v1.2
		c-0.4,0.1-0.7,0.1-1,0.1c-1.2,0-1.8-0.7-1.8-2v-3.9h-1.1v-1.1H92v-1.7H93.5z"/>
	<path class="st1" d="M98.1,50.3v1.7h1.2v1.1h-1.2v3.8c0,0.3,0.1,0.5,0.2,0.6c0.1,0.1,0.3,0.2,0.6,0.2c0.2,0,0.4,0,0.5-0.1v1.2
		c-0.4,0.1-0.7,0.1-1,0.1c-1.2,0-1.8-0.7-1.8-2v-3.9h-1.1v-1.1h1.1v-1.7H98.1z"/>
	<path class="st1" d="M100.3,55.3c0-0.7,0.1-1.3,0.4-1.8s0.6-1,1.1-1.2c0.5-0.3,1-0.4,1.7-0.4c0.9,0,1.7,0.3,2.3,0.9
		c0.6,0.6,0.9,1.4,0.9,2.4l0,0.4c0,0.7-0.1,1.3-0.4,1.8c-0.3,0.5-0.6,0.9-1.1,1.2c-0.5,0.3-1,0.4-1.7,0.4c-1,0-1.7-0.3-2.3-1
		S100.3,56.4,100.3,55.3L100.3,55.3z M101.8,55.4c0,0.7,0.1,1.3,0.4,1.7c0.3,0.4,0.7,0.6,1.2,0.6c0.5,0,0.9-0.2,1.2-0.6
		c0.3-0.4,0.4-1,0.4-1.8c0-0.7-0.1-1.2-0.4-1.7c-0.3-0.4-0.7-0.6-1.2-0.6c-0.5,0-0.9,0.2-1.2,0.6C102,54,101.8,54.6,101.8,55.4z"/>
	<path class="st1" d="M109.7,51.9l0,0.8c0.5-0.6,1.2-0.9,2-0.9c1.4,0,2.2,0.8,2.2,2.5v4.5h-1.5v-4.5c0-0.4-0.1-0.8-0.3-1
		s-0.5-0.3-0.9-0.3c-0.6,0-1.1,0.3-1.4,0.8v4.9h-1.5v-6.9H109.7z"/>
</g>
</svg>
