<?xml version="1.0" encoding="utf-8"?>
<!-- Generator: Adobe Illustrator 25.2.1, SVG Export Plug-In . SVG Version: 6.00 Build 0)  -->
<svg version="1.1" id="Layer_1" xmlns="http://www.w3.org/2000/svg" xmlns:xlink="http://www.w3.org/1999/xlink" x="0px" y="0px"
	 viewBox="0 0 145 110" style="enable-background:new 0 0 145 110;" xml:space="preserve">
<style type="text/css">
	.st0{fill:#EFEFEF;}
	.st1{fill:#0066FF;}
	.st2{fill:#FFFFFF;}
</style>
<g>
	<rect class="st0" width="145" height="110"/>
</g>
<g>
	<path class="st1" d="M17.9,76.5c-1.3,0-2.4-1.1-2.4-2.4V35.9c0-1.3,1.1-2.4,2.4-2.4h109.1c1.3,0,2.4,1.1,2.4,2.4v38.1
		c0,1.3-1.1,2.4-2.4,2.4L17.9,76.5L17.9,76.5z"/>
	<g>
		<path class="st1" d="M127.1,34c1.1,0,1.9,0.9,1.9,1.9v38.1c0,1.1-0.9,1.9-1.9,1.9H17.9c-1.1,0-1.9-0.9-1.9-1.9V35.9
			c0-1.1,0.9-1.9,1.9-1.9H127.1 M127.1,33H17.9c-1.6,0-2.9,1.3-2.9,2.9v38.1c0,1.6,1.3,2.9,2.9,2.9h109.1c1.6,0,2.9-1.3,2.9-2.9
			V35.9C130,34.3,128.7,33,127.1,33L127.1,33z"/>
	</g>
</g>
<g>
	<g>
		<g>
			<path class="st0" d="M118.5,55.6h-13.3c-0.3,0-0.6-0.3-0.6-0.6s0.3-0.6,0.6-0.6h13.3c0.3,0,0.6,0.3,0.6,0.6
				C119.2,55.3,118.9,55.6,118.5,55.6z"/>
		</g>
		<g>
			<g>
				<path class="st0" d="M114,59.6L114,59.6c-0.2-0.2-0.2-0.6,0-0.9l4-3.7l-4-3.7c-0.2-0.2-0.3-0.6,0-0.9l0,0c0.2-0.2,0.6-0.3,0.9,0
					l5,4.6l-5,4.6C114.6,59.9,114.3,59.8,114,59.6z"/>
			</g>
		</g>
	</g>
	<g>
		<path class="st2" d="M28.9,55.2h-1.6v3.1h-1.4v-8.1h2.9c0.9,0,1.7,0.2,2.2,0.6s0.8,1,0.8,1.8c0,0.5-0.1,1-0.4,1.4
			c-0.3,0.4-0.6,0.6-1.1,0.8l1.8,3.4v0.1h-1.5L28.9,55.2z M27.4,54.1h1.5c0.5,0,0.8-0.1,1.1-0.4s0.4-0.6,0.4-1c0-0.4-0.1-0.8-0.4-1
			c-0.2-0.2-0.6-0.4-1.1-0.4h-1.5V54.1z"/>
		<path class="st2" d="M36.8,58.3c-0.1-0.1-0.1-0.3-0.2-0.6c-0.4,0.5-1,0.7-1.6,0.7c-0.6,0-1.1-0.2-1.5-0.5
			c-0.4-0.3-0.6-0.8-0.6-1.3c0-0.6,0.2-1.1,0.7-1.5c0.5-0.3,1.2-0.5,2.1-0.5h0.8v-0.4c0-0.3-0.1-0.6-0.3-0.8
			c-0.2-0.2-0.4-0.3-0.8-0.3c-0.3,0-0.6,0.1-0.8,0.2c-0.2,0.2-0.3,0.4-0.3,0.6h-1.4c0-0.3,0.1-0.6,0.3-0.9c0.2-0.3,0.5-0.5,0.9-0.7
			c0.4-0.2,0.8-0.2,1.3-0.2c0.7,0,1.3,0.2,1.7,0.5c0.4,0.4,0.6,0.9,0.6,1.5v2.7c0,0.5,0.1,1,0.2,1.3v0.1H36.8z M35.3,57.4
			c0.3,0,0.5-0.1,0.8-0.2c0.2-0.1,0.4-0.3,0.5-0.5v-1.1h-0.7c-0.5,0-0.9,0.1-1.1,0.3c-0.3,0.2-0.4,0.4-0.4,0.7
			c0,0.3,0.1,0.5,0.3,0.6C34.8,57.3,35,57.4,35.3,57.4z"/>
		<path class="st2" d="M39.3,55.3c0-0.9,0.2-1.7,0.6-2.2c0.4-0.6,1-0.8,1.7-0.8c0.6,0,1.2,0.2,1.6,0.7v-3.1h1.4v8.6h-1.2l-0.1-0.6
			c-0.4,0.5-0.9,0.7-1.6,0.7c-0.7,0-1.3-0.3-1.7-0.9C39.6,57,39.3,56.2,39.3,55.3z M40.7,55.4c0,0.6,0.1,1.1,0.4,1.4
			c0.2,0.3,0.6,0.5,1,0.5c0.6,0,1-0.2,1.2-0.7V54c-0.2-0.5-0.7-0.7-1.2-0.7c-0.4,0-0.8,0.2-1,0.5C40.8,54.2,40.7,54.7,40.7,55.4z"/>
		<path class="st2" d="M46.3,50.7c0-0.2,0.1-0.4,0.2-0.5s0.3-0.2,0.6-0.2c0.2,0,0.4,0.1,0.6,0.2c0.1,0.1,0.2,0.3,0.2,0.5
			c0,0.2-0.1,0.4-0.2,0.5c-0.1,0.1-0.3,0.2-0.6,0.2c-0.2,0-0.4-0.1-0.6-0.2C46.4,51.1,46.3,50.9,46.3,50.7z M47.7,58.3h-1.4v-6h1.4
			V58.3z"/>
		<path class="st2" d="M53.1,57.7c-0.4,0.5-1,0.7-1.7,0.7c-0.7,0-1.2-0.2-1.5-0.6c-0.3-0.4-0.5-0.9-0.5-1.7v-3.9h1.4v3.9
			c0,0.8,0.3,1.2,1,1.2c0.7,0,1.1-0.2,1.3-0.7v-4.3h1.4v6h-1.3L53.1,57.7z"/>
		<path class="st2" d="M59.4,56.7c0-0.2-0.1-0.4-0.3-0.6s-0.5-0.2-1-0.3c-0.5-0.1-0.8-0.2-1.2-0.4c-0.7-0.3-1-0.8-1-1.4
			c0-0.5,0.2-1,0.7-1.3c0.4-0.3,1-0.5,1.7-0.5c0.7,0,1.3,0.2,1.8,0.5c0.4,0.4,0.7,0.8,0.7,1.4h-1.4c0-0.3-0.1-0.5-0.3-0.7
			c-0.2-0.2-0.5-0.3-0.8-0.3c-0.3,0-0.5,0.1-0.7,0.2c-0.2,0.1-0.3,0.3-0.3,0.6c0,0.2,0.1,0.4,0.3,0.5c0.2,0.1,0.5,0.2,1.1,0.3
			c0.5,0.1,1,0.3,1.3,0.4c0.3,0.2,0.5,0.4,0.7,0.6c0.1,0.2,0.2,0.5,0.2,0.8c0,0.5-0.2,1-0.7,1.3s-1,0.5-1.8,0.5
			c-0.5,0-0.9-0.1-1.3-0.3s-0.7-0.4-0.9-0.7c-0.2-0.3-0.3-0.7-0.3-1h1.3c0,0.3,0.1,0.6,0.4,0.7c0.2,0.2,0.5,0.3,0.9,0.3
			c0.4,0,0.6-0.1,0.8-0.2C59.3,57.1,59.4,56.9,59.4,56.7z"/>
		<path class="st2" d="M65.4,58.3v-8.1h2.8c0.9,0,1.6,0.2,2.1,0.6c0.5,0.4,0.7,0.9,0.7,1.6c0,0.4-0.1,0.7-0.3,1s-0.5,0.5-0.9,0.7
			c0.4,0.1,0.8,0.3,1,0.7c0.2,0.3,0.4,0.7,0.4,1.2c0,0.8-0.2,1.3-0.7,1.8c-0.5,0.4-1.2,0.6-2.1,0.6H65.4z M66.8,53.6h1.4
			c0.4,0,0.8-0.1,1-0.3s0.4-0.5,0.4-0.8c0-0.4-0.1-0.7-0.3-0.9s-0.6-0.3-1.1-0.3h-1.4V53.6z M66.8,54.7v2.5h1.6c0.4,0,0.8-0.1,1-0.3
			s0.4-0.5,0.4-0.9c0-0.8-0.4-1.3-1.3-1.3H66.8z"/>
		<path class="st2" d="M76.3,57.7c-0.4,0.5-1,0.7-1.7,0.7c-0.7,0-1.2-0.2-1.5-0.6c-0.3-0.4-0.5-0.9-0.5-1.7v-3.9H74v3.9
			c0,0.8,0.3,1.2,1,1.2c0.7,0,1.1-0.2,1.3-0.7v-4.3h1.4v6h-1.3L76.3,57.7z"/>
		<path class="st2" d="M81,50.8v1.5H82v1H81v3.4c0,0.2,0,0.4,0.1,0.5c0.1,0.1,0.3,0.2,0.5,0.2c0.2,0,0.3,0,0.5-0.1v1.1
			c-0.3,0.1-0.6,0.1-0.9,0.1c-1,0-1.6-0.6-1.6-1.7v-3.4h-1v-1h1v-1.5H81z"/>
		<path class="st2" d="M85,50.8v1.5h1.1v1H85v3.4c0,0.2,0,0.4,0.1,0.5c0.1,0.1,0.3,0.2,0.5,0.2c0.2,0,0.3,0,0.5-0.1v1.1
			c-0.3,0.1-0.6,0.1-0.9,0.1c-1,0-1.6-0.6-1.6-1.7v-3.4h-1v-1h1v-1.5H85z"/>
		<path class="st2" d="M86.9,55.3c0-0.6,0.1-1.1,0.4-1.6c0.2-0.5,0.6-0.8,1-1.1c0.4-0.3,0.9-0.4,1.5-0.4c0.8,0,1.5,0.3,2,0.8
			c0.5,0.5,0.8,1.2,0.8,2.1l0,0.3c0,0.6-0.1,1.1-0.3,1.6c-0.2,0.5-0.6,0.8-1,1.1s-0.9,0.4-1.5,0.4c-0.9,0-1.5-0.3-2-0.9
			C87.2,57,86.9,56.3,86.9,55.3L86.9,55.3z M88.3,55.4c0,0.6,0.1,1.1,0.4,1.5s0.6,0.5,1.1,0.5s0.8-0.2,1.1-0.5
			c0.3-0.4,0.4-0.9,0.4-1.6c0-0.6-0.1-1.1-0.4-1.5c-0.3-0.4-0.6-0.5-1.1-0.5c-0.4,0-0.8,0.2-1.1,0.5S88.3,54.7,88.3,55.4z"/>
		<path class="st2" d="M95.2,52.3l0,0.7c0.4-0.5,1-0.8,1.8-0.8c1.3,0,1.9,0.7,1.9,2.2v4h-1.4v-3.9c0-0.4-0.1-0.7-0.2-0.9
			c-0.2-0.2-0.4-0.3-0.8-0.3c-0.5,0-1,0.2-1.2,0.7v4.3h-1.4v-6H95.2z"/>
	</g>
</g>
</svg>
