<?xml version="1.0" encoding="utf-8"?>
<!-- Generator: Adobe Illustrator 25.2.1, SVG Export Plug-In . SVG Version: 6.00 Build 0)  -->
<svg version="1.1" id="Layer_1" xmlns="http://www.w3.org/2000/svg" xmlns:xlink="http://www.w3.org/1999/xlink" x="0px" y="0px"
	 viewBox="0 0 145 110" style="enable-background:new 0 0 145 110;" xml:space="preserve">
<style type="text/css">
	.st0{fill:#EFEFEF;}
	.st1{fill:#F2F3F7;}
	.st2{fill:#0066FF;}
</style>
<g>
	<rect class="st0" width="145" height="110"/>
</g>
<g>
	<path class="st1" d="M15,74.1V35.9c0-1.6,1.3-2.9,2.9-2.9h109.1c1.6,0,2.9,1.3,2.9,2.9v38.1c0,1.6-1.3,2.9-2.9,2.9H17.9
		C16.3,77,15,75.7,15,74.1z"/>
	<g>
		<path class="st2" d="M127.1,33h-4v1h4V33L127.1,33L127.1,33z M119.1,33h-4v1h4V33L119.1,33z M111.1,33h-4v1h4V33L111.1,33z
			 M103.1,33h-4v1h4V33L103.1,33z M95.1,33h-4v1h4V33L95.1,33z M87.1,33h-4v1h4V33L87.1,33z M79.1,33h-4v1h4V33L79.1,33z M71.1,33
			h-4v1h4V33L71.1,33z M63.1,33h-4v1h4V33L63.1,33z M55.1,33h-4v1h4V33L55.1,33z M47.1,33h-4v1h4V33L47.1,33z M39.1,33h-4v1h4V33
			L39.1,33z M31.1,33h-4v1h4V33L31.1,33z M23.1,33h-4v1h4V33L23.1,33z M15.5,34.3C15.5,34.3,15.5,34.3,15.5,34.3L15.5,34.3
			C15.5,34.3,15.5,34.3,15.5,34.3L15.5,34.3L15.5,34.3L15.5,34.3C15.5,34.3,15.5,34.3,15.5,34.3L15.5,34.3L15.5,34.3L15.5,34.3
			L15.5,34.3L15.5,34.3L15.5,34.3L15.5,34.3L15.5,34.3L15.5,34.3L15.5,34.3L15.5,34.3L15.5,34.3L15.5,34.3L15.5,34.3L15.5,34.3
			L15.5,34.3C15.5,34.3,15.5,34.3,15.5,34.3L15.5,34.3L15.5,34.3L15.5,34.3c-0.3,0.4-0.4,0.9-0.5,1.3l0,0c0,0,0,0,0,0l0,0v0l0,0l0,0
			l0,0v0l0,0l0,0l0,0v0l0,0c0,0,0,0,0,0l0,0l0,0l0,0v0l0,0l0,0l0,0v0l0,0l0,0l0,0v0l0,0l0,0l0,0v0l0,0l0,0l0,0v0l0,0l0,0l0,0v0l0,0
			l0,0l0,0v0l0,0l0,0l0,0v0l0,0l0,0l0,0v0l0,0l0,0l0,0v0l0,0l0,0l0,0v0l0,0l0,0l0,0v0l0,0l0,0l0,0v0l0,0l0,0l0,0v0l0,0l0,0l0,0l0,0
			v2.3h1v-2.3c0-0.4,0.1-0.8,0.3-1.1L15.5,34.3L15.5,34.3z M16,42.2h-1v4h1V42.2L16,42.2z M16,50.2h-1v4h1V50.2L16,50.2z M16,58.2
			h-1v4h1V58.2L16,58.2z M16,66.2h-1v4h1V66.2L16,66.2z M16,74.2l-1,0c0,0.5,0.1,0.9,0.4,1.3l0,0l0,0l0,0c0,0,0,0,0,0l0,0l0,0l0,0
			l0,0l0,0l0,0l0,0c0,0,0,0,0,0l0,0l0,0l0,0l0,0l0,0l0,0l0,0l0,0l0,0l0,0l0,0c0,0,0,0,0,0l0,0l0,0l0,0l0,0l0,0l0,0l0,0l0,0l0,0l0,0
			l0,0l0,0l0,0l0,0l0,0l0,0l0,0l0,0l0,0l0,0l0,0l0,0l0,0l0,0c0,0,0,0,0,0l0,0l0,0l0,0l0,0l0,0l0,0l0,0l0,0l0,0l0,0l0,0c0,0,0,0,0,0
			l0,0l0,0l0,0l0,0l0,0l0,0l0,0l0,0l0,0l0,0l0,0c0,0,0,0,0,0l0,0l0,0l0,0l0,0l0,0l0,0l0,0l0,0l0,0l0,0l0,0c0,0,0,0,0,0l0,0l0,0l0,0
			l0,0l0,0l0,0l0,0l0,0l0,0l0,0l0,0l0,0l0,0l0,0l0,0l0,0l0,0l0,0l0,0l0,0l0,0l0,0l0,0l0,0l0,0l0,0l0,0c0.4,0.6,1.1,1.1,1.9,1.2
			l0.2-1C16.7,75.8,16,75.1,16,74.2L16,74.2z M25.5,76h-4v1h4V76L25.5,76z M33.5,76h-4v1h4V76L33.5,76z M41.5,76h-4v1h4V76L41.5,76z
			 M49.5,76h-4v1h4V76L49.5,76z M57.5,76h-4v1h4V76L57.5,76z M65.4,76h-4v1h4V76L65.4,76z M73.4,76h-4v1h4V76L73.4,76z M81.4,76h-4
			v1h4V76L81.4,76z M89.4,76h-4v1h4V76L89.4,76z M97.4,76h-4v1h4V76L97.4,76z M105.4,76h-4v1h4V76L105.4,76z M113.4,76h-4v1h4V76
			L113.4,76z M121.4,76h-4v1h4V76L121.4,76z M128.5,75.4c-0.4,0.4-0.9,0.6-1.4,0.6h-1.6v1h1.6l0,0l0,0l0,0l0,0l0,0l0,0l0,0l0,0l0,0
			l0,0l0,0l0,0l0,0l0,0l0,0l0,0l0,0l0,0l0,0l0,0l0,0l0,0l0,0l0,0l0,0l0,0l0,0l0,0l0,0l0,0l0,0l0,0l0,0l0,0l0,0l0,0l0,0l0,0l0,0l0,0
			l0,0l0,0l0,0l0,0l0,0l0,0l0,0l0,0l0,0l0,0l0,0l0,0h0l0,0l0,0l0,0l0,0l0,0l0,0l0,0l0,0l0,0l0,0l0,0l0,0l0,0l0,0l0,0l0,0l0,0l0,0
			l0,0l0,0l0,0l0,0l0,0l0,0l0,0l0,0l0,0l0,0l0,0l0,0l0,0l0,0l0,0l0,0l0,0l0,0l0,0l0,0l0,0l0,0l0,0l0,0l0,0l0,0l0,0l0,0l0,0l0,0l0,0
			l0,0l0,0l0,0l0,0l0,0l0,0l0,0l0,0l0,0l0,0l0,0l0,0l0,0l0,0l0,0l0,0l0,0l0,0l0,0l0,0l0,0l0,0l0,0l0,0l0,0l0,0l0,0l0,0l0,0l0,0l0,0
			l0,0l0,0l0,0l0,0l0,0l0,0l0,0l0,0l0,0l0,0l0,0l0,0l0,0l0,0l0,0l0,0l0,0l0,0l0,0l0,0l0,0l0,0l0,0l0,0l0,0l0,0l0,0l0,0h0l0,0l0,0
			l0,0l0,0l0,0l0,0l0,0l0,0l0,0l0,0l0,0l0,0l0,0l0,0l0,0l0,0l0,0l0,0l0,0l0,0l0,0l0,0l0,0l0,0l0,0l0,0l0,0l0,0l0,0l0,0l0,0l0,0l0,0
			l0,0l0,0l0,0l0,0l0,0l0,0l0,0l0,0l0,0l0,0l0,0l0,0l0,0l0,0l0,0l0,0l0,0l0,0c0,0,0,0,0,0l0,0l0,0l0,0l0,0l0,0l0,0l0,0l0,0l0,0l0,0
			l0,0l0,0l0,0l0,0l0,0l0,0l0,0l0,0l0,0l0,0l0,0l0,0l0,0l0,0l0,0l0,0l0,0l0,0l0,0l0,0l0,0l0,0l0,0l0,0l0,0l0,0l0,0l0,0l0,0l0,0l0,0
			l0,0l0,0l0,0l0,0l0,0l0,0l0,0l0,0c0,0,0,0,0,0l0,0l0,0l0,0l0,0l0,0l0,0l0,0l0,0l0,0l0,0l0,0l0,0l0,0l0,0l0,0l0,0l0,0l0,0l0,0l0,0
			l0,0l0,0l0,0l0,0l0,0l0,0l0,0l0,0l0,0l0,0l0,0l0,0l0,0l0,0l0,0l0,0l0,0l0,0l0,0l0,0l0,0l0,0l0,0l0,0l0,0l0,0l0,0l0,0l0,0
			c0,0,0,0,0,0l0,0l0,0l0,0l0,0l0,0l0,0l0,0l0,0l0,0l0,0l0,0l0,0l0,0l0,0l0,0l0,0l0,0l0,0l0,0l0,0l0,0l0,0l0,0l0,0l0,0l0,0l0,0l0,0
			l0,0l0,0l0,0l0,0l0,0l0,0l0,0l0,0l0,0l0,0l0,0l0,0l0,0l0,0l0,0l0,0l0,0c0,0,0,0,0,0l0,0l0,0l0,0l0,0l0,0l0,0l0,0l0,0l0,0l0,0l0,0
			l0,0l0,0l0,0l0,0l0,0l0,0l0,0l0,0l0,0l0,0l0,0l0,0l0,0l0,0l0,0l0,0l0,0l0,0l0,0l0,0l0,0l0,0l0,0l0,0l0,0l0,0l0,0l0,0l0,0l0,0l0,0
			l0,0c0,0,0,0,0,0l0,0l0,0l0,0l0,0l0,0l0,0l0,0l0,0l0,0l0,0l0,0l0,0l0,0l0,0l0,0l0,0l0,0l0,0l0,0l0,0l0,0l0,0l0,0l0,0l0,0l0,0l0,0
			l0,0l0,0l0,0l0,0l0,0l0,0l0,0l0,0l0,0l0,0c0,0,0,0,0.1,0l0,0h0l0,0l0,0l0,0l0,0l0,0l0,0l0,0l0,0l0,0l0,0l0,0l0,0l0,0c0,0,0,0,0,0
			l0,0l0,0l0,0c0.3-0.2,0.6-0.4,0.9-0.6L128.5,75.4L128.5,75.4z M130,68.3h-1v4h1V68.3L130,68.3z M130,60.3h-1v4h1V60.3L130,60.3z
			 M130,52.3h-1v4h1V52.3L130,52.3z M130,44.3h-1v4h1V44.3L130,44.3z M130,36.3h-1v4h1V36.3L130,36.3z M127.1,33v1
			c0.2,0,0.4,0,0.6,0.1l0.3-1c-0.2-0.1-0.4-0.1-0.6-0.1l0,0l0,0l0,0l0,0l0,0h0l0,0l0,0l0,0h0l0,0l0,0l0,0l0,0l0,0h0l0,0l0,0l0,0l0,0
			l0,0h0l0,0l0,0l0,0l0,0l0,0h0l0,0l0,0l0,0l0,0l0,0l0,0l0,0h0l0,0l0,0l0,0l0,0l0,0l0,0l0,0l0,0l0,0l0,0l0,0l0,0l0,0l0,0l0,0l0,0
			l0,0l0,0l0,0l0,0l0,0l0,0l0,0l0,0l0,0l0,0l0,0l0,0l0,0l0,0l0,0l0,0l0,0l0,0l0,0l0,0l0,0l0,0l0,0l0,0l0,0l0,0l0,0l0,0l0,0l0,0l0,0
			l0,0l0,0l0,0l0,0l0,0l0,0l0,0l0,0l0,0l0,0l0,0l0,0l0,0l0,0l0,0l0,0l0,0l0,0l0,0l0,0l0,0l0,0l0,0l0,0l0,0l0,0l0,0l0,0l0,0l0,0l0,0
			l0,0l0,0l0,0l0,0l0,0l0,0l0,0l0,0l0,0l0,0l0,0l0,0l0,0l0,0l0,0l0,0l0,0l0,0l0,0l0,0l0,0l0,0l0,0l0,0l0,0l0,0l0,0l0,0l0,0l0,0l0,0
			l0,0l0,0C127.1,33,127.1,33,127.1,33L127.1,33L127.1,33L127.1,33L127.1,33z"/>
	</g>
</g>
<g>
	<path class="st2" d="M32.5,55.3h-1.9V59h-1.7v-9.7h3.4c1.1,0,2,0.3,2.6,0.8c0.6,0.5,0.9,1.2,0.9,2.2c0,0.6-0.2,1.2-0.5,1.6
		c-0.3,0.4-0.8,0.8-1.3,1l2.2,4V59h-1.8L32.5,55.3z M30.6,53.9h1.7c0.6,0,1-0.1,1.3-0.4c0.3-0.3,0.5-0.7,0.5-1.2
		c0-0.5-0.1-0.9-0.4-1.2c-0.3-0.3-0.7-0.4-1.3-0.4h-1.8V53.9z"/>
	<path class="st2" d="M41.9,59c-0.1-0.1-0.1-0.4-0.2-0.7c-0.5,0.5-1.1,0.8-1.9,0.8c-0.7,0-1.3-0.2-1.8-0.6c-0.5-0.4-0.7-0.9-0.7-1.5
		c0-0.8,0.3-1.4,0.9-1.8c0.6-0.4,1.4-0.6,2.5-0.6h1v-0.5c0-0.4-0.1-0.7-0.3-0.9c-0.2-0.2-0.5-0.3-1-0.3c-0.4,0-0.7,0.1-0.9,0.3
		c-0.2,0.2-0.4,0.4-0.4,0.7h-1.6c0-0.4,0.1-0.8,0.4-1.1c0.3-0.3,0.6-0.6,1.1-0.8c0.5-0.2,1-0.3,1.5-0.3c0.8,0,1.5,0.2,2,0.6
		c0.5,0.4,0.8,1,0.8,1.8v3.3c0,0.6,0.1,1.2,0.3,1.6V59H41.9z M40.1,57.8c0.3,0,0.6-0.1,0.9-0.2s0.5-0.4,0.6-0.6v-1.4h-0.9
		c-0.6,0-1.1,0.1-1.4,0.3s-0.5,0.5-0.5,0.9c0,0.3,0.1,0.6,0.3,0.7C39.5,57.7,39.7,57.8,40.1,57.8z"/>
	<path class="st2" d="M44.9,55.3c0-1.1,0.3-2,0.8-2.7c0.5-0.7,1.2-1,2.1-1c0.8,0,1.4,0.3,1.9,0.8v-3.7h1.6V59h-1.5l-0.1-0.7
		c-0.5,0.6-1.1,0.9-1.9,0.9c-0.8,0-1.5-0.3-2.1-1C45.2,57.4,44.9,56.5,44.9,55.3z M46.5,55.5c0,0.7,0.1,1.3,0.4,1.7
		c0.3,0.4,0.7,0.6,1.2,0.6c0.7,0,1.1-0.3,1.5-0.9v-3.1c-0.3-0.6-0.8-0.9-1.4-0.9c-0.5,0-0.9,0.2-1.2,0.6
		C46.7,54,46.5,54.6,46.5,55.5z"/>
	<path class="st2" d="M53.2,49.9c0-0.2,0.1-0.5,0.2-0.6c0.2-0.2,0.4-0.2,0.7-0.2s0.5,0.1,0.7,0.2c0.2,0.2,0.2,0.4,0.2,0.6
		c0,0.2-0.1,0.4-0.2,0.6s-0.4,0.2-0.7,0.2s-0.5-0.1-0.7-0.2S53.2,50.2,53.2,49.9z M54.9,59h-1.6v-7.2h1.6V59z"/>
	<path class="st2" d="M61.3,58.3c-0.5,0.6-1.2,0.8-2,0.8c-0.8,0-1.4-0.2-1.8-0.7s-0.6-1.1-0.6-2v-4.7h1.6v4.7c0,0.9,0.4,1.4,1.1,1.4
		c0.8,0,1.3-0.3,1.6-0.8v-5.2h1.6V59h-1.5L61.3,58.3z"/>
	<path class="st2" d="M68.9,57c0-0.3-0.1-0.5-0.4-0.7c-0.2-0.2-0.6-0.3-1.2-0.4c-0.6-0.1-1-0.3-1.4-0.4c-0.8-0.4-1.2-1-1.2-1.7
		c0-0.6,0.3-1.1,0.8-1.6c0.5-0.4,1.2-0.6,2-0.6c0.9,0,1.6,0.2,2.1,0.6c0.5,0.4,0.8,1,0.8,1.7h-1.6c0-0.3-0.1-0.6-0.3-0.8
		c-0.2-0.2-0.5-0.3-0.9-0.3c-0.4,0-0.6,0.1-0.9,0.2c-0.2,0.2-0.3,0.4-0.3,0.7c0,0.2,0.1,0.4,0.3,0.6c0.2,0.1,0.6,0.3,1.3,0.4
		s1.1,0.3,1.5,0.5s0.6,0.4,0.8,0.7c0.2,0.3,0.3,0.6,0.3,1c0,0.6-0.3,1.2-0.8,1.6c-0.5,0.4-1.2,0.6-2.1,0.6c-0.6,0-1.1-0.1-1.6-0.3
		c-0.5-0.2-0.8-0.5-1.1-0.9c-0.3-0.4-0.4-0.8-0.4-1.2h1.6c0,0.4,0.2,0.7,0.4,0.9c0.3,0.2,0.6,0.3,1.1,0.3c0.4,0,0.8-0.1,1-0.2
		C68.7,57.5,68.9,57.3,68.9,57z"/>
	<path class="st2" d="M76,59v-9.7h3.3c1.1,0,1.9,0.2,2.5,0.7c0.6,0.4,0.9,1.1,0.9,2c0,0.4-0.1,0.8-0.4,1.2c-0.2,0.4-0.6,0.6-1.1,0.8
		c0.5,0.1,0.9,0.4,1.2,0.8c0.3,0.4,0.4,0.9,0.4,1.4c0,0.9-0.3,1.6-0.9,2.1c-0.6,0.5-1.4,0.7-2.5,0.7H76z M77.7,53.4h1.7
		c0.5,0,0.9-0.1,1.2-0.4c0.3-0.2,0.4-0.6,0.4-1c0-0.5-0.1-0.8-0.4-1c-0.3-0.2-0.7-0.3-1.3-0.3h-1.6V53.4z M77.7,54.6v3h1.9
		c0.5,0,0.9-0.1,1.2-0.4c0.3-0.3,0.4-0.6,0.4-1.1c0-1-0.5-1.5-1.5-1.5H77.7z"/>
	<path class="st2" d="M89.1,58.3c-0.5,0.6-1.2,0.8-2,0.8c-0.8,0-1.4-0.2-1.8-0.7c-0.4-0.5-0.6-1.1-0.6-2v-4.7h1.6v4.7
		c0,0.9,0.4,1.4,1.1,1.4c0.8,0,1.3-0.3,1.6-0.8v-5.2h1.6V59h-1.5L89.1,58.3z"/>
	<path class="st2" d="M94.6,50v1.8h1.3V53h-1.3v4c0,0.3,0.1,0.5,0.2,0.6c0.1,0.1,0.3,0.2,0.6,0.2c0.2,0,0.4,0,0.6-0.1V59
		c-0.4,0.1-0.7,0.2-1.1,0.2c-1.2,0-1.9-0.7-1.9-2.1V53h-1.2v-1.2H93V50H94.6z"/>
	<path class="st2" d="M99.4,50v1.8h1.3V53h-1.3v4c0,0.3,0.1,0.5,0.2,0.6c0.1,0.1,0.3,0.2,0.6,0.2c0.2,0,0.4,0,0.6-0.1V59
		c-0.4,0.1-0.7,0.2-1.1,0.2c-1.2,0-1.9-0.7-1.9-2.1V53h-1.2v-1.2h1.2V50H99.4z"/>
	<path class="st2" d="M101.7,55.3c0-0.7,0.1-1.3,0.4-1.9c0.3-0.6,0.7-1,1.2-1.3c0.5-0.3,1.1-0.5,1.7-0.5c1,0,1.8,0.3,2.4,0.9
		c0.6,0.6,0.9,1.5,1,2.5l0,0.4c0,0.7-0.1,1.3-0.4,1.9c-0.3,0.6-0.7,1-1.2,1.3c-0.5,0.3-1.1,0.5-1.8,0.5c-1,0-1.8-0.3-2.4-1
		S101.7,56.5,101.7,55.3L101.7,55.3z M103.3,55.5c0,0.7,0.2,1.3,0.5,1.7c0.3,0.4,0.7,0.6,1.3,0.6s1-0.2,1.3-0.6
		c0.3-0.4,0.5-1.1,0.5-1.9c0-0.7-0.2-1.3-0.5-1.7s-0.7-0.6-1.3-0.6c-0.5,0-0.9,0.2-1.3,0.6C103.5,54,103.3,54.6,103.3,55.5z"/>
	<path class="st2" d="M111.5,51.8l0,0.8c0.5-0.6,1.2-1,2.1-1c1.5,0,2.3,0.9,2.3,2.6V59h-1.6v-4.7c0-0.5-0.1-0.8-0.3-1
		c-0.2-0.2-0.5-0.3-1-0.3c-0.7,0-1.1,0.3-1.5,0.9V59H110v-7.2H111.5z"/>
</g>
</svg>
