<?xml version="1.0" encoding="utf-8"?>
<!-- Generator: Adobe Illustrator 25.2.1, SVG Export Plug-In . SVG Version: 6.00 Build 0)  -->
<svg version="1.1" id="Layer_1" xmlns="http://www.w3.org/2000/svg" xmlns:xlink="http://www.w3.org/1999/xlink" x="0px" y="0px"
	 viewBox="0 0 320 160" style="enable-background:new 0 0 320 160;" xml:space="preserve">
<style type="text/css">
	.st0{fill:#FFFFFF;}
	.st1{fill:#3E64FF;}
</style>
<rect class="st0" width="320" height="160"/>
<path class="st1" d="M35,40h251c3.3,0,6,2.7,6,6v68c0,3.3-2.7,6-6,6H35c-3.3,0-6-2.7-6-6V46C29,42.7,31.7,40,35,40z"/>
<g>
	<path class="st0" d="M83.4,89.4l-4-6.6H78v6.6h-3.4V72.5H81c2,0,3.5,0.5,4.5,1.4c1,1,1.5,2.2,1.5,3.8c0,1.3-0.4,2.4-1.1,3.2
		c-0.7,0.9-1.7,1.4-3.1,1.7l4.2,6.8H83.4z M78,80.5h2.8c1.9,0,2.9-0.9,2.9-2.6c0-0.8-0.2-1.5-0.7-1.9c-0.5-0.5-1.2-0.7-2.2-0.7H78
		V80.5z"/>
	<path class="st0" d="M97.9,76.7c0.8,0.5,1.4,1.2,1.7,2.1v-2.8h3.4v13.3h-3.4v-2.8c-0.3,0.9-0.9,1.6-1.7,2.1
		c-0.8,0.5-1.8,0.8-2.9,0.8c-1.1,0-2.1-0.3-3-0.8c-0.9-0.5-1.6-1.3-2.1-2.4c-0.5-1-0.8-2.2-0.8-3.6s0.3-2.6,0.8-3.6
		c0.5-1,1.2-1.8,2.1-2.4c0.9-0.5,1.9-0.8,3-0.8C96.2,75.9,97.1,76.2,97.9,76.7z M93.6,79.9c-0.6,0.7-1,1.6-1,2.8
		c0,1.2,0.3,2.1,1,2.8c0.6,0.7,1.5,1,2.5,1c1,0,1.9-0.3,2.5-1c0.7-0.7,1-1.6,1-2.8c0-1.2-0.3-2.1-1-2.8c-0.7-0.7-1.5-1-2.5-1
		C95.1,78.9,94.2,79.2,93.6,79.9z"/>
	<path class="st0" d="M114.6,76.7c0.8,0.5,1.4,1.2,1.7,2.1v-7.2h3.4v17.8h-3.4v-2.8c-0.4,0.9-0.9,1.6-1.7,2.1
		c-0.8,0.5-1.7,0.8-2.9,0.8c-1.1,0-2.1-0.3-3-0.8c-0.9-0.5-1.6-1.3-2.1-2.4c-0.5-1-0.8-2.2-0.8-3.6s0.3-2.6,0.8-3.6
		c0.5-1,1.2-1.8,2.1-2.4c0.9-0.5,1.9-0.8,3-0.8C112.9,75.9,113.8,76.2,114.6,76.7z M110.3,79.9c-0.6,0.7-1,1.6-1,2.8
		c0,1.2,0.3,2.1,1,2.8c0.6,0.7,1.5,1,2.5,1c1,0,1.9-0.3,2.5-1c0.7-0.7,1-1.6,1-2.8c0-1.2-0.3-2.1-1-2.8c-0.7-0.7-1.5-1-2.5-1
		C111.8,78.9,110.9,79.2,110.3,79.9z"/>
	<path class="st0" d="M123.4,71c0.4-0.3,0.9-0.5,1.5-0.5c0.6,0,1.1,0.2,1.5,0.5c0.4,0.3,0.6,0.8,0.6,1.3c0,0.5-0.2,1-0.6,1.3
		c-0.4,0.3-0.9,0.5-1.5,0.5c-0.6,0-1.1-0.2-1.5-0.5c-0.4-0.3-0.6-0.8-0.6-1.3C122.9,71.7,123.1,71.3,123.4,71z M126.6,76.1v13.3
		h-3.4V76.1H126.6z"/>
	<path class="st0" d="M142.9,76.1v13.3h-3.4v-2.7c-0.4,0.9-0.9,1.6-1.7,2.1s-1.7,0.8-2.8,0.8c-1.5,0-2.8-0.5-3.7-1.5
		c-0.9-1-1.4-2.4-1.4-4.2v-7.7h3.4v7.3c0,1.1,0.3,1.9,0.8,2.5c0.5,0.6,1.3,0.9,2.2,0.9c1,0,1.8-0.3,2.3-0.9c0.6-0.6,0.9-1.5,0.9-2.7
		v-7.1H142.9z"/>
	<path class="st0" d="M154.9,77.2c1,0.8,1.6,1.9,1.8,3.3h-3.2c-0.1-0.6-0.4-1.2-0.9-1.5c-0.4-0.4-1-0.6-1.8-0.6
		c-0.6,0-1,0.1-1.3,0.4c-0.3,0.3-0.5,0.6-0.5,1.1c0,0.4,0.1,0.7,0.4,0.9s0.6,0.4,1,0.5c0.4,0.1,0.9,0.3,1.7,0.5
		c1,0.2,1.8,0.5,2.5,0.7c0.6,0.2,1.2,0.6,1.6,1.2s0.7,1.3,0.7,2.2c0,1.1-0.4,2.1-1.3,2.8c-0.9,0.7-2.1,1.1-3.6,1.1
		c-1.7,0-3.1-0.4-4.2-1.2c-1-0.8-1.7-1.9-1.9-3.3h3.2c0.1,0.7,0.4,1.2,0.9,1.5c0.5,0.4,1.1,0.6,1.9,0.6c0.6,0,1-0.1,1.3-0.4
		c0.3-0.3,0.5-0.6,0.5-1.1c0-0.4-0.1-0.7-0.4-0.9c-0.3-0.2-0.6-0.4-1-0.6c-0.4-0.1-0.9-0.3-1.7-0.5c-1-0.2-1.8-0.5-2.4-0.7
		c-0.6-0.2-1.1-0.6-1.6-1.1c-0.4-0.5-0.7-1.2-0.7-2.1c0-1.2,0.4-2.1,1.3-2.8c0.9-0.7,2.1-1.1,3.6-1.1
		C152.7,75.9,154,76.3,154.9,77.2z"/>
	<path class="st0" d="M177.6,82.1c0.6,0.8,0.9,1.7,0.9,2.7c0,1.4-0.5,2.5-1.4,3.4c-1,0.8-2.3,1.2-4.1,1.2h-7.3V72.5h7.1
		c1.7,0,3,0.4,3.9,1.1c0.9,0.8,1.4,1.8,1.4,3.2c0,1.1-0.3,1.9-0.8,2.6c-0.6,0.7-1.3,1.1-2.2,1.3C176.1,80.9,176.9,81.4,177.6,82.1z
		 M169,79.6h3c0.8,0,1.5-0.2,1.9-0.6c0.4-0.4,0.7-0.9,0.7-1.6s-0.2-1.2-0.6-1.6c-0.4-0.4-1.1-0.6-2-0.6h-3V79.6z M174.3,86
		c0.5-0.4,0.7-1,0.7-1.7c0-0.8-0.2-1.3-0.7-1.7c-0.5-0.4-1.2-0.6-2.1-0.6H169v4.7h3.2C173.1,86.6,173.8,86.4,174.3,86z"/>
	<path class="st0" d="M194.1,76.1v13.3h-3.4v-2.7c-0.4,0.9-0.9,1.6-1.7,2.1s-1.7,0.8-2.8,0.8c-1.5,0-2.8-0.5-3.7-1.5
		c-0.9-1-1.4-2.4-1.4-4.2v-7.7h3.4v7.3c0,1.1,0.3,1.9,0.8,2.5c0.5,0.6,1.3,0.9,2.2,0.9c1,0,1.8-0.3,2.3-0.9c0.6-0.6,0.9-1.5,0.9-2.7
		v-7.1H194.1z"/>
	<path class="st0" d="M204.7,86.5v2.9h-1.8c-1.5,0-2.6-0.4-3.4-1.1c-0.8-0.7-1.2-1.9-1.2-3.6V79h-1.8v-2.9h1.8v-3.3h3.4v3.3h3V79h-3
		v5.8c0,0.6,0.1,1.1,0.4,1.3c0.3,0.3,0.7,0.4,1.3,0.4H204.7z"/>
	<path class="st0" d="M214.7,86.5v2.9h-1.8c-1.5,0-2.6-0.4-3.4-1.1c-0.8-0.7-1.2-1.9-1.2-3.6V79h-1.8v-2.9h1.8v-3.3h3.4v3.3h3V79h-3
		v5.8c0,0.6,0.1,1.1,0.4,1.3c0.3,0.3,0.7,0.4,1.3,0.4H214.7z"/>
	<path class="st0" d="M227.3,76.7c1,0.5,1.8,1.3,2.4,2.4c0.6,1,0.9,2.2,0.9,3.6s-0.3,2.6-0.9,3.6c-0.6,1-1.4,1.8-2.4,2.4
		s-2.2,0.8-3.5,0.8s-2.5-0.3-3.5-0.8c-1-0.6-1.8-1.3-2.4-2.4s-0.9-2.2-0.9-3.6s0.3-2.6,0.9-3.6c0.6-1,1.4-1.8,2.4-2.4
		c1-0.5,2.2-0.8,3.5-0.8S226.2,76.2,227.3,76.7z M221.4,79.9c-0.7,0.7-1,1.6-1,2.9c0,1.3,0.3,2.2,1,2.9c0.7,0.7,1.5,1,2.4,1
		s1.7-0.3,2.4-1s1-1.6,1-2.9c0-1.3-0.3-2.2-1-2.9c-0.7-0.7-1.5-1-2.4-1S222,79.2,221.4,79.9z"/>
	<path class="st0" d="M245.1,77.4c0.9,1,1.4,2.4,1.4,4.2v7.7h-3.4v-7.3c0-1.1-0.3-1.9-0.8-2.5c-0.5-0.6-1.3-0.9-2.2-0.9
		c-1,0-1.7,0.3-2.3,0.9s-0.9,1.5-0.9,2.7v7.1h-3.4V76.1h3.4v2.7c0.4-0.9,0.9-1.6,1.7-2.1c0.8-0.5,1.7-0.8,2.8-0.8
		C242.9,75.9,244.1,76.4,245.1,77.4z"/>
</g>
</svg>
