<?xml version="1.0" encoding="utf-8"?>
<!-- Generator: Adobe Illustrator 25.2.1, SVG Export Plug-In . SVG Version: 6.00 Build 0)  -->
<svg version="1.1" id="Layer_1" xmlns="http://www.w3.org/2000/svg" xmlns:xlink="http://www.w3.org/1999/xlink" x="0px" y="0px"
	 viewBox="0 0 320 160" style="enable-background:new 0 0 320 160;" xml:space="preserve">
<style type="text/css">
	.st0{fill:#F8F8F8;}
	.st1{fill:#F1F1F1;}
	.st2{fill:#EEC5B9;}
	.st3{opacity:0.1;fill:#F9F9F9;}
	.st4{fill:#EDAE9B;}
	.st5{fill:#E89AA3;}
	.st6{fill:#AF8CAD;}
	.st7{fill:#9E81A8;}
	.st8{fill:#84617E;}
	.st9{fill:#281F32;}
	.st10{fill:#F9F9F9;}
	.st11{fill:none;}
	.st12{fill-rule:evenodd;clip-rule:evenodd;fill:#DEDEDE;}
	.st13{opacity:0.4;}
	.st14{fill:#FFFFFF;}
</style>
<rect class="st0" width="320" height="160"/>
<path class="st1" d="M10,12.1c0-1.7,1.4-3.1,3.1-3.1h293.9c1.7,0,3.1,1.4,3.1,3.1v136.3c0,1.7-1.4,3.1-3.1,3.1H13.1
	c-1.7,0-3.1-1.4-3.1-3.1V12.1z"/>
<g>
	<rect x="15.3" y="13.8" class="st2" width="286.7" height="130.9"/>
	<path class="st3" d="M302,28.4v56.7c-13-0.3-50.8-0.6-63.9-0.9h0c-63.2-1.5-126.5-3.5-189.7-4.3h0c-8.7-0.1-17.3-0.2-26-0.2h0
		c-2.4,0-4.8,0-7.2,0V53.3c2.8-0.7,5.6-1.4,8.4-2C33.8,49,44,47,54.3,45.8h0c1-0.1,2.1-0.2,3.1-0.3c0.1,0,0.1,0,0.2,0
		c1.5-0.2,3-0.3,4.6-0.4c10.7-0.8,21.6-0.6,32.1,1.1c0,0,0.1,0,0.1,0c0,0,0,0,0,0c2,0.3,4,0.7,5.9,1.1c0.4,0.1,0.8,0.2,1.1,0.3
		c0,0,0,0,0,0c4.3,1,8.5,2.2,12.7,3.8c2.8,1.1,5.6,2.2,8.4,3.5c0,0,0,0,0,0c2.4,1.1,4.9,2.2,7.3,3.4h0c5.9,2.7,11.8,5.4,17.9,7.2
		c1.7,0.5,3.3,0.9,5,1.3c15.9,3.2,31.8-0.6,47.1-7c8.7-3.6,17.1-7.9,25.3-12.2c8.9-4.7,18.3-9.4,27.8-13
		C261,31.5,293.9,29.2,302,28.4z"/>
	<path class="st3" d="M302,40.3v34.1H127.8c-0.6,0,0.3-1.3-0.3-1.3c7.2-1.5,13.8-4.3,20.3-7.7c5.2-2.7,10.4-5.8,15.5-9h0
		c5.9-3.6,11.8-7.2,17.9-10.3c10.1-5.1,21-8.8,32.1-10.9c3.7-0.7,7.4-1.2,11.2-1.6h0c9.5-0.9,19.1-0.6,28.6,0.8
		c1.1,0.2,2.3,0.4,3.4,0.6C263.5,36.3,295.2,38.2,302,40.3z"/>
	<path class="st3" d="M121.3,74.2l-20.1,0.4l-60.6,1.1h0l-9.4,0.2L15.3,76V38.5c13.2,0.8,26.3,3.3,38.9,7.3h0
		c5.5,1.7,10.9,3.8,16.2,6.1c6.3,2.8,12.4,5.9,18.6,9.1h0c0.5,0.2,0.9,0.5,1.4,0.7c2.3,1.2,4.7,2.3,7,3.5h0
		C105.2,68.8,113,72.1,121.3,74.2z"/>
	<path class="st4" d="M302,51.6v67.6H15.3V48l8.4,3.3l25.4,10.1c1.9,0.7,4.4,0.7,6.1-0.1l4.1-1.9c1.8-0.8,4.4-0.9,6.2-0.1L84,67
		c1.8,0.7,4.1,0.8,5.9,0l3.8-1.5c1.2-0.5,2.5-0.6,3.9-0.5h0c0.7,0.1,1.4,0.2,2,0.5l3.4,1.4c1.8,0.7,4.2,0.7,6,0l5.3-2.2l0.4-0.2
		l15.2-6.4h0l8.8-3.7c1.8-0.8,4.3-0.8,6.1,0l6.5,2.9c2,0.9,4.9,0.8,6.7-0.2c1-0.6,2.3-0.8,3.6-0.8c0.5,0,1.1,0,1.6,0.1h0
		c0.5,0.1,1,0.3,1.5,0.5l14.8,6.6c1.9,0.8,4.5,0.8,6.3,0l7.9-3.6c1.7-0.8,4.2-0.9,6.1-0.1l0.1,0.1l4.8,1.8c1.8,0.7,4.1,0.7,5.8,0
		l37.1-15c1.4-0.6,3.2-0.7,4.8-0.3L302,51.6z"/>
	<path class="st5" d="M302,66.9v77.8H15.3V68.3l9.8-4.4c4.1-1.8,8.6-2.2,12.9-1L66,70.5c2.9,0.8,6,0.9,9,0.3l2.3-0.5
		c2.9-0.6,5.9-0.5,8.8,0.2l15.1,3.9l16.9,4.4c3.5,0.9,7.2,0.8,10.7-0.3l13.7-4.3l6.2-1.9c3.6-1.1,7.5-1.2,11.1-0.1
		c1.7,0.5,3.5,0.7,5.3,0.7c2.2,0,4.4-0.4,6.5-1.1l2.6-0.9c2.9-1,6-1.4,9-1l34.2,4.4l19,2.4c2.6,0.3,5.2,0.1,7.8-0.6l6.6-1.9
		L302,66.9z"/>
	<path class="st6" d="M302,72.5v61c-1.1,0.3-2.3,0.4-3.5,0.4H16.3c-0.3,0-0.6,0-0.9,0v-28l45-16.3l4.5-1.6c2.6-0.9,5.4-1.1,8.1-0.3
		l32.6,9.1c0.2,0,22.1-6,22.4-6.1l23.8-6c0.6-0.1,1.2-0.1,1.8-0.1h6.2c1.3,0,2.6,0.2,3.9,0.6l34.5,10.1c2.5,0.7,5.1,0.7,7.6,0.1
		l23-6.3c1-0.3,2-0.7,2.9-1.2l6.5-3.5h0l14.1-7.7c2-1.1,4.3-1.7,6.6-1.7h1.7c1.2,0,2.3-0.1,3.4-0.4c0.4-0.1,0.9-0.3,1.3-0.4l28-1.2
		C296.2,71.8,299.2,71.7,302,72.5z"/>
	<path class="st7" d="M302,111.8v27.1H15.3V82.3l5.1-1.7c0.6-0.2,1.1-0.4,1.7-0.7l0.4-0.2h0l6-3c0.9-0.4,1.8-0.8,2.7-1
		c1.1-0.3,2.2-0.4,3.3-0.4H38c0.9,0,1.8,0.1,2.6,0.3h0c2.2,0.4,4.3,1.4,6,2.8l1.8,1.5h0l11.8,9.7l8,6.6L99,119.2c0,0,0,0,0,0
		c1.8,1.3,3.9,2.2,6.1,2.6l21.1,3.3c0.7,0.1,1.4,0.2,2.1,0.2h22.1c2.2,0,4.4-0.5,6.4-1.6l8.2-4.4l27.4-14.6c0.4-0.2,0.8-0.4,1.1-0.5
		l10.2-4.3c2.1-0.9,4.4-1.2,6.6-1l11.4,1.2c1.6,0.2,3.2,0.6,4.6,1.3l18.2,9c0.6,0.3,1.2,0.5,1.8,0.7c2.6,0.9,5.4,0.9,8.1,0.2
		l6.7-1.9c2.9-0.8,30.7-0.7,33.5,0.4l3.2,1.2C299.2,111.4,300.6,111.7,302,111.8z"/>
	<path class="st8" d="M15.3,144.8v-17.4l16.8-5.3c0.4-0.1,0.9-0.3,1.3-0.6l4-2.3l10.8-6.1c1.8-1,4-1.1,5.9-0.3l14.9,6.5l2.9,1.3
		c0.4,0.2,0.9,0.3,1.4,0.4l66.7,13l5.4,1c0.6,0.1,1.1,0.1,1.7,0.1l18.7-1.2l8.9-0.5c0.4,0,0.8-0.1,1.2-0.2l39.4-9.8
		c0.2,0,0.3-0.1,0.5-0.1l19-3.2c0.8-0.1,1.5-0.4,2.2-0.8c0.4-0.2,0.8-0.5,1.1-0.8l8.3-7.4l16.7-14.9c0.9-0.8,1.9-1.3,3-1.5l35.8-2.4
		v52.5H15.3z"/>
	<path class="st9" d="M302,144.8H150.1l21.3-5.8c0.1,0,0.2-0.1,0.3-0.1c1-0.2,1.9-0.4,2.9-0.4l28.5-0.7c1.5,0,3-0.3,4.4-0.8l8.3-3
		l11.7-4.3c3.5-1.3,7.3-1.1,10.7,0.5l5.3,2.5c1.3,0.6,2.7,1,4.2,1.2c1.2,0.1,2.3,0.1,3.5,0c0.8-0.1,1.5-0.3,2.2-0.5l3.8-1.1
		c3-0.9,31-0.8,33.9,0.4l3.2,1.2l7.6,3V144.8z"/>
	<path class="st9" d="M85.2,144.8H15.3v-9L22,134l10-2.7c2.1-0.6,4.4-0.6,6.5-0.2l13.1,2.8l17.3,3.7c1,0.2,1.9,0.5,2.8,0.9l0.6,0.3
		L85.2,144.8z"/>
	<ellipse transform="matrix(0.7071 -0.7071 0.7071 0.7071 44.7148 161.8997)" class="st10" cx="217.8" cy="27" rx="9.5" ry="9.5"/>
	<g>
		<path class="st9" d="M113.2,63.6c0,0,0.6,1.6,3.9,2.4l1.8,1l1.1-0.1l-0.9-0.9c0,0,2-0.9,3-2.1l1.9-0.7c0,0-3.2,0.5-4.8,1.8
			l-1.1,0.6l-3-0.7C115.2,64.9,113.8,64.2,113.2,63.6z"/>
		<path class="st9" d="M17.2,23.7c0,0,0.5,1.4,3.2,2l1.5,0.9l1-0.1l-0.8-0.7c0,0,1.6-0.8,2.5-1.7l1.6-0.6c0,0-2.6,0.4-4,1.5
			l-0.9,0.5l-2.5-0.6C18.8,24.7,17.7,24.1,17.2,23.7z"/>
		<path class="st9" d="M81,57.8c0,0,0.8,2.6,5.7,4l2.7,1.7l1.8-0.1l-1.3-1.4c0,0,3.1-1.3,4.8-2.9l3-0.9c0,0-4.9,0.4-7.4,2.3
			l-1.8,0.8l-4.6-1.4C83.8,59.8,81.8,58.6,81,57.8z"/>
		<path class="st9" d="M94.2,46c0,0,0.5,1.6,3.5,2.4l1.7,1.1l1.1-0.1l-0.8-0.9c0,0,1.9-0.8,2.9-1.8l1.8-0.5c0,0-3,0.3-4.6,1.4
			l-1.1,0.5l-2.8-0.9C95.9,47.3,94.7,46.5,94.2,46z"/>
		<path class="st9" d="M63.4,63.2c0,0,0.3,0.9,2,1.4l0.9,0.6l0.6,0l-0.5-0.5c0,0,1.1-0.4,1.7-1l1-0.3c0,0-1.7,0.1-2.6,0.8l-0.6,0.3
			l-1.6-0.5C64.3,63.9,63.6,63.5,63.4,63.2z"/>
		<path class="st9" d="M135.9,56.8c0,0,0.3,0.9,2,1.4l0.9,0.6l0.6,0l-0.5-0.5c0,0,1.1-0.4,1.7-1l1-0.3c0,0-1.7,0.1-2.6,0.8l-0.6,0.3
			l-1.6-0.5C136.9,57.5,136.2,57.1,135.9,56.8z"/>
		<polygon class="st9" points="82.9,49.8 81.7,50 78.1,50.3 79.6,50.7 78.5,51.1 76.2,50.5 73.6,50.3 71.7,50.5 73.5,50.1 76,50.2 
			76.8,49.9 79.3,50 		"/>
		<polygon class="st9" points="150.9,79.9 149.5,80.2 144.8,80.5 146.7,81 145.3,81.6 142.4,80.8 139,80.5 136.6,80.8 138.9,80.3 
			142.2,80.4 143.1,80.1 146.3,80.2 		"/>
		<polygon class="st9" points="124.1,37.8 123.2,38 120.5,38.2 121.6,38.5 120.8,38.8 119.1,38.3 117.1,38.2 115.7,38.3 117.1,38 
			119,38.1 119.5,37.9 121.4,38 		"/>
		<polygon class="st9" points="92.3,35.9 91.7,36 89.7,36.1 90.5,36.3 90,36.5 88.7,36.2 87.3,36.1 86.3,36.2 87.3,36 88.6,36.1 
			89,35.9 90.4,36 		"/>
		<polygon class="st9" points="122.6,54.8 121.2,55 116.5,55.4 118.5,55.9 117.1,56.4 114.1,55.7 110.8,55.4 108.3,55.7 110.7,55.2 
			113.9,55.3 114.9,54.9 118.1,55 		"/>
		<polygon class="st9" points="48.7,32.1 47.3,32.3 42.6,32.7 44.5,33.2 43.2,33.7 40.2,32.9 36.9,32.7 34.4,32.9 36.8,32.5 
			40,32.6 41,32.2 44.2,32.3 		"/>
		<polygon class="st9" points="51.5,43.6 55.4,44.4 59.4,46.3 60,47 60.9,46.9 61,46.1 63.7,43.7 67.2,43.2 63.3,43.3 60.5,44.9 
			59.1,45 55.7,44 		"/>
	</g>
	<rect x="15.3" y="13.8" class="st11" width="286.7" height="130.9"/>
</g>
<path class="st12" d="M306.9,9.3H13.1c-1.5,0-2.8,1.3-2.8,2.8v136.3c0,1.5,1.3,2.8,2.8,2.8h293.9c1.5,0,2.8-1.3,2.8-2.8V12.1
	C309.7,10.5,308.5,9.3,306.9,9.3z M13.1,9c-1.7,0-3.1,1.4-3.1,3.1v136.3c0,1.7,1.4,3.1,3.1,3.1h293.9c1.7,0,3.1-1.4,3.1-3.1V12.1
	c0-1.7-1.4-3.1-3.1-3.1H13.1z"/>
<path class="st13" d="M15.3,13.8h144.4v130.9H15.3V13.8z"/>
<path class="st14" d="M159.7,13.8h0.5V146h-0.5V13.8z"/>
<path class="st14" d="M152.5,80.8c-0.5-0.5-0.5-1.3,0-1.8l6.5-6.5c0.5-0.5,1.3-0.5,1.8,0l6.6,6.6c0.5,0.5,0.5,1.3,0,1.8l-6.5,6.5
	c-0.5,0.5-1.3,0.5-1.8,0L152.5,80.8z"/>
<path d="M156.9,79.3h5.6v0.5h-5.6V79.3z"/>
<path d="M162,80.9l1.3-1.3l-1.3-1.3V80.9z"/>
<path d="M157.7,80.9l-1.3-1.3l1.3-1.3V80.9z"/>
<path class="st14" d="M26,136.5c0,0.3-0.2,0.5-0.6,0.5h-0.8V136h0.8C25.8,136,26,136.2,26,136.5z M25.9,134.9c0,0.3-0.2,0.5-0.6,0.5
	h-0.7v-1h0.7C25.7,134.4,25.9,134.6,25.9,134.9z M26.8,136.6c0-0.5-0.3-0.9-0.8-0.9c0.4-0.1,0.7-0.4,0.7-0.9c0-0.6-0.5-1-1.3-1h-1.6
	v3.9h1.7C26.4,137.6,26.8,137.2,26.8,136.6z"/>
<path class="st14" d="M28.8,135.1c0.4,0,0.7,0.3,0.7,0.7h-1.5C28.1,135.4,28.4,135.1,28.8,135.1z M30.3,136.7h-0.8
	c-0.1,0.2-0.3,0.4-0.6,0.4c-0.4,0-0.7-0.3-0.7-0.7h2.3c0-0.1,0-0.2,0-0.3c0-0.9-0.6-1.5-1.5-1.5c-0.9,0-1.6,0.6-1.6,1.6
	c0,1,0.7,1.6,1.6,1.6C29.6,137.7,30.1,137.2,30.3,136.7z"/>
<path class="st14" d="M31,137.6h0.8v-2.5h0.5v-0.6h-0.5v-0.1c0-0.3,0.1-0.5,0.5-0.5v-0.7c-0.9,0-1.3,0.3-1.3,1.1v0.2h-0.4v0.6H31
	V137.6z"/>
<path class="st14" d="M35.8,136.1c0-1-0.7-1.6-1.6-1.6c-0.9,0-1.6,0.6-1.6,1.6c0,1,0.7,1.6,1.6,1.6
	C35.1,137.7,35.8,137.1,35.8,136.1z M33.4,136.1c0-0.6,0.4-0.9,0.8-0.9c0.4,0,0.8,0.3,0.8,0.9c0,0.6-0.4,0.9-0.8,0.9
	C33.8,137,33.4,136.7,33.4,136.1z"/>
<path class="st14" d="M37.2,136.1c0-0.6,0.3-0.8,0.7-0.8h0.2v-0.8c-0.4,0-0.8,0.2-1,0.5v-0.5h-0.8v3.1h0.8V136.1z"/>
<path class="st14" d="M40,135.1c0.4,0,0.7,0.3,0.7,0.7h-1.5C39.3,135.4,39.6,135.1,40,135.1z M41.5,136.7h-0.8
	c-0.1,0.2-0.3,0.4-0.6,0.4c-0.4,0-0.7-0.3-0.7-0.7h2.3c0-0.1,0-0.2,0-0.3c0-0.9-0.6-1.5-1.5-1.5c-0.9,0-1.6,0.6-1.6,1.6
	c0,1,0.7,1.6,1.6,1.6C40.8,137.7,41.3,137.2,41.5,136.7z"/>
<path class="st14" d="M173.6,136.7c0,0.7,0.4,1,1,1h0.5V137h-0.4c-0.2,0-0.3-0.1-0.3-0.3v-1.5h0.7v-0.6h-0.7v-0.8h-0.8v0.8h-0.4v0.6
	h0.4V136.7z"/>
<path class="st14" d="M176.9,135.1c0.4,0,0.7,0.3,0.7,0.7h-1.5C176.3,135.4,176.6,135.1,176.9,135.1z M178.4,136.7h-0.8
	c-0.1,0.2-0.3,0.4-0.6,0.4c-0.4,0-0.7-0.3-0.7-0.7h2.3c0-0.1,0-0.2,0-0.3c0-0.9-0.6-1.5-1.5-1.5c-0.9,0-1.6,0.6-1.6,1.6
	c0,1,0.7,1.6,1.6,1.6C177.7,137.7,178.2,137.2,178.4,136.7z"/>
<path class="st14" d="M179.8,136.1c0-0.6,0.3-0.8,0.7-0.8h0.2v-0.8c-0.4,0-0.8,0.2-1,0.5v-0.5h-0.8v3.1h0.8V136.1z"/>
<path class="st14" d="M170.2,137.6h0.8l-1.4-3.9h-0.9l-1.4,3.9h0.8l0.3-0.7h1.6L170.2,137.6z M169.7,136.3h-1.1l0.6-1.6L169.7,136.3
	z"/>
<path class="st14" d="M171.6,137.6h0.8v-2.5h0.5v-0.6h-0.5v-0.1c0-0.3,0.1-0.5,0.5-0.5v-0.7c-0.9,0-1.3,0.3-1.3,1.1v0.2h-0.4v0.6
	h0.4V137.6z"/>
</svg>
