<?xml version="1.0" encoding="utf-8"?>
<!-- Generator: Adobe Illustrator 25.2.1, SVG Export Plug-In . SVG Version: 6.00 Build 0)  -->
<svg version="1.1" id="Layer_1" xmlns="http://www.w3.org/2000/svg" xmlns:xlink="http://www.w3.org/1999/xlink" x="0px" y="0px"
	 viewBox="0 0 145 110" style="enable-background:new 0 0 145 110;" xml:space="preserve">
<style type="text/css">
	.st0{fill:#EFEFEF;}
	.st1{fill:url(#SVGID_1_);}
	.st2{opacity:0.7;fill:#FFFFFF;}
	.st3{opacity:0.4;fill:#FFFFFF;}
	.st4{fill:#FFFFFF;}
</style>
<g>
	<g>
		<rect class="st0" width="145" height="110"/>
	</g>
	<g>
		<linearGradient id="SVGID_1_" gradientUnits="userSpaceOnUse" x1="131.0606" y1="14.0862" x2="14.191" y2="95.7384">
			<stop  offset="0" style="stop-color:#0066FF"/>
			<stop  offset="1" style="stop-color:#005EC2"/>
		</linearGradient>
		<rect x="14" y="14" class="st1" width="117" height="82"/>
	</g>
	<g>
		<path class="st2" d="M112,70.5H33c-1.4,0-2.5-1.1-2.5-2.5l0,0c0-1.4,1.1-2.5,2.5-2.5h79c1.4,0,2.5,1.1,2.5,2.5l0,0
			C114.5,69.4,113.4,70.5,112,70.5z"/>
		<path class="st3" d="M101.3,80.6H43.7c-0.7,0-1.2-0.6-1.2-1.2v0c0-0.7,0.6-1.2,1.2-1.2h57.6c0.7,0,1.2,0.6,1.2,1.2v0
			C102.5,80.1,102,80.6,101.3,80.6z"/>
		<g>
			<path class="st4" d="M72.5,54.2c-2,0-4.1,0-6.1,0c-2.5,0-4.2-1.7-4.3-4.3c0-2.1,0.2-4.1,1.2-6c0.8-1.6,2.2-2.5,4-2.7
				c0.4,0,0.8,0.1,1.1,0.3c0.7,0.4,1.4,0.9,2.1,1.2c1.6,0.6,3.2,0.4,4.7-0.4c0.4-0.2,0.8-0.5,1.2-0.7c0.5-0.3,1-0.4,1.6-0.3
				c1.6,0.2,2.8,1.1,3.6,2.5c0.7,1.3,1,2.7,1.2,4.2c0.1,0.9,0.2,1.8,0,2.7c-0.3,2-1.9,3.5-4,3.5C76.7,54.2,74.6,54.2,72.5,54.2
				C72.5,54.2,72.5,54.2,72.5,54.2z"/>
			<path class="st4" d="M72.3,29.4c3.4,0,6,2.6,6,6c0,3.3-2.7,6-6,6.1c-3.3,0-6-2.7-6-6.1C66.3,32,69,29.4,72.3,29.4z"/>
		</g>
	</g>
</g>
</svg>
