<?xml version="1.0" encoding="utf-8"?>
<!-- Generator: Adobe Illustrator 25.2.1, SVG Export Plug-In . SVG Version: 6.00 Build 0)  -->
<svg version="1.1" id="Layer_1" xmlns="http://www.w3.org/2000/svg" xmlns:xlink="http://www.w3.org/1999/xlink" x="0px" y="0px"
	 viewBox="0 0 145 110" style="enable-background:new 0 0 145 110;" xml:space="preserve">
<style type="text/css">
	.st0{fill:#EFEFEF;}
	.st1{fill:url(#SVGID_1_);}
	.st2{fill:#FFFFFF;}
	.st3{fill:#F93015;}
</style>
<g>
	<g>
		<rect class="st0" width="145" height="110"/>
	</g>
	<linearGradient id="SVGID_1_" gradientUnits="userSpaceOnUse" x1="130.8895" y1="15.1656" x2="13.4982" y2="95.2525">
		<stop  offset="0" style="stop-color:#FFA63F"/>
		<stop  offset="1" style="stop-color:#FF664D"/>
	</linearGradient>
	<polygon class="st1" points="14,96 14,14 131,14 131,96 	"/>
	<g>
		<path class="st2" d="M105.5,68.7h-66c-2.6,0-4.8-2.1-4.8-4.8V46.1c0-2.6,2.1-4.8,4.8-4.8h66c2.6,0,4.8,2.1,4.8,4.8v17.8
			C110.3,66.6,108.2,68.7,105.5,68.7z"/>
		<g>
			<path class="st3" d="M47,55.2h-1.7v3.3h-1.5v-8.7h3.1c1,0,1.8,0.2,2.3,0.7s0.8,1.1,0.8,2c0,0.6-0.1,1.1-0.4,1.5s-0.7,0.7-1.2,0.9
				l2,3.6v0.1h-1.6L47,55.2z M45.3,54h1.6c0.5,0,0.9-0.1,1.2-0.4c0.3-0.3,0.4-0.6,0.4-1.1c0-0.5-0.1-0.8-0.4-1.1
				c-0.3-0.3-0.7-0.4-1.2-0.4h-1.6V54z"/>
			<path class="st3" d="M54.2,58.7c-0.9,0-1.7-0.3-2.2-0.9c-0.6-0.6-0.9-1.3-0.9-2.3v-0.2c0-0.6,0.1-1.2,0.4-1.7
				c0.2-0.5,0.6-0.9,1-1.2c0.4-0.3,1-0.4,1.5-0.4c0.9,0,1.6,0.3,2,0.8c0.5,0.6,0.7,1.4,0.7,2.4v0.6h-4.2c0,0.5,0.2,1,0.5,1.3
				c0.3,0.3,0.7,0.5,1.2,0.5c0.7,0,1.2-0.3,1.6-0.8l0.8,0.7c-0.3,0.4-0.6,0.7-1,0.9C55.2,58.6,54.7,58.7,54.2,58.7z M54,53.2
				c-0.4,0-0.7,0.1-1,0.4s-0.4,0.7-0.5,1.2h2.8v-0.1c0-0.5-0.2-0.9-0.4-1.1S54.4,53.2,54,53.2z"/>
			<path class="st3" d="M61.7,58.6c-0.1-0.1-0.1-0.3-0.2-0.6c-0.5,0.5-1,0.7-1.7,0.7c-0.6,0-1.2-0.2-1.6-0.6
				c-0.4-0.4-0.6-0.8-0.6-1.4c0-0.7,0.3-1.2,0.8-1.6c0.5-0.4,1.2-0.6,2.2-0.6h0.9v-0.4c0-0.3-0.1-0.6-0.3-0.8
				c-0.2-0.2-0.5-0.3-0.9-0.3c-0.3,0-0.6,0.1-0.8,0.2s-0.3,0.4-0.3,0.6h-1.4c0-0.4,0.1-0.7,0.4-1c0.2-0.3,0.6-0.5,1-0.7
				c0.4-0.2,0.9-0.3,1.4-0.3c0.8,0,1.4,0.2,1.8,0.6c0.4,0.4,0.7,0.9,0.7,1.6v2.9c0,0.6,0.1,1,0.2,1.4v0.1H61.7z M60.1,57.5
				c0.3,0,0.6-0.1,0.8-0.2c0.3-0.1,0.4-0.3,0.6-0.6v-1.2h-0.8c-0.5,0-0.9,0.1-1.2,0.3c-0.3,0.2-0.4,0.5-0.4,0.8
				c0,0.3,0.1,0.5,0.3,0.7C59.6,57.4,59.8,57.5,60.1,57.5z"/>
			<path class="st3" d="M64.2,55.3c0-1,0.2-1.8,0.7-2.4c0.5-0.6,1.1-0.9,1.9-0.9c0.7,0,1.2,0.2,1.7,0.7v-3.3h1.4v9.2h-1.3l-0.1-0.7
				c-0.4,0.5-1,0.8-1.7,0.8c-0.8,0-1.4-0.3-1.8-0.9S64.2,56.3,64.2,55.3z M65.7,55.4c0,0.7,0.1,1.2,0.4,1.5c0.3,0.4,0.6,0.6,1.1,0.6
				c0.6,0,1-0.3,1.3-0.8V54c-0.3-0.5-0.7-0.8-1.3-0.8c-0.5,0-0.8,0.2-1.1,0.6C65.8,54.1,65.7,54.7,65.7,55.4z"/>
			<path class="st3" d="M76.5,49.9l2.5,6.7l2.5-6.7h2v8.7H82v-2.9l0.1-3.8l-2.6,6.7h-1.1l-2.6-6.7l0.1,3.8v2.9h-1.5v-8.7H76.5z"/>
			<path class="st3" d="M84.8,55.3c0-0.6,0.1-1.2,0.4-1.7c0.3-0.5,0.6-0.9,1.1-1.2s1-0.4,1.6-0.4c0.9,0,1.6,0.3,2.1,0.8
				c0.5,0.6,0.8,1.3,0.9,2.2l0,0.3c0,0.6-0.1,1.2-0.4,1.7s-0.6,0.9-1,1.2c-0.5,0.3-1,0.4-1.6,0.4c-0.9,0-1.6-0.3-2.2-0.9
				S84.8,56.4,84.8,55.3L84.8,55.3z M86.3,55.4c0,0.7,0.1,1.2,0.4,1.6c0.3,0.4,0.7,0.6,1.1,0.6s0.9-0.2,1.1-0.6
				c0.3-0.4,0.4-0.9,0.4-1.7c0-0.7-0.1-1.2-0.4-1.6c-0.3-0.4-0.7-0.6-1.1-0.6c-0.5,0-0.8,0.2-1.1,0.6C86.4,54.1,86.3,54.7,86.3,55.4
				z"/>
			<path class="st3" d="M95.4,53.4c-0.2,0-0.4,0-0.6,0c-0.7,0-1.1,0.3-1.3,0.8v4.4h-1.4v-6.5h1.4l0,0.7c0.3-0.6,0.8-0.8,1.5-0.8
				c0.2,0,0.4,0,0.5,0.1L95.4,53.4z"/>
			<path class="st3" d="M99.1,58.7c-0.9,0-1.7-0.3-2.2-0.9c-0.6-0.6-0.9-1.3-0.9-2.3v-0.2c0-0.6,0.1-1.2,0.4-1.7s0.6-0.9,1-1.2
				c0.4-0.3,0.9-0.4,1.5-0.4c0.9,0,1.6,0.3,2,0.8s0.7,1.4,0.7,2.4v0.6h-4.2c0,0.5,0.2,1,0.5,1.3c0.3,0.3,0.7,0.5,1.2,0.5
				c0.7,0,1.2-0.3,1.6-0.8l0.8,0.7c-0.3,0.4-0.6,0.7-1,0.9C100.1,58.6,99.6,58.7,99.1,58.7z M98.9,53.2c-0.4,0-0.7,0.1-1,0.4
				s-0.4,0.7-0.5,1.2h2.8v-0.1c0-0.5-0.2-0.9-0.4-1.1S99.3,53.2,98.9,53.2z"/>
		</g>
	</g>
</g>
</svg>
