<?xml version="1.0" encoding="utf-8"?>
<!-- Generator: Adobe Illustrator 25.2.1, SVG Export Plug-In . SVG Version: 6.00 Build 0)  -->
<svg version="1.1" id="Layer_1" xmlns="http://www.w3.org/2000/svg" xmlns:xlink="http://www.w3.org/1999/xlink" x="0px" y="0px"
	 viewBox="0 0 320 160" style="enable-background:new 0 0 320 160;" xml:space="preserve">
<style type="text/css">
	.st0{clip-path:url(#SVGID_2_);}
	.st1{fill:#F8F8F8;}
	.st2{fill:#FFFFFF;}
	.st3{fill-rule:evenodd;clip-rule:evenodd;fill:#E4E4E4;}
	.st4{fill:#F2F2F2;}
	.st5{fill:#646464;}
	.st6{fill:url(#SVGID_3_);}
	.st7{fill-rule:evenodd;clip-rule:evenodd;fill:#FFFFFF;}
	.st8{fill:url(#SVGID_4_);}
	.st9{opacity:0.15;}
	.st10{fill:url(#SVGID_5_);}
</style>
<g>
	<defs>
		<rect id="SVGID_1_" width="320" height="160"/>
	</defs>
	<clipPath id="SVGID_2_">
		<use xlink:href="#SVGID_1_"  style="overflow:visible;"/>
	</clipPath>
	<g class="st0">
		<rect class="st1" width="320" height="160"/>
		<path class="st2" d="M211.6,54.5c0-2.7,2.2-4.9,4.9-4.9h78.6c2.7,0,4.9,2.2,4.9,4.9v83.8c0,2.7-2.2,4.9-4.9,4.9h-78.6
			c-2.7,0-4.9-2.2-4.9-4.9V54.5z"/>
		<path class="st3" d="M295.1,49.8h-78.6c-2.6,0-4.7,2.1-4.7,4.7v83.8c0,2.6,2.1,4.7,4.7,4.7h78.6c2.6,0,4.7-2.1,4.7-4.7V54.5
			C299.8,51.9,297.7,49.8,295.1,49.8z M216.5,49.5c-2.7,0-4.9,2.2-4.9,4.9v83.8c0,2.7,2.2,4.9,4.9,4.9h78.6c2.7,0,4.9-2.2,4.9-4.9
			V54.5c0-2.7-2.2-4.9-4.9-4.9H216.5z"/>
		<path class="st4" d="M231.3,110.1c0,9.4,2.5,16.4,11.5,16.4c9,0,11.5-7.1,11.5-16.4c0-9.2-2.5-16.3-11.5-16.3
			C233.8,93.9,231.3,100.9,231.3,110.1z M249.3,110.1c0,6.3-0.7,11.8-6.5,11.8c-5.9,0-6.5-5.5-6.5-11.8c0-6,0.7-11.7,6.5-11.7
			C248.7,98.5,249.3,104.1,249.3,110.1z"/>
		<path class="st4" d="M259.5,102.4h4.9c0.3-2.3,1.9-4.4,5.5-4.4c3.4,0,5.3,1.9,5.3,4.6c0,3.4-2.8,4.8-7.3,4.8h-1.2v4.2h1.1
			c5.3,0,8,1.5,8,5.7c0,3-1.9,5.3-5.6,5.3c-3.8,0-6-2.3-6.2-5.3h-4.9c0.3,6.3,5,9.5,11.1,9.5c6.7,0,10.3-3.9,10.3-9
			c0-4.5-2.2-7.2-5.5-8.3v-0.2c2.5-0.8,5-3.4,5-7.3c0-4.7-3.5-8.4-9.9-8.4C264.2,93.7,259.9,96.8,259.5,102.4z"/>
		<path class="st5" d="M228.7,110.3l0.1,0.4l0.1-0.3l0.6-1.9h0.3l0.5,1.9l0.1,0.3l0.1-0.4l0.4-1.9h0.4l-0.7,2.8h-0.3l-0.6-2l0-0.2
			l0,0.2l-0.6,2h-0.3l-0.7-2.8h0.4L228.7,110.3z"/>
		<path class="st5" d="M231.9,109.4c0.2-0.2,0.4-0.3,0.6-0.3c0.4,0,0.7,0.2,0.7,0.7v1.4h-0.4v-1.4c0-0.1,0-0.3-0.1-0.3
			c-0.1-0.1-0.2-0.1-0.3-0.1c-0.1,0-0.2,0-0.3,0.1c-0.1,0.1-0.2,0.1-0.2,0.2v1.5h-0.4v-2.9h0.4V109.4z"/>
		<path class="st5" d="M234.6,111.2c-0.3,0-0.5-0.1-0.7-0.3c-0.2-0.2-0.3-0.4-0.3-0.7v-0.1c0-0.2,0-0.4,0.1-0.6
			c0.1-0.2,0.2-0.3,0.3-0.4c0.1-0.1,0.3-0.1,0.5-0.1c0.3,0,0.5,0.1,0.6,0.3c0.1,0.2,0.2,0.4,0.2,0.8v0.1H234c0,0.2,0.1,0.4,0.2,0.5
			c0.1,0.1,0.3,0.2,0.4,0.2c0.1,0,0.2,0,0.3-0.1c0.1-0.1,0.2-0.1,0.2-0.2l0.2,0.2C235.2,111.1,235,111.2,234.6,111.2z M234.6,109.4
			c-0.1,0-0.3,0.1-0.4,0.2c-0.1,0.1-0.2,0.2-0.2,0.4h1v0c0-0.2-0.1-0.3-0.1-0.4C234.8,109.4,234.7,109.4,234.6,109.4z"/>
		<path class="st5" d="M236.2,109.1l0,0.3c0.2-0.2,0.4-0.3,0.6-0.3c0.4,0,0.7,0.2,0.7,0.7v1.4h-0.4v-1.4c0-0.1,0-0.3-0.1-0.3
			c-0.1-0.1-0.2-0.1-0.3-0.1c-0.1,0-0.2,0-0.3,0.1c-0.1,0.1-0.2,0.1-0.2,0.2v1.5h-0.4v-2.1H236.2z"/>
		<path class="st5" d="M240.6,110.5h-1.2l-0.3,0.7h-0.4l1.1-2.8h0.3l1.1,2.8h-0.4L240.6,110.5z M239.5,110.2h0.9l-0.5-1.3
			L239.5,110.2z"/>
		<path class="st5" d="M241.9,109.1l0,0.3c0.2-0.2,0.4-0.3,0.6-0.3c0.4,0,0.7,0.2,0.7,0.7v1.4h-0.4v-1.4c0-0.1,0-0.3-0.1-0.3
			c-0.1-0.1-0.2-0.1-0.3-0.1c-0.1,0-0.2,0-0.3,0.1c-0.1,0.1-0.2,0.1-0.2,0.2v1.5h-0.4v-2.1H241.9z"/>
		<path class="st5" d="M246.7,108.4v1.9c0,0.3-0.1,0.5-0.2,0.6c-0.2,0.2-0.4,0.3-0.7,0.3l-0.1,0c-0.3,0-0.6-0.1-0.7-0.2
			c-0.2-0.2-0.3-0.4-0.3-0.7v-1.9h0.4v1.9c0,0.2,0.1,0.4,0.2,0.5c0.1,0.1,0.3,0.2,0.5,0.2c0.2,0,0.4-0.1,0.5-0.2
			c0.1-0.1,0.2-0.3,0.2-0.5v-1.9H246.7z"/>
		<path class="st5" d="M247.6,109.1l0,0.3c0.2-0.2,0.4-0.3,0.6-0.3c0.4,0,0.7,0.2,0.7,0.7v1.4h-0.4v-1.4c0-0.1,0-0.3-0.1-0.3
			c-0.1-0.1-0.2-0.1-0.3-0.1c-0.1,0-0.2,0-0.3,0.1c-0.1,0.1-0.2,0.1-0.2,0.2v1.5h-0.4v-2.1H247.6z"/>
		<path class="st5" d="M250,110.2l-0.2,0.2v0.7h-0.4v-2.9h0.4v1.8l0.2-0.2l0.6-0.7h0.4l-0.8,0.9l0.9,1.2h-0.4L250,110.2z"/>
		<path class="st5" d="M251.7,109.1l0,0.3c0.2-0.2,0.4-0.3,0.6-0.3c0.4,0,0.7,0.2,0.7,0.7v1.4h-0.4v-1.4c0-0.1,0-0.3-0.1-0.3
			c-0.1-0.1-0.2-0.1-0.3-0.1c-0.1,0-0.2,0-0.3,0.1c-0.1,0.1-0.2,0.1-0.2,0.2v1.5h-0.4v-2.1H251.7z"/>
		<path class="st5" d="M253.5,110.1c0-0.2,0-0.4,0.1-0.5c0.1-0.2,0.2-0.3,0.3-0.4c0.1-0.1,0.3-0.1,0.5-0.1c0.3,0,0.5,0.1,0.7,0.3
			c0.2,0.2,0.3,0.5,0.3,0.8v0c0,0.2,0,0.4-0.1,0.5c-0.1,0.2-0.2,0.3-0.3,0.4c-0.1,0.1-0.3,0.1-0.5,0.1c-0.3,0-0.5-0.1-0.7-0.3
			C253.5,110.7,253.5,110.5,253.5,110.1L253.5,110.1z M253.8,110.2c0,0.2,0.1,0.4,0.2,0.6c0.1,0.1,0.3,0.2,0.4,0.2
			c0.2,0,0.3-0.1,0.4-0.2c0.1-0.1,0.2-0.3,0.2-0.6c0-0.2-0.1-0.4-0.2-0.6c-0.1-0.1-0.3-0.2-0.4-0.2c-0.2,0-0.3,0.1-0.4,0.2
			C253.9,109.7,253.8,109.9,253.8,110.2z"/>
		<path class="st5" d="M257.6,110.7l0.4-1.6h0.4l-0.6,2.1h-0.3l-0.5-1.6l-0.5,1.6h-0.3l-0.6-2.1h0.4l0.4,1.6l0.5-1.6h0.3
			L257.6,110.7z"/>
		<path class="st5" d="M259.1,109.1l0,0.3c0.2-0.2,0.4-0.3,0.6-0.3c0.4,0,0.7,0.2,0.7,0.7v1.4H260v-1.4c0-0.1,0-0.3-0.1-0.3
			c-0.1-0.1-0.2-0.1-0.3-0.1c-0.1,0-0.2,0-0.3,0.1c-0.1,0.1-0.2,0.1-0.2,0.2v1.5h-0.4v-2.1H259.1z"/>
		<path class="st5" d="M262.3,110.1v1.1h-0.4v-2.8h1c0.3,0,0.5,0.1,0.7,0.2c0.2,0.2,0.3,0.4,0.3,0.6c0,0.3-0.1,0.5-0.3,0.6
			c-0.2,0.1-0.4,0.2-0.7,0.2H262.3z M262.3,109.8h0.7c0.2,0,0.3,0,0.5-0.1c0.1-0.1,0.2-0.2,0.2-0.4c0-0.2-0.1-0.3-0.2-0.4
			c-0.1-0.1-0.2-0.2-0.4-0.2h-0.7V109.8z"/>
		<path class="st5" d="M265.4,109.4c-0.1,0-0.1,0-0.2,0c-0.2,0-0.4,0.1-0.5,0.3v1.5h-0.4v-2.1h0.3l0,0.2c0.1-0.2,0.3-0.3,0.5-0.3
			c0.1,0,0.1,0,0.2,0V109.4z"/>
		<path class="st5" d="M266.1,111.2h-0.4v-2.1h0.4V111.2z M265.7,108.6c0-0.1,0-0.1,0.1-0.1c0,0,0.1-0.1,0.2-0.1s0.1,0,0.2,0.1
			c0,0,0.1,0.1,0.1,0.1s0,0.1-0.1,0.1c0,0-0.1,0.1-0.2,0.1s-0.1,0-0.2-0.1C265.7,108.7,265.7,108.6,265.7,108.6z"/>
		<path class="st5" d="M267,109.1l0,0.3c0.2-0.2,0.4-0.3,0.6-0.3c0.4,0,0.7,0.2,0.7,0.7v1.4h-0.4v-1.4c0-0.1,0-0.3-0.1-0.3
			c-0.1-0.1-0.2-0.1-0.3-0.1c-0.1,0-0.2,0-0.3,0.1c-0.1,0.1-0.2,0.1-0.2,0.2v1.5h-0.4v-2.1H267z"/>
		<path class="st5" d="M269.3,108.6v0.5h0.4v0.3h-0.4v1.3c0,0.1,0,0.1,0.1,0.2c0,0,0.1,0.1,0.2,0.1c0,0,0.1,0,0.2,0v0.3
			c-0.1,0-0.2,0-0.3,0c-0.2,0-0.3,0-0.4-0.1c-0.1-0.1-0.1-0.2-0.1-0.4v-1.3h-0.4v-0.3h0.4v-0.5H269.3z"/>
		<path class="st5" d="M271,111.2c-0.3,0-0.5-0.1-0.7-0.3c-0.2-0.2-0.3-0.4-0.3-0.7v-0.1c0-0.2,0-0.4,0.1-0.6
			c0.1-0.2,0.2-0.3,0.3-0.4c0.1-0.1,0.3-0.1,0.5-0.1c0.3,0,0.5,0.1,0.6,0.3c0.1,0.2,0.2,0.4,0.2,0.8v0.1h-1.4c0,0.2,0.1,0.4,0.2,0.5
			c0.1,0.1,0.3,0.2,0.4,0.2c0.1,0,0.2,0,0.3-0.1c0.1-0.1,0.2-0.1,0.2-0.2l0.2,0.2C271.6,111.1,271.3,111.2,271,111.2z M270.9,109.4
			c-0.1,0-0.3,0.1-0.4,0.2c-0.1,0.1-0.2,0.2-0.2,0.4h1v0c0-0.2-0.1-0.3-0.1-0.4C271.2,109.4,271.1,109.4,270.9,109.4z"/>
		<path class="st5" d="M273.2,109.4c-0.1,0-0.1,0-0.2,0c-0.2,0-0.4,0.1-0.5,0.3v1.5h-0.4v-2.1h0.3l0,0.2c0.1-0.2,0.3-0.3,0.5-0.3
			c0.1,0,0.1,0,0.2,0V109.4z"/>
		<path class="st5" d="M276.4,108.7h-0.9v2.5h-0.4v-2.5h-0.9v-0.3h2.2V108.7z"/>
		<path class="st5" d="M276.5,110.1c0-0.2,0-0.4,0.1-0.5c0.1-0.2,0.2-0.3,0.3-0.4c0.1-0.1,0.3-0.1,0.5-0.1c0.3,0,0.5,0.1,0.7,0.3
			c0.2,0.2,0.3,0.5,0.3,0.8v0c0,0.2,0,0.4-0.1,0.5c-0.1,0.2-0.2,0.3-0.3,0.4c-0.1,0.1-0.3,0.1-0.5,0.1c-0.3,0-0.5-0.1-0.7-0.3
			C276.6,110.7,276.5,110.5,276.5,110.1L276.5,110.1z M276.8,110.2c0,0.2,0.1,0.4,0.2,0.6c0.1,0.1,0.2,0.2,0.4,0.2
			c0.2,0,0.3-0.1,0.4-0.2c0.1-0.1,0.2-0.3,0.2-0.6c0-0.2-0.1-0.4-0.2-0.6c-0.1-0.1-0.2-0.2-0.4-0.2c-0.2,0-0.3,0.1-0.4,0.2
			C276.9,109.7,276.8,109.9,276.8,110.2z"/>
		<path class="st5" d="M278.7,110.1c0-0.2,0-0.4,0.1-0.5c0.1-0.2,0.2-0.3,0.3-0.4c0.1-0.1,0.3-0.1,0.5-0.1c0.3,0,0.5,0.1,0.7,0.3
			c0.2,0.2,0.3,0.5,0.3,0.8v0c0,0.2,0,0.4-0.1,0.5c-0.1,0.2-0.2,0.3-0.3,0.4c-0.1,0.1-0.3,0.1-0.5,0.1c-0.3,0-0.5-0.1-0.7-0.3
			C278.8,110.7,278.7,110.5,278.7,110.1L278.7,110.1z M279.1,110.2c0,0.2,0.1,0.4,0.2,0.6c0.1,0.1,0.3,0.2,0.4,0.2
			c0.2,0,0.3-0.1,0.4-0.2c0.1-0.1,0.2-0.3,0.2-0.6c0-0.2-0.1-0.4-0.2-0.6c-0.1-0.1-0.3-0.2-0.4-0.2c-0.2,0-0.3,0.1-0.4,0.2
			C279.1,109.7,279.1,109.9,279.1,110.2z"/>
		<path class="st5" d="M281.6,110.2l-0.2,0.2v0.7h-0.4v-2.9h0.4v1.8l0.2-0.2l0.6-0.7h0.4l-0.8,0.9l0.9,1.2h-0.4L281.6,110.2z"/>
		<path class="st5" d="M231.4,117.2c-0.1,0.1-0.2,0.2-0.4,0.3c-0.2,0.1-0.4,0.1-0.6,0.1c-0.2,0-0.4-0.1-0.6-0.2
			c-0.2-0.1-0.3-0.3-0.4-0.5c-0.1-0.2-0.1-0.4-0.1-0.7v-0.2c0-0.4,0.1-0.7,0.3-1c0.2-0.2,0.5-0.3,0.8-0.3c0.3,0,0.5,0.1,0.7,0.2
			c0.2,0.1,0.3,0.4,0.3,0.6h-0.4c-0.1-0.4-0.3-0.6-0.7-0.6c-0.2,0-0.4,0.1-0.6,0.3c-0.1,0.2-0.2,0.4-0.2,0.8v0.2
			c0,0.3,0.1,0.6,0.2,0.7c0.1,0.2,0.3,0.3,0.6,0.3c0.1,0,0.3,0,0.4,0c0.1,0,0.2-0.1,0.3-0.2v-0.6h-0.6v-0.3h1V117.2z"/>
		<path class="st5" d="M233.3,117.6c0,0,0-0.1,0-0.2c-0.2,0.2-0.4,0.3-0.6,0.3c-0.2,0-0.4-0.1-0.5-0.2c-0.1-0.1-0.2-0.3-0.2-0.4
			c0-0.2,0.1-0.4,0.2-0.5c0.2-0.1,0.4-0.2,0.7-0.2h0.3v-0.2c0-0.1,0-0.2-0.1-0.3c-0.1-0.1-0.2-0.1-0.3-0.1c-0.1,0-0.2,0-0.3,0.1
			c-0.1,0.1-0.1,0.1-0.1,0.2H232c0-0.1,0-0.2,0.1-0.3c0.1-0.1,0.2-0.2,0.3-0.2c0.1-0.1,0.3-0.1,0.4-0.1c0.2,0,0.4,0.1,0.6,0.2
			c0.1,0.1,0.2,0.3,0.2,0.5v1c0,0.2,0,0.3,0.1,0.5v0H233.3z M232.7,117.3c0.1,0,0.2,0,0.3-0.1c0.1-0.1,0.2-0.1,0.2-0.2v-0.4h-0.3
			c-0.4,0-0.7,0.1-0.7,0.4c0,0.1,0,0.2,0.1,0.3C232.5,117.3,232.6,117.3,232.7,117.3z"/>
		<path class="st5" d="M234.5,117.6h-0.4v-2.9h0.4V117.6z"/>
		<path class="st5" d="M235.5,117.6h-0.4v-2.9h0.4V117.6z"/>
		<path class="st5" d="M236.9,117.6c-0.3,0-0.5-0.1-0.7-0.3c-0.2-0.2-0.3-0.4-0.3-0.7v-0.1c0-0.2,0-0.4,0.1-0.6
			c0.1-0.2,0.2-0.3,0.3-0.4c0.1-0.1,0.3-0.1,0.5-0.1c0.3,0,0.5,0.1,0.6,0.3c0.2,0.2,0.2,0.4,0.2,0.8v0.1h-1.4c0,0.2,0.1,0.4,0.2,0.5
			c0.1,0.1,0.3,0.2,0.4,0.2c0.1,0,0.2,0,0.3-0.1c0.1-0.1,0.2-0.1,0.2-0.2l0.2,0.2C237.5,117.5,237.2,117.6,236.9,117.6z
			 M236.8,115.8c-0.1,0-0.3,0.1-0.4,0.2c-0.1,0.1-0.2,0.2-0.2,0.4h1v0c0-0.2-0.1-0.3-0.1-0.4C237.1,115.8,237,115.8,236.8,115.8z"/>
		<path class="st5" d="M238.8,117.1l0.5-1.6h0.4l-0.8,2.4c-0.1,0.3-0.3,0.5-0.6,0.5l-0.1,0l-0.1,0v-0.3l0.1,0c0.1,0,0.2,0,0.3-0.1
			c0.1,0,0.1-0.1,0.2-0.3l0.1-0.2l-0.7-2.1h0.4L238.8,117.1z"/>
		<path class="st5" d="M243.1,116.3c0,0.3,0,0.5-0.1,0.7c-0.1,0.2-0.2,0.4-0.4,0.5c-0.2,0.1-0.4,0.2-0.6,0.2c-0.2,0-0.4-0.1-0.6-0.2
			c-0.2-0.1-0.3-0.3-0.4-0.5c-0.1-0.2-0.1-0.4-0.1-0.7v-0.2c0-0.3,0-0.5,0.1-0.7s0.2-0.4,0.4-0.5c0.2-0.1,0.4-0.2,0.6-0.2
			c0.2,0,0.4,0.1,0.6,0.2c0.2,0.1,0.3,0.3,0.4,0.5c0.1,0.2,0.1,0.4,0.1,0.7V116.3z M242.8,116.1c0-0.3-0.1-0.6-0.2-0.8
			c-0.1-0.2-0.3-0.3-0.6-0.3c-0.2,0-0.4,0.1-0.6,0.3c-0.1,0.2-0.2,0.4-0.2,0.7v0.2c0,0.3,0.1,0.6,0.2,0.8c0.1,0.2,0.3,0.3,0.6,0.3
			c0.2,0,0.4-0.1,0.6-0.3c0.1-0.2,0.2-0.4,0.2-0.7V116.1z"/>
		<path class="st5" d="M243.8,117.6v-1.8h-0.3v-0.3h0.3v-0.2c0-0.2,0.1-0.4,0.2-0.5c0.1-0.1,0.3-0.2,0.5-0.2c0.1,0,0.2,0,0.2,0
			l0,0.3c-0.1,0-0.1,0-0.2,0c-0.1,0-0.2,0-0.3,0.1c-0.1,0.1-0.1,0.2-0.1,0.3v0.2h0.4v0.3h-0.4v1.8H243.8z"/>
		<path class="st5" d="M247.9,115.1H247v2.5h-0.4v-2.5h-0.9v-0.3h2.2V115.1z"/>
		<path class="st5" d="M248.8,117.1l0.5-1.6h0.4l-0.8,2.4c-0.1,0.3-0.3,0.5-0.6,0.5l-0.1,0l-0.1,0v-0.3l0.1,0c0.1,0,0.2,0,0.3-0.1
			c0.1,0,0.1-0.1,0.2-0.3l0.1-0.2l-0.7-2.1h0.4L248.8,117.1z"/>
		<path class="st5" d="M251.7,116.6c0,0.3-0.1,0.6-0.2,0.8c-0.1,0.2-0.3,0.3-0.6,0.3c-0.3,0-0.5-0.1-0.6-0.2v1H250v-2.9h0.3l0,0.2
			c0.1-0.2,0.3-0.3,0.6-0.3c0.2,0,0.4,0.1,0.6,0.3C251.6,115.9,251.7,116.2,251.7,116.6L251.7,116.6z M251.4,116.5
			c0-0.2-0.1-0.4-0.1-0.6c-0.1-0.1-0.2-0.2-0.4-0.2c-0.2,0-0.4,0.1-0.5,0.3v1c0.1,0.2,0.3,0.3,0.5,0.3c0.2,0,0.3-0.1,0.4-0.2
			C251.3,117,251.4,116.8,251.4,116.5z"/>
		<path class="st5" d="M253,117.6c-0.3,0-0.5-0.1-0.7-0.3c-0.2-0.2-0.3-0.4-0.3-0.7v-0.1c0-0.2,0-0.4,0.1-0.6
			c0.1-0.2,0.2-0.3,0.3-0.4c0.1-0.1,0.3-0.1,0.5-0.1c0.3,0,0.5,0.1,0.6,0.3c0.1,0.2,0.2,0.4,0.2,0.8v0.1h-1.4c0,0.2,0.1,0.4,0.2,0.5
			c0.1,0.1,0.3,0.2,0.4,0.2c0.1,0,0.2,0,0.3-0.1c0.1-0.1,0.2-0.1,0.2-0.2l0.2,0.2C253.6,117.5,253.4,117.6,253,117.6z M253,115.8
			c-0.1,0-0.3,0.1-0.4,0.2c-0.1,0.1-0.2,0.2-0.2,0.4h1v0c0-0.2-0.1-0.3-0.1-0.4C253.2,115.8,253.1,115.8,253,115.8z"/>
		<path class="st5" d="M256.8,116.9h-1.2l-0.3,0.7H255l1.1-2.8h0.3l1.1,2.8h-0.4L256.8,116.9z M255.8,116.6h0.9l-0.5-1.3
			L255.8,116.6z"/>
		<path class="st5" d="M258.1,115.5l0,0.3c0.2-0.2,0.4-0.3,0.6-0.3c0.4,0,0.7,0.2,0.7,0.7v1.4h-0.4v-1.4c0-0.2,0-0.3-0.1-0.3
			c-0.1-0.1-0.2-0.1-0.3-0.1c-0.1,0-0.2,0-0.3,0.1c-0.1,0.1-0.2,0.1-0.2,0.2v1.5h-0.4v-2.1H258.1z"/>
		<path class="st5" d="M259.9,116.5c0-0.3,0.1-0.6,0.2-0.8c0.1-0.2,0.3-0.3,0.6-0.3c0.2,0,0.4,0.1,0.6,0.2v-1.1h0.4v2.9h-0.3l0-0.2
			c-0.1,0.2-0.3,0.3-0.6,0.3c-0.2,0-0.4-0.1-0.6-0.3C259.9,117.1,259.9,116.9,259.9,116.5L259.9,116.5z M260.2,116.6
			c0,0.2,0,0.4,0.1,0.6c0.1,0.1,0.2,0.2,0.4,0.2c0.2,0,0.4-0.1,0.5-0.3v-1c-0.1-0.2-0.3-0.3-0.5-0.3c-0.2,0-0.3,0.1-0.4,0.2
			C260.3,116.1,260.2,116.3,260.2,116.6z"/>
		<path class="st5" d="M264,116.3c-0.3-0.1-0.5-0.2-0.7-0.3c-0.1-0.1-0.2-0.3-0.2-0.5c0-0.2,0.1-0.4,0.3-0.5
			c0.2-0.1,0.4-0.2,0.7-0.2c0.2,0,0.4,0,0.5,0.1c0.2,0.1,0.3,0.2,0.3,0.3c0.1,0.1,0.1,0.3,0.1,0.4h-0.4c0-0.2-0.1-0.3-0.2-0.4
			c-0.1-0.1-0.3-0.1-0.5-0.1c-0.2,0-0.3,0-0.4,0.1c-0.1,0.1-0.2,0.2-0.2,0.3c0,0.1,0,0.2,0.1,0.3c0.1,0.1,0.3,0.2,0.5,0.2
			c0.2,0.1,0.4,0.1,0.5,0.2c0.1,0.1,0.2,0.2,0.3,0.3c0.1,0.1,0.1,0.2,0.1,0.4c0,0.2-0.1,0.4-0.3,0.5c-0.2,0.1-0.4,0.2-0.7,0.2
			c-0.2,0-0.4,0-0.5-0.1c-0.2-0.1-0.3-0.2-0.4-0.3c-0.1-0.1-0.1-0.3-0.1-0.4h0.4c0,0.2,0.1,0.3,0.2,0.4c0.1,0.1,0.3,0.1,0.5,0.1
			c0.2,0,0.3,0,0.4-0.1c0.1-0.1,0.2-0.2,0.2-0.3s0-0.2-0.1-0.3C264.5,116.5,264.3,116.4,264,116.3z"/>
		<path class="st5" d="M266.3,117.3c0.1,0,0.2,0,0.3-0.1c0.1-0.1,0.1-0.2,0.2-0.3h0.3c0,0.1,0,0.2-0.1,0.3c-0.1,0.1-0.2,0.2-0.3,0.3
			c-0.1,0.1-0.3,0.1-0.4,0.1c-0.3,0-0.5-0.1-0.7-0.3c-0.2-0.2-0.2-0.4-0.2-0.8v-0.1c0-0.2,0-0.4,0.1-0.5c0.1-0.2,0.2-0.3,0.3-0.4
			c0.1-0.1,0.3-0.1,0.5-0.1c0.2,0,0.4,0.1,0.6,0.2c0.2,0.1,0.2,0.3,0.2,0.5h-0.3c0-0.1-0.1-0.2-0.2-0.3c-0.1-0.1-0.2-0.1-0.3-0.1
			c-0.2,0-0.3,0.1-0.4,0.2c-0.1,0.1-0.1,0.3-0.1,0.6v0.1c0,0.2,0,0.4,0.1,0.6C266,117.3,266.1,117.3,266.3,117.3z"/>
		<path class="st5" d="M268.5,115.8c-0.1,0-0.1,0-0.2,0c-0.2,0-0.4,0.1-0.5,0.3v1.5h-0.4v-2.1h0.3l0,0.2c0.1-0.2,0.3-0.3,0.5-0.3
			c0.1,0,0.1,0,0.2,0V115.8z"/>
		<path class="st5" d="M270.1,117.6c0,0,0-0.1,0-0.2c-0.2,0.2-0.4,0.3-0.6,0.3c-0.2,0-0.4-0.1-0.5-0.2c-0.1-0.1-0.2-0.3-0.2-0.4
			c0-0.2,0.1-0.4,0.2-0.5c0.2-0.1,0.4-0.2,0.7-0.2h0.3v-0.2c0-0.1,0-0.2-0.1-0.3c-0.1-0.1-0.2-0.1-0.3-0.1c-0.1,0-0.2,0-0.3,0.1
			c-0.1,0.1-0.1,0.1-0.1,0.2h-0.4c0-0.1,0-0.2,0.1-0.3c0.1-0.1,0.2-0.2,0.3-0.2c0.1-0.1,0.3-0.1,0.4-0.1c0.2,0,0.4,0.1,0.6,0.2
			c0.1,0.1,0.2,0.3,0.2,0.5v1c0,0.2,0,0.3,0.1,0.5v0H270.1z M269.5,117.3c0.1,0,0.2,0,0.3-0.1c0.1-0.1,0.2-0.1,0.2-0.2v-0.4h-0.3
			c-0.4,0-0.7,0.1-0.7,0.4c0,0.1,0,0.2,0.1,0.3C269.3,117.3,269.4,117.3,269.5,117.3z"/>
		<path class="st5" d="M271.3,115.5l0,0.2c0.2-0.2,0.4-0.3,0.6-0.3c0.3,0,0.5,0.1,0.6,0.3c0.1-0.1,0.2-0.2,0.3-0.2
			c0.1-0.1,0.2-0.1,0.4-0.1c0.5,0,0.7,0.2,0.7,0.7v1.4h-0.4v-1.4c0-0.1,0-0.3-0.1-0.3c-0.1-0.1-0.2-0.1-0.3-0.1
			c-0.1,0-0.2,0-0.3,0.1s-0.1,0.2-0.2,0.3v1.4h-0.4v-1.4c0-0.3-0.1-0.5-0.4-0.5c-0.2,0-0.4,0.1-0.5,0.3v1.5h-0.4v-2.1H271.3z"/>
		<path class="st5" d="M276.1,116.6c0,0.3-0.1,0.6-0.2,0.8c-0.1,0.2-0.3,0.3-0.6,0.3c-0.3,0-0.5-0.1-0.6-0.3l0,0.2h-0.3v-2.9h0.4
			v1.1c0.1-0.2,0.3-0.3,0.6-0.3c0.3,0,0.5,0.1,0.6,0.3C276.1,115.9,276.1,116.2,276.1,116.6L276.1,116.6z M275.8,116.5
			c0-0.2,0-0.4-0.1-0.6c-0.1-0.1-0.2-0.2-0.4-0.2c-0.2,0-0.4,0.1-0.5,0.3v0.9c0.1,0.2,0.3,0.3,0.5,0.3c0.2,0,0.3-0.1,0.4-0.2
			C275.7,117,275.8,116.8,275.8,116.5z"/>
		<path class="st5" d="M277,117.6h-0.4v-2.9h0.4V117.6z"/>
		<path class="st5" d="M278.4,117.6c-0.3,0-0.5-0.1-0.7-0.3c-0.2-0.2-0.3-0.4-0.3-0.7v-0.1c0-0.2,0-0.4,0.1-0.6
			c0.1-0.2,0.2-0.3,0.3-0.4c0.1-0.1,0.3-0.1,0.5-0.1c0.3,0,0.5,0.1,0.6,0.3c0.1,0.2,0.2,0.4,0.2,0.8v0.1h-1.4c0,0.2,0.1,0.4,0.2,0.5
			c0.1,0.1,0.3,0.2,0.4,0.2c0.1,0,0.2,0,0.3-0.1c0.1-0.1,0.2-0.1,0.2-0.2l0.2,0.2C279,117.5,278.7,117.6,278.4,117.6z M278.4,115.8
			c-0.1,0-0.3,0.1-0.4,0.2c-0.1,0.1-0.2,0.2-0.2,0.4h1v0c0-0.2-0.1-0.3-0.1-0.4C278.6,115.8,278.5,115.8,278.4,115.8z"/>
		<path class="st5" d="M279.5,116.5c0-0.3,0.1-0.6,0.2-0.8c0.2-0.2,0.3-0.3,0.6-0.3c0.2,0,0.4,0.1,0.6,0.2v-1.1h0.4v2.9H281l0-0.2
			c-0.1,0.2-0.3,0.3-0.6,0.3c-0.2,0-0.4-0.1-0.6-0.3C279.6,117.1,279.5,116.9,279.5,116.5L279.5,116.5z M279.9,116.6
			c0,0.2,0,0.4,0.1,0.6c0.1,0.1,0.2,0.2,0.4,0.2c0.2,0,0.4-0.1,0.5-0.3v-1c-0.1-0.2-0.3-0.3-0.5-0.3c-0.2,0-0.3,0.1-0.4,0.2
			C279.9,116.1,279.9,116.3,279.9,116.6z"/>
		<path class="st5" d="M239.2,121.5h-0.9v2.5H238v-2.5h-0.9v-0.3h2.2V121.5z"/>
		<path class="st5" d="M240.1,123.4l0.5-1.6h0.4l-0.8,2.4c-0.1,0.3-0.3,0.5-0.6,0.5l-0.1,0l-0.1,0v-0.3l0.1,0c0.1,0,0.2,0,0.3-0.1
			c0.1,0,0.1-0.1,0.2-0.3l0.1-0.2l-0.7-2.1h0.4L240.1,123.4z"/>
		<path class="st5" d="M243.1,123c0,0.3-0.1,0.6-0.2,0.8c-0.1,0.2-0.3,0.3-0.6,0.3c-0.3,0-0.4-0.1-0.6-0.2v1h-0.4v-2.9h0.3l0,0.2
			c0.1-0.2,0.3-0.3,0.6-0.3c0.2,0,0.4,0.1,0.6,0.3C243,122.3,243.1,122.6,243.1,123L243.1,123z M242.7,122.9c0-0.2-0.1-0.4-0.1-0.6
			c-0.1-0.1-0.2-0.2-0.4-0.2c-0.2,0-0.4,0.1-0.5,0.3v1c0.1,0.2,0.3,0.3,0.5,0.3c0.2,0,0.3-0.1,0.4-0.2
			C242.7,123.4,242.7,123.2,242.7,122.9z"/>
		<path class="st5" d="M244.4,124c-0.3,0-0.5-0.1-0.7-0.3c-0.2-0.2-0.3-0.4-0.3-0.7v-0.1c0-0.2,0-0.4,0.1-0.6
			c0.1-0.2,0.2-0.3,0.3-0.4c0.1-0.1,0.3-0.1,0.5-0.1c0.3,0,0.5,0.1,0.6,0.3c0.1,0.2,0.2,0.4,0.2,0.8v0.1h-1.4c0,0.2,0.1,0.4,0.2,0.5
			c0.1,0.1,0.3,0.2,0.4,0.2c0.1,0,0.2,0,0.3-0.1c0.1-0.1,0.2-0.1,0.2-0.2l0.2,0.2C245,123.9,244.7,124,244.4,124z M244.3,122.1
			c-0.1,0-0.3,0.1-0.4,0.2c-0.1,0.1-0.2,0.2-0.2,0.4h1v0c0-0.2-0.1-0.3-0.1-0.4C244.6,122.2,244.5,122.1,244.3,122.1z"/>
		<path class="st5" d="M247.5,122.7c-0.3-0.1-0.5-0.2-0.7-0.3c-0.1-0.1-0.2-0.3-0.2-0.5c0-0.2,0.1-0.4,0.3-0.5
			c0.2-0.1,0.4-0.2,0.7-0.2c0.2,0,0.4,0,0.5,0.1c0.2,0.1,0.3,0.2,0.3,0.3c0.1,0.1,0.1,0.3,0.1,0.4h-0.4c0-0.2-0.1-0.3-0.2-0.4
			c-0.1-0.1-0.3-0.1-0.5-0.1c-0.2,0-0.3,0-0.4,0.1c-0.1,0.1-0.2,0.2-0.2,0.3c0,0.1,0,0.2,0.1,0.3c0.1,0.1,0.3,0.2,0.5,0.2
			c0.2,0.1,0.4,0.1,0.5,0.2c0.1,0.1,0.2,0.2,0.3,0.3c0.1,0.1,0.1,0.2,0.1,0.4c0,0.2-0.1,0.4-0.3,0.5c-0.2,0.1-0.4,0.2-0.7,0.2
			c-0.2,0-0.4,0-0.5-0.1c-0.2-0.1-0.3-0.2-0.4-0.3c-0.1-0.1-0.1-0.3-0.1-0.4h0.4c0,0.2,0.1,0.3,0.2,0.4c0.1,0.1,0.3,0.1,0.5,0.1
			c0.2,0,0.3,0,0.4-0.1c0.1-0.1,0.2-0.2,0.2-0.3s0-0.2-0.1-0.3C247.9,122.9,247.7,122.8,247.5,122.7z"/>
		<path class="st5" d="M250.7,123c0,0.3-0.1,0.6-0.2,0.8c-0.1,0.2-0.3,0.3-0.6,0.3c-0.3,0-0.5-0.1-0.6-0.2v1h-0.4v-2.9h0.3l0,0.2
			c0.1-0.2,0.3-0.3,0.6-0.3c0.2,0,0.4,0.1,0.6,0.3C250.6,122.3,250.7,122.6,250.7,123L250.7,123z M250.3,122.9
			c0-0.2-0.1-0.4-0.1-0.6c-0.1-0.1-0.2-0.2-0.4-0.2c-0.2,0-0.4,0.1-0.5,0.3v1c0.1,0.2,0.3,0.3,0.5,0.3c0.2,0,0.3-0.1,0.4-0.2
			C250.3,123.4,250.3,123.2,250.3,122.9z"/>
		<path class="st5" d="M252,124c-0.3,0-0.5-0.1-0.7-0.3c-0.2-0.2-0.3-0.4-0.3-0.7v-0.1c0-0.2,0-0.4,0.1-0.6c0.1-0.2,0.2-0.3,0.3-0.4
			c0.1-0.1,0.3-0.1,0.5-0.1c0.3,0,0.5,0.1,0.6,0.3c0.2,0.2,0.2,0.4,0.2,0.8v0.1h-1.4c0,0.2,0.1,0.4,0.2,0.5c0.1,0.1,0.3,0.2,0.4,0.2
			c0.1,0,0.2,0,0.3-0.1c0.1-0.1,0.2-0.1,0.2-0.2l0.2,0.2C252.6,123.9,252.3,124,252,124z M251.9,122.1c-0.1,0-0.3,0.1-0.4,0.2
			c-0.1,0.1-0.2,0.2-0.2,0.4h1v0c0-0.2-0.1-0.3-0.1-0.4C252.2,122.2,252.1,122.1,251.9,122.1z"/>
		<path class="st5" d="M254,123.7c0.1,0,0.2,0,0.3-0.1c0.1-0.1,0.1-0.2,0.2-0.3h0.3c0,0.1,0,0.2-0.1,0.3c-0.1,0.1-0.2,0.2-0.3,0.3
			c-0.1,0.1-0.3,0.1-0.4,0.1c-0.3,0-0.5-0.1-0.7-0.3c-0.2-0.2-0.2-0.4-0.2-0.8v-0.1c0-0.2,0-0.4,0.1-0.5c0.1-0.2,0.2-0.3,0.3-0.4
			c0.1-0.1,0.3-0.1,0.5-0.1c0.2,0,0.4,0.1,0.6,0.2c0.2,0.1,0.2,0.3,0.2,0.5h-0.3c0-0.1-0.1-0.2-0.2-0.3c-0.1-0.1-0.2-0.1-0.3-0.1
			c-0.2,0-0.3,0.1-0.4,0.2c-0.1,0.1-0.1,0.3-0.1,0.6v0.1c0,0.2,0,0.4,0.1,0.6C253.7,123.7,253.9,123.7,254,123.7z"/>
		<path class="st5" d="M255.7,124h-0.4v-2.1h0.4V124z M255.3,121.3c0-0.1,0-0.1,0.1-0.1c0,0,0.1-0.1,0.2-0.1c0.1,0,0.1,0,0.2,0.1
			s0.1,0.1,0.1,0.1c0,0.1,0,0.1-0.1,0.1c0,0-0.1,0.1-0.2,0.1c-0.1,0-0.1,0-0.2-0.1C255.3,121.4,255.3,121.4,255.3,121.3z"/>
		<path class="st5" d="M256.6,121.9l0,0.2c0.2-0.2,0.4-0.3,0.6-0.3c0.3,0,0.5,0.1,0.6,0.3c0.1-0.1,0.2-0.2,0.3-0.2
			c0.1-0.1,0.2-0.1,0.4-0.1c0.5,0,0.7,0.2,0.7,0.7v1.4h-0.4v-1.4c0-0.1,0-0.3-0.1-0.3c-0.1-0.1-0.2-0.1-0.3-0.1
			c-0.1,0-0.2,0-0.3,0.1c-0.1,0.1-0.1,0.2-0.2,0.3v1.4h-0.4v-1.4c0-0.3-0.1-0.5-0.4-0.5c-0.2,0-0.4,0.1-0.5,0.3v1.5h-0.4v-2.1H256.6
			z"/>
		<path class="st5" d="M260.5,124c-0.3,0-0.5-0.1-0.7-0.3c-0.2-0.2-0.3-0.4-0.3-0.7v-0.1c0-0.2,0-0.4,0.1-0.6
			c0.1-0.2,0.2-0.3,0.3-0.4c0.1-0.1,0.3-0.1,0.5-0.1c0.3,0,0.5,0.1,0.6,0.3s0.2,0.4,0.2,0.8v0.1h-1.4c0,0.2,0.1,0.4,0.2,0.5
			c0.1,0.1,0.3,0.2,0.4,0.2c0.1,0,0.2,0,0.3-0.1c0.1-0.1,0.2-0.1,0.2-0.2l0.2,0.2C261.1,123.9,260.9,124,260.5,124z M260.5,122.1
			c-0.1,0-0.3,0.1-0.4,0.2c-0.1,0.1-0.2,0.2-0.2,0.4h1v0c0-0.2-0.1-0.3-0.1-0.4C260.8,122.2,260.6,122.1,260.5,122.1z"/>
		<path class="st5" d="M262.1,121.9l0,0.3c0.2-0.2,0.4-0.3,0.6-0.3c0.4,0,0.7,0.2,0.7,0.7v1.4H263v-1.4c0-0.2,0-0.3-0.1-0.3
			c-0.1-0.1-0.2-0.1-0.3-0.1c-0.1,0-0.2,0-0.3,0.1c-0.1,0.1-0.2,0.1-0.2,0.2v1.5h-0.4v-2.1H262.1z"/>
		<path class="st5" d="M265,124v-2.8h0.9c0.3,0,0.5,0.1,0.7,0.2c0.2,0.1,0.2,0.3,0.2,0.6c0,0.1,0,0.2-0.1,0.3
			c-0.1,0.1-0.2,0.2-0.3,0.2c0.2,0,0.3,0.1,0.4,0.2c0.1,0.1,0.1,0.3,0.1,0.4c0,0.3-0.1,0.4-0.2,0.6c-0.2,0.1-0.4,0.2-0.7,0.2H265z
			 M265.3,122.7v1h0.6c0.2,0,0.3,0,0.4-0.1c0.1-0.1,0.1-0.2,0.1-0.4c0-0.3-0.2-0.5-0.5-0.5H265.3z M265.3,122.4h0.6
			c0.2,0,0.3,0,0.4-0.1c0.1-0.1,0.1-0.2,0.1-0.3c0-0.2,0-0.3-0.1-0.3c-0.1-0.1-0.2-0.1-0.4-0.1h-0.5V122.4z"/>
		<path class="st5" d="M267.3,122.9c0-0.2,0-0.4,0.1-0.5c0.1-0.2,0.2-0.3,0.3-0.4c0.1-0.1,0.3-0.1,0.5-0.1c0.3,0,0.5,0.1,0.7,0.3
			c0.2,0.2,0.3,0.5,0.3,0.8v0c0,0.2,0,0.4-0.1,0.5c-0.1,0.2-0.2,0.3-0.3,0.4c-0.1,0.1-0.3,0.1-0.5,0.1c-0.3,0-0.5-0.1-0.7-0.3
			C267.3,123.5,267.3,123.3,267.3,122.9L267.3,122.9z M267.6,123c0,0.2,0.1,0.4,0.2,0.6c0.1,0.1,0.3,0.2,0.4,0.2
			c0.2,0,0.3-0.1,0.4-0.2c0.1-0.1,0.2-0.3,0.2-0.6c0-0.2-0.1-0.4-0.2-0.6c-0.1-0.1-0.3-0.2-0.4-0.2c-0.2,0-0.3,0.1-0.4,0.2
			C267.7,122.5,267.6,122.7,267.6,123z"/>
		<path class="st5" d="M269.5,122.9c0-0.2,0-0.4,0.1-0.5c0.1-0.2,0.2-0.3,0.3-0.4c0.1-0.1,0.3-0.1,0.5-0.1c0.3,0,0.5,0.1,0.7,0.3
			c0.2,0.2,0.3,0.5,0.3,0.8v0c0,0.2,0,0.4-0.1,0.5c-0.1,0.2-0.2,0.3-0.3,0.4c-0.1,0.1-0.3,0.1-0.5,0.1c-0.3,0-0.5-0.1-0.7-0.3
			C269.6,123.5,269.5,123.3,269.5,122.9L269.5,122.9z M269.9,123c0,0.2,0.1,0.4,0.2,0.6c0.1,0.1,0.3,0.2,0.4,0.2
			c0.2,0,0.3-0.1,0.4-0.2c0.1-0.1,0.2-0.3,0.2-0.6c0-0.2-0.1-0.4-0.2-0.6c-0.1-0.1-0.3-0.2-0.4-0.2c-0.2,0-0.3,0.1-0.4,0.2
			S269.9,122.7,269.9,123z"/>
		<path class="st5" d="M272.4,123l-0.2,0.2v0.7h-0.4V121h0.4v1.8l0.2-0.2l0.6-0.7h0.4l-0.8,0.9l0.9,1.2h-0.4L272.4,123z"/>
		<path class="st5" d="M273.8,123.8c0-0.1,0-0.1,0.1-0.2c0,0,0.1-0.1,0.2-0.1s0.1,0,0.2,0.1c0,0,0.1,0.1,0.1,0.2
			c0,0.1,0,0.1-0.1,0.1c0,0-0.1,0.1-0.2,0.1s-0.1,0-0.2-0.1C273.8,123.9,273.8,123.8,273.8,123.8z"/>
		<path d="M240,99.3v-1.1h0.6c0.4,0,0.6,0.2,0.6,0.6c0,0.3-0.2,0.5-0.6,0.5H240z M242,98.8c0-0.7-0.5-1.2-1.4-1.2h-1.4v3.8h0.8v-1.4
			h0.6C241.6,99.9,242,99.3,242,98.8z"/>
		<path d="M243.3,99.9c0-0.6,0.3-0.8,0.7-0.8h0.2v-0.8c-0.4,0-0.7,0.2-0.9,0.5v-0.5h-0.8v3h0.8V99.9z"/>
		<path d="M247.6,99.9c0-0.9-0.7-1.5-1.5-1.5c-0.9,0-1.5,0.6-1.5,1.5c0,0.9,0.7,1.5,1.5,1.5C246.9,101.4,247.6,100.8,247.6,99.9z
			 M245.3,99.9c0-0.6,0.4-0.9,0.8-0.9c0.4,0,0.8,0.3,0.8,0.9c0,0.6-0.4,0.9-0.8,0.9C245.6,100.8,245.3,100.5,245.3,99.9z"/>
		<path d="M248.2,101.4h0.8V99h0.5v-0.6H249v-0.1c0-0.3,0.1-0.5,0.5-0.4v-0.6c-0.8,0-1.3,0.3-1.3,1.1v0.2h-0.3V99h0.3V101.4z"/>
		<path d="M251.3,99c0.4,0,0.7,0.2,0.7,0.6h-1.4C250.6,99.2,250.9,99,251.3,99z M252.7,100.4h-0.8c-0.1,0.2-0.3,0.4-0.6,0.4
			c-0.4,0-0.7-0.2-0.7-0.7h2.2c0-0.1,0-0.2,0-0.3c0-0.9-0.6-1.5-1.5-1.5c-0.9,0-1.5,0.6-1.5,1.5c0,0.9,0.6,1.5,1.5,1.5
			C252,101.4,252.5,101,252.7,100.4z"/>
		<path d="M255.7,100.5c0-1.1-1.7-0.8-1.7-1.3c0-0.2,0.1-0.3,0.4-0.3c0.3,0,0.5,0.2,0.5,0.4h0.7c0-0.6-0.5-1-1.2-1
			c-0.7,0-1.2,0.4-1.2,0.9c0,1.1,1.7,0.8,1.7,1.3c0,0.2-0.2,0.3-0.5,0.3c-0.3,0-0.5-0.2-0.5-0.4h-0.8c0,0.6,0.6,1,1.3,1
			C255.2,101.4,255.7,101,255.7,100.5z"/>
		<path d="M258.6,100.5c0-1.1-1.7-0.8-1.7-1.3c0-0.2,0.1-0.3,0.4-0.3c0.3,0,0.5,0.2,0.5,0.4h0.7c0-0.6-0.5-1-1.2-1
			c-0.7,0-1.2,0.4-1.2,0.9c0,1.1,1.7,0.8,1.7,1.3c0,0.2-0.2,0.3-0.5,0.3c-0.3,0-0.5-0.2-0.5-0.4h-0.8c0,0.6,0.6,1,1.3,1
			C258.1,101.4,258.6,101,258.6,100.5z"/>
		<path d="M259.2,101.4h0.8v-3h-0.8V101.4z M259.6,98c0.3,0,0.5-0.2,0.5-0.4c0-0.2-0.2-0.4-0.5-0.4c-0.3,0-0.5,0.2-0.5,0.4
			C259.1,97.8,259.3,98,259.6,98z"/>
		<path d="M263.6,99.9c0-0.9-0.7-1.5-1.5-1.5c-0.9,0-1.5,0.6-1.5,1.5c0,0.9,0.7,1.5,1.5,1.5C262.9,101.4,263.6,100.8,263.6,99.9z
			 M261.3,99.9c0-0.6,0.4-0.9,0.8-0.9c0.4,0,0.8,0.3,0.8,0.9c0,0.6-0.4,0.9-0.8,0.9C261.6,100.8,261.3,100.5,261.3,99.9z"/>
		<path d="M266.3,101.4h0.8v-1.8c0-0.8-0.5-1.3-1.2-1.3c-0.4,0-0.7,0.2-0.9,0.4v-0.4h-0.8v3h0.8v-1.7c0-0.5,0.3-0.7,0.7-0.7
			c0.4,0,0.7,0.3,0.7,0.7V101.4z"/>
		<path d="M267.5,99.9c0,0.9,0.6,1.6,1.4,1.6c0.5,0,0.8-0.2,1-0.5v0.4h0.8v-3h-0.8v0.4c-0.2-0.2-0.5-0.5-1-0.5
			C268.2,98.3,267.5,98.9,267.5,99.9z M269.9,99.9c0,0.6-0.4,0.9-0.8,0.9c-0.4,0-0.8-0.3-0.8-0.9c0-0.6,0.4-0.9,0.8-0.9
			C269.5,99,269.9,99.3,269.9,99.9z"/>
		<path d="M271.4,101.4h0.8v-4h-0.8V101.4z"/>
		<g>
			
				<linearGradient id="SVGID_3_" gradientUnits="userSpaceOnUse" x1="256.158" y1="98" x2="256.158" y2="73.6842" gradientTransform="matrix(1 0 0 -1 0 162)">
				<stop  offset="0" style="stop-color:#E03760"/>
				<stop  offset="1" style="stop-color:#6E3EF8"/>
			</linearGradient>
			<path class="st6" d="M268.3,76.2c0,6.7-5.4,12.2-12.2,12.2S244,82.9,244,76.2S249.4,64,256.2,64S268.3,69.4,268.3,76.2z"/>
		</g>
		<path class="st7" d="M251.3,73.7c-0.4,0-0.8,0.4-0.8,0.8v5.4c0,0.5,0.4,0.8,0.8,0.8h8.5c0.4,0,0.8-0.4,0.8-0.8v-5.4
			c0-0.5-0.4-0.8-0.8-0.8H251.3z M250,74.5c0-0.7,0.6-1.3,1.3-1.3h8.5c0.7,0,1.3,0.6,1.3,1.3v5.4c0,0.7-0.6,1.3-1.3,1.3h-8.5
			c-0.7,0-1.3-0.6-1.3-1.3V74.5z"/>
		<path class="st7" d="M253.6,71.4c0.2-0.2,0.6-0.4,0.9-0.4h2.1c0.3,0,0.7,0.1,0.9,0.4c0.2,0.2,0.4,0.6,0.4,0.9V81
			c0,0.1-0.1,0.2-0.2,0.2c-0.1,0-0.2-0.1-0.2-0.2v-8.7c0-0.2-0.1-0.4-0.2-0.6c-0.2-0.2-0.4-0.2-0.6-0.2h-2.1c-0.2,0-0.4,0.1-0.6,0.2
			c-0.2,0.2-0.2,0.4-0.2,0.6V81c0,0.1-0.1,0.2-0.2,0.2c-0.1,0-0.2-0.1-0.2-0.2v-8.7C253.2,72,253.3,71.6,253.6,71.4z"/>
		<g>
			<path class="st2" d="M115.8,54.5c0-2.7,2.2-4.9,4.9-4.9h78.6c2.7,0,4.9,2.2,4.9,4.9v83.8c0,2.7-2.2,4.9-4.9,4.9h-78.6
				c-2.7,0-4.9-2.2-4.9-4.9V54.5z"/>
		</g>
		
			<linearGradient id="SVGID_4_" gradientUnits="userSpaceOnUse" x1="160" y1="112.2056" x2="160" y2="18.627" gradientTransform="matrix(1 0 0 -1 0 162)">
			<stop  offset="0" style="stop-color:#D6386F"/>
			<stop  offset="1" style="stop-color:#7520C2"/>
		</linearGradient>
		<path class="st8" d="M115.8,54.7c0-2.7,2.2-4.9,4.9-4.9h78.6c2.7,0,4.9,2.2,4.9,4.9v83.8c0,2.7-2.2,4.9-4.9,4.9h-78.6
			c-2.7,0-4.9-2.2-4.9-4.9V54.7z"/>
		<g class="st9">
			<path class="st4" d="M135.7,95.2c0,9.4,2.5,16.4,11.5,16.4s11.5-7.1,11.5-16.4c0-9.2-2.5-16.3-11.5-16.3S135.7,86,135.7,95.2z
				 M153.8,95.2c0,6.3-0.7,11.8-6.5,11.8c-5.9,0-6.5-5.5-6.5-11.8c0-6,0.7-11.7,6.5-11.7C153.1,83.5,153.8,89.1,153.8,95.2z"/>
			<path class="st4" d="M163.7,111.2h21.5V107h-14c5.2-4.7,13.1-10.7,13.1-18.5c0-5.8-3.7-9.7-10.3-9.7c-5.7,0-10.2,3.4-10.4,10.4
				h4.9c0.1-3.6,2-6.1,5.6-6.1c3.8,0,5.2,2.3,5.2,5.7c0,6.3-8,12.2-15.6,18.8V111.2z"/>
		</g>
		<g>
			<path class="st2" d="M135.4,96.2c0-3.7,3-6.6,6.6-6.6h35.9c3.7,0,6.6,3,6.6,6.6l0,0c0,3.7-3,6.6-6.6,6.6h-35.9
				C138.4,102.8,135.4,99.9,135.4,96.2L135.4,96.2z"/>
		</g>
		<path d="M149.9,97.5c-0.2,0-0.4,0-0.6-0.1c-0.2-0.1-0.3-0.2-0.4-0.3c-0.1-0.1-0.1-0.2-0.1-0.3c0,0,0,0,0-0.1c0,0,0,0,0.1,0h0.3
			c0,0,0.1,0,0.1,0c0,0,0,0,0,0.1c0,0.1,0.1,0.2,0.2,0.2c0.1,0.1,0.2,0.1,0.4,0.1c0.2,0,0.3,0,0.4-0.1c0.1-0.1,0.1-0.1,0.1-0.2
			c0-0.1,0-0.1-0.1-0.2c0,0-0.1-0.1-0.2-0.1c-0.1,0-0.2-0.1-0.4-0.1c-0.3-0.1-0.5-0.2-0.6-0.3c-0.1-0.1-0.2-0.3-0.2-0.5
			c0-0.1,0-0.3,0.1-0.4c0.1-0.1,0.2-0.2,0.3-0.3c0.1-0.1,0.3-0.1,0.5-0.1c0.2,0,0.4,0,0.5,0.1c0.1,0.1,0.3,0.2,0.3,0.3
			c0.1,0.1,0.1,0.2,0.1,0.3c0,0,0,0,0,0.1c0,0,0,0-0.1,0h-0.3c-0.1,0-0.1,0-0.1-0.1c0-0.1-0.1-0.1-0.1-0.2c-0.1-0.1-0.2-0.1-0.3-0.1
			c-0.1,0-0.2,0-0.3,0.1c-0.1,0.1-0.1,0.1-0.1,0.2c0,0.1,0,0.1,0.1,0.2c0,0,0.1,0.1,0.2,0.1c0.1,0,0.2,0.1,0.4,0.1
			c0.2,0,0.4,0.1,0.5,0.2c0.1,0.1,0.2,0.1,0.3,0.2c0.1,0.1,0.1,0.2,0.1,0.4c0,0.2,0,0.3-0.1,0.4c-0.1,0.1-0.2,0.2-0.4,0.3
			C150.3,97.4,150.1,97.5,149.9,97.5z"/>
		<path d="M151.4,97.4C151.4,97.4,151.4,97.4,151.4,97.4C151.4,97.4,151.4,97.4,151.4,97.4l-0.1-2.5c0,0,0,0,0-0.1c0,0,0,0,0.1,0
			h1.6c0,0,0,0,0.1,0c0,0,0,0,0,0.1v0.2c0,0,0,0,0,0.1c0,0,0,0-0.1,0h-1.2v0.7h1.1c0,0,0,0,0.1,0c0,0,0,0,0,0.1v0.2c0,0,0,0,0,0.1
			c0,0,0,0-0.1,0h-1.1V97h1.2c0,0,0,0,0.1,0c0,0,0,0,0,0.1v0.2c0,0,0,0,0,0.1c0,0,0,0-0.1,0H151.4z"/>
		<path d="M153.7,97.4C153.7,97.4,153.7,97.4,153.7,97.4C153.7,97.4,153.6,97.4,153.7,97.4l-0.1-2.5c0,0,0,0,0-0.1c0,0,0,0,0.1,0
			h1.6c0,0,0,0,0.1,0c0,0,0,0,0,0.1v0.2c0,0,0,0,0,0.1c0,0,0,0-0.1,0h-1.2v0.7h1.1c0,0,0,0,0.1,0c0,0,0,0,0,0.1v0.2c0,0,0,0,0,0.1
			c0,0,0,0-0.1,0h-1.1V97h1.2c0,0,0,0,0.1,0c0,0,0,0,0,0.1v0.2c0,0,0,0,0,0.1c0,0,0,0-0.1,0H153.7z"/>
		<path d="M156.9,97.4C156.8,97.4,156.8,97.4,156.9,97.4C156.8,97.4,156.8,97.4,156.9,97.4l-0.1-2.5c0,0,0,0,0-0.1c0,0,0,0,0.1,0
			h0.9c0.7,0,1.1,0.3,1.1,1c0,0.1,0,0.2,0,0.3c0,0,0,0.1,0,0.3c0,0.3-0.1,0.6-0.3,0.8c-0.2,0.2-0.4,0.2-0.8,0.2H156.9z M157.8,97
			c0.2,0,0.4,0,0.4-0.1c0.1-0.1,0.1-0.2,0.1-0.5c0-0.1,0-0.2,0-0.3c0,0,0-0.1,0-0.3c0-0.2-0.1-0.3-0.2-0.4c-0.1-0.1-0.2-0.1-0.5-0.1
			h-0.5V97H157.8z"/>
		<path d="M159.5,97.4C159.4,97.4,159.4,97.4,159.5,97.4C159.4,97.4,159.4,97.4,159.5,97.4l-0.1-2.5c0,0,0,0,0-0.1c0,0,0,0,0.1,0
			h1.6c0,0,0.1,0,0.1,0c0,0,0,0,0,0.1v0.2c0,0,0,0,0,0.1c0,0,0,0-0.1,0h-1.2v0.7h1.1c0,0,0,0,0.1,0c0,0,0,0,0,0.1v0.2c0,0,0,0,0,0.1
			c0,0,0,0-0.1,0h-1.1V97h1.2c0,0,0,0,0.1,0c0,0,0,0,0,0.1v0.2c0,0,0,0,0,0.1c0,0,0,0-0.1,0H159.5z"/>
		<path d="M162.3,97.4C162.3,97.4,162.3,97.4,162.3,97.4C162.2,97.4,162.2,97.4,162.3,97.4l-0.1-2.1h-0.7c0,0,0,0-0.1,0
			c0,0,0,0,0-0.1V95c0,0,0,0,0-0.1c0,0,0,0,0.1,0h1.9c0,0,0.1,0,0.1,0c0,0,0,0,0,0.1v0.3c0,0,0,0,0,0.1c0,0,0,0-0.1,0h-0.7v2
			c0,0,0,0,0,0.1c0,0,0,0-0.1,0H162.3z"/>
		<path d="M163.5,97.4C163.4,97.4,163.4,97.4,163.5,97.4C163.4,97.4,163.4,97.4,163.5,97.4l-0.1-0.1l0.9-2.4c0-0.1,0.1-0.1,0.1-0.1
			h0.4c0.1,0,0.1,0,0.1,0.1l0.9,2.4c0,0,0,0,0,0c0,0,0,0,0,0.1c0,0,0,0-0.1,0h-0.3c0,0-0.1,0-0.1,0c0,0,0,0,0,0l-0.2-0.4h-1.1
			l-0.2,0.4c0,0-0.1,0.1-0.1,0.1H163.5z M165,96.5l-0.4-1.1l-0.4,1.1H165z"/>
		<path d="M166.3,97.4C166.2,97.4,166.2,97.4,166.3,97.4C166.2,97.4,166.2,97.4,166.3,97.4l-0.1-2.5c0,0,0,0,0-0.1c0,0,0,0,0.1,0
			h0.3c0,0,0,0,0.1,0c0,0,0,0,0,0.1v2.4c0,0,0,0,0,0.1c0,0,0,0-0.1,0H166.3z"/>
		<path d="M167.4,97.4C167.3,97.4,167.3,97.4,167.4,97.4C167.3,97.4,167.3,97.4,167.4,97.4l-0.1-2.5c0,0,0,0,0-0.1c0,0,0,0,0.1,0
			h0.3c0,0,0,0,0.1,0c0,0,0,0,0,0.1V97h1.2c0,0,0.1,0,0.1,0c0,0,0,0,0,0.1v0.3c0,0,0,0,0,0.1c0,0,0,0-0.1,0H167.4z"/>
		<path d="M170.3,97.5c-0.2,0-0.4,0-0.6-0.1s-0.3-0.2-0.4-0.3s-0.1-0.2-0.1-0.3c0,0,0,0,0-0.1c0,0,0,0,0.1,0h0.3c0,0,0.1,0,0.1,0
			c0,0,0,0,0,0.1c0,0.1,0.1,0.2,0.2,0.2c0.1,0.1,0.2,0.1,0.4,0.1c0.2,0,0.3,0,0.4-0.1c0.1-0.1,0.1-0.1,0.1-0.2c0-0.1,0-0.1-0.1-0.2
			c0,0-0.1-0.1-0.2-0.1c-0.1,0-0.2-0.1-0.4-0.1c-0.3-0.1-0.5-0.2-0.6-0.3c-0.1-0.1-0.2-0.3-0.2-0.5c0-0.1,0-0.3,0.1-0.4
			c0.1-0.1,0.2-0.2,0.3-0.3c0.1-0.1,0.3-0.1,0.5-0.1c0.2,0,0.4,0,0.5,0.1c0.1,0.1,0.3,0.2,0.3,0.3c0.1,0.1,0.1,0.2,0.1,0.3
			c0,0,0,0,0,0.1c0,0,0,0-0.1,0h-0.3c-0.1,0-0.1,0-0.1-0.1c0-0.1-0.1-0.1-0.1-0.2c-0.1-0.1-0.2-0.1-0.3-0.1c-0.1,0-0.2,0-0.3,0.1
			c-0.1,0.1-0.1,0.1-0.1,0.2c0,0.1,0,0.1,0.1,0.2s0.1,0.1,0.2,0.1c0.1,0,0.2,0.1,0.4,0.1c0.2,0,0.4,0.1,0.5,0.2
			c0.1,0.1,0.2,0.1,0.3,0.2c0.1,0.1,0.1,0.2,0.1,0.4c0,0.2,0,0.3-0.1,0.4c-0.1,0.1-0.2,0.2-0.4,0.3
			C170.7,97.4,170.5,97.5,170.3,97.5z"/>
		<path class="st2" d="M20,54.5c0-2.7,2.2-4.9,4.9-4.9h78.6c2.7,0,4.9,2.2,4.9,4.9v83.8c0,2.7-2.2,4.9-4.9,4.9H24.9
			c-2.7,0-4.9-2.2-4.9-4.9V54.5z"/>
		<path class="st3" d="M103.5,49.8H24.9c-2.6,0-4.7,2.1-4.7,4.7v83.8c0,2.6,2.1,4.7,4.7,4.7h78.6c2.6,0,4.7-2.1,4.7-4.7V54.5
			C108.2,51.9,106.1,49.8,103.5,49.8z M24.9,49.5c-2.7,0-4.9,2.2-4.9,4.9v83.8c0,2.7,2.2,4.9,4.9,4.9h78.6c2.7,0,4.9-2.2,4.9-4.9
			V54.5c0-2.7-2.2-4.9-4.9-4.9H24.9z"/>
		<path class="st4" d="M45.1,110.1c0,9.4,2.5,16.4,11.5,16.4c9,0,11.5-7.1,11.5-16.4c0-9.2-2.5-16.3-11.5-16.3
			C47.6,93.9,45.1,100.9,45.1,110.1z M63.1,110.1c0,6.3-0.7,11.8-6.5,11.8s-6.5-5.5-6.5-11.8c0-6,0.7-11.7,6.5-11.7
			S63.1,104.1,63.1,110.1z"/>
		<path class="st4" d="M76.9,126.7H82V94.4h-9.2V99h4.1V126.7z"/>
		<path class="st5" d="M37.2,110.3l0.1,0.4l0.1-0.3l0.6-1.9h0.3l0.5,1.9l0.1,0.3l0.1-0.4l0.4-1.9h0.4l-0.7,2.8h-0.3l-0.6-2l0-0.2
			l0,0.2l-0.6,2H37l-0.7-2.8h0.4L37.2,110.3z"/>
		<path class="st5" d="M40.4,109.4c0.2-0.2,0.4-0.3,0.6-0.3c0.4,0,0.7,0.2,0.7,0.7v1.4h-0.4v-1.4c0-0.1,0-0.3-0.1-0.3
			c-0.1-0.1-0.2-0.1-0.3-0.1c-0.1,0-0.2,0-0.3,0.1c-0.1,0.1-0.2,0.1-0.2,0.2v1.5H40v-2.9h0.4V109.4z"/>
		<path class="st5" d="M43,111.2c-0.3,0-0.5-0.1-0.7-0.3c-0.2-0.2-0.3-0.4-0.3-0.7v-0.1c0-0.2,0-0.4,0.1-0.6
			c0.1-0.2,0.2-0.3,0.3-0.4c0.1-0.1,0.3-0.1,0.5-0.1c0.3,0,0.5,0.1,0.6,0.3c0.1,0.2,0.2,0.4,0.2,0.8v0.1h-1.4c0,0.2,0.1,0.4,0.2,0.5
			c0.1,0.1,0.3,0.2,0.4,0.2c0.1,0,0.2,0,0.3-0.1c0.1-0.1,0.2-0.1,0.2-0.2l0.2,0.2C43.6,111.1,43.4,111.2,43,111.2z M43,109.4
			c-0.1,0-0.3,0.1-0.4,0.2c-0.1,0.1-0.2,0.2-0.2,0.4h1v0c0-0.2-0.1-0.3-0.1-0.4C43.2,109.4,43.1,109.4,43,109.4z"/>
		<path class="st5" d="M44.6,109.1l0,0.3c0.2-0.2,0.4-0.3,0.6-0.3c0.4,0,0.7,0.2,0.7,0.7v1.4h-0.4v-1.4c0-0.1,0-0.3-0.1-0.3
			c-0.1-0.1-0.2-0.1-0.3-0.1c-0.1,0-0.2,0-0.3,0.1c-0.1,0.1-0.2,0.1-0.2,0.2v1.5h-0.4v-2.1H44.6z"/>
		<path class="st5" d="M49,110.5h-1.2l-0.3,0.7h-0.4l1.1-2.8h0.3l1.1,2.8h-0.4L49,110.5z M47.9,110.2h0.9l-0.5-1.3L47.9,110.2z"/>
		<path class="st5" d="M50.3,109.1l0,0.3c0.2-0.2,0.4-0.3,0.6-0.3c0.4,0,0.7,0.2,0.7,0.7v1.4h-0.4v-1.4c0-0.1,0-0.3-0.1-0.3
			c-0.1-0.1-0.2-0.1-0.3-0.1c-0.1,0-0.2,0-0.3,0.1c-0.1,0.1-0.2,0.1-0.2,0.2v1.5H50v-2.1H50.3z"/>
		<path class="st5" d="M55.1,108.4v1.9c0,0.3-0.1,0.5-0.2,0.6c-0.2,0.2-0.4,0.3-0.7,0.3l-0.1,0c-0.3,0-0.5-0.1-0.7-0.2
			c-0.2-0.2-0.3-0.4-0.3-0.7v-1.9h0.4v1.9c0,0.2,0.1,0.4,0.2,0.5c0.1,0.1,0.3,0.2,0.5,0.2c0.2,0,0.4-0.1,0.5-0.2
			c0.1-0.1,0.2-0.3,0.2-0.5v-1.9H55.1z"/>
		<path class="st5" d="M56,109.1l0,0.3c0.2-0.2,0.4-0.3,0.6-0.3c0.4,0,0.7,0.2,0.7,0.7v1.4h-0.4v-1.4c0-0.1,0-0.3-0.1-0.3
			c-0.1-0.1-0.2-0.1-0.3-0.1c-0.1,0-0.2,0-0.3,0.1c-0.1,0.1-0.2,0.1-0.2,0.2v1.5h-0.4v-2.1H56z"/>
		<path class="st5" d="M58.4,110.2l-0.2,0.2v0.7h-0.4v-2.9h0.4v1.8l0.2-0.2l0.6-0.7h0.4l-0.8,0.9l0.9,1.2h-0.4L58.4,110.2z"/>
		<path class="st5" d="M60.1,109.1l0,0.3c0.2-0.2,0.4-0.3,0.6-0.3c0.4,0,0.7,0.2,0.7,0.7v1.4h-0.4v-1.4c0-0.1,0-0.3-0.1-0.3
			c-0.1-0.1-0.2-0.1-0.3-0.1c-0.1,0-0.2,0-0.3,0.1c-0.1,0.1-0.2,0.1-0.2,0.2v1.5h-0.4v-2.1H60.1z"/>
		<path class="st5" d="M61.9,110.1c0-0.2,0-0.4,0.1-0.5c0.1-0.2,0.2-0.3,0.3-0.4c0.1-0.1,0.3-0.1,0.5-0.1c0.3,0,0.5,0.1,0.7,0.3
			c0.2,0.2,0.3,0.5,0.3,0.8v0c0,0.2,0,0.4-0.1,0.5c-0.1,0.2-0.2,0.3-0.3,0.4c-0.1,0.1-0.3,0.1-0.5,0.1c-0.3,0-0.5-0.1-0.7-0.3
			C62,110.7,61.9,110.5,61.9,110.1L61.9,110.1z M62.2,110.2c0,0.2,0.1,0.4,0.2,0.6c0.1,0.1,0.3,0.2,0.4,0.2c0.2,0,0.3-0.1,0.4-0.2
			c0.1-0.1,0.2-0.3,0.2-0.6c0-0.2-0.1-0.4-0.2-0.6c-0.1-0.1-0.3-0.2-0.4-0.2c-0.2,0-0.3,0.1-0.4,0.2
			C62.3,109.7,62.2,109.9,62.2,110.2z"/>
		<path class="st5" d="M66.1,110.7l0.4-1.6h0.4l-0.6,2.1h-0.3l-0.5-1.6l-0.5,1.6h-0.3l-0.6-2.1h0.4l0.4,1.6l0.5-1.6h0.3L66.1,110.7z
			"/>
		<path class="st5" d="M67.5,109.1l0,0.3c0.2-0.2,0.4-0.3,0.6-0.3c0.4,0,0.7,0.2,0.7,0.7v1.4h-0.4v-1.4c0-0.1,0-0.3-0.1-0.3
			c-0.1-0.1-0.2-0.1-0.3-0.1c-0.1,0-0.2,0-0.3,0.1c-0.1,0.1-0.2,0.1-0.2,0.2v1.5h-0.4v-2.1H67.5z"/>
		<path class="st5" d="M70.7,110.1v1.1h-0.4v-2.8h1c0.3,0,0.5,0.1,0.7,0.2c0.2,0.2,0.3,0.4,0.3,0.6c0,0.3-0.1,0.5-0.3,0.6
			c-0.2,0.1-0.4,0.2-0.7,0.2H70.7z M70.7,109.8h0.7c0.2,0,0.3,0,0.5-0.1c0.1-0.1,0.2-0.2,0.2-0.4c0-0.2-0.1-0.3-0.2-0.4
			c-0.1-0.1-0.2-0.2-0.4-0.2h-0.7V109.8z"/>
		<path class="st5" d="M73.8,109.4c-0.1,0-0.1,0-0.2,0c-0.2,0-0.4,0.1-0.5,0.3v1.5h-0.4v-2.1h0.3l0,0.2c0.1-0.2,0.3-0.3,0.5-0.3
			c0.1,0,0.1,0,0.2,0V109.4z"/>
		<path class="st5" d="M74.5,111.2h-0.4v-2.1h0.4V111.2z M74.1,108.6c0-0.1,0-0.1,0.1-0.1c0,0,0.1-0.1,0.2-0.1c0.1,0,0.1,0,0.2,0.1
			c0,0,0.1,0.1,0.1,0.1s0,0.1-0.1,0.1c0,0-0.1,0.1-0.2,0.1c-0.1,0-0.1,0-0.2-0.1C74.1,108.7,74.1,108.6,74.1,108.6z"/>
		<path class="st5" d="M75.4,109.1l0,0.3c0.2-0.2,0.4-0.3,0.6-0.3c0.4,0,0.7,0.2,0.7,0.7v1.4h-0.4v-1.4c0-0.1,0-0.3-0.1-0.3
			c-0.1-0.1-0.2-0.1-0.3-0.1c-0.1,0-0.2,0-0.3,0.1c-0.1,0.1-0.2,0.1-0.2,0.2v1.5h-0.4v-2.1H75.4z"/>
		<path class="st5" d="M77.7,108.6v0.5h0.4v0.3h-0.4v1.3c0,0.1,0,0.1,0.1,0.2c0,0,0.1,0.1,0.2,0.1c0,0,0.1,0,0.2,0v0.3
			c-0.1,0-0.2,0-0.3,0c-0.2,0-0.3,0-0.4-0.1c-0.1-0.1-0.1-0.2-0.1-0.4v-1.3H77v-0.3h0.4v-0.5H77.7z"/>
		<path class="st5" d="M79.4,111.2c-0.3,0-0.5-0.1-0.7-0.3c-0.2-0.2-0.3-0.4-0.3-0.7v-0.1c0-0.2,0-0.4,0.1-0.6
			c0.1-0.2,0.2-0.3,0.3-0.4c0.1-0.1,0.3-0.1,0.5-0.1c0.3,0,0.5,0.1,0.6,0.3c0.1,0.2,0.2,0.4,0.2,0.8v0.1h-1.4c0,0.2,0.1,0.4,0.2,0.5
			c0.1,0.1,0.3,0.2,0.4,0.2c0.1,0,0.2,0,0.3-0.1c0.1-0.1,0.2-0.1,0.2-0.2l0.2,0.2C80,111.1,79.7,111.2,79.4,111.2z M79.4,109.4
			c-0.1,0-0.3,0.1-0.4,0.2c-0.1,0.1-0.2,0.2-0.2,0.4h1v0c0-0.2-0.1-0.3-0.1-0.4C79.6,109.4,79.5,109.4,79.4,109.4z"/>
		<path class="st5" d="M81.6,109.4c-0.1,0-0.1,0-0.2,0c-0.2,0-0.4,0.1-0.5,0.3v1.5h-0.4v-2.1H81l0,0.2c0.1-0.2,0.3-0.3,0.5-0.3
			c0.1,0,0.1,0,0.2,0V109.4z"/>
		<path class="st5" d="M84.8,108.7h-0.9v2.5h-0.4v-2.5h-0.9v-0.3h2.2V108.7z"/>
		<path class="st5" d="M84.9,110.1c0-0.2,0-0.4,0.1-0.5c0.1-0.2,0.2-0.3,0.3-0.4c0.1-0.1,0.3-0.1,0.5-0.1c0.3,0,0.5,0.1,0.7,0.3
			c0.2,0.2,0.3,0.5,0.3,0.8v0c0,0.2,0,0.4-0.1,0.5c-0.1,0.2-0.2,0.3-0.3,0.4c-0.1,0.1-0.3,0.1-0.5,0.1c-0.3,0-0.5-0.1-0.7-0.3
			C85,110.7,84.9,110.5,84.9,110.1L84.9,110.1z M85.3,110.2c0,0.2,0.1,0.4,0.2,0.6c0.1,0.1,0.3,0.2,0.4,0.2c0.2,0,0.3-0.1,0.4-0.2
			c0.1-0.1,0.2-0.3,0.2-0.6c0-0.2-0.1-0.4-0.2-0.6c-0.1-0.1-0.3-0.2-0.4-0.2c-0.2,0-0.3,0.1-0.4,0.2
			C85.3,109.7,85.3,109.9,85.3,110.2z"/>
		<path class="st5" d="M87.1,110.1c0-0.2,0-0.4,0.1-0.5c0.1-0.2,0.2-0.3,0.3-0.4c0.1-0.1,0.3-0.1,0.5-0.1c0.3,0,0.5,0.1,0.7,0.3
			c0.2,0.2,0.3,0.5,0.3,0.8v0c0,0.2,0,0.4-0.1,0.5c-0.1,0.2-0.2,0.3-0.3,0.4c-0.1,0.1-0.3,0.1-0.5,0.1c-0.3,0-0.5-0.1-0.7-0.3
			C87.2,110.7,87.1,110.5,87.1,110.1L87.1,110.1z M87.5,110.2c0,0.2,0.1,0.4,0.2,0.6c0.1,0.1,0.3,0.2,0.4,0.2c0.2,0,0.3-0.1,0.4-0.2
			c0.1-0.1,0.2-0.3,0.2-0.6c0-0.2-0.1-0.4-0.2-0.6c-0.1-0.1-0.3-0.2-0.4-0.2c-0.2,0-0.3,0.1-0.4,0.2
			C87.6,109.7,87.5,109.9,87.5,110.2z"/>
		<path class="st5" d="M90.1,110.2l-0.2,0.2v0.7h-0.4v-2.9h0.4v1.8l0.2-0.2l0.6-0.7h0.4l-0.8,0.9l0.9,1.2h-0.4L90.1,110.2z"/>
		<path class="st5" d="M39.8,117.2c-0.1,0.1-0.2,0.2-0.4,0.3c-0.2,0.1-0.4,0.1-0.6,0.1c-0.2,0-0.4-0.1-0.6-0.2
			c-0.2-0.1-0.3-0.3-0.4-0.5c-0.1-0.2-0.1-0.4-0.1-0.7v-0.2c0-0.4,0.1-0.7,0.3-1c0.2-0.2,0.5-0.3,0.8-0.3c0.3,0,0.5,0.1,0.7,0.2
			c0.2,0.1,0.3,0.4,0.3,0.6h-0.4c-0.1-0.4-0.3-0.6-0.7-0.6c-0.2,0-0.4,0.1-0.6,0.3c-0.1,0.2-0.2,0.4-0.2,0.8v0.2
			c0,0.3,0.1,0.6,0.2,0.7c0.1,0.2,0.3,0.3,0.6,0.3c0.1,0,0.3,0,0.4,0s0.2-0.1,0.3-0.2v-0.6h-0.6v-0.3h1V117.2z"/>
		<path class="st5" d="M41.7,117.6c0,0,0-0.1,0-0.2c-0.2,0.2-0.4,0.3-0.6,0.3c-0.2,0-0.4-0.1-0.5-0.2c-0.1-0.1-0.2-0.3-0.2-0.4
			c0-0.2,0.1-0.4,0.2-0.5c0.2-0.1,0.4-0.2,0.7-0.2h0.3v-0.2c0-0.1,0-0.2-0.1-0.3c-0.1-0.1-0.2-0.1-0.3-0.1c-0.1,0-0.2,0-0.3,0.1
			c-0.1,0.1-0.1,0.1-0.1,0.2h-0.4c0-0.1,0-0.2,0.1-0.3c0.1-0.1,0.2-0.2,0.3-0.2c0.1-0.1,0.3-0.1,0.4-0.1c0.2,0,0.4,0.1,0.6,0.2
			c0.1,0.1,0.2,0.3,0.2,0.5v1c0,0.2,0,0.3,0.1,0.5v0H41.7z M41.1,117.3c0.1,0,0.2,0,0.3-0.1c0.1-0.1,0.2-0.1,0.2-0.2v-0.4h-0.3
			c-0.4,0-0.7,0.1-0.7,0.4c0,0.1,0,0.2,0.1,0.3C40.9,117.3,41,117.3,41.1,117.3z"/>
		<path class="st5" d="M42.9,117.6h-0.4v-2.9h0.4V117.6z"/>
		<path class="st5" d="M43.9,117.6h-0.4v-2.9h0.4V117.6z"/>
		<path class="st5" d="M45.3,117.6c-0.3,0-0.5-0.1-0.7-0.3c-0.2-0.2-0.3-0.4-0.3-0.7v-0.1c0-0.2,0-0.4,0.1-0.6
			c0.1-0.2,0.2-0.3,0.3-0.4c0.1-0.1,0.3-0.1,0.5-0.1c0.3,0,0.5,0.1,0.6,0.3c0.1,0.2,0.2,0.4,0.2,0.8v0.1h-1.4c0,0.2,0.1,0.4,0.2,0.5
			c0.1,0.1,0.3,0.2,0.4,0.2c0.1,0,0.2,0,0.3-0.1c0.1-0.1,0.2-0.1,0.2-0.2l0.2,0.2C45.9,117.5,45.7,117.6,45.3,117.6z M45.3,115.8
			c-0.1,0-0.3,0.1-0.4,0.2c-0.1,0.1-0.2,0.2-0.2,0.4h1v0c0-0.2-0.1-0.3-0.1-0.4C45.5,115.8,45.4,115.8,45.3,115.8z"/>
		<path class="st5" d="M47.2,117.1l0.5-1.6H48l-0.8,2.4c-0.1,0.3-0.3,0.5-0.6,0.5l-0.1,0l-0.1,0v-0.3l0.1,0c0.1,0,0.2,0,0.3-0.1
			c0.1,0,0.1-0.1,0.2-0.3l0.1-0.2l-0.7-2.1h0.4L47.2,117.1z"/>
		<path class="st5" d="M51.5,116.3c0,0.3,0,0.5-0.1,0.7c-0.1,0.2-0.2,0.4-0.4,0.5c-0.2,0.1-0.4,0.2-0.6,0.2c-0.2,0-0.4-0.1-0.6-0.2
			c-0.2-0.1-0.3-0.3-0.4-0.5c-0.1-0.2-0.1-0.4-0.1-0.7v-0.2c0-0.3,0-0.5,0.1-0.7c0.1-0.2,0.2-0.4,0.4-0.5c0.2-0.1,0.4-0.2,0.6-0.2
			c0.2,0,0.4,0.1,0.6,0.2c0.2,0.1,0.3,0.3,0.4,0.5c0.1,0.2,0.1,0.4,0.1,0.7V116.3z M51.2,116.1c0-0.3-0.1-0.6-0.2-0.8
			c-0.1-0.2-0.3-0.3-0.6-0.3c-0.2,0-0.4,0.1-0.6,0.3c-0.1,0.2-0.2,0.4-0.2,0.7v0.2c0,0.3,0.1,0.6,0.2,0.8c0.1,0.2,0.3,0.3,0.6,0.3
			c0.2,0,0.4-0.1,0.6-0.3c0.1-0.2,0.2-0.4,0.2-0.7V116.1z"/>
		<path class="st5" d="M52.2,117.6v-1.8h-0.3v-0.3h0.3v-0.2c0-0.2,0.1-0.4,0.2-0.5c0.1-0.1,0.3-0.2,0.5-0.2c0.1,0,0.2,0,0.2,0l0,0.3
			c-0.1,0-0.1,0-0.2,0c-0.1,0-0.2,0-0.3,0.1c-0.1,0.1-0.1,0.2-0.1,0.3v0.2H53v0.3h-0.4v1.8H52.2z"/>
		<path class="st5" d="M56.3,115.1h-0.9v2.5H55v-2.5h-0.9v-0.3h2.2V115.1z"/>
		<path class="st5" d="M57.2,117.1l0.5-1.6h0.4l-0.8,2.4c-0.1,0.3-0.3,0.5-0.6,0.5l-0.1,0l-0.1,0v-0.3l0.1,0c0.1,0,0.2,0,0.3-0.1
			c0.1,0,0.1-0.1,0.2-0.3l0.1-0.2l-0.7-2.1h0.4L57.2,117.1z"/>
		<path class="st5" d="M60.1,116.6c0,0.3-0.1,0.6-0.2,0.8c-0.1,0.2-0.3,0.3-0.6,0.3c-0.3,0-0.5-0.1-0.6-0.2v1h-0.4v-2.9h0.3l0,0.2
			c0.1-0.2,0.3-0.3,0.6-0.3c0.2,0,0.4,0.1,0.6,0.3C60.1,115.9,60.1,116.2,60.1,116.6L60.1,116.6z M59.8,116.5c0-0.2,0-0.4-0.1-0.6
			c-0.1-0.1-0.2-0.2-0.4-0.2c-0.2,0-0.4,0.1-0.5,0.3v1c0.1,0.2,0.3,0.3,0.5,0.3c0.2,0,0.3-0.1,0.4-0.2
			C59.7,117,59.8,116.8,59.8,116.5z"/>
		<path class="st5" d="M61.4,117.6c-0.3,0-0.5-0.1-0.7-0.3c-0.2-0.2-0.3-0.4-0.3-0.7v-0.1c0-0.2,0-0.4,0.1-0.6
			c0.1-0.2,0.2-0.3,0.3-0.4c0.1-0.1,0.3-0.1,0.5-0.1c0.3,0,0.5,0.1,0.6,0.3s0.2,0.4,0.2,0.8v0.1h-1.4c0,0.2,0.1,0.4,0.2,0.5
			c0.1,0.1,0.3,0.2,0.4,0.2c0.1,0,0.2,0,0.3-0.1c0.1-0.1,0.2-0.1,0.2-0.2l0.2,0.2C62.1,117.5,61.8,117.6,61.4,117.6z M61.4,115.8
			c-0.1,0-0.3,0.1-0.4,0.2c-0.1,0.1-0.2,0.2-0.2,0.4h1v0c0-0.2-0.1-0.3-0.1-0.4C61.7,115.8,61.5,115.8,61.4,115.8z"/>
		<path class="st5" d="M65.2,116.9h-1.2l-0.3,0.7h-0.4l1.1-2.8h0.3l1.1,2.8h-0.4L65.2,116.9z M64.2,116.6h0.9l-0.5-1.3L64.2,116.6z"
			/>
		<path class="st5" d="M66.5,115.5l0,0.3c0.2-0.2,0.4-0.3,0.6-0.3c0.4,0,0.7,0.2,0.7,0.7v1.4h-0.4v-1.4c0-0.2,0-0.3-0.1-0.3
			c-0.1-0.1-0.2-0.1-0.3-0.1c-0.1,0-0.2,0-0.3,0.1c-0.1,0.1-0.2,0.1-0.2,0.2v1.5h-0.4v-2.1H66.5z"/>
		<path class="st5" d="M68.3,116.5c0-0.3,0.1-0.6,0.2-0.8c0.2-0.2,0.3-0.3,0.6-0.3c0.2,0,0.4,0.1,0.6,0.2v-1.1H70v2.9h-0.3l0-0.2
			c-0.1,0.2-0.3,0.3-0.6,0.3c-0.2,0-0.4-0.1-0.6-0.3C68.4,117.1,68.3,116.9,68.3,116.5L68.3,116.5z M68.6,116.6c0,0.2,0,0.4,0.1,0.6
			c0.1,0.1,0.2,0.2,0.4,0.2c0.2,0,0.4-0.1,0.5-0.3v-1c-0.1-0.2-0.3-0.3-0.5-0.3c-0.2,0-0.3,0.1-0.4,0.2S68.6,116.3,68.6,116.6z"/>
		<path class="st5" d="M72.4,116.3c-0.3-0.1-0.5-0.2-0.7-0.3c-0.1-0.1-0.2-0.3-0.2-0.5c0-0.2,0.1-0.4,0.3-0.5
			c0.2-0.1,0.4-0.2,0.7-0.2c0.2,0,0.4,0,0.5,0.1c0.2,0.1,0.3,0.2,0.3,0.3c0.1,0.1,0.1,0.3,0.1,0.4h-0.4c0-0.2-0.1-0.3-0.2-0.4
			c-0.1-0.1-0.3-0.1-0.5-0.1c-0.2,0-0.3,0-0.4,0.1c-0.1,0.1-0.2,0.2-0.2,0.3c0,0.1,0,0.2,0.1,0.3c0.1,0.1,0.3,0.2,0.5,0.2
			c0.2,0.1,0.4,0.1,0.5,0.2c0.1,0.1,0.2,0.2,0.3,0.3c0.1,0.1,0.1,0.2,0.1,0.4c0,0.2-0.1,0.4-0.3,0.5c-0.2,0.1-0.4,0.2-0.7,0.2
			c-0.2,0-0.4,0-0.5-0.1c-0.2-0.1-0.3-0.2-0.4-0.3c-0.1-0.1-0.1-0.3-0.1-0.4h0.4c0,0.2,0.1,0.3,0.2,0.4c0.1,0.1,0.3,0.1,0.5,0.1
			c0.2,0,0.3,0,0.4-0.1c0.1-0.1,0.2-0.2,0.2-0.3s0-0.2-0.1-0.3C72.9,116.5,72.7,116.4,72.4,116.3z"/>
		<path class="st5" d="M74.7,117.3c0.1,0,0.2,0,0.3-0.1c0.1-0.1,0.1-0.2,0.2-0.3h0.3c0,0.1,0,0.2-0.1,0.3c-0.1,0.1-0.2,0.2-0.3,0.3
			c-0.1,0.1-0.3,0.1-0.4,0.1c-0.3,0-0.5-0.1-0.7-0.3c-0.2-0.2-0.2-0.4-0.2-0.8v-0.1c0-0.2,0-0.4,0.1-0.5c0.1-0.2,0.2-0.3,0.3-0.4
			c0.1-0.1,0.3-0.1,0.5-0.1c0.2,0,0.4,0.1,0.6,0.2c0.2,0.1,0.2,0.3,0.2,0.5h-0.3c0-0.1-0.1-0.2-0.2-0.3c-0.1-0.1-0.2-0.1-0.3-0.1
			c-0.2,0-0.3,0.1-0.4,0.2c-0.1,0.1-0.1,0.3-0.1,0.6v0.1c0,0.2,0,0.4,0.1,0.6C74.4,117.3,74.6,117.3,74.7,117.3z"/>
		<path class="st5" d="M77,115.8c-0.1,0-0.1,0-0.2,0c-0.2,0-0.4,0.1-0.5,0.3v1.5H76v-2.1h0.3l0,0.2c0.1-0.2,0.3-0.3,0.5-0.3
			c0.1,0,0.1,0,0.2,0V115.8z"/>
		<path class="st5" d="M78.5,117.6c0,0,0-0.1,0-0.2c-0.2,0.2-0.4,0.3-0.6,0.3c-0.2,0-0.4-0.1-0.5-0.2c-0.1-0.1-0.2-0.3-0.2-0.4
			c0-0.2,0.1-0.4,0.2-0.5c0.2-0.1,0.4-0.2,0.7-0.2h0.3v-0.2c0-0.1,0-0.2-0.1-0.3c-0.1-0.1-0.2-0.1-0.3-0.1c-0.1,0-0.2,0-0.3,0.1
			c-0.1,0.1-0.1,0.1-0.1,0.2h-0.4c0-0.1,0-0.2,0.1-0.3c0.1-0.1,0.2-0.2,0.3-0.2c0.1-0.1,0.3-0.1,0.4-0.1c0.2,0,0.4,0.1,0.6,0.2
			c0.1,0.1,0.2,0.3,0.2,0.5v1c0,0.2,0,0.3,0.1,0.5v0H78.5z M77.9,117.3c0.1,0,0.2,0,0.3-0.1c0.1-0.1,0.2-0.1,0.2-0.2v-0.4h-0.3
			c-0.4,0-0.7,0.1-0.7,0.4c0,0.1,0,0.2,0.1,0.3C77.7,117.3,77.8,117.3,77.9,117.3z"/>
		<path class="st5" d="M79.7,115.5l0,0.2c0.2-0.2,0.4-0.3,0.6-0.3c0.3,0,0.5,0.1,0.6,0.3c0.1-0.1,0.2-0.2,0.3-0.2
			c0.1-0.1,0.2-0.1,0.4-0.1c0.5,0,0.7,0.2,0.7,0.7v1.4h-0.4v-1.4c0-0.1,0-0.3-0.1-0.3c-0.1-0.1-0.2-0.1-0.3-0.1
			c-0.1,0-0.2,0-0.3,0.1c-0.1,0.1-0.1,0.2-0.2,0.3v1.4h-0.4v-1.4c0-0.3-0.1-0.5-0.4-0.5c-0.2,0-0.4,0.1-0.5,0.3v1.5h-0.4v-2.1H79.7z
			"/>
		<path class="st5" d="M84.6,116.6c0,0.3-0.1,0.6-0.2,0.8c-0.1,0.2-0.3,0.3-0.6,0.3c-0.3,0-0.5-0.1-0.6-0.3l0,0.2h-0.3v-2.9h0.4v1.1
			c0.1-0.2,0.3-0.3,0.6-0.3s0.4,0.1,0.6,0.3C84.5,115.9,84.6,116.2,84.6,116.6L84.6,116.6z M84.2,116.5c0-0.2,0-0.4-0.1-0.6
			c-0.1-0.1-0.2-0.2-0.4-0.2c-0.2,0-0.4,0.1-0.5,0.3v0.9c0.1,0.2,0.3,0.3,0.5,0.3c0.2,0,0.3-0.1,0.4-0.2
			C84.2,117,84.2,116.8,84.2,116.5z"/>
		<path class="st5" d="M85.4,117.6H85v-2.9h0.4V117.6z"/>
		<path class="st5" d="M86.8,117.6c-0.3,0-0.5-0.1-0.7-0.3c-0.2-0.2-0.3-0.4-0.3-0.7v-0.1c0-0.2,0-0.4,0.1-0.6
			c0.1-0.2,0.2-0.3,0.3-0.4c0.1-0.1,0.3-0.1,0.5-0.1c0.3,0,0.5,0.1,0.6,0.3c0.1,0.2,0.2,0.4,0.2,0.8v0.1h-1.4c0,0.2,0.1,0.4,0.2,0.5
			c0.1,0.1,0.3,0.2,0.4,0.2c0.1,0,0.2,0,0.3-0.1c0.1-0.1,0.2-0.1,0.2-0.2l0.2,0.2C87.4,117.5,87.2,117.6,86.8,117.6z M86.8,115.8
			c-0.1,0-0.3,0.1-0.4,0.2c-0.1,0.1-0.2,0.2-0.2,0.4h1v0c0-0.2-0.1-0.3-0.1-0.4C87,115.8,86.9,115.8,86.8,115.8z"/>
		<path class="st5" d="M88,116.5c0-0.3,0.1-0.6,0.2-0.8c0.2-0.2,0.3-0.3,0.6-0.3c0.2,0,0.4,0.1,0.6,0.2v-1.1h0.4v2.9h-0.3l0-0.2
			c-0.1,0.2-0.3,0.3-0.6,0.3c-0.2,0-0.4-0.1-0.6-0.3C88,117.1,88,116.9,88,116.5L88,116.5z M88.3,116.6c0,0.2,0,0.4,0.1,0.6
			c0.1,0.1,0.2,0.2,0.4,0.2c0.2,0,0.4-0.1,0.5-0.3v-1c-0.1-0.2-0.3-0.3-0.5-0.3c-0.2,0-0.3,0.1-0.4,0.2
			C88.4,116.1,88.3,116.3,88.3,116.6z"/>
		<path class="st5" d="M47.7,121.5h-0.9v2.5h-0.4v-2.5h-0.9v-0.3h2.2V121.5z"/>
		<path class="st5" d="M48.6,123.4l0.5-1.6h0.4l-0.8,2.4c-0.1,0.3-0.3,0.5-0.6,0.5l-0.1,0l-0.1,0v-0.3l0.1,0c0.1,0,0.2,0,0.3-0.1
			c0.1,0,0.1-0.1,0.2-0.3l0.1-0.2l-0.7-2.1H48L48.6,123.4z"/>
		<path class="st5" d="M51.5,123c0,0.3-0.1,0.6-0.2,0.8c-0.1,0.2-0.3,0.3-0.6,0.3c-0.3,0-0.5-0.1-0.6-0.2v1h-0.4v-2.9h0.3l0,0.2
			c0.1-0.2,0.3-0.3,0.6-0.3c0.2,0,0.4,0.1,0.6,0.3C51.4,122.3,51.5,122.6,51.5,123L51.5,123z M51.1,122.9c0-0.2,0-0.4-0.1-0.6
			c-0.1-0.1-0.2-0.2-0.4-0.2c-0.2,0-0.4,0.1-0.5,0.3v1c0.1,0.2,0.3,0.3,0.5,0.3c0.2,0,0.3-0.1,0.4-0.2
			C51.1,123.4,51.1,123.2,51.1,122.9z"/>
		<path class="st5" d="M52.8,124c-0.3,0-0.5-0.1-0.7-0.3c-0.2-0.2-0.3-0.4-0.3-0.7v-0.1c0-0.2,0-0.4,0.1-0.6
			c0.1-0.2,0.2-0.3,0.3-0.4c0.1-0.1,0.3-0.1,0.5-0.1c0.3,0,0.5,0.1,0.6,0.3c0.1,0.2,0.2,0.4,0.2,0.8v0.1h-1.4c0,0.2,0.1,0.4,0.2,0.5
			c0.1,0.1,0.3,0.2,0.4,0.2c0.1,0,0.2,0,0.3-0.1c0.1-0.1,0.2-0.1,0.2-0.2l0.2,0.2C53.4,123.9,53.2,124,52.8,124z M52.8,122.1
			c-0.1,0-0.3,0.1-0.4,0.2c-0.1,0.1-0.2,0.2-0.2,0.4h1v0c0-0.2-0.1-0.3-0.1-0.4C53,122.2,52.9,122.1,52.8,122.1z"/>
		<path class="st5" d="M55.9,122.7c-0.3-0.1-0.5-0.2-0.7-0.3c-0.1-0.1-0.2-0.3-0.2-0.5c0-0.2,0.1-0.4,0.3-0.5
			c0.2-0.1,0.4-0.2,0.7-0.2c0.2,0,0.4,0,0.5,0.1c0.2,0.1,0.3,0.2,0.3,0.3c0.1,0.1,0.1,0.3,0.1,0.4h-0.4c0-0.2-0.1-0.3-0.2-0.4
			c-0.1-0.1-0.3-0.1-0.5-0.1c-0.2,0-0.3,0-0.4,0.1c-0.1,0.1-0.2,0.2-0.2,0.3c0,0.1,0,0.2,0.1,0.3c0.1,0.1,0.3,0.2,0.5,0.2
			c0.2,0.1,0.4,0.1,0.5,0.2c0.1,0.1,0.2,0.2,0.3,0.3c0.1,0.1,0.1,0.2,0.1,0.4c0,0.2-0.1,0.4-0.3,0.5c-0.2,0.1-0.4,0.2-0.7,0.2
			c-0.2,0-0.4,0-0.5-0.1c-0.2-0.1-0.3-0.2-0.4-0.3c-0.1-0.1-0.1-0.3-0.1-0.4h0.4c0,0.2,0.1,0.3,0.2,0.4c0.1,0.1,0.3,0.1,0.5,0.1
			c0.2,0,0.3,0,0.4-0.1c0.1-0.1,0.2-0.2,0.2-0.3s0-0.2-0.1-0.3C56.3,122.9,56.1,122.8,55.9,122.7z"/>
		<path class="st5" d="M59.1,123c0,0.3-0.1,0.6-0.2,0.8c-0.1,0.2-0.3,0.3-0.6,0.3c-0.3,0-0.5-0.1-0.6-0.2v1h-0.4v-2.9h0.3l0,0.2
			c0.1-0.2,0.3-0.3,0.6-0.3c0.2,0,0.4,0.1,0.6,0.3C59,122.3,59.1,122.6,59.1,123L59.1,123z M58.7,122.9c0-0.2,0-0.4-0.1-0.6
			c-0.1-0.1-0.2-0.2-0.4-0.2c-0.2,0-0.4,0.1-0.5,0.3v1c0.1,0.2,0.3,0.3,0.5,0.3c0.2,0,0.3-0.1,0.4-0.2
			C58.7,123.4,58.7,123.2,58.7,122.9z"/>
		<path class="st5" d="M60.4,124c-0.3,0-0.5-0.1-0.7-0.3c-0.2-0.2-0.3-0.4-0.3-0.7v-0.1c0-0.2,0-0.4,0.1-0.6
			c0.1-0.2,0.2-0.3,0.3-0.4c0.1-0.1,0.3-0.1,0.5-0.1c0.3,0,0.5,0.1,0.6,0.3c0.1,0.2,0.2,0.4,0.2,0.8v0.1h-1.4c0,0.2,0.1,0.4,0.2,0.5
			c0.1,0.1,0.3,0.2,0.4,0.2c0.1,0,0.2,0,0.3-0.1c0.1-0.1,0.2-0.1,0.2-0.2l0.2,0.2C61,123.9,60.8,124,60.4,124z M60.4,122.1
			c-0.1,0-0.3,0.1-0.4,0.2c-0.1,0.1-0.2,0.2-0.2,0.4h1v0c0-0.2-0.1-0.3-0.1-0.4C60.6,122.2,60.5,122.1,60.4,122.1z"/>
		<path class="st5" d="M62.5,123.7c0.1,0,0.2,0,0.3-0.1c0.1-0.1,0.1-0.2,0.2-0.3h0.3c0,0.1,0,0.2-0.1,0.3c-0.1,0.1-0.2,0.2-0.3,0.3
			c-0.1,0.1-0.3,0.1-0.4,0.1c-0.3,0-0.5-0.1-0.7-0.3c-0.2-0.2-0.2-0.4-0.2-0.8v-0.1c0-0.2,0-0.4,0.1-0.5c0.1-0.2,0.2-0.3,0.3-0.4
			c0.1-0.1,0.3-0.1,0.5-0.1c0.2,0,0.4,0.1,0.6,0.2c0.2,0.1,0.2,0.3,0.2,0.5H63c0-0.1-0.1-0.2-0.2-0.3c-0.1-0.1-0.2-0.1-0.3-0.1
			c-0.2,0-0.3,0.1-0.4,0.2c-0.1,0.1-0.1,0.3-0.1,0.6v0.1c0,0.2,0,0.4,0.1,0.6C62.1,123.7,62.3,123.7,62.5,123.7z"/>
		<path class="st5" d="M64.1,124h-0.4v-2.1h0.4V124z M63.7,121.3c0-0.1,0-0.1,0.1-0.1c0,0,0.1-0.1,0.2-0.1s0.1,0,0.2,0.1
			c0,0,0.1,0.1,0.1,0.1c0,0.1,0,0.1-0.1,0.1c0,0-0.1,0.1-0.2,0.1s-0.1,0-0.2-0.1C63.7,121.4,63.7,121.4,63.7,121.3z"/>
		<path class="st5" d="M65,121.9l0,0.2c0.2-0.2,0.4-0.3,0.6-0.3c0.3,0,0.5,0.1,0.6,0.3c0.1-0.1,0.2-0.2,0.3-0.2
			c0.1-0.1,0.2-0.1,0.4-0.1c0.5,0,0.7,0.2,0.7,0.7v1.4h-0.4v-1.4c0-0.1,0-0.3-0.1-0.3c-0.1-0.1-0.2-0.1-0.3-0.1
			c-0.1,0-0.2,0-0.3,0.1c-0.1,0.1-0.1,0.2-0.2,0.3v1.4h-0.4v-1.4c0-0.3-0.1-0.5-0.4-0.5c-0.2,0-0.4,0.1-0.5,0.3v1.5h-0.4v-2.1H65z"
			/>
		<path class="st5" d="M69,124c-0.3,0-0.5-0.1-0.7-0.3c-0.2-0.2-0.3-0.4-0.3-0.7v-0.1c0-0.2,0-0.4,0.1-0.6c0.1-0.2,0.2-0.3,0.3-0.4
			c0.1-0.1,0.3-0.1,0.5-0.1c0.3,0,0.5,0.1,0.6,0.3c0.1,0.2,0.2,0.4,0.2,0.8v0.1h-1.4c0,0.2,0.1,0.4,0.2,0.5c0.1,0.1,0.3,0.2,0.4,0.2
			c0.1,0,0.2,0,0.3-0.1c0.1-0.1,0.2-0.1,0.2-0.2l0.2,0.2C69.6,123.9,69.3,124,69,124z M68.9,122.1c-0.1,0-0.3,0.1-0.4,0.2
			c-0.1,0.1-0.2,0.2-0.2,0.4h1v0c0-0.2-0.1-0.3-0.1-0.4C69.2,122.2,69.1,122.1,68.9,122.1z"/>
		<path class="st5" d="M70.5,121.9l0,0.3c0.2-0.2,0.4-0.3,0.6-0.3c0.4,0,0.7,0.2,0.7,0.7v1.4h-0.4v-1.4c0-0.2,0-0.3-0.1-0.3
			c-0.1-0.1-0.2-0.1-0.3-0.1c-0.1,0-0.2,0-0.3,0.1c-0.1,0.1-0.2,0.1-0.2,0.2v1.5h-0.4v-2.1H70.5z"/>
		<path class="st5" d="M73.4,124v-2.8h0.9c0.3,0,0.5,0.1,0.7,0.2c0.2,0.1,0.2,0.3,0.2,0.6c0,0.1,0,0.2-0.1,0.3
			c-0.1,0.1-0.2,0.2-0.3,0.2c0.2,0,0.3,0.1,0.4,0.2c0.1,0.1,0.1,0.3,0.1,0.4c0,0.3-0.1,0.4-0.2,0.6c-0.2,0.1-0.4,0.2-0.7,0.2H73.4z
			 M73.7,122.7v1h0.6c0.2,0,0.3,0,0.4-0.1c0.1-0.1,0.1-0.2,0.1-0.4c0-0.3-0.2-0.5-0.5-0.5H73.7z M73.7,122.4h0.6
			c0.2,0,0.3,0,0.4-0.1c0.1-0.1,0.1-0.2,0.1-0.3c0-0.2,0-0.3-0.1-0.3c-0.1-0.1-0.2-0.1-0.4-0.1h-0.5V122.4z"/>
		<path class="st5" d="M75.7,122.9c0-0.2,0-0.4,0.1-0.5c0.1-0.2,0.2-0.3,0.3-0.4c0.1-0.1,0.3-0.1,0.5-0.1c0.3,0,0.5,0.1,0.7,0.3
			c0.2,0.2,0.3,0.5,0.3,0.8v0c0,0.2,0,0.4-0.1,0.5c-0.1,0.2-0.2,0.3-0.3,0.4c-0.1,0.1-0.3,0.1-0.5,0.1c-0.3,0-0.5-0.1-0.7-0.3
			C75.8,123.5,75.7,123.3,75.7,122.9L75.7,122.9z M76,123c0,0.2,0.1,0.4,0.2,0.6c0.1,0.1,0.3,0.2,0.4,0.2c0.2,0,0.3-0.1,0.4-0.2
			c0.1-0.1,0.2-0.3,0.2-0.6c0-0.2-0.1-0.4-0.2-0.6c-0.1-0.1-0.3-0.2-0.4-0.2c-0.2,0-0.3,0.1-0.4,0.2S76,122.7,76,123z"/>
		<path class="st5" d="M77.9,122.9c0-0.2,0-0.4,0.1-0.5c0.1-0.2,0.2-0.3,0.3-0.4c0.1-0.1,0.3-0.1,0.5-0.1c0.3,0,0.5,0.1,0.7,0.3
			c0.2,0.2,0.3,0.5,0.3,0.8v0c0,0.2,0,0.4-0.1,0.5c-0.1,0.2-0.2,0.3-0.3,0.4c-0.1,0.1-0.3,0.1-0.5,0.1c-0.3,0-0.5-0.1-0.7-0.3
			C78,123.5,77.9,123.3,77.9,122.9L77.9,122.9z M78.3,123c0,0.2,0.1,0.4,0.2,0.6c0.1,0.1,0.3,0.2,0.4,0.2c0.2,0,0.3-0.1,0.4-0.2
			c0.1-0.1,0.2-0.3,0.2-0.6c0-0.2-0.1-0.4-0.2-0.6c-0.1-0.1-0.3-0.2-0.4-0.2c-0.2,0-0.3,0.1-0.4,0.2C78.3,122.5,78.3,122.7,78.3,123
			z"/>
		<path class="st5" d="M80.8,123l-0.2,0.2v0.7h-0.4V121h0.4v1.8l0.2-0.2l0.6-0.7h0.4l-0.8,0.9L82,124h-0.4L80.8,123z"/>
		<path class="st5" d="M82.3,123.8c0-0.1,0-0.1,0.1-0.2c0,0,0.1-0.1,0.2-0.1s0.1,0,0.2,0.1c0,0,0.1,0.1,0.1,0.2c0,0.1,0,0.1-0.1,0.1
			c0,0-0.1,0.1-0.2,0.1s-0.1,0-0.2-0.1C82.3,123.9,82.3,123.8,82.3,123.8z"/>
		<path d="M44,101.4h0.8v-3.8H44V101.4z"/>
		<path d="M45.3,99.9c0,0.9,0.6,1.6,1.4,1.6c0.5,0,0.8-0.2,1-0.5v0.4h0.8v-4h-0.8v1.4c-0.2-0.3-0.6-0.5-1-0.5
			C45.9,98.3,45.3,98.9,45.3,99.9z M47.6,99.9c0,0.6-0.4,0.9-0.8,0.9c-0.4,0-0.8-0.3-0.8-0.9c0-0.6,0.4-0.9,0.8-0.9
			C47.2,99,47.6,99.3,47.6,99.9z"/>
		<path d="M50.4,99c0.4,0,0.7,0.2,0.7,0.6h-1.4C49.8,99.2,50,99,50.4,99z M51.8,100.4H51c-0.1,0.2-0.3,0.4-0.6,0.4
			c-0.4,0-0.7-0.2-0.7-0.7h2.2c0-0.1,0-0.2,0-0.3c0-0.9-0.6-1.5-1.5-1.5c-0.9,0-1.5,0.6-1.5,1.5c0,0.9,0.6,1.5,1.5,1.5
			C51.2,101.4,51.7,101,51.8,100.4z"/>
		<path d="M52.3,99.9c0,0.9,0.6,1.6,1.4,1.6c0.5,0,0.8-0.2,1-0.5v0.4h0.8v-3h-0.8v0.4c-0.2-0.2-0.5-0.5-1-0.5
			C52.9,98.3,52.3,98.9,52.3,99.9z M54.6,99.9c0,0.6-0.4,0.9-0.8,0.9c-0.4,0-0.8-0.3-0.8-0.9c0-0.6,0.4-0.9,0.8-0.9
			C54.2,99,54.6,99.3,54.6,99.9z"/>
		<path d="M59.1,97.6c-1.1,0-1.9,0.8-1.9,1.9c0,1.1,0.8,1.9,1.9,1.9c1,0,1.7-0.7,1.8-1.5v-0.7h-2v0.6h1.3c-0.1,0.5-0.5,0.9-1.1,0.9
			c-0.7,0-1.2-0.5-1.2-1.2c0-0.8,0.5-1.2,1.1-1.2c0.4,0,0.7,0.2,0.9,0.5h0.9C60.7,98,60,97.6,59.1,97.6z"/>
		<path d="M62.8,99c0.4,0,0.7,0.2,0.7,0.6h-1.4C62.2,99.2,62.5,99,62.8,99z M64.3,100.4h-0.8c-0.1,0.2-0.3,0.4-0.6,0.4
			c-0.4,0-0.7-0.2-0.7-0.7h2.2c0-0.1,0-0.2,0-0.3c0-0.9-0.6-1.5-1.5-1.5c-0.9,0-1.5,0.6-1.5,1.5c0,0.9,0.6,1.5,1.5,1.5
			C63.6,101.4,64.1,101,64.3,100.4z"/>
		<path d="M67,101.4h0.8v-1.8c0-0.8-0.5-1.3-1.2-1.3c-0.4,0-0.7,0.2-0.9,0.4v-0.4h-0.8v3h0.8v-1.7c0-0.5,0.3-0.7,0.7-0.7
			c0.4,0,0.7,0.3,0.7,0.7V101.4z"/>
		<path d="M69.7,99c0.4,0,0.7,0.2,0.7,0.6H69C69.1,99.2,69.4,99,69.7,99z M71.2,100.4h-0.8c-0.1,0.2-0.3,0.4-0.6,0.4
			c-0.4,0-0.7-0.2-0.7-0.7h2.2c0-0.1,0-0.2,0-0.3c0-0.9-0.6-1.5-1.5-1.5c-0.9,0-1.5,0.6-1.5,1.5c0,0.9,0.6,1.5,1.5,1.5
			C70.5,101.4,71,101,71.2,100.4z"/>
		<path d="M72.5,99.9c0-0.6,0.3-0.8,0.7-0.8h0.2v-0.8c-0.4,0-0.7,0.2-0.9,0.5v-0.5h-0.8v3h0.8V99.9z"/>
		<path d="M73.8,99.9c0,0.9,0.6,1.6,1.4,1.6c0.5,0,0.8-0.2,1-0.5v0.4h0.8v-3h-0.8v0.4c-0.2-0.2-0.5-0.5-1-0.5
			C74.4,98.3,73.8,98.9,73.8,99.9z M76.1,99.9c0,0.6-0.4,0.9-0.8,0.9c-0.4,0-0.8-0.3-0.8-0.9c0-0.6,0.4-0.9,0.8-0.9
			C75.8,99,76.1,99.3,76.1,99.9z"/>
		<path d="M77.8,100.4c0,0.7,0.4,0.9,1,0.9h0.5v-0.6h-0.4c-0.2,0-0.3-0.1-0.3-0.3V99h0.7v-0.6h-0.7v-0.7h-0.8v0.7h-0.4V99h0.4V100.4
			z"/>
		<path d="M82.6,99.9c0-0.9-0.7-1.5-1.5-1.5c-0.9,0-1.5,0.6-1.5,1.5c0,0.9,0.7,1.5,1.5,1.5C81.9,101.4,82.6,100.8,82.6,99.9z
			 M80.3,99.9c0-0.6,0.4-0.9,0.8-0.9c0.4,0,0.8,0.3,0.8,0.9c0,0.6-0.4,0.9-0.8,0.9C80.7,100.8,80.3,100.5,80.3,99.9z"/>
		<path d="M83.9,99.9c0-0.6,0.3-0.8,0.7-0.8h0.2v-0.8c-0.4,0-0.7,0.2-0.9,0.5v-0.5h-0.8v3h0.8V99.9z"/>
		<g>
			
				<linearGradient id="SVGID_5_" gradientUnits="userSpaceOnUse" x1="64.1579" y1="98" x2="64.1579" y2="73.6842" gradientTransform="matrix(1 0 0 -1 0 162)">
				<stop  offset="0" style="stop-color:#E03760"/>
				<stop  offset="1" style="stop-color:#6E3EF8"/>
			</linearGradient>
			<path class="st10" d="M76.3,76.2c0,6.7-5.4,12.2-12.2,12.2S52,82.9,52,76.2S57.4,64,64.2,64S76.3,69.4,76.3,76.2z"/>
		</g>
		<path class="st2" d="M60.9,71l-0.6,0.6l0.8,0.9l0.6-0.6L60.9,71L60.9,71z M68.4,71l-0.8,0.9l0.6,0.6l0.8-0.9L68.4,71L68.4,71z
			 M64.6,71.3c-0.1,0-0.3,0-0.4,0c0,0,0,0,0,0c-1.6,0.2-2.9,1.5-3.2,3.2c-0.2,1.3,0.4,2.6,1.3,3.4c0.4,0.3,0.6,0.8,0.7,1.3v2.5H64
			c0.1,0.2,0.4,0.4,0.7,0.4s0.6-0.2,0.7-0.4h0.9v-1.7h0v-0.5c0-0.6,0.3-1.2,0.8-1.7c0.7-0.7,1.2-1.7,1.2-2.8
			C68.3,72.9,66.6,71.2,64.6,71.3L64.6,71.3z M64.6,72.1c1.6,0,2.8,1.3,2.8,2.9c0,0.9-0.4,1.6-0.9,2.2l0,0c-0.5,0.5-0.9,1.2-1,1.9
			h-1.8c-0.1-0.7-0.4-1.4-0.9-1.9c-0.7-0.6-1.1-1.6-1-2.6c0.2-1.3,1.2-2.4,2.5-2.5C64.4,72.1,64.5,72.1,64.6,72.1L64.6,72.1z M59,75
			v0.8h1.2V75H59z M69.1,75v0.8h1.2V75H69.1z M61.2,78.3l-0.8,0.9l0.6,0.6l0.8-0.9L61.2,78.3z M68.1,78.3l-0.6,0.6l0.8,0.9l0.6-0.6
			L68.1,78.3z M63.8,79.9h1.6v0.8h-1.6V79.9z"/>
		<path d="M87.7,17.6c-1.5,0-2.6,1.1-2.6,2.6c0,1.5,1.1,2.6,2.6,2.6c1.4,0,2.3-1,2.5-2v-0.9h-2.8v0.8h1.8c-0.2,0.7-0.7,1.2-1.5,1.2
			c-1,0-1.6-0.6-1.6-1.7c0-1,0.6-1.7,1.6-1.7c0.5,0,1,0.2,1.2,0.7h1.2C89.8,18.1,88.9,17.6,87.7,17.6z"/>
		<path d="M92.8,19.5c0.5,0,1,0.3,1,0.9h-1.9C91.9,19.8,92.3,19.5,92.8,19.5z M94.7,21.5h-1.1c-0.1,0.3-0.4,0.5-0.8,0.5
			c-0.5,0-0.9-0.3-1-0.9h3c0-0.1,0-0.3,0-0.4c0-1.2-0.8-2-2-2c-1.2,0-2,0.8-2,2.1c0,1.3,0.9,2.1,2,2.1
			C93.8,22.8,94.5,22.2,94.7,21.5z"/>
		<path d="M98.4,22.8h1v-2.4c0-1.1-0.7-1.7-1.6-1.7c-0.5,0-1,0.2-1.2,0.6v-0.5h-1v4.1h1v-2.3c0-0.7,0.4-1,0.9-1c0.5,0,0.9,0.4,0.9,1
			V22.8z"/>
		<path d="M102.2,19.5c0.5,0,1,0.3,1,0.9h-1.9C101.3,19.8,101.7,19.5,102.2,19.5z M104.1,21.5H103c-0.1,0.3-0.4,0.5-0.8,0.5
			c-0.5,0-0.9-0.3-1-0.9h3c0-0.1,0-0.3,0-0.4c0-1.2-0.8-2-2-2c-1.2,0-2,0.8-2,2.1c0,1.3,0.9,2.1,2,2.1
			C103.2,22.8,103.9,22.2,104.1,21.5z"/>
		<path d="M106,20.7c0-0.8,0.4-1,1-1h0.3v-1.1c-0.6,0-1,0.3-1.3,0.7v-0.6h-1v4.1h1V20.7z"/>
		<path d="M107.7,20.7c0,1.3,0.8,2.1,1.9,2.1c0.6,0,1.1-0.3,1.4-0.7v0.6h1v-4.1h-1v0.6c-0.2-0.3-0.7-0.6-1.3-0.6
			C108.5,18.6,107.7,19.4,107.7,20.7z M110.9,20.7c0,0.8-0.5,1.2-1.1,1.2c-0.6,0-1.1-0.4-1.1-1.2c0-0.8,0.5-1.2,1.1-1.2
			C110.4,19.5,110.9,20,110.9,20.7z"/>
		<path d="M113,22.8h1v-5.5h-1V22.8z"/>
		<path d="M116.8,22.8h1v-2.2h1.6v-0.8h-1.6v-1.3h2.1v-0.8h-3.2V22.8z"/>
		<path d="M120.7,22.8h1v-5.5h-1V22.8z"/>
		<path d="M122.7,22.8h1v-4.1h-1V22.8z M123.3,18.2c0.4,0,0.6-0.3,0.6-0.6c0-0.3-0.3-0.6-0.6-0.6c-0.4,0-0.6,0.3-0.6,0.6
			C122.6,17.9,122.9,18.2,123.3,18.2z"/>
		<path d="M125.8,19.3v-0.6h-1v6h1v-2.5c0.3,0.3,0.7,0.6,1.3,0.6c1,0,1.9-0.8,1.9-2.1c0-1.3-0.8-2.1-1.9-2.1
			C126.5,18.6,126.1,18.9,125.8,19.3z M128,20.7c0,0.8-0.5,1.2-1.1,1.2c-0.6,0-1.1-0.4-1.1-1.2s0.5-1.2,1.1-1.2
			C127.4,19.5,128,19.9,128,20.7z"/>
		<path d="M130.8,19.3v-0.6h-1v6h1v-2.5c0.2,0.3,0.7,0.6,1.3,0.6c1,0,1.9-0.8,1.9-2.1c0-1.3-0.8-2.1-1.9-2.1
			C131.5,18.6,131,18.9,130.8,19.3z M133,20.7c0,0.8-0.5,1.2-1.1,1.2c-0.6,0-1.1-0.4-1.1-1.2s0.5-1.2,1.1-1.2
			C132.4,19.5,133,19.9,133,20.7z"/>
		<path d="M134.8,22.8h1v-4.1h-1V22.8z M135.3,18.2c0.4,0,0.6-0.3,0.6-0.6c0-0.3-0.3-0.6-0.6-0.6c-0.4,0-0.6,0.3-0.6,0.6
			C134.7,17.9,134.9,18.2,135.3,18.2z"/>
		<path d="M139.7,22.8h1v-2.4c0-1.1-0.7-1.7-1.6-1.7c-0.5,0-1,0.2-1.2,0.6v-0.5h-1v4.1h1v-2.3c0-0.7,0.4-1,0.9-1
			c0.5,0,0.9,0.4,0.9,1V22.8z"/>
		<path d="M141.4,20.7c0,1.3,0.8,2.1,1.9,2.1c0.6,0,1.1-0.3,1.3-0.7v0.6c0,0.8-0.4,1.1-1,1.1c-0.5,0-0.9-0.2-1-0.6h-1
			c0.1,0.9,0.9,1.5,2.1,1.5c1.3,0,2-0.9,2-2v-4.1h-1v0.6c-0.2-0.4-0.7-0.6-1.3-0.6C142.2,18.6,141.4,19.4,141.4,20.7z M144.6,20.7
			c0,0.8-0.5,1.2-1.1,1.2c-0.6,0-1.1-0.4-1.1-1.2c0-0.8,0.5-1.2,1.1-1.2C144.1,19.5,144.6,20,144.6,20.7z"/>
		<path d="M148.2,20.2c0,1.5,1.1,2.6,2.6,2.6c1.1,0,2.1-0.6,2.4-1.7H152c-0.2,0.5-0.7,0.7-1.2,0.7c-0.9,0-1.5-0.7-1.5-1.7
			c0-1,0.6-1.7,1.5-1.7c0.6,0,1,0.2,1.2,0.7h1.2c-0.3-1.1-1.3-1.7-2.4-1.7C149.3,17.6,148.2,18.7,148.2,20.2z"/>
		<path d="M153.8,20.7c0,1.3,0.8,2.1,1.9,2.1c0.6,0,1.1-0.3,1.4-0.7v0.6h1v-4.1h-1v0.6c-0.2-0.3-0.7-0.6-1.3-0.6
			C154.7,18.6,153.8,19.4,153.8,20.7z M157,20.7c0,0.8-0.5,1.2-1.1,1.2c-0.6,0-1.1-0.4-1.1-1.2c0-0.8,0.5-1.2,1.1-1.2
			C156.5,19.5,157,20,157,20.7z"/>
		<path d="M160.1,20.7c0-0.8,0.4-1,1-1h0.3v-1.1c-0.6,0-1,0.3-1.3,0.7v-0.6h-1v4.1h1V20.7z"/>
		<path d="M161.8,20.7c0,1.3,0.8,2.1,1.9,2.1c0.6,0,1.1-0.3,1.3-0.7v0.6h1v-5.5h-1v1.9c-0.3-0.4-0.8-0.6-1.3-0.6
			C162.6,18.6,161.8,19.4,161.8,20.7z M165,20.7c0,0.8-0.5,1.2-1.1,1.2c-0.6,0-1.1-0.4-1.1-1.2c0-0.8,0.5-1.2,1.1-1.2
			C164.5,19.5,165,20,165,20.7z"/>
		<path d="M170.2,21.6c0-1.5-2.3-1-2.3-1.8c0-0.2,0.2-0.4,0.6-0.4c0.4,0,0.7,0.2,0.7,0.5h1c-0.1-0.8-0.7-1.3-1.6-1.3
			c-1,0-1.6,0.5-1.6,1.2c0,1.5,2.3,1,2.3,1.8c0,0.2-0.2,0.4-0.6,0.4c-0.4,0-0.7-0.2-0.7-0.5h-1c0,0.8,0.8,1.4,1.8,1.4
			C169.6,22.8,170.2,22.3,170.2,21.6z"/>
		<path d="M176.1,22.8h1v-5.1h-1v2.1h-2.2v-2.1h-1v5.1h1v-2.2h2.2V22.8z"/>
		<path d="M182.1,20.7c0-1.3-0.9-2.1-2.1-2.1s-2.1,0.8-2.1,2.1c0,1.3,0.9,2.1,2.1,2.1C181.1,22.8,182.1,22,182.1,20.7z M178.9,20.7
			c0-0.8,0.5-1.2,1-1.2c0.5,0,1.1,0.4,1.1,1.2c0,0.8-0.5,1.2-1.1,1.2C179.4,21.9,178.9,21.5,178.9,20.7z"/>
		<path d="M182.4,18.7l1.5,4.1h1.3l1.5-4.1h-1.1l-1,3.1l-1-3.1H182.4z"/>
		<path d="M189,19.5c0.5,0,1,0.3,1,0.9H188C188.1,19.8,188.5,19.5,189,19.5z M190.9,21.5h-1.1c-0.1,0.3-0.4,0.5-0.8,0.5
			c-0.5,0-0.9-0.3-1-0.9h3c0-0.1,0-0.3,0-0.4c0-1.2-0.8-2-2-2c-1.2,0-2,0.8-2,2.1c0,1.3,0.9,2.1,2,2.1
			C190,22.8,190.7,22.2,190.9,21.5z"/>
		<path d="M192.8,20.7c0-0.8,0.4-1,1-1h0.3v-1.1c-0.6,0-1,0.3-1.3,0.7v-0.6h-1v4.1h1V20.7z"/>
		<path d="M200,22.8h1.1l-1.9-5.2H198l-1.8,5.2h1.1l0.3-1h2L200,22.8z M199.4,21h-1.5l0.7-2.2L199.4,21z"/>
		<path d="M204.6,22.8h1v-2.4c0-1.1-0.7-1.7-1.6-1.7c-0.5,0-1,0.2-1.2,0.6v-0.5h-1v4.1h1v-2.3c0-0.7,0.4-1,0.9-1
			c0.5,0,0.9,0.4,0.9,1V22.8z"/>
		<path d="M206.7,22.8h1v-4.1h-1V22.8z M207.2,18.2c0.4,0,0.6-0.3,0.6-0.6c0-0.3-0.3-0.6-0.6-0.6c-0.4,0-0.6,0.3-0.6,0.6
			C206.5,17.9,206.8,18.2,207.2,18.2z"/>
		<path d="M214.4,22.8h1v-2.4c0-1.1-0.7-1.7-1.7-1.7c-0.6,0-1.1,0.3-1.4,0.8c-0.3-0.5-0.8-0.8-1.4-0.8c-0.5,0-0.9,0.2-1.2,0.6v-0.5
			h-1v4.1h1v-2.3c0-0.6,0.4-1,0.9-1c0.5,0,0.9,0.3,0.9,1v2.3h1v-2.3c0-0.6,0.4-1,0.9-1c0.5,0,0.9,0.3,0.9,1V22.8z"/>
		<path d="M216.2,20.7c0,1.3,0.8,2.1,1.9,2.1c0.6,0,1.1-0.3,1.4-0.7v0.6h1v-4.1h-1v0.6c-0.2-0.3-0.7-0.6-1.3-0.6
			C217,18.6,216.2,19.4,216.2,20.7z M219.4,20.7c0,0.8-0.5,1.2-1.1,1.2c-0.6,0-1.1-0.4-1.1-1.2c0-0.8,0.5-1.2,1.1-1.2
			C218.9,19.5,219.4,20,219.4,20.7z"/>
		<path d="M221.6,21.5c0,0.9,0.5,1.3,1.3,1.3h0.6v-0.9h-0.5c-0.3,0-0.4-0.1-0.4-0.4v-2h0.9v-0.8h-0.9v-1h-1v1h-0.5v0.8h0.5V21.5z"/>
		<path d="M224.3,22.8h1v-4.1h-1V22.8z M224.8,18.2c0.4,0,0.6-0.3,0.6-0.6c0-0.3-0.3-0.6-0.6-0.6c-0.4,0-0.6,0.3-0.6,0.6
			C224.2,17.9,224.4,18.2,224.8,18.2z"/>
		<path d="M230.3,20.7c0-1.3-0.9-2.1-2.1-2.1c-1.2,0-2.1,0.8-2.1,2.1c0,1.3,0.9,2.1,2.1,2.1C229.3,22.8,230.3,22,230.3,20.7z
			 M227.1,20.7c0-0.8,0.5-1.2,1-1.2c0.5,0,1.1,0.4,1.1,1.2c0,0.8-0.5,1.2-1.1,1.2C227.6,21.9,227.1,21.5,227.1,20.7z"/>
		<path d="M233.9,22.8h1v-2.4c0-1.1-0.7-1.7-1.6-1.7c-0.5,0-1,0.2-1.2,0.6v-0.5h-1v4.1h1v-2.3c0-0.7,0.4-1,0.9-1
			c0.5,0,0.9,0.4,0.9,1V22.8z"/>
		<path class="st5" d="M105,32.2l0.1,0.4l0.1-0.3l0.6-1.9h0.3l0.5,1.9l0.1,0.3l0.1-0.4l0.4-1.9h0.4l-0.7,2.8h-0.3l-0.6-2l0-0.2
			l0,0.2l-0.6,2h-0.3l-0.7-2.8h0.4L105,32.2z"/>
		<path class="st5" d="M108.2,31.3c0.2-0.2,0.4-0.3,0.6-0.3c0.4,0,0.7,0.2,0.7,0.7v1.4h-0.4v-1.4c0-0.1,0-0.3-0.1-0.3
			c-0.1-0.1-0.2-0.1-0.3-0.1c-0.1,0-0.2,0-0.3,0.1c-0.1,0.1-0.2,0.1-0.2,0.2v1.5h-0.4v-2.9h0.4V31.3z"/>
		<path class="st5" d="M110.9,33.1c-0.3,0-0.5-0.1-0.7-0.3c-0.2-0.2-0.3-0.4-0.3-0.7V32c0-0.2,0-0.4,0.1-0.6
			c0.1-0.2,0.2-0.3,0.3-0.4c0.1-0.1,0.3-0.1,0.5-0.1c0.3,0,0.5,0.1,0.6,0.3c0.1,0.2,0.2,0.4,0.2,0.8v0.1h-1.4c0,0.2,0.1,0.4,0.2,0.5
			c0.1,0.1,0.3,0.2,0.4,0.2c0.1,0,0.2,0,0.3-0.1c0.1-0.1,0.2-0.1,0.2-0.2l0.2,0.2C111.5,33,111.2,33.1,110.9,33.1z M110.9,31.3
			c-0.1,0-0.3,0.1-0.4,0.2c-0.1,0.1-0.2,0.2-0.2,0.4h1v0c0-0.2-0.1-0.3-0.1-0.4C111.1,31.3,111,31.3,110.9,31.3z"/>
		<path class="st5" d="M112.5,31l0,0.3c0.2-0.2,0.4-0.3,0.6-0.3c0.4,0,0.7,0.2,0.7,0.7v1.4h-0.4v-1.4c0-0.1,0-0.3-0.1-0.3
			c-0.1-0.1-0.2-0.1-0.3-0.1c-0.1,0-0.2,0-0.3,0.1c-0.1,0.1-0.2,0.1-0.2,0.2v1.5h-0.4V31H112.5z"/>
		<path class="st5" d="M116.9,32.4h-1.2l-0.3,0.7H115l1.1-2.8h0.3l1.1,2.8h-0.4L116.9,32.4z M115.8,32.1h0.9l-0.5-1.3L115.8,32.1z"
			/>
		<path class="st5" d="M118.2,31l0,0.3c0.2-0.2,0.4-0.3,0.6-0.3c0.4,0,0.7,0.2,0.7,0.7v1.4h-0.4v-1.4c0-0.1,0-0.3-0.1-0.3
			c-0.1-0.1-0.2-0.1-0.3-0.1c-0.1,0-0.2,0-0.3,0.1c-0.1,0.1-0.2,0.1-0.2,0.2v1.5h-0.4V31H118.2z"/>
		<path class="st5" d="M123,30.3v1.9c0,0.3-0.1,0.5-0.2,0.6c-0.2,0.2-0.4,0.3-0.7,0.3l-0.1,0c-0.3,0-0.5-0.1-0.7-0.2
			c-0.2-0.2-0.3-0.4-0.3-0.7v-1.9h0.4v1.9c0,0.2,0.1,0.4,0.2,0.5c0.1,0.1,0.3,0.2,0.5,0.2c0.2,0,0.4-0.1,0.5-0.2
			c0.1-0.1,0.2-0.3,0.2-0.5v-1.9H123z"/>
		<path class="st5" d="M123.9,31l0,0.3c0.2-0.2,0.4-0.3,0.6-0.3c0.4,0,0.7,0.2,0.7,0.7v1.4h-0.4v-1.4c0-0.1,0-0.3-0.1-0.3
			c-0.1-0.1-0.2-0.1-0.3-0.1c-0.1,0-0.2,0-0.3,0.1c-0.1,0.1-0.2,0.1-0.2,0.2v1.5h-0.4V31H123.9z"/>
		<path class="st5" d="M126.3,32.1l-0.2,0.2v0.7h-0.4v-2.9h0.4v1.8l0.2-0.2l0.6-0.7h0.4l-0.8,0.9l0.9,1.2H127L126.3,32.1z"/>
		<path class="st5" d="M128,31l0,0.3c0.2-0.2,0.4-0.3,0.6-0.3c0.4,0,0.7,0.2,0.7,0.7v1.4H129v-1.4c0-0.1,0-0.3-0.1-0.3
			c-0.1-0.1-0.2-0.1-0.3-0.1c-0.1,0-0.2,0-0.3,0.1c-0.1,0.1-0.2,0.1-0.2,0.2v1.5h-0.4V31H128z"/>
		<path class="st5" d="M129.8,32c0-0.2,0-0.4,0.1-0.5c0.1-0.2,0.2-0.3,0.3-0.4c0.1-0.1,0.3-0.1,0.5-0.1c0.3,0,0.5,0.1,0.7,0.3
			c0.2,0.2,0.3,0.5,0.3,0.8v0c0,0.2,0,0.4-0.1,0.5c-0.1,0.2-0.2,0.3-0.3,0.4c-0.1,0.1-0.3,0.1-0.5,0.1c-0.3,0-0.5-0.1-0.7-0.3
			C129.8,32.6,129.8,32.4,129.8,32L129.8,32z M130.1,32.1c0,0.2,0.1,0.4,0.2,0.6c0.1,0.1,0.3,0.2,0.4,0.2c0.2,0,0.3-0.1,0.4-0.2
			c0.1-0.1,0.2-0.3,0.2-0.6c0-0.2-0.1-0.4-0.2-0.6c-0.1-0.1-0.3-0.2-0.4-0.2c-0.2,0-0.3,0.1-0.4,0.2
			C130.2,31.6,130.1,31.8,130.1,32.1z"/>
		<path class="st5" d="M133.9,32.6l0.4-1.6h0.4l-0.6,2.1h-0.3l-0.5-1.6l-0.5,1.6h-0.3l-0.6-2.1h0.4l0.4,1.6l0.5-1.6h0.3L133.9,32.6z
			"/>
		<path class="st5" d="M135.4,31l0,0.3c0.2-0.2,0.4-0.3,0.6-0.3c0.4,0,0.7,0.2,0.7,0.7v1.4h-0.4v-1.4c0-0.1,0-0.3-0.1-0.3
			c-0.1-0.1-0.2-0.1-0.3-0.1c-0.1,0-0.2,0-0.3,0.1c-0.1,0.1-0.2,0.1-0.2,0.2v1.5H135V31H135.4z"/>
		<path class="st5" d="M138.6,32v1.1h-0.4v-2.8h1c0.3,0,0.5,0.1,0.7,0.2c0.2,0.2,0.3,0.4,0.3,0.6c0,0.3-0.1,0.5-0.3,0.6
			c-0.2,0.1-0.4,0.2-0.7,0.2H138.6z M138.6,31.7h0.7c0.2,0,0.3,0,0.5-0.1c0.1-0.1,0.2-0.2,0.2-0.4c0-0.2-0.1-0.3-0.2-0.4
			c-0.1-0.1-0.2-0.2-0.4-0.2h-0.7V31.7z"/>
		<path class="st5" d="M141.7,31.3c-0.1,0-0.1,0-0.2,0c-0.2,0-0.4,0.1-0.5,0.3v1.5h-0.4V31h0.3l0,0.2c0.1-0.2,0.3-0.3,0.5-0.3
			c0.1,0,0.1,0,0.2,0V31.3z"/>
		<path class="st5" d="M142.4,33.1H142V31h0.4V33.1z M142,30.5c0-0.1,0-0.1,0.1-0.1c0,0,0.1-0.1,0.2-0.1c0.1,0,0.1,0,0.2,0.1
			c0,0,0.1,0.1,0.1,0.1c0,0.1,0,0.1-0.1,0.1c0,0-0.1,0.1-0.2,0.1c-0.1,0-0.1,0-0.2-0.1C142,30.6,142,30.5,142,30.5z"/>
		<path class="st5" d="M143.3,31l0,0.3c0.2-0.2,0.4-0.3,0.6-0.3c0.4,0,0.7,0.2,0.7,0.7v1.4h-0.4v-1.4c0-0.1,0-0.3-0.1-0.3
			c-0.1-0.1-0.2-0.1-0.3-0.1c-0.1,0-0.2,0-0.3,0.1c-0.1,0.1-0.2,0.1-0.2,0.2v1.5H143V31H143.3z"/>
		<path class="st5" d="M145.6,30.5V31h0.4v0.3h-0.4v1.3c0,0.1,0,0.1,0.1,0.2c0,0,0.1,0.1,0.2,0.1c0,0,0.1,0,0.2,0v0.3
			c-0.1,0-0.2,0-0.3,0c-0.2,0-0.3,0-0.4-0.1c-0.1-0.1-0.1-0.2-0.1-0.4v-1.3h-0.4V31h0.4v-0.5H145.6z"/>
		<path class="st5" d="M147.3,33.1c-0.3,0-0.5-0.1-0.7-0.3c-0.2-0.2-0.3-0.4-0.3-0.7V32c0-0.2,0-0.4,0.1-0.6
			c0.1-0.2,0.2-0.3,0.3-0.4c0.1-0.1,0.3-0.1,0.5-0.1c0.3,0,0.5,0.1,0.6,0.3c0.1,0.2,0.2,0.4,0.2,0.8v0.1h-1.4c0,0.2,0.1,0.4,0.2,0.5
			c0.1,0.1,0.3,0.2,0.4,0.2c0.1,0,0.2,0,0.3-0.1c0.1-0.1,0.2-0.1,0.2-0.2l0.2,0.2C147.9,33,147.6,33.1,147.3,33.1z M147.2,31.3
			c-0.1,0-0.3,0.1-0.4,0.2c-0.1,0.1-0.2,0.2-0.2,0.4h1v0c0-0.2-0.1-0.3-0.1-0.4C147.5,31.3,147.4,31.3,147.2,31.3z"/>
		<path class="st5" d="M149.5,31.3c-0.1,0-0.1,0-0.2,0c-0.2,0-0.4,0.1-0.5,0.3v1.5h-0.4V31h0.3l0,0.2c0.1-0.2,0.3-0.3,0.5-0.3
			c0.1,0,0.1,0,0.2,0V31.3z"/>
		<path class="st5" d="M152.7,30.6h-0.9v2.5h-0.4v-2.5h-0.9v-0.3h2.2V30.6z"/>
		<path class="st5" d="M152.8,32c0-0.2,0-0.4,0.1-0.5c0.1-0.2,0.2-0.3,0.3-0.4c0.1-0.1,0.3-0.1,0.5-0.1c0.3,0,0.5,0.1,0.7,0.3
			c0.2,0.2,0.3,0.5,0.3,0.8v0c0,0.2,0,0.4-0.1,0.5c-0.1,0.2-0.2,0.3-0.3,0.4c-0.1,0.1-0.3,0.1-0.5,0.1c-0.3,0-0.5-0.1-0.7-0.3
			C152.9,32.6,152.8,32.4,152.8,32L152.8,32z M153.1,32.1c0,0.2,0.1,0.4,0.2,0.6c0.1,0.1,0.2,0.2,0.4,0.2c0.2,0,0.3-0.1,0.4-0.2
			c0.1-0.1,0.2-0.3,0.2-0.6c0-0.2-0.1-0.4-0.2-0.6c-0.1-0.1-0.2-0.2-0.4-0.2c-0.2,0-0.3,0.1-0.4,0.2
			C153.2,31.6,153.1,31.8,153.1,32.1z"/>
		<path class="st5" d="M155,32c0-0.2,0-0.4,0.1-0.5c0.1-0.2,0.2-0.3,0.3-0.4c0.1-0.1,0.3-0.1,0.5-0.1c0.3,0,0.5,0.1,0.7,0.3
			c0.2,0.2,0.3,0.5,0.3,0.8v0c0,0.2,0,0.4-0.1,0.5c-0.1,0.2-0.2,0.3-0.3,0.4c-0.1,0.1-0.3,0.1-0.5,0.1c-0.3,0-0.5-0.1-0.7-0.3
			C155.1,32.6,155,32.4,155,32L155,32z M155.4,32.1c0,0.2,0.1,0.4,0.2,0.6c0.1,0.1,0.2,0.2,0.4,0.2c0.2,0,0.3-0.1,0.4-0.2
			c0.1-0.1,0.2-0.3,0.2-0.6c0-0.2-0.1-0.4-0.2-0.6c-0.1-0.1-0.3-0.2-0.4-0.2c-0.2,0-0.3,0.1-0.4,0.2
			C155.4,31.6,155.4,31.8,155.4,32.1z"/>
		<path class="st5" d="M157.9,32.1l-0.2,0.2v0.7h-0.4v-2.9h0.4v1.8l0.2-0.2l0.6-0.7h0.4l-0.8,0.9l0.9,1.2h-0.4L157.9,32.1z"/>
		<path class="st5" d="M161.9,32.4h-1.2l-0.3,0.7h-0.4l1.1-2.8h0.3l1.1,2.8h-0.4L161.9,32.4z M160.9,32.1h0.9l-0.5-1.3L160.9,32.1z"
			/>
		<path class="st5" d="M166,32.7c-0.1,0.1-0.2,0.2-0.4,0.3c-0.2,0.1-0.4,0.1-0.6,0.1c-0.2,0-0.4-0.1-0.6-0.2
			c-0.2-0.1-0.3-0.3-0.4-0.5c-0.1-0.2-0.1-0.4-0.1-0.7v-0.2c0-0.4,0.1-0.7,0.3-1c0.2-0.2,0.5-0.3,0.8-0.3c0.3,0,0.5,0.1,0.7,0.2
			c0.2,0.1,0.3,0.4,0.3,0.6h-0.4c-0.1-0.4-0.3-0.6-0.7-0.6c-0.2,0-0.4,0.1-0.6,0.3c-0.1,0.2-0.2,0.4-0.2,0.8v0.2
			c0,0.3,0.1,0.6,0.2,0.7c0.1,0.2,0.3,0.3,0.6,0.3c0.1,0,0.3,0,0.4,0c0.1,0,0.2-0.1,0.3-0.2V32H165v-0.3h1V32.7z"/>
		<path class="st5" d="M167.8,33.1c0,0,0-0.1-0.1-0.2c-0.2,0.2-0.4,0.3-0.6,0.3c-0.2,0-0.4-0.1-0.5-0.2c-0.1-0.1-0.2-0.3-0.2-0.4
			c0-0.2,0.1-0.4,0.2-0.5c0.2-0.1,0.4-0.2,0.7-0.2h0.3v-0.2c0-0.1,0-0.2-0.1-0.3c-0.1-0.1-0.2-0.1-0.3-0.1c-0.1,0-0.2,0-0.3,0.1
			c-0.1,0.1-0.1,0.1-0.1,0.2h-0.4c0-0.1,0-0.2,0.1-0.3c0.1-0.1,0.2-0.2,0.3-0.2c0.1-0.1,0.3-0.1,0.4-0.1c0.2,0,0.4,0.1,0.6,0.2
			c0.1,0.1,0.2,0.3,0.2,0.5v1c0,0.2,0,0.3,0.1,0.5v0H167.8z M167.2,32.8c0.1,0,0.2,0,0.3-0.1c0.1-0.1,0.2-0.1,0.2-0.2v-0.4h-0.3
			c-0.4,0-0.7,0.1-0.7,0.4c0,0.1,0,0.2,0.1,0.3C167,32.8,167.1,32.8,167.2,32.8z"/>
		<path class="st5" d="M169.1,33.1h-0.4v-2.9h0.4V33.1z"/>
		<path class="st5" d="M170,33.1h-0.4v-2.9h0.4V33.1z"/>
		<path class="st5" d="M171.4,33.1c-0.3,0-0.5-0.1-0.7-0.3c-0.2-0.2-0.3-0.4-0.3-0.7V32c0-0.2,0-0.4,0.1-0.6
			c0.1-0.2,0.2-0.3,0.3-0.4c0.1-0.1,0.3-0.1,0.5-0.1c0.3,0,0.5,0.1,0.6,0.3c0.1,0.2,0.2,0.4,0.2,0.8v0.1h-1.4c0,0.2,0.1,0.4,0.2,0.5
			c0.1,0.1,0.3,0.2,0.4,0.2c0.1,0,0.2,0,0.3-0.1c0.1-0.1,0.2-0.1,0.2-0.2l0.2,0.2C172.1,33,171.8,33.1,171.4,33.1z M171.4,31.3
			c-0.1,0-0.3,0.1-0.4,0.2c-0.1,0.1-0.2,0.2-0.2,0.4h1v0c0-0.2-0.1-0.3-0.1-0.4C171.7,31.3,171.6,31.3,171.4,31.3z"/>
		<path class="st5" d="M173.3,32.6l0.5-1.6h0.4l-0.8,2.4c-0.1,0.3-0.3,0.5-0.6,0.5l-0.1,0l-0.1,0v-0.3l0.1,0c0.1,0,0.2,0,0.3-0.1
			c0.1,0,0.1-0.1,0.2-0.3l0.1-0.2l-0.7-2.1h0.4L173.3,32.6z"/>
		<path class="st5" d="M177.7,31.8c0,0.3,0,0.5-0.1,0.7c-0.1,0.2-0.2,0.4-0.4,0.5c-0.2,0.1-0.4,0.2-0.6,0.2c-0.2,0-0.4-0.1-0.6-0.2
			c-0.2-0.1-0.3-0.3-0.4-0.5c-0.1-0.2-0.1-0.4-0.1-0.7v-0.2c0-0.3,0-0.5,0.1-0.7c0.1-0.2,0.2-0.4,0.4-0.5c0.2-0.1,0.4-0.2,0.6-0.2
			c0.2,0,0.4,0.1,0.6,0.2c0.2,0.1,0.3,0.3,0.4,0.5c0.1,0.2,0.1,0.4,0.1,0.7V31.8z M177.3,31.6c0-0.3-0.1-0.6-0.2-0.8
			c-0.1-0.2-0.3-0.3-0.6-0.3c-0.2,0-0.4,0.1-0.6,0.3c-0.1,0.2-0.2,0.4-0.2,0.7v0.2c0,0.3,0.1,0.6,0.2,0.8c0.1,0.2,0.3,0.3,0.6,0.3
			s0.4-0.1,0.6-0.3c0.1-0.2,0.2-0.4,0.2-0.7V31.6z"/>
		<path class="st5" d="M178.4,33.1v-1.8H178V31h0.3v-0.2c0-0.2,0.1-0.4,0.2-0.5c0.1-0.1,0.3-0.2,0.5-0.2c0.1,0,0.2,0,0.2,0l0,0.3
			c-0.1,0-0.1,0-0.2,0c-0.1,0-0.2,0-0.3,0.1c-0.1,0.1-0.1,0.2-0.1,0.3V31h0.4v0.3h-0.4v1.8H178.4z"/>
		<path class="st5" d="M182.4,30.6h-0.9v2.5h-0.4v-2.5h-0.9v-0.3h2.2V30.6z"/>
		<path class="st5" d="M183.3,32.6l0.5-1.6h0.4l-0.8,2.4c-0.1,0.3-0.3,0.5-0.6,0.5l-0.1,0l-0.1,0v-0.3l0.1,0c0.1,0,0.2,0,0.3-0.1
			c0.1,0,0.1-0.1,0.2-0.3l0.1-0.2l-0.7-2.1h0.4L183.3,32.6z"/>
		<path class="st5" d="M186.3,32.1c0,0.3-0.1,0.6-0.2,0.8c-0.1,0.2-0.3,0.3-0.6,0.3c-0.3,0-0.4-0.1-0.6-0.2v1h-0.4V31h0.3l0,0.2
			c0.1-0.2,0.3-0.3,0.6-0.3c0.2,0,0.4,0.1,0.6,0.3C186.2,31.4,186.3,31.7,186.3,32.1L186.3,32.1z M185.9,32c0-0.2-0.1-0.4-0.1-0.6
			c-0.1-0.1-0.2-0.2-0.4-0.2c-0.2,0-0.4,0.1-0.5,0.3v1c0.1,0.2,0.3,0.3,0.5,0.3c0.2,0,0.3-0.1,0.4-0.2
			C185.9,32.5,185.9,32.3,185.9,32z"/>
		<path class="st5" d="M187.6,33.1c-0.3,0-0.5-0.1-0.7-0.3c-0.2-0.2-0.3-0.4-0.3-0.7V32c0-0.2,0-0.4,0.1-0.6
			c0.1-0.2,0.2-0.3,0.3-0.4c0.1-0.1,0.3-0.1,0.5-0.1c0.3,0,0.5,0.1,0.6,0.3c0.1,0.2,0.2,0.4,0.2,0.8v0.1H187c0,0.2,0.1,0.4,0.2,0.5
			c0.1,0.1,0.3,0.2,0.4,0.2c0.1,0,0.2,0,0.3-0.1c0.1-0.1,0.2-0.1,0.2-0.2l0.2,0.2C188.2,33,187.9,33.1,187.6,33.1z M187.5,31.3
			c-0.1,0-0.3,0.1-0.4,0.2c-0.1,0.1-0.2,0.2-0.2,0.4h1v0c0-0.2-0.1-0.3-0.1-0.4C187.8,31.3,187.7,31.3,187.5,31.3z"/>
		<path class="st5" d="M191.4,32.4h-1.2l-0.3,0.7h-0.4l1.1-2.8h0.3l1.1,2.8h-0.4L191.4,32.4z M190.3,32.1h0.9l-0.5-1.3L190.3,32.1z"
			/>
		<path class="st5" d="M192.7,31l0,0.3c0.2-0.2,0.4-0.3,0.6-0.3c0.4,0,0.7,0.2,0.7,0.7v1.4h-0.4v-1.4c0-0.1,0-0.3-0.1-0.3
			c-0.1-0.1-0.2-0.1-0.3-0.1c-0.1,0-0.2,0-0.3,0.1c-0.1,0.1-0.2,0.1-0.2,0.2v1.5h-0.4V31H192.7z"/>
		<path class="st5" d="M194.4,32c0-0.3,0.1-0.6,0.2-0.8c0.2-0.2,0.3-0.3,0.6-0.3c0.2,0,0.4,0.1,0.6,0.2v-1.1h0.4v2.9h-0.3l0-0.2
			c-0.1,0.2-0.3,0.3-0.6,0.3c-0.2,0-0.4-0.1-0.6-0.3C194.5,32.6,194.4,32.4,194.4,32L194.4,32z M194.8,32.1c0,0.2,0,0.4,0.1,0.6
			s0.2,0.2,0.4,0.2c0.2,0,0.4-0.1,0.5-0.3v-1c-0.1-0.2-0.3-0.3-0.5-0.3c-0.2,0-0.3,0.1-0.4,0.2S194.8,31.8,194.8,32.1z"/>
		<path class="st5" d="M198.6,31.8c-0.3-0.1-0.5-0.2-0.7-0.3c-0.1-0.1-0.2-0.3-0.2-0.5c0-0.2,0.1-0.4,0.3-0.5
			c0.2-0.1,0.4-0.2,0.7-0.2c0.2,0,0.4,0,0.5,0.1c0.2,0.1,0.3,0.2,0.3,0.3c0.1,0.1,0.1,0.3,0.1,0.4h-0.4c0-0.2-0.1-0.3-0.2-0.4
			c-0.1-0.1-0.3-0.1-0.5-0.1c-0.2,0-0.3,0-0.4,0.1c-0.1,0.1-0.2,0.2-0.2,0.3c0,0.1,0,0.2,0.1,0.3c0.1,0.1,0.3,0.1,0.5,0.2
			c0.2,0.1,0.4,0.1,0.5,0.2c0.1,0.1,0.2,0.2,0.3,0.3c0.1,0.1,0.1,0.2,0.1,0.4c0,0.2-0.1,0.4-0.3,0.5c-0.2,0.1-0.4,0.2-0.7,0.2
			c-0.2,0-0.4,0-0.5-0.1c-0.2-0.1-0.3-0.2-0.4-0.3c-0.1-0.1-0.1-0.3-0.1-0.4h0.4c0,0.2,0.1,0.3,0.2,0.4c0.1,0.1,0.3,0.1,0.5,0.1
			c0.2,0,0.3,0,0.4-0.1c0.1-0.1,0.2-0.2,0.2-0.3c0-0.1,0-0.2-0.1-0.3C199,32,198.8,31.9,198.6,31.8z"/>
		<path class="st5" d="M200.9,32.8c0.1,0,0.2,0,0.3-0.1c0.1-0.1,0.1-0.2,0.2-0.3h0.3c0,0.1,0,0.2-0.1,0.3c-0.1,0.1-0.2,0.2-0.3,0.3
			c-0.1,0.1-0.3,0.1-0.4,0.1c-0.3,0-0.5-0.1-0.7-0.3c-0.2-0.2-0.2-0.4-0.2-0.8V32c0-0.2,0-0.4,0.1-0.5c0.1-0.2,0.2-0.3,0.3-0.4
			c0.1-0.1,0.3-0.1,0.5-0.1c0.2,0,0.4,0.1,0.6,0.2c0.2,0.1,0.2,0.3,0.2,0.5h-0.3c0-0.1-0.1-0.2-0.2-0.3c-0.1-0.1-0.2-0.1-0.3-0.1
			c-0.2,0-0.3,0.1-0.4,0.2c-0.1,0.1-0.1,0.3-0.1,0.6v0.1c0,0.2,0,0.4,0.1,0.6C200.5,32.8,200.7,32.8,200.9,32.8z"/>
		<path class="st5" d="M203.1,31.3c-0.1,0-0.1,0-0.2,0c-0.2,0-0.4,0.1-0.5,0.3v1.5h-0.4V31h0.3l0,0.2c0.1-0.2,0.3-0.3,0.5-0.3
			c0.1,0,0.1,0,0.2,0V31.3z"/>
		<path class="st5" d="M204.6,33.1c0,0,0-0.1-0.1-0.2c-0.2,0.2-0.4,0.3-0.6,0.3c-0.2,0-0.4-0.1-0.5-0.2c-0.1-0.1-0.2-0.3-0.2-0.4
			c0-0.2,0.1-0.4,0.2-0.5c0.2-0.1,0.4-0.2,0.7-0.2h0.3v-0.2c0-0.1,0-0.2-0.1-0.3c-0.1-0.1-0.2-0.1-0.3-0.1c-0.1,0-0.2,0-0.3,0.1
			c-0.1,0.1-0.1,0.1-0.1,0.2h-0.4c0-0.1,0-0.2,0.1-0.3c0.1-0.1,0.2-0.2,0.3-0.2c0.1-0.1,0.3-0.1,0.4-0.1c0.2,0,0.4,0.1,0.6,0.2
			c0.1,0.1,0.2,0.3,0.2,0.5v1c0,0.2,0,0.3,0.1,0.5v0H204.6z M204,32.8c0.1,0,0.2,0,0.3-0.1c0.1-0.1,0.2-0.1,0.2-0.2v-0.4h-0.3
			c-0.4,0-0.7,0.1-0.7,0.4c0,0.1,0,0.2,0.1,0.3C203.8,32.8,203.9,32.8,204,32.8z"/>
		<path class="st5" d="M205.8,31l0,0.2c0.2-0.2,0.4-0.3,0.6-0.3c0.3,0,0.5,0.1,0.6,0.3c0.1-0.1,0.2-0.2,0.3-0.2
			c0.1-0.1,0.2-0.1,0.4-0.1c0.5,0,0.7,0.2,0.7,0.7v1.4H208v-1.4c0-0.1,0-0.3-0.1-0.3c-0.1-0.1-0.2-0.1-0.3-0.1c-0.1,0-0.2,0-0.3,0.1
			c-0.1,0.1-0.1,0.2-0.2,0.3v1.4h-0.4v-1.4c0-0.3-0.1-0.5-0.4-0.5c-0.2,0-0.4,0.1-0.5,0.3v1.5h-0.4V31H205.8z"/>
		<path class="st5" d="M210.7,32.1c0,0.3-0.1,0.6-0.2,0.8c-0.1,0.2-0.3,0.3-0.6,0.3c-0.3,0-0.5-0.1-0.6-0.3l0,0.2h-0.3v-2.9h0.4v1.1
			c0.1-0.2,0.3-0.3,0.6-0.3s0.4,0.1,0.6,0.3S210.7,31.7,210.7,32.1L210.7,32.1z M210.3,32c0-0.2,0-0.4-0.1-0.6
			c-0.1-0.1-0.2-0.2-0.4-0.2c-0.2,0-0.4,0.1-0.5,0.3v0.9c0.1,0.2,0.3,0.3,0.5,0.3c0.2,0,0.3-0.1,0.4-0.2
			C210.3,32.5,210.3,32.3,210.3,32z"/>
		<path class="st5" d="M211.5,33.1h-0.4v-2.9h0.4V33.1z"/>
		<path class="st5" d="M213,33.1c-0.3,0-0.5-0.1-0.7-0.3c-0.2-0.2-0.3-0.4-0.3-0.7V32c0-0.2,0-0.4,0.1-0.6c0.1-0.2,0.2-0.3,0.3-0.4
			c0.1-0.1,0.3-0.1,0.5-0.1c0.3,0,0.5,0.1,0.6,0.3c0.1,0.2,0.2,0.4,0.2,0.8v0.1h-1.4c0,0.2,0.1,0.4,0.2,0.5c0.1,0.1,0.3,0.2,0.4,0.2
			c0.1,0,0.2,0,0.3-0.1c0.1-0.1,0.2-0.1,0.2-0.2l0.2,0.2C213.6,33,213.3,33.1,213,33.1z M212.9,31.3c-0.1,0-0.3,0.1-0.4,0.2
			c-0.1,0.1-0.2,0.2-0.2,0.4h1v0c0-0.2-0.1-0.3-0.1-0.4C213.2,31.3,213.1,31.3,212.9,31.3z"/>
		<path class="st5" d="M214.1,32c0-0.3,0.1-0.6,0.2-0.8c0.2-0.2,0.3-0.3,0.6-0.3c0.2,0,0.4,0.1,0.6,0.2v-1.1h0.4v2.9h-0.3l0-0.2
			c-0.1,0.2-0.3,0.3-0.6,0.3c-0.2,0-0.4-0.1-0.6-0.3C214.2,32.6,214.1,32.4,214.1,32L214.1,32z M214.4,32.1c0,0.2,0,0.4,0.1,0.6
			c0.1,0.1,0.2,0.2,0.4,0.2c0.2,0,0.4-0.1,0.5-0.3v-1c-0.1-0.2-0.3-0.3-0.5-0.3c-0.2,0-0.3,0.1-0.4,0.2
			C214.5,31.6,214.4,31.8,214.4,32.1z"/>
	</g>
</g>
</svg>
