<?xml version="1.0" encoding="utf-8"?>
<!-- Generator: Adobe Illustrator 25.2.1, SVG Export Plug-In . SVG Version: 6.00 Build 0)  -->
<svg version="1.1" id="Layer_1" xmlns="http://www.w3.org/2000/svg" xmlns:xlink="http://www.w3.org/1999/xlink" x="0px" y="0px"
	 viewBox="0 0 145 110" style="enable-background:new 0 0 145 110;" xml:space="preserve">
<style type="text/css">
	.st0{fill:#EFEFEF;}
	.st1{fill:url(#SVGID_1_);}
	.st2{fill:url(#SVGID_2_);}
	.st3{opacity:0.3;fill:#FFFFFF;enable-background:new    ;}
	.st4{fill:#FFFFFF;}
	.st5{opacity:0.5;fill:#FFFFFF;enable-background:new    ;}
</style>
<g>
	<g>
		<rect class="st0" width="145" height="110"/>
	</g>
	<g>
		<g>
			<linearGradient id="SVGID_1_" gradientUnits="userSpaceOnUse" x1="14" y1="54.995" x2="72.5" y2="54.995">
				<stop  offset="0" style="stop-color:#ED4A56"/>
				<stop  offset="1" style="stop-color:#F35E18"/>
			</linearGradient>
			<path class="st1" d="M24.6,44.4h47.9v21.2H24.6C18.7,65.6,14,60.8,14,55l0,0C14,49.2,18.7,44.4,24.6,44.4z"/>
			<linearGradient id="SVGID_2_" gradientUnits="userSpaceOnUse" x1="72.5" y1="55" x2="131" y2="55">
				<stop  offset="0" style="stop-color:#314DC6"/>
				<stop  offset="1" style="stop-color:#B054EE"/>
			</linearGradient>
			<path class="st2" d="M72.5,44.4h47.9c5.8,0,10.6,4.7,10.6,10.6l0,0c0,5.8-4.7,10.6-10.6,10.6H72.5V44.4z"/>
		</g>
		<circle class="st3" cx="72.5" cy="55" r="8.6"/>
		<circle class="st4" cx="72.5" cy="55" r="6.7"/>
		<path class="st5" d="M56.5,56.6H23c-0.9,0-1.6-0.7-1.6-1.6l0,0c0-0.9,0.7-1.6,1.6-1.6h33.5c0.9,0,1.6,0.7,1.6,1.6l0,0
			C58.1,55.9,57.4,56.6,56.5,56.6z"/>
		<path class="st5" d="M122,56.6H88.5c-0.9,0-1.6-0.7-1.6-1.6l0,0c0-0.9,0.7-1.6,1.6-1.6H122c0.9,0,1.6,0.7,1.6,1.6l0,0
			C123.6,55.9,122.9,56.6,122,56.6z"/>
	</g>
</g>
</svg>
