<?xml version="1.0" encoding="utf-8"?>
<!-- Generator: Adobe Illustrator 25.2.1, SVG Export Plug-In . SVG Version: 6.00 Build 0)  -->
<svg version="1.1" id="Layer_1" xmlns="http://www.w3.org/2000/svg" xmlns:xlink="http://www.w3.org/1999/xlink" x="0px" y="0px"
	 viewBox="0 0 24 24" style="enable-background:new 0 0 24 24;" xml:space="preserve">
<style type="text/css">
	.st0{fill:url(#SVGID_1_);}
</style>
<linearGradient id="SVGID_1_" gradientUnits="userSpaceOnUse" x1="0" y1="12" x2="24" y2="12">
	<stop  offset="0" style="stop-color:#00AFFA"/>
	<stop  offset="1" style="stop-color:#0954C0"/>
</linearGradient>
<path class="st0" d="M22.6,8H1.4C0.63,8,0,8.63,0,9.4v5.2C0,15.37,0.63,16,1.4,16h21.2c0.77,0,1.4-0.63,1.4-1.4V9.4
	C24,8.63,23.37,8,22.6,8z M1,14.6V9.4C1,9.18,1.18,9,1.4,9h10.1v6H1.4C1.18,15,1,14.82,1,14.6z M23,14.6c0,0.22-0.18,0.4-0.4,0.4
	H12.5V9h10.1C22.82,9,23,9.18,23,9.4V14.6z M21.28,12.26c0,0.28-0.22,0.5-0.5,0.5h-6.07c-0.28,0-0.5-0.22-0.5-0.5s0.22-0.5,0.5-0.5
	h6.07C21.05,11.76,21.28,11.98,21.28,12.26z M9.78,12.26c0,0.28-0.22,0.5-0.5,0.5H3.22c-0.28,0-0.5-0.22-0.5-0.5s0.22-0.5,0.5-0.5
	h6.07C9.56,11.76,9.78,11.98,9.78,12.26z"/>
</svg>
