<?xml version="1.0" encoding="utf-8"?>
<!-- Generator: Adobe Illustrator 25.2.1, SVG Export Plug-In . SVG Version: 6.00 Build 0)  -->
<svg version="1.1" id="Layer_1" xmlns="http://www.w3.org/2000/svg" xmlns:xlink="http://www.w3.org/1999/xlink" x="0px" y="0px"
	 viewBox="0 0 320 160" style="enable-background:new 0 0 320 160;" xml:space="preserve">
<style type="text/css">
	.st0{fill:#FFFFFF;}
	.st1{fill:url(#SVGID_1_);}
	.st2{fill:url(#SVGID_2_);}
	.st3{fill:#FEFEFE;}
	.st4{fill:#212121;}
	.st5{fill:none;stroke:#FFFFFF;stroke-width:1.3456;}
</style>
<rect class="st0" width="320" height="160"/>
<g>
	
		<linearGradient id="SVGID_1_" gradientUnits="userSpaceOnUse" x1="164.0791" y1="131.95" x2="295.5673" y2="131.95" gradientTransform="matrix(1 0 0 -1 0 212)">
		<stop  offset="0" style="stop-color:#3F23ED"/>
		<stop  offset="1" style="stop-color:#EF53F2"/>
	</linearGradient>
	<rect x="161" y="58.2" class="st1" width="134.5" height="43.7"/>
	
		<linearGradient id="SVGID_2_" gradientUnits="userSpaceOnUse" x1="27.5025" y1="131.95" x2="158.9908" y2="131.95" gradientTransform="matrix(1 0 0 -1 0 212)">
		<stop  offset="0" style="stop-color:#6F16E4"/>
		<stop  offset="1" style="stop-color:#F25353"/>
	</linearGradient>
	<path class="st2" d="M24.4,58.2H159v43.7H24.4V58.2z"/>
	<circle class="st3" cx="159.7" cy="79.7" r="12.8"/>
	<path class="st4" d="M156.6,82.5c-0.8,0-1.4-0.2-1.9-0.6s-0.7-1-0.7-1.7c0-0.2,0-0.4,0-0.7s0-0.6,0-0.7c0-0.8,0.2-1.3,0.7-1.7
		c0.4-0.4,1-0.6,1.9-0.6s1.3,0.2,1.9,0.6c0.4,0.4,0.7,1,0.7,1.7c0,0.3,0,0.6,0,0.7c0,0.2,0,0.4,0,0.7c0,0.8-0.3,1.3-0.7,1.7
		S157.4,82.5,156.6,82.5z M156.6,81.4c0.4,0,0.7-0.1,0.9-0.3c0.2-0.2,0.4-0.6,0.4-1.1c0-0.3,0-0.6,0-0.7s0-0.4,0-0.7
		c0-0.5-0.1-0.8-0.4-1.1s-0.5-0.3-0.9-0.3c-0.4,0-0.7,0.1-0.9,0.3c-0.2,0.2-0.4,0.6-0.4,1.1c0,0.2,0,0.4,0,0.7c0,0.3,0,0.5,0,0.7
		c0,0.5,0.1,0.8,0.4,1.1C156,81.3,156.3,81.4,156.6,81.4z"/>
	<path class="st4" d="M160.6,82.4c-0.1,0-0.1,0-0.1-0.1c0-0.1-0.1-0.1-0.1-0.1v-5.7c0-0.1,0-0.1,0.1-0.2l0.1-0.1h2.3
		c0.7,0,1.2,0.2,1.6,0.5c0.4,0.3,0.6,0.8,0.6,1.4c0,0.4-0.1,0.8-0.3,1.1c-0.2,0.3-0.5,0.5-0.8,0.6l1.2,2.3v0.1c0,0.1,0,0.1-0.1,0.1
		l-0.1,0.1h-0.8c-0.1,0-0.2,0-0.2-0.1c0-0.1-0.1-0.1-0.1-0.2l-1.1-2.1h-1.2v2.1c0,0.1,0,0.1-0.1,0.1l-0.1,0.1H160.6L160.6,82.4z
		 M162.8,79.1c0.3,0,0.6-0.1,0.8-0.2c0.2-0.2,0.3-0.4,0.3-0.7s-0.1-0.5-0.3-0.7c-0.2-0.2-0.4-0.2-0.8-0.2h-1.2v1.9L162.8,79.1
		L162.8,79.1z"/>
	<circle class="st5" cx="159.7" cy="79.7" r="14.1"/>
	<g>
		<path class="st0" d="M201.7,84.4l-2-3.2h-0.9v3.2h-1.3v-8h2.8c0.9,0,1.6,0.2,2.1,0.7s0.7,1,0.7,1.8c0,0.6-0.2,1.1-0.5,1.5
			c-0.4,0.4-0.9,0.7-1.5,0.8l2.1,3.2H201.7z M198.8,80.3h1.4c1,0,1.6-0.5,1.6-1.4c0-0.4-0.1-0.8-0.4-1c-0.3-0.2-0.6-0.4-1.2-0.4
			h-1.4V80.3z"/>
		<path class="st0" d="M208.2,78.5c0.4,0.3,0.7,0.6,0.8,1.1v-1.4h1.3v6.2h-1.3V83c-0.2,0.5-0.4,0.8-0.8,1.1
			c-0.4,0.3-0.9,0.4-1.4,0.4c-0.5,0-1-0.1-1.5-0.4s-0.8-0.6-1-1.1c-0.2-0.5-0.4-1.1-0.4-1.7c0-0.6,0.1-1.2,0.4-1.7
			c0.2-0.5,0.6-0.9,1-1.1c0.4-0.3,0.9-0.4,1.5-0.4C207.4,78.1,207.8,78.2,208.2,78.5z M205.8,79.8c-0.3,0.4-0.5,0.9-0.5,1.5
			s0.2,1.1,0.5,1.5c0.3,0.4,0.8,0.5,1.4,0.5c0.4,0,0.7-0.1,1-0.3c0.3-0.2,0.5-0.4,0.7-0.7c0.2-0.3,0.2-0.7,0.2-1.1
			c0-0.4-0.1-0.8-0.2-1.1c-0.2-0.3-0.4-0.6-0.7-0.7c-0.3-0.2-0.6-0.3-1-0.3C206.6,79.2,206.2,79.4,205.8,79.8z"/>
		<path class="st0" d="M215.9,78.5c0.4,0.3,0.7,0.6,0.8,1.1V76h1.3v8.4h-1.3V83c-0.2,0.5-0.4,0.8-0.8,1.1c-0.4,0.3-0.9,0.4-1.4,0.4
			c-0.5,0-1-0.1-1.5-0.4c-0.4-0.3-0.8-0.6-1-1.1c-0.2-0.5-0.4-1.1-0.4-1.7c0-0.6,0.1-1.2,0.4-1.7c0.2-0.5,0.6-0.9,1-1.1
			c0.4-0.3,0.9-0.4,1.5-0.4C215,78.1,215.5,78.2,215.9,78.5z M213.5,79.8c-0.3,0.4-0.5,0.9-0.5,1.5s0.2,1.1,0.5,1.5
			c0.3,0.4,0.8,0.5,1.4,0.5c0.4,0,0.7-0.1,1-0.3c0.3-0.2,0.5-0.4,0.7-0.7c0.2-0.3,0.2-0.7,0.2-1.1c0-0.4-0.1-0.8-0.2-1.1
			c-0.2-0.3-0.4-0.6-0.7-0.7c-0.3-0.2-0.6-0.3-1-0.3C214.3,79.2,213.8,79.4,213.5,79.8z"/>
		<path class="st0" d="M219.6,75.8c0.2-0.1,0.4-0.2,0.6-0.2s0.5,0.1,0.6,0.2c0.2,0.1,0.2,0.3,0.2,0.5c0,0.2-0.1,0.4-0.2,0.5
			c-0.2,0.1-0.4,0.2-0.6,0.2s-0.4-0.1-0.6-0.2c-0.2-0.1-0.2-0.3-0.2-0.5C219.4,76.1,219.5,76,219.6,75.8z M220.9,78.2v6.2h-1.3v-6.2
			H220.9z"/>
		<path class="st0" d="M228.2,78.2v6.2h-1.3v-1.4c-0.2,0.5-0.4,0.8-0.8,1.1c-0.4,0.3-0.8,0.4-1.4,0.4c-0.7,0-1.3-0.2-1.7-0.7
			c-0.4-0.5-0.7-1.1-0.7-2v-3.6h1.3v3.5c0,0.6,0.1,1,0.4,1.3c0.3,0.3,0.7,0.5,1.2,0.5c0.5,0,0.9-0.2,1.2-0.5
			c0.3-0.3,0.5-0.8,0.5-1.4v-3.3H228.2z"/>
		<path class="st0" d="M233.5,78.7c0.4,0.4,0.7,0.9,0.8,1.5h-1.2c-0.1-0.3-0.2-0.6-0.4-0.8c-0.2-0.2-0.6-0.3-0.9-0.3
			c-0.3,0-0.6,0.1-0.8,0.2c-0.2,0.2-0.3,0.4-0.3,0.6c0,0.2,0.1,0.4,0.2,0.5c0.1,0.1,0.3,0.2,0.5,0.3c0.2,0.1,0.5,0.1,0.8,0.2
			c0.5,0.1,0.8,0.2,1.1,0.3c0.3,0.1,0.5,0.3,0.7,0.5c0.2,0.2,0.3,0.6,0.3,1c0,0.5-0.2,0.9-0.6,1.3c-0.4,0.3-0.9,0.5-1.6,0.5
			c-0.8,0-1.4-0.2-1.9-0.5c-0.5-0.4-0.8-0.9-0.9-1.5h1.3c0,0.3,0.2,0.6,0.5,0.8s0.6,0.3,1,0.3c0.3,0,0.6-0.1,0.7-0.2
			c0.2-0.2,0.3-0.4,0.3-0.6c0-0.2-0.1-0.4-0.2-0.5c-0.1-0.1-0.3-0.2-0.5-0.3c-0.2-0.1-0.5-0.1-0.8-0.2c-0.5-0.1-0.8-0.2-1.1-0.3
			c-0.3-0.1-0.5-0.3-0.7-0.5c-0.2-0.2-0.3-0.6-0.3-1c0-0.5,0.2-1,0.6-1.3c0.4-0.3,0.9-0.5,1.6-0.5C232.5,78.1,233.1,78.3,233.5,78.7
			z"/>
		<path class="st0" d="M243.7,81c0.3,0.4,0.4,0.8,0.4,1.3c0,0.7-0.2,1.2-0.7,1.6c-0.4,0.4-1.1,0.6-1.9,0.6h-3.2v-8h3.1
			c0.8,0,1.4,0.2,1.8,0.5c0.4,0.4,0.6,0.9,0.6,1.5c0,0.5-0.1,0.9-0.4,1.2c-0.3,0.3-0.6,0.5-1,0.6C243,80.4,243.4,80.6,243.7,81z
			 M239.7,79.9h1.6c0.5,0,0.8-0.1,1-0.3c0.2-0.2,0.4-0.5,0.4-0.9c0-0.4-0.1-0.7-0.4-0.9c-0.2-0.2-0.6-0.3-1.1-0.3h-1.6V79.9z
			 M242.4,83c0.3-0.2,0.4-0.5,0.4-0.9s-0.1-0.7-0.4-0.9c-0.3-0.2-0.7-0.3-1.1-0.3h-1.6v2.5h1.6C241.8,83.3,242.2,83.2,242.4,83z"/>
		<path class="st0" d="M251.1,78.2v6.2h-1.3v-1.4c-0.2,0.5-0.4,0.8-0.8,1.1c-0.4,0.3-0.8,0.4-1.4,0.4c-0.7,0-1.3-0.2-1.7-0.7
			c-0.4-0.5-0.7-1.1-0.7-2v-3.6h1.3v3.5c0,0.6,0.1,1,0.4,1.3c0.3,0.3,0.7,0.5,1.2,0.5c0.5,0,0.9-0.2,1.2-0.5
			c0.3-0.3,0.5-0.8,0.5-1.4v-3.3H251.1z"/>
		<path class="st0" d="M255.8,83.3v1.1H255c-0.7,0-1.2-0.2-1.5-0.5c-0.3-0.3-0.5-0.9-0.5-1.6v-3.1h-0.9v-1.1h0.9v-1.6h1.3v1.6h1.5
			v1.1h-1.5v3.1c0,0.4,0.1,0.6,0.2,0.7s0.4,0.2,0.7,0.2H255.8z"/>
		<path class="st0" d="M260.1,83.3v1.1h-0.8c-0.7,0-1.2-0.2-1.5-0.5c-0.3-0.3-0.5-0.9-0.5-1.6v-3.1h-0.9v-1.1h0.9v-1.6h1.3v1.6h1.5
			v1.1h-1.5v3.1c0,0.4,0.1,0.6,0.2,0.7s0.4,0.2,0.7,0.2H260.1z"/>
		<path class="st0" d="M265.8,78.5c0.5,0.3,0.9,0.6,1.1,1.1c0.3,0.5,0.4,1,0.4,1.7c0,0.7-0.1,1.2-0.4,1.7c-0.3,0.5-0.6,0.9-1.1,1.1
			c-0.5,0.3-1,0.4-1.6,0.4c-0.6,0-1.1-0.1-1.6-0.4s-0.9-0.6-1.1-1.1c-0.3-0.5-0.4-1.1-0.4-1.7s0.1-1.2,0.4-1.7
			c0.3-0.5,0.7-0.9,1.1-1.1c0.5-0.3,1-0.4,1.6-0.4C264.8,78.1,265.4,78.2,265.8,78.5z M263.3,79.4c-0.3,0.2-0.5,0.4-0.7,0.7
			s-0.3,0.7-0.3,1.1c0,0.5,0.1,0.8,0.3,1.2s0.4,0.5,0.7,0.7c0.3,0.2,0.6,0.2,0.9,0.2c0.3,0,0.6-0.1,0.9-0.2c0.3-0.2,0.5-0.4,0.7-0.7
			c0.2-0.3,0.3-0.7,0.3-1.2c0-0.5-0.1-0.8-0.3-1.1c-0.2-0.3-0.4-0.5-0.7-0.7c-0.3-0.2-0.6-0.2-0.9-0.2
			C263.9,79.2,263.6,79.3,263.3,79.4z"/>
		<path class="st0" d="M273.9,78.8c0.4,0.5,0.7,1.1,0.7,2v3.6h-1.3v-3.5c0-0.6-0.1-1-0.4-1.3c-0.3-0.3-0.7-0.5-1.2-0.5
			c-0.5,0-0.9,0.2-1.2,0.5c-0.3,0.3-0.5,0.8-0.5,1.4v3.3h-1.3v-6.2h1.3v1.4c0.2-0.5,0.4-0.8,0.8-1.1c0.4-0.3,0.8-0.4,1.4-0.4
			C272.8,78.1,273.4,78.3,273.9,78.8z"/>
	</g>
	<g>
		<path class="st0" d="M49.7,84.4l-2-3.2h-0.9v3.2h-1.3v-8h2.8c0.9,0,1.6,0.2,2.1,0.7s0.7,1,0.7,1.8c0,0.6-0.2,1.1-0.5,1.5
			c-0.4,0.4-0.9,0.7-1.5,0.8l2.1,3.2H49.7z M46.8,80.3h1.4c1,0,1.6-0.5,1.6-1.4c0-0.4-0.1-0.8-0.4-1c-0.3-0.2-0.6-0.4-1.2-0.4h-1.4
			V80.3z"/>
		<path class="st0" d="M56.2,78.5c0.4,0.3,0.7,0.6,0.8,1.1v-1.4h1.3v6.2h-1.3V83c-0.2,0.5-0.4,0.8-0.8,1.1c-0.4,0.3-0.9,0.4-1.4,0.4
			c-0.5,0-1-0.1-1.5-0.4c-0.4-0.3-0.8-0.6-1-1.1c-0.2-0.5-0.4-1.1-0.4-1.7c0-0.6,0.1-1.2,0.4-1.7c0.2-0.5,0.6-0.9,1-1.1
			c0.4-0.3,0.9-0.4,1.5-0.4C55.3,78.1,55.8,78.2,56.2,78.5z M53.8,79.8c-0.3,0.4-0.5,0.9-0.5,1.5s0.2,1.1,0.5,1.5
			c0.3,0.4,0.8,0.5,1.4,0.5c0.4,0,0.7-0.1,1-0.3c0.3-0.2,0.5-0.4,0.7-0.7c0.2-0.3,0.2-0.7,0.2-1.1c0-0.4-0.1-0.8-0.2-1.1
			c-0.2-0.3-0.4-0.6-0.7-0.7c-0.3-0.2-0.6-0.3-1-0.3C54.6,79.2,54.1,79.4,53.8,79.8z"/>
		<path class="st0" d="M63.9,78.5c0.4,0.3,0.7,0.6,0.8,1.1V76H66v8.4h-1.3V83c-0.2,0.5-0.4,0.8-0.8,1.1c-0.4,0.3-0.9,0.4-1.4,0.4
			c-0.5,0-1-0.1-1.5-0.4c-0.4-0.3-0.8-0.6-1-1.1c-0.2-0.5-0.4-1.1-0.4-1.7c0-0.6,0.1-1.2,0.4-1.7c0.2-0.5,0.6-0.9,1-1.1
			c0.4-0.3,0.9-0.4,1.5-0.4C63,78.1,63.5,78.2,63.9,78.5z M61.4,79.8c-0.3,0.4-0.5,0.9-0.5,1.5s0.2,1.1,0.5,1.5
			c0.3,0.4,0.8,0.5,1.4,0.5c0.4,0,0.7-0.1,1-0.3c0.3-0.2,0.5-0.4,0.7-0.7c0.2-0.3,0.2-0.7,0.2-1.1c0-0.4-0.1-0.8-0.2-1.1
			c-0.2-0.3-0.4-0.6-0.7-0.7c-0.3-0.2-0.6-0.3-1-0.3C62.2,79.2,61.8,79.4,61.4,79.8z"/>
		<path class="st0" d="M67.6,75.8c0.2-0.1,0.4-0.2,0.6-0.2c0.2,0,0.5,0.1,0.6,0.2c0.2,0.1,0.2,0.3,0.2,0.5c0,0.2-0.1,0.4-0.2,0.5
			c-0.2,0.1-0.4,0.2-0.6,0.2c-0.2,0-0.4-0.1-0.6-0.2c-0.2-0.1-0.2-0.3-0.2-0.5C67.4,76.1,67.4,76,67.6,75.8z M68.8,78.2v6.2h-1.3
			v-6.2H68.8z"/>
		<path class="st0" d="M76.1,78.2v6.2h-1.3v-1.4c-0.2,0.5-0.4,0.8-0.8,1.1c-0.4,0.3-0.8,0.4-1.4,0.4c-0.7,0-1.3-0.2-1.7-0.7
			c-0.4-0.5-0.7-1.1-0.7-2v-3.6h1.3v3.5c0,0.6,0.1,1,0.4,1.3c0.3,0.3,0.7,0.5,1.2,0.5c0.5,0,0.9-0.2,1.2-0.5
			c0.3-0.3,0.5-0.8,0.5-1.4v-3.3H76.1z"/>
		<path class="st0" d="M81.5,78.7c0.4,0.4,0.7,0.9,0.8,1.5h-1.2c-0.1-0.3-0.2-0.6-0.4-0.8c-0.2-0.2-0.6-0.3-0.9-0.3
			c-0.3,0-0.6,0.1-0.8,0.2c-0.2,0.2-0.3,0.4-0.3,0.6c0,0.2,0.1,0.4,0.2,0.5c0.1,0.1,0.3,0.2,0.5,0.3c0.2,0.1,0.5,0.1,0.8,0.2
			c0.5,0.1,0.8,0.2,1.1,0.3c0.3,0.1,0.5,0.3,0.7,0.5c0.2,0.2,0.3,0.6,0.3,1c0,0.5-0.2,0.9-0.6,1.3c-0.4,0.3-0.9,0.5-1.6,0.5
			c-0.8,0-1.4-0.2-1.9-0.5c-0.5-0.4-0.8-0.9-0.9-1.5h1.3c0,0.3,0.2,0.6,0.5,0.8s0.6,0.3,1,0.3c0.3,0,0.6-0.1,0.7-0.2
			c0.2-0.2,0.3-0.4,0.3-0.6c0-0.2-0.1-0.4-0.2-0.5c-0.1-0.1-0.3-0.2-0.5-0.3c-0.2-0.1-0.5-0.1-0.8-0.2c-0.5-0.1-0.8-0.2-1.1-0.3
			c-0.3-0.1-0.5-0.3-0.7-0.5c-0.2-0.2-0.3-0.6-0.3-1c0-0.5,0.2-1,0.6-1.3c0.4-0.3,0.9-0.5,1.6-0.5C80.5,78.1,81.1,78.3,81.5,78.7z"
			/>
		<path class="st0" d="M91.7,81c0.3,0.4,0.4,0.8,0.4,1.3c0,0.7-0.2,1.2-0.7,1.6c-0.4,0.4-1.1,0.6-1.9,0.6h-3.2v-8h3.1
			c0.8,0,1.4,0.2,1.8,0.5c0.4,0.4,0.6,0.9,0.6,1.5c0,0.5-0.1,0.9-0.4,1.2c-0.3,0.3-0.6,0.5-1,0.6C91,80.4,91.4,80.6,91.7,81z
			 M87.6,79.9h1.6c0.5,0,0.8-0.1,1-0.3c0.2-0.2,0.4-0.5,0.4-0.9c0-0.4-0.1-0.7-0.4-0.9c-0.2-0.2-0.6-0.3-1.1-0.3h-1.6V79.9z
			 M90.4,83c0.3-0.2,0.4-0.5,0.4-0.9s-0.1-0.7-0.4-0.9c-0.3-0.2-0.7-0.3-1.1-0.3h-1.6v2.5h1.6C89.7,83.3,90.1,83.2,90.4,83z"/>
		<path class="st0" d="M99.1,78.2v6.2h-1.3v-1.4c-0.2,0.5-0.4,0.8-0.8,1.1c-0.4,0.3-0.8,0.4-1.4,0.4c-0.7,0-1.3-0.2-1.7-0.7
			c-0.4-0.5-0.7-1.1-0.7-2v-3.6h1.3v3.5c0,0.6,0.1,1,0.4,1.3c0.3,0.3,0.7,0.5,1.2,0.5c0.5,0,0.9-0.2,1.2-0.5
			c0.3-0.3,0.5-0.8,0.5-1.4v-3.3H99.1z"/>
		<path class="st0" d="M103.8,83.3v1.1H103c-0.7,0-1.2-0.2-1.5-0.5c-0.3-0.3-0.5-0.9-0.5-1.6v-3.1h-0.9v-1.1h0.9v-1.6h1.3v1.6h1.5
			v1.1h-1.5v3.1c0,0.4,0.1,0.6,0.2,0.7c0.1,0.1,0.4,0.2,0.7,0.2H103.8z"/>
		<path class="st0" d="M108.1,83.3v1.1h-0.8c-0.7,0-1.2-0.2-1.5-0.5c-0.3-0.3-0.5-0.9-0.5-1.6v-3.1h-0.9v-1.1h0.9v-1.6h1.3v1.6h1.5
			v1.1h-1.5v3.1c0,0.4,0.1,0.6,0.2,0.7s0.4,0.2,0.7,0.2H108.1z"/>
		<path class="st0" d="M113.8,78.5c0.5,0.3,0.9,0.6,1.1,1.1c0.3,0.5,0.4,1,0.4,1.7c0,0.7-0.1,1.2-0.4,1.7c-0.3,0.5-0.6,0.9-1.1,1.1
			c-0.5,0.3-1,0.4-1.6,0.4c-0.6,0-1.1-0.1-1.6-0.4s-0.9-0.6-1.1-1.1c-0.3-0.5-0.4-1.1-0.4-1.7s0.1-1.2,0.4-1.7
			c0.3-0.5,0.7-0.9,1.1-1.1c0.5-0.3,1-0.4,1.6-0.4C112.8,78.1,113.3,78.2,113.8,78.5z M111.3,79.4c-0.3,0.2-0.5,0.4-0.7,0.7
			c-0.2,0.3-0.3,0.7-0.3,1.1c0,0.5,0.1,0.8,0.3,1.2c0.2,0.3,0.4,0.5,0.7,0.7c0.3,0.2,0.6,0.2,0.9,0.2c0.3,0,0.6-0.1,0.9-0.2
			c0.3-0.2,0.5-0.4,0.7-0.7s0.3-0.7,0.3-1.2c0-0.5-0.1-0.8-0.3-1.1s-0.4-0.5-0.7-0.7c-0.3-0.2-0.6-0.2-0.9-0.2
			C111.8,79.2,111.5,79.3,111.3,79.4z"/>
		<path class="st0" d="M121.8,78.8c0.4,0.5,0.7,1.1,0.7,2v3.6h-1.3v-3.5c0-0.6-0.1-1-0.4-1.3c-0.3-0.3-0.7-0.5-1.2-0.5
			c-0.5,0-0.9,0.2-1.2,0.5c-0.3,0.3-0.5,0.8-0.5,1.4v3.3h-1.3v-6.2h1.3v1.4c0.2-0.5,0.4-0.8,0.8-1.1c0.4-0.3,0.8-0.4,1.4-0.4
			C120.8,78.1,121.4,78.3,121.8,78.8z"/>
	</g>
</g>
</svg>
