<?xml version="1.0" encoding="utf-8"?>
<!-- Generator: Adobe Illustrator 25.2.1, SVG Export Plug-In . SVG Version: 6.00 Build 0)  -->
<svg version="1.1" id="Layer_1" xmlns="http://www.w3.org/2000/svg" xmlns:xlink="http://www.w3.org/1999/xlink" x="0px" y="0px"
	 viewBox="0 0 145 110" style="enable-background:new 0 0 145 110;" xml:space="preserve">
<style type="text/css">
	.st0{fill:#E8E8ED;}
	.st1{fill:#FFFFFF;}
	.st2{opacity:0.85;}
	.st3{fill:#D3D6E0;}
	.st4{fill:none;stroke:#D3D6E0;stroke-width:0.5;stroke-miterlimit:10;}
	.st5{fill:#0066FF;}
	.st6{fill:#B4B7C1;}
	.st7{fill:#EABE12;}
	.st8{opacity:0.5;fill:#FFFFFF;enable-background:new    ;}
</style>
<g>
	<g>
		<rect class="st0" width="145" height="110"/>
	</g>
	<g>
		<g>
			<path class="st1" d="M15,89.5v-69c0-3,2.5-5.5,5.5-5.5h104c3,0,5.5,2.5,5.5,5.5v69c0,3-2.5,5.5-5.5,5.5h-104
				C17.5,95,15,92.5,15,89.5z"/>
		</g>
		<g>
			<g>
				<g class="st2">
					<path class="st3" d="M114.7,68.5H26c-0.5,0-1-0.4-1-1l0,0c0-0.6,0.5-1,1-1h88.7c0.6,0,1,0.4,1,1l0,0
						C115.7,68.1,115.3,68.5,114.7,68.5z"/>
				</g>
				<g class="st2">
					<path class="st3" d="M104.7,76.5H26c-0.5,0-1-0.4-1-1l0,0c0-0.6,0.5-1,1-1h78.7c0.6,0,1,0.4,1,1l0,0
						C105.7,76.1,105.3,76.5,104.7,76.5z"/>
				</g>
				<g class="st2">
					<path class="st3" d="M79.7,84.5H26c-0.5,0-1-0.4-1-1l0,0c0-0.6,0.5-1,1-1h53.7c0.6,0,1,0.4,1,1l0,0
						C80.7,84.1,80.3,84.5,79.7,84.5z"/>
				</g>
			</g>
			<path class="st4" d="M50,53.5H30c-1.7,0-3-1.4-3-3v-20c0-1.7,1.4-3,3-3h20c1.7,0,3,1.4,3,3v20C53,52.2,51.7,53.5,50,53.5z"/>
			<path class="st5" d="M48,51.5H28c-1.7,0-3-1.4-3-3v-20c0-1.7,1.4-3,3-3h20c1.7,0,3,1.4,3,3v20C51,50.2,49.7,51.5,48,51.5z"/>
			<g>
				<g>
					<path class="st6" d="M112.7,34.1h-53c-1.1,0-2-0.9-2-2l0,0c0-1.1,0.9-2,2-2h53.1c1.1,0,2,0.9,2,2l0,0
						C114.7,33.2,113.8,34.1,112.7,34.1z"/>
				</g>
				<g>
					<g>
						<path class="st7" d="M61.7,41.1l0.9,1.8l2,0.3c0.4,0,0.5,0.5,0.2,0.8l-1.5,1.4l0.3,2c0.1,0.4-0.3,0.6-0.6,0.5L61.2,47
							l-1.8,0.9c-0.3,0.2-0.7-0.1-0.6-0.5l0.3-2L57.8,44c-0.3-0.2-0.1-0.7,0.2-0.8l2-0.3l0.9-1.8C61.1,40.8,61.5,40.8,61.7,41.1z"/>
						<path class="st7" d="M70.6,41.1l0.9,1.8l2,0.3c0.4,0,0.5,0.5,0.2,0.8l-1.4,1.4l0.3,2c0.1,0.4-0.3,0.6-0.6,0.5L70.2,47
							l-1.8,0.9c-0.3,0.2-0.7-0.1-0.6-0.5l0.3-2L66.7,44c-0.3-0.2-0.1-0.7,0.2-0.8l2-0.3l0.9-1.8C69.9,40.8,70.4,40.8,70.6,41.1z"/>
						<path class="st7" d="M79.4,41.1l0.9,1.8l2,0.3c0.4,0,0.5,0.5,0.2,0.8l-1.4,1.4l0.3,2c0.1,0.4-0.3,0.6-0.6,0.5l-1.8-1l-1.8,0.9
							c-0.3,0.2-0.7-0.1-0.6-0.5l0.3-2L75.5,44c-0.3-0.2-0.1-0.7,0.2-0.8l2-0.3l0.9-1.8C78.8,40.8,79.3,40.8,79.4,41.1z"/>
						<path class="st7" d="M88.3,41.1l0.9,1.8l2,0.3c0.4,0,0.5,0.5,0.2,0.8L90,45.4l0.3,2c0.1,0.4-0.3,0.6-0.6,0.5L87.9,47l-1.8,0.9
							c-0.3,0.2-0.7-0.1-0.6-0.5l0.3-2L84.4,44c-0.3-0.2-0.1-0.7,0.2-0.8l2-0.3l0.9-1.8C87.7,40.8,88.2,40.8,88.3,41.1z"/>
						<path class="st7" d="M100.1,44l-1.4,1.4l0.3,2c0.1,0.3-0.2,0.5-0.4,0.5c-0.1,0-0.1,0-0.2,0L96.6,47l-1.8,0.9
							c-0.1,0-0.1,0-0.2,0c-0.2,0-0.5-0.2-0.4-0.5l0.3-2L93,44c-0.3-0.2-0.1-0.7,0.2-0.8l2-0.3l0.9-1.8c0.1-0.2,0.2-0.2,0.4-0.2
							c0.2,0,0.3,0.1,0.4,0.2l0.9,1.8l2,0.3C100.2,43.3,100.3,43.7,100.1,44z"/>
					</g>
				</g>
			</g>
			<path class="st8" d="M38,51.5c-3.3,0-6.6,0-10,0c-0.6,0-0.7-0.1-0.7-0.7c0.1-2.2,1.7-4,3.9-4.6c1-0.2,2-0.5,2.9-0.7
				c0.2-0.1,0.3-0.2,0.4-0.4c0.2-0.6,0.2-1-0.3-1.6c-0.6-0.7-0.9-1.5-1.1-2.4c0-0.2-0.1-0.3-0.3-0.3c-0.5-0.2-0.8-0.5-0.8-1
				c-0.1-0.6-0.2-1.3-0.2-1.9c0-0.6,0.2-1,0.7-1.3c0.2-0.1,0.2-0.2,0.2-0.4c-0.1-0.6-0.2-1.2-0.1-1.9c0.1-1.7,0.9-2.7,2.5-3
				c0.2,0,0.4-0.1,0.7-0.1c0.7,0,1.3-0.3,2-0.5c1.6-0.6,3.2-0.7,4.8,0c0.8,0.4,1.3,1.1,1.5,1.9c0.2,0.7,0,1.3-0.5,1.8
				c-0.2,0.2-0.4,0.5-0.3,0.8c0,0.2,0,0.3,0,0.5c0,0.4-0.1,0.7,0.4,1c0.3,0.2,0.5,0.5,0.4,0.9c0,0.7-0.1,1.4-0.3,2.2
				c-0.1,0.4-0.3,0.7-0.7,0.8c-0.2,0.1-0.3,0.2-0.3,0.5c-0.2,1.1-0.7,2-1.4,2.8c-0.2,0.2-0.2,0.4-0.2,0.6c0.1,0.6,0.4,0.9,1,1
				c0.9,0.2,1.8,0.4,2.8,0.7c2,0.6,3.5,2.3,3.6,4.4c0.1,0.7-0.1,0.9-0.8,0.9C44.6,51.5,41.3,51.5,38,51.5z"/>
		</g>
	</g>
</g>
</svg>
