<?xml version="1.0" encoding="utf-8"?>
<!-- Generator: Adobe Illustrator 25.2.1, SVG Export Plug-In . SVG Version: 6.00 Build 0)  -->
<svg version="1.1" id="Layer_1" xmlns="http://www.w3.org/2000/svg" xmlns:xlink="http://www.w3.org/1999/xlink" x="0px" y="0px"
	 viewBox="0 0 145 110" style="enable-background:new 0 0 145 110;" xml:space="preserve">
<style type="text/css">
	.st0{fill:#E8E8ED;}
	.st1{fill:#FFFFFF;}
	.st2{opacity:0.85;}
	.st3{fill:#D3D6E0;}
	.st4{fill:#B4B7C1;}
	.st5{fill:#EABE12;}
	.st6{fill:#0066FF;}
	.st7{opacity:0.5;fill:#FFFFFF;enable-background:new    ;}
	.st8{fill:none;}
</style>
<g>
	<g>
		<rect class="st0" width="145" height="110"/>
	</g>
	<g>
		<path class="st1" d="M15,89.5v-69c0-3,2.5-5.5,5.5-5.5h104c3,0,5.5,2.5,5.5,5.5v69c0,3-2.5,5.5-5.5,5.5h-104
			C17.5,95,15,92.5,15,89.5z"/>
	</g>
	<g>
		<g class="st2">
			<path class="st3" d="M116.8,73H28.2c-0.5,0-1-0.4-1-1l0,0c0-0.6,0.5-1,1-1h88.7c0.6,0,1,0.4,1,1l0,0
				C117.8,72.5,117.4,73,116.8,73z"/>
		</g>
		<g class="st2">
			<path class="st3" d="M111.8,81H33.2c-0.5,0-1-0.4-1-1l0,0c0-0.6,0.5-1,1-1h78.7c0.6,0,1,0.4,1,1l0,0
				C112.8,80.5,112.4,81,111.8,81z"/>
		</g>
		<g class="st2">
			<path class="st3" d="M99.3,89H45.6c-0.5,0-1-0.4-1-1l0,0c0-0.6,0.5-1,1-1h53.7c0.6,0,1,0.4,1,1l0,0C100.3,88.5,99.9,89,99.3,89z"
				/>
		</g>
	</g>
	<g>
		<g>
			<path class="st4" d="M95.1,55.1H49.9c-0.9,0-1.7-0.8-1.7-1.7l0,0c0-0.9,0.8-1.7,1.7-1.7h45.2c0.9,0,1.7,0.8,1.7,1.7l0,0
				C96.8,54.4,96,55.1,95.1,55.1z"/>
		</g>
		<g>
			<g>
				<path class="st5" d="M57.5,59.3l0.7,1.5L60,61c0.3,0,0.4,0.4,0.2,0.6L59,62.8l0.3,1.7c0,0.3-0.3,0.5-0.5,0.4l-1.5-0.8l-1.5,0.8
					c-0.3,0.1-0.6-0.1-0.5-0.4l0.3-1.7l-1.2-1.2C54,61.4,54.2,61,54.5,61l1.7-0.2l0.7-1.5C57,59,57.4,59,57.5,59.3z"/>
				<path class="st5" d="M65.2,59.3l0.7,1.5l1.7,0.2c0.3,0,0.4,0.4,0.2,0.6l-1.2,1.2l0.3,1.7c0.1,0.3-0.3,0.5-0.5,0.4l-1.5-0.8
					l-1.5,0.8c-0.3,0.1-0.6-0.1-0.5-0.4l0.3-1.7L62,61.6c-0.2-0.2-0.1-0.6,0.2-0.6l1.7-0.2l0.7-1.5C64.7,59,65.1,59,65.2,59.3z"/>
				<path class="st5" d="M72.9,59.3l0.7,1.5l1.7,0.2c0.3,0,0.4,0.4,0.2,0.6l-1.2,1.2l0.3,1.7c0.1,0.3-0.3,0.5-0.5,0.4l-1.5-0.8
					l-1.5,0.8c-0.3,0.1-0.6-0.1-0.5-0.4l0.3-1.7l-1.2-1.2c-0.2-0.2-0.1-0.6,0.2-0.6l1.7-0.2l0.7-1.5C72.4,59,72.8,59,72.9,59.3z"/>
				<path class="st5" d="M80.6,59.3l0.7,1.5L83,61c0.3,0,0.4,0.4,0.2,0.6L82,62.8l0.3,1.7c0.1,0.3-0.3,0.5-0.5,0.4l-1.5-0.8
					l-1.5,0.8c-0.3,0.1-0.6-0.1-0.5-0.4l0.3-1.7l-1.2-1.2c-0.2-0.2-0.1-0.6,0.2-0.6l1.7-0.2l0.7-1.5C80.1,59,80.5,59,80.6,59.3z"/>
				<path class="st5" d="M90.7,61.6l-1.2,1.2l0.3,1.7c0,0.2-0.2,0.4-0.4,0.4c-0.1,0-0.1,0-0.2,0l-1.5-0.8l-1.5,0.8
					c-0.1,0-0.1,0-0.2,0c-0.2,0-0.4-0.2-0.4-0.4l0.3-1.7l-1.2-1.2c-0.2-0.2-0.1-0.6,0.2-0.6l1.7-0.2l0.7-1.5
					c0.1-0.1,0.2-0.2,0.3-0.2c0.1,0,0.3,0.1,0.3,0.2l0.7,1.5l1.7,0.2C90.8,61.1,90.9,61.4,90.7,61.6z"/>
			</g>
		</g>
	</g>
	<path class="st6" d="M85.5,33.6c0,3.5-1.4,6.8-3.7,9.1l-0.1,0.1c-2.4,2.3-5.6,3.8-9.2,3.8l0,0c-3.6,0-6.9-1.5-9.3-3.9
		c-2.3-2.3-3.7-5.6-3.7-9.1c0-3.6,1.5-6.8,3.8-9.2c2.4-2.4,5.6-3.8,9.2-3.8s6.8,1.5,9.2,3.8C84.1,26.8,85.5,30,85.5,33.6z"/>
	<path class="st7" d="M81.8,42.7C81.8,42.7,81.7,42.8,81.8,42.7c-2.4,2.4-5.7,3.9-9.3,3.9l0,0c-3.6,0-6.9-1.5-9.3-3.9
		c0.7-0.7,1.5-1.2,2.6-1.4c1-0.2,2-0.5,2.9-0.7c0.2-0.1,0.3-0.2,0.4-0.4c0.2-0.6,0.2-1-0.3-1.6c-0.6-0.7-0.9-1.5-1.1-2.4
		c0-0.2-0.1-0.3-0.3-0.3c-0.5-0.2-0.8-0.5-0.8-1c-0.1-0.6-0.2-1.3-0.2-1.9c-0.1-0.6,0.2-1,0.7-1.3c0.2-0.1,0.2-0.2,0.2-0.4
		c-0.1-0.6-0.2-1.2-0.1-1.9c0.1-1.7,0.9-2.7,2.5-3c0.2,0,0.4-0.1,0.7-0.1c0.7,0,1.3-0.3,2-0.5c1.6-0.6,3.2-0.7,4.8,0.1
		c0.8,0.4,1.3,1.1,1.5,1.9c0.2,0.7,0.1,1.3-0.5,1.9c-0.2,0.2-0.4,0.5-0.3,0.8c0,0.2,0,0.3,0,0.5c0,0.4-0.1,0.7,0.4,1
		c0.3,0.2,0.5,0.6,0.4,0.9c0,0.7-0.1,1.4-0.3,2.2c-0.1,0.4-0.3,0.7-0.6,0.8c-0.2,0.1-0.3,0.2-0.3,0.5c-0.2,1.1-0.7,2-1.4,2.8
		c-0.2,0.2-0.2,0.4-0.2,0.6c0.1,0.6,0.4,0.9,1,1c0.9,0.2,1.8,0.4,2.7,0.7C80.4,41.6,81.2,42.1,81.8,42.7z"/>
	<path class="st8" d="M72.5,46.6L72.5,46.6c-7.2,0-13-5.8-13-13l0,0c0-7.2,5.8-13,13-13l0,0c7.2,0,13,5.8,13,13l0,0
		C85.5,40.8,79.7,46.6,72.5,46.6z"/>
</g>
</svg>
