<?xml version="1.0" encoding="utf-8"?>
<!-- Generator: Adobe Illustrator 25.2.1, SVG Export Plug-In . SVG Version: 6.00 Build 0)  -->
<svg version="1.1" id="Layer_1" xmlns="http://www.w3.org/2000/svg" xmlns:xlink="http://www.w3.org/1999/xlink" x="0px" y="0px"
	 viewBox="0 0 145 110" style="enable-background:new 0 0 145 110;" xml:space="preserve">
<style type="text/css">
	.st0{fill:#E8E8ED;}
	.st1{fill:#FFFFFF;}
	.st2{opacity:0.85;}
	.st3{fill:#D3D6E0;}
	.st4{fill:#EABE18;}
	.st5{fill:#B4B7C1;}
</style>
<g>
	<g>
		<rect class="st0" width="145" height="110"/>
	</g>
	<g>
		<path class="st1" d="M15,89.5v-69c0-3,2.5-5.5,5.5-5.5h104c3,0,5.5,2.5,5.5,5.5v69c0,3-2.5,5.5-5.5,5.5h-104
			C17.5,95,15,92.5,15,89.5z"/>
	</g>
	<g>
		<g>
			<g>
				<g class="st2">
					<path class="st3" d="M119.3,42.5H25.7c-0.5,0-1-0.5-1-1l0,0c0-0.5,0.5-1,1-1h93.7c0.6,0,1,0.5,1,1l0,0
						C120.3,42.1,119.9,42.5,119.3,42.5z"/>
				</g>
				<g class="st2">
					<path class="st3" d="M114.3,50.5H30.7c-0.5,0-1-0.5-1-1l0,0c0-0.5,0.5-1,1-1h83.7c0.6,0,1,0.5,1,1l0,0
						C115.3,50.1,114.9,50.5,114.3,50.5z"/>
				</g>
				<g class="st2">
					<path class="st3" d="M101.8,58.5H43.1c-0.5,0-1-0.5-1-1l0,0c0-0.5,0.5-1,1-1h58.7c0.6,0,1,0.5,1,1l0,0
						C102.8,58.1,102.4,58.5,101.8,58.5z"/>
				</g>
			</g>
			<g>
				<g>
					<path class="st4" d="M51.2,24.2l1.1,2.1l2.4,0.4c0.4,0.1,0.6,0.6,0.3,0.9l-1.7,1.7l0.4,2.4c0.1,0.4-0.4,0.7-0.8,0.6l-2.1-1.1
						l-2.1,1.1c-0.4,0.2-0.8-0.1-0.8-0.5l0.4-2.4l-1.7-1.7c-0.3-0.3-0.1-0.8,0.3-0.9l2.4-0.4l1.1-2.1C50.4,23.9,51,23.9,51.2,24.2z"
						/>
					<path class="st4" d="M62.1,24.2l1.1,2.1l2.4,0.4c0.4,0.1,0.6,0.6,0.3,0.9l-1.7,1.7l0.4,2.4c0.1,0.4-0.4,0.7-0.8,0.6l-2.1-1.1
						l-2.1,1.1c-0.4,0.2-0.8-0.1-0.8-0.5l0.4-2.4l-1.7-1.7c-0.3-0.3-0.1-0.8,0.3-0.9l2.4-0.4l1.1-2.1C61.4,23.9,62,23.9,62.1,24.2z"
						/>
					<path class="st4" d="M73.1,24.2l1.1,2.1l2.4,0.4c0.4,0.1,0.6,0.6,0.3,0.9l-1.7,1.7l0.4,2.4c0.1,0.4-0.4,0.7-0.8,0.6l-2.1-1.1
						l-2.1,1.1c-0.4,0.2-0.8-0.1-0.8-0.5l0.4-2.4l-1.7-1.7c-0.3-0.3-0.1-0.8,0.3-0.9l2.4-0.4l1.1-2.1C72.4,23.9,72.9,23.9,73.1,24.2
						z"/>
					<path class="st4" d="M84.1,24.2l1.1,2.1l2.4,0.4c0.4,0.1,0.6,0.6,0.3,0.9l-1.7,1.7l0.4,2.4c0.1,0.4-0.4,0.7-0.8,0.6l-2.1-1.1
						l-2.1,1.1c-0.4,0.2-0.8-0.1-0.8-0.5l0.4-2.4l-1.7-1.7c-0.3-0.3-0.1-0.8,0.3-0.9l2.4-0.4l1.1-2.1C83.4,23.9,83.9,23.9,84.1,24.2
						z"/>
					<path class="st4" d="M98.5,27.6l-1.7,1.7l0.4,2.4c0.1,0.3-0.2,0.6-0.5,0.6c-0.1,0-0.2,0-0.2-0.1l-2.1-1.1l-2.1,1.1
						c-0.1,0-0.2,0.1-0.2,0.1c-0.3,0-0.6-0.3-0.5-0.6l0.4-2.4l-1.7-1.7c-0.3-0.3-0.1-0.8,0.3-0.9l2.4-0.4l1.1-2.1
						c0.1-0.2,0.3-0.3,0.5-0.3s0.4,0.1,0.5,0.3l1.1,2.1l2.4,0.4C98.6,26.8,98.8,27.3,98.5,27.6z"/>
				</g>
			</g>
		</g>
		<g>
			<g>
				<path class="st5" d="M99.7,78.6H45.3c-0.9,0-1.7-0.8-1.7-1.7v-0.6c0-0.9,0.8-1.7,1.7-1.7h54.3c0.9,0,1.7,0.8,1.7,1.7v0.6
					C101.4,77.8,100.6,78.6,99.7,78.6z"/>
			</g>
			<g class="st2">
				<path class="st3" d="M89.9,86H55.1c-0.5,0-1-0.4-1-1l0,0c0-0.6,0.5-1,1-1h34.7c0.6,0,1,0.4,1,1l0,0C90.9,85.6,90.4,86,89.9,86z"
					/>
			</g>
		</g>
	</g>
</g>
</svg>
