<?xml version="1.0" encoding="utf-8"?>
<!-- Generator: Adobe Illustrator 25.2.1, SVG Export Plug-In . SVG Version: 6.00 Build 0)  -->
<svg version="1.1" id="Layer_1" xmlns="http://www.w3.org/2000/svg" xmlns:xlink="http://www.w3.org/1999/xlink" x="0px" y="0px"
	 viewBox="0 0 145 110" style="enable-background:new 0 0 145 110;" xml:space="preserve">
<style type="text/css">
	.st0{fill:#E8E8ED;}
	.st1{fill:#FFFFFF;}
	.st2{opacity:0.85;}
	.st3{fill:#D3D6E0;}
	.st4{fill:#B4B7C1;}
	.st5{fill:#EABE12;}
	.st6{fill:#0066FF;}
	.st7{fill:#EE8080;}
	.st8{opacity:0.5;fill:#FFFFFF;enable-background:new    ;}
</style>
<g>
	<g>
		<g>
			<rect class="st0" width="145" height="110"/>
		</g>
		<g>
			<path class="st1" d="M12.6,89.5v-69c0-3,2.5-5.5,5.5-5.5h108.8c3,0,5.5,2.5,5.5,5.5v69c0,3-2.5,5.5-5.5,5.5H18.1
				C15.1,95,12.6,92.5,12.6,89.5z"/>
		</g>
		<g>
			<g>
				<g>
					<g class="st2">
						<path class="st3" d="M122.8,66.2H71.6c-0.6,0-1-0.4-1-1l0,0c0-0.6,0.4-1,1-1h51.2c0.6,0,1,0.4,1,1l0,0
							C123.8,65.8,123.4,66.2,122.8,66.2z"/>
					</g>
					<g class="st2">
						<path class="st3" d="M122.8,58.2H71.6c-0.6,0-1-0.5-1-1l0,0c0-0.5,0.4-1,1-1h51.2c0.6,0,1,0.5,1,1l0,0
							C123.8,57.8,123.4,58.2,122.8,58.2z"/>
					</g>
					<g class="st2">
						<path class="st3" d="M117.8,74.2H71.6c-0.6,0-1-0.4-1-1l0,0c0-0.6,0.4-1,1-1h46.2c0.6,0,1,0.4,1,1l0,0
							C118.8,73.8,118.4,74.2,117.8,74.2z"/>
					</g>
					<g class="st2">
						<path class="st3" d="M105.3,82.2H71.6c-0.6,0-1-0.4-1-1l0,0c0-0.6,0.4-1,1-1h33.7c0.6,0,1,0.4,1,1l0,0
							C106.3,81.8,105.9,82.2,105.3,82.2z"/>
					</g>
				</g>
				<g>
					<g>
						<path class="st4" d="M120.2,31.8H72.7c-1.1,0-2-0.9-2-2l0,0c0-1.1,0.9-2,2-2h47.6c1.1,0,2,0.9,2,2l0,0
							C122.2,30.9,121.3,31.8,120.2,31.8z"/>
					</g>
					<g>
						<g>
							<path class="st5" d="M75,37.8l0.9,1.9L78,40c0.4,0.1,0.5,0.5,0.3,0.8l-1.5,1.5l0.4,2.1c0.1,0.4-0.3,0.7-0.7,0.5l-1.9-1
								l-1.9,1c-0.3,0.2-0.7-0.1-0.7-0.5l0.4-2.1l-1.5-1.5c-0.3-0.3-0.1-0.7,0.3-0.8l2.1-0.3l0.9-1.9C74.3,37.5,74.8,37.5,75,37.8z"
								/>
							<path class="st5" d="M84.4,37.8l0.9,1.9l2.1,0.3c0.4,0.1,0.5,0.5,0.3,0.8l-1.5,1.5l0.4,2.1c0.1,0.4-0.3,0.7-0.7,0.5L84,44
								l-1.9,1c-0.3,0.2-0.7-0.1-0.7-0.5l0.4-2.1l-1.5-1.5c-0.3-0.3-0.1-0.7,0.3-0.8l2.1-0.3l0.9-1.9C83.8,37.5,84.2,37.5,84.4,37.8
								z"/>
							<path class="st5" d="M93.9,37.8l0.9,1.9l2.1,0.3c0.4,0.1,0.5,0.5,0.3,0.8l-1.5,1.5l0.4,2.1c0.1,0.4-0.3,0.7-0.7,0.5l-1.9-1
								l-1.9,1c-0.3,0.2-0.7-0.1-0.7-0.5l0.4-2.1l-1.5-1.5c-0.3-0.3-0.1-0.7,0.3-0.8l2.1-0.3l0.9-1.9C93.2,37.5,93.7,37.5,93.9,37.8
								z"/>
							<path class="st5" d="M103.3,37.8l0.9,1.9l2.1,0.3c0.4,0.1,0.5,0.5,0.3,0.8l-1.5,1.5l0.4,2.1c0.1,0.4-0.3,0.7-0.7,0.5l-1.9-1
								l-1.9,1c-0.3,0.2-0.7-0.1-0.7-0.5l0.4-2.1l-1.5-1.5c-0.3-0.3-0.1-0.7,0.3-0.8l2.1-0.3l0.9-1.9
								C102.6,37.5,103.1,37.5,103.3,37.8z"/>
							<path class="st5" d="M115.8,40.9l-1.5,1.5l0.4,2.1c0.1,0.3-0.2,0.5-0.5,0.5c-0.1,0-0.1,0-0.2,0l-1.9-1l-1.9,1
								c-0.1,0-0.1,0-0.2,0c-0.3,0-0.5-0.2-0.5-0.5l0.4-2.1l-1.5-1.5c-0.3-0.3-0.1-0.7,0.3-0.8l2.1-0.3l0.9-1.9
								c0.1-0.2,0.2-0.3,0.4-0.3s0.3,0.1,0.4,0.3l0.9,1.9l2.1,0.3C115.9,40.1,116.1,40.6,115.8,40.9z"/>
						</g>
					</g>
				</g>
			</g>
			<g>
				<g>
					<path class="st6" d="M62.8,40.5v29.1c0,3.6-2.9,6.6-6.5,6.7c-0.1,0-0.1,0-0.2,0H27c-0.1,0-0.2,0-0.2,0
						c-3.6-0.1-6.5-3.1-6.5-6.7V40.5c0-3.7,3-6.7,6.7-6.7h29.1C59.8,33.8,62.8,36.8,62.8,40.5z"/>
				</g>
			</g>
		</g>
		<circle class="st7" cx="57.3" cy="35" r="7.2"/>
		<g>
			<path class="st1" d="M57.8,34.3v-1.8c0-0.4,0.3-0.7,0.7-0.7h1.8c0.4,0,0.7,0.3,0.7,0.7v3.4c0,1.2-1,2.3-2.3,2.3h-0.1
				c-0.2,0-0.3-0.2-0.3-0.3v-0.7c0-0.2,0.2-0.3,0.3-0.3h0.1c0.5,0,0.9-0.4,0.9-0.9v-1h-1.1C58.1,35,57.8,34.7,57.8,34.3z M53.7,34.3
				v-1.8c0-0.4,0.3-0.7,0.7-0.7h1.8c0.4,0,0.7,0.3,0.7,0.7v3.4c0,1.2-1,2.3-2.3,2.3h-0.1c-0.2,0-0.3-0.2-0.3-0.3v-0.7
				c0-0.2,0.2-0.3,0.3-0.3h0.1c0.5,0,0.9-0.4,0.9-0.9v-1h-1.1C54,35,53.7,34.7,53.7,34.3z"/>
		</g>
	</g>
	<path class="st8" d="M56.1,69.7c-0.2-1.3-1.1-2.4-2.4-2.8c-1.9-0.6-4-1.3-5.9-1.8l0,0l-0.7-0.8L45,63.6c-0.1-0.6-0.2-1.3-0.2-2.1
		l0.2-0.2c1.3-1.2,2.3-2.7,2.8-4.3v0.1c-0.1,1.4-0.3,2.9-1.2,4c-0.1,0.1,0,0.2,0.1,0.2c0.9-1,1.4-2.1,1.5-3.4c0-0.4,0.1-0.9,0.1-1.3
		c0.1,0,0.2,0,0.3-0.1c0.2-0.2,0.3-0.4,0.4-0.7c0.4-1.2,0.5-2.8,0.6-4.5c0-0.2-0.3-0.4-0.5-0.3c-0.1-0.1-0.1,0-0.2,0
		c0-0.4,0.1-0.8,0.1-1.2c0.4-1.9,0.1-3.8-1.2-5.4c-0.3-0.4-0.8-0.8-1.3-1.2c-0.1-0.2-0.3-0.4-0.4-0.6c-0.8-0.9-2.1-1.6-3.4-1.3
		c-0.4,0.1-0.7,0.3-1,0.5c0-0.1,0-0.2-0.1-0.2c-0.1-0.5-0.3-0.9-0.6-1.3c-0.5-0.5-1.3-0.7-2-0.5c-0.2,0.1-0.5,0.2-0.7,0.3
		c-0.3-0.2-0.7-0.4-1-0.4c-0.5,0-0.9,0.3-1.2,0.7c-0.4,0.1-0.7,0.3-1,0.6c-0.1,0.2-0.2,0.3-0.2,0.5c-0.1,0.1-0.2,0.3-0.3,0.5
		c-0.2,0.5,0,0.9,0.4,1.3c0,0.3,0,0.5,0,0.8c-0.7,0.7-1.3,1.6-1.6,2.4c-0.4,1-0.1,2.1,0.1,3.1c0.1,0.4,0.2,0.8,0.3,1.3
		c-0.2-0.1-0.5,0-0.5,0.3c0,1.7,0.2,3.3,0.6,4.5c0.1,0.3,0.2,0.5,0.4,0.7l0,0c0,0.5,0.1,1,0.2,1.5c0.2,1.4,0.9,2.7,0.7,4.2h0.1
		c0.3-1.3-0.1-2.5-0.3-3.7c-0.1-0.6-0.2-1.3-0.2-1.9l0.1-0.1c0.5,1.9,1.5,3.7,3,5l0.2,0.2c0,0.8-0.1,1.4-0.2,2L36,64.3L35.3,65
		c-2,0.6-4.1,1.2-6,1.9c-1.2,0.4-2.1,1.5-2.3,2.8c-0.1,0.6-0.2,3.8-0.3,6.5l0,0c0.1,0,0.1,0,0.2,0H56c0.1,0,0.1,0,0.2,0l0,0
		C56.3,73.4,56.2,70.3,56.1,69.7z M48.4,47.8L48.4,47.8L48.4,47.8L48.4,47.8z M46.5,44C46.5,44,46.4,44,46.5,44l-0.2-0.2
		C46.3,43.9,46.4,43.9,46.5,44z M35.2,42.8c-0.1-0.1-0.1-0.3-0.1-0.5c0,0.1,0.1,0.2,0.1,0.2C35.3,42.7,35.3,42.7,35.2,42.8z
		 M35.7,43c0,0.1,0,0.2,0,0.3l0,0C35.7,43.2,35.7,43.1,35.7,43z M35.4,43.9c0-0.2,0-0.3,0-0.4c0,0,0,0,0.1,0
		C35.5,43.6,35.5,43.8,35.4,43.9C35.5,43.9,35.5,43.9,35.4,43.9z M35.5,43.2C35.5,43.1,35.5,43.1,35.5,43.2L35.5,43.2
		c-0.1-0.2,0-0.3,0-0.4c0,0,0.1,0,0.1,0.1C35.6,43,35.5,43.1,35.5,43.2z M35.7,43.8L35.7,43.8C35.7,43.6,35.7,43.7,35.7,43.8
		C35.7,43.7,35.7,43.7,35.7,43.8C35.7,43.7,35.7,43.7,35.7,43.8z M36.3,43.4L36.3,43.4C36.3,43.5,36.2,43.5,36.3,43.4
		C36.2,43.5,36.2,43.4,36.3,43.4c-0.1-0.1-0.1-0.1-0.1-0.2C36.2,43.3,36.2,43.3,36.3,43.4L36.3,43.4z M36.3,42.4
		c0-0.1,0-0.2-0.1-0.3c0.1-0.1,0.2-0.2,0.2-0.2C36.4,42,36.3,42.2,36.3,42.4z M36.3,41.8C36.3,41.8,36.3,41.7,36.3,41.8
		c0.2-0.1,0.2-0.1,0.3-0.2C36.4,41.7,36.3,41.7,36.3,41.8z M36.8,41.8c0.1-0.1,0.1-0.2,0.2-0.4h0.1C37,41.5,36.9,41.7,36.8,41.8z
		 M37.1,40.9L37.1,40.9L37.1,40.9L37.1,40.9z M37.5,40.9C37.5,40.9,37.5,40.8,37.5,40.9c0.1,0,0.2,0,0.2,0
		C37.6,40.8,37.6,40.8,37.5,40.9z M37.7,40.4c-0.2,0-0.4,0-0.6,0H37c0.1,0,0.2-0.1,0.2-0.1c0.2-0.1,0.5,0,0.7,0.1
		C37.8,40.4,37.8,40.4,37.7,40.4z M39.7,40.6c-0.1,0-0.2,0-0.2,0c0.1,0,0.2,0,0.4,0C39.8,40.6,39.8,40.6,39.7,40.6z M39.9,40.7
		C39.9,40.7,40,40.6,39.9,40.7c0.1,0,0.2,0,0.2,0.1C40,40.7,40,40.7,39.9,40.7z M39.1,40.2c-0.1,0.1-0.3,0.2-0.4,0.2l-0.1-0.1
		c0.8-0.5,1.8-0.5,2.5,0.3c0,0,0,0.1,0.1,0.1c-0.2-0.2-0.5-0.2-0.7-0.3C40.1,40.1,39.6,40,39.1,40.2z M40.8,41.1
		c0-0.2-0.1-0.3-0.2-0.4c0.4,0.1,0.8,0.5,0.9,0.9c0,0.1,0,0.2,0,0.4C41.3,41.6,41.1,41.3,40.8,41.1z M45.2,43.4
		c-0.1-0.1-0.2-0.1-0.3-0.2c0.1,0,0.3,0.1,0.4,0.1c0,0.1,0.1,0.1,0.2,0.2C45.4,43.5,45.3,43.4,45.2,43.4z M42.8,41.8
		c0.3-0.1,0.7-0.1,1-0.1c0.6,0.1,1.1,0.4,1.6,0.8c-0.1-0.1-0.3-0.1-0.4-0.2c-0.2-0.2-0.4-0.3-0.7-0.3C43.8,41.9,43.3,41.9,42.8,41.8
		z"/>
</g>
</svg>
