<?xml version="1.0" encoding="utf-8"?>
<!-- Generator: Adobe Illustrator 25.2.1, SVG Export Plug-In . SVG Version: 6.00 Build 0)  -->
<svg version="1.1" id="Layer_1" xmlns="http://www.w3.org/2000/svg" xmlns:xlink="http://www.w3.org/1999/xlink" x="0px" y="0px"
	 viewBox="0 0 24 24" style="enable-background:new 0 0 24 24;" xml:space="preserve">
<style type="text/css">
	.st0{fill:url(#SVGID_1_);}
</style>
<g>
	<linearGradient id="SVGID_1_" gradientUnits="userSpaceOnUse" x1="0" y1="12" x2="24" y2="12">
		<stop  offset="0" style="stop-color:#00AFFA"/>
		<stop  offset="1" style="stop-color:#0954C0"/>
	</linearGradient>
	<path class="st0" d="M24,2.93v15.25c0,0.79-0.64,1.43-1.43,1.43h-8.1l-2.14,2.71c-0.19,0.24-0.55,0.24-0.74,0.01l-2.27-2.72H1.43
		C0.64,19.61,0,18.97,0,18.18V2.93C0,2.14,0.64,1.5,1.43,1.5h1.81c0.61,0,0.61,0.95,0,0.95H1.43c-0.26,0-0.48,0.21-0.48,0.48v15.25
		c0,0.26,0.21,0.48,0.48,0.48h8.11c0.14,0,0.28,0.06,0.37,0.17l2.04,2.44l1.92-2.43c0.09-0.11,0.23-0.18,0.37-0.18h8.34
		c0.26,0,0.48-0.21,0.48-0.48V2.93c0-0.26-0.21-0.48-0.48-0.48H7.16c-0.61,0-0.61-0.95,0-0.95h15.42C23.36,1.5,24,2.14,24,2.93z
		 M14.79,10.08l-0.93,1.12l0.09,1.45c0.07,1.12-1.63-0.06-2-0.06c-0.37-0.01-2.07,1.2-2,0.06l0.09-1.45l-0.93-1.12
		c-0.1-0.13-0.14-0.3-0.09-0.45c0.05-0.16,0.18-0.27,0.33-0.31l1.41-0.36l0.78-1.23c0.18-0.29,0.62-0.29,0.8,0l0.78,1.23l1.41,0.36
		c0.16,0.04,0.28,0.16,0.33,0.31C14.93,9.78,14.89,9.95,14.79,10.08z M13.58,10.05l-0.86-0.22c-0.35-0.09-0.59-0.68-0.76-0.96
		c-0.18,0.28-0.41,0.87-0.76,0.96l-0.86,0.22l0.57,0.69c0.08,0.09,0.12,0.21,0.11,0.33l-0.06,0.89c0.3-0.12,0.68-0.36,1-0.36
		c0.33,0,0.71,0.24,1,0.36l-0.06-0.89c-0.01-0.12,0.03-0.24,0.11-0.33L13.58,10.05z M2.97,9.31l1.41-0.36l0.78-1.23
		c0.18-0.29,0.62-0.29,0.8,0l0.78,1.23l1.41,0.36c0.33,0.08,0.47,0.5,0.25,0.76L7.47,11.2l0.09,1.45c0.07,1.12-1.63-0.06-2-0.06
		c-0.37-0.01-2.07,1.2-2,0.06l0.09-1.45l-0.93-1.12c-0.1-0.13-0.14-0.3-0.09-0.45C2.69,9.47,2.81,9.35,2.97,9.31z M3.93,10.05
		l0.57,0.69c0.08,0.09,0.12,0.21,0.11,0.33l-0.06,0.89l0.83-0.33c0.11-0.04,0.24-0.04,0.35,0l0.83,0.33l-0.06-0.89
		c-0.01-0.12,0.03-0.24,0.11-0.33l0.57-0.69L6.32,9.83C5.97,9.74,5.73,9.14,5.56,8.87C5.38,9.15,5.15,9.74,4.8,9.83L3.93,10.05z
		 M21.18,10.08l-0.93,1.12l0.09,1.45c0.07,1.12-1.63-0.06-2-0.06c-0.37-0.01-2.07,1.2-2,0.06l0.09-1.45l-0.93-1.12
		c-0.22-0.26-0.08-0.68,0.25-0.76l1.41-0.36l0.78-1.23c0.18-0.29,0.62-0.29,0.8,0l0.78,1.23l1.41,0.36
		c0.16,0.04,0.28,0.16,0.33,0.31C21.32,9.78,21.29,9.95,21.18,10.08z M19.97,10.05l-0.86-0.22c-0.35-0.09-0.59-0.68-0.76-0.96
		c-0.18,0.28-0.41,0.87-0.76,0.96l-0.86,0.22l0.57,0.69c0.08,0.09,0.12,0.21,0.11,0.33l-0.06,0.89l0.83-0.33
		c0.12-0.04,0.23-0.04,0.35,0l0.83,0.33l-0.06-0.89c-0.01-0.12,0.03-0.24,0.11-0.33L19.97,10.05z M4.94,2.37
		C5.3,2.62,5.78,2.26,5.67,1.85C5.61,1.65,5.43,1.51,5.23,1.5c-0.2-0.01-0.39,0.12-0.47,0.3C4.69,2.01,4.76,2.25,4.94,2.37z"/>
</g>
</svg>
