<?xml version="1.0" encoding="utf-8"?>
<!-- Generator: Adobe Illustrator 25.2.1, SVG Export Plug-In . SVG Version: 6.00 Build 0)  -->
<svg version="1.1" id="Layer_1" xmlns="http://www.w3.org/2000/svg" xmlns:xlink="http://www.w3.org/1999/xlink" x="0px" y="0px"
	 viewBox="0 0 320 160" style="enable-background:new 0 0 320 160;" xml:space="preserve">
<style type="text/css">
	.st0{fill:#FFFFFF;}
	.st1{fill:#FFFFFF;stroke:#E8E8E8;stroke-width:1.0348;stroke-miterlimit:10;}
	.st2{fill:#F7F7F7;}
	.st3{fill:#FFAA29;}
	.st4{fill:#969696;}
	.st5{fill:#261C35;}
	.st6{fill:#646464;}
	.st7{fill:#FFFFFF;enable-background:new    ;}
</style>
<rect class="st0" width="320" height="160"/>
<g>
	<g>
		<path class="st1" d="M61.7,7.6h180.1c9.1,0,16.6,7.5,16.6,16.6v128.3H78.3c-9.1,0-16.6-7.5-16.6-16.6V7.6z"/>
	</g>
	<path class="st2" d="M140.4,138.1c2.5-1.4,4.8-3.5,6.7-6.2c2.1-2.7,3.1-5.5,3.1-8.2c0-0.7-0.2-1.3-0.6-1.8c-0.4-0.5-1-0.7-1.9-0.7
		c-2.1,0-3.8-0.7-5.3-2.1c-1.4-1.4-2.1-3.3-2.1-5.4s0.7-3.7,2.1-5.1c1.4-1.4,3.3-2.1,5.3-2.1c2.9,0,5.2,1,6.8,3.2
		c1.8,2.1,2.6,4.8,2.6,8.2c0,4.7-1.2,8.9-3.8,12.6c-2.5,3.7-6.3,6.8-11.5,9.4L140.4,138.1z M161.9,138.1c2.5-1.4,4.8-3.5,6.7-6.2
		c2.1-2.7,3.1-5.5,3.1-8.2c0-0.7-0.2-1.3-0.6-1.8c-0.4-0.5-1-0.7-1.9-0.7c-2.1,0-3.8-0.7-5.3-2.1c-1.4-1.4-2.1-3.3-2.1-5.4
		s0.7-3.7,2.1-5.1c1.4-1.4,3.3-2.1,5.3-2.1c2.9,0,5.2,1,6.8,3.2c1.8,2.1,2.6,4.8,2.6,8.2c0,4.7-1.2,8.9-3.8,12.6
		c-2.5,3.7-6.3,6.8-11.5,9.4L161.9,138.1z"/>
	<path class="st3" d="M139.7,91.6l-1,2l-2.3,0.3c-0.4,0.1-0.6,0.5-0.3,0.8l1.7,1.6l-0.4,2.2c-0.1,0.4,0.4,0.7,0.7,0.5l2-1l2,1
		c0.4,0.2,0.8-0.1,0.7-0.5l-0.4-2.2l1.7-1.6c0.3-0.3,0.1-0.8-0.3-0.8l-2.3-0.3l-1-2C140.4,91.3,139.9,91.3,139.7,91.6z"/>
	<path class="st3" d="M150.1,91.6l-1,2l-2.3,0.3c-0.4,0.1-0.6,0.5-0.3,0.8l1.7,1.6l-0.4,2.2c-0.1,0.4,0.4,0.7,0.7,0.5l2-1l2,1
		c0.4,0.2,0.8-0.1,0.7-0.5l-0.4-2.2l1.7-1.6c0.3-0.3,0.1-0.8-0.3-0.8l-2.3-0.3l-1-2C150.7,91.3,150.2,91.3,150.1,91.6z"/>
	<path class="st3" d="M159.9,91.6l-1,2l-2.3,0.3c-0.4,0.1-0.6,0.5-0.3,0.8l1.7,1.6l-0.4,2.2c-0.1,0.4,0.4,0.7,0.7,0.5l2-1l2,1
		c0.4,0.2,0.8-0.1,0.7-0.5l-0.4-2.2l1.7-1.6c0.3-0.3,0.1-0.8-0.3-0.8l-2.3-0.3l-1-2C160.6,91.3,160.1,91.3,159.9,91.6z"/>
	<path class="st3" d="M169.7,91.6l-1,2l-2.3,0.3c-0.4,0.1-0.6,0.5-0.3,0.8l1.7,1.6l-0.4,2.2c-0.1,0.4,0.4,0.7,0.7,0.5l2-1l2,1
		c0.4,0.2,0.8-0.1,0.7-0.5l-0.4-2.2l1.7-1.6c0.3-0.3,0.1-0.8-0.3-0.8l-2.3-0.3l-1-2C170.5,91.3,169.9,91.3,169.7,91.6z"/>
	<path class="st3" d="M179.2,91.6l-1,2l-2.3,0.3c-0.4,0.1-0.6,0.5-0.3,0.8l1.7,1.6l-0.4,2.2c-0.1,0.4,0.4,0.7,0.7,0.5l2-1l2,1
		c0.4,0.2,0.8-0.1,0.7-0.5l-0.4-2.2l1.7-1.6c0.3-0.3,0.1-0.8-0.3-0.8l-2.3-0.3l-1-2C180,91.3,179.5,91.3,179.2,91.6z"/>
	<path class="st4" d="M146.1,82.8c0-1.4-2.2-0.8-2.2-1.9c0-0.4,0.3-0.6,0.7-0.6c0.5,0,0.7,0.3,0.7,0.6h0.6c-0.1-0.6-0.5-1-1.3-1
		c-0.8,0-1.3,0.4-1.3,1.1c0,1.4,2.2,0.8,2.2,1.9c0,0.4-0.3,0.6-0.8,0.6s-0.8-0.3-0.8-0.6h-0.4c0,0.6,0.6,1.1,1.3,1.1
		C145.7,83.9,146.1,83.4,146.1,82.8z"/>
	<path class="st4" d="M148.2,81.1c0.5,0,0.9,0.3,0.9,0.9h-2C147.3,81.6,147.7,81.1,148.2,81.1z M149.7,82.9h-0.5
		c-0.1,0.3-0.4,0.6-0.8,0.6c-0.5,0-0.9-0.3-1-0.9h2.5c0-0.1,0-0.2,0-0.3c0-0.8-0.6-1.4-1.4-1.4c-0.9,0-1.6,0.6-1.6,1.7
		c0,0.9,0.6,1.7,1.6,1.7C149,83.9,149.5,83.5,149.7,82.9z"/>
	<path class="st4" d="M152.7,83.9h0.5v-1.9c0-0.9-0.5-1.3-1.2-1.3c-0.4,0-0.8,0.2-1,0.5v-0.4h-0.5v3.1h0.5v-1.8c0-0.7,0.4-1,0.9-1
		s0.8,0.3,0.8,0.9V83.9z"/>
	<path class="st4" d="M154.1,83.9h0.5v-3.1h-0.5V83.9z M154.3,80.3c0.2,0,0.3-0.2,0.3-0.3s-0.1-0.3-0.3-0.3S154,79.9,154,80
		S154.1,80.3,154.3,80.3z"/>
	<path class="st4" d="M158.4,82.4c0-0.9-0.7-1.7-1.6-1.7c-0.9,0-1.6,0.6-1.6,1.7c0,0.9,0.6,1.7,1.6,1.7
		C157.8,84,158.4,83.3,158.4,82.4z M155.8,82.4c0-0.8,0.5-1.1,1-1.1c0.5,0,1,0.4,1,1.1c0,0.8-0.5,1.1-1,1.1
		C156.3,83.5,155.8,83.1,155.8,82.4z"/>
	<path class="st4" d="M159.6,82.2c0-0.7,0.4-0.9,0.8-0.9h0.1v-0.5c-0.5,0-0.8,0.2-1,0.5v-0.5H159v3.1h0.5L159.6,82.2L159.6,82.2z"/>
	<path class="st4" d="M165.4,83.9h0.5l-1.4-3.9h-0.6l-1.4,3.9h0.5l0.3-0.8h1.8L165.4,83.9z M164.9,82.6h-1.4l0.7-2L164.9,82.6z"/>
	<path class="st4" d="M167,82.2c0-0.7,0.4-0.9,0.8-0.9h0.1v-0.5c-0.5,0-0.8,0.2-1,0.5v-0.5h-0.5v3.1h0.5L167,82.2L167,82.2z"/>
	<path class="st4" d="M168.8,83c0,0.6,0.3,0.8,0.8,0.8h0.4v-0.4h-0.4c-0.3,0-0.4-0.1-0.4-0.4v-1.9h0.8v-0.4h-0.7V80h-0.5v0.8h-0.4
		v0.4h0.4V83L168.8,83z"/>
	<path class="st4" d="M170.8,83.9h0.5v-3.1h-0.5V83.9z M171,80.3c0.2,0,0.3-0.2,0.3-0.3s-0.1-0.3-0.3-0.3s-0.3,0.2-0.3,0.3
		S170.8,80.3,171,80.3z"/>
	<path class="st4" d="M174.4,83c0-1.1-1.9-0.7-1.9-1.4c0-0.2,0.2-0.4,0.6-0.4c0.4,0,0.6,0.2,0.6,0.5h0.5c0-0.6-0.5-0.9-1.1-0.9
		c-0.7,0-1.1,0.4-1.1,0.8c0,1.1,1.9,0.7,1.9,1.4c0,0.2-0.2,0.4-0.6,0.4c-0.4,0-0.7-0.2-0.7-0.5H172c0,0.6,0.5,0.9,1.2,0.9
		C173.9,83.9,174.4,83.5,174.4,83z"/>
	<path class="st4" d="M175.2,83c0,0.6,0.3,0.8,0.8,0.8h0.4v-0.4H176c-0.3,0-0.4-0.1-0.4-0.4v-1.9h0.8v-0.4h-0.8V80h-0.5v0.8h-0.4
		v0.4h0.4L175.2,83L175.2,83z"/>
	<path d="M121.7,66.3V73h3.3v-0.8h-2.3v-5.7L121.7,66.3L121.7,66.3z"/>
	<path d="M128.1,68.5c0.8,0,1.4,0.5,1.4,1.3h-2.9C126.8,68.9,127.4,68.5,128.1,68.5z M130.6,71.3h-1.1c-0.2,0.4-0.6,0.7-1.2,0.7
		c-0.8,0-1.4-0.5-1.4-1.3h4c0-0.2,0-0.3,0-0.5c0-1.6-1-2.6-2.6-2.6c-1.6,0-2.6,1-2.6,2.7c0,1.7,1.1,2.7,2.6,2.7
		C129.5,73,130.3,72.2,130.6,71.3z"/>
	<path d="M135.7,71.4c-0.1-1.9-3-1.3-3-2.4c0-0.3,0.3-0.6,0.9-0.6c0.6,0,0.9,0.3,0.9,0.7h1.1c-0.1-1-0.8-1.7-2.1-1.7
		c-1.2,0-2,0.7-2,1.6c0,2,3,1.3,3,2.4c0,0.3-0.3,0.6-0.9,0.6s-1-0.3-1-0.8h-1.1c0.1,0.9,0.9,1.7,2.2,1.7
		C135,73,135.7,72.3,135.7,71.4z"/>
	<path d="M136.8,72.9h1.1v-7h-1.1V72.9z"/>
	<path d="M139.4,72.9h1.1v-5.3h-1.1V72.9z M139.9,67c0.4,0,0.7-0.3,0.7-0.7s-0.3-0.7-0.7-0.7c-0.4,0-0.7,0.3-0.7,0.7
		C139.2,66.7,139.5,67,139.9,67z"/>
	<path d="M144.1,68.5c0.8,0,1.4,0.5,1.4,1.3h-2.9C142.7,68.9,143.3,68.5,144.1,68.5z M146.5,71.3h-1.1c-0.2,0.4-0.6,0.7-1.2,0.7
		c-0.8,0-1.4-0.5-1.4-1.3h4c0-0.2,0-0.3,0-0.5c0-1.6-1-2.6-2.6-2.6c-1.6,0-2.6,1-2.6,2.7c0,1.7,1.1,2.7,2.6,2.7
		C145.4,73,146.2,72.2,146.5,71.3z"/>
	<path d="M154.6,72.9h1.1l-2.4-6.6h-1.2l-2.4,6.6h1.1l0.5-1.3h2.8L154.6,72.9z M153.9,70.7h-2.2l1.1-3.1L153.9,70.7z"/>
	<path d="M156.8,72.9h1.1v-7h-1.1V72.9z"/>
	<path d="M161.6,68.5c0.8,0,1.4,0.5,1.4,1.3h-2.9C160.2,68.9,160.8,68.5,161.6,68.5z M164,71.3h-1.1c-0.2,0.4-0.6,0.7-1.2,0.7
		c-0.8,0-1.4-0.5-1.4-1.3h4c0-0.2,0-0.3,0-0.5c0-1.6-1-2.6-2.6-2.6s-2.6,1-2.6,2.7c0,1.7,1.1,2.7,2.6,2.7
		C162.9,73,163.7,72.2,164,71.3z"/>
	<path d="M167.9,72.9h1.2l-1.7-2.7l1.7-2.6H168l-1,1.8l-1.1-1.8h-1.2l1.7,2.7l-1.7,2.6h1.1l1-1.8L167.9,72.9z"/>
	<path d="M169.5,70.3c0,1.7,1.1,2.7,2.5,2.7c0.8,0,1.4-0.4,1.9-0.8V73h1.1v-5.3h-1.1v0.7c-0.3-0.4-0.9-0.8-1.9-0.8
		C170.7,67.6,169.5,68.6,169.5,70.3z M173.9,70.3c0,1.1-0.7,1.8-1.6,1.8c-0.8,0-1.6-0.6-1.6-1.8s0.8-1.8,1.6-1.8
		C173,68.5,173.9,69.1,173.9,70.3z"/>
	<path d="M180.1,72.9h1v-3.1c0-1.4-0.9-2.3-2.2-2.3c-0.6,0-1.2,0.2-1.6,0.7v-0.6h-1.1v5.3h1.1V70c0-0.9,0.5-1.4,1.3-1.4
		c0.8,0,1.3,0.5,1.3,1.4V72.9z"/>
	<path d="M182.1,70.3c0,1.7,1.1,2.7,2.5,2.7c0.8,0,1.4-0.4,1.9-0.8V73h1.1v-7h-1.1v2.5c-0.4-0.5-1.1-0.8-1.8-0.8
		C183.3,67.6,182.1,68.6,182.1,70.3z M186.5,70.3c0,1.1-0.7,1.8-1.6,1.8c-0.8,0-1.6-0.6-1.6-1.8s0.8-1.8,1.6-1.8
		C185.7,68.5,186.5,69.1,186.5,70.3z"/>
	<path d="M191.1,68.5c0.8,0,1.4,0.5,1.4,1.3h-2.9C189.9,68.9,190.4,68.5,191.1,68.5z M193.6,71.3h-1.1c-0.2,0.4-0.6,0.7-1.2,0.7
		c-0.8,0-1.4-0.5-1.4-1.3h4c0-0.2,0-0.3,0-0.5c0-1.6-1-2.6-2.6-2.6c-1.6,0-2.6,1-2.6,2.7c0,1.7,1.1,2.7,2.6,2.7
		C192.5,73,193.3,72.2,193.6,71.3z"/>
	<path d="M195.9,70.2c0-1.1,0.5-1.4,1.2-1.4h0.3v-1.1c-0.7,0-1.2,0.3-1.6,0.8v-0.7h-1.1V73h1.1V70.2z"/>
	<path class="st5" d="M179.7,38.9c0,5.6-2.4,10.7-6.1,14.2c-3.5,3.3-8.2,5.3-13.3,5.3c-5.2,0-9.8-2-13.3-5.3
		c-3.8-3.5-6.1-8.6-6.1-14.2c0-10.8,8.7-19.5,19.5-19.5C171,19.4,179.7,28.2,179.7,38.9z"/>
	<path class="st6" d="M90.2,118.7v0.6H88v-0.6H90.2z M88.2,114.9v4.4h-0.7v-4.4H88.2z"/>
	<path class="st6" d="M90.6,117.7L90.6,117.7c0-0.3,0-0.5,0.1-0.7s0.2-0.4,0.3-0.5c0.1-0.2,0.3-0.3,0.5-0.3c0.2-0.1,0.4-0.1,0.6-0.1
		s0.4,0,0.6,0.1c0.2,0.1,0.3,0.2,0.5,0.3c0.1,0.1,0.2,0.3,0.3,0.5c0.1,0.2,0.1,0.4,0.1,0.6v0.1c0,0.2,0,0.4-0.1,0.6
		c-0.1,0.2-0.2,0.4-0.3,0.5c-0.1,0.1-0.3,0.3-0.5,0.3c-0.2,0.1-0.4,0.1-0.6,0.1s-0.4,0-0.6-0.1c-0.2-0.1-0.3-0.2-0.5-0.3
		c-0.1-0.2-0.2-0.3-0.3-0.5C90.6,118.2,90.6,118,90.6,117.7z M91.3,117.7L91.3,117.7c0,0.2,0,0.3,0,0.5c0,0.1,0.1,0.2,0.1,0.3
		c0.1,0.1,0.1,0.2,0.2,0.2c0.1,0.1,0.2,0.1,0.3,0.1c0.1,0,0.2,0,0.3-0.1c0.1-0.1,0.2-0.1,0.2-0.2c0.1-0.1,0.1-0.2,0.1-0.3
		c0-0.1,0.1-0.3,0.1-0.4v-0.1c0-0.1,0-0.3-0.1-0.4c0-0.1-0.1-0.2-0.1-0.3s-0.1-0.2-0.2-0.2c-0.1-0.1-0.2-0.1-0.3-0.1s-0.2,0-0.3,0.1
		c-0.1,0.1-0.2,0.1-0.2,0.2c-0.1,0.1-0.1,0.2-0.1,0.3C91.3,117.4,91.3,117.5,91.3,117.7z"/>
	<path class="st6" d="M94.9,116.6v2.7h-0.7V116h0.7V116.6z M95.9,116v0.7h-0.1c-0.1,0-0.1,0-0.2,0c-0.1,0-0.2,0-0.3,0.1
		c-0.1,0-0.2,0.1-0.2,0.2c-0.1,0.1-0.1,0.1-0.1,0.2s-0.1,0.2-0.1,0.3h-0.2c0-0.2,0-0.4,0.1-0.6c0-0.2,0.1-0.3,0.2-0.4
		c0.1-0.1,0.2-0.2,0.3-0.3s0.3-0.1,0.4-0.1L95.9,116C95.8,116,95.9,116,95.9,116z"/>
	<path class="st6" d="M97.8,119.4c-0.2,0-0.4,0-0.6-0.1s-0.3-0.2-0.5-0.3c-0.1-0.1-0.2-0.3-0.3-0.5c-0.1-0.2-0.1-0.4-0.1-0.6v-0.1
		c0-0.2,0-0.5,0.1-0.7s0.2-0.4,0.3-0.5c0.1-0.2,0.3-0.3,0.5-0.3c0.2-0.1,0.4-0.1,0.6-0.1c0.2,0,0.4,0,0.6,0.1s0.3,0.2,0.4,0.3
		c0.1,0.1,0.2,0.3,0.2,0.5c0.1,0.2,0.1,0.4,0.1,0.6v0.3h-2.5v-0.5h1.9v-0.1c0-0.1,0-0.2-0.1-0.4c0-0.1-0.1-0.2-0.2-0.3
		s-0.2-0.1-0.4-0.1c-0.1,0-0.2,0-0.3,0.1c-0.1,0.1-0.2,0.1-0.2,0.2c-0.1,0.1-0.1,0.2-0.1,0.3s-0.1,0.3-0.1,0.4v0.1
		c0,0.1,0,0.3,0.1,0.4s0.1,0.2,0.2,0.3s0.2,0.2,0.3,0.2c0.1,0.1,0.2,0.1,0.4,0.1c0.2,0,0.3,0,0.4-0.1s0.2-0.2,0.3-0.3l0.4,0.4
		c-0.1,0.1-0.2,0.2-0.3,0.3c-0.1,0.1-0.2,0.2-0.4,0.2C98.2,119.3,98,119.4,97.8,119.4z"/>
	<path class="st6" d="M100.4,116.7v2.6h-0.7V116h0.7V116.7z M100.3,117.6h-0.2c0-0.2,0-0.4,0.1-0.6s0.1-0.3,0.2-0.5
		c0.1-0.1,0.2-0.2,0.4-0.3c0.2-0.1,0.3-0.1,0.6-0.1c0.1,0,0.3,0,0.4,0.1s0.2,0.1,0.3,0.2s0.2,0.2,0.2,0.3c0.1,0.1,0.1,0.3,0.1,0.5
		v2.2h-0.7v-2.2c0-0.2,0-0.3-0.1-0.4c0-0.1-0.1-0.2-0.2-0.2s-0.2-0.1-0.3-0.1c-0.1,0-0.2,0-0.3,0.1s-0.2,0.1-0.2,0.2
		c-0.1,0.1-0.1,0.2-0.1,0.3C100.3,117.3,100.3,117.5,100.3,117.6z M102.4,117.4l-0.3,0.1c0-0.2,0-0.4,0.1-0.5
		c0.1-0.1,0.1-0.3,0.2-0.4c0.1-0.1,0.2-0.2,0.4-0.3c0.2-0.1,0.3-0.1,0.5-0.1c0.2,0,0.3,0,0.4,0.1c0.1,0,0.2,0.1,0.3,0.2
		c0.1,0.1,0.2,0.2,0.2,0.4c0.1,0.2,0.1,0.3,0.1,0.5v2.1h-0.7v-2.2c0-0.2,0-0.3-0.1-0.4c0-0.1-0.1-0.2-0.2-0.2s-0.2-0.1-0.3-0.1
		c-0.1,0-0.2,0-0.3,0.1c-0.1,0.1-0.2,0.1-0.2,0.2s-0.1,0.2-0.1,0.2C102.4,117.1,102.4,117.3,102.4,117.4z"/>
	<path class="st6" d="M107.5,114.9v4.4h-0.7v-4.4H107.5z"/>
	<path class="st6" d="M109.1,116.6v3.9h-0.7V116h0.7V116.6z M111.3,117.7L111.3,117.7c0,0.3,0,0.5-0.1,0.7s-0.1,0.4-0.2,0.5
		s-0.2,0.3-0.4,0.3c-0.2,0.1-0.3,0.1-0.5,0.1s-0.4,0-0.5-0.1c-0.2-0.1-0.3-0.2-0.4-0.3c-0.1-0.1-0.2-0.3-0.2-0.5
		c-0.1-0.2-0.1-0.4-0.1-0.6v-0.2c0-0.2,0.1-0.4,0.1-0.6c0.1-0.2,0.1-0.3,0.2-0.5c0.1-0.1,0.2-0.2,0.4-0.3c0.2-0.1,0.3-0.1,0.5-0.1
		s0.4,0,0.5,0.1c0.1,0.1,0.3,0.2,0.4,0.3c0.1,0.1,0.2,0.3,0.2,0.5C111.3,117.1,111.3,117.4,111.3,117.7z M110.5,117.7L110.5,117.7
		c0-0.2,0-0.3,0-0.5c0-0.1-0.1-0.2-0.1-0.3c-0.1-0.1-0.1-0.2-0.2-0.2c-0.1-0.1-0.2-0.1-0.3-0.1c-0.1,0-0.2,0-0.3,0.1
		c-0.1,0.1-0.2,0.1-0.2,0.2c-0.1,0.1-0.1,0.2-0.1,0.3s-0.1,0.2-0.1,0.3v0.6c0,0.1,0.1,0.3,0.1,0.4c0.1,0.1,0.1,0.2,0.2,0.3
		c0.1,0.1,0.2,0.1,0.4,0.1c0.1,0,0.2,0,0.3-0.1c0.1-0.1,0.2-0.1,0.2-0.2c0.1-0.1,0.1-0.2,0.1-0.3C110.5,118,110.5,117.9,110.5,117.7
		z"/>
	<path class="st6" d="M113.7,118.4c0-0.1,0-0.1-0.1-0.2c0-0.1-0.1-0.1-0.2-0.2s-0.2-0.1-0.4-0.1c-0.2,0-0.3-0.1-0.5-0.1
		c-0.1-0.1-0.3-0.1-0.4-0.2s-0.2-0.2-0.2-0.3s-0.1-0.2-0.1-0.3s0-0.2,0.1-0.4c0.1-0.1,0.1-0.2,0.2-0.3s0.2-0.2,0.4-0.2
		c0.2-0.1,0.3-0.1,0.5-0.1c0.3,0,0.5,0,0.7,0.1c0.2,0.1,0.3,0.2,0.4,0.4c0.1,0.2,0.2,0.3,0.2,0.5h-0.7c0-0.1,0-0.2-0.1-0.2
		s-0.1-0.1-0.2-0.2s-0.2-0.1-0.3-0.1c-0.1,0-0.2,0-0.3,0.1c-0.1,0.1-0.1,0.1-0.2,0.2c0,0.1-0.1,0.1-0.1,0.2s0,0.1,0,0.1l0.1,0.1
		c0,0,0.1,0.1,0.2,0.1c0.1,0,0.2,0.1,0.3,0.1c0.2,0.1,0.4,0.1,0.6,0.2c0.2,0.1,0.3,0.2,0.4,0.3c0.1,0.1,0.1,0.3,0.1,0.5
		c0,0.1,0,0.3-0.1,0.4c-0.1,0.1-0.1,0.2-0.3,0.3c-0.1,0.1-0.2,0.2-0.4,0.2c-0.2,0.1-0.3,0.1-0.5,0.1c-0.3,0-0.5-0.1-0.7-0.2
		s-0.3-0.2-0.4-0.4c-0.1-0.2-0.2-0.3-0.2-0.5h0.7c0,0.1,0,0.2,0.1,0.3c0.1,0.1,0.2,0.1,0.2,0.2c0.1,0,0.2,0.1,0.3,0.1
		c0.1,0,0.2,0,0.3-0.1c0.1,0,0.2-0.1,0.2-0.1C113.7,118.6,113.7,118.5,113.7,118.4z"/>
	<path class="st6" d="M117.1,118.5V116h0.7v3.3h-0.7V118.5z M117.2,117.9h0.2c0,0.2,0,0.4-0.1,0.6s-0.1,0.3-0.2,0.5
		c-0.1,0.1-0.2,0.2-0.4,0.3c-0.2,0.1-0.3,0.1-0.6,0.1c-0.2,0-0.3,0-0.4-0.1c-0.1,0-0.2-0.1-0.3-0.2c-0.1-0.1-0.2-0.2-0.2-0.4
		c-0.1-0.2-0.1-0.3-0.1-0.5V116h0.7v2.2c0,0.1,0,0.2,0,0.3s0.1,0.1,0.1,0.2c0.1,0.1,0.1,0.1,0.2,0.1s0.1,0,0.2,0
		c0.2,0,0.4,0,0.5-0.1c0.1-0.1,0.2-0.2,0.2-0.3C117.2,118.2,117.2,118.1,117.2,117.9z"/>
	<path class="st6" d="M119.2,116.7v2.6h-0.7V116h0.7V116.7z M119.1,117.6h-0.2c0-0.2,0-0.4,0.1-0.6c0.1-0.2,0.1-0.3,0.2-0.5
		c0.1-0.1,0.2-0.2,0.4-0.3c0.2-0.1,0.3-0.1,0.6-0.1c0.1,0,0.3,0,0.4,0.1s0.2,0.1,0.3,0.2c0.1,0.1,0.2,0.2,0.2,0.3
		c0.1,0.1,0.1,0.3,0.1,0.5v2.2h-0.7v-2.2c0-0.2,0-0.3-0.1-0.4c0-0.1-0.1-0.2-0.2-0.2c-0.1,0-0.2-0.1-0.3-0.1c-0.1,0-0.2,0-0.3,0.1
		s-0.2,0.1-0.2,0.2c0,0.1-0.1,0.2-0.1,0.3C119.1,117.3,119.1,117.5,119.1,117.6z M121.2,117.4l-0.3,0.1c0-0.2,0-0.4,0.1-0.5
		s0.1-0.3,0.2-0.4c0.1-0.1,0.2-0.2,0.4-0.3c0.2-0.1,0.3-0.1,0.5-0.1c0.2,0,0.3,0,0.4,0.1c0.1,0,0.2,0.1,0.3,0.2
		c0.1,0.1,0.2,0.2,0.2,0.4c0.1,0.2,0.1,0.3,0.1,0.5v2.1h-0.7v-2.2c0-0.2,0-0.3-0.1-0.4c0-0.1-0.1-0.2-0.2-0.2s-0.2-0.1-0.3-0.1
		c-0.1,0-0.2,0-0.3,0.1c-0.1,0.1-0.2,0.1-0.2,0.2s-0.1,0.2-0.1,0.2C121.2,117.1,121.2,117.3,121.2,117.4z"/>
	<path class="st6" d="M126.9,119.3h-1v-0.6h0.9c0.3,0,0.5-0.1,0.7-0.2c0.2-0.1,0.3-0.3,0.4-0.5s0.1-0.5,0.1-0.8v-0.2
		c0-0.2,0-0.4-0.1-0.6s-0.1-0.3-0.2-0.4c-0.1-0.1-0.2-0.2-0.4-0.3c-0.1-0.1-0.3-0.1-0.5-0.1h-1v-0.6h1c0.3,0,0.5,0.1,0.8,0.1
		c0.2,0.1,0.4,0.2,0.6,0.4s0.3,0.4,0.4,0.6c0.1,0.2,0.1,0.5,0.1,0.8v0.2c0,0.3-0.1,0.6-0.1,0.8c0,0.2-0.2,0.5-0.4,0.6
		c-0.2,0.2-0.4,0.3-0.6,0.4C127.4,119.2,127.1,119.3,126.9,119.3z M126.4,114.9v4.4h-0.7v-4.4H126.4z"/>
	<path class="st6" d="M129.4,117.7L129.4,117.7c0-0.3,0-0.5,0.1-0.7s0.2-0.4,0.3-0.5c0.1-0.2,0.3-0.3,0.5-0.3
		c0.2-0.1,0.4-0.1,0.6-0.1s0.4,0,0.6,0.1s0.3,0.2,0.5,0.3c0.1,0.1,0.2,0.3,0.3,0.5s0.1,0.4,0.1,0.6v0.1c0,0.2,0,0.4-0.1,0.6
		s-0.2,0.4-0.3,0.5c-0.1,0.1-0.3,0.3-0.5,0.3c-0.2,0.1-0.4,0.1-0.6,0.1s-0.4,0-0.6-0.1s-0.3-0.2-0.5-0.3c-0.1-0.2-0.2-0.3-0.3-0.5
		S129.4,118,129.4,117.7z M130.1,117.7L130.1,117.7c0,0.2,0,0.3,0,0.5c0,0.1,0.1,0.2,0.1,0.3c0.1,0.1,0.1,0.2,0.2,0.2
		c0.1,0.1,0.2,0.1,0.4,0.1c0.1,0,0.2,0,0.3-0.1c0.1-0.1,0.2-0.1,0.2-0.2c0.1-0.1,0.1-0.2,0.1-0.3c0-0.1,0.1-0.3,0.1-0.4v-0.1
		c0-0.1,0-0.3-0.1-0.4c0-0.1-0.1-0.2-0.1-0.3s-0.1-0.2-0.2-0.2c-0.1-0.1-0.2-0.1-0.3-0.1s-0.2,0-0.4,0.1c-0.1,0.1-0.2,0.1-0.2,0.2
		c-0.1,0.1-0.1,0.2-0.1,0.3C130.2,117.4,130.1,117.5,130.1,117.7z"/>
	<path class="st6" d="M133.8,114.7v4.7h-0.7v-4.7H133.8z"/>
	<path class="st6" d="M134.5,117.7L134.5,117.7c0-0.3,0-0.5,0.1-0.7s0.2-0.4,0.3-0.5c0.1-0.2,0.3-0.3,0.5-0.3
		c0.2-0.1,0.4-0.1,0.6-0.1s0.4,0,0.6,0.1s0.3,0.2,0.5,0.3c0.1,0.1,0.2,0.3,0.3,0.5s0.1,0.4,0.1,0.6v0.1c0,0.2,0,0.4-0.1,0.6
		s-0.2,0.4-0.3,0.5c-0.1,0.1-0.3,0.3-0.5,0.3c-0.2,0.1-0.4,0.1-0.6,0.1s-0.4,0-0.6-0.1c-0.2-0.1-0.3-0.2-0.5-0.3
		c-0.1-0.2-0.2-0.3-0.3-0.5C134.5,118.2,134.5,118,134.5,117.7z M135.3,117.7L135.3,117.7c0,0.2,0,0.3,0,0.5c0,0.1,0.1,0.2,0.1,0.3
		c0.1,0.1,0.1,0.2,0.2,0.2c0.1,0,0.2,0.1,0.4,0.1c0.1,0,0.2,0,0.3-0.1c0.1-0.1,0.2-0.1,0.2-0.2c0.1-0.1,0.1-0.2,0.1-0.3
		c0-0.1,0.1-0.3,0.1-0.4v-0.1c0-0.1,0-0.3-0.1-0.4c0-0.1-0.1-0.2-0.1-0.3s-0.1-0.2-0.2-0.2c-0.1-0.1-0.2-0.1-0.3-0.1s-0.2,0-0.4,0.1
		c-0.1,0.1-0.2,0.1-0.2,0.2c-0.1,0.1-0.1,0.2-0.1,0.3C135.3,117.4,135.3,117.5,135.3,117.7z"/>
	<path class="st6" d="M138.9,116.6v2.7h-0.7V116h0.7V116.6z M139.9,116v0.7h-0.1c-0.1,0-0.1,0-0.1,0c-0.1,0-0.2,0-0.3,0.1
		c-0.1,0-0.2,0.1-0.2,0.2c-0.1,0.1-0.1,0.1-0.1,0.2s-0.1,0.2-0.1,0.3h-0.2c0-0.2,0-0.4,0.1-0.6c0-0.2,0.1-0.3,0.2-0.4
		c0.1-0.1,0.2-0.2,0.3-0.3c0.1-0.1,0.3-0.1,0.4-0.1L139.9,116C139.8,116,139.9,116,139.9,116z"/>
	<path class="st6" d="M144.3,118.2c0-0.1,0-0.2,0-0.2c0-0.1-0.1-0.1-0.1-0.2c-0.1-0.1-0.2-0.1-0.3-0.2s-0.3-0.1-0.5-0.2
		s-0.4-0.1-0.6-0.2s-0.3-0.2-0.4-0.3c-0.1-0.1-0.2-0.2-0.3-0.3s-0.1-0.3-0.1-0.5s0-0.3,0.1-0.5c0.1-0.2,0.2-0.3,0.3-0.4
		s0.3-0.2,0.5-0.2c0.2-0.1,0.4-0.1,0.6-0.1c0.3,0,0.6,0.1,0.8,0.2c0.2,0.1,0.4,0.3,0.5,0.5c0.1,0.2,0.2,0.4,0.2,0.7h-0.7
		c0-0.1,0-0.3-0.1-0.4s-0.1-0.2-0.3-0.3c-0.1-0.1-0.3-0.1-0.5-0.1s-0.3,0-0.4,0.1c-0.1,0.1-0.2,0.1-0.3,0.2
		c-0.1,0.1-0.1,0.2-0.1,0.3c0,0.1,0,0.2,0.1,0.2s0.1,0.1,0.2,0.2s0.2,0.1,0.3,0.2c0.1,0.1,0.2,0.1,0.4,0.1c0.2,0.1,0.4,0.2,0.6,0.2
		c0.2,0,0.3,0.2,0.4,0.3s0.2,0.2,0.3,0.4c0.1,0.1,0.1,0.3,0.1,0.5s0,0.3-0.1,0.5c-0.1,0.1-0.2,0.3-0.3,0.4s-0.3,0.2-0.5,0.2
		c-0.2,0-0.4,0.1-0.6,0.1c-0.2,0-0.4,0-0.6-0.1c-0.2-0.1-0.4-0.1-0.5-0.2c-0.2-0.1-0.3-0.2-0.4-0.4c-0.1-0.2-0.1-0.4-0.1-0.6h0.7
		c0,0.1,0,0.3,0.1,0.3c0.1,0.1,0.1,0.2,0.2,0.2c0.1,0.1,0.2,0.1,0.3,0.1s0.2,0,0.4,0s0.3,0,0.4-0.1c0.1-0.1,0.2-0.1,0.3-0.2
		C144.3,118.4,144.3,118.3,144.3,118.2z"/>
	<path class="st6" d="M146.4,116v3.3h-0.7V116H146.4z M145.7,115.2c0-0.1,0-0.2,0.1-0.3s0.2-0.1,0.3-0.1s0.2,0,0.3,0.1
		s0.1,0.2,0.1,0.3c0,0.1,0,0.2-0.1,0.3s-0.2,0.1-0.3,0.1s-0.2,0-0.3-0.1C145.7,115.4,145.7,115.3,145.7,115.2z"/>
	<path class="st6" d="M148.7,116v0.5h-1.9V116H148.7z M147.5,115.3h0.7v3.2c0,0.1,0,0.2,0,0.2c0,0.1,0.1,0.1,0.1,0.1
		c0.1,0,0.1,0,0.2,0c0.1,0,0.1,0,0.1,0c0.1,0,0.1,0,0.1,0v0.5c-0.1,0-0.1,0-0.2,0.1c-0.1,0-0.2,0-0.3,0c-0.2,0-0.3,0-0.4-0.1
		c-0.1-0.1-0.2-0.2-0.3-0.3c-0.1-0.1-0.1-0.3-0.1-0.5L147.5,115.3L147.5,115.3z"/>
	<path class="st6" d="M152.7,115.5l-1.3,3.8h-0.8l1.7-4.4h0.5V115.5z M153.8,119.3l-1.3-3.8l-0.1-0.6h0.5l1.7,4.4
		C154.5,119.3,153.8,119.3,153.8,119.3z M153.7,117.7v0.6h-2.4v-0.6H153.7z"/>
	<path class="st6" d="M155.7,116.7v2.6h-0.7V116h0.7V116.7z M155.6,117.6h-0.2c0-0.2,0-0.4,0.1-0.6s0.1-0.3,0.2-0.5
		c0.1-0.1,0.2-0.2,0.4-0.3c0.2-0.1,0.3-0.1,0.6-0.1c0.1,0,0.3,0,0.4,0.1s0.2,0.1,0.3,0.2s0.2,0.2,0.2,0.3c0.1,0.1,0.1,0.3,0.1,0.5
		v2.2h-0.8v-2.2c0-0.2,0-0.3-0.1-0.4c0-0.1-0.1-0.2-0.2-0.2c-0.1,0-0.2-0.1-0.3-0.1s-0.2,0-0.3,0.1s-0.2,0.1-0.2,0.2
		c0,0.1-0.1,0.2-0.1,0.3C155.6,117.3,155.6,117.5,155.6,117.6z M157.6,117.4l-0.3,0.1c0-0.2,0-0.4,0.1-0.5s0.1-0.3,0.2-0.4
		c0.1-0.1,0.2-0.2,0.4-0.3c0.1-0.1,0.3-0.1,0.5-0.1s0.3,0,0.4,0.1c0.1,0,0.2,0.1,0.3,0.2s0.2,0.2,0.2,0.4c0.1,0.2,0.1,0.3,0.1,0.5
		v2.1h-0.7v-2.2c0-0.2,0-0.3-0.1-0.4c0-0.1-0.1-0.2-0.2-0.2c-0.1,0-0.2-0.1-0.3-0.1s-0.2,0-0.3,0.1c-0.1,0-0.1,0.1-0.2,0.2
		c-0.1,0.1-0.1,0.2-0.1,0.2C157.6,117.1,157.6,117.3,157.6,117.4z"/>
	<path class="st6" d="M161.8,119.4c-0.2,0-0.4,0-0.6-0.1c-0.2-0.1-0.4-0.2-0.5-0.3c-0.1-0.1-0.2-0.3-0.3-0.5s-0.1-0.4-0.1-0.6v-0.1
		c0-0.2,0-0.5,0.1-0.7s0.2-0.4,0.3-0.5c0.1-0.2,0.3-0.3,0.5-0.3c0.2-0.1,0.4-0.1,0.6-0.1c0.2,0,0.4,0,0.6,0.1
		c0.2,0.1,0.3,0.2,0.4,0.3s0.2,0.3,0.2,0.5c0.1,0.2,0.1,0.4,0.1,0.6v0.3h-2.5v-0.5h1.9v-0.1c0-0.1,0-0.2-0.1-0.4
		c0-0.1-0.1-0.2-0.2-0.3c-0.1-0.1-0.2-0.1-0.4-0.1c-0.1,0-0.2,0-0.3,0.1c-0.1,0.1-0.2,0.1-0.2,0.2c-0.1,0.1-0.1,0.2-0.1,0.3
		s-0.1,0.3-0.1,0.4v0.1c0,0.1,0,0.3,0.1,0.4c0.1,0.1,0.1,0.2,0.2,0.3c0.1,0.1,0.2,0.2,0.3,0.2c0.1,0.1,0.2,0.1,0.4,0.1
		s0.3,0,0.4-0.1c0.1-0.1,0.2-0.2,0.4-0.3l0.4,0.4c-0.1,0.1-0.2,0.2-0.3,0.3c-0.1,0.1-0.2,0.2-0.4,0.2
		C162.2,119.3,162,119.4,161.8,119.4z"/>
	<path class="st6" d="M165.2,116v0.5h-1.9V116H165.2z M163.8,115.3h0.7v3.2c0,0.1,0,0.2,0,0.2c0,0.1,0.1,0.1,0.1,0.1
		c0.1,0,0.1,0,0.2,0c0.1,0,0.1,0,0.1,0h0.1v0.5c-0.1,0-0.1,0-0.2,0.1c-0.1,0-0.2,0-0.3,0c-0.2,0-0.3,0-0.4-0.1
		c-0.1-0.1-0.2-0.2-0.3-0.3c-0.1-0.1-0.1-0.3-0.1-0.5L163.8,115.3L163.8,115.3z"/>
	<path class="st6" d="M166.4,118.6v0.5c0,0.2-0.1,0.4-0.1,0.6c-0.1,0.2-0.2,0.4-0.4,0.5l-0.4-0.2c0.1-0.1,0.1-0.2,0.1-0.3
		c0-0.1,0.1-0.2,0.1-0.3s0-0.2,0-0.3v-0.5L166.4,118.6L166.4,118.6z"/>
	<path class="st6" d="M171.4,117.9h0.7c0,0.3-0.1,0.5-0.2,0.8c-0.1,0.2-0.3,0.4-0.6,0.5c-0.2,0.1-0.5,0.2-0.9,0.2
		c-0.3,0-0.5-0.1-0.7-0.1c-0.2-0.1-0.4-0.2-0.5-0.4c-0.1-0.2-0.3-0.4-0.4-0.6c-0.1-0.2-0.1-0.5-0.1-0.8v-0.3c0-0.3,0-0.6,0.1-0.8
		s0.2-0.5,0.4-0.6c0.1-0.2,0.3-0.3,0.6-0.4c0.2-0.1,0.5-0.1,0.7-0.1c0.3,0,0.6,0.1,0.9,0.2c0.2,0.1,0.4,0.3,0.5,0.5s0.2,0.5,0.2,0.8
		h-0.7c0-0.2-0.1-0.3-0.1-0.5c-0.1-0.1-0.2-0.2-0.3-0.3c-0.1-0.1-0.3-0.1-0.5-0.1s-0.3,0-0.4,0.1s-0.2,0.2-0.3,0.3
		c-0.1,0.1-0.1,0.3-0.2,0.4c0,0.2-0.1,0.4-0.1,0.6v0.4c0,0.2,0,0.4,0.1,0.6c0,0.2,0.1,0.3,0.2,0.4c0.1,0.1,0.2,0.2,0.3,0.3
		s0.3,0.1,0.4,0.1c0.2,0,0.4,0,0.5-0.1s0.2-0.2,0.3-0.3C171.3,118.2,171.3,118.1,171.4,117.9z"/>
	<path class="st6" d="M172.6,117.7L172.6,117.7c0-0.3,0-0.5,0.1-0.7s0.2-0.4,0.3-0.5c0.1-0.2,0.3-0.3,0.5-0.3
		c0.2-0.1,0.4-0.1,0.6-0.1s0.4,0,0.6,0.1s0.3,0.2,0.5,0.3c0.1,0.1,0.2,0.3,0.3,0.5s0.1,0.4,0.1,0.6v0.1c0,0.2,0,0.4-0.1,0.6
		s-0.2,0.4-0.3,0.5c-0.1,0.1-0.3,0.3-0.5,0.3c-0.2,0.1-0.4,0.1-0.6,0.1s-0.4,0-0.6-0.1s-0.3-0.2-0.5-0.3c-0.1-0.2-0.2-0.3-0.3-0.5
		C172.6,118.2,172.6,118,172.6,117.7z M173.3,117.7L173.3,117.7c0,0.2,0,0.3,0,0.5c0,0.1,0.1,0.2,0.1,0.3c0.1,0.1,0.1,0.2,0.2,0.2
		c0.1,0.1,0.2,0.1,0.4,0.1c0.1,0,0.2,0,0.3-0.1c0.1-0.1,0.2-0.1,0.2-0.2c0.1-0.1,0.1-0.2,0.1-0.3c0-0.1,0.1-0.3,0.1-0.4v-0.1
		c0-0.1,0-0.3-0.1-0.4c0-0.1-0.1-0.2-0.1-0.3s-0.1-0.2-0.2-0.2c-0.1-0.1-0.2-0.1-0.3-0.1s-0.2,0-0.4,0.1c-0.1,0.1-0.2,0.1-0.2,0.2
		c-0.1,0.1-0.1,0.2-0.1,0.3C173.3,117.4,173.3,117.5,173.3,117.7z"/>
	<path class="st6" d="M177,116.7v2.6h-0.7V116h0.7V116.7z M176.9,117.6h-0.2c0-0.2,0-0.4,0.1-0.6s0.1-0.3,0.3-0.5
		c0.1-0.1,0.2-0.2,0.4-0.3c0.1-0.1,0.3-0.1,0.5-0.1c0.1,0,0.3,0,0.4,0.1c0.1,0,0.2,0.1,0.3,0.2s0.2,0.2,0.2,0.4
		c0,0.2,0.1,0.3,0.1,0.6v2.1h-0.7v-2.2c0-0.2,0-0.3-0.1-0.4c0-0.1-0.1-0.2-0.2-0.2c-0.1,0-0.2-0.1-0.3-0.1s-0.2,0-0.3,0.1
		c-0.1,0.1-0.2,0.1-0.2,0.2c-0.1,0.1-0.1,0.2-0.1,0.3C176.9,117.3,176.9,117.5,176.9,117.6z"/>
	<path class="st6" d="M181.5,118.4c0-0.1,0-0.1-0.1-0.2c0-0.1-0.1-0.1-0.2-0.2c-0.1-0.1-0.2-0.1-0.4-0.1s-0.3-0.1-0.5-0.1
		c-0.1-0.1-0.3-0.1-0.4-0.2s-0.2-0.2-0.2-0.3s-0.1-0.2-0.1-0.3s0-0.2,0.1-0.4c0.1-0.1,0.1-0.2,0.2-0.3c0.1-0.1,0.2-0.2,0.4-0.2
		c0.1-0.1,0.3-0.1,0.5-0.1c0.3,0,0.5,0,0.7,0.1s0.3,0.2,0.4,0.4s0.1,0.3,0.1,0.5h-0.7c0-0.1,0-0.2-0.1-0.2s-0.1-0.1-0.2-0.2
		c-0.1-0.1-0.2-0.1-0.3-0.1s-0.2,0-0.3,0.1s-0.1,0.1-0.2,0.2c0,0.1-0.1,0.1-0.1,0.2s0,0.1,0,0.1l0.1,0.1c0.1,0,0.1,0.1,0.2,0.1
		c0.1,0,0.2,0.1,0.3,0.1c0.2,0.1,0.4,0.1,0.6,0.2c0.2,0.1,0.3,0.2,0.4,0.3c0.1,0.1,0.1,0.3,0.1,0.5c0,0.1,0,0.3-0.1,0.4
		c-0.1,0.1-0.1,0.2-0.3,0.3s-0.2,0.2-0.4,0.2c-0.2,0.1-0.3,0.1-0.5,0.1c-0.3,0-0.5-0.1-0.7-0.2s-0.4-0.2-0.4-0.4
		c-0.1-0.2-0.1-0.3-0.1-0.5h0.7c0,0.1,0,0.2,0.1,0.3c0.1,0.1,0.1,0.1,0.2,0.2c0.1,0,0.2,0.1,0.3,0.1s0.2,0,0.3-0.1
		c0.1,0,0.1-0.1,0.2-0.1C181.5,118.6,181.5,118.5,181.5,118.4z"/>
	<path class="st6" d="M184.3,119.4c-0.2,0-0.4,0-0.6-0.1c-0.2-0.1-0.4-0.2-0.5-0.3c-0.1-0.1-0.2-0.3-0.3-0.5s-0.1-0.4-0.1-0.6v-0.1
		c0-0.2,0-0.5,0.1-0.7s0.2-0.4,0.3-0.5c0.1-0.2,0.3-0.3,0.5-0.3c0.2-0.1,0.4-0.1,0.6-0.1c0.2,0,0.4,0,0.6,0.1
		c0.2,0.1,0.3,0.2,0.4,0.3s0.2,0.3,0.2,0.5c0.1,0.2,0.1,0.4,0.1,0.6v0.3h-2.5v-0.5h1.9v-0.1c0-0.1,0-0.2-0.1-0.4
		c0-0.1-0.1-0.2-0.2-0.3c-0.1-0.1-0.2-0.1-0.4-0.1c-0.1,0-0.2,0-0.3,0.1c-0.1,0.1-0.2,0.1-0.2,0.2s-0.1,0.2-0.1,0.3
		s-0.1,0.3-0.1,0.4v0.1c0,0.1,0,0.3,0.1,0.4s0.1,0.2,0.2,0.3c0.1,0.1,0.2,0.2,0.3,0.2c0.1,0.1,0.2,0.1,0.4,0.1c0.2,0,0.3,0,0.4-0.1
		c0.1-0.1,0.2-0.2,0.4-0.3l0.4,0.4c-0.1,0.1-0.2,0.2-0.3,0.3c-0.1,0.1-0.2,0.2-0.4,0.2C184.7,119.3,184.5,119.4,184.3,119.4z"/>
	<path class="st6" d="M187.5,118.8c0.1,0,0.2,0,0.3-0.1c0.1-0.1,0.2-0.1,0.2-0.2s0.1-0.2,0.1-0.3h0.7c0,0.2-0.1,0.4-0.2,0.6
		c-0.1,0.2-0.3,0.3-0.5,0.4s-0.4,0.2-0.6,0.2c-0.2,0-0.4,0-0.6-0.1c-0.2-0.1-0.3-0.2-0.4-0.3c-0.1-0.1-0.2-0.3-0.3-0.5
		s-0.1-0.4-0.1-0.6v-0.1c0-0.2,0-0.4,0.1-0.6s0.1-0.4,0.3-0.5c0.1-0.2,0.3-0.3,0.4-0.3c0.2-0.1,0.4-0.1,0.6-0.1
		c0.2,0,0.5,0.1,0.7,0.2s0.3,0.2,0.4,0.4c0.1,0.2,0.2,0.4,0.2,0.6h-0.7c0-0.1,0-0.2-0.1-0.3s-0.1-0.2-0.2-0.2
		c-0.1-0.1-0.2-0.1-0.3-0.1s-0.3,0-0.4,0.1c-0.1,0.1-0.2,0.1-0.2,0.2c-0.1,0.1-0.1,0.2-0.1,0.3s0,0.2,0,0.4v0.1c0,0.1,0,0.3,0,0.4
		s0.1,0.2,0.1,0.3s0.1,0.2,0.2,0.2C187.3,118.8,187.4,118.8,187.5,118.8z"/>
	<path class="st6" d="M190.9,116v0.5h-1.9V116H190.9z M189.7,115.3h0.7v3.2c0,0.1,0,0.2,0,0.2c0,0.1,0.1,0.1,0.1,0.1
		c0.1,0,0.1,0,0.2,0s0.1,0,0.1,0h0.1v0.5c-0.1,0-0.1,0-0.2,0.1c-0.1,0-0.2,0-0.3,0c-0.2,0-0.3,0-0.4-0.1c-0.1-0.1-0.2-0.2-0.3-0.3
		c-0.1-0.1-0.1-0.3-0.1-0.5L189.7,115.3L189.7,115.3z"/>
	<path class="st6" d="M193,119.4c-0.2,0-0.4,0-0.6-0.1c-0.2-0.1-0.4-0.2-0.5-0.3c-0.1-0.1-0.2-0.3-0.3-0.5s-0.1-0.4-0.1-0.6v-0.1
		c0-0.2,0-0.5,0.1-0.7s0.2-0.4,0.3-0.5c0.1-0.2,0.3-0.3,0.5-0.3c0.2-0.1,0.4-0.1,0.6-0.1s0.4,0,0.6,0.1c0.2,0.1,0.3,0.2,0.4,0.3
		s0.2,0.3,0.2,0.5c0.1,0.2,0.1,0.4,0.1,0.6v0.3h-2.5v-0.5h1.9v-0.1c0-0.1,0-0.2-0.1-0.4s-0.1-0.2-0.2-0.3c-0.1-0.1-0.2-0.1-0.4-0.1
		c-0.1,0-0.2,0-0.3,0.1c-0.1,0.1-0.2,0.1-0.2,0.2s-0.1,0.2-0.1,0.3s-0.1,0.3-0.1,0.4v0.1c0,0.1,0,0.3,0.1,0.4s0.1,0.2,0.2,0.3
		c0.1,0.1,0.2,0.2,0.3,0.2c0.1,0.1,0.2,0.1,0.4,0.1s0.3,0,0.4-0.1c0.1-0.1,0.2-0.2,0.4-0.3l0.4,0.4c-0.1,0.1-0.2,0.2-0.3,0.3
		c-0.1,0.1-0.2,0.2-0.4,0.2C193.4,119.3,193.2,119.4,193,119.4z"/>
	<path class="st6" d="M196.3,116v0.5h-1.9V116H196.3z M195.1,115.3h0.7v3.2c0,0.1,0,0.2,0,0.2c0,0.1,0.1,0.1,0.1,0.1
		c0.1,0,0.1,0,0.2,0c0.1,0,0.1,0,0.1,0c0.1,0,0.1,0,0.1,0v0.5c-0.1,0-0.1,0-0.2,0.1c-0.1,0-0.2,0-0.3,0c-0.2,0-0.3,0-0.4-0.1
		c-0.1-0.1-0.2-0.2-0.3-0.3c-0.1-0.1-0.1-0.3-0.1-0.5L195.1,115.3L195.1,115.3z"/>
	<path class="st6" d="M198.9,118.5V116h0.7v3.3h-0.7V118.5z M199,117.9h0.2c0,0.2,0,0.4-0.1,0.6s-0.1,0.3-0.2,0.5
		c-0.1,0.1-0.2,0.2-0.4,0.3c-0.1,0.1-0.3,0.1-0.6,0.1c-0.1,0-0.3,0-0.4-0.1c-0.1,0-0.2-0.1-0.3-0.2c-0.1-0.1-0.2-0.2-0.2-0.4
		c0-0.2-0.1-0.3-0.1-0.5V116h0.7v2.2c0,0.1,0,0.2,0,0.3s0.1,0.1,0.1,0.2c0.1,0.1,0.1,0.1,0.2,0.1s0.1,0,0.2,0c0.2,0,0.4,0,0.5-0.1
		c0.1-0.1,0.2-0.2,0.2-0.3C199,118.2,199,118.1,199,117.9z"/>
	<path class="st6" d="M201.2,116.6v2.7h-0.8V116h0.7L201.2,116.6z M202.1,116v0.7H202c-0.1,0-0.1,0-0.1,0c-0.1,0-0.2,0-0.3,0.1
		c-0.1,0-0.2,0.1-0.2,0.2c-0.1,0.1-0.1,0.1-0.1,0.2s-0.1,0.2-0.1,0.3H201c0-0.2,0-0.4,0.1-0.6c0-0.2,0.1-0.3,0.2-0.4
		c0.1-0.1,0.2-0.2,0.3-0.3c0.1-0.1,0.3-0.1,0.4-0.1L202.1,116C202,116,202.1,116,202.1,116z"/>
	<path class="st6" d="M205.9,115.5l-1.3,3.8h-0.8l1.7-4.4h0.5V115.5z M207,119.3l-1.3-3.8l-0.1-0.6h0.5l1.7,4.4
		C207.7,119.3,207,119.3,207,119.3z M207,117.7v0.6h-2.4v-0.6H207z"/>
	<path class="st6" d="M210.3,118.6v-3.9h0.7v4.7h-0.6L210.3,118.6z M208.1,117.7L208.1,117.7c0-0.3,0-0.5,0.1-0.7s0.1-0.4,0.2-0.5
		c0.1-0.2,0.2-0.3,0.4-0.3c0.1-0.1,0.3-0.1,0.5-0.1s0.4,0,0.5,0.1c0.1,0.1,0.3,0.2,0.4,0.3c0.1,0.1,0.2,0.3,0.2,0.5
		c0.1,0.2,0.1,0.4,0.1,0.6v0.2c0,0.2-0.1,0.4-0.1,0.6s-0.1,0.3-0.2,0.5c-0.1,0.2-0.2,0.2-0.4,0.3c-0.1,0.1-0.3,0.1-0.5,0.1
		s-0.4,0-0.5-0.1s-0.3-0.2-0.4-0.3c-0.1-0.1-0.2-0.3-0.2-0.5C208.1,118.2,208.1,118,208.1,117.7z M208.8,117.7L208.8,117.7
		c0,0.2,0,0.3,0,0.5s0.1,0.2,0.1,0.3c0.1,0.1,0.1,0.2,0.2,0.2s0.2,0.1,0.3,0.1c0.2,0,0.3,0,0.4-0.1c0.1-0.1,0.2-0.2,0.2-0.3
		c0.1-0.1,0.1-0.3,0.1-0.4v-0.5c0-0.1,0-0.2-0.1-0.3c0-0.1-0.1-0.2-0.1-0.3c-0.1-0.1-0.1-0.1-0.2-0.2c-0.1-0.1-0.2-0.1-0.3-0.1
		s-0.2,0-0.3,0.1c-0.1,0.1-0.2,0.1-0.2,0.2c-0.1,0.1-0.1,0.2-0.1,0.3C208.8,117.4,208.8,117.5,208.8,117.7z"/>
	<path class="st6" d="M212.6,116v3.3h-0.7V116H212.6z M211.7,115.2c0-0.1,0-0.2,0.1-0.3c0.1-0.1,0.2-0.1,0.3-0.1
		c0.1,0,0.2,0,0.3,0.1s0.1,0.2,0.1,0.3c0,0.1,0,0.2-0.1,0.3s-0.2,0.1-0.3,0.1c-0.1,0-0.2,0-0.3-0.1
		C211.8,115.4,211.7,115.3,211.7,115.2z"/>
	<path class="st6" d="M214,116.6v3.9h-0.7V116h0.6L214,116.6z M216.2,117.7L216.2,117.7c0,0.3,0,0.5-0.1,0.7s-0.1,0.4-0.2,0.5
		c-0.1,0.1-0.2,0.3-0.4,0.3c-0.1,0.1-0.3,0.1-0.5,0.1s-0.4,0-0.5-0.1s-0.3-0.2-0.4-0.3c-0.1-0.1-0.2-0.3-0.2-0.5
		c-0.1-0.2-0.1-0.4-0.1-0.6v-0.2c0-0.2,0.1-0.4,0.1-0.6c0.1-0.2,0.1-0.3,0.2-0.5c0.1-0.1,0.2-0.2,0.4-0.3c0.1-0.1,0.3-0.1,0.5-0.1
		s0.4,0,0.5,0.1s0.3,0.2,0.4,0.3c0.1,0.1,0.2,0.3,0.2,0.5C216.2,117.1,216.2,117.4,216.2,117.7z M215.5,117.7L215.5,117.7
		c0-0.2,0-0.3,0-0.5c0-0.1-0.1-0.2-0.1-0.3c-0.1-0.1-0.1-0.2-0.2-0.2c-0.1-0.1-0.2-0.1-0.3-0.1s-0.2,0-0.3,0.1
		c-0.1,0-0.2,0.1-0.2,0.2s-0.1,0.2-0.1,0.3s-0.1,0.2-0.1,0.3v0.6c0,0.1,0.1,0.3,0.1,0.4s0.1,0.2,0.2,0.3c0.1,0.1,0.2,0.1,0.4,0.1
		c0.1,0,0.2,0,0.3-0.1c0.1-0.1,0.2-0.1,0.2-0.2c0.1-0.1,0.1-0.2,0.1-0.3C215.5,118,215.5,117.9,215.5,117.7z"/>
	<path class="st6" d="M217.6,116v3.3h-0.7V116H217.6z M216.8,115.2c0-0.1,0-0.2,0.1-0.3s0.2-0.1,0.3-0.1s0.2,0,0.3,0.1
		s0.1,0.2,0.1,0.3c0,0.1,0,0.2-0.1,0.3s-0.2,0.1-0.3,0.1s-0.2,0-0.3-0.1S216.8,115.3,216.8,115.2z"/>
	<path class="st6" d="M220.2,118.4c0-0.1,0-0.1-0.1-0.2c0-0.1-0.1-0.1-0.2-0.2c-0.1-0.1-0.2-0.1-0.4-0.1s-0.3-0.1-0.5-0.1
		c-0.1-0.1-0.3-0.1-0.4-0.2c-0.1-0.1-0.2-0.2-0.2-0.3s-0.1-0.2-0.1-0.3s0-0.2,0.1-0.4c0.1-0.1,0.1-0.2,0.2-0.3
		c0.1-0.1,0.2-0.2,0.4-0.2c0.1-0.1,0.3-0.1,0.5-0.1c0.3,0,0.5,0,0.7,0.1s0.3,0.2,0.4,0.4c0.1,0.2,0.1,0.3,0.1,0.5H220
		c0-0.1,0-0.2-0.1-0.2s-0.1-0.1-0.2-0.2c-0.1-0.1-0.2-0.1-0.3-0.1s-0.2,0-0.3,0.1s-0.1,0.1-0.2,0.2c0,0.1-0.1,0.1-0.1,0.2
		s0,0.1,0,0.1l0.1,0.1c0,0,0.1,0.1,0.2,0.1c0.1,0,0.2,0.1,0.3,0.1c0.2,0.1,0.4,0.1,0.6,0.2c0.2,0.1,0.3,0.2,0.4,0.3
		c0.1,0.1,0.1,0.3,0.1,0.5c0,0.1,0,0.3-0.1,0.4c-0.1,0.1-0.1,0.2-0.3,0.3c-0.1,0.1-0.2,0.2-0.4,0.2c-0.2,0.1-0.3,0.1-0.5,0.1
		c-0.3,0-0.5-0.1-0.7-0.2c-0.2-0.1-0.4-0.2-0.4-0.4c-0.1-0.2-0.1-0.3-0.1-0.5h0.7c0,0.1,0,0.2,0.1,0.3c0.1,0.1,0.1,0.1,0.2,0.2
		c0.1,0,0.2,0.1,0.3,0.1s0.2,0,0.3-0.1c0.1,0,0.1-0.1,0.2-0.1C220.2,118.6,220.2,118.5,220.2,118.4z"/>
	<path class="st6" d="M222.9,118.8c0.1,0,0.2,0,0.3-0.1c0.1-0.1,0.2-0.1,0.2-0.2s0.1-0.2,0.1-0.3h0.7c0,0.2-0.1,0.4-0.2,0.6
		c-0.1,0.2-0.3,0.3-0.5,0.4s-0.4,0.2-0.6,0.2c-0.2,0-0.4,0-0.6-0.1c-0.2-0.1-0.3-0.2-0.4-0.3s-0.2-0.3-0.3-0.5s-0.1-0.4-0.1-0.6
		v-0.1c0-0.2,0-0.4,0.1-0.6s0.1-0.4,0.3-0.5c0.1-0.2,0.3-0.3,0.4-0.3c0.2-0.1,0.4-0.1,0.6-0.1c0.2,0,0.5,0.1,0.7,0.2
		s0.3,0.2,0.4,0.4s0.2,0.4,0.2,0.6h-0.7c0-0.1,0-0.2-0.1-0.3s-0.1-0.2-0.2-0.2c-0.1-0.1-0.2-0.1-0.3-0.1s-0.3,0-0.4,0.1
		c-0.1,0.1-0.2,0.1-0.2,0.2c-0.1,0.1-0.1,0.2-0.1,0.3s0,0.2,0,0.4v0.1c0,0.1,0,0.3,0,0.4s0.1,0.2,0.1,0.3c0.1,0.1,0.1,0.2,0.2,0.2
		C222.7,118.8,222.8,118.8,222.9,118.8z"/>
	<path class="st6" d="M225.6,116v3.3h-0.7V116H225.6z M224.9,115.2c0-0.1,0-0.2,0.1-0.3s0.2-0.1,0.3-0.1s0.2,0,0.3,0.1
		s0.1,0.2,0.1,0.3c0,0.1,0,0.2-0.1,0.3s-0.2,0.1-0.3,0.1s-0.2,0-0.3-0.1S224.9,115.3,224.9,115.2z"/>
	<path class="st6" d="M227.2,116.7v2.6h-0.7V116h0.7V116.7z M227.1,117.6h-0.2c0-0.2,0-0.4,0.1-0.6c0.1-0.2,0.1-0.3,0.3-0.5
		c0.1-0.1,0.2-0.2,0.4-0.3c0.1-0.1,0.3-0.1,0.5-0.1c0.1,0,0.3,0,0.4,0.1c0.1,0,0.2,0.1,0.3,0.2s0.2,0.2,0.2,0.4
		c0.1,0.2,0.1,0.3,0.1,0.6v2.1h-0.7v-2.2c0-0.2,0-0.3-0.1-0.4c0-0.1-0.1-0.2-0.2-0.2s-0.2-0.1-0.3-0.1s-0.2,0-0.3,0.1
		c-0.1,0.1-0.2,0.1-0.2,0.2c-0.1,0.1-0.1,0.2-0.1,0.3C227.1,117.3,227.1,117.5,227.1,117.6z"/>
	<path class="st6" d="M232,116h0.6v3.2c0,0.3-0.1,0.5-0.2,0.7c-0.1,0.2-0.3,0.3-0.5,0.4s-0.5,0.2-0.8,0.2c-0.1,0-0.3,0-0.4-0.1
		c-0.1,0-0.3-0.1-0.4-0.2s-0.2-0.2-0.3-0.3l0.3-0.4c0.1,0.1,0.2,0.2,0.4,0.3c0.1,0.1,0.3,0.1,0.4,0.1c0.2,0,0.3,0,0.4-0.1
		c0.1-0.1,0.2-0.2,0.3-0.3c0.1-0.1,0.1-0.3,0.1-0.4v-2.5L232,116z M229.7,117.7L229.7,117.7c0-0.3,0-0.5,0.1-0.7s0.1-0.4,0.2-0.5
		c0.1-0.2,0.2-0.3,0.4-0.3c0.2-0.1,0.3-0.1,0.5-0.1c0.2,0,0.4,0,0.5,0.1s0.3,0.2,0.4,0.3c0.1,0.1,0.2,0.3,0.2,0.5
		c0.1,0.2,0.1,0.4,0.1,0.6v0.2c0,0.2-0.1,0.4-0.1,0.6s-0.1,0.3-0.2,0.5c-0.1,0.2-0.2,0.2-0.4,0.3c-0.1,0.1-0.3,0.1-0.5,0.1
		c-0.2,0-0.4,0-0.5-0.1s-0.3-0.2-0.4-0.3c-0.1-0.1-0.2-0.3-0.2-0.5C229.7,118.2,229.7,118,229.7,117.7z M230.5,117.7L230.5,117.7
		c0,0.2,0,0.3,0,0.5s0.1,0.2,0.1,0.3c0.1,0.1,0.1,0.2,0.2,0.2s0.2,0.1,0.3,0.1c0.2,0,0.3,0,0.4-0.1c0.1-0.1,0.2-0.2,0.2-0.3
		c0.1-0.1,0.1-0.3,0.1-0.4v-0.5c0-0.1,0-0.2-0.1-0.3c0-0.1-0.1-0.2-0.1-0.3c-0.1-0.1-0.1-0.1-0.2-0.2c-0.1-0.1-0.2-0.1-0.3-0.1
		s-0.2,0-0.3,0.1c-0.1,0.1-0.2,0.1-0.2,0.2c-0.1,0.1-0.1,0.2-0.1,0.3C230.5,117.4,230.5,117.5,230.5,117.7z"/>
	<path class="st6" d="M94,129v0.6h-2.4V129H94z M91.8,125.2v4.4h-0.7v-4.4H91.8z M93.7,127.1v0.6h-2.1v-0.6H93.7z M94,125.2v0.6
		h-2.3v-0.6H94z"/>
	<path class="st6" d="M95.3,125v4.7h-0.7V125H95.3z"/>
	<path class="st6" d="M96.9,126.4v3.3h-0.7v-3.3H96.9z M96.1,125.5c0-0.1,0-0.2,0.1-0.3s0.2-0.1,0.3-0.1c0.1,0,0.2,0,0.3,0.1
		c0.1,0.1,0.1,0.2,0.1,0.3c0,0.1,0,0.2-0.1,0.3c-0.1,0.1-0.2,0.1-0.3,0.1c-0.1,0-0.2,0-0.3-0.1S96.1,125.6,96.1,125.5z"/>
	<path class="st6" d="M99.2,126.4v0.5h-1.9v-0.5H99.2z M97.8,125.6h0.7v3.2c0,0.1,0,0.2,0,0.2c0,0.1,0.1,0.1,0.1,0.1s0.1,0,0.2,0
		c0.1,0,0.1,0,0.1,0h0.1v0.5c-0.1,0-0.1,0-0.2,0.1c-0.1,0-0.2,0-0.3,0c-0.2,0-0.3,0-0.4-0.1c-0.1-0.1-0.2-0.2-0.3-0.3
		c-0.1-0.1-0.1-0.3-0.1-0.5v-3.2C97.7,125.6,97.8,125.6,97.8,125.6z"/>
	<path class="st6" d="M99.8,129.4c0-0.1,0-0.2,0.1-0.3c0.1-0.1,0.2-0.1,0.3-0.1c0.1,0,0.2,0,0.3,0.1c0.1,0.1,0.1,0.2,0.1,0.3
		s0,0.2-0.1,0.3s-0.2,0.1-0.3,0.1c-0.1,0-0.2,0-0.3-0.1C99.8,129.5,99.8,129.5,99.8,129.4z"/>
	<path class="st6" d="M104.7,125.2v4.4H104v-4.4H104.7z M106.2,125.2v0.6h-3.5v-0.6H106.2z"/>
	<path class="st6" d="M107.8,129.8c-0.2,0-0.4,0-0.6-0.1c-0.2-0.1-0.3-0.2-0.5-0.3c-0.1-0.1-0.2-0.3-0.3-0.5
		c-0.1-0.2-0.1-0.4-0.1-0.6v-0.1c0-0.2,0-0.5,0.1-0.7c0.1-0.2,0.2-0.4,0.3-0.5c0.1-0.2,0.3-0.3,0.5-0.3c0.2-0.1,0.4-0.1,0.6-0.1
		s0.4,0,0.6,0.1c0.2,0.1,0.3,0.2,0.4,0.3s0.2,0.3,0.2,0.5c0.1,0.2,0.1,0.4,0.1,0.6v0.3h-2.5v-0.5h1.9v-0.1c0-0.1,0-0.2-0.1-0.4
		c0-0.1-0.1-0.2-0.2-0.3c-0.1-0.1-0.2-0.1-0.4-0.1c-0.1,0-0.2,0-0.3,0.1s-0.2,0.1-0.2,0.2c-0.1,0.1-0.1,0.2-0.1,0.3
		s-0.1,0.3-0.1,0.4v0.1c0,0.1,0,0.3,0.1,0.4c0.1,0.1,0.1,0.2,0.2,0.3c0.1,0.1,0.2,0.2,0.3,0.2c0.1,0.1,0.2,0.1,0.4,0.1
		c0.2,0,0.3,0,0.4-0.1c0.1-0.1,0.2-0.2,0.3-0.3l0.4,0.4c-0.1,0.1-0.2,0.2-0.3,0.3c-0.1,0.1-0.2,0.2-0.4,0.2
		C108.2,129.7,108.1,129.8,107.8,129.8z"/>
	<path class="st6" d="M110.4,125v4.7h-0.7V125H110.4z"/>
	<path class="st6" d="M112.1,125v4.7h-0.7V125H112.1z"/>
	<path class="st6" d="M114.8,128.8v-2.5h0.7v3.3h-0.7V128.8z M114.9,128.2h0.2c0,0.2,0,0.4-0.1,0.6s-0.1,0.3-0.2,0.5
		c-0.1,0.1-0.2,0.2-0.4,0.3c-0.2,0.1-0.3,0.1-0.6,0.1c-0.2,0-0.3,0-0.4-0.1c-0.1,0-0.2-0.1-0.3-0.2c-0.1-0.1-0.2-0.2-0.2-0.4
		c-0.1-0.2-0.1-0.3-0.1-0.5v-2.2h0.7v2.2c0,0.1,0,0.2,0,0.3c0,0.1,0.1,0.1,0.1,0.2c0.1,0.1,0.1,0.1,0.2,0.1c0.1,0,0.1,0,0.2,0
		c0.2,0,0.4,0,0.5-0.1c0.1-0.1,0.2-0.2,0.2-0.3C114.9,128.5,114.9,128.4,114.9,128.2z"/>
	<path class="st6" d="M118.2,128.7c0-0.1,0-0.1-0.1-0.2c0-0.1-0.1-0.1-0.2-0.2c-0.1-0.1-0.2-0.1-0.4-0.1c-0.2,0-0.3-0.1-0.5-0.1
		c-0.1-0.1-0.3-0.1-0.4-0.2c-0.1-0.1-0.2-0.2-0.2-0.3s-0.1-0.2-0.1-0.3c0-0.1,0-0.2,0.1-0.4c0.1-0.1,0.1-0.2,0.2-0.3
		s0.2-0.2,0.4-0.2c0.2-0.1,0.3-0.1,0.5-0.1c0.3,0,0.5,0,0.7,0.1c0.2,0.1,0.3,0.2,0.4,0.4c0.1,0.2,0.2,0.3,0.2,0.5h-0.7
		c0-0.1,0-0.2-0.1-0.2c-0.1,0-0.1-0.1-0.2-0.2s-0.2-0.1-0.3-0.1c-0.1,0-0.2,0-0.3,0.1s-0.1,0.1-0.2,0.2c0,0.1-0.1,0.1-0.1,0.2
		c0,0.1,0,0.1,0,0.1l0.1,0.1c0,0,0.1,0.1,0.2,0.1s0.2,0.1,0.3,0.1c0.2,0.1,0.4,0.1,0.6,0.2c0.2,0.1,0.3,0.2,0.4,0.3
		c0.1,0.1,0.1,0.3,0.1,0.5c0,0.1,0,0.3-0.1,0.4c-0.1,0.1-0.1,0.2-0.3,0.3c-0.1,0.1-0.2,0.2-0.4,0.2c-0.2,0.1-0.3,0.1-0.5,0.1
		c-0.3,0-0.5-0.1-0.7-0.2c-0.2-0.1-0.3-0.2-0.4-0.4c-0.1-0.2-0.2-0.3-0.2-0.5h0.7c0,0.1,0,0.2,0.1,0.3c0.1,0.1,0.2,0.1,0.2,0.2
		c0.1,0,0.2,0.1,0.3,0.1c0.1,0,0.2,0,0.3-0.1c0.1,0,0.2-0.1,0.2-0.1C118.1,128.9,118.2,128.8,118.2,128.7z"/>
	<path class="st6" d="M120.2,128.9v0.5c0,0.2-0.1,0.4-0.2,0.6s-0.2,0.4-0.4,0.5l-0.4-0.2c0.1-0.1,0.1-0.2,0.2-0.3s0.1-0.2,0.1-0.3
		s0-0.2,0-0.3v-0.5H120.2L120.2,128.9z"/>
	<path class="st6" d="M124.2,128h-1.1v-0.6h1.1c0.2,0,0.3,0,0.5-0.1c0.2-0.1,0.2-0.2,0.3-0.3c0.1-0.1,0.1-0.2,0.1-0.4s0-0.3-0.1-0.4
		c-0.1-0.1-0.1-0.2-0.3-0.3s-0.3-0.1-0.5-0.1h-0.9v3.8h-0.7v-4.4h1.7c0.3,0,0.6,0.1,0.8,0.2c0.2,0.1,0.4,0.3,0.5,0.5
		c0.1,0.2,0.2,0.4,0.2,0.7c0,0.3-0.1,0.5-0.2,0.7c-0.1,0.2-0.3,0.3-0.5,0.4C124.8,128,124.5,128,124.2,128z"/>
	<path class="st6" d="M127.8,129.8c-0.2,0-0.4,0-0.6-0.1c-0.2-0.1-0.3-0.2-0.5-0.3c-0.1-0.1-0.2-0.3-0.3-0.5
		c-0.1-0.2-0.1-0.4-0.1-0.6v-0.1c0-0.2,0-0.5,0.1-0.7c0.1-0.2,0.2-0.4,0.3-0.5c0.1-0.2,0.3-0.3,0.5-0.3c0.2-0.1,0.4-0.1,0.6-0.1
		c0.2,0,0.4,0,0.6,0.1c0.2,0.1,0.3,0.2,0.4,0.3s0.2,0.3,0.2,0.5c0.1,0.2,0.1,0.4,0.1,0.6v0.3h-2.5v-0.5h1.9v-0.1
		c0-0.1,0-0.2-0.1-0.4c0-0.1-0.1-0.2-0.2-0.3c-0.1-0.1-0.2-0.1-0.4-0.1c-0.1,0-0.2,0-0.3,0.1c-0.1,0.1-0.2,0.1-0.2,0.2
		c0,0.1-0.1,0.2-0.1,0.3s-0.1,0.3-0.1,0.4v0.1c0,0.1,0,0.3,0.1,0.4c0.1,0.1,0.1,0.2,0.2,0.3c0.1,0.1,0.2,0.2,0.3,0.2
		c0.1,0.1,0.2,0.1,0.4,0.1s0.3,0,0.4-0.1c0.1-0.1,0.2-0.2,0.4-0.3l0.4,0.4c-0.1,0.1-0.2,0.2-0.3,0.3c-0.1,0.1-0.2,0.2-0.4,0.2
		C128.2,129.7,128,129.8,127.8,129.8z"/>
	<path class="st6" d="M130.5,125v4.7h-0.7V125H130.5z"/>
	<path class="st6" d="M132.1,125v4.7h-0.7V125H132.1z"/>
	<path class="st6" d="M134.3,129.8c-0.2,0-0.4,0-0.6-0.1c-0.2-0.1-0.4-0.2-0.5-0.3s-0.2-0.3-0.3-0.5s-0.1-0.4-0.1-0.6v-0.1
		c0-0.2,0-0.5,0.1-0.7c0.1-0.2,0.2-0.4,0.3-0.5c0.1-0.2,0.3-0.3,0.5-0.3c0.2-0.1,0.4-0.1,0.6-0.1c0.2,0,0.4,0,0.6,0.1
		c0.2,0.1,0.3,0.2,0.4,0.3s0.2,0.3,0.2,0.5c0.1,0.2,0.1,0.4,0.1,0.6v0.3h-2.6v-0.5h1.9v-0.1c0-0.1,0-0.2-0.1-0.4
		c0-0.1-0.1-0.2-0.2-0.3c-0.1-0.1-0.2-0.1-0.4-0.1c-0.1,0-0.2,0-0.3,0.1s-0.2,0.1-0.2,0.2c0,0.1-0.1,0.2-0.1,0.3s-0.1,0.3-0.1,0.4
		v0.1c0,0.1,0,0.3,0.1,0.4c0.1,0.1,0.1,0.2,0.2,0.3c0.1,0.1,0.2,0.2,0.3,0.2c0.1,0.1,0.2,0.1,0.4,0.1s0.3,0,0.4-0.1
		c0.1-0.1,0.2-0.2,0.4-0.3l0.4,0.4c-0.1,0.1-0.2,0.2-0.3,0.3c-0.1,0.1-0.2,0.2-0.4,0.2C134.8,129.7,134.5,129.8,134.3,129.8z"/>
	<path class="st6" d="M136.9,127.1v2.6h-0.7v-3.3h0.7V127.1z M136.8,127.9h-0.2c0-0.2,0-0.4,0.1-0.6c0.1-0.2,0.1-0.3,0.3-0.5
		c0.1-0.1,0.2-0.2,0.4-0.3c0.1-0.1,0.3-0.1,0.5-0.1c0.1,0,0.3,0,0.4,0.1c0.1,0,0.2,0.1,0.3,0.2s0.2,0.2,0.2,0.4s0.1,0.3,0.1,0.6v2.1
		h-0.7v-2.2c0-0.2,0-0.3-0.1-0.4c0-0.1-0.1-0.2-0.2-0.2s-0.2-0.1-0.3-0.1c-0.1,0-0.2,0-0.3,0.1s-0.2,0.1-0.2,0.2
		c-0.1,0.1-0.1,0.2-0.1,0.3C136.8,127.6,136.8,127.8,136.8,127.9z"/>
	<path class="st6" d="M141.2,126.4v0.5h-1.9v-0.5H141.2z M139.8,125.6h0.7v3.2c0,0.1,0,0.2,0,0.2c0,0.1,0.1,0.1,0.1,0.1
		c0.1,0,0.1,0,0.2,0c0.1,0,0.1,0,0.1,0h0.1v0.5c-0.1,0-0.1,0-0.2,0.1c-0.1,0-0.2,0-0.3,0c-0.2,0-0.3,0-0.4-0.1
		c-0.1-0.1-0.2-0.2-0.3-0.3c-0.1-0.1-0.1-0.3-0.1-0.5L139.8,125.6L139.8,125.6z"/>
	<path class="st6" d="M143.1,129.8c-0.2,0-0.4,0-0.6-0.1c-0.2-0.1-0.4-0.2-0.5-0.3s-0.2-0.3-0.3-0.5s-0.1-0.4-0.1-0.6v-0.1
		c0-0.2,0-0.5,0.1-0.7c0.1-0.2,0.2-0.4,0.3-0.5c0.1-0.2,0.3-0.3,0.5-0.3c0.2-0.1,0.4-0.1,0.6-0.1c0.2,0,0.4,0,0.6,0.1
		c0.2,0.1,0.3,0.2,0.4,0.3c0.1,0.1,0.2,0.3,0.2,0.5c0.1,0.2,0.1,0.4,0.1,0.6v0.3H142v-0.5h1.9v-0.1c0-0.1,0-0.2-0.1-0.4
		c-0.1-0.2-0.1-0.2-0.2-0.3c-0.1-0.1-0.2-0.1-0.4-0.1c-0.1,0-0.2,0-0.3,0.1s-0.2,0.1-0.2,0.2c0,0.1-0.1,0.2-0.1,0.3
		s-0.1,0.3-0.1,0.4v0.1c0,0.1,0,0.3,0.1,0.4c0.1,0.1,0.1,0.2,0.2,0.3c0.1,0.1,0.2,0.2,0.3,0.2c0.1,0.1,0.2,0.1,0.4,0.1
		s0.3,0,0.4-0.1c0.1-0.1,0.2-0.2,0.4-0.3l0.4,0.4c-0.1,0.1-0.2,0.2-0.3,0.3s-0.2,0.2-0.4,0.2C143.5,129.7,143.3,129.8,143.1,129.8z"
		/>
	<path class="st6" d="M146.9,128.7c0-0.1,0-0.1-0.1-0.2c0-0.1-0.1-0.1-0.2-0.2c-0.1-0.1-0.2-0.1-0.4-0.1c-0.2,0-0.3-0.1-0.5-0.1
		c-0.1-0.1-0.3-0.1-0.4-0.2c-0.1-0.1-0.2-0.2-0.2-0.3c-0.1-0.1-0.1-0.2-0.1-0.3c0-0.1,0-0.2,0.1-0.4c0.1-0.1,0.1-0.2,0.2-0.3
		c0.1-0.1,0.2-0.2,0.4-0.2c0.1-0.1,0.3-0.1,0.5-0.1c0.3,0,0.5,0,0.7,0.1s0.3,0.2,0.4,0.4s0.1,0.3,0.1,0.5h-0.7c0-0.1,0-0.2-0.1-0.2
		s-0.1-0.1-0.2-0.2c-0.1-0.1-0.2-0.1-0.3-0.1s-0.2,0-0.3,0.1s-0.1,0.1-0.2,0.2c0,0.1-0.1,0.1-0.1,0.2c0,0.1,0,0.1,0,0.1l0.1,0.1
		c0,0,0.1,0.1,0.2,0.1s0.2,0.1,0.3,0.1c0.2,0.1,0.4,0.1,0.6,0.2c0.2,0.1,0.3,0.2,0.4,0.3c0.1,0.1,0.1,0.3,0.1,0.5
		c0,0.1,0,0.3-0.1,0.4c-0.1,0.1-0.1,0.2-0.3,0.3s-0.2,0.2-0.4,0.2c-0.2,0.1-0.3,0.1-0.5,0.1c-0.3,0-0.5-0.1-0.7-0.2
		s-0.4-0.2-0.4-0.4c-0.1-0.2-0.1-0.3-0.1-0.5h0.7c0,0.1,0,0.2,0.1,0.3c0.1,0.1,0.1,0.1,0.2,0.2c0.1,0,0.2,0.1,0.3,0.1s0.2,0,0.3-0.1
		c0.1,0,0.1-0.1,0.2-0.1C146.9,128.9,146.9,128.8,146.9,128.7z"/>
	<path class="st6" d="M150.3,130.9V127l0.1-0.6h0.6v4.6H150.3z M148.1,128L148.1,128c0-0.3,0-0.5,0.1-0.7c0.1-0.2,0.1-0.4,0.2-0.5
		c0.1-0.1,0.2-0.2,0.4-0.3s0.3-0.1,0.5-0.1s0.4,0,0.5,0.1s0.3,0.2,0.4,0.3c0.1,0.1,0.2,0.3,0.2,0.5c0.1,0.2,0.1,0.4,0.1,0.6v0.2
		c0,0.2-0.1,0.4-0.1,0.6c0,0.2-0.1,0.3-0.2,0.5c-0.1,0.2-0.2,0.2-0.4,0.3c-0.1,0.1-0.3,0.1-0.5,0.1s-0.4,0-0.5-0.1
		c-0.1-0.1-0.3-0.2-0.4-0.3c-0.1-0.2-0.2-0.3-0.2-0.5C148.1,128.5,148.1,128.3,148.1,128z M148.8,128L148.8,128c0,0.2,0,0.3,0,0.5
		c0,0.1,0.1,0.2,0.1,0.3c0.1,0.1,0.1,0.2,0.2,0.2c0.1,0.1,0.2,0.1,0.3,0.1c0.2,0,0.3,0,0.4-0.1c0.1-0.1,0.2-0.2,0.2-0.3
		s0.1-0.3,0.1-0.4v-0.5c0-0.1,0-0.2-0.1-0.3c0-0.1-0.1-0.2-0.1-0.3c-0.1-0.1-0.1-0.1-0.2-0.2c-0.1,0-0.2-0.1-0.3-0.1s-0.2,0-0.3,0.1
		s-0.2,0.1-0.2,0.2c-0.1,0.1-0.1,0.2-0.1,0.3C148.8,127.7,148.8,127.8,148.8,128z"/>
	<path class="st6" d="M153.7,128.8v-2.5h0.7v3.3h-0.6L153.7,128.8z M153.8,128.2h0.2c0,0.2,0,0.4-0.1,0.6s-0.1,0.3-0.2,0.5
		c-0.1,0.1-0.2,0.2-0.4,0.3c-0.1,0.1-0.3,0.1-0.6,0.1c-0.1,0-0.3,0-0.4-0.1s-0.2-0.1-0.3-0.2c-0.1-0.1-0.2-0.2-0.2-0.4
		c0-0.2-0.1-0.3-0.1-0.5v-2.2h0.7v2.2c0,0.1,0,0.2,0,0.3c0,0.1,0.1,0.1,0.1,0.2c0.1,0.1,0.1,0.1,0.2,0.1c0.1,0,0.1,0,0.2,0
		c0.2,0,0.4,0,0.5-0.1c0.1-0.1,0.2-0.2,0.2-0.3C153.8,128.5,153.8,128.4,153.8,128.2z"/>
	<path class="st6" d="M156.7,129.8c-0.2,0-0.4,0-0.6-0.1c-0.2-0.1-0.4-0.2-0.5-0.3s-0.2-0.3-0.3-0.5s-0.1-0.4-0.1-0.6v-0.1
		c0-0.2,0-0.5,0.1-0.7c0.1-0.2,0.2-0.4,0.3-0.5c0.1-0.2,0.3-0.3,0.5-0.3c0.2-0.1,0.4-0.1,0.6-0.1c0.2,0,0.4,0,0.6,0.1
		c0.2,0.1,0.3,0.2,0.4,0.3s0.2,0.3,0.2,0.5c0.1,0.2,0.1,0.4,0.1,0.6v0.3h-2.5v-0.5h1.9v-0.1c0-0.1,0-0.2-0.1-0.4
		c-0.1-0.2-0.1-0.2-0.2-0.3c-0.1-0.1-0.2-0.1-0.4-0.1c-0.1,0-0.2,0-0.3,0.1s-0.2,0.1-0.2,0.2c0,0.1-0.1,0.2-0.1,0.3
		s-0.1,0.3-0.1,0.4v0.1c0,0.1,0,0.3,0.1,0.4c0.1,0.1,0.1,0.2,0.2,0.3c0.1,0.1,0.2,0.2,0.3,0.2c0.1,0.1,0.2,0.1,0.4,0.1
		c0.2,0,0.3,0,0.4-0.1c0.1-0.1,0.2-0.2,0.4-0.3l0.4,0.4c-0.1,0.1-0.2,0.2-0.3,0.3s-0.2,0.2-0.4,0.2
		C157.1,129.7,156.9,129.8,156.7,129.8z"/>
	<path class="st6" d="M162.8,128.2h0.7c0,0.3-0.1,0.5-0.2,0.8c-0.1,0.2-0.3,0.4-0.6,0.5c-0.2,0.1-0.5,0.2-0.9,0.2
		c-0.3,0-0.5-0.1-0.7-0.1c-0.2-0.1-0.4-0.2-0.5-0.4c-0.1-0.2-0.3-0.4-0.4-0.6s-0.1-0.5-0.1-0.8v-0.3c0-0.3,0-0.6,0.1-0.8
		s0.2-0.5,0.4-0.6c0.1-0.2,0.3-0.3,0.6-0.4c0.2-0.1,0.5-0.1,0.7-0.1c0.3,0,0.6,0.1,0.9,0.2c0.2,0.1,0.4,0.3,0.5,0.5
		c0.1,0.2,0.2,0.5,0.2,0.8h-0.7c0-0.2-0.1-0.3-0.1-0.5c-0.1-0.1-0.2-0.2-0.3-0.3c-0.1-0.1-0.3-0.1-0.5-0.1s-0.3,0-0.4,0.1
		c-0.1,0.1-0.2,0.2-0.3,0.3c-0.1,0.1-0.1,0.3-0.2,0.4c0,0.2-0.1,0.4-0.1,0.6v0.4c0,0.2,0,0.4,0.1,0.6c0,0.2,0.1,0.3,0.2,0.4
		c0.1,0.1,0.2,0.2,0.3,0.3c0.1,0.1,0.3,0.1,0.4,0.1c0.2,0,0.4,0,0.5-0.1c0.1-0.1,0.2-0.2,0.3-0.3
		C162.7,128.5,162.7,128.4,162.8,128.2z"/>
	<path class="st6" d="M166.1,128.8v-2.5h0.7v3.3h-0.6L166.1,128.8z M166.2,128.2h0.2c0,0.2,0,0.4-0.1,0.6s-0.1,0.3-0.2,0.5
		c-0.1,0.1-0.2,0.2-0.4,0.3c-0.1,0.1-0.3,0.1-0.6,0.1c-0.1,0-0.3,0-0.4-0.1c-0.1,0-0.2-0.1-0.3-0.2c-0.1-0.1-0.2-0.2-0.2-0.4
		c0-0.2-0.1-0.3-0.1-0.5v-2.2h0.7v2.2c0,0.1,0,0.2,0,0.3c0,0.1,0.1,0.1,0.1,0.2c0.1,0.1,0.1,0.1,0.2,0.1s0.1,0,0.2,0
		c0.2,0,0.4,0,0.5-0.1c0.1-0.1,0.2-0.2,0.2-0.3C166.2,128.5,166.2,128.4,166.2,128.2z"/>
	<path class="st6" d="M168.4,127v2.7h-0.7v-3.3h0.7V127z M169.3,126.4v0.7h-0.1c-0.1,0-0.1,0-0.1,0c-0.1,0-0.2,0-0.3,0.1
		c-0.1,0-0.2,0.1-0.2,0.2c-0.1,0.1-0.1,0.1-0.1,0.2s-0.1,0.2-0.1,0.3h-0.2c0-0.2,0-0.4,0.1-0.6c0-0.2,0.1-0.3,0.2-0.4
		c0.1-0.1,0.2-0.2,0.3-0.3c0.1-0.1,0.3-0.1,0.4-0.1L169.3,126.4L169.3,126.4z"/>
	<path class="st6" d="M171.6,128.7c0-0.1,0-0.1-0.1-0.2c0-0.1-0.1-0.1-0.2-0.2c-0.1-0.1-0.2-0.1-0.4-0.1s-0.3-0.1-0.5-0.1
		c-0.1-0.1-0.3-0.1-0.4-0.2c-0.1-0.1-0.2-0.2-0.2-0.3c-0.1-0.1-0.1-0.2-0.1-0.3c0-0.1,0-0.2,0.1-0.4c0.1-0.1,0.1-0.2,0.2-0.3
		c0.1-0.1,0.2-0.2,0.4-0.2c0.1-0.1,0.3-0.1,0.5-0.1c0.3,0,0.5,0,0.7,0.1c0.2,0.1,0.3,0.2,0.4,0.4s0.1,0.3,0.1,0.5h-0.7
		c0-0.1,0-0.2-0.1-0.2s-0.1-0.1-0.2-0.2c-0.1-0.1-0.2-0.1-0.3-0.1s-0.2,0-0.3,0.1s-0.1,0.1-0.2,0.2c0,0.1-0.1,0.1-0.1,0.2
		c0,0.1,0,0.1,0,0.1l0.1,0.1c0,0,0.1,0.1,0.2,0.1s0.2,0.1,0.3,0.1c0.2,0.1,0.4,0.1,0.6,0.2c0.2,0.1,0.3,0.2,0.4,0.3
		c0.1,0.1,0.1,0.3,0.1,0.5c0,0.1,0,0.3-0.1,0.4c-0.1,0.1-0.1,0.2-0.3,0.3c-0.1,0.1-0.2,0.2-0.4,0.2c-0.2,0.1-0.3,0.1-0.5,0.1
		c-0.3,0-0.5-0.1-0.7-0.2s-0.4-0.2-0.4-0.4c-0.1-0.2-0.1-0.3-0.1-0.5h0.7c0,0.1,0,0.2,0.1,0.3c0.1,0.1,0.1,0.1,0.2,0.2
		c0.1,0,0.2,0.1,0.3,0.1s0.2,0,0.3-0.1c0.1,0,0.1-0.1,0.2-0.1C171.6,128.9,171.6,128.8,171.6,128.7z"/>
	<path class="st6" d="M175,128.8v-2.5h0.7v3.3H175V128.8z M175.1,128.2h0.2c0,0.2,0,0.4-0.1,0.6s-0.1,0.3-0.2,0.5
		c-0.1,0.1-0.2,0.2-0.4,0.3c-0.1,0.1-0.3,0.1-0.6,0.1c-0.1,0-0.3,0-0.4-0.1s-0.2-0.1-0.3-0.2c-0.1-0.1-0.2-0.2-0.2-0.4
		c0-0.2-0.1-0.3-0.1-0.5v-2.2h0.7v2.2c0,0.1,0,0.2,0,0.3c0,0.1,0.1,0.1,0.1,0.2c0.1,0.1,0.1,0.1,0.2,0.1s0.1,0,0.2,0
		c0.2,0,0.4,0,0.5-0.1c0.1-0.1,0.2-0.2,0.2-0.3C175,128.5,175.1,128.4,175.1,128.2z"/>
	<path class="st6" d="M178.3,128.7c0-0.1,0-0.1-0.1-0.2c0-0.1-0.1-0.1-0.2-0.2c-0.1-0.1-0.2-0.1-0.4-0.1s-0.3-0.1-0.5-0.1
		c-0.1-0.1-0.3-0.1-0.4-0.2c-0.1-0.1-0.2-0.2-0.2-0.3c-0.1-0.1-0.1-0.2-0.1-0.3c0-0.1,0-0.2,0.1-0.4c0.1-0.1,0.1-0.2,0.2-0.3
		c0.1-0.1,0.2-0.2,0.4-0.2c0.1-0.1,0.3-0.1,0.5-0.1c0.3,0,0.5,0,0.7,0.1s0.3,0.2,0.4,0.4s0.1,0.3,0.1,0.5h-0.7c0-0.1,0-0.2-0.1-0.2
		c-0.1,0-0.1-0.1-0.2-0.2c-0.1-0.1-0.2-0.1-0.3-0.1s-0.2,0-0.3,0.1s-0.1,0.1-0.2,0.2c0,0.1-0.1,0.1-0.1,0.2c0,0.1,0,0.1,0,0.1
		l0.1,0.1c0,0,0.1,0.1,0.2,0.1c0.1,0,0.2,0.1,0.3,0.1c0.2,0.1,0.4,0.1,0.6,0.2c0.2,0.1,0.3,0.2,0.4,0.3c0.1,0.1,0.1,0.3,0.1,0.5
		c0,0.1,0,0.3-0.1,0.4c-0.1,0.1-0.1,0.2-0.3,0.3c-0.2,0.1-0.2,0.2-0.4,0.2c-0.2,0.1-0.3,0.1-0.5,0.1c-0.3,0-0.5-0.1-0.7-0.2
		s-0.4-0.2-0.4-0.4c-0.1-0.2-0.1-0.3-0.1-0.5h0.7c0,0.1,0,0.2,0.1,0.3c0.1,0.1,0.1,0.1,0.2,0.2c0.1,0,0.2,0.1,0.3,0.1s0.2,0,0.3-0.1
		c0.1,0,0.1-0.1,0.2-0.1C178.2,128.9,178.3,128.8,178.3,128.7z"/>
	<path class="st6" d="M183.7,125.2h0.7v2.9c0,0.3-0.1,0.6-0.2,0.8c-0.1,0.2-0.3,0.4-0.6,0.5c-0.2,0.1-0.5,0.2-0.8,0.2
		s-0.6-0.1-0.8-0.2c-0.2-0.1-0.4-0.3-0.6-0.5c-0.1-0.2-0.2-0.5-0.2-0.8v-2.9h0.7v2.9c0,0.2,0,0.4,0.1,0.5c0.1,0.1,0.2,0.2,0.3,0.3
		c0.1,0.1,0.3,0.1,0.5,0.1s0.3,0,0.4-0.1c0.1-0.1,0.2-0.2,0.3-0.3s0.1-0.3,0.1-0.5L183.7,125.2L183.7,125.2z"/>
	<path class="st6" d="M186,125v4.7h-0.7V125H186z"/>
	<path class="st6" d="M187.6,125v4.7h-0.7V125H187.6z"/>
	<path class="st6" d="M190.2,129v-1.6c0-0.1,0-0.2-0.1-0.3s-0.1-0.2-0.2-0.2c-0.1-0.1-0.2-0.1-0.3-0.1s-0.2,0-0.3,0.1
		s-0.1,0.1-0.2,0.2c-0.1,0.1-0.1,0.1-0.1,0.2h-0.7c0-0.1,0-0.2,0.1-0.4c0.1-0.1,0.1-0.2,0.3-0.3c0.1-0.1,0.2-0.2,0.4-0.2
		c0.2-0.1,0.3-0.1,0.5-0.1s0.4,0,0.6,0.1c0.2,0.1,0.3,0.2,0.4,0.4c0.1,0.2,0.2,0.4,0.2,0.6v1.4c0,0.1,0,0.3,0,0.4
		c0,0.1,0.1,0.2,0.1,0.3l0,0h-0.7c0-0.1-0.1-0.2-0.1-0.3C190.2,129.3,190.2,129.2,190.2,129z M190.4,127.7v0.4h-0.5
		c-0.1,0-0.2,0-0.4,0c-0.1,0-0.2,0.1-0.2,0.1s-0.1,0.1-0.1,0.2c0,0.1-0.1,0.1-0.1,0.2c0,0.1,0,0.2,0.1,0.2s0.1,0.1,0.2,0.2
		c0.1,0,0.2,0.1,0.3,0.1s0.3,0,0.4-0.1c0.1-0.1,0.2-0.1,0.3-0.2c0.1-0.1,0.1-0.2,0.1-0.2l0.2,0.3c0,0.1-0.1,0.2-0.1,0.3
		c-0.1,0.1-0.1,0.2-0.2,0.3c-0.1,0.1-0.2,0.2-0.3,0.2c-0.1,0.1-0.3,0.1-0.4,0.1c-0.2,0-0.4,0-0.6-0.1c-0.2-0.1-0.3-0.2-0.4-0.3
		c-0.1-0.1-0.1-0.3-0.1-0.5s0-0.3,0.1-0.4c0.1-0.1,0.2-0.2,0.3-0.3s0.3-0.2,0.5-0.2c0.2-0.1,0.4-0.1,0.6-0.1L190.4,127.7
		L190.4,127.7z"/>
	<path class="st6" d="M192.5,127.1v2.6h-0.7v-3.3h0.7V127.1z M192.4,127.9h-0.3c0-0.2,0-0.4,0.1-0.6c0.1-0.2,0.1-0.3,0.2-0.5
		c0.1-0.1,0.2-0.2,0.4-0.3c0.2-0.1,0.3-0.1,0.6-0.1c0.1,0,0.3,0,0.4,0.1s0.2,0.1,0.3,0.2s0.2,0.2,0.2,0.3s0.1,0.3,0.1,0.5v2.2h-0.7
		v-2.2c0-0.2,0-0.3-0.1-0.4c0-0.1-0.1-0.2-0.2-0.2c-0.1,0-0.2-0.1-0.3-0.1s-0.2,0-0.3,0.1s-0.2,0.1-0.2,0.2s-0.1,0.2-0.1,0.3
		C192.4,127.6,192.4,127.8,192.4,127.9z M194.4,127.7l-0.3,0.1c0-0.2,0-0.4,0.1-0.5c0.1-0.2,0.1-0.3,0.2-0.4s0.2-0.2,0.4-0.3
		c0.1-0.1,0.3-0.1,0.5-0.1s0.3,0,0.4,0.1c0.1,0,0.2,0.1,0.3,0.2s0.2,0.2,0.2,0.4c0,0.2,0.1,0.3,0.1,0.5v2.1h-0.7v-2.2
		c0-0.2,0-0.3-0.1-0.4c0-0.1-0.1-0.2-0.2-0.2c-0.1,0-0.2-0.1-0.3-0.1c-0.1,0-0.2,0-0.3,0.1c-0.1,0-0.1,0.1-0.2,0.2
		c-0.1,0.1-0.1,0.2-0.1,0.2C194.5,127.5,194.4,127.6,194.4,127.7z"/>
	<path class="st6" d="M198.5,129.2c0.1,0,0.2,0,0.3-0.1c0.1-0.1,0.2-0.1,0.2-0.2c0-0.1,0.1-0.2,0.1-0.3h0.7c0,0.2-0.1,0.4-0.2,0.6
		c-0.1,0.2-0.3,0.3-0.5,0.4c-0.2,0.1-0.4,0.1-0.6,0.1c-0.2,0-0.4,0-0.6-0.1c-0.2-0.1-0.3-0.2-0.4-0.3s-0.2-0.3-0.3-0.5
		c-0.1-0.2-0.1-0.4-0.1-0.6V128c0-0.2,0-0.4,0.1-0.6c0.1-0.2,0.1-0.4,0.3-0.5c0.1-0.2,0.3-0.3,0.4-0.3c0.2-0.1,0.4-0.1,0.6-0.1
		c0.2,0,0.5,0.1,0.7,0.2c0.2,0.1,0.3,0.2,0.4,0.4s0.2,0.4,0.2,0.6h-0.7c0-0.1,0-0.2-0.1-0.3c-0.1-0.1-0.1-0.2-0.2-0.2
		c-0.1-0.1-0.2-0.1-0.3-0.1s-0.3,0-0.4,0.1c-0.1,0.1-0.2,0.1-0.2,0.2c-0.1,0.1-0.1,0.2-0.1,0.3c0,0.1,0,0.2,0,0.4v0.1
		c0,0.1,0,0.3,0,0.4c0,0.1,0.1,0.2,0.1,0.3c0.1,0.1,0.1,0.2,0.2,0.2C198.2,129.2,198.4,129.2,198.5,129.2z"/>
	<path class="st6" d="M200.3,128L200.3,128c0-0.3,0-0.5,0.1-0.7c0.1-0.2,0.2-0.4,0.3-0.5c0.1-0.2,0.3-0.3,0.5-0.3
		c0.2-0.1,0.4-0.1,0.6-0.1s0.4,0,0.6,0.1s0.3,0.2,0.5,0.3c0.1,0.1,0.2,0.3,0.3,0.5c0.1,0.2,0.1,0.4,0.1,0.6v0.1c0,0.2,0,0.4-0.1,0.6
		s-0.2,0.4-0.3,0.5c-0.1,0.1-0.3,0.3-0.5,0.3c-0.2,0.1-0.4,0.1-0.6,0.1s-0.4,0-0.6-0.1c-0.2-0.1-0.3-0.2-0.5-0.3
		c-0.1-0.2-0.2-0.3-0.3-0.5C200.3,128.5,200.3,128.3,200.3,128z M201,128L201,128c0,0.2,0,0.3,0,0.5c0,0.1,0.1,0.2,0.1,0.3
		c0.1,0.1,0.1,0.2,0.2,0.2c0.1,0.1,0.2,0.1,0.4,0.1c0.1,0,0.2,0,0.3-0.1c0.1-0.1,0.2-0.1,0.2-0.2c0.1-0.1,0.1-0.2,0.1-0.3
		s0.1-0.3,0.1-0.4V128c0-0.1,0-0.3-0.1-0.4c0-0.1-0.1-0.2-0.1-0.3c0-0.1-0.1-0.2-0.2-0.2c-0.1-0.1-0.2-0.1-0.3-0.1s-0.2,0-0.4,0.1
		c-0.1,0.1-0.2,0.1-0.2,0.2c-0.1,0.1-0.1,0.2-0.1,0.3C201,127.7,201,127.8,201,128z"/>
	<path class="st6" d="M204.7,127v2.7H204v-3.3h0.7V127z M205.6,126.4v0.7h-0.1c-0.1,0-0.1,0-0.1,0c-0.1,0-0.2,0-0.3,0.1
		c-0.1,0-0.2,0.1-0.2,0.2c-0.1,0.1-0.1,0.1-0.1,0.2s-0.1,0.2-0.1,0.3h-0.2c0-0.2,0-0.4,0.1-0.6c0-0.2,0.1-0.3,0.2-0.4
		c0.1-0.1,0.2-0.2,0.3-0.3c0.1-0.1,0.3-0.1,0.4-0.1L205.6,126.4L205.6,126.4z"/>
	<path class="st6" d="M206.9,127v3.9h-0.7v-4.6h0.6L206.9,127z M209,128L209,128c0,0.3,0,0.5-0.1,0.7c-0.1,0.2-0.1,0.4-0.2,0.5
		c-0.1,0.1-0.2,0.3-0.4,0.3c-0.1,0.1-0.3,0.1-0.5,0.1c-0.2,0-0.4,0-0.5-0.1c-0.1-0.1-0.3-0.2-0.4-0.3c-0.1-0.1-0.2-0.3-0.2-0.5
		c-0.1-0.2-0.1-0.4-0.1-0.6v-0.2c0-0.2,0.1-0.4,0.1-0.6c0.1-0.2,0.1-0.3,0.2-0.5s0.2-0.2,0.4-0.3c0.1-0.1,0.3-0.1,0.5-0.1
		c0.2,0,0.4,0,0.5,0.1s0.3,0.2,0.4,0.3c0.1,0.1,0.2,0.3,0.2,0.5C208.9,127.5,209,127.7,209,128z M208.2,128L208.2,128
		c0-0.2,0-0.3,0-0.5c0-0.1-0.1-0.2-0.1-0.3c-0.1-0.1-0.1-0.2-0.2-0.2c-0.1-0.1-0.2-0.1-0.3-0.1s-0.2,0-0.3,0.1
		c-0.1,0-0.2,0.1-0.2,0.2c0,0.1-0.1,0.2-0.1,0.3s-0.1,0.2-0.1,0.3v0.6c0,0.1,0.1,0.3,0.1,0.4c0,0.1,0.1,0.2,0.2,0.3
		c0.1,0.1,0.2,0.1,0.4,0.1c0.1,0,0.2,0,0.3-0.1c0.1-0.1,0.2-0.1,0.2-0.2c0.1-0.1,0.1-0.2,0.1-0.3C208.2,128.3,208.2,128.2,208.2,128
		z"/>
	<path class="st6" d="M211.1,129.8c-0.2,0-0.4,0-0.6-0.1c-0.2-0.1-0.4-0.2-0.5-0.3s-0.2-0.3-0.3-0.5s-0.1-0.4-0.1-0.6v-0.1
		c0-0.2,0-0.5,0.1-0.7c0.1-0.2,0.2-0.4,0.3-0.5c0.1-0.2,0.3-0.3,0.5-0.3c0.2-0.1,0.4-0.1,0.6-0.1c0.2,0,0.4,0,0.6,0.1
		c0.2,0.1,0.3,0.2,0.4,0.3c0.1,0.1,0.2,0.3,0.2,0.5c0.1,0.2,0.1,0.4,0.1,0.6v0.3H210v-0.5h1.9v-0.1c0-0.1,0-0.2-0.1-0.4
		c0-0.1-0.1-0.2-0.2-0.3c-0.1-0.1-0.2-0.1-0.4-0.1c-0.1,0-0.2,0-0.3,0.1s-0.2,0.1-0.2,0.2c0,0.1-0.1,0.2-0.1,0.3s-0.1,0.3-0.1,0.4
		v0.1c0,0.1,0,0.3,0.1,0.4c0.1,0.1,0.1,0.2,0.2,0.3c0.1,0.1,0.2,0.2,0.3,0.2c0.1,0.1,0.2,0.1,0.4,0.1s0.3,0,0.4-0.1
		c0.1-0.1,0.2-0.2,0.4-0.3l0.4,0.4c-0.1,0.1-0.2,0.2-0.3,0.3s-0.2,0.2-0.4,0.2C211.4,129.7,211.3,129.8,211.1,129.8z"/>
	<path class="st6" d="M213.7,127v2.7H213v-3.3h0.7V127z M214.7,126.4v0.7h-0.1c-0.1,0-0.1,0-0.1,0c-0.1,0-0.2,0-0.3,0.1
		c-0.1,0-0.2,0.1-0.2,0.2c-0.1,0.1-0.1,0.1-0.1,0.2s-0.1,0.2-0.1,0.3h-0.2c0-0.2,0-0.4,0.1-0.6c0-0.2,0.1-0.3,0.2-0.4
		c0.1-0.1,0.2-0.2,0.3-0.3c0.1-0.1,0.3-0.1,0.4-0.1L214.7,126.4C214.6,126.4,214.6,126.4,214.7,126.4z"/>
	<path class="st6" d="M219.2,125.2h0.7v2.9c0,0.3-0.1,0.6-0.2,0.8c-0.1,0.2-0.3,0.4-0.6,0.5c-0.2,0.1-0.5,0.2-0.8,0.2
		c-0.3,0-0.6-0.1-0.8-0.2c-0.2-0.1-0.4-0.3-0.6-0.5c-0.1-0.2-0.2-0.5-0.2-0.8v-2.9h0.7v2.9c0,0.2,0,0.4,0.1,0.5
		c0.1,0.1,0.2,0.2,0.3,0.3s0.3,0.1,0.5,0.1c0.2,0,0.3,0,0.4-0.1c0.1-0.1,0.2-0.2,0.3-0.3s0.1-0.3,0.1-0.5L219.2,125.2L219.2,125.2z"
		/>
	<path class="st6" d="M221.5,127v2.7h-0.7v-3.3h0.7V127z M222.5,126.4v0.7h-0.1c-0.1,0-0.1,0-0.1,0c-0.1,0-0.2,0-0.3,0.1
		c-0.1,0-0.2,0.1-0.2,0.2c-0.1,0.1-0.1,0.1-0.1,0.2s-0.1,0.2-0.1,0.3h-0.2c0-0.2,0-0.4,0.1-0.6c0-0.2,0.1-0.3,0.2-0.4
		c0.1-0.1,0.2-0.2,0.3-0.3c0.1-0.1,0.3-0.1,0.4-0.1L222.5,126.4C222.4,126.4,222.5,126.4,222.5,126.4z"/>
	<path class="st6" d="M223.6,127.1v2.6h-0.7v-3.3h0.7V127.1z M223.5,127.9h-0.2c0-0.2,0-0.4,0.1-0.6c0.1-0.2,0.1-0.3,0.3-0.5
		c0.1-0.1,0.2-0.2,0.4-0.3c0.1-0.1,0.3-0.1,0.5-0.1c0.1,0,0.3,0,0.4,0.1c0.1,0,0.2,0.1,0.3,0.2s0.2,0.2,0.2,0.4s0.1,0.3,0.1,0.6v2.1
		H225v-2.2c0-0.2,0-0.3-0.1-0.4c0-0.1-0.1-0.2-0.2-0.2c-0.1,0-0.2-0.1-0.3-0.1s-0.2,0-0.3,0.1s-0.2,0.1-0.2,0.2
		c-0.1,0.1-0.1,0.2-0.1,0.3C223.5,127.6,223.5,127.8,223.5,127.9z"/>
	<path class="st6" d="M228.3,129v-1.6c0-0.1,0-0.2-0.1-0.3s-0.1-0.2-0.2-0.2c-0.1-0.1-0.2-0.1-0.3-0.1s-0.2,0-0.3,0.1
		s-0.1,0.1-0.2,0.2c-0.1,0.1-0.1,0.1-0.1,0.2h-0.7c0-0.1,0-0.2,0.1-0.4c0.1-0.1,0.1-0.2,0.3-0.3c0.1-0.1,0.2-0.2,0.4-0.2
		c0.2-0.1,0.3-0.1,0.5-0.1s0.4,0,0.6,0.1c0.2,0.1,0.3,0.2,0.4,0.4s0.2,0.4,0.2,0.6v1.4c0,0.1,0,0.3,0,0.4c0,0.1,0.1,0.2,0.1,0.3l0,0
		h-0.7c0-0.1-0.1-0.2-0.1-0.3C228.3,129.3,228.3,129.2,228.3,129z M228.4,127.7v0.4h-0.5c-0.1,0-0.2,0-0.4,0c-0.1,0-0.2,0.1-0.2,0.1
		s-0.1,0.1-0.1,0.2c0,0.1-0.1,0.1-0.1,0.2c0,0.1,0,0.2,0.1,0.2s0.1,0.1,0.2,0.2c0.1,0,0.2,0.1,0.3,0.1s0.3,0,0.4-0.1
		c0.1-0.1,0.2-0.1,0.3-0.2c0.1-0.1,0.1-0.2,0.1-0.2l0.2,0.3c0,0.1-0.1,0.2-0.1,0.3c-0.1,0.1-0.1,0.2-0.2,0.3
		c-0.1,0.1-0.2,0.2-0.3,0.2c-0.1,0.1-0.3,0.1-0.4,0.1c-0.2,0-0.4,0-0.6-0.1c-0.2-0.1-0.3-0.2-0.4-0.3c-0.1-0.1-0.1-0.3-0.1-0.5
		s0-0.3,0.1-0.4c0.1-0.1,0.2-0.2,0.3-0.3c0.1-0.1,0.3-0.2,0.5-0.2c0.2-0.1,0.4-0.1,0.6-0.1L228.4,127.7L228.4,127.7z"/>
	<path class="st6" d="M121,138.4h-1.1v-0.6h1.1c0.2,0,0.3,0,0.5-0.1s0.2-0.1,0.3-0.3c0.1-0.1,0.1-0.2,0.1-0.4c0-0.1,0-0.3-0.1-0.4
		c-0.1-0.1-0.1-0.2-0.3-0.3c-0.1-0.1-0.3-0.1-0.5-0.1h-0.9v3.8h-0.7v-4.4h1.7c0.3,0,0.6,0.1,0.8,0.2c0.2,0.1,0.4,0.3,0.5,0.5
		c0.1,0.2,0.2,0.4,0.2,0.7s-0.1,0.5-0.2,0.7c-0.1,0.2-0.3,0.4-0.5,0.4C121.6,138.4,121.4,138.4,121,138.4z"/>
	<path class="st6" d="M125.2,139.2v-2.5h0.7v3.3h-0.7V139.2z M125.3,138.6h0.2c0,0.2,0,0.4-0.1,0.6c-0.1,0.2-0.1,0.3-0.2,0.5
		c-0.1,0.1-0.2,0.2-0.4,0.3c-0.2,0.1-0.3,0.1-0.6,0.1c-0.2,0-0.3,0-0.4-0.1s-0.2-0.1-0.3-0.2c-0.1-0.1-0.2-0.2-0.2-0.4
		c-0.1-0.1-0.1-0.3-0.1-0.5v-2.2h0.7v2.2c0,0.1,0,0.2,0,0.3s0.1,0.1,0.1,0.2c0.1,0.1,0.1,0.1,0.2,0.1s0.1,0,0.2,0
		c0.2,0,0.4,0,0.5-0.1s0.2-0.2,0.2-0.3C125.2,138.9,125.3,138.8,125.3,138.6z"/>
	<path class="st6" d="M127.5,135.4v4.7h-0.7v-4.7H127.5z"/>
	<path class="st6" d="M129.4,139.4l0.8-2.7h0.7l-1.1,3.3h-0.5L129.4,139.4z M128.7,136.7l0.8,2.7v0.6h-0.5l-1.1-3.3L128.7,136.7
		L128.7,136.7z"/>
	<path class="st6" d="M132.2,136.7v3.3h-0.7v-3.3H132.2z M131.3,135.9c0-0.1,0-0.2,0.1-0.3s0.2-0.1,0.3-0.1s0.2,0,0.3,0.1
		s0.1,0.2,0.1,0.3s0,0.2-0.1,0.3s-0.2,0.1-0.3,0.1s-0.2,0-0.3-0.1S131.3,136,131.3,135.9z"/>
	<path class="st6" d="M133.6,137.4v2.6h-0.7v-3.3h0.7V137.4z M133.5,138.3h-0.2c0-0.2,0-0.4,0.1-0.6c0.1-0.2,0.1-0.4,0.3-0.5
		c0.1-0.1,0.2-0.2,0.4-0.3c0.1-0.1,0.3-0.1,0.5-0.1c0.1,0,0.3,0,0.4,0.1c0.1,0,0.2,0.1,0.3,0.2c0.1,0.1,0.2,0.2,0.2,0.4
		s0.1,0.3,0.1,0.6v2.1H135v-2.2c0-0.1,0-0.3-0.1-0.4c0-0.1-0.1-0.1-0.2-0.2c-0.1,0-0.2-0.1-0.3-0.1s-0.2,0-0.3,0.1s-0.2,0.1-0.2,0.2
		c-0.1,0.1-0.1,0.2-0.1,0.3C133.5,137.9,133.5,138.2,133.5,138.3z"/>
	<path class="st6" d="M138.3,139.4v-1.6c0-0.1,0-0.2-0.1-0.3s-0.1-0.1-0.2-0.2c-0.1,0-0.2-0.1-0.3-0.1c-0.1,0-0.2,0-0.3,0.1
		s-0.1,0.1-0.2,0.2s-0.1,0.1-0.1,0.2h-0.7c0-0.1,0-0.2,0.1-0.4c0.1-0.1,0.1-0.2,0.3-0.3c0.1-0.1,0.2-0.2,0.4-0.2
		c0.2-0.1,0.3-0.1,0.5-0.1c0.2,0,0.4,0,0.6,0.1c0.2,0.1,0.3,0.2,0.4,0.4s0.2,0.4,0.2,0.6v1.4c0,0.1,0,0.3,0,0.4
		c0,0.1,0.1,0.2,0.1,0.3l0,0h-0.7c0-0.1-0.1-0.2-0.1-0.3C138.3,139.6,138.3,139.5,138.3,139.4z M138.4,138.1v0.4h-0.5
		c-0.1,0-0.2,0-0.4,0c-0.1,0-0.2,0.1-0.2,0.1c-0.1,0.1-0.1,0.1-0.1,0.2c0,0.1-0.1,0.1-0.1,0.2s0,0.2,0.1,0.2c0,0.1,0.1,0.1,0.2,0.2
		c0.1,0,0.2,0.1,0.3,0.1s0.3,0,0.4-0.1s0.2-0.1,0.3-0.2s0.1-0.2,0.1-0.2l0.2,0.3c0,0.1-0.1,0.2-0.1,0.3s-0.1,0.2-0.2,0.3
		s-0.2,0.1-0.3,0.2c-0.1,0.1-0.3,0.1-0.4,0.1c-0.2,0-0.4,0-0.6-0.1s-0.3-0.2-0.4-0.3c-0.1-0.1-0.1-0.3-0.1-0.5s0-0.3,0.1-0.4
		c0.1-0.1,0.2-0.2,0.3-0.3s0.3-0.1,0.5-0.2c0.2-0.1,0.4-0.1,0.6-0.1L138.4,138.1L138.4,138.1z"/>
	<path class="st6" d="M140.4,137.3v2.7h-0.7v-3.3h0.7V137.3z M141.5,136.7v0.7h-0.1c-0.1,0-0.1,0-0.1,0c-0.1,0-0.2,0-0.3,0.1
		c-0.1,0-0.2,0.1-0.2,0.1c-0.1,0.1-0.1,0.1-0.1,0.2s-0.1,0.2-0.1,0.3h-0.2c0-0.2,0-0.4,0.1-0.6s0.1-0.3,0.2-0.4
		c0.1-0.1,0.2-0.2,0.3-0.3s0.3-0.1,0.4-0.1H141.5C141.4,136.7,141.5,136.7,141.5,136.7z"/>
	<path class="st6" d="M141.5,139.6c0-0.1,0-0.2,0.1-0.3s0.2-0.1,0.3-0.1s0.2,0,0.3,0.1s0.1,0.2,0.1,0.3s0,0.2-0.1,0.3
		s-0.2,0.1-0.3,0.1s-0.2,0-0.3-0.1C141.6,139.9,141.5,139.8,141.5,139.6z"/>
	<path class="st6" d="M146.3,139.2l1.1-3.6h0.8l-1.6,4.4h-0.6L146.3,139.2z M145.3,135.6l1.1,3.6l0.1,0.8h-0.6l-1.6-4.4H145.3z"/>
	<path class="st6" d="M150.1,140.1c-0.2,0-0.4,0-0.6-0.1s-0.4-0.2-0.5-0.3s-0.2-0.3-0.3-0.5s-0.1-0.4-0.1-0.6v-0.1
		c0-0.2,0-0.5,0.1-0.7s0.2-0.4,0.3-0.5s0.3-0.2,0.5-0.3s0.4-0.1,0.6-0.1c0.2,0,0.4,0,0.6,0.1s0.3,0.2,0.4,0.3
		c0.1,0.1,0.2,0.3,0.2,0.5c0.1,0.2,0.1,0.4,0.1,0.6v0.3h-2.5v-0.5h1.9v-0.1c0-0.1,0-0.2-0.1-0.4c0-0.1-0.1-0.2-0.2-0.3
		s-0.2-0.1-0.4-0.1c-0.1,0-0.2,0-0.3,0.1s-0.2,0.1-0.2,0.2c-0.1,0.1-0.1,0.2-0.1,0.3s-0.1,0.3-0.1,0.4v0.1c0,0.1,0,0.3,0.1,0.4
		c0,0.1,0.1,0.2,0.2,0.3s0.2,0.2,0.3,0.2s0.2,0.1,0.4,0.1c0.2,0,0.3,0,0.4-0.1c0.1-0.1,0.2-0.2,0.4-0.3l0.4,0.4
		c-0.1,0.1-0.2,0.2-0.3,0.3s-0.2,0.2-0.4,0.2C150.5,140,150.3,140.1,150.1,140.1z"/>
	<path class="st6" d="M152.8,135.4v4.7H152v-4.7H152.8z"/>
	<path class="st6" d="M154.3,136.7v3.3h-0.7v-3.3H154.3z M153.6,135.9c0-0.1,0-0.2,0.1-0.3s0.2-0.1,0.3-0.1s0.2,0,0.3,0.1
		s0.1,0.2,0.1,0.3s0,0.2-0.1,0.3s-0.2,0.1-0.3,0.1s-0.2,0-0.3-0.1S153.6,136,153.6,135.9z"/>
	<path class="st6" d="M156.7,136.7v0.5h-1.9v-0.5H156.7z M155.3,136h0.7v3.2c0,0.1,0,0.2,0,0.2c0,0.1,0.1,0.1,0.1,0.1
		c0.1,0,0.1,0,0.2,0c0.1,0,0.1,0,0.1,0c0.1,0,0.1,0,0.1,0v0.5c-0.1,0-0.1,0-0.2,0.1c-0.1,0-0.2,0-0.3,0c-0.2,0-0.3,0-0.4-0.1
		s-0.2-0.1-0.3-0.3c-0.1-0.1-0.1-0.3-0.1-0.5L155.3,136L155.3,136z"/>
	<path class="st6" d="M162.4,137.7v0.2c0,0.3,0,0.6-0.1,0.9c-0.1,0.2-0.2,0.5-0.4,0.6c-0.1,0.2-0.3,0.3-0.6,0.4
		c-0.3,0.1-0.5,0.1-0.7,0.1s-0.5-0.1-0.7-0.1c-0.2-0.1-0.4-0.2-0.6-0.4c-0.2-0.2-0.3-0.4-0.4-0.6c-0.1-0.3-0.1-0.5-0.1-0.9v-0.2
		c0-0.3,0-0.6,0.1-0.9c0.1-0.3,0.2-0.5,0.4-0.6c0.2-0.2,0.4-0.3,0.6-0.4c0.2-0.1,0.5-0.1,0.7-0.1s0.5,0.1,0.7,0.1
		c0.2,0,0.4,0.2,0.6,0.4c0.2,0.2,0.3,0.4,0.4,0.6C162.3,137,162.4,137.3,162.4,137.7z M161.6,137.9v-0.2c0-0.2,0-0.4-0.1-0.6
		c-0.1-0.2-0.1-0.3-0.2-0.5c-0.1-0.1-0.2-0.2-0.3-0.3c-0.1-0.1-0.3-0.1-0.4-0.1s-0.3,0-0.4,0.1c-0.1,0.1-0.2,0.2-0.3,0.3
		s-0.2,0.3-0.2,0.5c-0.1,0.2-0.1,0.4-0.1,0.6v0.2c0,0.2,0,0.4,0.1,0.6s0.1,0.3,0.2,0.5c0.1,0.1,0.2,0.2,0.3,0.3s0.3,0.1,0.4,0.1
		c0.2,0,0.3,0,0.4-0.1c0.1-0.1,0.2-0.2,0.3-0.3s0.1-0.3,0.2-0.5C161.6,138.4,161.6,138.2,161.6,137.9z"/>
	<path class="st6" d="M163.7,137.3v2.7H163v-3.3h0.7V137.3z M164.8,136.7v0.7h-0.1c-0.1,0-0.1,0-0.1,0c-0.1,0-0.2,0-0.3,0.1
		c-0.1,0-0.2,0.1-0.2,0.1c-0.1,0.1-0.1,0.1-0.1,0.2s-0.1,0.2-0.1,0.3h-0.2c0-0.2,0-0.4,0.1-0.6s0.1-0.3,0.2-0.4
		c0.1-0.1,0.2-0.2,0.3-0.3s0.3-0.1,0.4-0.1H164.8C164.7,136.7,164.8,136.7,164.8,136.7z"/>
	<path class="st6" d="M165.9,137.4v2.6h-0.7v-3.3h0.7V137.4z M165.8,138.3h-0.2c0-0.2,0-0.4,0.1-0.6s0.1-0.4,0.3-0.5
		c0.1-0.1,0.2-0.2,0.4-0.3c0.1-0.1,0.3-0.1,0.5-0.1c0.1,0,0.3,0,0.4,0.1c0.1,0,0.2,0.1,0.3,0.2c0.1,0.1,0.2,0.2,0.2,0.4
		c0.1,0.1,0.1,0.3,0.1,0.6v2.1h-0.7v-2.2c0-0.1,0-0.3-0.1-0.4c0-0.1-0.1-0.1-0.2-0.2c-0.1,0-0.2-0.1-0.3-0.1s-0.2,0-0.3,0.1
		s-0.2,0.1-0.2,0.2c-0.1,0.1-0.1,0.2-0.1,0.3C165.8,137.9,165.8,138.2,165.8,138.3z"/>
	<path class="st6" d="M170.6,139.4v-1.6c0-0.1,0-0.2-0.1-0.3s-0.1-0.1-0.2-0.2c-0.1,0-0.2-0.1-0.3-0.1s-0.2,0-0.3,0.1
		s-0.1,0.1-0.2,0.2c-0.1,0.1-0.1,0.1-0.1,0.2h-0.7c0-0.1,0-0.2,0.1-0.4c0.1-0.1,0.1-0.2,0.3-0.3c0.1-0.1,0.2-0.2,0.4-0.2
		c0.2-0.1,0.3-0.1,0.5-0.1s0.4,0,0.6,0.1c0.2,0.1,0.3,0.2,0.4,0.4s0.2,0.4,0.2,0.6v1.4c0,0.1,0,0.3,0,0.4c0,0.1,0.1,0.2,0.1,0.3l0,0
		h-0.7c0-0.1-0.1-0.2-0.1-0.3C170.6,139.6,170.6,139.5,170.6,139.4z M170.7,138.1v0.4h-0.5c-0.1,0-0.2,0-0.4,0
		c-0.1,0-0.2,0.1-0.2,0.1c-0.1,0.1-0.1,0.1-0.1,0.2c0,0.1-0.1,0.1-0.1,0.2s0,0.2,0.1,0.2c0,0.1,0.1,0.1,0.2,0.2
		c0.1,0,0.2,0.1,0.3,0.1s0.3,0,0.4-0.1s0.2-0.1,0.3-0.2s0.1-0.2,0.1-0.2l0.2,0.3c0,0.1-0.1,0.2-0.1,0.3s-0.1,0.2-0.2,0.3
		s-0.2,0.1-0.3,0.2c-0.1,0.1-0.3,0.1-0.4,0.1c-0.2,0-0.4,0-0.6-0.1s-0.3-0.2-0.4-0.3c-0.1-0.1-0.1-0.3-0.1-0.5s0-0.3,0.1-0.4
		c0.1-0.1,0.2-0.2,0.3-0.3s0.3-0.1,0.5-0.2c0.2-0.1,0.4-0.1,0.6-0.1L170.7,138.1L170.7,138.1z"/>
	<path class="st6" d="M172.7,137.3v2.7H172v-3.3h0.7V137.3z M173.8,136.7v0.7h-0.1c-0.1,0-0.1,0-0.1,0c-0.1,0-0.2,0-0.3,0.1
		c-0.1,0-0.2,0.1-0.2,0.1c-0.1,0.1-0.1,0.1-0.1,0.2s-0.1,0.2-0.1,0.3h-0.2c0-0.2,0-0.4,0.1-0.6s0.1-0.3,0.2-0.4
		c0.1-0.1,0.2-0.2,0.3-0.3s0.3-0.1,0.4-0.1H173.8C173.7,136.7,173.8,136.7,173.8,136.7z"/>
	<path class="st6" d="M175.6,140.1c-0.2,0-0.4,0-0.6-0.1s-0.4-0.2-0.5-0.3s-0.2-0.3-0.3-0.5s-0.1-0.4-0.1-0.6v-0.1
		c0-0.2,0-0.5,0.1-0.7s0.2-0.4,0.3-0.5s0.3-0.2,0.5-0.3s0.4-0.1,0.6-0.1c0.2,0,0.4,0,0.6,0.1s0.3,0.2,0.4,0.3
		c0.1,0.1,0.2,0.3,0.2,0.5c0.1,0.2,0.1,0.4,0.1,0.6v0.3h-2.5v-0.5h1.9v-0.1c0-0.1,0-0.2-0.1-0.4c0-0.1-0.1-0.2-0.2-0.3
		c-0.1-0.1-0.2-0.1-0.4-0.1c-0.1,0-0.2,0-0.3,0.1s-0.2,0.1-0.2,0.2c-0.1,0.1-0.1,0.2-0.1,0.3s-0.1,0.3-0.1,0.4v0.1
		c0,0.1,0,0.3,0.1,0.4s0.1,0.2,0.2,0.3c0.1,0.1,0.2,0.2,0.3,0.2s0.2,0.1,0.4,0.1c0.2,0,0.3,0,0.4-0.1c0.1-0.1,0.2-0.2,0.4-0.3
		l0.4,0.4c-0.1,0.1-0.2,0.2-0.3,0.3s-0.2,0.2-0.4,0.2C176,140,175.8,140.1,175.6,140.1z"/>
	<path class="st6" d="M181.6,135.6h0.7v3c0,0.3-0.1,0.6-0.2,0.8c-0.1,0.2-0.3,0.4-0.6,0.5c-0.2,0.1-0.5,0.2-0.8,0.2
		s-0.6-0.1-0.8-0.2c-0.2-0.1-0.4-0.3-0.6-0.5c-0.1-0.2-0.2-0.5-0.2-0.8v-3h0.7v3c0,0.2,0,0.4,0.1,0.5s0.2,0.2,0.3,0.3
		c0.1,0.1,0.3,0.1,0.5,0.1s0.3,0,0.4-0.1c0.1-0.1,0.2-0.2,0.3-0.3s0.1-0.3,0.1-0.5L181.6,135.6L181.6,135.6z"/>
	<path class="st6" d="M183.8,137.3v2.7h-0.7v-3.3h0.7V137.3z M184.8,136.7v0.7h-0.1c-0.1,0-0.1,0-0.1,0c-0.1,0-0.2,0-0.3,0.1
		c-0.1,0-0.2,0.1-0.2,0.1c-0.1,0.1-0.1,0.1-0.1,0.2s-0.1,0.2-0.1,0.3h-0.2c0-0.2,0-0.4,0.1-0.6s0.1-0.3,0.2-0.4
		c0.1-0.1,0.2-0.2,0.3-0.3c0.1-0.1,0.3-0.1,0.4-0.1H184.8C184.7,136.7,184.8,136.7,184.8,136.7z"/>
	<path class="st6" d="M186,137.4v2.6h-0.7v-3.3h0.7V137.4z M185.9,138.3h-0.2c0-0.2,0-0.4,0.1-0.6s0.1-0.4,0.3-0.5
		c0.1-0.1,0.2-0.2,0.4-0.3c0.1-0.1,0.3-0.1,0.5-0.1c0.1,0,0.3,0,0.4,0.1c0.1,0,0.2,0.1,0.3,0.2c0.1,0.1,0.2,0.2,0.2,0.4
		s0.1,0.3,0.1,0.6v2.1h-0.7v-2.2c0-0.1,0-0.3-0.1-0.4c0-0.1-0.1-0.1-0.2-0.2c-0.1,0-0.2-0.1-0.3-0.1s-0.2,0-0.3,0.1
		s-0.2,0.1-0.2,0.2c-0.1,0.1-0.1,0.2-0.1,0.3C185.9,137.9,185.9,138.2,185.9,138.3z"/>
	<path class="st6" d="M190.6,139.4v-1.6c0-0.1,0-0.2-0.1-0.3s-0.1-0.1-0.2-0.2c-0.1,0-0.2-0.1-0.3-0.1s-0.2,0-0.3,0.1
		c-0.1,0-0.1,0.1-0.2,0.2s-0.1,0.1-0.1,0.2h-0.7c0-0.1,0-0.2,0.1-0.4c0.1-0.1,0.1-0.2,0.3-0.3s0.2-0.2,0.4-0.2
		c0.2-0.1,0.3-0.1,0.5-0.1s0.4,0,0.6,0.1c0.2,0.1,0.3,0.2,0.4,0.4s0.2,0.4,0.2,0.6v1.4c0,0.1,0,0.3,0,0.4c0,0.1,0.1,0.2,0.1,0.3l0,0
		h-0.7c0-0.1-0.1-0.2-0.1-0.3C190.6,139.6,190.6,139.5,190.6,139.4z M190.7,138.1v0.4h-0.5c-0.1,0-0.2,0-0.4,0
		c-0.1,0-0.2,0.1-0.2,0.1c-0.1,0.1-0.1,0.1-0.1,0.2c0,0.1-0.1,0.1-0.1,0.2s0,0.2,0.1,0.2c0,0.1,0.1,0.1,0.2,0.2
		c0.1,0,0.2,0.1,0.3,0.1s0.3,0,0.4-0.1s0.2-0.1,0.3-0.2c0.1-0.1,0.1-0.2,0.1-0.2l0.2,0.3c0,0.1-0.1,0.2-0.1,0.3s-0.1,0.2-0.2,0.3
		c-0.1,0.1-0.2,0.1-0.3,0.2c-0.1,0.1-0.3,0.1-0.4,0.1c-0.2,0-0.4,0-0.6-0.1s-0.3-0.2-0.4-0.3c-0.1-0.1-0.1-0.3-0.1-0.5
		s0-0.3,0.1-0.4c0.1-0.1,0.2-0.2,0.3-0.3s0.3-0.1,0.5-0.2c0.2-0.1,0.4-0.1,0.6-0.1L190.7,138.1L190.7,138.1z"/>
	<path class="st6" d="M195.4,136.2l-1.2,3.8h-0.8l1.7-4.4h0.5L195.4,136.2z M196.5,140l-1.3-3.8l-0.1-0.6h0.5l1.7,4.4H196.5z
		 M196.4,138.4v0.6H194v-0.6H196.4z"/>
	<path class="st6" d="M199.2,136.7v0.5h-1.9v-0.5H199.2z M197.9,136h0.7v3.2c0,0.1,0,0.2,0,0.2c0,0.1,0.1,0.1,0.1,0.1
		c0.1,0,0.1,0,0.2,0c0.1,0,0.1,0,0.1,0h0.1v0.5c-0.1,0-0.1,0-0.2,0.1c-0.1,0-0.2,0-0.3,0c-0.2,0-0.3,0-0.4-0.1
		c-0.1-0.1-0.2-0.1-0.3-0.3c-0.1-0.1-0.1-0.3-0.1-0.5L197.9,136L197.9,136z"/>
	<path class="st6" d="M199.8,139.6c0-0.1,0-0.2,0.1-0.3s0.2-0.1,0.3-0.1s0.2,0,0.3,0.1s0.1,0.2,0.1,0.3s0,0.2-0.1,0.3
		s-0.2,0.1-0.3,0.1s-0.2,0-0.3-0.1C199.8,139.9,199.8,139.8,199.8,139.6z"/>
</g>
<path class="st7" d="M173.4,51.5c-0.5-1.8-1.8-3.2-3.5-3.7c-0.3-0.1-0.7-0.2-1.1-0.3c-0.3-0.9-1.1-1.6-2.1-1.9
	c-0.9-0.3-1.7-0.5-2.6-0.6c-0.1-0.4-0.1-0.9-0.1-1.3l0.1-0.1c1.1-0.9,1.7-2.1,1.9-3.5c0.1,0.1,0.3,0.1,0.4-0.1
	c0.1-0.1,0.3-0.3,0.3-0.6c0.3-1.1,0.5-2.3,0.5-3.7c0-0.2-0.2-0.3-0.4-0.2c-0.1,0.1-0.3,0.2-0.4,0.3c0.1-1.3,0.1-2.6-0.1-3.7
	c0-0.2,0-0.5-0.1-0.7c-0.1-0.8-0.4-1.6-0.8-2.3c-0.1-0.1-0.2,0-0.1,0.1c0.3,0.5,0.4,1.1,0.5,1.7c0,0,0-0.1-0.1-0.1
	c0-0.1,0-0.1-0.1-0.1c-0.1-0.4-0.3-0.8-0.5-1.2c0,0,0.1-0.1,0-0.1c-0.1,0-0.1-0.1-0.1-0.1c-0.1-0.3-0.3-0.6-0.5-0.9
	c-0.1-0.1-0.1,0-0.1,0.1c0.1,0.2,0.3,0.4,0.3,0.6c-0.1-0.1-0.3-0.1-0.4-0.2c-0.1-0.1-0.3-0.3-0.4-0.4c-0.1-0.1-0.1,0-0.1,0.1
	c0.1,0.1,0.1,0.2,0.2,0.3c-0.3-0.1-0.5-0.1-0.9-0.1c0.1-0.1,0.1-0.1,0.1-0.1l0.1-0.1l0.1-0.1h-0.1c0.3-0.3,0.4-0.6,0.3-1
	c0-0.1-0.1-0.1-0.1,0c0,0.3-0.3,0.6-0.6,0.9c-0.1,0-0.1-0.1-0.2-0.1c0.3-0.2,0.6-0.4,0.7-0.9c0-0.1-0.1-0.1-0.1-0.1
	c-0.2,0.4-0.5,0.7-0.9,0.8c0.1-0.1,0.1-0.1,0.1-0.2l0,0c0.3-0.1,0.5-0.4,0.6-0.7c0-0.1-0.1-0.1-0.1,0c-0.1,0.2-0.2,0.3-0.3,0.4
	c0.1-0.2,0-0.4-0.1-0.6c0-0.1-0.1,0-0.1,0c0.1,0.3,0,0.5-0.1,0.7c-0.1,0.1-0.3,0.1-0.4,0.1c0.1-0.1,0.3-0.3,0.4-0.5
	c0.1-0.3-0.1-0.5-0.4-0.4c-0.1,0.1-0.3,0.1-0.5,0.2c0.2-0.2,0.4-0.5,0-0.7c-0.1,0-0.1,0.1-0.1,0.1c0,0.3-0.1,0.5-0.4,0.5
	c-0.1,0-0.1,0-0.1,0.1c-0.1,0.1-0.3,0.1-0.5,0.1c-0.1,0-0.1,0-0.1,0c0.1-0.1,0.1-0.1,0.3-0.1c0.1-0.1,0.1-0.4-0.1-0.3
	c-0.5,0.2-1.1,0.4-1.5,0.7c0.3-0.2,0.6-0.4,0.9-0.6c0.1,0,0-0.1-0.1-0.1c-1,0.6-2.1,1.1-3.1,1.6c-0.1,0.1-0.2,0.1-0.3,0.2
	c0.1-0.2,0.3-0.3,0.6-0.5c0.7-0.4,1.5-0.6,2.1-1.1c0.1,0,0-0.1-0.1-0.1c-0.8,0.5-1.8,0.7-2.6,1.2c-0.3,0.2-0.5,0.5-0.7,0.8
	c0.1-0.1,0.1-0.3,0.1-0.4c0.1-0.1-0.1-0.3-0.3-0.1c-0.5,0.6-0.7,1.3-0.9,2.1c-0.1,0.1-0.1,0.3-0.1,0.5c-0.5,1.3-0.6,2.9-0.5,4.8
	c-0.1-0.1-0.3-0.2-0.4-0.3c-0.2-0.1-0.4,0-0.4,0.2c0,1.4,0.1,2.7,0.5,3.7c0.1,0.3,0.2,0.5,0.3,0.6c0.1,0.1,0.3,0.1,0.4,0.1
	c0.2,1.3,0.9,2.6,1.9,3.5h0.1c0,0.5-0.1,0.9-0.1,1.3c-0.9,0.1-1.7,0.3-2.5,0.6c-0.9,0.3-1.7,1-2.1,1.9c-0.4,0.1-0.7,0.2-1.1,0.3
	c-1.7,0.5-3.1,1.9-3.5,3.7l-1,8.4H174L173.4,51.5z M165.2,29.3c-0.1-0.1-0.1-0.2-0.3-0.3c0.1,0,0.1,0.1,0.1,0.1
	C165.1,29.2,165.2,29.2,165.2,29.3z M165,29.6c-0.3-0.3-0.6-0.5-0.9-0.7c0.1,0,0.3,0.1,0.5,0.1C164.8,29.2,164.9,29.4,165,29.6z"/>
</svg>
