<?xml version="1.0" encoding="utf-8"?>
<!-- Generator: Adobe Illustrator 25.2.1, SVG Export Plug-In . SVG Version: 6.00 Build 0)  -->
<svg version="1.1" id="Layer_1" xmlns="http://www.w3.org/2000/svg" xmlns:xlink="http://www.w3.org/1999/xlink" x="0px" y="0px"
	 viewBox="0 0 145 110" style="enable-background:new 0 0 145 110;" xml:space="preserve">
<style type="text/css">
	.st0{fill:#EFEFEF;}
	.st1{fill:#FFFFFF;}
	.st2{enable-background:new    ;}
	.st3{fill:#787C87;}
	.st4{fill:#C6C8CC;}
</style>
<g>
	<rect class="st0" width="145" height="110"/>
	<path class="st1" d="M10,94V16c0-3.3,2.7-6,6-6h113c3.3,0,6,2.7,6,6v78c0,3.3-2.7,6-6,6H16C12.7,100,10,97.3,10,94z"/>
</g>
<g>
	<g>
		<g>
			<g class="st2">
				<path class="st3" d="M40.1,30.3c0,4.4-3.6,8-8,8s-8-3.6-8-8s3.6-8,8-8S40.1,25.9,40.1,30.3z M32.2,31.7V34
					c0,0.3,0.4,0.5,0.7,0.3l3.7-3.7c0.2-0.2,0.2-0.4,0-0.5l-3.7-3.7c-0.2-0.2-0.7-0.1-0.7,0.3v2.3h-3.7c-0.2,0-0.4,0.2-0.4,0.4v2.1
					c0,0.2,0.2,0.4,0.4,0.4H32.2z"/>
			</g>
		</g>
		<path class="st4" d="M118.2,32.9h-66c-1.6,0-3-1.4-3-3l0,0c0-1.6,1.4-3,3-3h66c1.6,0,3,1.4,3,3l0,0
			C121.2,31.7,119.8,32.9,118.2,32.9z"/>
	</g>
	<g>
		<g>
			<g class="st2">
				<path class="st3" d="M40.1,55.3c0,4.4-3.6,8-8,8s-8-3.6-8-8s3.6-8,8-8S40.1,50.9,40.1,55.3z M32.2,56.7V59
					c0,0.3,0.4,0.5,0.7,0.3l3.7-3.7c0.2-0.2,0.2-0.4,0-0.5l-3.7-3.7c-0.2-0.2-0.7-0.1-0.7,0.3v2.3h-3.7c-0.2,0-0.4,0.2-0.4,0.4v2.1
					c0,0.2,0.2,0.4,0.4,0.4H32.2z"/>
			</g>
		</g>
		<path class="st4" d="M118.2,58h-66c-1.6,0-3-1.4-3-3l0,0c0-1.6,1.4-3,3-3h66c1.6,0,3,1.4,3,3l0,0C121.2,56.7,119.8,58,118.2,58z"
			/>
	</g>
	<g>
		<g>
			<g class="st2">
				<path class="st3" d="M40.1,80.4c0,4.4-3.6,8-8,8s-8-3.6-8-8s3.6-8,8-8S40.1,76,40.1,80.4z M32.2,81.8V84c0,0.3,0.4,0.5,0.7,0.3
					l3.7-3.7c0.2-0.2,0.2-0.4,0-0.5l-3.7-3.7c-0.2-0.2-0.7-0.1-0.7,0.3v2.3h-3.7c-0.2,0-0.4,0.2-0.4,0.4v2.1c0,0.2,0.2,0.4,0.4,0.4
					H32.2z"/>
			</g>
		</g>
		<path class="st4" d="M118.2,83.1h-66c-1.6,0-3-1.4-3-3l0,0c0-1.6,1.4-3,3-3h66c1.6,0,3,1.4,3,3l0,0
			C121.2,81.7,119.8,83.1,118.2,83.1z"/>
	</g>
</g>
</svg>
