<?xml version="1.0" encoding="utf-8"?>
<!-- Generator: Adobe Illustrator 25.2.1, SVG Export Plug-In . SVG Version: 6.00 Build 0)  -->
<svg version="1.1" id="Layer_1" xmlns="http://www.w3.org/2000/svg" xmlns:xlink="http://www.w3.org/1999/xlink" x="0px" y="0px"
	 viewBox="0 0 145 110" style="enable-background:new 0 0 145 110;" xml:space="preserve">
<style type="text/css">
	.st0{fill:#EFEFEF;}
	.st1{fill:#FFFFFF;}
	.st2{fill:#C6C8CC;}
	.st3{fill:#0066FF;}
	.st4{enable-background:new    ;}
</style>
<g>
	<rect class="st0" width="145" height="110"/>
	<path class="st1" d="M10,94V16c0-3.3,2.7-6,6-6h113c3.3,0,6,2.7,6,6v78c0,3.3-2.7,6-6,6H16C12.7,100,10,97.3,10,94z"/>
</g>
<g>
	<g>
		<path class="st2" d="M114.7,31.7H59c-1.4,0-2.5-1.2-2.5-2.5l0,0c0-1.4,1.2-2.5,2.5-2.5h55.7c1.4,0,2.5,1.2,2.5,2.5l0,0
			C117.2,30.6,116.1,31.7,114.7,31.7z"/>
		<g>
			<circle class="st3" cx="38.2" cy="29.2" r="10.4"/>
			<g>
				<g class="st4">
					<path class="st1" d="M44.2,29.4c0,3.3-2.7,6-6,6c-3.3,0-6-2.7-6-6s2.7-6,6-6C41.5,23.4,44.2,26.1,44.2,29.4z M38.2,30.5v1.7
						c0,0.3,0.3,0.4,0.5,0.2l2.8-2.8c0.1-0.1,0.1-0.3,0-0.4l-2.8-2.8c-0.2-0.2-0.5-0.1-0.5,0.2v1.7h-2.8c-0.2,0-0.3,0.1-0.3,0.3v1.5
						c0,0.2,0.1,0.3,0.3,0.3H38.2z"/>
				</g>
			</g>
		</g>
	</g>
	<g>
		<path class="st2" d="M114.7,57.5H59c-1.4,0-2.5-1.2-2.5-2.5l0,0c0-1.4,1.2-2.5,2.5-2.5h55.7c1.4,0,2.5,1.2,2.5,2.5l0,0
			C117.2,56.4,116.1,57.5,114.7,57.5z"/>
		<g>
			<circle class="st3" cx="38.2" cy="55" r="10.4"/>
			<g>
				<g class="st4">
					<path class="st1" d="M44.2,55.2c0,3.3-2.7,6-6,6c-3.3,0-6-2.7-6-6s2.7-6,6-6C41.5,49.2,44.2,51.9,44.2,55.2z M38.2,56.3V58
						c0,0.3,0.3,0.4,0.5,0.2l2.8-2.8c0.1-0.1,0.1-0.3,0-0.4l-2.8-2.8c-0.2-0.2-0.5-0.1-0.5,0.2v1.7h-2.8c-0.2,0-0.3,0.1-0.3,0.3V56
						c0,0.2,0.1,0.3,0.3,0.3H38.2z"/>
				</g>
			</g>
		</g>
	</g>
	<g>
		<path class="st2" d="M114.7,83.3H59c-1.4,0-2.5-1.2-2.5-2.5l0,0c0-1.4,1.2-2.5,2.5-2.5h55.7c1.4,0,2.5,1.2,2.5,2.5l0,0
			C117.2,82.2,116.1,83.3,114.7,83.3z"/>
		<g>
			<circle class="st3" cx="38.2" cy="80.8" r="10.4"/>
			<g>
				<g class="st4">
					<path class="st1" d="M44.2,81c0,3.3-2.7,6-6,6c-3.3,0-6-2.7-6-6c0-3.3,2.7-6,6-6C41.5,75,44.2,77.7,44.2,81z M38.2,82.1v1.7
						c0,0.3,0.3,0.4,0.5,0.2l2.8-2.8c0.1-0.1,0.1-0.3,0-0.4L38.7,78c-0.2-0.2-0.5-0.1-0.5,0.2v1.7h-2.8c-0.2,0-0.3,0.1-0.3,0.3v1.5
						c0,0.2,0.1,0.3,0.3,0.3H38.2z"/>
				</g>
			</g>
		</g>
	</g>
</g>
</svg>
