<?xml version="1.0" encoding="utf-8"?>
<!-- Generator: Adobe Illustrator 25.2.1, SVG Export Plug-In . SVG Version: 6.00 Build 0)  -->
<svg version="1.1" id="Layer_1" xmlns="http://www.w3.org/2000/svg" xmlns:xlink="http://www.w3.org/1999/xlink" x="0px" y="0px"
	 viewBox="0 0 145 110" style="enable-background:new 0 0 145 110;" xml:space="preserve">
<style type="text/css">
	.st0{fill:#EFEFEF;}
	.st1{fill:url(#SVGID_1_);}
	.st2{fill:#FFFFFF;}
	.st3{enable-background:new    ;}
	.st4{opacity:0.35;}
</style>
<g>
	<g>
		<rect class="st0" width="145" height="110"/>
	</g>
	<g>
		<g>
			<linearGradient id="SVGID_1_" gradientUnits="userSpaceOnUse" x1="15" y1="55.05" x2="130" y2="55.05">
				<stop  offset="0" style="stop-color:#0066FF"/>
				<stop  offset="1" style="stop-color:#005EC2"/>
			</linearGradient>
			<path class="st1" d="M15,88.3V21.7c0-3,2.4-5.4,5.4-5.4h104.2c3,0,5.4,2.4,5.4,5.4v66.7c0,3-2.4,5.4-5.4,5.4H20.4
				C17.4,93.8,15,91.3,15,88.3z"/>
		</g>
		<g>
			<g>
				<g>
					<path class="st2" d="M72.5,24.2c7.8-0.1,14.2,6.4,14.2,14.1c0,7.8-6.4,14.2-14.2,14.2c-7.7,0-14.2-6.4-14.1-14.2
						C58.3,30.6,64.7,24.1,72.5,24.2z M72.5,47.2c1.8,0,3.3-0.4,4.8-1.3c1.1-0.7,2-1.5,2.7-2.6c0.4-0.6,0.3-1.3-0.3-1.7
						c-0.5-0.4-1.2-0.3-1.6,0.3c-0.1,0.1-0.2,0.3-0.3,0.4c-1.8,2.2-4.7,3.1-7.3,2.2C69,44.1,67.9,43.2,67,42
						c-0.3-0.4-0.7-0.7-1.2-0.6c-0.9,0.2-1.3,1.1-0.7,2C66.9,45.8,69.4,47.1,72.5,47.2z M77.7,33.7c-1.1,0-2,0.9-2,1.9
						c0,1.1,0.9,1.9,1.9,2c1.1,0,2-0.9,2-2C79.6,34.6,78.8,33.7,77.7,33.7z M65.4,35.7c0,1.1,0.9,2,2,2c1,0,1.9-0.9,1.9-2
						s-0.9-1.9-2-1.9C66.2,33.7,65.4,34.6,65.4,35.7z"/>
				</g>
			</g>
			<g>
				<g class="st3">
					<path class="st2" d="M52.4,64.8v-2.4H57v12.7h-2.7V64.8H52.4z"/>
					<path class="st2" d="M59.9,63.6c0.3-0.5,0.9-1,1.5-1.3c0.7-0.3,1.5-0.5,2.5-0.5s1.8,0.2,2.5,0.5s1.2,0.8,1.5,1.3
						s0.5,1.1,0.5,1.7c0,0.7-0.2,1.3-0.5,1.8s-0.8,0.8-1.5,1.1c0.8,0.3,1.3,0.7,1.7,1.3c0.4,0.5,0.6,1.2,0.6,2s-0.2,1.6-0.6,2.2
						s-1,1.1-1.7,1.4s-1.6,0.5-2.5,0.5s-1.7-0.2-2.5-0.5c-0.7-0.3-1.3-0.8-1.7-1.4s-0.6-1.3-0.6-2.2c0-0.8,0.2-1.4,0.6-2
						c0.4-0.5,1-1,1.7-1.3c-0.7-0.2-1.2-0.6-1.5-1.1s-0.5-1.1-0.5-1.8C59.4,64.7,59.6,64.1,59.9,63.6z M62.2,72.8
						c0.4,0.4,1,0.6,1.7,0.6c0.7,0,1.3-0.2,1.7-0.6s0.6-0.9,0.6-1.5s-0.2-1.1-0.7-1.5s-1-0.5-1.7-0.5s-1.2,0.2-1.7,0.5
						s-0.7,0.8-0.7,1.5C61.6,71.9,61.8,72.4,62.2,72.8z M62.4,67.1c0.4,0.3,0.8,0.5,1.5,0.5c0.6,0,1.1-0.2,1.5-0.5s0.5-0.8,0.5-1.3
						c0-0.6-0.2-1-0.5-1.3C65,64.2,64.5,64,63.9,64s-1.1,0.2-1.4,0.5c-0.4,0.3-0.5,0.8-0.5,1.3C61.9,66.3,62.1,66.8,62.4,67.1z"/>
					<path class="st2" d="M79.6,64.4h-6v3.2c0.3-0.3,0.7-0.6,1.1-0.8c0.5-0.2,1-0.3,1.6-0.3c0.9,0,1.6,0.2,2.2,0.6s1,0.9,1.3,1.5
						s0.4,1.3,0.4,2.1c0,1.4-0.4,2.4-1.1,3.3c-0.8,0.8-1.9,1.2-3.3,1.2c-0.9,0-1.7-0.2-2.4-0.5c-0.7-0.3-1.2-0.8-1.6-1.4
						s-0.6-1.3-0.6-2.1h2.5c0.1,0.5,0.3,1,0.7,1.3c0.3,0.3,0.8,0.5,1.4,0.5c0.7,0,1.2-0.2,1.6-0.6c0.3-0.4,0.5-1,0.5-1.7
						s-0.2-1.2-0.5-1.6c-0.4-0.4-0.9-0.6-1.5-0.6c-0.5,0-0.9,0.1-1.2,0.3c-0.3,0.2-0.6,0.5-0.7,0.8h-2.5v-7.5h8.3v2.3H79.6z"/>
					<path class="st2" d="M81.7,72.6v-2.1l6.1-8.2h2.7v8.1h1.7v2.2h-1.7v2.6H88v-2.6H81.7z M88.2,65.3l-3.9,5.1h3.9V65.3z"/>
				</g>
				<g class="st4">
					<path class="st2" d="M97.1,84H47.9c-0.7,0-1.3-0.6-1.3-1.3v-0.1c0-0.7,0.6-1.3,1.3-1.3h49.2c0.7,0,1.3,0.6,1.3,1.3v0.1
						C98.4,83.4,97.8,84,97.1,84z"/>
				</g>
			</g>
		</g>
	</g>
</g>
</svg>
