<?xml version="1.0" encoding="utf-8"?>
<!-- Generator: Adobe Illustrator 25.2.1, SVG Export Plug-In . SVG Version: 6.00 Build 0)  -->
<svg version="1.1" id="Layer_1" xmlns="http://www.w3.org/2000/svg" xmlns:xlink="http://www.w3.org/1999/xlink" x="0px" y="0px"
	 viewBox="0 0 145 110" style="enable-background:new 0 0 145 110;" xml:space="preserve">
<style type="text/css">
	.st0{fill:#EFEFEF;}
	.st1{fill:#FFFFFF;}
	.st2{fill:#0066FF;}
	.st3{enable-background:new    ;}
	.st4{fill:#787C87;}
	.st5{fill:#C6C8CC;}
</style>
<g>
	<rect class="st0" width="145" height="110"/>
</g>
<g>
	<g>
		<path class="st1" d="M15,89.1V20.9c0-3.5,2.2-6.2,5-6.2h105c2.8,0,5,2.7,5,6.2v68.3c0,3.5-2.2,6.2-5,6.2H20
			C17.2,95.3,15,92.6,15,89.1z"/>
	</g>
	<g>
		<g>
			<g>
				<path class="st2" d="M71.4,27.2c6.6-0.1,11.9,5.4,11.9,11.9C83.3,45.6,78,51,71.4,51c-6.6,0.1-11.9-5.4-11.9-11.9
					C59.5,32.6,64.8,27.1,71.4,27.2z M71.4,46.5c1.5,0,2.8-0.3,4-1.1c0.9-0.6,1.7-1.3,2.3-2.2c0.3-0.5,0.3-1.1-0.3-1.4
					c-0.4-0.3-1-0.3-1.3,0.3c-0.1,0.1-0.2,0.3-0.3,0.3c-1.5,1.8-4,2.6-6.1,1.8c-1.2-0.4-2.2-1.1-2.9-2.1c-0.3-0.3-0.6-0.5-1.1-0.5
					c-0.8,0.2-1.1,0.9-0.6,1.7C66.7,45.4,68.8,46.5,71.4,46.5z M75.8,35.3c-0.9,0-1.7,0.8-1.7,1.6c0,0.9,0.8,1.6,1.6,1.7
					c0.9,0,1.7-0.8,1.7-1.7C77.4,35.9,76.7,35.3,75.8,35.3z M65.3,36.9c0,0.9,0.8,1.7,1.7,1.7c0.8,0,1.6-0.8,1.6-1.7
					s-0.8-1.6-1.7-1.6C66.1,35.3,65.3,35.9,65.3,36.9z"/>
			</g>
		</g>
		<g>
			<g class="st3">
				<path class="st4" d="M57.8,58.2c0.6,0.3,1.1,0.7,1.4,1.2s0.5,1.1,0.5,1.8c0,0.8-0.2,1.5-0.7,2c-0.4,0.5-1,0.8-1.8,1v0.1
					c1.8,0.5,2.7,1.6,2.7,3.1c0,1.1-0.4,2-1.1,2.7c-0.7,0.7-1.8,1-3.1,1c-1.4,0-2.5-0.4-3.4-1.1c-0.8-0.7-1.3-1.8-1.4-3.2h2.5
					c0.1,0.6,0.3,1.2,0.6,1.5c0.4,0.4,0.9,0.6,1.6,0.6c0.6,0,1-0.2,1.4-0.5c0.3-0.3,0.5-0.7,0.5-1.3s-0.2-1.1-0.7-1.4
					c-0.5-0.3-1.2-0.5-2.1-0.5h-0.5v-2.1h0.5c1.7,0,2.5-0.6,2.5-1.7c0-0.5-0.2-0.9-0.5-1.2s-0.7-0.4-1.2-0.4s-1,0.2-1.3,0.5
					s-0.5,0.8-0.6,1.4h-2.5c0.1-1.3,0.5-2.3,1.3-3s1.8-1.1,3.2-1.1C56.4,57.8,57.1,57.9,57.8,58.2z"/>
				<path class="st4" d="M61.8,64.5c0-4.3,1.6-6.4,4.9-6.4c1.7,0,3,0.6,3.7,1.7c0.8,1.2,1.1,2.7,1.1,4.7c0,2-0.4,3.6-1.1,4.7
					c-0.8,1.2-2,1.7-3.7,1.7C63.4,71,61.8,68.8,61.8,64.5z M68.9,64.5c0-1.3-0.2-2.3-0.5-3s-0.9-1.1-1.9-1.1c-0.9,0-1.6,0.4-1.9,1.1
					c-0.3,0.7-0.5,1.7-0.5,3c0,1.3,0.2,2.3,0.5,3c0.3,0.7,0.9,1.1,1.9,1.1c0.9,0,1.5-0.4,1.9-1.1C68.8,66.8,68.9,65.8,68.9,64.5z"/>
				<path class="st4" d="M73.1,64.5c0-4.3,1.6-6.4,4.9-6.4c1.7,0,3,0.6,3.7,1.7c0.8,1.2,1.1,2.7,1.1,4.7c0,2-0.4,3.6-1.1,4.7
					c-0.8,1.2-2,1.7-3.7,1.7C74.8,71,73.1,68.8,73.1,64.5z M80.4,64.5c0-1.3-0.2-2.3-0.5-3s-0.9-1.1-1.9-1.1c-0.9,0-1.6,0.4-1.9,1.1
					c-0.3,0.7-0.5,1.7-0.5,3c0,1.3,0.2,2.3,0.5,3c0.3,0.7,0.9,1.1,1.9,1.1c0.9,0,1.5-0.4,1.9-1.1C80.1,66.8,80.4,65.8,80.4,64.5z"/>
				<path class="st4" d="M84.4,64.5c0-4.3,1.6-6.4,4.9-6.4c1.7,0,3,0.6,3.7,1.7c0.8,1.2,1.1,2.7,1.1,4.7c0,2-0.4,3.6-1.1,4.7
					c-0.8,1.2-2,1.7-3.7,1.7C86.1,71,84.4,68.8,84.4,64.5z M91.6,64.5c0-1.3-0.2-2.3-0.5-3s-0.9-1.1-1.9-1.1c-0.9,0-1.6,0.4-1.9,1.1
					c-0.3,0.7-0.5,1.7-0.5,3c0,1.3,0.2,2.3,0.5,3c0.3,0.7,0.9,1.1,1.9,1.1c0.9,0,1.5-0.4,1.9-1.1C91.6,66.8,91.6,65.8,91.6,64.5z"/>
			</g>
			<g>
				<path class="st5" d="M103.2,82.8H41.8c-0.9,0-1.6-0.7-1.6-1.6v-0.1c0-0.9,0.7-1.6,1.6-1.6h61.4c0.9,0,1.6,0.7,1.6,1.6v0.1
					C104.8,82.1,104.1,82.8,103.2,82.8z"/>
			</g>
		</g>
	</g>
</g>
</svg>
