<?xml version="1.0" encoding="utf-8"?>
<!-- Generator: Adobe Illustrator 25.2.1, SVG Export Plug-In . SVG Version: 6.00 Build 0)  -->
<svg version="1.1" id="Layer_1" xmlns="http://www.w3.org/2000/svg" xmlns:xlink="http://www.w3.org/1999/xlink" x="0px" y="0px"
	 viewBox="0 0 145 110" style="enable-background:new 0 0 145 110;" xml:space="preserve">
<style type="text/css">
	.st0{fill:#EFEFEF;}
	.st1{fill:#FFFFFF;}
	.st2{enable-background:new    ;}
	.st3{fill:#787C87;}
	.st4{fill:#C6C8CC;}
	.st5{opacity:0.15;fill:#0FB293;enable-background:new    ;}
	.st6{fill:#0FB293;}
</style>
<g>
	<g>
		<rect class="st0" width="145" height="110"/>
	</g>
	<g>
		<path class="st1" d="M15,87.7V42.8c0-11.3,9.2-20.5,20.5-20.5H130v44.9c0,11.3-9.2,20.5-20.5,20.5H15z"/>
	</g>
	<g>
		<g class="st2">
			<path class="st3" d="M65.4,45.9v-2.4h4.6v12.7h-2.7V45.9H65.4z"/>
			<path class="st3" d="M77.9,47.3c0-0.6-0.1-1-0.4-1.3c-0.3-0.3-0.7-0.5-1.3-0.5c-1.2,0-1.8,0.8-1.9,2.4h-2.5
				c0.1-1.5,0.5-2.6,1.4-3.4c0.8-0.8,1.9-1.2,3.2-1.2c1.3,0,2.3,0.3,3,1s1.1,1.6,1.1,2.7c0,0.9-0.3,1.8-0.8,2.7
				c-0.5,0.9-1.2,1.7-2,2.5c-0.8,0.8-1.7,1.4-2.5,1.9h5.6v2.1h-8.9v-1.9C75.8,51.5,77.9,49.1,77.9,47.3z"/>
			<path class="st3" d="M83,44.8c0.3-0.5,0.9-1,1.5-1.3S86,43,87,43s1.8,0.2,2.5,0.5s1.2,0.8,1.5,1.3c0.3,0.5,0.5,1.1,0.5,1.7
				c0,0.7-0.2,1.3-0.5,1.8s-0.8,0.8-1.5,1.1c0.8,0.3,1.3,0.7,1.7,1.3c0.4,0.5,0.6,1.2,0.6,2c0,0.8-0.2,1.6-0.6,2.2
				c-0.4,0.6-1,1.1-1.7,1.4c-0.7,0.3-1.6,0.5-2.5,0.5s-1.7-0.2-2.5-0.5c-0.7-0.3-1.3-0.8-1.7-1.4c-0.4-0.6-0.6-1.3-0.6-2.2
				c0-0.8,0.2-1.4,0.6-2c0.4-0.5,1-1,1.7-1.3c-0.7-0.2-1.2-0.6-1.5-1.1c-0.3-0.5-0.5-1.1-0.5-1.8C82.5,45.9,82.7,45.3,83,44.8z
				 M85.3,53.9c0.4,0.4,1,0.6,1.7,0.6s1.3-0.2,1.7-0.6s0.6-0.9,0.6-1.5c0-0.6-0.2-1.1-0.7-1.5c-0.4-0.3-1-0.5-1.7-0.5
				c-0.7,0-1.2,0.2-1.7,0.5c-0.4,0.3-0.7,0.8-0.7,1.5C84.7,53.1,84.9,53.6,85.3,53.9z M85.5,48.2c0.4,0.3,0.8,0.5,1.5,0.5
				c0.6,0,1.1-0.2,1.5-0.5c0.4-0.3,0.5-0.8,0.5-1.3c0-0.6-0.2-1-0.5-1.3c-0.4-0.3-0.9-0.5-1.5-0.5c-0.6,0-1.1,0.2-1.4,0.5
				c-0.4,0.3-0.5,0.8-0.5,1.3C85,47.5,85.2,47.9,85.5,48.2z"/>
			<path class="st3" d="M93.6,49.8c0-4.3,1.6-6.4,4.9-6.4c1.7,0,3,0.6,3.7,1.7c0.8,1.2,1.1,2.7,1.1,4.7c0,2-0.4,3.6-1.1,4.7
				c-0.8,1.2-2,1.7-3.7,1.7C95.2,56.3,93.6,54.1,93.6,49.8z M100.8,49.8c0-1.3-0.2-2.3-0.5-3c-0.3-0.7-0.9-1.1-1.9-1.1
				c-0.9,0-1.6,0.4-1.9,1.1c-0.3,0.7-0.5,1.7-0.5,3c0,1.3,0.2,2.3,0.5,3c0.3,0.7,0.9,1.1,1.9,1.1c0.9,0,1.5-0.4,1.9-1.1
				C100.6,52.1,100.8,51.1,100.8,49.8z"/>
		</g>
		<g>
			<path class="st4" d="M117,68.1H67.8c-0.7,0-1.3-0.6-1.3-1.3v-0.1c0-0.7,0.6-1.3,1.3-1.3H117c0.7,0,1.3,0.6,1.3,1.3v0.1
				C118.3,67.5,117.7,68.1,117,68.1z"/>
		</g>
	</g>
	<circle class="st5" cx="41.2" cy="55" r="17.1"/>
	<g>
		<g>
			<path class="st6" d="M41.2,40.8c7.8-0.1,14.2,6.4,14.2,14.1c0,7.8-6.4,14.2-14.2,14.2C33.4,69.2,27,62.7,27,55
				C27,47.2,33.4,40.7,41.2,40.8z M41.2,63.8c1.8,0,3.3-0.4,4.8-1.3c1.1-0.7,2-1.5,2.7-2.6c0.4-0.6,0.3-1.3-0.3-1.7
				c-0.5-0.4-1.2-0.3-1.6,0.3c-0.1,0.1-0.2,0.3-0.3,0.4c-1.8,2.2-4.7,3.1-7.3,2.2c-1.4-0.5-2.6-1.3-3.5-2.5C35.3,58.2,35,58,34.4,58
				c-0.9,0.2-1.3,1.1-0.7,2C35.6,62.5,38.1,63.8,41.2,63.8z M46.4,50.4c-1.1,0-2,0.9-2,1.9c0,1.1,0.9,1.9,1.9,2c1.1,0,2-0.9,2-2
				C48.3,51.2,47.5,50.4,46.4,50.4z M34,52.3c0,1.1,0.9,2,2,2c1,0,1.9-0.9,1.9-2s-0.9-1.9-2-1.9C34.9,50.4,34,51.2,34,52.3z"/>
		</g>
	</g>
</g>
</svg>
