<?xml version="1.0" encoding="utf-8"?>
<!-- Generator: Adobe Illustrator 25.2.1, SVG Export Plug-In . SVG Version: 6.00 Build 0)  -->
<svg version="1.1" id="Layer_1" xmlns="http://www.w3.org/2000/svg" xmlns:xlink="http://www.w3.org/1999/xlink" x="0px" y="0px"
	 viewBox="0 0 145 110" style="enable-background:new 0 0 145 110;" xml:space="preserve">
<style type="text/css">
	.st0{fill:#EFEFEF;}
	.st1{fill:url(#SVGID_1_);}
	.st2{fill:#FFFFFF;}
	.st3{enable-background:new    ;}
	.st4{opacity:0.35;}
</style>
<g>
	<g>
		<rect class="st0" width="145" height="110"/>
	</g>
	<g>
		
			<linearGradient id="SVGID_1_" gradientUnits="userSpaceOnUse" x1="15" y1="55" x2="130" y2="55" gradientTransform="matrix(1 0 0 -1 0 110)">
			<stop  offset="0" style="stop-color:#0066FF"/>
			<stop  offset="1" style="stop-color:#005EC2"/>
		</linearGradient>
		<path class="st1" d="M15,82.7V27.3c0-2.8,2.2-5,5-5h105c2.8,0,5,2.2,5,5v55.4c0,2.8-2.2,5-5,5H20C17.2,87.7,15,85.5,15,82.7z"/>
	</g>
	<g>
		<g>
			<g>
				<path class="st2" d="M41.2,40.8c7.8-0.1,14.2,6.4,14.2,14.1c0,7.8-6.4,14.2-14.2,14.2C33.4,69.2,27,62.7,27,55
					C27,47.2,33.4,40.7,41.2,40.8z M41.2,63.8c1.8,0,3.3-0.4,4.8-1.3c1.1-0.7,2-1.5,2.7-2.6c0.4-0.6,0.3-1.3-0.3-1.7
					c-0.5-0.4-1.2-0.3-1.6,0.3c-0.1,0.1-0.2,0.3-0.3,0.4c-1.8,2.2-4.7,3.1-7.3,2.2c-1.4-0.5-2.6-1.3-3.5-2.5
					C35.3,58.2,35,58,34.4,58c-0.9,0.2-1.3,1.1-0.7,2C35.6,62.5,38.1,63.8,41.2,63.8z M46.4,50.4c-1.1,0-2,0.9-2,1.9
					c0,1.1,0.9,1.9,1.9,2c1.1,0,2-0.9,2-2C48.3,51.2,47.5,50.4,46.4,50.4z M34,52.3c0,1.1,0.9,2,2,2c1,0,1.9-0.9,1.9-2
					s-0.9-1.9-2-1.9C34.9,50.4,34,51.2,34,52.3z"/>
			</g>
		</g>
		<g>
			<g class="st3">
				<path class="st2" d="M71.9,47.3c0-0.6-0.1-1-0.4-1.3c-0.3-0.3-0.7-0.5-1.3-0.5c-1.2,0-1.8,0.8-1.9,2.4h-2.5
					c0.1-1.5,0.5-2.6,1.4-3.4c0.8-0.8,1.9-1.2,3.2-1.2c1.3,0,2.3,0.3,3,1s1.1,1.6,1.1,2.7c0,0.9-0.3,1.8-0.8,2.7
					c-0.5,0.9-1.2,1.7-2,2.5c-0.8,0.8-1.7,1.4-2.5,1.9h5.6v2.1h-8.9v-1.9C69.9,51.5,71.9,49.1,71.9,47.3z"/>
				<path class="st2" d="M85.3,45.6h-6v3.2c0.3-0.3,0.7-0.6,1.1-0.8c0.5-0.2,1-0.3,1.6-0.3c0.9,0,1.6,0.2,2.2,0.6
					c0.6,0.4,1,0.9,1.3,1.5c0.3,0.6,0.4,1.3,0.4,2.1c0,1.4-0.4,2.4-1.1,3.3c-0.8,0.8-1.9,1.2-3.3,1.2c-0.9,0-1.7-0.2-2.4-0.5
					c-0.7-0.3-1.2-0.8-1.6-1.4c-0.4-0.6-0.6-1.3-0.6-2.1h2.5c0.1,0.5,0.3,1,0.7,1.3c0.3,0.3,0.8,0.5,1.4,0.5c0.7,0,1.2-0.2,1.6-0.6
					c0.3-0.4,0.5-1,0.5-1.7c0-0.7-0.2-1.2-0.5-1.6c-0.4-0.4-0.9-0.6-1.5-0.6c-0.5,0-0.9,0.1-1.2,0.3c-0.3,0.2-0.6,0.5-0.7,0.8h-2.5
					v-7.5h8.3V45.6z"/>
				<path class="st2" d="M87.6,49.8c0-4.3,1.6-6.4,4.9-6.4c1.7,0,3,0.6,3.7,1.7c0.8,1.2,1.1,2.7,1.1,4.7c0,2-0.4,3.6-1.1,4.7
					c-0.8,1.2-2,1.7-3.7,1.7C89.2,56.3,87.6,54.1,87.6,49.8z M94.8,49.8c0-1.3-0.2-2.3-0.5-3c-0.3-0.7-0.9-1.1-1.9-1.1
					c-0.9,0-1.6,0.4-1.9,1.1c-0.3,0.7-0.5,1.7-0.5,3c0,1.3,0.2,2.3,0.5,3c0.3,0.7,0.9,1.1,1.9,1.1c0.9,0,1.5-0.4,1.9-1.1
					C94.6,52.1,94.8,51.1,94.8,49.8z"/>
				<path class="st2" d="M99,49.8c0-4.3,1.6-6.4,4.9-6.4c1.7,0,3,0.6,3.7,1.7c0.8,1.2,1.1,2.7,1.1,4.7c0,2-0.4,3.6-1.1,4.7
					c-0.8,1.2-2,1.7-3.7,1.7C100.6,56.3,99,54.1,99,49.8z M106.2,49.8c0-1.3-0.2-2.3-0.5-3c-0.3-0.7-0.9-1.1-1.9-1.1
					c-0.9,0-1.6,0.4-1.9,1.1c-0.3,0.7-0.5,1.7-0.5,3c0,1.3,0.2,2.3,0.5,3c0.3,0.7,0.9,1.1,1.9,1.1c0.9,0,1.5-0.4,1.9-1.1
					C106,52.1,106.2,51.1,106.2,49.8z"/>
			</g>
			<g class="st4">
				<path class="st2" d="M117,68.1H67.8c-0.7,0-1.3-0.6-1.3-1.3v-0.1c0-0.7,0.6-1.3,1.3-1.3H117c0.7,0,1.3,0.6,1.3,1.3v0.1
					C118.3,67.5,117.7,68.1,117,68.1z"/>
			</g>
		</g>
	</g>
</g>
</svg>
