<?xml version="1.0" encoding="utf-8"?>
<!-- Generator: Adobe Illustrator 25.2.1, SVG Export Plug-In . SVG Version: 6.00 Build 0)  -->
<svg version="1.1" id="Layer_1" xmlns="http://www.w3.org/2000/svg" xmlns:xlink="http://www.w3.org/1999/xlink" x="0px" y="0px"
	 viewBox="0 0 24 24" style="enable-background:new 0 0 24 24;" xml:space="preserve">
<style type="text/css">
	.st0{fill:url(#SVGID_1_);}
	.st1{fill:url(#SVGID_2_);}
</style>
<g>
	<linearGradient id="SVGID_1_" gradientUnits="userSpaceOnUse" x1="4.943" y1="13.5087" x2="19.9619" y2="13.5087">
		<stop  offset="0" style="stop-color:#00AFFA"/>
		<stop  offset="1" style="stop-color:#0954C0"/>
	</linearGradient>
	<path class="st0" d="M18.32,24c-0.07,0-0.14-0.01-0.21-0.04c-0.21-0.07-0.31-0.2-0.35-0.29c-0.07-0.15-0.08-0.34-0.01-0.54
		c0.09-0.24,0.17-0.49,0.26-0.73c0.1-0.29,0.21-0.57,0.31-0.86c0.34-0.99,0.48-1.94,0.43-2.88c-0.09-1.71-0.18-3.42-0.28-5.13
		c-0.03-0.45-0.2-0.73-0.55-0.88c0.05,0.56,0.03,1.14-0.06,1.73c-0.09,0.55-0.42,0.63-0.61,0.63l-0.1-0.01
		c-0.22-0.03-0.34-0.14-0.41-0.22c-0.11-0.14-0.14-0.34-0.1-0.58c0.15-0.91,0.08-1.89-0.2-3.09c-0.07-0.3-0.17-0.46-0.34-0.55
		c-0.15-0.08-0.33-0.17-0.46-0.17c-0.06,0.01-0.05,0.11-0.04,0.17c0.01,0.08,0.02,0.16,0.02,0.23c0,0.98,0.01,1.96,0.02,2.93
		c0.01,0.64-0.32,0.78-0.59,0.78h0c-0.42,0-0.63-0.27-0.64-0.79l0-0.38c-0.01-1.13-0.02-2.26-0.05-3.38
		c-0.01-0.53-0.23-0.64-0.55-0.64c-0.06,0-0.12,0-0.18,0.01c-0.29,0.04-0.39,0.14-0.39,0.42c-0.01,0.97-0.04,1.95-0.07,2.92
		c0,0-0.04,1.47-0.05,1.63c-0.02,0.41-0.26,0.66-0.62,0.66c-0.19,0-0.33-0.06-0.44-0.17c-0.12-0.13-0.18-0.31-0.17-0.56
		c0.03-0.95,0.06-1.89,0.08-2.84c0.05-2.23,0.06-4.21,0.03-6.05c0-0.25-0.03-0.51-0.06-0.76l-0.01-0.13
		c-0.02-0.19-0.05-0.19-0.1-0.19c-0.27,0.02-0.28,0.07-0.29,0.19c-0.04,0.54-0.09,1.08-0.14,1.62c-0.06,0.71-0.13,1.41-0.18,2.12
		c-0.05,0.71-0.1,1.42-0.14,2.13c-0.12,1.95-0.25,3.96-0.57,5.94c-0.04,0.27-0.12,0.73-0.61,0.73c-0.34-0.04-0.48-0.16-0.54-0.26
		c-0.11-0.17-0.13-0.4-0.05-0.7c0.08-0.31,0.04-0.51-0.17-0.72c-0.23-0.23-0.34-0.53-0.44-0.8c-0.3-0.81-0.88-1.39-1.84-1.81
		c-0.13-0.06-0.24-0.08-0.34-0.08c-0.22,0.03-0.31,0.09-0.34,0.17c-0.04,0.09-0.02,0.18,0.01,0.25c0.09,0.2,0.23,0.4,0.39,0.59
		c0.74,0.87,1.24,1.87,1.53,3.07c0.17,0.69,0.45,1.39,0.92,2.27l0.18,0.33c0.24,0.44,0.49,0.91,0.66,1.39
		c0.27,0.79,0.81,1.41,1.74,2.03c0.15,0.09,0.23,0.14,0.29,0.2c0.27,0.23,0.31,0.54,0.11,0.81c-0.16,0.22-0.35,0.27-0.48,0.27
		c-0.11,0-0.22-0.03-0.33-0.1c-0.98-0.62-1.82-1.22-2.25-2.29c-0.28-0.69-0.6-1.37-0.95-2c-0.51-0.92-0.87-1.83-1.1-2.77
		c-0.22-0.88-0.61-1.66-1.17-2.34c-0.18-0.22-0.35-0.45-0.5-0.7c-0.39-0.63-0.39-1.28,0.01-1.78c0.33-0.42,0.75-0.64,1.24-0.64
		c0.16,0,0.33,0.03,0.5,0.08c1.2,0.36,2.09,1.07,2.66,2.13c0.13-1.07,0.18-2.13,0.24-3.15c0.04-0.73,0.08-1.46,0.14-2.18
		c0.03-0.4,0.06-0.79,0.09-1.19c0.07-0.93,0.14-1.9,0.27-2.84c0.1-0.73,0.66-1.19,1.45-1.2c0.72,0,1.23,0.46,1.33,1.18
		c0.14,1.01,0.12,2.04,0.11,3.03l-0.01,0.81c0,0.03,0,0.09,0,0.13c0.01-0.01,0.04-0.02,0.09-0.03c0.18-0.04,0.36-0.06,0.52-0.06
		c0.66,0,1.17,0.34,1.56,1.04c0.03,0.05,0.03,0.05,0.13,0.06c1.26,0.12,1.83,0.62,2.09,1.85c0.06,0.26,0.12,0.32,0.37,0.37
		c0.96,0.19,1.59,0.94,1.64,1.96c0.03,0.6,0.08,1.19,0.12,1.79c0.1,1.42,0.21,2.88,0.16,4.33c-0.05,1.44-0.53,2.76-1.07,4.09
		C18.77,23.84,18.57,24,18.32,24L18.32,24z"/>
	<linearGradient id="SVGID_2_" gradientUnits="userSpaceOnUse" x1="0" y1="5.5714" x2="24" y2="5.5714">
		<stop  offset="0" style="stop-color:#00AFFA"/>
		<stop  offset="1" style="stop-color:#0954C0"/>
	</linearGradient>
	<path class="st1" d="M2.27,11.14C0.85,11.14,0,10.29,0,8.88c0-2.2,0-4.41,0-6.61C0,0.85,0.85,0,2.27,0h19.42
		C23.15,0,24,0.84,24,2.31c0,2.19,0,4.38,0,6.56c0,1.42-0.85,2.26-2.27,2.27l-1.94,0c-0.23,0-0.47-0.01-0.64-0.19
		C19.05,10.85,19,10.7,19,10.51c0.01-0.59,0.58-0.59,0.76-0.59l2,0c0.7,0,1.02-0.32,1.02-1.03c0-2.22,0-4.44,0-6.65
		c0-0.68-0.32-1-1-1H2.22c-0.68,0-0.99,0.32-1,1c0,2.2,0,4.41,0,6.61c0,0.77,0.3,1.08,1.06,1.08l5.35,0c0.06,0,0.13,0,0.19,0.01
		c0.35,0.03,0.57,0.25,0.58,0.58c0.01,0.36-0.22,0.6-0.59,0.63c-0.05,0-0.09,0.01-0.14,0.01L2.27,11.14z"/>
</g>
</svg>
