<?xml version="1.0" encoding="utf-8"?>
<!-- Generator: Adobe Illustrator 25.2.1, SVG Export Plug-In . SVG Version: 6.00 Build 0)  -->
<svg version="1.1" id="Layer_1" xmlns="http://www.w3.org/2000/svg" xmlns:xlink="http://www.w3.org/1999/xlink" x="0px" y="0px"
	 viewBox="0 0 320 160" style="enable-background:new 0 0 320 160;" xml:space="preserve">
<style type="text/css">
	.st0{fill:#F8F8F8;}
	.st1{fill:#FFFFFF;}
	.st2{fill:#9F9F9F;}
	.st3{fill-rule:evenodd;clip-rule:evenodd;fill:#FD7F7F;}
	.st4{fill:#98E6D8;}
	.st5{fill-rule:evenodd;clip-rule:evenodd;fill:#917FFD;}
	.st6{fill:#646464;}
</style>
<rect class="st0" width="320" height="160"/>
<path class="st1" d="M214.2,65.2c0-3.8,3.1-6.8,6.8-6.8h76.3c3.8,0,6.8,3.1,6.8,6.8v68.7c0,3.8-3.1,6.8-6.8,6.8H221
	c-3.8,0-6.8-3.1-6.8-6.8V65.2z"/>
<path d="M241.2,115.3h6.7v-1.7h-4c1.6-1.4,3.8-3.3,3.8-5.8c0-1.8-1.1-3.2-3.2-3.2c-1.8,0-3.2,1.1-3.3,3.5h1.9c0-1.1,0.5-1.8,1.4-1.8
	c0.9,0,1.3,0.6,1.3,1.6c0,1.9-2.4,3.8-4.6,5.8V115.3z"/>
<path d="M248.5,117.5h1.2l1.7-4.3h-2L248.5,117.5z"/>
<path d="M253,112.5c0.1,1.5,1.1,3,3.2,3c2.6,0,3.4-1.9,3.4-5.5c0-3.3-0.8-5.3-3.5-5.3c-2.1,0-3.3,1.4-3.3,3.5c0,2.2,1.4,3.4,3.1,3.4
	c0.9,0,1.7-0.4,2.1-1c0,2.4-0.5,3.3-1.6,3.3c-0.9,0-1.4-0.5-1.5-1.3H253z M256.2,109.9c-1.2,0-1.7-0.8-1.7-1.7
	c0-1.1,0.6-1.8,1.6-1.8c1,0,1.6,0.6,1.6,1.8C257.7,109.2,257.2,109.9,256.2,109.9z"/>
<path d="M261.6,104.9v6.2h1.8c0.2-0.7,0.7-1.1,1.5-1.1c1.1,0,1.6,0.7,1.6,1.8c0,1.1-0.5,2-1.6,2c-0.9,0-1.5-0.5-1.6-1.3h-1.9
	c0.2,1.7,1.4,3,3.5,3c2.3,0,3.4-1.5,3.4-3.7c0-1.6-0.8-3.5-3.1-3.5c-0.8,0-1.6,0.4-1.9,0.9v-2.5h4.4v-1.8H261.6z"/>
<path d="M269.8,110c0,3.1,0.9,5.4,3.7,5.4s3.7-2.3,3.7-5.4c0-3-0.9-5.3-3.7-5.3S269.8,107,269.8,110z M275.3,110
	c0,1.9-0.2,3.5-1.8,3.5s-1.8-1.6-1.8-3.5c0-1.8,0.2-3.5,1.8-3.5S275.3,108.2,275.3,110z"/>
<path class="st2" d="M243.7,125.7h-1.6l-0.4,1h-0.5l1.5-3.8h0.4l1.5,3.8h-0.5L243.7,125.7z M242.2,125.3h1.3l-0.7-1.8L242.2,125.3z"
	/>
<path class="st2" d="M247.5,126l0.6-2.2h0.5l-0.8,2.8h-0.4l-0.7-2.2l-0.7,2.2h-0.4l-0.8-2.8h0.5l0.6,2.1l0.7-2.1h0.4L247.5,126z"/>
<path class="st2" d="M250.8,126.7c0-0.1-0.1-0.2-0.1-0.3c-0.2,0.2-0.5,0.4-0.8,0.4c-0.3,0-0.5-0.1-0.7-0.2c-0.2-0.2-0.3-0.4-0.3-0.6
	c0-0.3,0.1-0.5,0.3-0.7c0.2-0.2,0.6-0.2,1-0.2h0.5v-0.2c0-0.2-0.1-0.3-0.2-0.4c-0.1-0.1-0.3-0.2-0.5-0.2c-0.2,0-0.3,0-0.4,0.1
	s-0.2,0.2-0.2,0.3H249c0-0.1,0.1-0.3,0.2-0.4c0.1-0.1,0.2-0.2,0.4-0.3c0.2-0.1,0.4-0.1,0.6-0.1c0.3,0,0.6,0.1,0.8,0.2
	c0.2,0.2,0.3,0.4,0.3,0.7v1.3c0,0.3,0,0.5,0.1,0.6v0H250.8z M250,126.3c0.2,0,0.3,0,0.4-0.1c0.1-0.1,0.2-0.2,0.3-0.3v-0.6h-0.4
	c-0.6,0-0.9,0.2-0.9,0.5c0,0.2,0.1,0.3,0.2,0.4C249.7,126.3,249.9,126.3,250,126.3z"/>
<path class="st2" d="M253.4,124.3c-0.1,0-0.2,0-0.2,0c-0.3,0-0.5,0.1-0.7,0.4v2H252v-2.8h0.5l0,0.3c0.2-0.3,0.4-0.4,0.7-0.4
	c0.1,0,0.2,0,0.2,0V124.3z"/>
<path class="st2" d="M253.7,125.2c0-0.4,0.1-0.8,0.3-1c0.2-0.3,0.5-0.4,0.8-0.4c0.3,0,0.6,0.1,0.8,0.3v-1.5h0.5v4h-0.5l0-0.3
	c-0.2,0.2-0.5,0.4-0.8,0.4c-0.3,0-0.6-0.1-0.8-0.4C253.8,126.1,253.7,125.7,253.7,125.2L253.7,125.2z M254.2,125.3
	c0,0.3,0.1,0.6,0.2,0.8s0.3,0.3,0.6,0.3c0.3,0,0.5-0.1,0.7-0.4v-1.3c-0.1-0.3-0.4-0.4-0.7-0.4c-0.2,0-0.4,0.1-0.6,0.3
	C254.3,124.7,254.2,124.9,254.2,125.3z"/>
<path class="st2" d="M259.2,125.5l0.1,0.5l0.1-0.5l0.8-2.7h0.4l0.8,2.7l0.1,0.5l0.1-0.5l0.6-2.6h0.5l-0.9,3.8h-0.5l-0.8-2.8
	l-0.1-0.3l-0.1,0.3l-0.8,2.8H259l-0.9-3.8h0.5L259.2,125.5z"/>
<path class="st2" d="M263.7,126.7h-0.5v-2.8h0.5V126.7z M263.1,123.1c0-0.1,0-0.1,0.1-0.2c0.1-0.1,0.1-0.1,0.2-0.1
	c0.1,0,0.2,0,0.2,0.1c0,0.1,0.1,0.1,0.1,0.2s0,0.1-0.1,0.2c-0.1,0.1-0.1,0.1-0.2,0.1c-0.1,0-0.2,0-0.2-0.1
	C263.2,123.2,263.1,123.2,263.1,123.1z"/>
<path class="st2" d="M264.9,123.9l0,0.4c0.2-0.3,0.5-0.4,0.9-0.4c0.6,0,0.9,0.3,0.9,1v1.9h-0.5v-1.9c0-0.2,0-0.4-0.1-0.5
	c-0.1-0.1-0.2-0.1-0.4-0.1c-0.2,0-0.3,0-0.4,0.1s-0.2,0.2-0.3,0.3v2h-0.5v-2.8H264.9z"/>
<path class="st2" d="M268,123.9l0,0.4c0.2-0.3,0.5-0.4,0.9-0.4c0.6,0,0.9,0.3,0.9,1v1.9h-0.5v-1.9c0-0.2-0.1-0.4-0.1-0.5
	c-0.1-0.1-0.2-0.1-0.4-0.1c-0.2,0-0.3,0-0.4,0.1s-0.2,0.2-0.3,0.3v2h-0.5v-2.8H268z"/>
<path class="st2" d="M271,126.7h-0.5v-2.8h0.5V126.7z M270.5,123.1c0-0.1,0-0.1,0.1-0.2c0-0.1,0.1-0.1,0.2-0.1c0.1,0,0.2,0,0.2,0.1
	c0.1,0.1,0.1,0.1,0.1,0.2s0,0.1-0.1,0.2c0,0.1-0.1,0.1-0.2,0.1c-0.1,0-0.2,0-0.2-0.1C270.5,123.2,270.5,123.2,270.5,123.1z"/>
<path class="st2" d="M272.3,123.9l0,0.4c0.2-0.3,0.5-0.4,0.9-0.4c0.6,0,0.9,0.3,0.9,1v1.9h-0.5v-1.9c0-0.2,0-0.4-0.1-0.5
	c-0.1-0.1-0.2-0.1-0.4-0.1c-0.2,0-0.3,0-0.4,0.1s-0.2,0.2-0.3,0.3v2h-0.5v-2.8H272.3z"/>
<path class="st2" d="M274.7,125.2c0-0.4,0.1-0.8,0.3-1.1c0.2-0.3,0.5-0.4,0.8-0.4c0.4,0,0.6,0.1,0.8,0.4l0-0.3h0.5v2.8
	c0,0.4-0.1,0.7-0.3,0.9c-0.2,0.2-0.5,0.3-0.9,0.3c-0.2,0-0.4,0-0.6-0.1c-0.2-0.1-0.4-0.2-0.5-0.4l0.3-0.3c0.2,0.3,0.5,0.4,0.8,0.4
	c0.2,0,0.4-0.1,0.6-0.2c0.1-0.1,0.2-0.3,0.2-0.6v-0.2c-0.2,0.2-0.5,0.3-0.8,0.3c-0.3,0-0.6-0.1-0.8-0.4
	C274.8,126.1,274.7,125.7,274.7,125.2z M275.2,125.3c0,0.3,0.1,0.6,0.2,0.8c0.1,0.2,0.3,0.3,0.6,0.3c0.3,0,0.5-0.1,0.7-0.4v-1.3
	c-0.2-0.3-0.4-0.4-0.7-0.4c-0.2,0-0.4,0.1-0.6,0.3C275.3,124.7,275.2,124.9,275.2,125.3z"/>
<path class="st3" d="M254,79.4c0-0.1,0-0.2,0.1-0.3c0.1-0.1,0.2-0.1,0.3-0.1h9.4c0.1,0,0.2,0,0.3,0.1c0.1,0.1,0.1,0.2,0.1,0.3v0.4
	h2.1c0.1,0,0.2,0,0.3,0.1c0.1,0.1,0.1,0.2,0.1,0.3v2.6c0,0.6-0.2,1.1-0.6,1.5s-0.9,0.6-1.5,0.6H264c-0.7,1.9-2.4,3.2-4.4,3.4v2.6h3
	c0.1,0,0.2,0,0.3,0.1c0.1,0.1,0.1,0.2,0.1,0.3v2.6c0,0.1,0,0.2-0.1,0.3c-0.1,0.1-0.2,0.1-0.3,0.1h-6.9c-0.1,0-0.2,0-0.3-0.1
	c-0.1-0.1-0.1-0.2-0.1-0.3v-2.6c0-0.1,0-0.2,0.1-0.3c0.1-0.1,0.2-0.1,0.3-0.1h3v-2.6c-2.1-0.2-3.8-1.5-4.4-3.4h-0.7
	c-0.6,0-1.1-0.2-1.5-0.6c-0.4-0.4-0.6-0.9-0.6-1.5v-2.6c0-0.1,0-0.2,0.1-0.3c0.1-0.1,0.2-0.1,0.3-0.1h2.1V79.4z M263.5,83.2v-3.4
	h-8.6v3.4c0,2.4,1.9,4.3,4.3,4.3C261.5,87.5,263.5,85.6,263.5,83.2z M264.3,80.6v3.4h0.4c0.3,0,0.7-0.1,0.9-0.4
	c0.2-0.2,0.4-0.6,0.4-0.9v-2.1H264.3z M252.3,80.6h1.7v3.4h-0.4c-0.3,0-0.7-0.1-0.9-0.4c-0.2-0.2-0.4-0.6-0.4-0.9V80.6z M256.2,91.8
	v1.7h6v-1.7H256.2z"/>
<path class="st1" d="M115.1,65.2c0-3.8,3-6.8,6.7-6.8h75.2c3.7,0,6.7,3.1,6.7,6.8v68.7c0,3.8-3,6.8-6.7,6.8h-75.2
	c-3.7,0-6.7-3.1-6.7-6.8V65.2z"/>
<path d="M144.7,115.4h1.9v-10.5h-3.2v1.9h1.3V115.4z"/>
<path d="M148,117.5h1.2l1.7-4.3h-2L148,117.5z"/>
<path d="M151.8,115.3h6.6v-1.7h-4c1.6-1.4,3.8-3.3,3.8-5.8c0-1.8-1.1-3.2-3.2-3.2c-1.8,0-3.2,1.1-3.3,3.5h1.8c0-1.1,0.5-1.8,1.4-1.8
	c0.9,0,1.3,0.6,1.3,1.6c0,1.9-2.3,3.8-4.5,5.8V115.3z"/>
<path d="M160.2,104.9v6.2h1.8c0.2-0.7,0.7-1.1,1.5-1.1c1.1,0,1.6,0.7,1.6,1.8c0,1.1-0.5,2-1.6,2c-0.9,0-1.5-0.5-1.6-1.3H160
	c0.2,1.7,1.4,3,3.5,3c2.2,0,3.4-1.5,3.4-3.7c0-1.6-0.8-3.5-3.1-3.5c-0.8,0-1.6,0.4-1.9,0.9v-2.5h4.4v-1.8H160.2z"/>
<path d="M168.3,110c0,3.1,0.9,5.4,3.6,5.4c2.8,0,3.6-2.3,3.6-5.4c0-3.1-0.9-5.3-3.6-5.3C169.2,104.7,168.3,107,168.3,110z
	 M173.7,110c0,1.9-0.2,3.5-1.8,3.5c-1.6,0-1.8-1.6-1.8-3.5c0-1.8,0.2-3.5,1.8-3.5C173.5,106.6,173.7,108.2,173.7,110z"/>
<path class="st2" d="M143.8,126.6h-0.5v-1.8h-1.9v1.8h-0.5v-3.9h0.5v1.7h1.9v-1.7h0.5V126.6z"/>
<path class="st2" d="M146.4,126.6c0-0.1-0.1-0.2-0.1-0.3c-0.2,0.2-0.5,0.4-0.8,0.4c-0.3,0-0.5-0.1-0.7-0.2c-0.2-0.2-0.3-0.4-0.3-0.6
	c0-0.3,0.1-0.5,0.3-0.7c0.2-0.2,0.5-0.3,1-0.3h0.5v-0.2c0-0.2-0.1-0.3-0.2-0.4c-0.1-0.1-0.3-0.2-0.5-0.2c-0.2,0-0.3,0-0.4,0.1
	c-0.1,0.1-0.2,0.2-0.2,0.3h-0.5c0-0.1,0.1-0.3,0.2-0.4c0.1-0.1,0.2-0.2,0.4-0.3c0.2-0.1,0.4-0.1,0.6-0.1c0.3,0,0.6,0.1,0.8,0.3
	c0.2,0.2,0.3,0.4,0.3,0.7v1.3c0,0.3,0,0.5,0.1,0.6v0H146.4z M145.6,126.2c0.2,0,0.3,0,0.4-0.1c0.1-0.1,0.2-0.2,0.3-0.3v-0.6h-0.4
	c-0.6,0-0.9,0.2-0.9,0.5c0,0.2,0.1,0.3,0.2,0.4C145.3,126.2,145.4,126.2,145.6,126.2z"/>
<path class="st2" d="M150,125.2c0,0.4-0.1,0.8-0.3,1.1c-0.2,0.3-0.5,0.4-0.8,0.4c-0.3,0-0.6-0.1-0.8-0.3v1.4h-0.5v-4h0.4l0,0.3
	c0.2-0.3,0.5-0.4,0.8-0.4c0.3,0,0.6,0.1,0.8,0.4C149.9,124.3,150,124.7,150,125.2L150,125.2z M149.5,125.2c0-0.3-0.1-0.6-0.2-0.8
	c-0.1-0.2-0.3-0.3-0.6-0.3c-0.3,0-0.5,0.1-0.7,0.4v1.4c0.1,0.3,0.4,0.4,0.7,0.4c0.2,0,0.4-0.1,0.6-0.3
	C149.4,125.8,149.5,125.5,149.5,125.2z"/>
<path class="st2" d="M153,125.2c0,0.4-0.1,0.8-0.3,1.1c-0.2,0.3-0.5,0.4-0.8,0.4c-0.3,0-0.6-0.1-0.8-0.3v1.4h-0.5v-4h0.4l0,0.3
	c0.2-0.3,0.5-0.4,0.8-0.4c0.3,0,0.6,0.1,0.8,0.4C152.9,124.3,153,124.7,153,125.2L153,125.2z M152.6,125.2c0-0.3-0.1-0.6-0.2-0.8
	c-0.1-0.2-0.3-0.3-0.6-0.3c-0.3,0-0.5,0.1-0.7,0.4v1.4c0.1,0.3,0.4,0.4,0.7,0.4c0.2,0,0.4-0.1,0.6-0.3
	C152.5,125.8,152.6,125.5,152.6,125.2z"/>
<path class="st2" d="M154.6,125.9l0.7-2.2h0.5l-1.2,3.4c-0.2,0.5-0.5,0.7-0.8,0.7l-0.1,0l-0.2,0v-0.4l0.1,0c0.2,0,0.3,0,0.4-0.1
	c0.1-0.1,0.2-0.2,0.2-0.4l0.1-0.3l-1-2.9h0.5L154.6,125.9z"/>
<path class="st2" d="M160.5,125.4c0,0.4-0.2,0.7-0.5,1c-0.3,0.2-0.6,0.3-1,0.3c-0.5,0-0.8-0.2-1.1-0.5c-0.3-0.3-0.4-0.8-0.4-1.3
	v-0.4c0-0.4,0.1-0.7,0.2-1c0.1-0.3,0.3-0.5,0.5-0.6c0.2-0.1,0.5-0.2,0.8-0.2c0.4,0,0.7,0.1,1,0.3c0.2,0.2,0.4,0.6,0.4,1h-0.5
	c0-0.3-0.1-0.5-0.3-0.7c-0.1-0.1-0.4-0.2-0.6-0.2c-0.3,0-0.6,0.1-0.8,0.4c-0.2,0.2-0.3,0.6-0.3,1v0.4c0,0.4,0.1,0.8,0.3,1
	c0.2,0.3,0.4,0.4,0.7,0.4c0.3,0,0.5-0.1,0.6-0.2c0.2-0.1,0.3-0.4,0.3-0.7H160.5z"/>
<path class="st2" d="M162.8,126.3c-0.2,0.2-0.5,0.3-0.8,0.3c-0.3,0-0.5-0.1-0.7-0.3c-0.2-0.2-0.2-0.4-0.2-0.8v-1.9h0.5v1.9
	c0,0.4,0.2,0.7,0.5,0.7c0.4,0,0.6-0.1,0.7-0.4v-2.1h0.5v2.9h-0.5L162.8,126.3z"/>
<path class="st2" d="M165.7,125.9c0-0.1-0.1-0.2-0.2-0.3c-0.1-0.1-0.3-0.1-0.5-0.2c-0.2-0.1-0.4-0.1-0.6-0.2
	c-0.1-0.1-0.3-0.2-0.3-0.3c-0.1-0.1-0.1-0.2-0.1-0.4c0-0.2,0.1-0.4,0.3-0.6c0.2-0.2,0.5-0.2,0.8-0.2c0.3,0,0.6,0.1,0.8,0.3
	c0.2,0.2,0.3,0.4,0.3,0.7h-0.5c0-0.1-0.1-0.3-0.2-0.4c-0.1-0.1-0.3-0.1-0.4-0.1c-0.2,0-0.3,0-0.4,0.1c-0.1,0.1-0.1,0.2-0.1,0.3
	c0,0.1,0,0.2,0.1,0.3c0.1,0.1,0.3,0.1,0.5,0.2c0.2,0.1,0.4,0.1,0.6,0.2c0.2,0.1,0.3,0.2,0.3,0.3c0.1,0.1,0.1,0.2,0.1,0.4
	c0,0.3-0.1,0.5-0.3,0.6c-0.2,0.2-0.5,0.2-0.8,0.2c-0.2,0-0.4,0-0.6-0.1c-0.2-0.1-0.3-0.2-0.4-0.3c-0.1-0.1-0.1-0.3-0.1-0.5h0.5
	c0,0.2,0.1,0.3,0.2,0.4c0.1,0.1,0.3,0.1,0.5,0.1c0.2,0,0.3,0,0.4-0.1C165.7,126.1,165.7,126,165.7,125.9z"/>
<path class="st2" d="M167.5,123v0.7h0.5v0.4h-0.5v1.8c0,0.1,0,0.2,0.1,0.3c0,0.1,0.1,0.1,0.2,0.1c0.1,0,0.1,0,0.2,0v0.4
	c-0.1,0-0.3,0.1-0.4,0.1c-0.2,0-0.4-0.1-0.5-0.2c-0.1-0.1-0.2-0.3-0.2-0.6v-1.8h-0.5v-0.4h0.5V123H167.5z"/>
<path class="st2" d="M168.5,125.1c0-0.3,0.1-0.5,0.2-0.8c0.1-0.2,0.3-0.4,0.5-0.5c0.2-0.1,0.4-0.2,0.7-0.2c0.4,0,0.7,0.1,0.9,0.4
	c0.2,0.3,0.4,0.6,0.4,1.1v0c0,0.3-0.1,0.5-0.2,0.8c-0.1,0.2-0.3,0.4-0.5,0.5c-0.2,0.1-0.4,0.2-0.7,0.2c-0.4,0-0.7-0.1-0.9-0.4
	C168.6,126,168.5,125.6,168.5,125.1L168.5,125.1z M168.9,125.2c0,0.3,0.1,0.6,0.2,0.8c0.1,0.2,0.3,0.3,0.6,0.3
	c0.2,0,0.4-0.1,0.6-0.3c0.1-0.2,0.2-0.5,0.2-0.8c0-0.3-0.1-0.6-0.2-0.8c-0.1-0.2-0.3-0.3-0.6-0.3c-0.2,0-0.4,0.1-0.6,0.3
	C169,124.6,168.9,124.8,168.9,125.2z"/>
<path class="st2" d="M172.1,123.7l0,0.3c0.2-0.3,0.5-0.4,0.8-0.4c0.4,0,0.7,0.2,0.8,0.5c0.1-0.1,0.2-0.3,0.4-0.3
	c0.2-0.1,0.3-0.1,0.5-0.1c0.6,0,0.9,0.3,1,1v1.9h-0.5v-1.9c0-0.2,0-0.4-0.1-0.5c-0.1-0.1-0.3-0.2-0.5-0.2c-0.2,0-0.3,0.1-0.5,0.2
	c-0.1,0.1-0.2,0.3-0.2,0.4v1.9h-0.5v-1.9c0-0.4-0.2-0.6-0.6-0.6c-0.3,0-0.5,0.1-0.7,0.4v2.1h-0.5v-2.9H172.1z"/>
<path class="st2" d="M177.6,126.7c-0.4,0-0.7-0.1-0.9-0.4c-0.2-0.3-0.4-0.6-0.4-1v-0.1c0-0.3,0.1-0.5,0.2-0.8
	c0.1-0.2,0.3-0.4,0.5-0.5c0.2-0.1,0.4-0.2,0.6-0.2c0.4,0,0.7,0.1,0.9,0.4c0.2,0.2,0.3,0.6,0.3,1.1v0.2h-1.9c0,0.3,0.1,0.5,0.2,0.7
	c0.2,0.2,0.4,0.3,0.6,0.3c0.2,0,0.3,0,0.4-0.1c0.1-0.1,0.2-0.2,0.3-0.3l0.3,0.2C178.5,126.5,178.1,126.7,177.6,126.7z M177.6,124.1
	c-0.2,0-0.4,0.1-0.5,0.2c-0.1,0.1-0.2,0.3-0.2,0.6h1.4v0c0-0.3-0.1-0.4-0.2-0.6C177.9,124.1,177.8,124.1,177.6,124.1z"/>
<path class="st2" d="M180.7,124.2c-0.1,0-0.2,0-0.2,0c-0.3,0-0.5,0.1-0.7,0.4v2.1h-0.5v-2.9h0.5l0,0.3c0.2-0.3,0.4-0.4,0.7-0.4
	c0.1,0,0.2,0,0.2,0V124.2z"/>
<path class="st2" d="M182.8,125.9c0-0.1-0.1-0.2-0.2-0.3c-0.1-0.1-0.3-0.1-0.5-0.2c-0.2-0.1-0.4-0.1-0.6-0.2
	c-0.1-0.1-0.3-0.2-0.3-0.3c-0.1-0.1-0.1-0.2-0.1-0.4c0-0.2,0.1-0.4,0.3-0.6c0.2-0.2,0.5-0.2,0.8-0.2c0.3,0,0.6,0.1,0.8,0.3
	c0.2,0.2,0.3,0.4,0.3,0.7h-0.5c0-0.1-0.1-0.3-0.2-0.4c-0.1-0.1-0.3-0.1-0.4-0.1c-0.2,0-0.3,0-0.4,0.1c-0.1,0.1-0.2,0.2-0.2,0.3
	c0,0.1,0,0.2,0.1,0.3c0.1,0.1,0.3,0.1,0.5,0.2c0.2,0.1,0.4,0.1,0.6,0.2c0.2,0.1,0.3,0.2,0.3,0.3c0.1,0.1,0.1,0.2,0.1,0.4
	c0,0.3-0.1,0.5-0.3,0.6c-0.2,0.2-0.5,0.2-0.8,0.2c-0.2,0-0.4,0-0.6-0.1c-0.2-0.1-0.3-0.2-0.4-0.3c-0.1-0.1-0.1-0.3-0.1-0.5h0.5
	c0,0.2,0.1,0.3,0.2,0.4c0.1,0.1,0.3,0.1,0.5,0.1c0.2,0,0.3,0,0.4-0.1C182.7,126.1,182.8,126,182.8,125.9z"/>
<path class="st4" d="M160.1,73.8c-5.7,0-10.3,4.6-10.3,10.3c0,5.7,4.6,10.3,10.3,10.3c5.7,0,10.3-4.6,10.3-10.3
	C170.4,78.4,165.8,73.8,160.1,73.8L160.1,73.8z M160.1,75.4c4.8,0,8.7,3.9,8.7,8.7c0,4.8-3.9,8.7-8.7,8.7c-4.8,0-8.7-3.9-8.7-8.7
	C151.5,79.3,155.4,75.4,160.1,75.4L160.1,75.4z M156.9,80.9c-0.4,0-0.8,0.2-1.1,0.5s-0.5,0.7-0.5,1.1c0,0.4,0.2,0.8,0.5,1.1
	s0.7,0.5,1.1,0.5s0.8-0.2,1.1-0.5c0.3-0.3,0.5-0.7,0.5-1.1c0-0.4-0.2-0.8-0.5-1.1C157.8,81,157.4,80.9,156.9,80.9z M163.4,80.9
	c-0.4,0-0.8,0.2-1.1,0.5c-0.3,0.3-0.5,0.7-0.5,1.1c0,0.4,0.2,0.8,0.5,1.1c0.3,0.3,0.7,0.5,1.1,0.5c0.4,0,0.8-0.2,1.1-0.5
	c0.3-0.3,0.5-0.7,0.5-1.1c0-0.4-0.2-0.8-0.5-1.1C164.2,81,163.8,80.9,163.4,80.9z M154.3,86.6c0.7,0.9,1.5,1.7,2.5,2.2
	c1,0.5,2.1,0.8,3.3,0.8c1.1,0,2.3-0.3,3.3-0.8c1-0.5,1.9-1.3,2.5-2.2c-1.7,1.2-3.7,1.9-5.8,1.9C158,88.4,156,87.7,154.3,86.6z"/>
<path class="st1" d="M14.8,65.2c0-3.8,3.1-6.8,6.8-6.8H98c3.8,0,6.8,3.1,6.8,6.8v68.7c0,3.8-3.1,6.8-6.8,6.8H21.7
	c-3.8,0-6.8-3.1-6.8-6.8V65.2z"/>
<path d="M42,104.9v6.2h1.9c0.2-0.7,0.7-1.1,1.5-1.1c1.1,0,1.7,0.7,1.7,1.8c0,1.1-0.5,2-1.7,2c-0.9,0-1.5-0.5-1.7-1.3h-1.9
	c0.2,1.7,1.4,3,3.6,3c2.3,0,3.5-1.5,3.5-3.7c0-1.6-0.8-3.5-3.2-3.5c-0.8,0-1.6,0.4-2,0.9v-2.5h4.5v-1.8H42z"/>
<path d="M49.8,117.5h1.3l1.7-4.3h-2.1L49.8,117.5z"/>
<path d="M54.4,112.5c0.1,1.5,1.1,3,3.3,3c2.7,0,3.4-1.9,3.4-5.5c0-3.3-0.8-5.3-3.6-5.3c-2.1,0-3.4,1.4-3.4,3.5
	c0,2.2,1.4,3.4,3.2,3.4c0.9,0,1.7-0.4,2.1-1c0,2.4-0.5,3.3-1.6,3.3c-0.9,0-1.4-0.5-1.6-1.3H54.4z M57.7,109.9
	c-1.2,0-1.7-0.8-1.7-1.7c0-1.1,0.6-1.8,1.6-1.8c1,0,1.6,0.6,1.6,1.8C59.2,109.2,58.6,109.9,57.7,109.9z"/>
<path d="M63.2,104.9v6.2H65c0.2-0.7,0.7-1.1,1.5-1.1c1.1,0,1.7,0.7,1.7,1.8c0,1.1-0.5,2-1.7,2c-0.9,0-1.5-0.5-1.7-1.3H63
	c0.2,1.7,1.4,3,3.6,3c2.3,0,3.5-1.5,3.5-3.7c0-1.6-0.8-3.5-3.2-3.5c-0.8,0-1.6,0.4-2,0.9v-2.5h4.5v-1.8H63.2z"/>
<path d="M71.6,110c0,3.1,0.9,5.4,3.8,5.4s3.8-2.3,3.8-5.4c0-3-0.9-5.3-3.8-5.3S71.6,107,71.6,110z M77.2,110c0,1.9-0.2,3.5-1.8,3.5
	s-1.8-1.6-1.8-3.5c0-1.8,0.2-3.5,1.8-3.5S77.2,108.2,77.2,110z"/>
<path class="st2" d="M42.7,125H41v1.7h-0.5v-3.8h2.4v0.4H41v1.3h1.6V125z"/>
<path class="st2" d="M44,126.7h-0.5v-2.8H44V126.7z M43.5,123.1c0-0.1,0-0.1,0.1-0.2c0-0.1,0.1-0.1,0.2-0.1c0.1,0,0.2,0,0.2,0.1
	c0,0.1,0.1,0.1,0.1,0.2c0,0.1,0,0.1-0.1,0.2s-0.1,0.1-0.2,0.1c-0.1,0-0.2,0-0.2-0.1C43.5,123.2,43.5,123.2,43.5,123.1z"/>
<path class="st2" d="M45.3,123.8l0,0.4c0.2-0.3,0.5-0.4,0.9-0.4c0.6,0,0.9,0.3,0.9,1v1.9h-0.5v-1.9c0-0.2-0.1-0.4-0.1-0.5
	c-0.1-0.1-0.2-0.1-0.4-0.1c-0.2,0-0.3,0-0.4,0.1c-0.1,0.1-0.2,0.2-0.3,0.3v2h-0.5v-2.8H45.3z"/>
<path class="st2" d="M48.4,126.7h-0.5v-2.8h0.5V126.7z M47.8,123.1c0-0.1,0-0.1,0.1-0.2c0.1-0.1,0.1-0.1,0.2-0.1
	c0.1,0,0.2,0,0.2,0.1c0,0.1,0.1,0.1,0.1,0.2c0,0.1,0,0.1-0.1,0.2c-0.1,0.1-0.1,0.1-0.2,0.1c-0.1,0-0.2,0-0.2-0.1
	C47.9,123.2,47.8,123.2,47.8,123.1z"/>
<path class="st2" d="M50.9,125.9c0-0.1-0.1-0.2-0.2-0.3c-0.1-0.1-0.3-0.1-0.5-0.2c-0.3-0.1-0.4-0.1-0.6-0.2
	c-0.1-0.1-0.3-0.2-0.3-0.3c-0.1-0.1-0.1-0.2-0.1-0.4c0-0.2,0.1-0.4,0.3-0.6c0.2-0.2,0.5-0.2,0.8-0.2c0.3,0,0.6,0.1,0.8,0.2
	c0.2,0.2,0.3,0.4,0.3,0.6h-0.5c0-0.1-0.1-0.2-0.2-0.3c-0.1-0.1-0.3-0.1-0.4-0.1c-0.2,0-0.3,0-0.4,0.1c-0.1,0.1-0.2,0.2-0.2,0.3
	c0,0.1,0,0.2,0.1,0.3c0.1,0.1,0.3,0.1,0.5,0.2c0.2,0.1,0.4,0.1,0.6,0.2c0.2,0.1,0.3,0.2,0.3,0.3c0.1,0.1,0.1,0.2,0.1,0.4
	c0,0.3-0.1,0.5-0.3,0.6c-0.2,0.2-0.5,0.2-0.8,0.2c-0.2,0-0.4,0-0.6-0.1s-0.3-0.2-0.4-0.3c-0.1-0.1-0.1-0.3-0.1-0.5h0.5
	c0,0.2,0.1,0.3,0.2,0.4c0.1,0.1,0.3,0.1,0.5,0.1c0.2,0,0.3,0,0.5-0.1C50.8,126.1,50.9,126,50.9,125.9z"/>
<path class="st2" d="M52.5,124.2c0.2-0.3,0.5-0.4,0.9-0.4c0.6,0,0.9,0.3,0.9,1v1.9h-0.5v-1.9c0-0.2-0.1-0.4-0.1-0.5
	c-0.1-0.1-0.2-0.1-0.4-0.1c-0.2,0-0.3,0-0.4,0.1c-0.1,0.1-0.2,0.2-0.3,0.3v2H52v-4h0.5V124.2z"/>
<path class="st2" d="M56.2,126.7c-0.4,0-0.7-0.1-1-0.4c-0.2-0.3-0.4-0.6-0.4-1v-0.1c0-0.3,0.1-0.5,0.2-0.7c0.1-0.2,0.3-0.4,0.5-0.5
	c0.2-0.1,0.4-0.2,0.6-0.2c0.4,0,0.7,0.1,0.9,0.4c0.2,0.2,0.3,0.6,0.3,1v0.2h-2c0,0.3,0.1,0.5,0.2,0.7c0.2,0.2,0.4,0.3,0.6,0.3
	c0.2,0,0.3,0,0.4-0.1c0.1-0.1,0.2-0.2,0.3-0.3l0.3,0.2C57.1,126.5,56.7,126.7,56.2,126.7z M56.2,124.2c-0.2,0-0.4,0.1-0.5,0.2
	c-0.1,0.1-0.2,0.3-0.3,0.6h1.5v0c0-0.2-0.1-0.4-0.2-0.6C56.5,124.3,56.4,124.2,56.2,124.2z"/>
<path class="st2" d="M57.8,125.2c0-0.4,0.1-0.8,0.3-1c0.2-0.3,0.5-0.4,0.8-0.4c0.3,0,0.6,0.1,0.8,0.3v-1.5h0.5v4h-0.5l0-0.3
	c-0.2,0.2-0.5,0.4-0.8,0.4c-0.3,0-0.6-0.1-0.8-0.4C57.9,126,57.8,125.7,57.8,125.2L57.8,125.2z M58.3,125.3c0,0.3,0.1,0.6,0.2,0.8
	c0.1,0.2,0.3,0.3,0.6,0.3c0.3,0,0.5-0.1,0.7-0.4v-1.3c-0.1-0.3-0.4-0.4-0.7-0.4c-0.2,0-0.4,0.1-0.6,0.3
	C58.4,124.7,58.3,124.9,58.3,125.3z"/>
<path class="st2" d="M63,125.2v1.5h-0.5v-3.8h1.4c0.4,0,0.8,0.1,1,0.3c0.2,0.2,0.4,0.5,0.4,0.8c0,0.4-0.1,0.7-0.4,0.9
	c-0.2,0.2-0.6,0.3-1,0.3H63z M63,124.8h0.9c0.3,0,0.5-0.1,0.6-0.2c0.1-0.1,0.2-0.3,0.2-0.5c0-0.2-0.1-0.4-0.2-0.5
	c-0.1-0.1-0.3-0.2-0.6-0.2h-1V124.8z"/>
<path class="st2" d="M67.3,124.3c-0.1,0-0.2,0-0.2,0c-0.3,0-0.5,0.1-0.7,0.4v2h-0.5v-2.8h0.5l0,0.3c0.2-0.3,0.4-0.4,0.7-0.4
	c0.1,0,0.2,0,0.2,0V124.3z"/>
<path class="st2" d="M67.5,125.2c0-0.3,0.1-0.5,0.2-0.7c0.1-0.2,0.3-0.4,0.5-0.5c0.2-0.1,0.4-0.2,0.7-0.2c0.4,0,0.7,0.1,1,0.4
	c0.2,0.3,0.4,0.6,0.4,1.1v0c0,0.3-0.1,0.5-0.2,0.7c-0.1,0.2-0.3,0.4-0.5,0.5c-0.2,0.1-0.4,0.2-0.7,0.2c-0.4,0-0.7-0.1-1-0.4
	C67.7,126.1,67.5,125.7,67.5,125.2L67.5,125.2z M68,125.3c0,0.3,0.1,0.6,0.2,0.8c0.2,0.2,0.3,0.3,0.6,0.3c0.3,0,0.5-0.1,0.6-0.3
	c0.1-0.2,0.2-0.5,0.2-0.8c0-0.3-0.1-0.6-0.2-0.8c-0.2-0.2-0.4-0.3-0.6-0.3c-0.2,0-0.4,0.1-0.6,0.3C68.1,124.7,68,124.9,68,125.3z"/>
<path class="st2" d="M71.3,123.8v3.1c0,0.5-0.3,0.8-0.8,0.8c-0.1,0-0.2,0-0.3,0v-0.4c0.1,0,0.1,0,0.2,0c0.1,0,0.2,0,0.3-0.1
	c0.1-0.1,0.1-0.2,0.1-0.3v-3.2H71.3z M70.8,123.1c0-0.1,0-0.1,0.1-0.2c0.1-0.1,0.1-0.1,0.2-0.1c0.1,0,0.2,0,0.2,0.1
	c0,0.1,0.1,0.1,0.1,0.2c0,0.1,0,0.1-0.1,0.2c-0.1,0.1-0.1,0.1-0.2,0.1c-0.1,0-0.2,0-0.2-0.1C70.8,123.2,70.8,123.2,70.8,123.1z"/>
<path class="st2" d="M73.3,126.7c-0.4,0-0.7-0.1-1-0.4c-0.2-0.3-0.4-0.6-0.4-1v-0.1c0-0.3,0.1-0.5,0.2-0.7c0.1-0.2,0.3-0.4,0.5-0.5
	c0.2-0.1,0.4-0.2,0.6-0.2c0.4,0,0.7,0.1,0.9,0.4c0.2,0.2,0.3,0.6,0.3,1v0.2h-2c0,0.3,0.1,0.5,0.2,0.7c0.2,0.2,0.4,0.3,0.6,0.3
	c0.2,0,0.3,0,0.4-0.1c0.1-0.1,0.2-0.2,0.3-0.3l0.3,0.2C74.2,126.5,73.8,126.7,73.3,126.7z M73.2,124.2c-0.2,0-0.4,0.1-0.5,0.2
	c-0.1,0.1-0.2,0.3-0.3,0.6h1.5v0c0-0.2-0.1-0.4-0.2-0.6C73.6,124.3,73.5,124.2,73.2,124.2z"/>
<path class="st2" d="M76.2,126.3c0.2,0,0.3-0.1,0.5-0.2c0.1-0.1,0.2-0.2,0.2-0.4h0.5c0,0.2-0.1,0.3-0.2,0.5
	c-0.1,0.1-0.2,0.3-0.4,0.3c-0.2,0.1-0.4,0.1-0.6,0.1c-0.4,0-0.7-0.1-0.9-0.4c-0.2-0.3-0.3-0.6-0.3-1.1v-0.1c0-0.3,0.1-0.5,0.2-0.7
	c0.1-0.2,0.3-0.4,0.4-0.5c0.2-0.1,0.4-0.2,0.7-0.2c0.3,0,0.6,0.1,0.8,0.3c0.2,0.2,0.3,0.4,0.3,0.7h-0.5c0-0.2-0.1-0.3-0.2-0.4
	c-0.1-0.1-0.3-0.2-0.5-0.2c-0.3,0-0.4,0.1-0.6,0.3c-0.1,0.2-0.2,0.4-0.2,0.8v0.1c0,0.3,0.1,0.6,0.2,0.8
	C75.7,126.2,75.9,126.3,76.2,126.3z"/>
<path class="st2" d="M78.6,123.2v0.7h0.5v0.4h-0.5v1.8c0,0.1,0,0.2,0.1,0.3c0,0.1,0.1,0.1,0.2,0.1c0.1,0,0.1,0,0.2,0v0.4
	c-0.1,0-0.3,0.1-0.4,0.1c-0.2,0-0.4-0.1-0.5-0.2c-0.1-0.1-0.2-0.3-0.2-0.6v-1.8h-0.5v-0.4h0.5v-0.7H78.6z"/>
<path class="st5" d="M52.7,77c0.4-0.4,1-0.6,1.6-0.6h7c0.6,0,1.1,0.2,1.5,0.6l4.1,3.8l0,0c0.2,0.2,0.4,0.4,0.5,0.7
	c0.1,0.3,0.2,0.5,0.2,0.8v10.1c0,0.6-0.2,1.1-0.6,1.5c-0.4,0.4-1,0.6-1.6,0.6h-11c-0.6,0-1.1-0.2-1.6-0.6c-0.4-0.4-0.6-0.9-0.6-1.5
	V78.4C52.1,77.9,52.3,77.4,52.7,77z M54.3,77c-0.4,0-0.8,0.1-1,0.4c-0.3,0.3-0.4,0.6-0.4,1v13.9c0,0.4,0.2,0.7,0.4,1
	c0.3,0.3,0.7,0.4,1,0.4h11c0.4,0,0.8-0.1,1-0.4c0.3-0.3,0.4-0.6,0.4-1V82.2h-3.3c-0.6,0-1.1-0.2-1.6-0.6c-0.4-0.4-0.6-0.9-0.6-1.5
	V77c0,0,0,0,0,0l0,0H54.3z M62,77.2v2.9c0,0.4,0.2,0.7,0.4,1s0.7,0.4,1,0.4h3.2c-0.1-0.1-0.2-0.3-0.3-0.4l-4.1-3.8c0,0,0,0,0,0
	C62.2,77.4,62.1,77.3,62,77.2z M56.7,86.2c0-0.2,0.2-0.3,0.4-0.3h5.5c0.2,0,0.4,0.2,0.4,0.3c0,0.2-0.2,0.3-0.4,0.3h-5.5
	C56.9,86.6,56.7,86.4,56.7,86.2z M56.7,89.7c0-0.2,0.2-0.3,0.4-0.3h2.8c0.2,0,0.4,0.2,0.4,0.3c0,0.2-0.2,0.3-0.4,0.3h-2.8
	C56.9,90,56.7,89.9,56.7,89.7z"/>
<path d="M82.3,28.6h1.4v-7.6h-1.4v3.1h-3.1v-3.1h-1.4v7.6h1.4v-3.3h3.1V28.6z"/>
<path d="M85.2,28.6h1.4v-6.1h-1.4V28.6z M85.9,21.8c0.5,0,0.9-0.4,0.9-0.9c0-0.5-0.4-0.9-0.9-0.9c-0.5,0-0.9,0.4-0.9,0.9
	C85,21.4,85.4,21.8,85.9,21.8z"/>
<path d="M87.6,25.5c0,1.9,1.1,3.2,2.6,3.2c0.9,0,1.5-0.5,1.9-1v0.9c0,1.1-0.6,1.6-1.4,1.6c-0.7,0-1.2-0.4-1.4-0.9h-1.4
	c0.1,1.4,1.3,2.2,2.9,2.2c1.9,0,2.8-1.3,2.8-2.9v-6.1h-1.4v0.9c-0.3-0.5-1-1-1.9-1C88.8,22.4,87.6,23.6,87.6,25.5z M92.1,25.6
	c0,1.1-0.7,1.8-1.5,1.8c-0.8,0-1.5-0.7-1.5-1.8c0-1.1,0.7-1.8,1.5-1.8C91.4,23.8,92.1,24.4,92.1,25.6z"/>
<path d="M94.9,28.6h1.4v-3.4c0-1,0.5-1.5,1.3-1.5c0.8,0,1.3,0.5,1.3,1.5v3.4h1.4V25c0-1.7-0.9-2.6-2.2-2.6c-0.8,0-1.4,0.3-1.8,0.8
	v-2.8h-1.4V28.6z"/>
<path d="M101.7,28.6h1.4v-8.1h-1.4V28.6z"/>
<path d="M104.6,28.6h1.4v-6.1h-1.4V28.6z M105.3,21.8c0.5,0,0.9-0.4,0.9-0.9c0-0.5-0.4-0.9-0.9-0.9c-0.5,0-0.9,0.4-0.9,0.9
	C104.4,21.4,104.8,21.8,105.3,21.8z"/>
<path d="M107,25.5c0,1.9,1.1,3.2,2.6,3.2c0.9,0,1.5-0.5,1.9-1v0.9c0,1.1-0.6,1.6-1.4,1.6c-0.7,0-1.2-0.4-1.4-0.9h-1.4
	c0.1,1.4,1.3,2.2,2.9,2.2c1.9,0,2.8-1.3,2.8-2.9v-6.1h-1.4v0.9c-0.3-0.5-1-1-1.9-1C108.2,22.4,107,23.6,107,25.5z M111.5,25.6
	c0,1.1-0.7,1.8-1.5,1.8c-0.8,0-1.5-0.7-1.5-1.8c0-1.1,0.7-1.8,1.5-1.8C110.8,23.8,111.5,24.4,111.5,25.6z"/>
<path d="M114.3,28.6h1.4v-3.4c0-1,0.5-1.5,1.3-1.5c0.8,0,1.3,0.5,1.3,1.5v3.4h1.4V25c0-1.7-0.9-2.6-2.2-2.6c-0.8,0-1.4,0.3-1.8,0.8
	v-2.8h-1.4V28.6z"/>
<path d="M121.3,26.7c0,1.4,0.7,1.9,1.8,1.9h0.9v-1.3h-0.7c-0.5,0-0.6-0.2-0.6-0.6v-2.9h1.3v-1.3h-1.3V21h-1.4v1.5h-0.7v1.3h0.7V26.7
	z"/>
<path d="M132.5,26.4c0-2.7-3.7-1.8-3.7-3.4c0-0.6,0.4-0.9,1-0.9c0.6,0,1,0.4,1,0.9h1.6c-0.1-1.4-1.1-2.2-2.6-2.2
	c-1.5,0-2.5,0.8-2.5,2.2c0,2.8,3.7,1.8,3.7,3.4c0,0.5-0.4,0.9-1.1,0.9c-0.7,0-1-0.4-1.1-1h-1.5c0,1.4,1.2,2.3,2.7,2.3
	C131.6,28.7,132.5,27.6,132.5,26.4z"/>
<path d="M133.8,28.6h1.4v-6.1h-1.4V28.6z M134.5,21.8c0.5,0,0.9-0.4,0.9-0.9c0-0.5-0.4-0.9-0.9-0.9c-0.5,0-0.9,0.4-0.9,0.9
	C133.6,21.4,134,21.8,134.5,21.8z"/>
<path d="M144.5,28.6h1.4V25c0-1.7-1-2.6-2.3-2.6c-0.8,0-1.6,0.5-1.9,1.2c-0.4-0.8-1.1-1.2-2-1.2c-0.7,0-1.3,0.3-1.7,0.8v-0.7h-1.4
	v6.1h1.4v-3.4c0-1,0.5-1.5,1.3-1.5c0.8,0,1.3,0.5,1.3,1.5v3.4h1.4v-3.4c0-1,0.5-1.5,1.3-1.5c0.8,0,1.3,0.5,1.3,1.5V28.6z"/>
<path d="M148.8,23.4v-0.9h-1.4v9h1.4v-3.8c0.3,0.5,1,1,1.9,1c1.5,0,2.6-1.3,2.6-3.2s-1.1-3.1-2.6-3.1
	C149.7,22.4,149.1,22.9,148.8,23.4z M151.8,25.5c0,1.1-0.7,1.8-1.5,1.8c-0.8,0-1.5-0.6-1.5-1.8s0.7-1.8,1.5-1.8
	C151,23.8,151.8,24.4,151.8,25.5z"/>
<path d="M154.3,28.6h1.4v-8.1h-1.4V28.6z"/>
<path d="M159.5,23.7c0.7,0,1.3,0.5,1.4,1.3h-2.7C158.3,24.2,158.9,23.7,159.5,23.7z M162.2,26.7h-1.5c-0.2,0.4-0.5,0.7-1.1,0.7
	c-0.7,0-1.3-0.5-1.4-1.4h4.1c0-0.2,0-0.4,0-0.6c0-1.8-1.2-3-2.8-3c-1.7,0-2.8,1.2-2.8,3.1c0,1.9,1.2,3.1,2.8,3.1
	C161,28.7,161.9,27.8,162.2,26.7z"/>
<path d="M170.7,28.6h1.5l-2.6-7.7H168l-2.6,7.7h1.5l0.5-1.5h2.8L170.7,28.6z M169.9,25.9h-2.1l1-3.2L169.9,25.9z"/>
<path d="M172.8,25.6c0,1.9,1.2,3.1,2.8,3.1c1.4,0,2.4-0.9,2.7-2.1h-1.5c-0.2,0.5-0.5,0.8-1.1,0.8c-0.8,0-1.3-0.6-1.3-1.8
	c0-1.2,0.5-1.8,1.3-1.8c0.6,0,1,0.3,1.1,0.8h1.5c-0.3-1.4-1.3-2.1-2.7-2.1C174,22.4,172.8,23.6,172.8,25.6z"/>
<path d="M179.3,28.6h1.4v-3.4c0-1,0.5-1.5,1.3-1.5c0.8,0,1.3,0.5,1.3,1.5v3.4h1.4V25c0-1.7-0.9-2.6-2.2-2.6c-0.8,0-1.4,0.3-1.8,0.8
	v-2.8h-1.4V28.6z"/>
<path d="M186.1,28.6h1.4v-6.1h-1.4V28.6z M186.8,21.8c0.5,0,0.9-0.4,0.9-0.9c0-0.5-0.4-0.9-0.9-0.9c-0.5,0-0.9,0.4-0.9,0.9
	C186,21.4,186.3,21.8,186.8,21.8z"/>
<path d="M191.4,23.7c0.7,0,1.3,0.5,1.4,1.3h-2.7C190.2,24.2,190.7,23.7,191.4,23.7z M194.1,26.7h-1.5c-0.2,0.4-0.5,0.7-1.1,0.7
	c-0.7,0-1.3-0.5-1.4-1.4h4.1c0-0.2,0-0.4,0-0.6c0-1.8-1.2-3-2.8-3c-1.7,0-2.8,1.2-2.8,3.1c0,1.9,1.2,3.1,2.8,3.1
	C192.8,28.7,193.8,27.8,194.1,26.7z"/>
<path d="M194.7,22.5l2.1,6.1h1.7l2.1-6.1h-1.5l-1.4,4.7l-1.4-4.7H194.7z"/>
<path d="M203.8,23.7c0.7,0,1.3,0.5,1.4,1.3h-2.7C202.6,24.2,203.1,23.7,203.8,23.7z M206.5,26.7H205c-0.2,0.4-0.5,0.7-1.1,0.7
	c-0.7,0-1.3-0.5-1.4-1.4h4.1c0-0.2,0-0.4,0-0.6c0-1.8-1.2-3-2.8-3c-1.7,0-2.8,1.2-2.8,3.1c0,1.9,1.2,3.1,2.8,3.1
	C205.3,28.7,206.2,27.8,206.5,26.7z"/>
<path d="M215.6,28.6h1.4V25c0-1.7-1-2.6-2.3-2.6c-0.8,0-1.6,0.5-1.9,1.2c-0.4-0.8-1.1-1.2-2-1.2c-0.7,0-1.3,0.3-1.7,0.8v-0.7h-1.4
	v6.1h1.4v-3.4c0-1,0.5-1.5,1.3-1.5c0.8,0,1.3,0.5,1.3,1.5v3.4h1.4v-3.4c0-1,0.5-1.5,1.3-1.5c0.8,0,1.3,0.5,1.3,1.5V28.6z"/>
<path d="M220.9,23.7c0.7,0,1.3,0.5,1.4,1.3h-2.7C219.6,24.2,220.2,23.7,220.9,23.7z M223.6,26.7H222c-0.2,0.4-0.5,0.7-1.1,0.7
	c-0.7,0-1.3-0.5-1.4-1.4h4.1c0-0.2,0-0.4,0-0.6c0-1.8-1.2-3-2.8-3c-1.7,0-2.8,1.2-2.8,3.1c0,1.9,1.2,3.1,2.8,3.1
	C222.3,28.7,223.3,27.8,223.6,26.7z"/>
<path d="M228.7,28.6h1.4V25c0-1.7-0.9-2.6-2.3-2.6c-0.7,0-1.3,0.3-1.7,0.8v-0.8h-1.4v6.1h1.4v-3.4c0-1,0.5-1.5,1.3-1.5
	c0.8,0,1.3,0.5,1.3,1.5V28.6z"/>
<path d="M231.7,26.7c0,1.4,0.7,1.9,1.8,1.9h0.9v-1.3h-0.7c-0.4,0-0.6-0.2-0.6-0.6v-2.9h1.3v-1.3h-1.3V21h-1.4v1.5h-0.7v1.3h0.7V26.7
	z"/>
<path d="M239.9,26.9c0-2.2-3.2-1.5-3.2-2.6c0-0.4,0.3-0.6,0.8-0.6c0.6,0,0.9,0.3,1,0.8h1.4c-0.1-1.2-0.9-2-2.3-2
	c-1.4,0-2.2,0.8-2.2,1.8c0,2.2,3.2,1.5,3.2,2.6c0,0.4-0.3,0.6-0.9,0.6c-0.6,0-1-0.4-1-0.8h-1.4c0.1,1.1,1.1,2,2.5,2
	C239,28.7,239.9,27.9,239.9,26.9z"/>
<path class="st6" d="M82.8,42l0.1,0.6l0.1-0.6l0.8-3.3h0.4l0.7,3.3l0.1,0.6l0.1-0.6l0.6-3.2h0.5l-0.9,4.7h-0.5L84,40.1L84,39.7
	l-0.1,0.4l-0.8,3.4h-0.5l-0.9-4.7h0.5L82.8,42z"/>
<path class="st6" d="M87.2,40.4c0.2-0.3,0.5-0.5,0.8-0.5c0.6,0,0.9,0.4,0.9,1.2v2.3h-0.5v-2.3c0-0.3,0-0.4-0.1-0.6
	c-0.1-0.1-0.2-0.2-0.4-0.2c-0.2,0-0.3,0.1-0.4,0.2c-0.1,0.1-0.2,0.2-0.3,0.4v2.5h-0.5v-5h0.5V40.4z"/>
<path class="st6" d="M90.9,43.6c-0.4,0-0.7-0.2-0.9-0.5c-0.2-0.3-0.4-0.7-0.4-1.2v-0.1c0-0.3,0.1-0.7,0.2-0.9
	c0.1-0.3,0.3-0.5,0.5-0.6c0.2-0.2,0.4-0.2,0.6-0.2c0.4,0,0.7,0.1,0.9,0.4c0.2,0.3,0.3,0.7,0.3,1.3v0.2h-1.9c0,0.3,0.1,0.6,0.2,0.8
	c0.2,0.2,0.4,0.3,0.6,0.3c0.2,0,0.3,0,0.4-0.1c0.1-0.1,0.2-0.2,0.3-0.3l0.3,0.3C91.7,43.3,91.4,43.6,90.9,43.6z M90.8,40.4
	c-0.2,0-0.4,0.1-0.5,0.3c-0.1,0.2-0.2,0.4-0.2,0.7h1.4v0c0-0.3-0.1-0.5-0.2-0.7C91.2,40.5,91,40.4,90.8,40.4z"/>
<path class="st6" d="M93.1,40l0,0.4c0.2-0.3,0.5-0.5,0.9-0.5c0.6,0,0.9,0.4,0.9,1.2v2.3h-0.5v-2.3c0-0.3,0-0.4-0.1-0.6
	c-0.1-0.1-0.2-0.2-0.4-0.2c-0.2,0-0.3,0.1-0.4,0.2s-0.2,0.2-0.3,0.4v2.5h-0.5V40H93.1z"/>
<path class="st6" d="M99.2,42.3h-1.6l-0.4,1.2h-0.5l1.5-4.7h0.4l1.5,4.7h-0.5L99.2,42.3z M97.7,41.8H99l-0.7-2.2L97.7,41.8z"/>
<path class="st6" d="M100.9,40l0,0.4c0.2-0.3,0.5-0.5,0.9-0.5c0.6,0,0.9,0.4,0.9,1.2v2.3h-0.5v-2.3c0-0.3,0-0.4-0.1-0.6
	c-0.1-0.1-0.2-0.2-0.4-0.2c-0.2,0-0.3,0.1-0.4,0.2c-0.1,0.1-0.2,0.2-0.3,0.4v2.5h-0.5V40H100.9z"/>
<path class="st6" d="M107.6,38.8V42c0,0.4-0.1,0.8-0.3,1.1c-0.2,0.3-0.5,0.4-0.9,0.5l-0.1,0c-0.4,0-0.8-0.1-1-0.4
	c-0.3-0.3-0.4-0.7-0.4-1.1v-3.2h0.5V42c0,0.3,0.1,0.6,0.2,0.8c0.2,0.2,0.4,0.3,0.7,0.3c0.3,0,0.5-0.1,0.7-0.3
	c0.2-0.2,0.2-0.5,0.2-0.8v-3.2H107.6z"/>
<path class="st6" d="M108.8,40l0,0.4c0.2-0.3,0.5-0.5,0.9-0.5c0.6,0,0.9,0.4,0.9,1.2v2.3h-0.5v-2.3c0-0.3-0.1-0.4-0.1-0.6
	c-0.1-0.1-0.2-0.2-0.4-0.2c-0.2,0-0.3,0.1-0.4,0.2c-0.1,0.1-0.2,0.2-0.3,0.4v2.5h-0.5V40H108.8z"/>
<path class="st6" d="M112.2,41.9l-0.3,0.4v1.2h-0.5v-5h0.5v3l0.3-0.4L113,40h0.6l-1.1,1.5l1.2,2h-0.6L112.2,41.9z"/>
<path class="st6" d="M114.6,40l0,0.4c0.2-0.3,0.5-0.5,0.9-0.5c0.6,0,0.9,0.4,0.9,1.2v2.3h-0.5v-2.3c0-0.3-0.1-0.4-0.1-0.6
	c-0.1-0.1-0.2-0.2-0.4-0.2c-0.2,0-0.3,0.1-0.4,0.2c-0.1,0.1-0.2,0.2-0.3,0.4v2.5h-0.5V40H114.6z"/>
<path class="st6" d="M117,41.7c0-0.3,0.1-0.6,0.2-0.9c0.1-0.3,0.3-0.5,0.5-0.6c0.2-0.1,0.4-0.2,0.7-0.2c0.4,0,0.7,0.2,0.9,0.5
	c0.2,0.3,0.4,0.8,0.4,1.3v0c0,0.3-0.1,0.6-0.2,0.9c-0.1,0.3-0.3,0.5-0.5,0.6c-0.2,0.2-0.4,0.2-0.7,0.2c-0.4,0-0.7-0.2-0.9-0.5
	C117.1,42.7,117,42.3,117,41.7L117,41.7z M117.5,41.8c0,0.4,0.1,0.7,0.2,0.9c0.1,0.2,0.3,0.4,0.6,0.4c0.2,0,0.4-0.1,0.6-0.4
	c0.1-0.2,0.2-0.6,0.2-1c0-0.4-0.1-0.7-0.2-0.9c-0.1-0.2-0.3-0.4-0.6-0.4c-0.2,0-0.4,0.1-0.6,0.4C117.5,41,117.5,41.4,117.5,41.8z"/>
<path class="st6" d="M122.7,42.7l0.6-2.7h0.5l-0.8,3.5h-0.4l-0.7-2.6l-0.7,2.6h-0.4l-0.8-3.5h0.5l0.6,2.6l0.7-2.6h0.4L122.7,42.7z"
	/>
<path class="st6" d="M124.8,40l0,0.4c0.2-0.3,0.5-0.5,0.9-0.5c0.6,0,0.9,0.4,0.9,1.2v2.3h-0.5v-2.3c0-0.3,0-0.4-0.1-0.6
	c-0.1-0.1-0.2-0.2-0.4-0.2c-0.2,0-0.3,0.1-0.4,0.2c-0.1,0.1-0.2,0.2-0.3,0.4v2.5h-0.5V40H124.8z"/>
<path class="st6" d="M129.2,41.7v1.8h-0.5v-4.7h1.4c0.4,0,0.8,0.1,1,0.4c0.2,0.3,0.4,0.6,0.4,1c0,0.5-0.1,0.8-0.4,1.1
	c-0.2,0.2-0.6,0.4-1,0.4H129.2z M129.2,41.2h0.9c0.3,0,0.5-0.1,0.6-0.2c0.1-0.2,0.2-0.4,0.2-0.7c0-0.3-0.1-0.5-0.2-0.7
	c-0.1-0.2-0.3-0.3-0.6-0.3h-0.9V41.2z"/>
<path class="st6" d="M133.5,40.5c-0.1,0-0.2,0-0.2,0c-0.3,0-0.5,0.2-0.7,0.5v2.5h-0.5V40h0.5l0,0.4c0.2-0.3,0.4-0.5,0.7-0.5
	c0.1,0,0.2,0,0.2,0V40.5z"/>
<path class="st6" d="M134.4,43.5H134V40h0.5V43.5z M133.9,39.1c0-0.1,0-0.2,0.1-0.2c0-0.1,0.1-0.1,0.2-0.1c0.1,0,0.2,0,0.2,0.1
	c0,0.1,0.1,0.1,0.1,0.2c0,0.1,0,0.2-0.1,0.2c-0.1,0.1-0.1,0.1-0.2,0.1c-0.1,0-0.2,0-0.2-0.1C133.9,39.3,133.9,39.2,133.9,39.1z"/>
<path class="st6" d="M135.7,40l0,0.4c0.2-0.3,0.5-0.5,0.9-0.5c0.6,0,0.9,0.4,0.9,1.2v2.3H137v-2.3c0-0.3,0-0.4-0.1-0.6
	c-0.1-0.1-0.2-0.2-0.4-0.2c-0.2,0-0.3,0.1-0.4,0.2c-0.1,0.1-0.2,0.2-0.3,0.4v2.5h-0.5V40H135.7z"/>
<path class="st6" d="M138.9,39.2V40h0.5v0.5h-0.5v2.2c0,0.1,0,0.2,0.1,0.3c0,0.1,0.1,0.1,0.2,0.1c0.1,0,0.1,0,0.2,0v0.5
	c-0.1,0-0.3,0.1-0.4,0.1c-0.2,0-0.4-0.1-0.5-0.2c-0.1-0.2-0.2-0.4-0.2-0.7v-2.2h-0.5V40h0.5v-0.8H138.9z"/>
<path class="st6" d="M141.2,43.6c-0.4,0-0.7-0.2-1-0.5c-0.2-0.3-0.4-0.7-0.4-1.2v-0.1c0-0.3,0.1-0.7,0.2-0.9
	c0.1-0.3,0.3-0.5,0.5-0.6c0.2-0.2,0.4-0.2,0.6-0.2c0.4,0,0.7,0.1,0.9,0.4c0.2,0.3,0.3,0.7,0.3,1.3v0.2h-1.9c0,0.3,0.1,0.6,0.2,0.8
	c0.2,0.2,0.4,0.3,0.6,0.3c0.2,0,0.3,0,0.4-0.1c0.1-0.1,0.2-0.2,0.3-0.3l0.3,0.3C142,43.3,141.7,43.6,141.2,43.6z M141.1,40.4
	c-0.2,0-0.4,0.1-0.5,0.3c-0.1,0.2-0.2,0.4-0.2,0.7h1.4v0c0-0.3-0.1-0.5-0.2-0.7C141.5,40.5,141.3,40.4,141.1,40.4z"/>
<path class="st6" d="M144.3,40.5c-0.1,0-0.2,0-0.2,0c-0.3,0-0.5,0.2-0.7,0.5v2.5h-0.5V40h0.5l0,0.4c0.2-0.3,0.4-0.5,0.7-0.5
	c0.1,0,0.2,0,0.2,0V40.5z"/>
<path class="st6" d="M148.7,39.3h-1.2v4.2H147v-4.2h-1.2v-0.5h3V39.3z"/>
<path class="st6" d="M148.8,41.7c0-0.3,0.1-0.6,0.2-0.9c0.1-0.3,0.3-0.5,0.5-0.6c0.2-0.1,0.4-0.2,0.7-0.2c0.4,0,0.7,0.2,0.9,0.5
	c0.2,0.3,0.4,0.8,0.4,1.3v0c0,0.3-0.1,0.6-0.2,0.9c-0.1,0.3-0.3,0.5-0.5,0.6c-0.2,0.2-0.4,0.2-0.7,0.2c-0.4,0-0.7-0.2-0.9-0.5
	C148.9,42.7,148.8,42.3,148.8,41.7L148.8,41.7z M149.3,41.8c0,0.4,0.1,0.7,0.2,0.9c0.1,0.2,0.3,0.4,0.6,0.4c0.2,0,0.4-0.1,0.6-0.4
	c0.1-0.2,0.2-0.6,0.2-1c0-0.4-0.1-0.7-0.2-0.9c-0.1-0.2-0.3-0.4-0.6-0.4c-0.2,0-0.4,0.1-0.6,0.4C149.4,41,149.3,41.4,149.3,41.8z"/>
<path class="st6" d="M151.9,41.7c0-0.3,0.1-0.6,0.2-0.9c0.1-0.3,0.3-0.5,0.5-0.6c0.2-0.1,0.4-0.2,0.7-0.2c0.4,0,0.7,0.2,0.9,0.5
	c0.2,0.3,0.4,0.8,0.4,1.3v0c0,0.3-0.1,0.6-0.2,0.9c-0.1,0.3-0.3,0.5-0.5,0.6c-0.2,0.2-0.4,0.2-0.7,0.2c-0.4,0-0.7-0.2-0.9-0.5
	C152,42.7,151.9,42.3,151.9,41.7L151.9,41.7z M152.4,41.8c0,0.4,0.1,0.7,0.2,0.9c0.1,0.2,0.3,0.4,0.6,0.4c0.2,0,0.4-0.1,0.6-0.4
	c0.1-0.2,0.2-0.6,0.2-1c0-0.4-0.1-0.7-0.2-0.9c-0.1-0.2-0.3-0.4-0.6-0.4c-0.2,0-0.4,0.1-0.6,0.4C152.5,41,152.4,41.4,152.4,41.8z"/>
<path class="st6" d="M155.9,41.9l-0.3,0.4v1.2h-0.5v-5h0.5v3l0.3-0.4l0.9-1.1h0.6l-1.1,1.5l1.2,2h-0.6L155.9,41.9z"/>
<path class="st6" d="M161.5,42.3h-1.6l-0.4,1.2H159l1.5-4.7h0.4l1.5,4.7h-0.5L161.5,42.3z M160,41.8h1.3l-0.7-2.2L160,41.8z"/>
<path class="st6" d="M167.1,42.9c-0.1,0.2-0.3,0.4-0.6,0.5c-0.2,0.1-0.5,0.2-0.8,0.2c-0.3,0-0.6-0.1-0.8-0.3
	c-0.2-0.2-0.4-0.4-0.6-0.8c-0.1-0.3-0.2-0.7-0.2-1.2V41c0-0.7,0.1-1.3,0.4-1.6c0.3-0.4,0.7-0.6,1.1-0.6c0.4,0,0.7,0.1,1,0.4
	c0.2,0.2,0.4,0.6,0.5,1.1h-0.5c-0.1-0.6-0.4-0.9-0.9-0.9c-0.3,0-0.6,0.1-0.8,0.4c-0.2,0.3-0.3,0.7-0.3,1.3v0.4
	c0,0.5,0.1,0.9,0.3,1.3c0.2,0.3,0.5,0.5,0.8,0.5c0.2,0,0.4,0,0.5-0.1c0.1-0.1,0.3-0.1,0.4-0.3v-1.1h-0.9v-0.5h1.4V42.9z"/>
<path class="st6" d="M169.6,43.5c0-0.1-0.1-0.2-0.1-0.4c-0.2,0.3-0.5,0.4-0.8,0.4c-0.3,0-0.5-0.1-0.7-0.3c-0.2-0.2-0.3-0.4-0.3-0.7
	c0-0.4,0.1-0.6,0.3-0.8c0.2-0.2,0.5-0.3,1-0.3h0.5v-0.3c0-0.2-0.1-0.4-0.2-0.5c-0.1-0.1-0.3-0.2-0.5-0.2c-0.2,0-0.3,0.1-0.4,0.2
	c-0.1,0.1-0.2,0.2-0.2,0.4h-0.5c0-0.2,0.1-0.3,0.2-0.5c0.1-0.2,0.2-0.3,0.4-0.4c0.2-0.1,0.4-0.1,0.6-0.1c0.3,0,0.6,0.1,0.8,0.3
	c0.2,0.2,0.3,0.5,0.3,0.8v1.6c0,0.3,0,0.6,0.1,0.8v0.1H169.6z M168.8,43c0.2,0,0.3,0,0.4-0.1c0.1-0.1,0.2-0.2,0.3-0.4v-0.7h-0.4
	c-0.6,0-0.9,0.2-0.9,0.6c0,0.2,0.1,0.3,0.2,0.4C168.5,43,168.6,43,168.8,43z"/>
<path class="st6" d="M171.3,43.5h-0.5v-5h0.5V43.5z"/>
<path class="st6" d="M172.7,43.5h-0.5v-5h0.5V43.5z"/>
<path class="st6" d="M174.6,43.6c-0.4,0-0.7-0.2-0.9-0.5c-0.2-0.3-0.4-0.7-0.4-1.2v-0.1c0-0.3,0.1-0.7,0.2-0.9
	c0.1-0.3,0.3-0.5,0.5-0.6c0.2-0.2,0.4-0.2,0.6-0.2c0.4,0,0.7,0.1,0.9,0.4c0.2,0.3,0.3,0.7,0.3,1.3v0.2h-1.9c0,0.3,0.1,0.6,0.2,0.8
	c0.2,0.2,0.4,0.3,0.6,0.3c0.2,0,0.3,0,0.4-0.1c0.1-0.1,0.2-0.2,0.3-0.3l0.3,0.3C175.5,43.3,175.1,43.6,174.6,43.6z M174.6,40.4
	c-0.2,0-0.4,0.1-0.5,0.3c-0.1,0.2-0.2,0.4-0.2,0.7h1.4v0c0-0.3-0.1-0.5-0.2-0.7C174.9,40.5,174.8,40.4,174.6,40.4z"/>
<path class="st6" d="M177.2,42.6l0.7-2.6h0.5l-1.2,4c-0.2,0.6-0.5,0.9-0.9,0.9l-0.1,0l-0.2,0v-0.5l0.1,0c0.2,0,0.3,0,0.4-0.1
	c0.1-0.1,0.2-0.2,0.2-0.4l0.1-0.4l-1-3.5h0.5L177.2,42.6z"/>
<path class="st6" d="M183.3,41.3c0,0.5-0.1,0.9-0.2,1.2c-0.1,0.3-0.3,0.6-0.5,0.8c-0.2,0.2-0.5,0.3-0.8,0.3c-0.3,0-0.6-0.1-0.8-0.3
	c-0.2-0.2-0.4-0.4-0.5-0.8c-0.1-0.3-0.2-0.7-0.2-1.2V41c0-0.5,0.1-0.9,0.2-1.2c0.1-0.3,0.3-0.6,0.5-0.8c0.2-0.2,0.5-0.3,0.8-0.3
	c0.3,0,0.6,0.1,0.8,0.3c0.2,0.2,0.4,0.4,0.5,0.8c0.1,0.3,0.2,0.7,0.2,1.2V41.3z M182.8,41c0-0.6-0.1-1-0.3-1.3
	c-0.2-0.3-0.4-0.4-0.8-0.4c-0.3,0-0.6,0.1-0.8,0.4c-0.2,0.3-0.3,0.7-0.3,1.2v0.3c0,0.5,0.1,1,0.3,1.3c0.2,0.3,0.4,0.5,0.8,0.5
	c0.3,0,0.6-0.1,0.8-0.4c0.2-0.3,0.3-0.7,0.3-1.3V41z"/>
<path class="st6" d="M184.2,43.5v-3h-0.5V40h0.5v-0.4c0-0.4,0.1-0.7,0.2-0.9c0.2-0.2,0.4-0.3,0.7-0.3c0.1,0,0.2,0,0.3,0.1l0,0.5
	c-0.1,0-0.2,0-0.3,0c-0.2,0-0.3,0.1-0.4,0.2c-0.1,0.1-0.1,0.3-0.1,0.5V40h0.6v0.5h-0.6v3H184.2z"/>
<path class="st6" d="M189.8,39.3h-1.2v4.2h-0.5v-4.2h-1.2v-0.5h3V39.3z"/>
<path class="st6" d="M191.1,42.6l0.7-2.6h0.5l-1.2,4c-0.2,0.6-0.5,0.9-0.9,0.9l-0.1,0l-0.2,0v-0.5l0.1,0c0.2,0,0.3,0,0.4-0.1
	c0.1-0.1,0.2-0.2,0.2-0.4l0.1-0.4l-1-3.5h0.5L191.1,42.6z"/>
<path class="st6" d="M195.1,41.8c0,0.5-0.1,1-0.3,1.3c-0.2,0.3-0.5,0.5-0.8,0.5c-0.3,0-0.6-0.1-0.8-0.4v1.7h-0.5V40h0.4l0,0.4
	c0.2-0.3,0.5-0.5,0.8-0.5c0.3,0,0.6,0.2,0.8,0.5C195,40.7,195.1,41.2,195.1,41.8L195.1,41.8z M194.6,41.7c0-0.4-0.1-0.7-0.2-0.9
	c-0.1-0.2-0.3-0.3-0.6-0.3c-0.3,0-0.5,0.2-0.7,0.5v1.7c0.1,0.3,0.4,0.5,0.7,0.5c0.2,0,0.4-0.1,0.6-0.3
	C194.6,42.5,194.6,42.2,194.6,41.7z"/>
<path class="st6" d="M196.9,43.6c-0.4,0-0.7-0.2-1-0.5c-0.2-0.3-0.4-0.7-0.4-1.2v-0.1c0-0.3,0.1-0.7,0.2-0.9
	c0.1-0.3,0.3-0.5,0.5-0.6c0.2-0.2,0.4-0.2,0.6-0.2c0.4,0,0.7,0.1,0.9,0.4c0.2,0.3,0.3,0.7,0.3,1.3v0.2h-1.9c0,0.3,0.1,0.6,0.2,0.8
	c0.2,0.2,0.4,0.3,0.6,0.3c0.2,0,0.3,0,0.4-0.1c0.1-0.1,0.2-0.2,0.3-0.3l0.3,0.3C197.8,43.3,197.4,43.6,196.9,43.6z M196.9,40.4
	c-0.2,0-0.4,0.1-0.5,0.3c-0.1,0.2-0.2,0.4-0.2,0.7h1.4v0c0-0.3-0.1-0.5-0.2-0.7C197.3,40.5,197.1,40.4,196.9,40.4z"/>
<path class="st6" d="M202.2,42.3h-1.6l-0.4,1.2h-0.5l1.5-4.7h0.4l1.5,4.7h-0.5L202.2,42.3z M200.7,41.8h1.3l-0.7-2.2L200.7,41.8z"/>
<path class="st6" d="M204,40l0,0.4c0.2-0.3,0.5-0.5,0.9-0.5c0.6,0,0.9,0.4,0.9,1.2v2.3h-0.5v-2.3c0-0.3-0.1-0.4-0.1-0.6
	c-0.1-0.1-0.2-0.2-0.4-0.2c-0.2,0-0.3,0.1-0.4,0.2c-0.1,0.1-0.2,0.2-0.3,0.4v2.5h-0.5V40H204z"/>
<path class="st6" d="M206.4,41.7c0-0.5,0.1-1,0.3-1.3c0.2-0.3,0.5-0.5,0.8-0.5c0.3,0,0.6,0.1,0.8,0.4v-1.8h0.5v5h-0.5l0-0.4
	c-0.2,0.3-0.5,0.4-0.8,0.4c-0.3,0-0.6-0.2-0.8-0.5C206.5,42.7,206.4,42.3,206.4,41.7L206.4,41.7z M206.9,41.8c0,0.4,0.1,0.7,0.2,0.9
	c0.1,0.2,0.3,0.3,0.6,0.3c0.3,0,0.5-0.2,0.7-0.5v-1.6c-0.1-0.3-0.4-0.5-0.7-0.5c-0.2,0-0.4,0.1-0.6,0.3
	C207,41,206.9,41.3,206.9,41.8z"/>
<path class="st6" d="M212.2,41.4c-0.4-0.2-0.8-0.3-1-0.6c-0.2-0.2-0.3-0.5-0.3-0.8c0-0.4,0.1-0.7,0.4-0.9c0.2-0.2,0.6-0.4,0.9-0.4
	c0.3,0,0.5,0.1,0.7,0.2c0.2,0.1,0.4,0.3,0.5,0.5c0.1,0.2,0.2,0.5,0.2,0.7h-0.5c0-0.3-0.1-0.5-0.2-0.7c-0.1-0.2-0.4-0.2-0.6-0.2
	c-0.3,0-0.4,0.1-0.6,0.2c-0.1,0.1-0.2,0.3-0.2,0.6c0,0.2,0.1,0.4,0.2,0.5c0.1,0.1,0.4,0.3,0.7,0.4c0.3,0.1,0.6,0.2,0.8,0.4
	c0.2,0.1,0.3,0.3,0.4,0.5c0.1,0.2,0.1,0.4,0.1,0.6c0,0.4-0.1,0.7-0.4,0.9c-0.2,0.2-0.6,0.3-1,0.3c-0.3,0-0.5-0.1-0.7-0.2
	c-0.2-0.1-0.4-0.3-0.5-0.5c-0.1-0.2-0.2-0.5-0.2-0.7h0.5c0,0.3,0.1,0.5,0.3,0.7c0.2,0.2,0.4,0.2,0.7,0.2c0.3,0,0.5-0.1,0.6-0.2
	c0.1-0.1,0.2-0.3,0.2-0.5c0-0.2-0.1-0.4-0.2-0.5C212.7,41.6,212.5,41.5,212.2,41.4z"/>
<path class="st6" d="M215.3,43.1c0.2,0,0.3-0.1,0.5-0.2c0.1-0.1,0.2-0.3,0.2-0.5h0.5c0,0.2-0.1,0.4-0.2,0.6
	c-0.1,0.2-0.2,0.3-0.4,0.4c-0.2,0.1-0.4,0.2-0.6,0.2c-0.4,0-0.7-0.2-0.9-0.5c-0.2-0.3-0.3-0.8-0.3-1.3v-0.1c0-0.3,0.1-0.6,0.2-0.9
	c0.1-0.3,0.2-0.5,0.4-0.6c0.2-0.1,0.4-0.2,0.7-0.2c0.3,0,0.6,0.1,0.8,0.4c0.2,0.2,0.3,0.5,0.3,0.9H216c0-0.2-0.1-0.4-0.2-0.6
	c-0.1-0.1-0.3-0.2-0.5-0.2c-0.2,0-0.4,0.1-0.6,0.3c-0.1,0.2-0.2,0.5-0.2,0.9v0.1c0,0.4,0.1,0.7,0.2,0.9
	C214.9,43,215.1,43.1,215.3,43.1z"/>
<path class="st6" d="M218.4,40.5c-0.1,0-0.2,0-0.2,0c-0.3,0-0.5,0.2-0.7,0.5v2.5H217V40h0.5l0,0.4c0.2-0.3,0.4-0.5,0.7-0.5
	c0.1,0,0.2,0,0.2,0V40.5z"/>
<path class="st6" d="M220.5,43.5c0-0.1-0.1-0.2-0.1-0.4c-0.2,0.3-0.5,0.4-0.8,0.4c-0.3,0-0.5-0.1-0.7-0.3c-0.2-0.2-0.3-0.4-0.3-0.7
	c0-0.4,0.1-0.6,0.3-0.8c0.2-0.2,0.5-0.3,1-0.3h0.5v-0.3c0-0.2-0.1-0.4-0.2-0.5c-0.1-0.1-0.3-0.2-0.5-0.2c-0.2,0-0.3,0.1-0.4,0.2
	c-0.1,0.1-0.2,0.2-0.2,0.4h-0.5c0-0.2,0-0.3,0.2-0.5c0.1-0.2,0.2-0.3,0.4-0.4c0.2-0.1,0.4-0.1,0.6-0.1c0.3,0,0.6,0.1,0.8,0.3
	c0.2,0.2,0.3,0.5,0.3,0.8v1.6c0,0.3,0,0.6,0.1,0.8v0.1H220.5z M219.7,43c0.2,0,0.3,0,0.4-0.1c0.1-0.1,0.2-0.2,0.3-0.4v-0.7h-0.4
	c-0.6,0-0.9,0.2-0.9,0.6c0,0.2,0.1,0.3,0.2,0.4C219.4,43,219.5,43,219.7,43z"/>
<path class="st6" d="M222.2,40l0,0.4c0.2-0.3,0.5-0.5,0.9-0.5c0.4,0,0.7,0.2,0.8,0.6c0.1-0.2,0.2-0.3,0.4-0.4
	c0.2-0.1,0.3-0.2,0.5-0.2c0.6,0,0.9,0.4,1,1.2v2.3h-0.5v-2.3c0-0.2,0-0.4-0.1-0.6c-0.1-0.1-0.3-0.2-0.5-0.2c-0.2,0-0.3,0.1-0.5,0.2
	c-0.1,0.1-0.2,0.3-0.2,0.5v2.3h-0.5v-2.3c0-0.5-0.2-0.8-0.6-0.8c-0.3,0-0.5,0.2-0.7,0.5v2.5h-0.5V40H222.2z"/>
<path class="st6" d="M228.9,41.8c0,0.5-0.1,1-0.3,1.3c-0.2,0.3-0.5,0.5-0.8,0.5c-0.4,0-0.6-0.2-0.8-0.5l0,0.4h-0.5v-5h0.5v1.8
	c0.2-0.3,0.5-0.4,0.8-0.4c0.3,0,0.6,0.2,0.8,0.5C228.8,40.7,228.9,41.2,228.9,41.8L228.9,41.8z M228.4,41.7c0-0.4-0.1-0.7-0.2-0.9
	c-0.1-0.2-0.3-0.3-0.6-0.3c-0.3,0-0.6,0.2-0.7,0.5v1.5c0.1,0.4,0.4,0.5,0.7,0.5c0.2,0,0.4-0.1,0.5-0.3
	C228.3,42.5,228.4,42.2,228.4,41.7z"/>
<path class="st6" d="M230.1,43.5h-0.5v-5h0.5V43.5z"/>
<path class="st6" d="M232,43.6c-0.4,0-0.7-0.2-0.9-0.5c-0.2-0.3-0.4-0.7-0.4-1.2v-0.1c0-0.3,0.1-0.7,0.2-0.9
	c0.1-0.3,0.3-0.5,0.5-0.6c0.2-0.2,0.4-0.2,0.6-0.2c0.4,0,0.7,0.1,0.9,0.4c0.2,0.3,0.3,0.7,0.3,1.3v0.2h-1.9c0,0.3,0.1,0.6,0.2,0.8
	c0.2,0.2,0.4,0.3,0.6,0.3c0.2,0,0.3,0,0.4-0.1c0.1-0.1,0.2-0.2,0.3-0.3l0.3,0.3C232.9,43.3,232.5,43.6,232,43.6z M232,40.4
	c-0.2,0-0.4,0.1-0.5,0.3c-0.1,0.2-0.2,0.4-0.2,0.7h1.4v0c0-0.3-0.1-0.5-0.2-0.7C232.3,40.5,232.2,40.4,232,40.4z"/>
<path class="st6" d="M233.6,41.7c0-0.5,0.1-1,0.3-1.3c0.2-0.3,0.5-0.5,0.8-0.5c0.3,0,0.6,0.1,0.8,0.4v-1.8h0.5v5h-0.5l0-0.4
	c-0.2,0.3-0.5,0.4-0.8,0.4c-0.3,0-0.6-0.2-0.8-0.5C233.7,42.7,233.6,42.3,233.6,41.7L233.6,41.7z M234.1,41.8c0,0.4,0.1,0.7,0.2,0.9
	c0.1,0.2,0.3,0.3,0.6,0.3c0.3,0,0.5-0.2,0.7-0.5v-1.6c-0.1-0.3-0.4-0.5-0.7-0.5c-0.2,0-0.4,0.1-0.6,0.3
	C234.2,41,234.1,41.3,234.1,41.8z"/>
</svg>
