<?xml version="1.0" encoding="utf-8"?>
<!-- Generator: Adobe Illustrator 25.2.1, SVG Export Plug-In . SVG Version: 6.00 Build 0)  -->
<svg version="1.1" id="Layer_1" xmlns="http://www.w3.org/2000/svg" xmlns:xlink="http://www.w3.org/1999/xlink" x="0px" y="0px"
	 viewBox="0 0 320 160" style="enable-background:new 0 0 320 160;" xml:space="preserve">
<style type="text/css">
	.st0{fill:#F8F8F8;}
	.st1{fill:#FFFFFF;}
	.st2{fill:#8D8D8D;}
	.st3{fill:#646464;}
	.st4{fill:#444444;}
	.st5{fill:url(#SVGID_1_);}
	.st6{fill-rule:evenodd;clip-rule:evenodd;fill:#D9D9D9;}
	.st7{fill:#767676;}
	.st8{fill-rule:evenodd;clip-rule:evenodd;fill:#B3B3B3;}
</style>
<rect class="st0" width="320" height="160"/>
<path class="st1" d="M164.1,50.2H310v91.5H164.1V50.2z"/>
<path class="st2" d="M181.1,89.1h1.8v-0.3h-1.3c0.5-0.4,1.2-0.9,1.2-1.6c0-0.5-0.3-0.8-0.8-0.8c-0.5,0-0.8,0.3-0.9,0.9h0.3
	c0-0.3,0.2-0.6,0.5-0.6c0.4,0,0.5,0.2,0.5,0.5c0,0.5-0.7,1.1-1.4,1.6V89.1z"/>
<path class="st2" d="M183.2,87.1h0.3c0-0.3,0.2-0.4,0.5-0.4c0.3,0,0.5,0.2,0.5,0.4c0,0.3-0.2,0.4-0.7,0.4h-0.1v0.3h0.1
	c0.5,0,0.7,0.1,0.7,0.5c0,0.3-0.2,0.5-0.5,0.5c-0.4,0-0.6-0.2-0.6-0.5h-0.3c0,0.5,0.4,0.8,0.9,0.8c0.6,0,0.8-0.3,0.8-0.7
	c0-0.4-0.2-0.6-0.5-0.7v0c0.3-0.1,0.5-0.3,0.5-0.6c0-0.4-0.3-0.7-0.8-0.7C183.6,86.4,183.3,86.7,183.2,87.1z"/>
<path class="st2" d="M188.2,89.1h0.4l-0.9-2.6h-0.4l-0.9,2.6h0.4l0.2-0.6h1.1L188.2,89.1z M187.9,88.3h-0.9l0.5-1.3L187.9,88.3z"/>
<path class="st2" d="M190.7,87.1h-0.3v1.1c0,0.4-0.2,0.6-0.6,0.6c-0.3,0-0.6-0.2-0.6-0.6v-1.1h-0.3v1.2c0,0.6,0.4,0.9,0.8,0.9
	c0.3,0,0.5-0.1,0.6-0.3v0.3h0.3V87.1z"/>
<path class="st2" d="M191.2,88.1c0,0.6,0.4,1,1,1c0.4,0,0.6-0.2,0.8-0.4v0.4c0,0.4-0.3,0.7-0.6,0.7c-0.3,0-0.6-0.2-0.6-0.4h-0.3
	c0.1,0.4,0.4,0.7,1,0.7c0.6,0,1-0.4,1-0.9v-2.1h-0.3v0.4c-0.1-0.2-0.4-0.4-0.8-0.4C191.6,87.1,191.2,87.5,191.2,88.1z M192.9,88.1
	c0,0.5-0.3,0.8-0.7,0.8s-0.7-0.3-0.7-0.8c0-0.5,0.3-0.7,0.7-0.7S192.9,87.6,192.9,88.1z"/>
<path class="st2" d="M193.5,89.6h0.2l0.4-1h-0.4L193.5,89.6z"/>
<path class="st2" d="M195.4,89.1h1.8v-0.3h-1.3c0.5-0.4,1.2-0.9,1.2-1.6c0-0.5-0.3-0.8-0.8-0.8c-0.5,0-0.8,0.3-0.9,0.9h0.3
	c0-0.3,0.2-0.6,0.5-0.6c0.4,0,0.5,0.2,0.5,0.5c0,0.5-0.7,1.1-1.4,1.6V89.1z"/>
<path class="st2" d="M197.5,87.8c0,0.8,0.2,1.4,0.9,1.4c0.7,0,0.9-0.6,0.9-1.4c0-0.8-0.2-1.3-0.9-1.3
	C197.7,86.4,197.5,87,197.5,87.8z M199.1,87.8c0,0.6-0.1,1.1-0.6,1.1c-0.5,0-0.6-0.5-0.6-1.1c0-0.6,0.1-1,0.6-1
	C199,86.7,199.1,87.2,199.1,87.8z"/>
<path class="st2" d="M199.8,89.1h1.8v-0.3h-1.3c0.5-0.4,1.2-0.9,1.2-1.6c0-0.5-0.3-0.8-0.8-0.8c-0.5,0-0.8,0.3-0.9,0.9h0.3
	c0-0.3,0.2-0.6,0.5-0.6c0.4,0,0.5,0.2,0.5,0.5c0,0.5-0.7,1.1-1.4,1.6V89.1z"/>
<path class="st2" d="M202.2,89.1h0.3v-2.7h-0.7v0.3h0.4V89.1z"/>
<path class="st3" d="M177.5,86.1h0.8c0.1,0,0.1,0,0.1,0.1c0,0,0.1,0.1,0.1,0.1v3.4c0,0.1,0,0.1-0.1,0.1c0,0-0.1,0.1-0.1,0.1h-3.8
	c-0.1,0-0.1,0-0.1-0.1c0,0-0.1-0.1-0.1-0.1v-3.4c0-0.1,0-0.1,0.1-0.1c0,0,0.1-0.1,0.1-0.1h0.8v-0.4h0.4v0.4h1.3v-0.4h0.4V86.1z
	 M177.1,86.6h-1.3V87h-0.4v-0.4h-0.6v0.8h3.4v-0.8h-0.6V87h-0.4V86.6z M178.1,87.8h-3.4v1.7h3.4V87.8z"/>
<path class="st2" d="M216,88.2c0,0.3-0.2,0.4-0.5,0.4h-0.6v-0.9h0.6C215.8,87.8,216,88,216,88.2z M216,87.1c0,0.3-0.2,0.4-0.5,0.4
	h-0.6v-0.8h0.6C215.8,86.7,216,86.8,216,87.1z M216.4,88.3c0-0.3-0.2-0.6-0.5-0.6c0.2-0.1,0.4-0.3,0.4-0.6c0-0.4-0.3-0.7-0.8-0.7
	h-0.9V89h1C216.1,89,216.4,88.7,216.4,88.3z"/>
<path class="st2" d="M217.6,88.6L217,87h-0.4l0.8,2l-0.4,1h0.3l1.2-3h-0.3L217.6,88.6z"/>
<path class="st2" d="M221.6,89h0.4l-0.9-2.6h-0.4l-0.9,2.6h0.4l0.2-0.6h1.1L221.6,89z M221.3,88.1h-0.9l0.5-1.3L221.3,88.1z"/>
<path class="st2" d="M222.2,88c0,0.6,0.4,1,1,1c0.4,0,0.6-0.2,0.8-0.4V89h0.3v-2.7H224v1.1c-0.1-0.2-0.4-0.4-0.7-0.4
	C222.7,86.9,222.2,87.3,222.2,88z M224,88c0,0.5-0.3,0.8-0.7,0.8s-0.7-0.3-0.7-0.8c0-0.5,0.3-0.7,0.7-0.7S224,87.5,224,88z"/>
<path class="st2" d="M227.8,89h0.3v-1.2c0-0.6-0.4-0.9-0.8-0.9c-0.3,0-0.6,0.2-0.7,0.4c-0.1-0.3-0.4-0.4-0.7-0.4
	c-0.3,0-0.5,0.1-0.6,0.3V87h-0.3v2h0.3v-1.1c0-0.4,0.2-0.7,0.6-0.7c0.3,0,0.6,0.2,0.6,0.6V89h0.3v-1.1c0-0.4,0.2-0.7,0.6-0.7
	c0.3,0,0.6,0.2,0.6,0.6V89z"/>
<path class="st2" d="M228.7,89h0.3v-2h-0.3V89z M228.8,86.6c0.1,0,0.2-0.1,0.2-0.2c0-0.1-0.1-0.2-0.2-0.2c-0.1,0-0.2,0.1-0.2,0.2
	C228.6,86.5,228.7,86.6,228.8,86.6z"/>
<path class="st2" d="M231,89h0.3v-1.2c0-0.6-0.4-0.9-0.8-0.9c-0.3,0-0.5,0.1-0.6,0.3V87h-0.3v2h0.3v-1.1c0-0.4,0.2-0.6,0.6-0.6
	c0.3,0,0.6,0.2,0.6,0.6V89z"/>
<path class="st3" d="M211.9,89.5h-0.4v-0.4c0-0.2-0.1-0.3-0.2-0.4c-0.1-0.1-0.3-0.2-0.5-0.2h-1.3c-0.2,0-0.3,0.1-0.5,0.2
	c-0.1,0.1-0.2,0.3-0.2,0.4v0.4h-0.4v-0.4c0-0.3,0.1-0.5,0.3-0.7c0.2-0.2,0.5-0.3,0.8-0.3h1.3c0.3,0,0.6,0.1,0.8,0.3
	c0.2,0.2,0.3,0.4,0.3,0.7V89.5z M210.2,87.7c-0.2,0-0.3,0-0.5-0.1c-0.2-0.1-0.3-0.1-0.4-0.3c-0.1-0.1-0.2-0.2-0.3-0.4
	c-0.1-0.1-0.1-0.3-0.1-0.5c0-0.2,0-0.3,0.1-0.5c0.1-0.1,0.2-0.3,0.3-0.4c0.1-0.1,0.3-0.2,0.4-0.3c0.2-0.1,0.3-0.1,0.5-0.1
	c0.3,0,0.7,0.1,0.9,0.4c0.2,0.2,0.4,0.5,0.4,0.9c0,0.3-0.1,0.6-0.4,0.9C210.9,87.6,210.6,87.7,210.2,87.7L210.2,87.7z M210.2,87.3
	c0.2,0,0.4-0.1,0.6-0.2c0.2-0.2,0.2-0.4,0.2-0.6c0-0.2-0.1-0.4-0.2-0.6c-0.2-0.2-0.4-0.2-0.6-0.2c-0.2,0-0.4,0.1-0.6,0.2
	c-0.2,0.2-0.2,0.4-0.2,0.6c0,0.2,0.1,0.4,0.2,0.6C209.8,87.2,210,87.3,210.2,87.3L210.2,87.3z"/>
<path class="st2" d="M243.9,89.2h1.8v-0.3h-1.3c0.5-0.4,1.2-0.9,1.2-1.6c0-0.5-0.3-0.8-0.8-0.8c-0.5,0-0.8,0.3-0.9,0.9h0.3
	c0-0.3,0.2-0.6,0.5-0.6c0.4,0,0.5,0.2,0.5,0.5c0,0.5-0.7,1.1-1.4,1.6V89.2z"/>
<path class="st2" d="M247,87.9c0,0.8,0.6,1.3,1.3,1.3c0.6,0,1-0.3,1.2-0.8h-0.4c-0.1,0.3-0.4,0.5-0.8,0.5c-0.5,0-0.9-0.4-0.9-1
	c0-0.6,0.4-1,0.9-1c0.4,0,0.6,0.2,0.8,0.5h0.4c-0.2-0.5-0.6-0.8-1.2-0.8C247.6,86.6,247,87.2,247,87.9z"/>
<path class="st2" d="M251.9,88.2c0-0.6-0.4-1-1-1c-0.6,0-1,0.4-1,1c0,0.6,0.4,1,1,1C251.4,89.3,251.9,88.9,251.9,88.2z M250.2,88.2
	c0-0.5,0.3-0.7,0.7-0.7c0.3,0,0.7,0.2,0.7,0.7c0,0.5-0.3,0.8-0.7,0.8C250.5,89,250.2,88.7,250.2,88.2z"/>
<path class="st2" d="M255.2,89.2h0.3V88c0-0.6-0.4-0.9-0.8-0.9c-0.3,0-0.6,0.2-0.7,0.4c-0.1-0.3-0.4-0.4-0.7-0.4
	c-0.3,0-0.5,0.1-0.6,0.3v-0.3h-0.3v2h0.3v-1.1c0-0.4,0.2-0.7,0.6-0.7c0.3,0,0.6,0.2,0.6,0.6v1.1h0.3v-1.1c0-0.4,0.2-0.7,0.6-0.7
	c0.3,0,0.6,0.2,0.6,0.6V89.2z"/>
<path class="st2" d="M259,89.2h0.3V88c0-0.6-0.4-0.9-0.8-0.9c-0.3,0-0.6,0.2-0.7,0.4c-0.1-0.3-0.4-0.4-0.7-0.4
	c-0.3,0-0.5,0.1-0.6,0.3v-0.3h-0.3v2h0.3v-1.1c0-0.4,0.2-0.7,0.6-0.7c0.3,0,0.6,0.2,0.6,0.6v1.1h0.3v-1.1c0-0.4,0.2-0.7,0.6-0.7
	c0.3,0,0.6,0.2,0.6,0.6V89.2z"/>
<path class="st2" d="M260.8,87.5c0.3,0,0.6,0.2,0.6,0.6h-1.3C260.2,87.7,260.4,87.5,260.8,87.5z M261.7,88.6h-0.4
	c-0.1,0.2-0.3,0.4-0.6,0.4c-0.3,0-0.6-0.2-0.7-0.6h1.6c0-0.1,0-0.1,0-0.2c0-0.6-0.4-1-1-1c-0.6,0-1,0.4-1,1c0,0.6,0.4,1,1,1
	C261.3,89.3,261.6,89,261.7,88.6z"/>
<path class="st2" d="M263.7,89.2h0.3V88c0-0.6-0.4-0.9-0.8-0.9c-0.3,0-0.5,0.1-0.6,0.3v-0.3h-0.3v2h0.3v-1.1c0-0.4,0.2-0.6,0.6-0.6
	c0.3,0,0.6,0.2,0.6,0.6V89.2z"/>
<path class="st2" d="M264.6,88.7c0,0.4,0.2,0.6,0.6,0.6h0.3v-0.3h-0.2c-0.2,0-0.3-0.1-0.3-0.3v-1.2h0.5v-0.3H265v-0.5h-0.3v0.5h-0.3
	v0.3h0.3V88.7z"/>
<path class="st2" d="M267.3,88.7c0-0.7-1.2-0.5-1.2-0.9c0-0.2,0.1-0.3,0.4-0.3c0.3,0,0.4,0.1,0.4,0.3h0.3c0-0.4-0.3-0.6-0.8-0.6
	c-0.4,0-0.7,0.3-0.7,0.6c0,0.8,1.2,0.5,1.2,0.9c0,0.2-0.1,0.3-0.4,0.3c-0.3,0-0.5-0.1-0.5-0.3h-0.3c0,0.4,0.4,0.6,0.8,0.6
	C267,89.3,267.3,89,267.3,88.7z"/>
<path class="st3" d="M239.1,89.4l-1.1,0.2l0.2-1c-0.2-0.3-0.2-0.6-0.2-0.9c0-1.1,0.9-2,2.1-2c1.2,0,2.1,0.9,2.1,2c0,1.1-0.9,2-2.1,2
	C239.7,89.6,239.4,89.5,239.1,89.4L239.1,89.4z M239.1,89l0.1,0.1c0.2,0.1,0.5,0.2,0.8,0.2c0.3,0,0.7-0.1,0.9-0.3
	c0.3-0.2,0.5-0.4,0.6-0.7c0.1-0.3,0.2-0.6,0.1-0.9c-0.1-0.3-0.2-0.6-0.5-0.8c-0.2-0.2-0.5-0.4-0.9-0.4c-0.3-0.1-0.7,0-1,0.1
	c-0.3,0.1-0.6,0.3-0.8,0.6c-0.2,0.3-0.3,0.6-0.3,0.9c0,0.3,0.1,0.5,0.2,0.7l0.1,0.1l-0.1,0.6L239.1,89L239.1,89z"/>
<path class="st4" d="M174.5,100.1h1.4v0.3h-1.8v-3h0.4V100.1z"/>
<path class="st4" d="M176.3,99.3c0-0.2,0-0.4,0.1-0.6c0.1-0.2,0.2-0.3,0.4-0.4c0.2-0.1,0.3-0.1,0.5-0.1c0.3,0,0.5,0.1,0.7,0.3
	c0.2,0.2,0.3,0.5,0.3,0.8v0c0,0.2,0,0.4-0.1,0.6c-0.1,0.2-0.2,0.3-0.4,0.4c-0.2,0.1-0.3,0.1-0.5,0.1c-0.3,0-0.5-0.1-0.7-0.3
	C176.3,99.9,176.3,99.7,176.3,99.3L176.3,99.3z M176.6,99.3c0,0.2,0.1,0.4,0.2,0.6c0.1,0.1,0.3,0.2,0.5,0.2c0.2,0,0.3-0.1,0.5-0.2
	c0.1-0.2,0.2-0.4,0.2-0.6c0-0.2-0.1-0.4-0.2-0.6c-0.1-0.2-0.3-0.2-0.5-0.2c-0.2,0-0.3,0.1-0.5,0.2C176.7,98.9,176.6,99.1,176.6,99.3
	z"/>
<path class="st4" d="M179.8,98.5c-0.1,0-0.1,0-0.2,0c-0.2,0-0.4,0.1-0.5,0.3v1.6h-0.4v-2.2h0.4l0,0.3c0.1-0.2,0.3-0.3,0.5-0.3
	c0.1,0,0.1,0,0.2,0V98.5z"/>
<path class="st4" d="M181.1,100.5c-0.3,0-0.5-0.1-0.7-0.3c-0.2-0.2-0.3-0.5-0.3-0.8v-0.1c0-0.2,0-0.4,0.1-0.6
	c0.1-0.2,0.2-0.3,0.4-0.4c0.2-0.1,0.3-0.1,0.5-0.1c0.3,0,0.5,0.1,0.7,0.3c0.2,0.2,0.2,0.5,0.2,0.8v0.2h-1.5c0,0.2,0.1,0.4,0.2,0.5
	c0.1,0.1,0.3,0.2,0.5,0.2c0.1,0,0.2,0,0.3-0.1c0.1-0.1,0.2-0.1,0.2-0.2l0.2,0.2C181.7,100.3,181.4,100.5,181.1,100.5z M181,98.5
	c-0.2,0-0.3,0.1-0.4,0.2c-0.1,0.1-0.2,0.3-0.2,0.5h1.1v0c0-0.2-0.1-0.3-0.2-0.4C181.3,98.5,181.2,98.5,181,98.5z"/>
<path class="st4" d="M182.7,98.2l0,0.2c0.2-0.2,0.4-0.3,0.7-0.3c0.3,0,0.5,0.1,0.6,0.4c0.1-0.1,0.2-0.2,0.3-0.3
	c0.1-0.1,0.3-0.1,0.4-0.1c0.5,0,0.7,0.3,0.7,0.8v1.5h-0.4V99c0-0.2,0-0.3-0.1-0.4c-0.1-0.1-0.2-0.1-0.4-0.1c-0.1,0-0.3,0-0.4,0.1
	c-0.1,0.1-0.1,0.2-0.2,0.3v1.5h-0.4V99c0-0.3-0.2-0.5-0.5-0.5c-0.2,0-0.4,0.1-0.5,0.3v1.6h-0.4v-2.2H182.7z"/>
<path class="st4" d="M187.6,100.4h-0.4v-3h0.4V100.4z"/>
<path class="st4" d="M190.1,99.3c0,0.3-0.1,0.6-0.2,0.8c-0.2,0.2-0.4,0.3-0.6,0.3c-0.3,0-0.5-0.1-0.6-0.3v1.1h-0.4v-3.1h0.3l0,0.2
	c0.2-0.2,0.4-0.3,0.6-0.3c0.3,0,0.5,0.1,0.6,0.3C190,98.7,190.1,98.9,190.1,99.3L190.1,99.3z M189.7,99.3c0-0.3-0.1-0.4-0.2-0.6
	c-0.1-0.1-0.3-0.2-0.4-0.2c-0.2,0-0.4,0.1-0.5,0.3v1.1c0.1,0.2,0.3,0.3,0.5,0.3c0.2,0,0.3-0.1,0.4-0.2
	C189.7,99.8,189.7,99.6,189.7,99.3z"/>
<path class="st4" d="M191.9,99.8c0-0.1,0-0.2-0.1-0.2c-0.1-0.1-0.2-0.1-0.4-0.1c-0.2,0-0.3-0.1-0.5-0.1c-0.1-0.1-0.2-0.1-0.3-0.2
	c-0.1-0.1-0.1-0.2-0.1-0.3c0-0.2,0.1-0.3,0.2-0.5c0.2-0.1,0.4-0.2,0.6-0.2c0.3,0,0.5,0.1,0.6,0.2c0.2,0.1,0.2,0.3,0.2,0.5h-0.4
	c0-0.1,0-0.2-0.1-0.3c-0.1-0.1-0.2-0.1-0.3-0.1c-0.1,0-0.2,0-0.3,0.1c-0.1,0.1-0.1,0.1-0.1,0.2c0,0.1,0,0.2,0.1,0.2
	c0.1,0,0.2,0.1,0.4,0.1c0.2,0,0.3,0.1,0.5,0.2c0.1,0.1,0.2,0.1,0.3,0.2c0.1,0.1,0.1,0.2,0.1,0.3c0,0.2-0.1,0.4-0.2,0.5
	c-0.2,0.1-0.4,0.2-0.6,0.2c-0.2,0-0.3,0-0.5-0.1c-0.1-0.1-0.2-0.2-0.3-0.3c-0.1-0.1-0.1-0.2-0.1-0.4h0.4c0,0.1,0.1,0.2,0.2,0.3
	c0.1,0.1,0.2,0.1,0.4,0.1c0.1,0,0.3,0,0.3-0.1C191.9,100,191.9,99.9,191.9,99.8z"/>
<path class="st4" d="M194.2,100.2c-0.1,0.2-0.4,0.3-0.7,0.3c-0.2,0-0.4-0.1-0.5-0.2c-0.1-0.1-0.2-0.3-0.2-0.6v-1.4h0.4v1.4
	c0,0.3,0.1,0.5,0.4,0.5c0.3,0,0.5-0.1,0.6-0.3v-1.6h0.4v2.2h-0.4L194.2,100.2z"/>
<path class="st4" d="M195.5,98.2l0,0.2c0.2-0.2,0.4-0.3,0.7-0.3c0.3,0,0.5,0.1,0.6,0.4c0.1-0.1,0.2-0.2,0.3-0.3
	c0.1-0.1,0.3-0.1,0.4-0.1c0.5,0,0.7,0.3,0.7,0.8v1.5h-0.4V99c0-0.2,0-0.3-0.1-0.4c-0.1-0.1-0.2-0.1-0.4-0.1c-0.1,0-0.3,0-0.4,0.1
	c-0.1,0.1-0.1,0.2-0.2,0.3v1.5h-0.4V99c0-0.3-0.2-0.5-0.5-0.5c-0.2,0-0.4,0.1-0.5,0.3v1.6h-0.4v-2.2H195.5z"/>
<path class="st4" d="M199.9,100.4v-3h0.8c0.3,0,0.5,0.1,0.7,0.2c0.2,0.1,0.4,0.3,0.5,0.5c0.1,0.2,0.2,0.5,0.2,0.7V99
	c0,0.3-0.1,0.5-0.2,0.7c-0.1,0.2-0.3,0.4-0.5,0.5c-0.2,0.1-0.4,0.2-0.7,0.2H199.9z M200.3,97.8v2.3h0.4c0.3,0,0.5-0.1,0.7-0.3
	c0.2-0.2,0.3-0.5,0.3-0.8v-0.2c0-0.3-0.1-0.6-0.2-0.8c-0.2-0.2-0.4-0.3-0.7-0.3H200.3z"/>
<path class="st4" d="M202.5,99.3c0-0.2,0-0.4,0.1-0.6c0.1-0.2,0.2-0.3,0.4-0.4c0.2-0.1,0.3-0.1,0.5-0.1c0.3,0,0.5,0.1,0.7,0.3
	c0.2,0.2,0.3,0.5,0.3,0.8v0c0,0.2,0,0.4-0.1,0.6c-0.1,0.2-0.2,0.3-0.4,0.4c-0.2,0.1-0.3,0.1-0.5,0.1c-0.3,0-0.5-0.1-0.7-0.3
	C202.6,99.9,202.5,99.7,202.5,99.3L202.5,99.3z M202.9,99.3c0,0.2,0.1,0.4,0.2,0.6c0.1,0.1,0.3,0.2,0.5,0.2c0.2,0,0.3-0.1,0.5-0.2
	c0.1-0.2,0.2-0.4,0.2-0.6c0-0.2-0.1-0.4-0.2-0.6c-0.1-0.2-0.3-0.2-0.5-0.2c-0.2,0-0.3,0.1-0.5,0.2C202.9,98.9,202.9,99.1,202.9,99.3
	z"/>
<path class="st4" d="M205.4,100.4H205v-3.2h0.4V100.4z"/>
<path class="st4" d="M205.9,99.3c0-0.2,0-0.4,0.1-0.6c0.1-0.2,0.2-0.3,0.4-0.4c0.2-0.1,0.3-0.1,0.5-0.1c0.3,0,0.5,0.1,0.7,0.3
	c0.2,0.2,0.3,0.5,0.3,0.8v0c0,0.2,0,0.4-0.1,0.6c-0.1,0.2-0.2,0.3-0.4,0.4c-0.2,0.1-0.3,0.1-0.5,0.1c-0.3,0-0.5-0.1-0.7-0.3
	C206,99.9,205.9,99.7,205.9,99.3L205.9,99.3z M206.3,99.3c0,0.2,0.1,0.4,0.2,0.6c0.1,0.1,0.3,0.2,0.5,0.2c0.2,0,0.3-0.1,0.5-0.2
	c0.1-0.2,0.2-0.4,0.2-0.6c0-0.2-0.1-0.4-0.2-0.6c-0.1-0.2-0.3-0.2-0.5-0.2c-0.2,0-0.3,0.1-0.5,0.2C206.4,98.9,206.3,99.1,206.3,99.3
	z"/>
<path class="st4" d="M209.5,98.5c-0.1,0-0.1,0-0.2,0c-0.2,0-0.4,0.1-0.5,0.3v1.6h-0.4v-2.2h0.4l0,0.3c0.1-0.2,0.3-0.3,0.5-0.3
	c0.1,0,0.1,0,0.2,0V98.5z"/>
<path class="st4" d="M211.8,99.1c-0.3-0.1-0.6-0.2-0.7-0.4c-0.2-0.1-0.2-0.3-0.2-0.5c0-0.2,0.1-0.4,0.3-0.6c0.2-0.2,0.4-0.2,0.7-0.2
	c0.2,0,0.4,0,0.5,0.1c0.2,0.1,0.3,0.2,0.4,0.3c0.1,0.1,0.1,0.3,0.1,0.5h-0.4c0-0.2-0.1-0.3-0.2-0.4c-0.1-0.1-0.3-0.2-0.5-0.2
	c-0.2,0-0.3,0-0.5,0.1c-0.1,0.1-0.2,0.2-0.2,0.4c0,0.1,0.1,0.2,0.2,0.3c0.1,0.1,0.3,0.2,0.5,0.2c0.2,0.1,0.4,0.1,0.6,0.2
	c0.1,0.1,0.2,0.2,0.3,0.3c0.1,0.1,0.1,0.2,0.1,0.4c0,0.2-0.1,0.4-0.3,0.6c-0.2,0.1-0.4,0.2-0.8,0.2c-0.2,0-0.4,0-0.6-0.1
	c-0.2-0.1-0.3-0.2-0.4-0.3c-0.1-0.1-0.1-0.3-0.1-0.5h0.4c0,0.2,0.1,0.3,0.2,0.4c0.1,0.1,0.3,0.2,0.5,0.2c0.2,0,0.4,0,0.5-0.1
	c0.1-0.1,0.2-0.2,0.2-0.3c0-0.1-0.1-0.3-0.2-0.3C212.3,99.3,212.1,99.2,211.8,99.1z"/>
<path class="st4" d="M213.8,100.4h-0.4v-2.2h0.4V100.4z M213.4,97.6c0-0.1,0-0.1,0.1-0.2c0,0,0.1-0.1,0.2-0.1c0.1,0,0.1,0,0.2,0.1
	c0,0,0.1,0.1,0.1,0.2s0,0.1-0.1,0.2c0,0-0.1,0.1-0.2,0.1c-0.1,0-0.1,0-0.2-0.1C213.4,97.7,213.4,97.7,213.4,97.6z"/>
<path class="st4" d="M214.9,97.7v0.5h0.4v0.3h-0.4v1.4c0,0.1,0,0.2,0.1,0.2c0,0,0.1,0.1,0.2,0.1c0,0,0.1,0,0.2,0v0.3
	c-0.1,0-0.2,0-0.3,0c-0.2,0-0.3-0.1-0.4-0.2c-0.1-0.1-0.1-0.2-0.1-0.4v-1.4h-0.4v-0.3h0.4v-0.5H214.9z"/>
<path class="st4" d="M218.5,99.6h-1.3l-0.3,0.8h-0.4l1.1-3h0.3l1.1,3h-0.4L218.5,99.6z M217.4,99.3h1l-0.5-1.4L217.4,99.3z"/>
<path class="st4" d="M219.9,98.2l0,0.2c0.2-0.2,0.4-0.3,0.7-0.3c0.3,0,0.5,0.1,0.6,0.4c0.1-0.1,0.2-0.2,0.3-0.3
	c0.1-0.1,0.3-0.1,0.4-0.1c0.5,0,0.7,0.3,0.7,0.8v1.5h-0.4V99c0-0.2,0-0.3-0.1-0.4c-0.1-0.1-0.2-0.1-0.4-0.1c-0.1,0-0.3,0-0.4,0.1
	c-0.1,0.1-0.1,0.2-0.2,0.3v1.5h-0.4V99c0-0.3-0.2-0.5-0.5-0.5c-0.2,0-0.4,0.1-0.5,0.3v1.6h-0.4v-2.2H219.9z"/>
<path class="st4" d="M224.2,100.5c-0.3,0-0.5-0.1-0.7-0.3c-0.2-0.2-0.3-0.5-0.3-0.8v-0.1c0-0.2,0-0.4,0.1-0.6
	c0.1-0.2,0.2-0.3,0.4-0.4c0.2-0.1,0.3-0.1,0.5-0.1c0.3,0,0.5,0.1,0.7,0.3c0.2,0.2,0.2,0.5,0.2,0.8v0.2h-1.5c0,0.2,0.1,0.4,0.2,0.5
	c0.1,0.1,0.3,0.2,0.5,0.2c0.1,0,0.2,0,0.3-0.1c0.1-0.1,0.2-0.1,0.2-0.2l0.2,0.2C224.8,100.3,224.6,100.5,224.2,100.5z M224.1,98.5
	c-0.2,0-0.3,0.1-0.4,0.2c-0.1,0.1-0.2,0.3-0.2,0.5h1.1v0c0-0.2-0.1-0.3-0.2-0.4C224.4,98.5,224.3,98.5,224.1,98.5z"/>
<path class="st4" d="M226,97.7v0.5h0.4v0.3H226v1.4c0,0.1,0,0.2,0.1,0.2c0,0,0.1,0.1,0.2,0.1c0,0,0.1,0,0.2,0v0.3
	c-0.1,0-0.2,0-0.3,0c-0.2,0-0.3-0.1-0.4-0.2c-0.1-0.1-0.1-0.2-0.1-0.4v-1.4h-0.4v-0.3h0.4v-0.5H226z"/>
<path class="st4" d="M226.9,101l-0.2-0.1c0.1-0.2,0.2-0.4,0.2-0.6V100h0.4v0.3c0,0.1,0,0.3-0.1,0.4C227,100.8,227,100.9,226.9,101z"
	/>
<path class="st4" d="M231,99.5c0,0.3-0.2,0.6-0.4,0.7c-0.2,0.2-0.5,0.3-0.8,0.3c-0.4,0-0.6-0.1-0.9-0.4c-0.2-0.3-0.3-0.6-0.3-1v-0.3
	c0-0.3,0-0.5,0.1-0.7c0.1-0.2,0.2-0.4,0.4-0.5c0.2-0.1,0.4-0.2,0.6-0.2c0.3,0,0.6,0.1,0.8,0.3c0.2,0.2,0.3,0.4,0.3,0.7h-0.4
	c0-0.2-0.1-0.4-0.2-0.5c-0.1-0.1-0.3-0.2-0.5-0.2c-0.3,0-0.4,0.1-0.6,0.3c-0.1,0.2-0.2,0.5-0.2,0.8v0.3c0,0.3,0.1,0.6,0.2,0.8
	c0.1,0.2,0.3,0.3,0.6,0.3c0.2,0,0.4,0,0.5-0.1c0.1-0.1,0.2-0.3,0.2-0.5H231z"/>
<path class="st4" d="M231.4,99.3c0-0.2,0-0.4,0.1-0.6c0.1-0.2,0.2-0.3,0.4-0.4c0.2-0.1,0.3-0.1,0.5-0.1c0.3,0,0.5,0.1,0.7,0.3
	c0.2,0.2,0.3,0.5,0.3,0.8v0c0,0.2,0,0.4-0.1,0.6c-0.1,0.2-0.2,0.3-0.4,0.4c-0.2,0.1-0.3,0.1-0.5,0.1c-0.3,0-0.5-0.1-0.7-0.3
	C231.5,99.9,231.4,99.7,231.4,99.3L231.4,99.3z M231.8,99.3c0,0.2,0.1,0.4,0.2,0.6c0.1,0.1,0.3,0.2,0.5,0.2c0.2,0,0.3-0.1,0.5-0.2
	c0.1-0.2,0.2-0.4,0.2-0.6c0-0.2-0.1-0.4-0.2-0.6c-0.1-0.2-0.3-0.2-0.5-0.2c-0.2,0-0.3,0.1-0.5,0.2C231.8,98.9,231.8,99.1,231.8,99.3
	z"/>
<path class="st4" d="M234.2,98.2l0,0.3c0.2-0.2,0.4-0.3,0.7-0.3c0.5,0,0.7,0.3,0.7,0.8v1.5h-0.4V99c0-0.2,0-0.3-0.1-0.4
	c-0.1-0.1-0.2-0.1-0.3-0.1c-0.1,0-0.2,0-0.3,0.1c-0.1,0.1-0.2,0.2-0.2,0.3v1.6h-0.4v-2.2H234.2z"/>
<path class="st4" d="M237.5,99.8c0-0.1,0-0.2-0.1-0.2c-0.1-0.1-0.2-0.1-0.4-0.1c-0.2,0-0.3-0.1-0.5-0.1c-0.1-0.1-0.2-0.1-0.3-0.2
	c-0.1-0.1-0.1-0.2-0.1-0.3c0-0.2,0.1-0.3,0.2-0.5c0.2-0.1,0.4-0.2,0.6-0.2c0.3,0,0.5,0.1,0.6,0.2c0.2,0.1,0.2,0.3,0.2,0.5h-0.4
	c0-0.1,0-0.2-0.1-0.3c-0.1-0.1-0.2-0.1-0.3-0.1c-0.1,0-0.2,0-0.3,0.1c-0.1,0.1-0.1,0.1-0.1,0.2c0,0.1,0,0.2,0.1,0.2
	c0.1,0,0.2,0.1,0.4,0.1c0.2,0,0.3,0.1,0.5,0.2c0.1,0.1,0.2,0.1,0.3,0.2c0.1,0.1,0.1,0.2,0.1,0.3c0,0.2-0.1,0.4-0.2,0.5
	c-0.2,0.1-0.4,0.2-0.6,0.2c-0.2,0-0.3,0-0.5-0.1s-0.2-0.2-0.3-0.3c-0.1-0.1-0.1-0.2-0.1-0.4h0.4c0,0.1,0.1,0.2,0.2,0.3
	c0.1,0.1,0.2,0.1,0.4,0.1c0.1,0,0.3,0,0.3-0.1C237.4,100,237.5,99.9,237.5,99.8z"/>
<path class="st4" d="M239.3,100.5c-0.3,0-0.5-0.1-0.7-0.3c-0.2-0.2-0.3-0.5-0.3-0.8v-0.1c0-0.2,0-0.4,0.1-0.6
	c0.1-0.2,0.2-0.3,0.4-0.4c0.2-0.1,0.3-0.1,0.5-0.1c0.3,0,0.5,0.1,0.7,0.3c0.2,0.2,0.2,0.5,0.2,0.8v0.2h-1.5c0,0.2,0.1,0.4,0.2,0.5
	c0.1,0.1,0.3,0.2,0.5,0.2c0.1,0,0.2,0,0.3-0.1c0.1-0.1,0.2-0.1,0.2-0.2l0.2,0.2C239.9,100.3,239.7,100.5,239.3,100.5z M239.2,98.5
	c-0.2,0-0.3,0.1-0.4,0.2c-0.1,0.1-0.2,0.3-0.2,0.5h1.1v0c0-0.2-0.1-0.3-0.2-0.4C239.5,98.5,239.4,98.5,239.2,98.5z"/>
<path class="st4" d="M241.5,100.2c0.1,0,0.3,0,0.4-0.1c0.1-0.1,0.2-0.2,0.2-0.3h0.4c0,0.1,0,0.2-0.1,0.4c-0.1,0.1-0.2,0.2-0.3,0.3
	c-0.1,0.1-0.3,0.1-0.4,0.1c-0.3,0-0.5-0.1-0.7-0.3c-0.2-0.2-0.3-0.5-0.3-0.8v-0.1c0-0.2,0-0.4,0.1-0.6c0.1-0.2,0.2-0.3,0.3-0.4
	c0.1-0.1,0.3-0.1,0.5-0.1c0.2,0,0.5,0.1,0.6,0.2c0.2,0.1,0.3,0.3,0.3,0.6H242c0-0.1-0.1-0.3-0.2-0.4c-0.1-0.1-0.2-0.1-0.4-0.1
	c-0.2,0-0.3,0.1-0.4,0.2c-0.1,0.1-0.2,0.3-0.2,0.6v0.1c0,0.3,0.1,0.5,0.2,0.6C241.1,100.1,241.3,100.2,241.5,100.2z"/>
<path class="st4" d="M243.3,97.7v0.5h0.4v0.3h-0.4v1.4c0,0.1,0,0.2,0.1,0.2c0,0,0.1,0.1,0.2,0.1c0,0,0.1,0,0.2,0v0.3
	c-0.1,0-0.2,0-0.3,0c-0.2,0-0.3-0.1-0.4-0.2c-0.1-0.1-0.1-0.2-0.1-0.4v-1.4h-0.4v-0.3h0.4v-0.5H243.3z"/>
<path class="st4" d="M245.1,100.5c-0.3,0-0.5-0.1-0.7-0.3c-0.2-0.2-0.3-0.5-0.3-0.8v-0.1c0-0.2,0-0.4,0.1-0.6
	c0.1-0.2,0.2-0.3,0.4-0.4c0.2-0.1,0.3-0.1,0.5-0.1c0.3,0,0.5,0.1,0.7,0.3c0.2,0.2,0.2,0.5,0.2,0.8v0.2h-1.5c0,0.2,0.1,0.4,0.2,0.5
	c0.1,0.1,0.3,0.2,0.5,0.2c0.1,0,0.2,0,0.3-0.1c0.1-0.1,0.2-0.1,0.2-0.2l0.2,0.2C245.7,100.3,245.5,100.5,245.1,100.5z M245,98.5
	c-0.2,0-0.3,0.1-0.4,0.2c-0.1,0.1-0.2,0.3-0.2,0.5h1.1v0c0-0.2-0.1-0.3-0.2-0.4C245.3,98.5,245.2,98.5,245,98.5z"/>
<path class="st4" d="M246.9,97.7v0.5h0.4v0.3h-0.4v1.4c0,0.1,0,0.2,0.1,0.2c0,0,0.1,0.1,0.2,0.1c0,0,0.1,0,0.2,0v0.3
	c-0.1,0-0.2,0-0.3,0c-0.2,0-0.3-0.1-0.4-0.2c-0.1-0.1-0.1-0.2-0.1-0.4v-1.4h-0.4v-0.3h0.4v-0.5H246.9z"/>
<path class="st4" d="M249.2,100.2c-0.1,0.2-0.4,0.3-0.7,0.3c-0.2,0-0.4-0.1-0.5-0.2c-0.1-0.1-0.2-0.3-0.2-0.6v-1.4h0.4v1.4
	c0,0.3,0.1,0.5,0.4,0.5c0.3,0,0.5-0.1,0.6-0.3v-1.6h0.4v2.2h-0.4L249.2,100.2z"/>
<path class="st4" d="M251.2,98.5c-0.1,0-0.1,0-0.2,0c-0.2,0-0.4,0.1-0.5,0.3v1.6h-0.4v-2.2h0.4l0,0.3c0.1-0.2,0.3-0.3,0.5-0.3
	c0.1,0,0.1,0,0.2,0V98.5z"/>
<path class="st4" d="M254.3,99.6H253l-0.3,0.8h-0.4l1.1-3h0.3l1.1,3h-0.4L254.3,99.6z M253.1,99.3h1l-0.5-1.4L253.1,99.3z"/>
<path class="st4" d="M255.2,99.3c0-0.3,0.1-0.6,0.2-0.8c0.2-0.2,0.4-0.3,0.6-0.3c0.3,0,0.5,0.1,0.6,0.3v-1.2h0.4v3.2h-0.3l0-0.2
	c-0.2,0.2-0.4,0.3-0.6,0.3c-0.3,0-0.5-0.1-0.6-0.3C255.3,99.9,255.2,99.7,255.2,99.3L255.2,99.3z M255.6,99.3c0,0.3,0.1,0.4,0.2,0.6
	c0.1,0.1,0.2,0.2,0.4,0.2c0.2,0,0.4-0.1,0.5-0.3v-1c-0.1-0.2-0.3-0.3-0.5-0.3c-0.2,0-0.3,0.1-0.4,0.2S255.6,99.1,255.6,99.3z"/>
<path class="st4" d="M258.1,100.4h-0.4v-2.2h0.4V100.4z M257.7,97.6c0-0.1,0-0.1,0.1-0.2c0,0,0.1-0.1,0.2-0.1c0.1,0,0.1,0,0.2,0.1
	c0,0,0.1,0.1,0.1,0.2s0,0.1-0.1,0.2c0,0-0.1,0.1-0.2,0.1c-0.1,0-0.1,0-0.2-0.1C257.7,97.7,257.7,97.7,257.7,97.6z"/>
<path class="st4" d="M260.6,99.3c0,0.3-0.1,0.6-0.2,0.8c-0.2,0.2-0.4,0.3-0.6,0.3c-0.3,0-0.5-0.1-0.6-0.3v1.1h-0.4v-3.1h0.3l0,0.2
	c0.2-0.2,0.4-0.3,0.6-0.3c0.3,0,0.5,0.1,0.6,0.3C260.5,98.7,260.6,98.9,260.6,99.3L260.6,99.3z M260.2,99.3c0-0.3-0.1-0.4-0.2-0.6
	c-0.1-0.1-0.3-0.2-0.4-0.2c-0.2,0-0.4,0.1-0.5,0.3v1.1c0.1,0.2,0.3,0.3,0.5,0.3c0.2,0,0.3-0.1,0.4-0.2
	C260.2,99.8,260.2,99.6,260.2,99.3z"/>
<path class="st4" d="M261.5,100.4h-0.4v-2.2h0.4V100.4z M261.1,97.6c0-0.1,0-0.1,0.1-0.2c0,0,0.1-0.1,0.2-0.1s0.1,0,0.2,0.1
	c0,0,0.1,0.1,0.1,0.2s0,0.1-0.1,0.2c0,0-0.1,0.1-0.2,0.1s-0.1,0-0.2-0.1C261.1,97.7,261.1,97.7,261.1,97.6z"/>
<path class="st4" d="M263.4,99.8c0-0.1,0-0.2-0.1-0.2c-0.1-0.1-0.2-0.1-0.4-0.1c-0.2,0-0.3-0.1-0.5-0.1c-0.1-0.1-0.2-0.1-0.2-0.2
	c-0.1-0.1-0.1-0.2-0.1-0.3c0-0.2,0.1-0.3,0.2-0.5c0.2-0.1,0.4-0.2,0.6-0.2c0.3,0,0.5,0.1,0.6,0.2c0.2,0.1,0.2,0.3,0.2,0.5h-0.4
	c0-0.1,0-0.2-0.1-0.3c-0.1-0.1-0.2-0.1-0.3-0.1c-0.1,0-0.2,0-0.3,0.1c-0.1,0.1-0.1,0.1-0.1,0.2c0,0.1,0,0.2,0.1,0.2
	c0.1,0,0.2,0.1,0.4,0.1c0.2,0,0.3,0.1,0.5,0.2c0.1,0.1,0.2,0.1,0.3,0.2c0.1,0.1,0.1,0.2,0.1,0.3c0,0.2-0.1,0.4-0.2,0.5
	c-0.2,0.1-0.4,0.2-0.6,0.2c-0.2,0-0.3,0-0.5-0.1s-0.2-0.2-0.3-0.3c-0.1-0.1-0.1-0.2-0.1-0.4h0.4c0,0.1,0.1,0.2,0.2,0.3
	c0.1,0.1,0.2,0.1,0.4,0.1c0.1,0,0.3,0,0.3-0.1C263.3,100,263.4,99.9,263.4,99.8z"/>
<path class="st4" d="M265.2,100.2c0.1,0,0.3,0,0.4-0.1c0.1-0.1,0.2-0.2,0.2-0.3h0.4c0,0.1-0.1,0.2-0.1,0.4c-0.1,0.1-0.2,0.2-0.3,0.3
	c-0.1,0.1-0.3,0.1-0.4,0.1c-0.3,0-0.5-0.1-0.7-0.3c-0.2-0.2-0.3-0.5-0.3-0.8v-0.1c0-0.2,0-0.4,0.1-0.6c0.1-0.2,0.2-0.3,0.3-0.4
	c0.1-0.1,0.3-0.1,0.5-0.1c0.2,0,0.5,0.1,0.6,0.2c0.2,0.1,0.3,0.3,0.3,0.6h-0.4c0-0.1-0.1-0.3-0.2-0.4c-0.1-0.1-0.2-0.1-0.4-0.1
	c-0.2,0-0.3,0.1-0.5,0.2c-0.1,0.1-0.2,0.3-0.2,0.6v0.1c0,0.3,0.1,0.5,0.2,0.6C264.8,100.1,265,100.2,265.2,100.2z"/>
<path class="st4" d="M266.9,100.4h-0.4v-2.2h0.4V100.4z M266.5,97.6c0-0.1,0-0.1,0.1-0.2c0,0,0.1-0.1,0.2-0.1s0.1,0,0.2,0.1
	c0,0,0.1,0.1,0.1,0.2s0,0.1-0.1,0.2c0,0-0.1,0.1-0.2,0.1s-0.1,0-0.2-0.1C266.5,97.7,266.5,97.7,266.5,97.6z"/>
<path class="st4" d="M267.9,98.2l0,0.3c0.2-0.2,0.4-0.3,0.7-0.3c0.5,0,0.7,0.3,0.7,0.8v1.5h-0.4V99c0-0.2,0-0.3-0.1-0.4
	c-0.1-0.1-0.2-0.1-0.3-0.1c-0.1,0-0.2,0-0.3,0.1c-0.1,0.1-0.2,0.2-0.2,0.3v1.6h-0.4v-2.2H267.9z"/>
<path class="st4" d="M269.7,99.3c0-0.3,0.1-0.6,0.2-0.8c0.2-0.2,0.4-0.3,0.6-0.3c0.3,0,0.5,0.1,0.6,0.3l0-0.2h0.3v2.2
	c0,0.3-0.1,0.5-0.3,0.7c-0.2,0.2-0.4,0.2-0.7,0.2c-0.2,0-0.3,0-0.5-0.1c-0.2-0.1-0.3-0.2-0.4-0.3l0.2-0.2c0.2,0.2,0.4,0.3,0.6,0.3
	c0.2,0,0.3-0.1,0.4-0.2c0.1-0.1,0.2-0.2,0.2-0.4v-0.2c-0.2,0.2-0.4,0.3-0.6,0.3c-0.3,0-0.5-0.1-0.6-0.3
	C269.8,99.9,269.7,99.7,269.7,99.3z M270.1,99.3c0,0.3,0.1,0.4,0.2,0.6c0.1,0.1,0.2,0.2,0.4,0.2c0.2,0,0.4-0.1,0.5-0.3v-1
	c-0.1-0.2-0.3-0.3-0.5-0.3c-0.2,0-0.3,0.1-0.4,0.2C270.2,98.8,270.1,99.1,270.1,99.3z"/>
<path class="st4" d="M275,99h-1.3v1.1h1.5v0.3h-1.9v-3h1.9v0.3h-1.5v1h1.3V99z"/>
<path class="st4" d="M276,100.4h-0.4v-3.2h0.4V100.4z"/>
<path class="st4" d="M277,100.4h-0.4v-2.2h0.4V100.4z M276.6,97.6c0-0.1,0-0.1,0.1-0.2c0,0,0.1-0.1,0.2-0.1s0.1,0,0.2,0.1
	c0,0,0.1,0.1,0.1,0.2s0,0.1-0.1,0.2c0,0-0.1,0.1-0.2,0.1s-0.1,0-0.2-0.1C276.7,97.7,276.6,97.7,276.6,97.6z"/>
<path class="st4" d="M278.2,97.7v0.5h0.4v0.3h-0.4v1.4c0,0.1,0,0.2,0.1,0.2c0,0,0.1,0.1,0.2,0.1c0,0,0.1,0,0.2,0v0.3
	c-0.1,0-0.2,0-0.3,0c-0.2,0-0.3-0.1-0.4-0.2c-0.1-0.1-0.1-0.2-0.1-0.4v-1.4h-0.4v-0.3h0.4v-0.5H278.2z"/>
<path class="st4" d="M279,100.2c0-0.1,0-0.1,0.1-0.2c0,0,0.1-0.1,0.2-0.1c0.1,0,0.1,0,0.2,0.1c0,0,0.1,0.1,0.1,0.2
	c0,0.1,0,0.1-0.1,0.2c0,0-0.1,0.1-0.2,0.1c-0.1,0-0.1,0-0.2-0.1C279.1,100.3,279,100.3,279,100.2z"/>
<path class="st4" d="M282.1,99.1c-0.3-0.1-0.6-0.2-0.7-0.4c-0.2-0.1-0.2-0.3-0.2-0.5c0-0.2,0.1-0.4,0.3-0.6c0.2-0.2,0.4-0.2,0.7-0.2
	c0.2,0,0.4,0,0.5,0.1c0.2,0.1,0.3,0.2,0.4,0.3c0.1,0.1,0.1,0.3,0.1,0.5h-0.4c0-0.2-0.1-0.3-0.2-0.4c-0.1-0.1-0.3-0.2-0.5-0.2
	c-0.2,0-0.3,0-0.5,0.1c-0.1,0.1-0.2,0.2-0.2,0.4c0,0.1,0.1,0.2,0.2,0.3c0.1,0.1,0.3,0.2,0.5,0.2c0.2,0.1,0.4,0.1,0.6,0.2
	c0.1,0.1,0.2,0.2,0.3,0.3c0.1,0.1,0.1,0.2,0.1,0.4c0,0.2-0.1,0.4-0.3,0.6c-0.2,0.1-0.4,0.2-0.8,0.2c-0.2,0-0.4,0-0.6-0.1
	c-0.2-0.1-0.3-0.2-0.4-0.3c-0.1-0.1-0.1-0.3-0.1-0.5h0.4c0,0.2,0.1,0.3,0.2,0.4c0.1,0.1,0.3,0.2,0.5,0.2c0.2,0,0.4,0,0.5-0.1
	c0.1-0.1,0.2-0.2,0.2-0.3c0-0.1-0.1-0.3-0.2-0.3C282.6,99.3,282.4,99.2,282.1,99.1z"/>
<path class="st4" d="M284.1,100.4h-0.4v-2.2h0.4V100.4z M283.7,97.6c0-0.1,0-0.1,0.1-0.2c0,0,0.1-0.1,0.2-0.1s0.1,0,0.2,0.1
	c0,0,0.1,0.1,0.1,0.2s0,0.1-0.1,0.2c0,0-0.1,0.1-0.2,0.1s-0.1,0-0.2-0.1C283.7,97.7,283.7,97.7,283.7,97.6z"/>
<path class="st4" d="M285.2,97.7v0.5h0.4v0.3h-0.4v1.4c0,0.1,0,0.2,0.1,0.2c0,0,0.1,0.1,0.2,0.1c0,0,0.1,0,0.2,0v0.3
	c-0.1,0-0.2,0-0.3,0c-0.2,0-0.3-0.1-0.4-0.2c-0.1-0.1-0.1-0.2-0.1-0.4v-1.4h-0.4v-0.3h0.4v-0.5H285.2z"/>
<path class="st4" d="M289.2,97.8h-1v2.7h-0.4v-2.7h-1v-0.3h2.3V97.8z"/>
<path class="st4" d="M290.3,100.5c-0.3,0-0.5-0.1-0.7-0.3c-0.2-0.2-0.3-0.5-0.3-0.8v-0.1c0-0.2,0-0.4,0.1-0.6
	c0.1-0.2,0.2-0.3,0.4-0.4c0.2-0.1,0.3-0.1,0.5-0.1c0.3,0,0.5,0.1,0.7,0.3c0.2,0.2,0.2,0.5,0.2,0.8v0.2h-1.5c0,0.2,0.1,0.4,0.2,0.5
	c0.1,0.1,0.3,0.2,0.5,0.2c0.1,0,0.2,0,0.3-0.1c0.1-0.1,0.2-0.1,0.2-0.2l0.2,0.2C290.9,100.3,290.6,100.5,290.3,100.5z M290.2,98.5
	c-0.2,0-0.3,0.1-0.4,0.2c-0.1,0.1-0.2,0.3-0.2,0.5h1.1v0c0-0.2-0.1-0.3-0.2-0.4C290.5,98.5,290.4,98.5,290.2,98.5z"/>
<path class="st4" d="M292,100.4h-0.4v-3.2h0.4V100.4z"/>
<path class="st4" d="M293,100.4h-0.4v-3.2h0.4V100.4z"/>
<path class="st4" d="M295,100.2c-0.1,0.2-0.4,0.3-0.7,0.3c-0.2,0-0.4-0.1-0.5-0.2c-0.1-0.1-0.2-0.3-0.2-0.6v-1.4h0.4v1.4
	c0,0.3,0.1,0.5,0.4,0.5c0.3,0,0.5-0.1,0.6-0.3v-1.6h0.4v2.2H295L295,100.2z"/>
<path class="st4" d="M297.2,99.8c0-0.1,0-0.2-0.1-0.2c-0.1-0.1-0.2-0.1-0.4-0.1c-0.2,0-0.3-0.1-0.5-0.1c-0.1-0.1-0.2-0.1-0.3-0.2
	c-0.1-0.1-0.1-0.2-0.1-0.3c0-0.2,0.1-0.3,0.2-0.5c0.2-0.1,0.4-0.2,0.6-0.2c0.3,0,0.5,0.1,0.6,0.2c0.2,0.1,0.2,0.3,0.2,0.5h-0.4
	c0-0.1,0-0.2-0.1-0.3c-0.1-0.1-0.2-0.1-0.3-0.1c-0.1,0-0.2,0-0.3,0.1c-0.1,0.1-0.1,0.1-0.1,0.2c0,0.1,0,0.2,0.1,0.2
	c0.1,0,0.2,0.1,0.4,0.1c0.2,0,0.3,0.1,0.5,0.2c0.1,0.1,0.2,0.1,0.3,0.2c0.1,0.1,0.1,0.2,0.1,0.3c0,0.2-0.1,0.4-0.2,0.5
	c-0.2,0.1-0.4,0.2-0.6,0.2c-0.2,0-0.3,0-0.5-0.1c-0.1-0.1-0.2-0.2-0.3-0.3c-0.1-0.1-0.1-0.2-0.1-0.4h0.4c0,0.1,0.1,0.2,0.2,0.3
	c0.1,0.1,0.2,0.1,0.4,0.1c0.1,0,0.3,0,0.3-0.1C297.2,100,297.2,99.9,297.2,99.8z"/>
<path class="st4" d="M175.8,106.5h-1.3v1.3h-0.4v-3h1.9v0.3h-1.5v1h1.3V106.5z"/>
<path class="st4" d="M177.7,107.8c0,0,0-0.1-0.1-0.2c-0.2,0.2-0.4,0.3-0.6,0.3c-0.2,0-0.4-0.1-0.5-0.2c-0.1-0.1-0.2-0.3-0.2-0.5
	c0-0.2,0.1-0.4,0.3-0.5c0.2-0.1,0.4-0.2,0.7-0.2h0.4v-0.2c0-0.1,0-0.2-0.1-0.3c-0.1-0.1-0.2-0.1-0.4-0.1c-0.1,0-0.2,0-0.3,0.1
	c-0.1,0.1-0.1,0.2-0.1,0.2h-0.4c0-0.1,0-0.2,0.1-0.3c0.1-0.1,0.2-0.2,0.3-0.2c0.1-0.1,0.3-0.1,0.4-0.1c0.3,0,0.5,0.1,0.6,0.2
	c0.1,0.1,0.2,0.3,0.2,0.5v1c0,0.2,0,0.4,0.1,0.5v0H177.7z M177.1,107.5c0.1,0,0.2,0,0.3-0.1c0.1-0.1,0.2-0.1,0.2-0.2v-0.5h-0.3
	c-0.5,0-0.7,0.1-0.7,0.4c0,0.1,0,0.2,0.1,0.3C176.9,107.5,177,107.5,177.1,107.5z"/>
<path class="st4" d="M180,107.6c-0.1,0.2-0.4,0.3-0.7,0.3c-0.2,0-0.4-0.1-0.5-0.2c-0.1-0.1-0.2-0.3-0.2-0.6v-1.4h0.4v1.4
	c0,0.3,0.1,0.5,0.4,0.5c0.3,0,0.5-0.1,0.6-0.3v-1.6h0.4v2.2H180L180,107.6z"/>
<path class="st4" d="M181.8,107.5c0.1,0,0.3,0,0.4-0.1s0.2-0.2,0.2-0.3h0.4c0,0.1-0.1,0.2-0.1,0.4c-0.1,0.1-0.2,0.2-0.3,0.3
	c-0.1,0.1-0.3,0.1-0.4,0.1c-0.3,0-0.5-0.1-0.7-0.3c-0.2-0.2-0.3-0.5-0.3-0.8v-0.1c0-0.2,0-0.4,0.1-0.6c0.1-0.2,0.2-0.3,0.3-0.4
	c0.1-0.1,0.3-0.1,0.5-0.1c0.2,0,0.5,0.1,0.6,0.2c0.2,0.1,0.3,0.3,0.3,0.6h-0.4c0-0.1-0.1-0.3-0.2-0.4c-0.1-0.1-0.2-0.1-0.4-0.1
	c-0.2,0-0.3,0.1-0.4,0.2c-0.1,0.1-0.2,0.3-0.2,0.6v0.1c0,0.3,0.1,0.5,0.2,0.6C181.5,107.5,181.7,107.5,181.8,107.5z"/>
<path class="st4" d="M183.6,107.8h-0.4v-2.2h0.4V107.8z M183.2,105c0-0.1,0-0.1,0.1-0.2c0,0,0.1-0.1,0.2-0.1c0.1,0,0.1,0,0.2,0.1
	c0,0,0.1,0.1,0.1,0.2c0,0.1,0,0.1-0.1,0.2c0,0-0.1,0.1-0.2,0.1c-0.1,0-0.1,0-0.2-0.1C183.2,105.1,183.2,105,183.2,105z"/>
<path class="st4" d="M186.1,106.7c0,0.3-0.1,0.6-0.2,0.8c-0.2,0.2-0.4,0.3-0.6,0.3c-0.3,0-0.5-0.1-0.7-0.3l0,0.3h-0.3v-3.2h0.4v1.2
	c0.2-0.2,0.4-0.3,0.6-0.3s0.5,0.1,0.6,0.3C186,106,186.1,106.3,186.1,106.7L186.1,106.7z M185.7,106.7c0-0.3-0.1-0.5-0.1-0.6
	c-0.1-0.1-0.2-0.2-0.4-0.2c-0.2,0-0.4,0.1-0.5,0.3v1c0.1,0.2,0.3,0.3,0.5,0.3c0.2,0,0.3-0.1,0.4-0.2
	C185.6,107.2,185.7,106.9,185.7,106.7z"/>
<path class="st4" d="M187.9,107.6c-0.1,0.2-0.4,0.3-0.7,0.3c-0.2,0-0.4-0.1-0.5-0.2c-0.1-0.1-0.2-0.3-0.2-0.6v-1.4h0.4v1.4
	c0,0.3,0.1,0.5,0.4,0.5c0.3,0,0.5-0.1,0.6-0.3v-1.6h0.4v2.2h-0.4L187.9,107.6z"/>
<path class="st4" d="M190.2,107.2c0-0.1,0-0.2-0.1-0.2c-0.1-0.1-0.2-0.1-0.4-0.1c-0.2,0-0.3-0.1-0.5-0.1c-0.1-0.1-0.2-0.1-0.3-0.2
	c-0.1-0.1-0.1-0.2-0.1-0.3c0-0.2,0.1-0.3,0.2-0.5c0.2-0.1,0.4-0.2,0.6-0.2c0.3,0,0.5,0.1,0.6,0.2c0.2,0.1,0.2,0.3,0.2,0.5h-0.4
	c0-0.1,0-0.2-0.1-0.3c-0.1-0.1-0.2-0.1-0.3-0.1c-0.1,0-0.2,0-0.3,0.1c-0.1,0.1-0.1,0.1-0.1,0.2c0,0.1,0,0.2,0.1,0.2
	c0.1,0,0.2,0.1,0.4,0.1c0.2,0,0.3,0.1,0.5,0.2c0.1,0.1,0.2,0.1,0.3,0.2c0.1,0.1,0.1,0.2,0.1,0.3c0,0.2-0.1,0.4-0.2,0.5
	c-0.2,0.1-0.4,0.2-0.6,0.2c-0.2,0-0.3,0-0.5-0.1c-0.1-0.1-0.2-0.2-0.3-0.3c-0.1-0.1-0.1-0.2-0.1-0.4h0.4c0,0.1,0.1,0.2,0.2,0.3
	c0.1,0.1,0.2,0.1,0.4,0.1c0.1,0,0.3,0,0.3-0.1C190.1,107.4,190.2,107.3,190.2,107.2z"/>
<path class="st4" d="M194.4,107.8H194l-1.5-2.3v2.3h-0.4v-3h0.4l1.5,2.3v-2.3h0.4V107.8z"/>
<path class="st4" d="M195.5,107.8h-0.4v-2.2h0.4V107.8z M195.1,105c0-0.1,0-0.1,0.1-0.2c0,0,0.1-0.1,0.2-0.1s0.1,0,0.2,0.1
	c0,0,0.1,0.1,0.1,0.2c0,0.1,0,0.1-0.1,0.2c0,0-0.1,0.1-0.2,0.1s-0.1,0-0.2-0.1C195.1,105.1,195.1,105,195.1,105z"/>
<path class="st4" d="M198,106.7c0,0.3-0.1,0.6-0.2,0.8c-0.2,0.2-0.4,0.3-0.6,0.3c-0.3,0-0.5-0.1-0.7-0.3l0,0.3h-0.3v-3.2h0.4v1.2
	c0.2-0.2,0.4-0.3,0.6-0.3s0.5,0.1,0.6,0.3C197.9,106,198,106.3,198,106.7L198,106.7z M197.6,106.7c0-0.3-0.1-0.5-0.1-0.6
	c-0.1-0.1-0.2-0.2-0.4-0.2c-0.2,0-0.4,0.1-0.5,0.3v1c0.1,0.2,0.3,0.3,0.5,0.3c0.2,0,0.3-0.1,0.4-0.2
	C197.6,107.2,197.6,106.9,197.6,106.7z"/>
<path class="st4" d="M198.8,105.8c0.2-0.2,0.4-0.3,0.7-0.3c0.5,0,0.7,0.3,0.7,0.8v1.5h-0.4v-1.5c0-0.2,0-0.3-0.1-0.4
	c-0.1-0.1-0.2-0.1-0.3-0.1c-0.1,0-0.2,0-0.3,0.1c-0.1,0.1-0.2,0.2-0.2,0.3v1.6h-0.4v-3.2h0.4V105.8z"/>
<path class="st4" d="M204.1,106.8c0,0.3-0.2,0.6-0.4,0.7c-0.2,0.2-0.5,0.3-0.8,0.3c-0.4,0-0.6-0.1-0.9-0.4c-0.2-0.3-0.3-0.6-0.3-1
	v-0.3c0-0.3,0-0.5,0.1-0.7c0.1-0.2,0.2-0.4,0.4-0.5c0.2-0.1,0.4-0.2,0.6-0.2c0.3,0,0.6,0.1,0.8,0.3c0.2,0.2,0.3,0.4,0.3,0.7h-0.4
	c0-0.2-0.1-0.4-0.2-0.5c-0.1-0.1-0.3-0.2-0.5-0.2c-0.3,0-0.4,0.1-0.6,0.3c-0.1,0.2-0.2,0.5-0.2,0.8v0.3c0,0.3,0.1,0.6,0.2,0.8
	c0.1,0.2,0.3,0.3,0.6,0.3c0.2,0,0.4,0,0.5-0.1c0.1-0.1,0.2-0.3,0.2-0.5H204.1z"/>
<path class="st4" d="M204.5,106.7c0-0.2,0-0.4,0.1-0.6c0.1-0.2,0.2-0.3,0.4-0.4c0.2-0.1,0.3-0.1,0.5-0.1c0.3,0,0.5,0.1,0.7,0.3
	c0.2,0.2,0.3,0.5,0.3,0.8v0c0,0.2,0,0.4-0.1,0.6c-0.1,0.2-0.2,0.3-0.4,0.4c-0.2,0.1-0.3,0.1-0.5,0.1c-0.3,0-0.5-0.1-0.7-0.3
	C204.6,107.3,204.5,107,204.5,106.7L204.5,106.7z M204.8,106.7c0,0.2,0.1,0.4,0.2,0.6c0.1,0.1,0.3,0.2,0.5,0.2
	c0.2,0,0.3-0.1,0.5-0.2c0.1-0.2,0.2-0.4,0.2-0.6c0-0.2-0.1-0.4-0.2-0.6c-0.1-0.2-0.3-0.2-0.5-0.2c-0.2,0-0.3,0.1-0.5,0.2
	C204.9,106.2,204.8,106.4,204.8,106.7z"/>
<path class="st4" d="M207.3,105.6l0,0.3c0.2-0.2,0.4-0.3,0.7-0.3c0.5,0,0.7,0.3,0.7,0.8v1.5h-0.4v-1.5c0-0.2,0-0.3-0.1-0.4
	c-0.1-0.1-0.2-0.1-0.3-0.1c-0.1,0-0.2,0-0.3,0.1c-0.1,0.1-0.2,0.2-0.2,0.3v1.6H207v-2.2H207.3z"/>
<path class="st4" d="M210,107.3l0.5-1.7h0.4l-0.8,2.2h-0.3l-0.8-2.2h0.4L210,107.3z"/>
<path class="st4" d="M212.7,107.8c0,0,0-0.1-0.1-0.2c-0.2,0.2-0.4,0.3-0.6,0.3c-0.2,0-0.4-0.1-0.5-0.2c-0.1-0.1-0.2-0.3-0.2-0.5
	c0-0.2,0.1-0.4,0.3-0.5c0.2-0.1,0.4-0.2,0.7-0.2h0.4v-0.2c0-0.1,0-0.2-0.1-0.3c-0.1-0.1-0.2-0.1-0.4-0.1c-0.1,0-0.2,0-0.3,0.1
	c-0.1,0.1-0.1,0.2-0.1,0.2h-0.4c0-0.1,0-0.2,0.1-0.3c0.1-0.1,0.2-0.2,0.3-0.2c0.1-0.1,0.3-0.1,0.4-0.1c0.3,0,0.5,0.1,0.6,0.2
	c0.1,0.1,0.2,0.3,0.2,0.5v1c0,0.2,0,0.4,0.1,0.5v0H212.7z M212,107.5c0.1,0,0.2,0,0.3-0.1c0.1-0.1,0.2-0.1,0.2-0.2v-0.5h-0.3
	c-0.5,0-0.7,0.1-0.7,0.4c0,0.1,0,0.2,0.1,0.3C211.8,107.5,211.9,107.5,212,107.5z"/>
<path class="st4" d="M214,107.8h-0.4v-3.2h0.4V107.8z"/>
<path class="st4" d="M215,107.8h-0.4v-3.2h0.4V107.8z"/>
<path class="st4" d="M216,107.8h-0.4v-2.2h0.4V107.8z M215.6,105c0-0.1,0-0.1,0.1-0.2c0,0,0.1-0.1,0.2-0.1s0.1,0,0.2,0.1
	c0,0,0.1,0.1,0.1,0.2c0,0.1,0,0.1-0.1,0.2c0,0-0.1,0.1-0.2,0.1s-0.1,0-0.2-0.1C215.6,105.1,215.6,105,215.6,105z"/>
<path class="st4" d="M217.9,107.2c0-0.1,0-0.2-0.1-0.2c-0.1-0.1-0.2-0.1-0.4-0.1c-0.2,0-0.3-0.1-0.5-0.1c-0.1-0.1-0.2-0.1-0.3-0.2
	c-0.1-0.1-0.1-0.2-0.1-0.3c0-0.2,0.1-0.3,0.2-0.5c0.2-0.1,0.4-0.2,0.6-0.2c0.3,0,0.5,0.1,0.6,0.2c0.2,0.1,0.2,0.3,0.2,0.5h-0.4
	c0-0.1,0-0.2-0.1-0.3c-0.1-0.1-0.2-0.1-0.3-0.1c-0.1,0-0.2,0-0.3,0.1c-0.1,0.1-0.1,0.1-0.1,0.2c0,0.1,0,0.2,0.1,0.2
	c0.1,0,0.2,0.1,0.4,0.1c0.2,0,0.3,0.1,0.5,0.2c0.1,0.1,0.2,0.1,0.3,0.2c0.1,0.1,0.1,0.2,0.1,0.3c0,0.2-0.1,0.4-0.2,0.5
	c-0.2,0.1-0.4,0.2-0.6,0.2c-0.2,0-0.3,0-0.5-0.1c-0.1-0.1-0.2-0.2-0.3-0.3c-0.1-0.1-0.1-0.2-0.1-0.4h0.4c0,0.1,0.1,0.2,0.2,0.3
	c0.1,0.1,0.2,0.1,0.4,0.1c0.1,0,0.3,0,0.3-0.1C217.9,107.4,217.9,107.3,217.9,107.2z"/>
<path class="st4" d="M221.6,107h-1.3l-0.3,0.8h-0.4l1.1-3h0.3l1.1,3h-0.4L221.6,107z M220.4,106.7h1l-0.5-1.4L220.4,106.7z"/>
<path class="st4" d="M223,107.8h-0.4v-3.2h0.4V107.8z"/>
<path class="st4" d="M224,107.8h-0.4v-2.2h0.4V107.8z M223.6,105c0-0.1,0-0.1,0.1-0.2c0,0,0.1-0.1,0.2-0.1c0.1,0,0.1,0,0.2,0.1
	c0,0,0.1,0.1,0.1,0.2c0,0.1,0,0.1-0.1,0.2c0,0-0.1,0.1-0.2,0.1c-0.1,0-0.1,0-0.2-0.1C223.6,105.1,223.6,105,223.6,105z"/>
<path class="st4" d="M224.6,106.7c0-0.3,0.1-0.6,0.2-0.8c0.2-0.2,0.4-0.3,0.6-0.3c0.3,0,0.5,0.1,0.6,0.3l0-0.2h0.3v3.1H226v-1.1
	c-0.2,0.2-0.4,0.2-0.6,0.2c-0.3,0-0.5-0.1-0.6-0.3C224.6,107.3,224.6,107,224.6,106.7L224.6,106.7z M224.9,106.7
	c0,0.3,0.1,0.5,0.2,0.6c0.1,0.1,0.3,0.2,0.4,0.2c0.2,0,0.4-0.1,0.5-0.3v-1.1c-0.1-0.2-0.3-0.3-0.5-0.3c-0.2,0-0.3,0.1-0.4,0.2
	C225,106.2,224.9,106.4,224.9,106.7z"/>
<path class="st4" d="M228.4,107.6c-0.1,0.2-0.4,0.3-0.7,0.3c-0.2,0-0.4-0.1-0.5-0.2c-0.1-0.1-0.2-0.3-0.2-0.6v-1.4h0.4v1.4
	c0,0.3,0.1,0.5,0.4,0.5c0.3,0,0.5-0.1,0.6-0.3v-1.6h0.4v2.2h-0.4L228.4,107.6z"/>
<path class="st4" d="M230.7,107.8c0,0,0-0.1-0.1-0.2c-0.2,0.2-0.4,0.3-0.6,0.3c-0.2,0-0.4-0.1-0.5-0.2c-0.1-0.1-0.2-0.3-0.2-0.5
	c0-0.2,0.1-0.4,0.3-0.5c0.2-0.1,0.4-0.2,0.7-0.2h0.4v-0.2c0-0.1,0-0.2-0.1-0.3c-0.1-0.1-0.2-0.1-0.4-0.1c-0.1,0-0.2,0-0.3,0.1
	c-0.1,0.1-0.1,0.2-0.1,0.2h-0.4c0-0.1,0-0.2,0.1-0.3c0.1-0.1,0.2-0.2,0.3-0.2c0.1-0.1,0.3-0.1,0.4-0.1c0.3,0,0.5,0.1,0.6,0.2
	c0.1,0.1,0.2,0.3,0.2,0.5v1c0,0.2,0,0.4,0.1,0.5v0H230.7z M230.1,107.5c0.1,0,0.2,0,0.3-0.1c0.1-0.1,0.2-0.1,0.2-0.2v-0.5h-0.3
	c-0.5,0-0.7,0.1-0.7,0.4c0,0.1,0,0.2,0.1,0.3C229.9,107.5,230,107.5,230.1,107.5z"/>
<path class="st4" d="M232,105.6l0,0.2c0.2-0.2,0.4-0.3,0.7-0.3c0.3,0,0.5,0.1,0.6,0.4c0.1-0.1,0.2-0.2,0.3-0.3
	c0.1-0.1,0.3-0.1,0.4-0.1c0.5,0,0.7,0.3,0.7,0.8v1.5h-0.4v-1.5c0-0.2,0-0.3-0.1-0.4c-0.1-0.1-0.2-0.1-0.4-0.1c-0.1,0-0.3,0-0.4,0.1
	c-0.1,0.1-0.1,0.2-0.2,0.3v1.5H233v-1.5c0-0.3-0.2-0.5-0.5-0.5c-0.2,0-0.4,0.1-0.5,0.3v1.6h-0.4v-2.2H232z"/>
<path class="st4" d="M238.1,106.5h-1.3v1.3h-0.4v-3h1.9v0.3h-1.5v1h1.3V106.5z"/>
<path class="st4" d="M239.6,107.8c-0.3,0-0.5-0.1-0.7-0.3c-0.2-0.2-0.3-0.5-0.3-0.8v-0.1c0-0.2,0-0.4,0.1-0.6
	c0.1-0.2,0.2-0.3,0.4-0.4c0.2-0.1,0.3-0.1,0.5-0.1c0.3,0,0.5,0.1,0.7,0.3c0.2,0.2,0.2,0.5,0.2,0.8v0.2h-1.5c0,0.2,0.1,0.4,0.2,0.5
	c0.1,0.1,0.3,0.2,0.5,0.2c0.1,0,0.2,0,0.3-0.1s0.2-0.1,0.2-0.2l0.2,0.2C240.2,107.7,240,107.8,239.6,107.8z M239.5,105.8
	c-0.2,0-0.3,0.1-0.4,0.2c-0.1,0.1-0.2,0.3-0.2,0.5h1.1v0c0-0.2-0.1-0.3-0.2-0.4C239.8,105.9,239.7,105.8,239.5,105.8z"/>
<path class="st4" d="M242.3,107.6c-0.1,0.2-0.4,0.3-0.7,0.3c-0.2,0-0.4-0.1-0.5-0.2c-0.1-0.1-0.2-0.3-0.2-0.6v-1.4h0.4v1.4
	c0,0.3,0.1,0.5,0.4,0.5c0.3,0,0.5-0.1,0.6-0.3v-1.6h0.4v2.2h-0.4L242.3,107.6z"/>
<path class="st4" d="M243.1,106.7c0-0.3,0.1-0.6,0.2-0.8c0.2-0.2,0.4-0.3,0.6-0.3c0.3,0,0.5,0.1,0.6,0.3l0-0.2h0.3v2.2
	c0,0.3-0.1,0.5-0.3,0.7c-0.2,0.2-0.4,0.2-0.7,0.2c-0.2,0-0.3,0-0.5-0.1c-0.2-0.1-0.3-0.2-0.4-0.3l0.2-0.2c0.2,0.2,0.4,0.3,0.6,0.3
	c0.2,0,0.3-0.1,0.4-0.2c0.1-0.1,0.2-0.2,0.2-0.4v-0.2c-0.2,0.2-0.4,0.3-0.6,0.3c-0.3,0-0.5-0.1-0.6-0.3
	C243.2,107.3,243.1,107,243.1,106.7z M243.5,106.7c0,0.3,0.1,0.4,0.2,0.6c0.1,0.1,0.2,0.2,0.4,0.2c0.2,0,0.4-0.1,0.5-0.3v-1
	c-0.1-0.2-0.3-0.3-0.5-0.3c-0.2,0-0.3,0.1-0.4,0.2C243.6,106.2,243.5,106.4,243.5,106.7z"/>
<path class="st4" d="M246,107.8h-0.4v-2.2h0.4V107.8z M245.6,105c0-0.1,0-0.1,0.1-0.2c0,0,0.1-0.1,0.2-0.1c0.1,0,0.1,0,0.2,0.1
	c0,0,0.1,0.1,0.1,0.2c0,0.1,0,0.1-0.1,0.2c0,0-0.1,0.1-0.2,0.1c-0.1,0-0.1,0-0.2-0.1C245.6,105.1,245.6,105,245.6,105z"/>
<path class="st4" d="M248,107.8c0,0,0-0.1-0.1-0.2c-0.2,0.2-0.4,0.3-0.6,0.3c-0.2,0-0.4-0.1-0.5-0.2c-0.1-0.1-0.2-0.3-0.2-0.5
	c0-0.2,0.1-0.4,0.3-0.5c0.2-0.1,0.4-0.2,0.7-0.2h0.4v-0.2c0-0.1,0-0.2-0.1-0.3c-0.1-0.1-0.2-0.1-0.4-0.1c-0.1,0-0.2,0-0.3,0.1
	c-0.1,0.1-0.1,0.2-0.1,0.2h-0.4c0-0.1,0-0.2,0.1-0.3c0.1-0.1,0.2-0.2,0.3-0.2c0.1-0.1,0.3-0.1,0.4-0.1c0.3,0,0.5,0.1,0.6,0.2
	c0.1,0.1,0.2,0.3,0.2,0.5v1c0,0.2,0,0.4,0.1,0.5v0H248z M247.3,107.5c0.1,0,0.2,0,0.3-0.1c0.1-0.1,0.2-0.1,0.2-0.2v-0.5h-0.3
	c-0.5,0-0.7,0.1-0.7,0.4c0,0.1,0,0.2,0.1,0.3C247.1,107.5,247.2,107.5,247.3,107.5z"/>
<path class="st4" d="M249.4,105v0.5h0.4v0.3h-0.4v1.4c0,0.1,0,0.2,0.1,0.2c0,0,0.1,0.1,0.2,0.1c0,0,0.1,0,0.2,0v0.3
	c-0.1,0-0.2,0-0.3,0c-0.2,0-0.3-0.1-0.4-0.2c-0.1-0.1-0.1-0.2-0.1-0.4v-1.4h-0.4v-0.3h0.4V105H249.4z"/>
<path class="st4" d="M253.7,107.8h-0.4l-1.5-2.3v2.3h-0.4v-3h0.4l1.5,2.3v-2.3h0.4V107.8z"/>
<path class="st4" d="M254.2,106.7c0-0.2,0-0.4,0.1-0.6c0.1-0.2,0.2-0.3,0.4-0.4c0.2-0.1,0.3-0.1,0.5-0.1c0.3,0,0.5,0.1,0.7,0.3
	c0.2,0.2,0.3,0.5,0.3,0.8v0c0,0.2,0,0.4-0.1,0.6c-0.1,0.2-0.2,0.3-0.4,0.4c-0.2,0.1-0.3,0.1-0.5,0.1c-0.3,0-0.5-0.1-0.7-0.3
	C254.3,107.3,254.2,107,254.2,106.7L254.2,106.7z M254.6,106.7c0,0.2,0.1,0.4,0.2,0.6c0.1,0.1,0.3,0.2,0.5,0.2
	c0.2,0,0.3-0.1,0.5-0.2c0.1-0.2,0.2-0.4,0.2-0.6c0-0.2-0.1-0.4-0.2-0.6c-0.1-0.2-0.3-0.2-0.5-0.2c-0.2,0-0.3,0.1-0.5,0.2
	C254.6,106.2,254.6,106.4,254.6,106.7z"/>
<path class="st4" d="M257.1,105.6l0,0.3c0.2-0.2,0.4-0.3,0.7-0.3c0.5,0,0.7,0.3,0.7,0.8v1.5h-0.4v-1.5c0-0.2,0-0.3-0.1-0.4
	c-0.1-0.1-0.2-0.1-0.3-0.1c-0.1,0-0.2,0-0.3,0.1c-0.1,0.1-0.2,0.2-0.2,0.3v1.6h-0.4v-2.2H257.1z"/>
<path class="st4" d="M260.5,106.6v1.2h-0.4v-3h1.1c0.3,0,0.6,0.1,0.8,0.2c0.2,0.2,0.3,0.4,0.3,0.7c0,0.3-0.1,0.5-0.3,0.7
	c-0.2,0.2-0.4,0.2-0.8,0.2H260.5z M260.5,106.3h0.7c0.2,0,0.4,0,0.5-0.1c0.1-0.1,0.2-0.2,0.2-0.4c0-0.2-0.1-0.3-0.2-0.4
	c-0.1-0.1-0.3-0.2-0.5-0.2h-0.7V106.3z"/>
<path class="st4" d="M263.1,107.8h-0.4v-3.2h0.4V107.8z"/>
<path class="st4" d="M265.1,107.8c0,0,0-0.1-0.1-0.2c-0.2,0.2-0.4,0.3-0.6,0.3c-0.2,0-0.4-0.1-0.5-0.2c-0.1-0.1-0.2-0.3-0.2-0.5
	c0-0.2,0.1-0.4,0.3-0.5c0.2-0.1,0.4-0.2,0.7-0.2h0.4v-0.2c0-0.1,0-0.2-0.1-0.3c-0.1-0.1-0.2-0.1-0.4-0.1c-0.1,0-0.2,0-0.3,0.1
	c-0.1,0.1-0.1,0.2-0.1,0.2h-0.4c0-0.1,0-0.2,0.1-0.3c0.1-0.1,0.2-0.2,0.3-0.2c0.1-0.1,0.3-0.1,0.4-0.1c0.3,0,0.5,0.1,0.6,0.2
	c0.1,0.1,0.2,0.3,0.2,0.5v1c0,0.2,0,0.4,0.1,0.5v0H265.1z M264.5,107.5c0.1,0,0.2,0,0.3-0.1c0.1-0.1,0.2-0.1,0.2-0.2v-0.5h-0.3
	c-0.5,0-0.7,0.1-0.7,0.4c0,0.1,0,0.2,0.1,0.3C264.3,107.5,264.4,107.5,264.5,107.5z"/>
<path class="st4" d="M266.9,107.5c0.1,0,0.3,0,0.4-0.1c0.1-0.1,0.2-0.2,0.2-0.3h0.4c0,0.1-0.1,0.2-0.1,0.4c-0.1,0.1-0.2,0.2-0.3,0.3
	c-0.1,0.1-0.3,0.1-0.4,0.1c-0.3,0-0.5-0.1-0.7-0.3c-0.2-0.2-0.3-0.5-0.3-0.8v-0.1c0-0.2,0-0.4,0.1-0.6c0.1-0.2,0.2-0.3,0.3-0.4
	c0.1-0.1,0.3-0.1,0.5-0.1c0.2,0,0.5,0.1,0.6,0.2c0.2,0.1,0.3,0.3,0.3,0.6h-0.4c0-0.1-0.1-0.3-0.2-0.4c-0.1-0.1-0.2-0.1-0.4-0.1
	c-0.2,0-0.3,0.1-0.5,0.2c-0.1,0.1-0.2,0.3-0.2,0.6v0.1c0,0.3,0.1,0.5,0.2,0.6C266.6,107.5,266.7,107.5,266.9,107.5z"/>
<path class="st4" d="M269.2,107.8c-0.3,0-0.5-0.1-0.7-0.3c-0.2-0.2-0.3-0.5-0.3-0.8v-0.1c0-0.2,0-0.4,0.1-0.6
	c0.1-0.2,0.2-0.3,0.4-0.4c0.2-0.1,0.3-0.1,0.5-0.1c0.3,0,0.5,0.1,0.7,0.3c0.2,0.2,0.2,0.5,0.2,0.8v0.2h-1.5c0,0.2,0.1,0.4,0.2,0.5
	c0.1,0.1,0.3,0.2,0.5,0.2c0.1,0,0.2,0,0.3-0.1c0.1-0.1,0.2-0.1,0.2-0.2l0.2,0.2C269.8,107.7,269.5,107.8,269.2,107.8z M269.1,105.8
	c-0.2,0-0.3,0.1-0.4,0.2c-0.1,0.1-0.2,0.3-0.2,0.5h1.1v0c0-0.2-0.1-0.3-0.2-0.4C269.4,105.9,269.3,105.8,269.1,105.8z"/>
<path class="st4" d="M271.5,105.9c-0.1,0-0.1,0-0.2,0c-0.2,0-0.4,0.1-0.5,0.3v1.6h-0.4v-2.2h0.4l0,0.3c0.1-0.2,0.3-0.3,0.5-0.3
	c0.1,0,0.1,0,0.2,0V105.9z"/>
<path class="st4" d="M273.2,107.8c0,0,0-0.1-0.1-0.2c-0.2,0.2-0.4,0.3-0.6,0.3c-0.2,0-0.4-0.1-0.5-0.2c-0.1-0.1-0.2-0.3-0.2-0.5
	c0-0.2,0.1-0.4,0.3-0.5c0.2-0.1,0.4-0.2,0.7-0.2h0.4v-0.2c0-0.1,0-0.2-0.1-0.3c-0.1-0.1-0.2-0.1-0.4-0.1c-0.1,0-0.2,0-0.3,0.1
	c-0.1,0.1-0.1,0.2-0.1,0.2h-0.4c0-0.1,0-0.2,0.1-0.3c0.1-0.1,0.2-0.2,0.3-0.2c0.1-0.1,0.3-0.1,0.4-0.1c0.3,0,0.5,0.1,0.6,0.2
	c0.1,0.1,0.2,0.3,0.2,0.5v1c0,0.2,0,0.4,0.1,0.5v0H273.2z M272.6,107.5c0.1,0,0.2,0,0.3-0.1c0.1-0.1,0.2-0.1,0.2-0.2v-0.5h-0.3
	c-0.5,0-0.7,0.1-0.7,0.4c0,0.1,0,0.2,0.1,0.3C272.3,107.5,272.4,107.5,272.6,107.5z"/>
<path class="st4" d="M274.6,105v0.5h0.4v0.3h-0.4v1.4c0,0.1,0,0.2,0.1,0.2c0,0,0.1,0.1,0.2,0.1c0,0,0.1,0,0.2,0v0.3
	c-0.1,0-0.2,0-0.3,0c-0.2,0-0.3-0.1-0.4-0.2c-0.1-0.1-0.1-0.2-0.1-0.4v-1.4h-0.4v-0.3h0.4V105H274.6z"/>
<path class="st4" d="M278.2,107H277l-0.3,0.8h-0.4l1.1-3h0.3l1.1,3h-0.4L278.2,107z M277.1,106.7h1l-0.5-1.4L277.1,106.7z"/>
<path class="st4" d="M279.7,107.8h-0.4v-3.2h0.4V107.8z"/>
<path class="st4" d="M280.7,107.8h-0.4v-2.2h0.4V107.8z M280.3,105c0-0.1,0-0.1,0.1-0.2c0,0,0.1-0.1,0.2-0.1c0.1,0,0.1,0,0.2,0.1
	c0,0,0.1,0.1,0.1,0.2c0,0.1,0,0.1-0.1,0.2c0,0-0.1,0.1-0.2,0.1c-0.1,0-0.1,0-0.2-0.1C280.3,105.1,280.3,105,280.3,105z"/>
<path class="st4" d="M281.2,106.7c0-0.3,0.1-0.6,0.2-0.8c0.2-0.2,0.4-0.3,0.6-0.3c0.3,0,0.5,0.1,0.6,0.3l0-0.2h0.3v3.1h-0.4v-1.1
	c-0.2,0.2-0.4,0.2-0.6,0.2c-0.3,0-0.5-0.1-0.6-0.3C281.3,107.3,281.2,107,281.2,106.7L281.2,106.7z M281.6,106.7
	c0,0.3,0.1,0.5,0.2,0.6c0.1,0.1,0.3,0.2,0.4,0.2c0.2,0,0.4-0.1,0.5-0.3v-1.1c-0.1-0.2-0.3-0.3-0.5-0.3c-0.2,0-0.3,0.1-0.4,0.2
	C281.6,106.2,281.6,106.4,281.6,106.7z"/>
<path class="st4" d="M285.1,107.6c-0.1,0.2-0.4,0.3-0.7,0.3c-0.2,0-0.4-0.1-0.5-0.2c-0.1-0.1-0.2-0.3-0.2-0.6v-1.4h0.4v1.4
	c0,0.3,0.1,0.5,0.4,0.5c0.3,0,0.5-0.1,0.6-0.3v-1.6h0.4v2.2h-0.4L285.1,107.6z"/>
<path class="st4" d="M287.4,107.8c0,0,0-0.1-0.1-0.2c-0.2,0.2-0.4,0.3-0.6,0.3c-0.2,0-0.4-0.1-0.5-0.2c-0.1-0.1-0.2-0.3-0.2-0.5
	c0-0.2,0.1-0.4,0.3-0.5c0.2-0.1,0.4-0.2,0.7-0.2h0.4v-0.2c0-0.1,0-0.2-0.1-0.3c-0.1-0.1-0.2-0.1-0.4-0.1c-0.1,0-0.2,0-0.3,0.1
	c-0.1,0.1-0.1,0.2-0.1,0.2H286c0-0.1,0-0.2,0.1-0.3c0.1-0.1,0.2-0.2,0.3-0.2c0.1-0.1,0.3-0.1,0.4-0.1c0.3,0,0.5,0.1,0.6,0.2
	c0.1,0.1,0.2,0.3,0.2,0.5v1c0,0.2,0,0.4,0.1,0.5v0H287.4z M286.8,107.5c0.1,0,0.2,0,0.3-0.1c0.1-0.1,0.2-0.1,0.2-0.2v-0.5H287
	c-0.5,0-0.7,0.1-0.7,0.4c0,0.1,0,0.2,0.1,0.3C286.5,107.5,286.6,107.5,286.8,107.5z"/>
<path class="st4" d="M288.7,105.6l0,0.2c0.2-0.2,0.4-0.3,0.7-0.3c0.3,0,0.5,0.1,0.6,0.4c0.1-0.1,0.2-0.2,0.3-0.3
	c0.1-0.1,0.3-0.1,0.4-0.1c0.5,0,0.7,0.3,0.7,0.8v1.5H291v-1.5c0-0.2,0-0.3-0.1-0.4c-0.1-0.1-0.2-0.1-0.4-0.1c-0.1,0-0.3,0-0.4,0.1
	c-0.1,0.1-0.1,0.2-0.2,0.3v1.5h-0.4v-1.5c0-0.3-0.2-0.5-0.5-0.5c-0.2,0-0.4,0.1-0.5,0.3v1.6h-0.4v-2.2H288.7z"/>
<path class="st4" d="M292.9,107.8c-0.3,0-0.5-0.1-0.7-0.3c-0.2-0.2-0.3-0.5-0.3-0.8v-0.1c0-0.2,0-0.4,0.1-0.6
	c0.1-0.2,0.2-0.3,0.4-0.4c0.2-0.1,0.3-0.1,0.5-0.1c0.3,0,0.5,0.1,0.7,0.3c0.2,0.2,0.2,0.5,0.2,0.8v0.2h-1.5c0,0.2,0.1,0.4,0.2,0.5
	c0.1,0.1,0.3,0.2,0.5,0.2c0.1,0,0.2,0,0.3-0.1c0.1-0.1,0.2-0.1,0.2-0.2l0.2,0.2C293.6,107.7,293.3,107.8,292.9,107.8z M292.9,105.8
	c-0.2,0-0.3,0.1-0.4,0.2c-0.1,0.1-0.2,0.3-0.2,0.5h1.1v0c0-0.2-0.1-0.3-0.2-0.4C293.2,105.9,293,105.8,292.9,105.8z"/>
<path class="st4" d="M295.3,105.9c-0.1,0-0.1,0-0.2,0c-0.2,0-0.4,0.1-0.5,0.3v1.6h-0.4v-2.2h0.4l0,0.3c0.1-0.2,0.3-0.3,0.5-0.3
	c0.1,0,0.1,0,0.2,0V105.9z"/>
<path class="st4" d="M296.4,107.2l0.5-1.7h0.4l-0.9,2.6c-0.1,0.4-0.4,0.6-0.7,0.6l-0.1,0l-0.1,0v-0.3l0.1,0c0.1,0,0.2,0,0.3-0.1
	s0.1-0.1,0.2-0.3l0.1-0.2l-0.8-2.2h0.4L296.4,107.2z"/>
<path class="st4" d="M174.2,115.2v-3h1c0.3,0,0.6,0.1,0.7,0.2c0.2,0.1,0.2,0.3,0.2,0.6c0,0.1,0,0.3-0.1,0.4
	c-0.1,0.1-0.2,0.2-0.3,0.2c0.2,0,0.3,0.1,0.4,0.3c0.1,0.1,0.1,0.3,0.1,0.5c0,0.3-0.1,0.5-0.3,0.6c-0.2,0.2-0.4,0.2-0.7,0.2H174.2z
	 M174.5,113.8v1.1h0.7c0.2,0,0.3,0,0.4-0.1c0.1-0.1,0.2-0.2,0.2-0.4c0-0.4-0.2-0.5-0.6-0.5H174.5z M174.5,113.4h0.6
	c0.2,0,0.3,0,0.4-0.1c0.1-0.1,0.2-0.2,0.2-0.4c0-0.2,0-0.3-0.1-0.4c-0.1-0.1-0.2-0.1-0.4-0.1h-0.6V113.4z"/>
<path class="st4" d="M177.1,115.2h-0.4v-2.2h0.4V115.2z M176.7,112.3c0-0.1,0-0.1,0.1-0.2c0,0,0.1-0.1,0.2-0.1c0.1,0,0.1,0,0.2,0.1
	c0,0,0.1,0.1,0.1,0.2c0,0.1,0,0.1-0.1,0.2c0,0-0.1,0.1-0.2,0.1c-0.1,0-0.1,0-0.2-0.1C176.7,112.5,176.7,112.4,176.7,112.3z"/>
<path class="st4" d="M179.6,114.1c0,0.3-0.1,0.6-0.2,0.8c-0.2,0.2-0.4,0.3-0.6,0.3c-0.3,0-0.5-0.1-0.7-0.3l0,0.3h-0.4V112h0.4v1.2
	c0.2-0.2,0.4-0.3,0.6-0.3s0.5,0.1,0.6,0.3C179.5,113.4,179.6,113.7,179.6,114.1L179.6,114.1z M179.2,114c0-0.3-0.1-0.5-0.1-0.6
	c-0.1-0.1-0.2-0.2-0.4-0.2c-0.3,0-0.4,0.1-0.5,0.3v1c0.1,0.2,0.3,0.3,0.5,0.3c0.2,0,0.3-0.1,0.4-0.2
	C179.2,114.5,179.2,114.3,179.2,114z"/>
<path class="st4" d="M181,115.2c-0.3,0-0.5-0.1-0.7-0.3c-0.2-0.2-0.3-0.5-0.3-0.8V114c0-0.2,0-0.4,0.1-0.6c0.1-0.2,0.2-0.3,0.4-0.4
	c0.2-0.1,0.3-0.1,0.5-0.1c0.3,0,0.5,0.1,0.7,0.3c0.2,0.2,0.2,0.5,0.2,0.8v0.2h-1.5c0,0.2,0.1,0.4,0.2,0.5c0.1,0.1,0.3,0.2,0.5,0.2
	c0.1,0,0.2,0,0.3-0.1s0.2-0.1,0.2-0.2l0.2,0.2C181.7,115.1,181.4,115.2,181,115.2z M181,113.2c-0.2,0-0.3,0.1-0.4,0.2
	c-0.1,0.1-0.2,0.3-0.2,0.5h1.1v0c0-0.2-0.1-0.3-0.2-0.4C181.3,113.3,181.1,113.2,181,113.2z"/>
<path class="st4" d="M182.7,112.9l0,0.3c0.2-0.2,0.4-0.3,0.7-0.3c0.5,0,0.7,0.3,0.7,0.8v1.5h-0.4v-1.5c0-0.2,0-0.3-0.1-0.4
	c-0.1-0.1-0.2-0.1-0.3-0.1c-0.1,0-0.2,0-0.3,0.1c-0.1,0.1-0.2,0.2-0.2,0.3v1.6h-0.4v-2.2H182.7z"/>
<path class="st4" d="M184.6,114c0-0.3,0.1-0.6,0.2-0.8c0.2-0.2,0.4-0.3,0.6-0.3c0.3,0,0.5,0.1,0.6,0.3V112h0.4v3.2h-0.3l0-0.2
	c-0.2,0.2-0.4,0.3-0.6,0.3c-0.3,0-0.5-0.1-0.6-0.3C184.6,114.7,184.6,114.4,184.6,114L184.6,114z M184.9,114.1
	c0,0.3,0.1,0.4,0.2,0.6c0.1,0.1,0.2,0.2,0.4,0.2c0.2,0,0.4-0.1,0.5-0.3v-1c-0.1-0.2-0.3-0.3-0.5-0.3c-0.2,0-0.3,0.1-0.4,0.2
	C185,113.6,184.9,113.8,184.9,114.1z"/>
<path class="st4" d="M188.4,114.9c-0.1,0.2-0.4,0.3-0.7,0.3c-0.2,0-0.4-0.1-0.5-0.2c-0.1-0.1-0.2-0.3-0.2-0.6v-1.4h0.4v1.4
	c0,0.3,0.1,0.5,0.4,0.5c0.3,0,0.5-0.1,0.6-0.3v-1.6h0.4v2.2h-0.4L188.4,114.9z"/>
<path class="st4" d="M189.7,112.9l0,0.2c0.2-0.2,0.4-0.3,0.7-0.3c0.3,0,0.5,0.1,0.6,0.4c0.1-0.1,0.2-0.2,0.3-0.3
	c0.1-0.1,0.3-0.1,0.4-0.1c0.5,0,0.7,0.3,0.7,0.8v1.5h-0.4v-1.5c0-0.2,0-0.3-0.1-0.4c-0.1-0.1-0.2-0.1-0.4-0.1c-0.1,0-0.3,0-0.4,0.1
	c-0.1,0.1-0.1,0.2-0.2,0.3v1.5h-0.4v-1.5c0-0.3-0.2-0.5-0.5-0.5c-0.2,0-0.4,0.1-0.5,0.3v1.6h-0.4v-2.2H189.7z"/>
<path class="st4" d="M195.8,113.8h-1.3v1.1h1.5v0.3h-1.9v-3h1.9v0.3h-1.5v1h1.3V113.8z"/>
<path class="st4" d="M196.9,115.2h-0.4V112h0.4V115.2z"/>
<path class="st4" d="M198.4,115.2c-0.3,0-0.5-0.1-0.7-0.3c-0.2-0.2-0.3-0.5-0.3-0.8V114c0-0.2,0-0.4,0.1-0.6
	c0.1-0.2,0.2-0.3,0.4-0.4c0.2-0.1,0.3-0.1,0.5-0.1c0.3,0,0.5,0.1,0.7,0.3c0.2,0.2,0.2,0.5,0.2,0.8v0.2h-1.5c0,0.2,0.1,0.4,0.2,0.5
	c0.1,0.1,0.3,0.2,0.5,0.2c0.1,0,0.2,0,0.3-0.1s0.2-0.1,0.2-0.2l0.2,0.2C199.1,115.1,198.8,115.2,198.4,115.2z M198.4,113.2
	c-0.2,0-0.3,0.1-0.4,0.2c-0.1,0.1-0.2,0.3-0.2,0.5h1.1v0c0-0.2-0.1-0.3-0.2-0.4C198.7,113.3,198.5,113.2,198.4,113.2z"/>
<path class="st4" d="M200.1,115.2h-0.4v-2.2h0.4V115.2z M199.7,112.3c0-0.1,0-0.1,0.1-0.2c0,0,0.1-0.1,0.2-0.1c0.1,0,0.1,0,0.2,0.1
	c0,0,0.1,0.1,0.1,0.2c0,0.1,0,0.1-0.1,0.2c0,0-0.1,0.1-0.2,0.1c-0.1,0-0.1,0-0.2-0.1C199.7,112.5,199.7,112.4,199.7,112.3z"/>
<path class="st4" d="M200.9,115.2v-1.9h-0.4v-0.3h0.4v-0.2c0-0.2,0.1-0.4,0.2-0.6c0.1-0.1,0.3-0.2,0.5-0.2c0.1,0,0.2,0,0.3,0l0,0.3
	c-0.1,0-0.1,0-0.2,0c-0.1,0-0.2,0-0.3,0.1c-0.1,0.1-0.1,0.2-0.1,0.3v0.2h0.5v0.3h-0.5v1.9H200.9z"/>
<path class="st4" d="M203.1,115.2c-0.3,0-0.5-0.1-0.7-0.3c-0.2-0.2-0.3-0.5-0.3-0.8V114c0-0.2,0-0.4,0.1-0.6
	c0.1-0.2,0.2-0.3,0.4-0.4c0.2-0.1,0.3-0.1,0.5-0.1c0.3,0,0.5,0.1,0.7,0.3c0.2,0.2,0.2,0.5,0.2,0.8v0.2h-1.5c0,0.2,0.1,0.4,0.2,0.5
	c0.1,0.1,0.3,0.2,0.5,0.2c0.1,0,0.2,0,0.3-0.1c0.1-0.1,0.2-0.1,0.2-0.2l0.2,0.2C203.7,115.1,203.5,115.2,203.1,115.2z M203,113.2
	c-0.2,0-0.3,0.1-0.4,0.2c-0.1,0.1-0.2,0.3-0.2,0.5h1.1v0c0-0.2-0.1-0.3-0.2-0.4C203.3,113.3,203.2,113.2,203,113.2z"/>
<path class="st4" d="M204.7,112.9l0,0.3c0.2-0.2,0.4-0.3,0.7-0.3c0.5,0,0.7,0.3,0.7,0.8v1.5h-0.4v-1.5c0-0.2,0-0.3-0.1-0.4
	c-0.1-0.1-0.2-0.1-0.3-0.1c-0.1,0-0.2,0-0.3,0.1c-0.1,0.1-0.2,0.2-0.2,0.3v1.6h-0.4v-2.2H204.7z"/>
<path class="st4" d="M206.6,114c0-0.3,0.1-0.6,0.2-0.8c0.2-0.2,0.4-0.3,0.6-0.3s0.5,0.1,0.6,0.3V112h0.4v3.2h-0.4l0-0.2
	c-0.2,0.2-0.4,0.3-0.6,0.3c-0.3,0-0.5-0.1-0.6-0.3C206.7,114.7,206.6,114.4,206.6,114L206.6,114z M207,114.1c0,0.3,0.1,0.4,0.2,0.6
	c0.1,0.1,0.2,0.2,0.4,0.2c0.2,0,0.4-0.1,0.5-0.3v-1c-0.1-0.2-0.3-0.3-0.5-0.3c-0.2,0-0.3,0.1-0.4,0.2
	C207.1,113.6,207,113.8,207,114.1z"/>
<path class="st4" d="M212.5,115.2h-0.4l-1.5-2.3v2.3h-0.4v-3h0.4l1.5,2.3v-2.3h0.4V115.2z"/>
<path class="st4" d="M213.5,115.2h-0.4v-2.2h0.4V115.2z M213.1,112.3c0-0.1,0-0.1,0.1-0.2c0,0,0.1-0.1,0.2-0.1c0.1,0,0.1,0,0.2,0.1
	c0,0,0.1,0.1,0.1,0.2c0,0.1,0,0.1-0.1,0.2c0,0-0.1,0.1-0.2,0.1c-0.1,0-0.1,0-0.2-0.1C213.1,112.5,213.1,112.4,213.1,112.3z"/>
<path class="st4" d="M215.4,114.6c0-0.1,0-0.2-0.1-0.2c-0.1-0.1-0.2-0.1-0.4-0.1c-0.2,0-0.3-0.1-0.5-0.1c-0.1-0.1-0.2-0.1-0.3-0.2
	c-0.1-0.1-0.1-0.2-0.1-0.3c0-0.2,0.1-0.3,0.2-0.5c0.2-0.1,0.4-0.2,0.6-0.2c0.3,0,0.5,0.1,0.6,0.2c0.2,0.1,0.2,0.3,0.2,0.5h-0.4
	c0-0.1,0-0.2-0.1-0.3c-0.1-0.1-0.2-0.1-0.3-0.1c-0.1,0-0.2,0-0.3,0.1c-0.1,0.1-0.1,0.1-0.1,0.2c0,0.1,0,0.2,0.1,0.2
	c0.1,0,0.2,0.1,0.4,0.1c0.2,0,0.3,0.1,0.5,0.2c0.1,0.1,0.2,0.1,0.3,0.2c0.1,0.1,0.1,0.2,0.1,0.3c0,0.2-0.1,0.4-0.2,0.5
	c-0.2,0.1-0.4,0.2-0.6,0.2c-0.2,0-0.3,0-0.5-0.1c-0.1-0.1-0.2-0.2-0.3-0.3c-0.1-0.1-0.1-0.2-0.1-0.4h0.4c0,0.1,0.1,0.2,0.2,0.3
	c0.1,0.1,0.2,0.1,0.4,0.1c0.1,0,0.3,0,0.3-0.1C215.4,114.7,215.4,114.7,215.4,114.6z"/>
<path class="st4" d="M216.7,115.2h-0.4v-2.2h0.4V115.2z M216.3,112.3c0-0.1,0-0.1,0.1-0.2c0,0,0.1-0.1,0.2-0.1c0.1,0,0.1,0,0.2,0.1
	c0,0,0.1,0.1,0.1,0.2c0,0.1,0,0.1-0.1,0.2c0,0-0.1,0.1-0.2,0.1c-0.1,0-0.1,0-0.2-0.1C216.3,112.5,216.3,112.4,216.3,112.3z"/>
<path class="st4" d="M218.1,114.6l0.6-1.7h0.4l-0.8,2.2h-0.3l-0.8-2.2h0.4L218.1,114.6z"/>
<path class="st4" d="M220.3,115.2c-0.3,0-0.5-0.1-0.7-0.3c-0.2-0.2-0.3-0.5-0.3-0.8V114c0-0.2,0-0.4,0.1-0.6
	c0.1-0.2,0.2-0.3,0.4-0.4c0.2-0.1,0.3-0.1,0.5-0.1c0.3,0,0.5,0.1,0.7,0.3c0.2,0.2,0.2,0.5,0.2,0.8v0.2h-1.5c0,0.2,0.1,0.4,0.2,0.5
	c0.1,0.1,0.3,0.2,0.5,0.2c0.1,0,0.2,0,0.3-0.1c0.1-0.1,0.2-0.1,0.2-0.2l0.2,0.2C220.9,115.1,220.6,115.2,220.3,115.2z M220.2,113.2
	c-0.2,0-0.3,0.1-0.4,0.2c-0.1,0.1-0.2,0.3-0.2,0.5h1.1v0c0-0.2-0.1-0.3-0.2-0.4C220.5,113.3,220.4,113.2,220.2,113.2z"/>
<path class="st4" d="M221.9,112.9l0,0.3c0.2-0.2,0.4-0.3,0.7-0.3c0.5,0,0.7,0.3,0.7,0.8v1.5H223v-1.5c0-0.2,0-0.3-0.1-0.4
	c-0.1-0.1-0.2-0.1-0.3-0.1c-0.1,0-0.2,0-0.3,0.1c-0.1,0.1-0.2,0.2-0.2,0.3v1.6h-0.4v-2.2H221.9z"/>
<path class="st4" d="M224.8,115.2c-0.3,0-0.5-0.1-0.7-0.3c-0.2-0.2-0.3-0.5-0.3-0.8V114c0-0.2,0-0.4,0.1-0.6
	c0.1-0.2,0.2-0.3,0.4-0.4c0.2-0.1,0.3-0.1,0.5-0.1c0.3,0,0.5,0.1,0.7,0.3c0.2,0.2,0.2,0.5,0.2,0.8v0.2h-1.5c0,0.2,0.1,0.4,0.2,0.5
	c0.1,0.1,0.3,0.2,0.5,0.2c0.1,0,0.2,0,0.3-0.1c0.1-0.1,0.2-0.1,0.2-0.2l0.2,0.2C225.5,115.1,225.2,115.2,224.8,115.2z M224.8,113.2
	c-0.2,0-0.3,0.1-0.4,0.2c-0.1,0.1-0.2,0.3-0.2,0.5h1.1v0c0-0.2-0.1-0.3-0.2-0.4C225.1,113.3,224.9,113.2,224.8,113.2z"/>
<path class="st4" d="M226.5,112.9l0,0.3c0.2-0.2,0.4-0.3,0.7-0.3c0.5,0,0.7,0.3,0.7,0.8v1.5h-0.4v-1.5c0-0.2,0-0.3-0.1-0.4
	c-0.1-0.1-0.2-0.1-0.3-0.1c-0.1,0-0.2,0-0.3,0.1c-0.1,0.1-0.2,0.2-0.2,0.3v1.6h-0.4v-2.2H226.5z"/>
<path class="st4" d="M229.8,115.2c0,0,0-0.1-0.1-0.2c-0.2,0.2-0.4,0.3-0.6,0.3c-0.2,0-0.4-0.1-0.5-0.2c-0.1-0.1-0.2-0.3-0.2-0.5
	c0-0.2,0.1-0.4,0.3-0.5c0.2-0.1,0.4-0.2,0.7-0.2h0.4v-0.2c0-0.1,0-0.2-0.1-0.3c-0.1-0.1-0.2-0.1-0.4-0.1c-0.1,0-0.2,0-0.3,0.1
	c-0.1,0.1-0.1,0.2-0.1,0.2h-0.4c0-0.1,0-0.2,0.1-0.3c0.1-0.1,0.2-0.2,0.3-0.2c0.1-0.1,0.3-0.1,0.4-0.1c0.3,0,0.5,0.1,0.6,0.2
	c0.1,0.1,0.2,0.3,0.2,0.5v1c0,0.2,0,0.4,0.1,0.5v0H229.8z M229.2,114.9c0.1,0,0.2,0,0.3-0.1c0.1-0.1,0.2-0.1,0.2-0.2v-0.5h-0.3
	c-0.5,0-0.7,0.1-0.7,0.4c0,0.1,0,0.2,0.1,0.3C229,114.8,229.1,114.9,229.2,114.9z"/>
<path class="st4" d="M231.3,112.4v0.5h0.4v0.3h-0.4v1.4c0,0.1,0,0.2,0.1,0.2c0,0,0.1,0.1,0.2,0.1c0,0,0.1,0,0.2,0v0.3
	c-0.1,0-0.2,0-0.3,0c-0.2,0-0.3-0.1-0.4-0.2c-0.1-0.1-0.1-0.2-0.1-0.4v-1.4h-0.4v-0.3h0.4v-0.5H231.3z"/>
<path class="st4" d="M232.5,115.2h-0.4v-2.2h0.4V115.2z M232.1,112.3c0-0.1,0-0.1,0.1-0.2c0,0,0.1-0.1,0.2-0.1c0.1,0,0.1,0,0.2,0.1
	c0,0,0.1,0.1,0.1,0.2c0,0.1,0,0.1-0.1,0.2c0,0-0.1,0.1-0.2,0.1c-0.1,0-0.1,0-0.2-0.1C232.1,112.5,232.1,112.4,232.1,112.3z"/>
<path class="st4" d="M234.4,114.6c0-0.1,0-0.2-0.1-0.2c-0.1-0.1-0.2-0.1-0.4-0.1c-0.2,0-0.3-0.1-0.5-0.1c-0.1-0.1-0.2-0.1-0.2-0.2
	c-0.1-0.1-0.1-0.2-0.1-0.3c0-0.2,0.1-0.3,0.2-0.5c0.2-0.1,0.4-0.2,0.6-0.2c0.3,0,0.5,0.1,0.6,0.2c0.2,0.1,0.2,0.3,0.2,0.5h-0.4
	c0-0.1,0-0.2-0.1-0.3c-0.1-0.1-0.2-0.1-0.3-0.1c-0.1,0-0.2,0-0.3,0.1c-0.1,0.1-0.1,0.1-0.1,0.2c0,0.1,0,0.2,0.1,0.2
	c0.1,0,0.2,0.1,0.4,0.1c0.2,0,0.3,0.1,0.5,0.2c0.1,0.1,0.2,0.1,0.3,0.2c0.1,0.1,0.1,0.2,0.1,0.3c0,0.2-0.1,0.4-0.2,0.5
	c-0.2,0.1-0.4,0.2-0.6,0.2c-0.2,0-0.3,0-0.5-0.1c-0.1-0.1-0.2-0.2-0.3-0.3c-0.1-0.1-0.1-0.2-0.1-0.4h0.4c0,0.1,0.1,0.2,0.2,0.3
	c0.1,0.1,0.2,0.1,0.4,0.1c0.1,0,0.3,0,0.3-0.1C234.4,114.7,234.4,114.7,234.4,114.6z"/>
<path class="st4" d="M237.4,114.6l0.9-2.5h0.4l-1.1,3h-0.3l-1.1-3h0.4L237.4,114.6z"/>
<path class="st4" d="M239.9,115.2c-0.3,0-0.5-0.1-0.7-0.3c-0.2-0.2-0.3-0.5-0.3-0.8V114c0-0.2,0-0.4,0.1-0.6
	c0.1-0.2,0.2-0.3,0.4-0.4c0.2-0.1,0.3-0.1,0.5-0.1c0.3,0,0.5,0.1,0.7,0.3c0.2,0.2,0.2,0.5,0.2,0.8v0.2h-1.5c0,0.2,0.1,0.4,0.2,0.5
	c0.1,0.1,0.3,0.2,0.5,0.2c0.1,0,0.2,0,0.3-0.1s0.2-0.1,0.2-0.2l0.2,0.2C240.5,115.1,240.2,115.2,239.9,115.2z M239.8,113.2
	c-0.2,0-0.3,0.1-0.4,0.2c-0.1,0.1-0.2,0.3-0.2,0.5h1.1v0c0-0.2-0.1-0.3-0.2-0.4C240.1,113.3,240,113.2,239.8,113.2z"/>
<path class="st4" d="M241.6,115.2h-0.4V112h0.4V115.2z"/>
<path class="st4" d="M242.6,115.2h-0.4v-2.2h0.4V115.2z M242.2,112.3c0-0.1,0-0.1,0.1-0.2c0,0,0.1-0.1,0.2-0.1c0.1,0,0.1,0,0.2,0.1
	c0,0,0.1,0.1,0.1,0.2c0,0.1,0,0.1-0.1,0.2c0,0-0.1,0.1-0.2,0.1c-0.1,0-0.1,0-0.2-0.1C242.2,112.5,242.2,112.4,242.2,112.3z"/>
<path class="st4" d="M243.7,112.4v0.5h0.4v0.3h-0.4v1.4c0,0.1,0,0.2,0.1,0.2c0,0,0.1,0.1,0.2,0.1c0,0,0.1,0,0.2,0v0.3
	c-0.1,0-0.2,0-0.3,0c-0.2,0-0.3-0.1-0.4-0.2c-0.1-0.1-0.1-0.2-0.1-0.4v-1.4H243v-0.3h0.4v-0.5H243.7z"/>
<path class="st4" d="M244.6,115c0-0.1,0-0.1,0.1-0.2s0.1-0.1,0.2-0.1s0.1,0,0.2,0.1c0,0,0.1,0.1,0.1,0.2c0,0.1,0,0.1-0.1,0.2
	c0,0-0.1,0.1-0.2,0.1s-0.1,0-0.2-0.1C244.6,115.1,244.6,115,244.6,115z"/>
<path d="M175.4,71.2l0.9,0l0.7-2.6l0.7,2.6h0.9l1-3.7h-0.8l-0.7,2.8l-0.7-2.8h-0.8l-0.7,2.9l-0.6-2.9h-0.8L175.4,71.2z"/>
<path d="M180.1,71.2h0.7v-1.6c0-0.5,0.3-0.7,0.7-0.7c0.4,0,0.6,0.3,0.6,0.7v1.6h0.7v-1.7c0-0.8-0.5-1.2-1.1-1.2
	c-0.4,0-0.7,0.2-0.9,0.4v-1.3h-0.7V71.2z"/>
<path d="M184.8,68.9c0.4,0,0.7,0.2,0.7,0.6h-1.4C184.2,69.1,184.5,68.9,184.8,68.9z M186.2,70.3h-0.8c-0.1,0.2-0.3,0.4-0.6,0.4
	c-0.4,0-0.7-0.2-0.7-0.7h2.1c0-0.1,0-0.2,0-0.3c0-0.9-0.6-1.4-1.4-1.4c-0.9,0-1.5,0.6-1.5,1.5c0,0.9,0.6,1.5,1.5,1.5
	C185.5,71.3,186,70.8,186.2,70.3z"/>
<path d="M188.8,71.2h0.7v-1.7c0-0.8-0.5-1.2-1.2-1.2c-0.4,0-0.7,0.2-0.9,0.4v-0.4h-0.7v2.9h0.7v-1.6c0-0.5,0.3-0.7,0.7-0.7
	c0.4,0,0.6,0.3,0.6,0.7V71.2z"/>
<path d="M191.5,69.8c0,1,0.7,1.4,1.5,1.4c0.8,0,1.5-0.5,1.5-1.4v-2.3h-0.7v2.3c0,0.5-0.3,0.8-0.7,0.8c-0.5,0-0.7-0.3-0.7-0.8v-2.3
	h-0.7V69.8z"/>
<path d="M197.2,71.2h0.7v-1.7c0-0.8-0.5-1.2-1.2-1.2c-0.4,0-0.7,0.2-0.9,0.4v-0.4h-0.7v2.9h0.7v-1.6c0-0.5,0.3-0.7,0.7-0.7
	c0.4,0,0.6,0.3,0.6,0.7V71.2z"/>
<path d="M198.7,71.2h0.7V70l1,1.2h1l-1.3-1.5l1.3-1.5h-1l-1,1.2v-2.2h-0.7V71.2z"/>
<path d="M203.8,71.2h0.7v-1.7c0-0.8-0.5-1.2-1.2-1.2c-0.4,0-0.7,0.2-0.9,0.4v-0.4h-0.7v2.9h0.7v-1.6c0-0.5,0.3-0.7,0.7-0.7
	c0.4,0,0.6,0.3,0.6,0.7V71.2z"/>
<path d="M208,69.8c0-0.9-0.7-1.5-1.5-1.5c-0.8,0-1.5,0.6-1.5,1.5c0,0.9,0.6,1.5,1.5,1.5C207.4,71.3,208,70.7,208,69.8z M205.8,69.8
	c0-0.6,0.4-0.9,0.7-0.9c0.4,0,0.8,0.3,0.8,0.9c0,0.6-0.4,0.9-0.8,0.9C206.1,70.6,205.8,70.3,205.8,69.8z"/>
<path d="M209.1,71.2h0.8l0.5-2l0.5,2h0.8l0.9-2.9h-0.7l-0.5,2.2l-0.5-2.2h-0.8l-0.6,2.2l-0.5-2.2h-0.7L209.1,71.2z"/>
<path d="M215.1,71.2h0.7v-1.7c0-0.8-0.5-1.2-1.2-1.2c-0.4,0-0.7,0.2-0.9,0.4v-0.4H213v2.9h0.7v-1.6c0-0.5,0.3-0.7,0.7-0.7
	c0.4,0,0.6,0.3,0.6,0.7V71.2z"/>
<path d="M218.5,69.2v-1.1h0.6c0.4,0,0.6,0.2,0.6,0.5c0,0.3-0.2,0.5-0.6,0.5H218.5z M220.4,68.7c0-0.6-0.4-1.1-1.3-1.1h-1.4v3.7h0.7
	v-1.4h0.6C220,69.8,220.4,69.2,220.4,68.7z"/>
<path d="M221.7,69.8c0-0.6,0.3-0.7,0.7-0.7h0.2v-0.8c-0.4,0-0.7,0.2-0.9,0.5v-0.5h-0.7v2.9h0.7V69.8z"/>
<path d="M223.1,71.2h0.7v-2.9h-0.7V71.2z M223.4,68c0.3,0,0.5-0.2,0.5-0.4c0-0.2-0.2-0.4-0.5-0.4c-0.3,0-0.5,0.2-0.5,0.4
	C223,67.8,223.2,68,223.4,68z"/>
<path d="M226.6,71.2h0.7v-1.7c0-0.8-0.5-1.2-1.2-1.2c-0.4,0-0.7,0.2-0.9,0.4v-0.4h-0.7v2.9h0.7v-1.6c0-0.5,0.3-0.7,0.7-0.7
	c0.4,0,0.6,0.3,0.6,0.7V71.2z"/>
<path d="M228.1,70.3c0,0.7,0.4,0.9,0.9,0.9h0.5v-0.6h-0.3c-0.2,0-0.3-0.1-0.3-0.3v-1.4h0.7v-0.6h-0.7v-0.7h-0.7v0.7h-0.3v0.6h0.3
	V70.3z"/>
<path d="M231.3,68.9c0.4,0,0.7,0.2,0.7,0.6h-1.4C230.7,69.1,230.9,68.9,231.3,68.9z M232.7,70.3h-0.8c-0.1,0.2-0.3,0.4-0.6,0.4
	c-0.4,0-0.7-0.2-0.7-0.7h2.1c0-0.1,0-0.2,0-0.3c0-0.9-0.6-1.4-1.4-1.4c-0.9,0-1.5,0.6-1.5,1.5c0,0.9,0.6,1.5,1.5,1.5
	C232,71.3,232.5,70.8,232.7,70.3z"/>
<path d="M234,69.8c0-0.6,0.3-0.7,0.7-0.7h0.2v-0.8c-0.4,0-0.7,0.2-0.9,0.5v-0.5h-0.7v2.9h0.7V69.8z"/>
<path d="M236.5,68.1h1v3.1h0.7v-3.1h1v-0.6h-2.7V68.1z"/>
<path d="M242.5,69.8c0-0.9-0.7-1.5-1.5-1.5c-0.8,0-1.5,0.6-1.5,1.5c0,0.9,0.6,1.5,1.5,1.5C241.8,71.3,242.5,70.7,242.5,69.8z
	 M240.3,69.8c0-0.6,0.4-0.9,0.7-0.9c0.4,0,0.8,0.3,0.8,0.9c0,0.6-0.4,0.9-0.8,0.9C240.6,70.6,240.3,70.3,240.3,69.8z"/>
<path d="M245.9,69.8c0-0.9-0.7-1.5-1.5-1.5c-0.8,0-1.5,0.6-1.5,1.5c0,0.9,0.6,1.5,1.5,1.5C245.2,71.3,245.9,70.7,245.9,69.8z
	 M243.6,69.8c0-0.6,0.4-0.9,0.7-0.9c0.4,0,0.8,0.3,0.8,0.9c0,0.6-0.4,0.9-0.8,0.9C244,70.6,243.6,70.3,243.6,69.8z"/>
<path d="M246.4,71.2h0.7V70l1,1.2h1l-1.3-1.5l1.3-1.5h-1l-1,1.2v-2.2h-0.7V71.2z"/>
<path d="M252.4,67.5c-1.1,0-1.9,0.8-1.9,1.9c0,1.1,0.8,1.9,1.9,1.9c1,0,1.6-0.7,1.8-1.4v-0.6h-2v0.6h1.3c-0.1,0.5-0.5,0.8-1,0.8
	c-0.7,0-1.1-0.5-1.1-1.2c0-0.7,0.5-1.2,1.1-1.2c0.4,0,0.7,0.2,0.9,0.5h0.8C253.9,67.9,253.2,67.5,252.4,67.5z"/>
<path d="M254.6,69.7c0,0.9,0.6,1.5,1.3,1.5c0.5,0,0.8-0.2,1-0.5v0.4h0.7v-2.9h-0.7v0.4c-0.2-0.2-0.5-0.5-1-0.5
	C255.2,68.3,254.6,68.8,254.6,69.7z M256.9,69.8c0,0.6-0.4,0.9-0.8,0.9c-0.4,0-0.8-0.3-0.8-0.9c0-0.6,0.4-0.8,0.8-0.8
	C256.5,68.9,256.9,69.2,256.9,69.8z"/>
<path d="M258.3,71.2h0.7v-3.9h-0.7V71.2z"/>
<path d="M259.8,71.2h0.7v-3.9h-0.7V71.2z"/>
<path d="M262.5,68.9c0.4,0,0.7,0.2,0.7,0.6h-1.4C261.9,69.1,262.2,68.9,262.5,68.9z M263.9,70.3h-0.8c-0.1,0.2-0.3,0.4-0.6,0.4
	c-0.4,0-0.7-0.2-0.7-0.7h2.1c0-0.1,0-0.2,0-0.3c0-0.9-0.6-1.4-1.4-1.4c-0.9,0-1.5,0.6-1.5,1.5c0,0.9,0.6,1.5,1.5,1.5
	C263.3,71.3,263.7,70.8,263.9,70.3z"/>
<path d="M265.8,70.3l-0.8-2h-0.8l1.2,2.8l-0.6,1.5h0.8l1.8-4.3h-0.8L265.8,70.3z"/>
<path d="M272.5,69.4c0-1.1-0.8-1.9-1.9-1.9c-1,0-1.9,0.8-1.9,1.9c0,1.1,0.8,1.9,1.9,1.9C271.7,71.2,272.5,70.5,272.5,69.4z
	 M269.5,69.4c0-0.7,0.5-1.2,1.1-1.2c0.7,0,1.1,0.5,1.1,1.2c0,0.7-0.5,1.2-1.1,1.2C270,70.6,269.5,70.1,269.5,69.4z"/>
<path d="M273.2,71.2h0.7v-2.3h0.5v-0.6h-0.5v-0.1c0-0.3,0.1-0.4,0.5-0.4v-0.6c-0.8,0-1.2,0.3-1.2,1v0.1h-0.3v0.6h0.3V71.2z"/>
<path d="M275,71.2h0.7v-2.3h0.5v-0.6h-0.5v-0.1c0-0.3,0.1-0.4,0.5-0.4v-0.6c-0.8,0-1.2,0.3-1.2,1v0.1h-0.3v0.6h0.3V71.2z"/>
<path d="M278,68.9c0.4,0,0.7,0.2,0.7,0.6h-1.4C277.3,69.1,277.6,68.9,278,68.9z M279.3,70.3h-0.8c-0.1,0.2-0.3,0.4-0.6,0.4
	c-0.4,0-0.7-0.2-0.7-0.7h2.1c0-0.1,0-0.2,0-0.3c0-0.9-0.6-1.4-1.4-1.4c-0.9,0-1.5,0.6-1.5,1.5c0,0.9,0.6,1.5,1.5,1.5
	C278.7,71.3,279.2,70.8,279.3,70.3z"/>
<path d="M280.7,69.8c0-0.6,0.3-0.7,0.7-0.7h0.2v-0.8c-0.4,0-0.7,0.2-0.9,0.5v-0.5h-0.7v2.9h0.7V69.8z"/>
<path d="M177.3,78c0-1.3-1.9-0.9-1.9-1.6c0-0.3,0.2-0.4,0.5-0.4c0.3,0,0.5,0.2,0.5,0.4h0.8c0-0.7-0.6-1-1.3-1
	c-0.8,0-1.3,0.4-1.3,1.1c0,1.3,1.9,0.9,1.9,1.6c0,0.3-0.2,0.4-0.6,0.4c-0.3,0-0.5-0.2-0.6-0.5h-0.8c0,0.7,0.6,1.1,1.4,1.1
	C176.8,79.1,177.3,78.6,177.3,78z"/>
<path d="M177.7,77.6c0,0.9,0.6,1.5,1.4,1.5c0.7,0,1.2-0.4,1.4-1h-0.8c-0.1,0.3-0.3,0.4-0.6,0.4c-0.4,0-0.7-0.3-0.7-0.9
	s0.3-0.9,0.7-0.9c0.3,0,0.5,0.2,0.6,0.4h0.8c-0.2-0.7-0.6-1-1.4-1C178.3,76.1,177.7,76.7,177.7,77.6z"/>
<path d="M181.8,77.6c0-0.6,0.3-0.7,0.7-0.7h0.2v-0.8c-0.4,0-0.7,0.2-0.9,0.5v-0.5h-0.7v2.9h0.7V77.6z"/>
<path d="M183,77.6c0,0.9,0.6,1.5,1.3,1.5c0.5,0,0.8-0.2,1-0.5v0.4h0.7v-2.9h-0.7v0.4c-0.2-0.2-0.5-0.5-1-0.5
	C183.6,76.1,183,76.7,183,77.6z M185.3,77.6c0,0.6-0.4,0.9-0.8,0.9c-0.4,0-0.8-0.3-0.8-0.9c0-0.6,0.4-0.8,0.8-0.8
	C184.9,76.8,185.3,77.1,185.3,77.6z"/>
<path d="M190.8,79.1h0.7v-1.7c0-0.8-0.5-1.2-1.2-1.2c-0.4,0-0.8,0.2-1,0.6c-0.2-0.4-0.6-0.6-1-0.6c-0.4,0-0.7,0.2-0.9,0.4v-0.4h-0.7
	v2.9h0.7v-1.6c0-0.5,0.3-0.7,0.7-0.7c0.4,0,0.6,0.2,0.6,0.7v1.6h0.7v-1.6c0-0.5,0.3-0.7,0.7-0.7c0.4,0,0.6,0.2,0.6,0.7V79.1z"/>
<path d="M193,76.6v-1.4h-0.7v3.9h0.7v-0.4c0.2,0.3,0.5,0.5,1,0.5c0.7,0,1.3-0.6,1.3-1.5c0-0.9-0.6-1.5-1.3-1.5
	C193.5,76.1,193.2,76.3,193,76.6z M194.5,77.6c0,0.6-0.4,0.9-0.8,0.9c-0.4,0-0.8-0.3-0.8-0.9c0-0.6,0.4-0.9,0.8-0.9
	C194.2,76.8,194.5,77.1,194.5,77.6z"/>
<path d="M195.8,79.1h0.7v-3.9h-0.7V79.1z"/>
<path d="M198.5,76.7c0.4,0,0.7,0.2,0.7,0.6h-1.4C197.9,77,198.2,76.7,198.5,76.7z M199.9,78.2h-0.8c-0.1,0.2-0.3,0.4-0.6,0.4
	c-0.4,0-0.7-0.2-0.7-0.7h2.1c0-0.1,0-0.2,0-0.3c0-0.9-0.6-1.4-1.4-1.4c-0.9,0-1.5,0.6-1.5,1.5c0,0.9,0.6,1.5,1.5,1.5
	C199.3,79.1,199.8,78.7,199.9,78.2z"/>
<path d="M200.3,77.6c0,0.9,0.6,1.5,1.3,1.5c0.5,0,0.8-0.2,1-0.5v0.4h0.7v-3.9h-0.7v1.4c-0.2-0.3-0.6-0.5-1-0.5
	C200.9,76.1,200.3,76.7,200.3,77.6z M202.6,77.6c0,0.6-0.4,0.9-0.8,0.9c-0.4,0-0.8-0.3-0.8-0.9c0-0.6,0.4-0.8,0.8-0.8
	C202.3,76.8,202.6,77.1,202.6,77.6z"/>
<path d="M205.4,79.1h0.7v-1.6h1.2V77h-1.2V76h1.5v-0.6h-2.3V79.1z"/>
<path d="M211,77.6c0-0.9-0.7-1.5-1.5-1.5c-0.8,0-1.5,0.6-1.5,1.5c0,0.9,0.6,1.5,1.5,1.5C210.3,79.1,211,78.6,211,77.6z M208.7,77.6
	c0-0.6,0.4-0.9,0.7-0.9c0.4,0,0.8,0.3,0.8,0.9c0,0.6-0.4,0.9-0.8,0.9C209,78.5,208.7,78.2,208.7,77.6z"/>
<path d="M211.5,79.1h0.7v-3.9h-0.7V79.1z"/>
<path d="M213,79.1h0.7v-3.9H213V79.1z"/>
<path d="M217.2,77.6c0-0.9-0.7-1.5-1.5-1.5c-0.8,0-1.5,0.6-1.5,1.5c0,0.9,0.6,1.5,1.5,1.5C216.6,79.1,217.2,78.6,217.2,77.6z
	 M215,77.6c0-0.6,0.4-0.9,0.7-0.9c0.4,0,0.8,0.3,0.8,0.9c0,0.6-0.4,0.9-0.8,0.9C215.3,78.5,215,78.2,215,77.6z"/>
<path d="M218.3,79.1h0.8l0.5-2l0.5,2h0.8l0.9-2.9h-0.7l-0.5,2.2l-0.5-2.2h-0.8l-0.6,2.2l-0.5-2.2h-0.7L218.3,79.1z"/>
<path d="M223.5,77.7c0,1,0.7,1.4,1.5,1.4c0.8,0,1.5-0.5,1.5-1.4v-2.3h-0.7v2.3c0,0.5-0.3,0.8-0.7,0.8c-0.5,0-0.7-0.3-0.7-0.8v-2.3
	h-0.7V77.7z"/>
<path d="M229.4,78.3c0-1.1-1.6-0.7-1.6-1.3c0-0.2,0.1-0.3,0.4-0.3c0.3,0,0.5,0.2,0.5,0.4h0.7c0-0.6-0.5-1-1.2-1
	c-0.7,0-1.2,0.4-1.2,0.9c0,1.1,1.6,0.7,1.6,1.3c0,0.2-0.2,0.3-0.4,0.3c-0.3,0-0.5-0.2-0.5-0.4H227c0,0.5,0.5,1,1.3,1
	C229,79.1,229.4,78.8,229.4,78.3z"/>
<path d="M230.8,78.7c0-0.2-0.2-0.4-0.4-0.4c-0.3,0-0.5,0.2-0.5,0.4s0.2,0.4,0.5,0.4C230.6,79.1,230.8,78.9,230.8,78.7z"/>
<linearGradient id="SVGID_1_" gradientUnits="userSpaceOnUse" x1="198.782" y1="105.4803" x2="170.386" y2="105.4803" gradientTransform="matrix(1 0 0 -1 0 162)">
	<stop  offset="0" style="stop-color:#361ECB"/>
	<stop  offset="1" style="stop-color:#A383FF"/>
</linearGradient>
<path class="st5" d="M174.1,53.4c0-0.3,0.2-0.5,0.5-0.5h23.7c0.3,0,0.5,0.2,0.5,0.5v6.3c0,0.3-0.2,0.5-0.5,0.5h-23.7
	c-0.3,0-0.5-0.2-0.5-0.5V53.4z"/>
<path class="st1" d="M179.1,57h-0.9l-0.2,0.6h-0.4l0.9-2.4h0.4l0.9,2.4h-0.4L179.1,57z M178.3,56.7h0.7l-0.4-1L178.3,56.7z"/>
<path class="st1" d="M181.9,57.6h-0.4l-1.1-1.7v1.7H180v-2.4h0.4l1.1,1.7v-1.7h0.4V57.6z"/>
<path class="st1" d="M182.9,57.6h-0.4v-2.4h0.4V57.6z"/>
<path class="st1" d="M183.9,55.1l0.7,1.9l0.7-1.9h0.5v2.4h-0.4v-0.8l0-1.1l-0.7,1.9h-0.3l-0.7-1.9l0,1.1v0.8h-0.4v-2.4H183.9z"/>
<path class="st1" d="M187.8,57h-0.9l-0.2,0.6h-0.4l0.9-2.4h0.4l0.9,2.4H188L187.8,57z M187,56.7h0.7l-0.4-1L187,56.7z"/>
<path class="st1" d="M190.3,55.5h-0.8v2.1h-0.4v-2.1h-0.8v-0.3h1.9V55.5z"/>
<path class="st1" d="M191,57.6h-0.4v-2.4h0.4V57.6z"/>
<path class="st1" d="M193.5,56.4c0,0.2,0,0.4-0.1,0.6c-0.1,0.2-0.2,0.3-0.4,0.4c-0.2,0.1-0.3,0.1-0.5,0.1c-0.2,0-0.4,0-0.5-0.1
	c-0.2-0.1-0.3-0.2-0.4-0.4c-0.1-0.2-0.1-0.4-0.1-0.6v-0.1c0-0.2,0-0.4,0.1-0.6c0.1-0.2,0.2-0.3,0.4-0.4c0.2-0.1,0.3-0.1,0.5-0.1
	s0.4,0,0.5,0.1c0.2,0.1,0.3,0.2,0.4,0.4c0.1,0.2,0.1,0.4,0.1,0.6V56.4z M193.1,56.3c0-0.3-0.1-0.5-0.2-0.6c-0.1-0.1-0.2-0.2-0.4-0.2
	c-0.2,0-0.3,0.1-0.4,0.2c-0.1,0.1-0.2,0.3-0.2,0.6v0.1c0,0.3,0.1,0.5,0.2,0.6c0.1,0.1,0.2,0.2,0.4,0.2c0.2,0,0.3-0.1,0.4-0.2
	c0.1-0.1,0.2-0.4,0.2-0.6V56.3z"/>
<path class="st1" d="M195.8,57.6h-0.4l-1.1-1.7v1.7h-0.4v-2.4h0.4l1.1,1.7v-1.7h0.4V57.6z"/>
<path class="st6" d="M215.9,124.6h-40.8c-0.4,0-0.8,0.4-0.8,0.8v11c0,0.4,0.4,0.8,0.8,0.8h40.8c0.4,0,0.8-0.4,0.8-0.8v-11
	C216.7,125,216.3,124.6,215.9,124.6z M175.1,124.4c-0.6,0-1.1,0.5-1.1,1.1v11c0,0.6,0.5,1.1,1.1,1.1h40.8c0.6,0,1.1-0.5,1.1-1.1v-11
	c0-0.6-0.5-1.1-1.1-1.1H175.1z"/>
<path class="st7" d="M182.7,131.2h-0.5v1h-0.5v-2.6h0.9c0.3,0,0.5,0.1,0.7,0.2c0.2,0.1,0.2,0.3,0.2,0.6c0,0.2,0,0.3-0.1,0.4
	c-0.1,0.1-0.2,0.2-0.4,0.3l0.6,1.1v0h-0.5L182.7,131.2z M182.1,130.9h0.5c0.2,0,0.3,0,0.4-0.1c0.1-0.1,0.1-0.2,0.1-0.3
	c0-0.1,0-0.2-0.1-0.3c-0.1-0.1-0.2-0.1-0.4-0.1h-0.5V130.9z"/>
<path class="st7" d="M185.5,131.1h-1.1v0.8h1.3v0.4H184v-2.6h1.7v0.4h-1.2v0.7h1.1V131.1z"/>
<path class="st7" d="M187.5,131.6h-1l-0.2,0.6h-0.5l1-2.6h0.4l1,2.6h-0.5L187.5,131.6z M186.7,131.3h0.8l-0.4-1.1L186.7,131.3z"/>
<path class="st7" d="M188.5,132.2v-2.6h0.8c0.2,0,0.4,0.1,0.6,0.2c0.2,0.1,0.3,0.2,0.4,0.4c0.1,0.2,0.1,0.4,0.1,0.7v0.1
	c0,0.2,0,0.5-0.1,0.7c-0.1,0.2-0.2,0.3-0.4,0.4c-0.2,0.1-0.4,0.2-0.6,0.2H188.5z M189,130v1.9h0.3c0.2,0,0.4-0.1,0.5-0.2
	c0.1-0.1,0.2-0.4,0.2-0.6v-0.1c0-0.3-0.1-0.5-0.2-0.7c-0.1-0.1-0.3-0.2-0.5-0.2H189z"/>
<path class="st7" d="M192.4,129.6l0.8,2l0.8-2h0.6v2.6h-0.5v-0.9l0-1.2l-0.8,2H193l-0.8-2l0,1.2v0.9h-0.5v-2.6H192.4z"/>
<path class="st7" d="M197.2,131c0,0.3,0,0.5-0.1,0.7c-0.1,0.2-0.2,0.3-0.4,0.4c-0.2,0.1-0.4,0.2-0.6,0.2c-0.2,0-0.4-0.1-0.6-0.2
	c-0.2-0.1-0.3-0.3-0.4-0.4c-0.1-0.2-0.1-0.4-0.1-0.7v-0.1c0-0.3,0-0.5,0.1-0.7c0.1-0.2,0.2-0.3,0.4-0.4c0.2-0.1,0.4-0.2,0.6-0.2
	c0.2,0,0.4,0.1,0.6,0.2c0.2,0.1,0.3,0.2,0.4,0.4c0.1,0.2,0.1,0.4,0.1,0.7V131z M196.7,130.9c0-0.3-0.1-0.5-0.2-0.7
	c-0.1-0.2-0.3-0.2-0.5-0.2c-0.2,0-0.3,0.1-0.5,0.2c-0.1,0.2-0.2,0.4-0.2,0.7v0.2c0,0.3,0.1,0.5,0.2,0.7c0.1,0.2,0.3,0.2,0.5,0.2
	c0.2,0,0.4-0.1,0.5-0.2c0.1-0.2,0.2-0.4,0.2-0.7V130.9z"/>
<path class="st7" d="M198.6,131.2h-0.5v1h-0.5v-2.6h0.9c0.3,0,0.5,0.1,0.7,0.2c0.2,0.1,0.2,0.3,0.2,0.6c0,0.2,0,0.3-0.1,0.4
	c-0.1,0.1-0.2,0.2-0.4,0.3l0.6,1.1v0h-0.5L198.6,131.2z M198.1,130.9h0.5c0.2,0,0.3,0,0.4-0.1c0.1-0.1,0.1-0.2,0.1-0.3
	c0-0.1,0-0.2-0.1-0.3c-0.1-0.1-0.2-0.1-0.4-0.1h-0.5V130.9z"/>
<path class="st7" d="M201.4,131.1h-1.1v0.8h1.3v0.4h-1.7v-2.6h1.7v0.4h-1.2v0.7h1.1V131.1z"/>
<path class="st8" d="M204.7,130.8c0,0.7,0.3,1.4,0.8,1.9c0.5,0.5,1.2,0.8,1.9,0.8c0.7,0,1.4-0.3,1.9-0.8c0.5-0.5,0.8-1.2,0.8-1.9
	c0-0.7-0.3-1.4-0.8-1.9s-1.2-0.8-1.9-0.8c-0.7,0-1.4,0.3-1.9,0.8C205,129.4,204.7,130.1,204.7,130.8L204.7,130.8z M210.4,130.8
	c0,0.8-0.3,1.6-0.9,2.1s-1.3,0.9-2.1,0.9s-1.6-0.3-2.1-0.9s-0.9-1.3-0.9-2.1s0.3-1.6,0.9-2.1s1.3-0.9,2.1-0.9s1.6,0.3,2.1,0.9
	S210.4,130,210.4,130.8L210.4,130.8z M206,130.6c-0.1,0-0.1,0-0.1,0.1c0,0-0.1,0.1-0.1,0.1s0,0.1,0.1,0.1c0,0,0.1,0.1,0.1,0.1h2.2
	l-0.8,0.8c0,0,0,0,0,0.1c0,0,0,0,0,0.1c0,0,0,0,0,0.1c0,0,0,0,0,0.1c0,0,0,0,0.1,0c0,0,0,0,0.1,0c0,0,0,0,0.1,0c0,0,0,0,0.1,0
	l1.1-1.1c0,0,0,0,0-0.1c0,0,0,0,0-0.1c0,0,0-0.1,0-0.1c0,0,0,0,0-0.1l-1.1-1.1c0,0,0,0-0.1,0c0,0,0,0-0.1,0c0,0,0,0-0.1,0
	c0,0,0,0-0.1,0c0,0,0,0,0,0.1c0,0,0,0,0,0.1c0,0,0,0,0,0.1c0,0,0,0,0,0.1l0.8,0.8H206z"/>
<path d="M139.2,23.2v2.1h-1.1v-5.6h2c0.7,0,1.2,0.2,1.5,0.5c0.3,0.3,0.5,0.7,0.5,1.3c0,0.5-0.2,1-0.5,1.3c-0.3,0.3-0.8,0.5-1.5,0.5
	H139.2z M140,22.3c0.7,0,1-0.3,1-0.9c0-0.3-0.1-0.5-0.2-0.6c-0.2-0.1-0.4-0.2-0.7-0.2h-0.8v1.7H140z"/>
<path d="M144.8,20.8c0.4,0,0.8,0.1,1.1,0.3c0.3,0.2,0.6,0.4,0.8,0.8c0.2,0.3,0.3,0.7,0.3,1.2c0,0.5-0.1,0.9-0.3,1.2
	c-0.2,0.3-0.5,0.6-0.8,0.8c-0.3,0.2-0.7,0.3-1.1,0.3c-0.4,0-0.8-0.1-1.2-0.3c-0.3-0.2-0.6-0.4-0.8-0.8c-0.2-0.3-0.3-0.7-0.3-1.2
	c0-0.5,0.1-0.9,0.3-1.2c0.2-0.3,0.5-0.6,0.8-0.8C144,20.9,144.4,20.8,144.8,20.8z M144.8,21.8c-0.3,0-0.6,0.1-0.8,0.3
	c-0.2,0.2-0.3,0.5-0.3,0.9c0,0.4,0.1,0.7,0.3,1c0.2,0.2,0.5,0.3,0.8,0.3c0.3,0,0.6-0.1,0.8-0.3c0.2-0.2,0.3-0.5,0.3-1
	c0-0.4-0.1-0.7-0.3-0.9C145.4,21.9,145.1,21.8,144.8,21.8z"/>
<path d="M149.3,20.8c0.5,0,1,0.1,1.3,0.4c0.3,0.3,0.5,0.6,0.6,1.1h-1c0-0.2-0.1-0.4-0.3-0.5c-0.1-0.1-0.3-0.2-0.6-0.2
	c-0.2,0-0.3,0-0.4,0.1c-0.1,0.1-0.2,0.2-0.2,0.4c0,0.1,0,0.2,0.1,0.3c0.1,0.1,0.2,0.1,0.3,0.2c0.1,0,0.3,0.1,0.5,0.1
	c0.3,0.1,0.6,0.2,0.8,0.2c0.2,0.1,0.4,0.2,0.5,0.4c0.2,0.2,0.2,0.4,0.2,0.7c0,0.4-0.1,0.7-0.4,0.9c-0.3,0.2-0.7,0.3-1.2,0.3
	c-0.6,0-1-0.1-1.4-0.4c-0.3-0.3-0.5-0.6-0.6-1.1h1.1c0,0.2,0.1,0.4,0.3,0.5c0.2,0.1,0.4,0.2,0.6,0.2c0.2,0,0.3,0,0.4-0.1
	c0.1-0.1,0.1-0.2,0.1-0.4c0-0.1,0-0.2-0.1-0.3c-0.1-0.1-0.2-0.1-0.3-0.2c-0.1,0-0.3-0.1-0.5-0.1c-0.3-0.1-0.6-0.1-0.8-0.2
	c-0.2-0.1-0.4-0.2-0.5-0.4c-0.1-0.2-0.2-0.4-0.2-0.7c0-0.4,0.1-0.7,0.4-0.9C148.4,20.9,148.8,20.8,149.3,20.8z"/>
<path d="M154.4,24.3v1h-0.6c-0.5,0-0.9-0.1-1.1-0.4c-0.3-0.2-0.4-0.6-0.4-1.2v-1.9h-0.6v-0.9h0.6v-1.1h1.1v1.1h1v0.9h-1v1.9
	c0,0.2,0,0.4,0.1,0.4c0.1,0.1,0.2,0.1,0.4,0.1H154.4z"/>
<path d="M159.5,19.6c0.7,0,1.2,0.2,1.7,0.5c0.4,0.3,0.7,0.8,0.9,1.3h-1.2c-0.1-0.3-0.3-0.5-0.5-0.6c-0.2-0.2-0.5-0.2-0.8-0.2
	c-0.3,0-0.6,0.1-0.9,0.2c-0.2,0.1-0.4,0.4-0.6,0.6c-0.1,0.3-0.2,0.6-0.2,1c0,0.6,0.2,1,0.5,1.4c0.3,0.3,0.7,0.5,1.3,0.5
	c0.4,0,0.7-0.1,1-0.4c0.3-0.2,0.5-0.6,0.6-1h-1.9v-0.8h2.8v1.1c-0.1,0.4-0.2,0.7-0.5,1c-0.2,0.3-0.5,0.6-0.9,0.7
	c-0.4,0.2-0.8,0.3-1.3,0.3c-0.5,0-1-0.1-1.5-0.4c-0.4-0.2-0.7-0.6-1-1c-0.2-0.4-0.3-0.9-0.3-1.5c0-0.6,0.1-1,0.3-1.5
	c0.2-0.4,0.6-0.8,1-1C158.5,19.7,159,19.6,159.5,19.6z"/>
<path d="M164.1,21.7c0.2-0.3,0.4-0.5,0.6-0.7c0.3-0.2,0.6-0.2,0.9-0.2V22h-0.3c-0.8,0-1.2,0.4-1.2,1.1v2.1H163v-4.4h1.1V21.7z"/>
<path d="M166.2,19.6c0-0.2,0.1-0.3,0.2-0.4c0.1-0.1,0.3-0.2,0.5-0.2c0.2,0,0.4,0.1,0.5,0.2c0.1,0.1,0.2,0.3,0.2,0.4
	c0,0.2-0.1,0.3-0.2,0.4c-0.1,0.1-0.3,0.2-0.5,0.2c-0.2,0-0.4-0.1-0.5-0.2C166.2,19.9,166.2,19.8,166.2,19.6z M167.4,20.9v4.4h-1.1
	v-4.4H167.4z"/>
<path d="M170.1,20.8c0.4,0,0.7,0.1,0.9,0.3c0.3,0.2,0.5,0.4,0.6,0.7v-2.4h1.1v5.8h-1.1v-0.9c-0.1,0.3-0.3,0.5-0.6,0.7
	c-0.3,0.2-0.6,0.3-0.9,0.3c-0.4,0-0.7-0.1-1-0.3c-0.3-0.2-0.5-0.4-0.7-0.8c-0.2-0.3-0.2-0.7-0.2-1.2c0-0.5,0.1-0.9,0.2-1.2
	c0.2-0.3,0.4-0.6,0.7-0.8C169.4,20.9,169.8,20.8,170.1,20.8z M170.5,21.8c-0.3,0-0.6,0.1-0.8,0.3c-0.2,0.2-0.3,0.5-0.3,0.9
	c0,0.4,0.1,0.7,0.3,0.9c0.2,0.2,0.5,0.3,0.8,0.3c0.3,0,0.6-0.1,0.8-0.3c0.2-0.2,0.3-0.5,0.3-0.9c0-0.4-0.1-0.7-0.3-0.9
	C171.1,21.9,170.8,21.8,170.5,21.8z"/>
<path d="M179.3,23.7c0,0.3-0.1,0.5-0.2,0.8c-0.1,0.2-0.4,0.4-0.6,0.6c-0.3,0.1-0.6,0.2-1,0.2c-0.4,0-0.7-0.1-1.1-0.2
	c-0.3-0.1-0.6-0.3-0.7-0.6c-0.2-0.3-0.3-0.5-0.3-0.9h1.2c0,0.2,0.1,0.4,0.3,0.6c0.2,0.1,0.4,0.2,0.6,0.2c0.2,0,0.4-0.1,0.5-0.2
	c0.1-0.1,0.2-0.3,0.2-0.5c0-0.2-0.1-0.3-0.1-0.4c-0.1-0.1-0.2-0.2-0.4-0.3c-0.2-0.1-0.4-0.1-0.6-0.2c-0.3-0.1-0.6-0.2-0.9-0.3
	c-0.2-0.1-0.4-0.3-0.6-0.5c-0.2-0.2-0.2-0.5-0.2-0.8c0-0.5,0.2-0.9,0.5-1.1c0.3-0.3,0.8-0.4,1.4-0.4c0.6,0,1.1,0.1,1.4,0.4
	c0.4,0.3,0.6,0.7,0.6,1.1H178c0-0.2-0.1-0.4-0.3-0.5c-0.1-0.1-0.3-0.2-0.6-0.2c-0.2,0-0.4,0.1-0.5,0.2c-0.1,0.1-0.2,0.3-0.2,0.5
	c0,0.2,0,0.3,0.1,0.4c0.1,0.1,0.2,0.2,0.4,0.3c0.2,0.1,0.4,0.1,0.6,0.2c0.4,0.1,0.6,0.2,0.9,0.4c0.2,0.1,0.4,0.3,0.6,0.5
	C179.2,23.1,179.3,23.4,179.3,23.7z"/>
<path d="M182.4,24.3v1h-0.6c-0.5,0-0.9-0.1-1.1-0.4c-0.3-0.2-0.4-0.6-0.4-1.2v-1.9h-0.6v-0.9h0.6v-1.1h1.1v1.1h1v0.9h-1v1.9
	c0,0.2,0,0.4,0.1,0.4c0.1,0.1,0.2,0.1,0.4,0.1H182.4z"/>
<path d="M184,20.9l1.2,3l1.1-3h1.2l-2.7,6.5h-1.2l1-2.2l-1.8-4.2H184z"/>
<path d="M189.1,19.4v5.8H188v-5.8H189.1z"/>
<path d="M194.3,22.9c0,0.1,0,0.2,0,0.4H191c0,0.4,0.1,0.7,0.3,0.9c0.2,0.2,0.4,0.3,0.7,0.3c0.3,0,0.5-0.1,0.6-0.2
	c0.2-0.1,0.3-0.3,0.3-0.5h1.2c-0.1,0.3-0.2,0.6-0.4,0.8c-0.2,0.2-0.4,0.4-0.7,0.6c-0.3,0.1-0.6,0.2-1,0.2c-0.4,0-0.8-0.1-1.1-0.3
	c-0.3-0.2-0.6-0.4-0.8-0.8c-0.2-0.3-0.3-0.7-0.3-1.2c0-0.5,0.1-0.9,0.3-1.2c0.2-0.3,0.4-0.6,0.8-0.8c0.3-0.2,0.7-0.3,1.1-0.3
	c0.4,0,0.8,0.1,1.1,0.3c0.3,0.2,0.6,0.4,0.8,0.7C194.2,22.1,194.3,22.5,194.3,22.9z M193.1,22.8c0-0.4-0.1-0.6-0.3-0.8
	c-0.2-0.2-0.4-0.3-0.7-0.3c-0.3,0-0.6,0.1-0.8,0.3c-0.2,0.2-0.3,0.5-0.3,0.8H193.1z"/>
<path class="st3" d="M100.9,34.5c0,0.3-0.2,0.6-0.4,0.7c-0.2,0.2-0.5,0.3-0.8,0.3c-0.4,0-0.6-0.1-0.9-0.4c-0.2-0.3-0.3-0.6-0.3-1
	v-0.3c0-0.3,0-0.5,0.1-0.7c0.1-0.2,0.2-0.4,0.4-0.5c0.2-0.1,0.4-0.2,0.6-0.2c0.3,0,0.6,0.1,0.8,0.3c0.2,0.2,0.3,0.4,0.3,0.7h-0.4
	c0-0.2-0.1-0.4-0.2-0.5c-0.1-0.1-0.3-0.2-0.5-0.2c-0.3,0-0.4,0.1-0.6,0.3c-0.1,0.2-0.2,0.5-0.2,0.8v0.3c0,0.3,0.1,0.6,0.2,0.8
	c0.1,0.2,0.3,0.3,0.6,0.3c0.2,0,0.4,0,0.5-0.1c0.1-0.1,0.2-0.3,0.2-0.5H100.9z"/>
<path class="st3" d="M103.3,35l0.4-1.7h0.4l-0.6,2.2h-0.3l-0.5-1.7l-0.5,1.7h-0.3l-0.6-2.2h0.4l0.4,1.7l0.5-1.7h0.3L103.3,35z"/>
<path class="st3" d="M104.9,33.5c0.2-0.2,0.4-0.3,0.7-0.3c0.5,0,0.7,0.3,0.7,0.8v1.5h-0.4V34c0-0.2,0-0.3-0.1-0.4
	c-0.1-0.1-0.2-0.1-0.3-0.1c-0.1,0-0.2,0-0.3,0.1c-0.1,0.1-0.2,0.2-0.2,0.3v1.6h-0.4v-3.2h0.4V33.5z"/>
<path class="st3" d="M107.8,35.5c-0.3,0-0.5-0.1-0.7-0.3c-0.2-0.2-0.3-0.5-0.3-0.8v-0.1c0-0.2,0-0.4,0.1-0.6
	c0.1-0.2,0.2-0.3,0.4-0.4c0.2-0.1,0.3-0.1,0.5-0.1c0.3,0,0.5,0.1,0.7,0.3c0.2,0.2,0.2,0.5,0.2,0.8v0.2h-1.5c0,0.2,0.1,0.4,0.2,0.5
	c0.1,0.1,0.3,0.2,0.5,0.2c0.1,0,0.2,0,0.3-0.1c0.1-0.1,0.2-0.1,0.2-0.2l0.2,0.2C108.4,35.4,108.1,35.5,107.8,35.5z M107.7,33.5
	c-0.2,0-0.3,0.1-0.4,0.2c-0.1,0.1-0.2,0.3-0.2,0.5h1.1v0c0-0.2-0.1-0.3-0.2-0.4C108,33.6,107.9,33.5,107.7,33.5z"/>
<path class="st3" d="M109.4,33.3l0,0.3c0.2-0.2,0.4-0.3,0.7-0.3c0.5,0,0.7,0.3,0.7,0.8v1.5h-0.4V34c0-0.2,0-0.3-0.1-0.4
	c-0.1-0.1-0.2-0.1-0.3-0.1c-0.1,0-0.2,0-0.3,0.1c-0.1,0.1-0.2,0.2-0.2,0.3v1.6h-0.4v-2.2H109.4z"/>
<path class="st3" d="M114.2,34.7h-1.3l-0.3,0.8h-0.4l1.1-3h0.3l1.1,3h-0.4L114.2,34.7z M113,34.4h1l-0.5-1.4L113,34.4z"/>
<path class="st3" d="M115.6,33.3l0,0.3c0.2-0.2,0.4-0.3,0.7-0.3c0.5,0,0.7,0.3,0.7,0.8v1.5h-0.4V34c0-0.2,0-0.3-0.1-0.4
	c-0.1-0.1-0.2-0.1-0.3-0.1c-0.1,0-0.2,0-0.3,0.1c-0.1,0.1-0.2,0.2-0.2,0.3v1.6h-0.4v-2.2H115.6z"/>
<path class="st3" d="M120.7,32.5v2c0,0.3-0.1,0.5-0.3,0.7c-0.2,0.2-0.4,0.3-0.7,0.3l-0.1,0c-0.3,0-0.6-0.1-0.8-0.3
	c-0.2-0.2-0.3-0.4-0.3-0.7v-2h0.4v2c0,0.2,0.1,0.4,0.2,0.5c0.1,0.1,0.3,0.2,0.5,0.2c0.2,0,0.4-0.1,0.5-0.2c0.1-0.1,0.2-0.3,0.2-0.5
	v-2H120.7z"/>
<path class="st3" d="M121.6,33.3l0,0.3c0.2-0.2,0.4-0.3,0.7-0.3c0.5,0,0.7,0.3,0.7,0.8v1.5h-0.4V34c0-0.2,0-0.3-0.1-0.4
	c-0.1-0.1-0.2-0.1-0.3-0.1c-0.1,0-0.2,0-0.3,0.1c-0.1,0.1-0.2,0.2-0.2,0.3v1.6h-0.4v-2.2H121.6z"/>
<path class="st3" d="M124.2,34.5l-0.2,0.2v0.8h-0.4v-3.2h0.4v1.9l0.2-0.2l0.7-0.7h0.5l-0.9,0.9l1,1.3H125L124.2,34.5z"/>
<path class="st3" d="M126.1,33.3l0,0.3c0.2-0.2,0.4-0.3,0.7-0.3c0.5,0,0.7,0.3,0.7,0.8v1.5h-0.4V34c0-0.2,0-0.3-0.1-0.4
	c-0.1-0.1-0.2-0.1-0.3-0.1c-0.1,0-0.2,0-0.3,0.1c-0.1,0.1-0.2,0.2-0.2,0.3v1.6h-0.4v-2.2H126.1z"/>
<path class="st3" d="M128,34.4c0-0.2,0-0.4,0.1-0.6c0.1-0.2,0.2-0.3,0.4-0.4c0.2-0.1,0.3-0.1,0.5-0.1c0.3,0,0.5,0.1,0.7,0.3
	c0.2,0.2,0.3,0.5,0.3,0.8v0c0,0.2,0,0.4-0.1,0.6c-0.1,0.2-0.2,0.3-0.4,0.4c-0.2,0.1-0.3,0.1-0.5,0.1c-0.3,0-0.5-0.1-0.7-0.3
	C128.1,35,128,34.7,128,34.4L128,34.4z M128.3,34.4c0,0.2,0.1,0.4,0.2,0.6c0.1,0.1,0.3,0.2,0.5,0.2c0.2,0,0.3-0.1,0.5-0.2
	c0.1-0.2,0.2-0.4,0.2-0.6c0-0.2-0.1-0.4-0.2-0.6c-0.1-0.2-0.3-0.2-0.5-0.2c-0.2,0-0.3,0.1-0.5,0.2C128.4,33.9,128.3,34.1,128.3,34.4
	z"/>
<path class="st3" d="M132.4,35l0.4-1.7h0.4l-0.6,2.2h-0.3l-0.5-1.7l-0.5,1.7h-0.3l-0.6-2.2h0.4l0.4,1.7l0.5-1.7h0.3L132.4,35z"/>
<path class="st3" d="M134,33.3l0,0.3c0.2-0.2,0.4-0.3,0.7-0.3c0.5,0,0.7,0.3,0.7,0.8v1.5H135V34c0-0.2,0-0.3-0.1-0.4
	c-0.1-0.1-0.2-0.1-0.3-0.1c-0.1,0-0.2,0-0.3,0.1c-0.1,0.1-0.2,0.2-0.2,0.3v1.6h-0.4v-2.2H134z"/>
<path class="st3" d="M137.4,34.3v1.2H137v-3h1.1c0.3,0,0.6,0.1,0.8,0.3c0.2,0.2,0.3,0.4,0.3,0.7c0,0.3-0.1,0.5-0.3,0.7
	c-0.2,0.2-0.4,0.2-0.8,0.2H137.4z M137.4,34h0.7c0.2,0,0.4,0,0.5-0.1c0.1-0.1,0.2-0.2,0.2-0.4c0-0.2-0.1-0.3-0.2-0.4
	s-0.3-0.2-0.5-0.2h-0.7V34z"/>
<path class="st3" d="M140.7,33.6c-0.1,0-0.1,0-0.2,0c-0.2,0-0.4,0.1-0.5,0.3v1.6h-0.4v-2.2h0.4l0,0.3c0.1-0.2,0.3-0.3,0.5-0.3
	c0.1,0,0.1,0,0.2,0V33.6z"/>
<path class="st3" d="M141.5,35.5h-0.4v-2.2h0.4V35.5z M141.1,32.7c0-0.1,0-0.1,0.1-0.2c0,0,0.1-0.1,0.2-0.1s0.1,0,0.2,0.1
	c0,0,0.1,0.1,0.1,0.2c0,0.1,0,0.1-0.1,0.2c0,0-0.1,0.1-0.2,0.1s-0.1,0-0.2-0.1C141.1,32.8,141.1,32.7,141.1,32.7z"/>
<path class="st3" d="M142.4,33.3l0,0.3c0.2-0.2,0.4-0.3,0.7-0.3c0.5,0,0.7,0.3,0.7,0.8v1.5h-0.4V34c0-0.2,0-0.3-0.1-0.4
	c-0.1-0.1-0.2-0.1-0.3-0.1c-0.1,0-0.2,0-0.3,0.1c-0.1,0.1-0.2,0.2-0.2,0.3v1.6h-0.4v-2.2H142.4z"/>
<path class="st3" d="M144.9,32.7v0.5h0.4v0.3h-0.4v1.4c0,0.1,0,0.2,0.1,0.2c0,0,0.1,0.1,0.2,0.1c0,0,0.1,0,0.2,0v0.3
	c-0.1,0-0.2,0-0.3,0c-0.2,0-0.3-0.1-0.4-0.2s-0.1-0.2-0.1-0.4v-1.4h-0.4v-0.3h0.4v-0.5H144.9z"/>
<path class="st3" d="M146.7,35.5c-0.3,0-0.5-0.1-0.7-0.3c-0.2-0.2-0.3-0.5-0.3-0.8v-0.1c0-0.2,0-0.4,0.1-0.6
	c0.1-0.2,0.2-0.3,0.4-0.4c0.2-0.1,0.3-0.1,0.5-0.1c0.3,0,0.5,0.1,0.7,0.3c0.2,0.2,0.2,0.5,0.2,0.8v0.2h-1.5c0,0.2,0.1,0.4,0.2,0.5
	c0.1,0.1,0.3,0.2,0.5,0.2c0.1,0,0.2,0,0.3-0.1c0.1-0.1,0.2-0.1,0.2-0.2l0.2,0.2C147.4,35.4,147.1,35.5,146.7,35.5z M146.7,33.5
	c-0.2,0-0.3,0.1-0.4,0.2c-0.1,0.1-0.2,0.3-0.2,0.5h1.1v0c0-0.2-0.1-0.3-0.2-0.4C146.9,33.6,146.8,33.5,146.7,33.5z"/>
<path class="st3" d="M149.1,33.6c-0.1,0-0.1,0-0.2,0c-0.2,0-0.4,0.1-0.5,0.3v1.6H148v-2.2h0.4l0,0.3c0.1-0.2,0.3-0.3,0.5-0.3
	c0.1,0,0.1,0,0.2,0V33.6z"/>
<path class="st3" d="M152.5,32.8h-1v2.7h-0.4v-2.7h-1v-0.3h2.3V32.8z"/>
<path class="st3" d="M152.6,34.4c0-0.2,0-0.4,0.1-0.6c0.1-0.2,0.2-0.3,0.4-0.4c0.2-0.1,0.3-0.1,0.5-0.1c0.3,0,0.5,0.1,0.7,0.3
	c0.2,0.2,0.3,0.5,0.3,0.8v0c0,0.2,0,0.4-0.1,0.6c-0.1,0.2-0.2,0.3-0.4,0.4c-0.2,0.1-0.3,0.1-0.5,0.1c-0.3,0-0.5-0.1-0.7-0.3
	C152.7,35,152.6,34.7,152.6,34.4L152.6,34.4z M153,34.4c0,0.2,0.1,0.4,0.2,0.6c0.1,0.1,0.3,0.2,0.5,0.2c0.2,0,0.3-0.1,0.5-0.2
	c0.1-0.2,0.2-0.4,0.2-0.6c0-0.2-0.1-0.4-0.2-0.6c-0.1-0.2-0.3-0.2-0.5-0.2c-0.2,0-0.3,0.1-0.5,0.2C153,33.9,153,34.1,153,34.4z"/>
<path class="st3" d="M155,34.4c0-0.2,0-0.4,0.1-0.6c0.1-0.2,0.2-0.3,0.4-0.4c0.2-0.1,0.3-0.1,0.5-0.1c0.3,0,0.5,0.1,0.7,0.3
	c0.2,0.2,0.3,0.5,0.3,0.8v0c0,0.2,0,0.4-0.1,0.6c-0.1,0.2-0.2,0.3-0.4,0.4c-0.2,0.1-0.3,0.1-0.5,0.1c-0.3,0-0.5-0.1-0.7-0.3
	C155.1,35,155,34.7,155,34.4L155,34.4z M155.4,34.4c0,0.2,0.1,0.4,0.2,0.6c0.1,0.1,0.3,0.2,0.5,0.2c0.2,0,0.3-0.1,0.5-0.2
	c0.1-0.2,0.2-0.4,0.2-0.6c0-0.2-0.1-0.4-0.2-0.6c-0.1-0.2-0.3-0.2-0.5-0.2c-0.2,0-0.3,0.1-0.5,0.2C155.4,33.9,155.4,34.1,155.4,34.4
	z"/>
<path class="st3" d="M158.1,34.5l-0.2,0.2v0.8h-0.4v-3.2h0.4v1.9l0.2-0.2l0.7-0.7h0.5l-0.9,0.9l1,1.3h-0.4L158.1,34.5z"/>
<path class="st3" d="M162.4,34.7h-1.3l-0.3,0.8h-0.4l1.1-3h0.3l1.1,3h-0.4L162.4,34.7z M161.3,34.4h1l-0.5-1.4L161.3,34.4z"/>
<path class="st3" d="M166.7,35.1c-0.1,0.1-0.2,0.3-0.4,0.3c-0.2,0.1-0.4,0.1-0.6,0.1c-0.2,0-0.5-0.1-0.6-0.2
	c-0.2-0.1-0.3-0.3-0.4-0.5c-0.1-0.2-0.2-0.5-0.2-0.7v-0.3c0-0.5,0.1-0.8,0.3-1c0.2-0.2,0.5-0.4,0.9-0.4c0.3,0,0.6,0.1,0.8,0.2
	c0.2,0.2,0.3,0.4,0.3,0.7h-0.4c-0.1-0.4-0.3-0.6-0.7-0.6c-0.3,0-0.5,0.1-0.6,0.3c-0.1,0.2-0.2,0.5-0.2,0.8v0.2
	c0,0.3,0.1,0.6,0.2,0.8c0.2,0.2,0.4,0.3,0.6,0.3c0.1,0,0.3,0,0.4,0c0.1,0,0.2-0.1,0.3-0.2v-0.7h-0.7V34h1.1V35.1z"/>
<path class="st3" d="M168.7,35.5c0,0,0-0.1-0.1-0.2c-0.2,0.2-0.4,0.3-0.6,0.3c-0.2,0-0.4-0.1-0.5-0.2c-0.1-0.1-0.2-0.3-0.2-0.5
	c0-0.2,0.1-0.4,0.3-0.5c0.2-0.1,0.4-0.2,0.7-0.2h0.4V34c0-0.1,0-0.2-0.1-0.3c-0.1-0.1-0.2-0.1-0.4-0.1c-0.1,0-0.2,0-0.3,0.1
	c-0.1,0.1-0.1,0.2-0.1,0.2h-0.4c0-0.1,0-0.2,0.1-0.3c0.1-0.1,0.2-0.2,0.3-0.2c0.1-0.1,0.3-0.1,0.4-0.1c0.3,0,0.5,0.1,0.6,0.2
	c0.1,0.1,0.2,0.3,0.2,0.5v1c0,0.2,0,0.4,0.1,0.5v0H168.7z M168.1,35.2c0.1,0,0.2,0,0.3-0.1c0.1-0.1,0.2-0.1,0.2-0.2v-0.5h-0.3
	c-0.5,0-0.7,0.1-0.7,0.4c0,0.1,0,0.2,0.1,0.3C167.9,35.2,168,35.2,168.1,35.2z"/>
<path class="st3" d="M170,35.5h-0.4v-3.2h0.4V35.5z"/>
<path class="st3" d="M171.1,35.5h-0.4v-3.2h0.4V35.5z"/>
<path class="st3" d="M172.6,35.5c-0.3,0-0.5-0.1-0.7-0.3c-0.2-0.2-0.3-0.5-0.3-0.8v-0.1c0-0.2,0-0.4,0.1-0.6
	c0.1-0.2,0.2-0.3,0.4-0.4c0.2-0.1,0.3-0.1,0.5-0.1c0.3,0,0.5,0.1,0.7,0.3c0.2,0.2,0.2,0.5,0.2,0.8v0.2H172c0,0.2,0.1,0.4,0.2,0.5
	c0.1,0.1,0.3,0.2,0.5,0.2c0.1,0,0.2,0,0.3-0.1c0.1-0.1,0.2-0.1,0.2-0.2l0.2,0.2C173.2,35.4,173,35.5,172.6,35.5z M172.5,33.5
	c-0.2,0-0.3,0.1-0.4,0.2c-0.1,0.1-0.2,0.3-0.2,0.5h1.1v0c0-0.2-0.1-0.3-0.2-0.4C172.8,33.6,172.7,33.5,172.5,33.5z"/>
<path class="st3" d="M174.6,34.9l0.5-1.7h0.4l-0.9,2.6c-0.1,0.4-0.4,0.6-0.7,0.6l-0.1,0l-0.1,0V36l0.1,0c0.1,0,0.2,0,0.3-0.1
	c0.1-0.1,0.1-0.1,0.2-0.3l0.1-0.2l-0.8-2.2h0.4L174.6,34.9z"/>
<path class="st3" d="M179.3,34.1c0,0.3-0.1,0.5-0.1,0.8c-0.1,0.2-0.2,0.4-0.4,0.5c-0.2,0.1-0.4,0.2-0.6,0.2c-0.2,0-0.4-0.1-0.6-0.2
	c-0.2-0.1-0.3-0.3-0.4-0.5c-0.1-0.2-0.2-0.5-0.2-0.7v-0.2c0-0.3,0.1-0.5,0.2-0.8c0.1-0.2,0.2-0.4,0.4-0.5c0.2-0.1,0.4-0.2,0.6-0.2
	c0.2,0,0.5,0.1,0.6,0.2c0.2,0.1,0.3,0.3,0.4,0.5c0.1,0.2,0.1,0.5,0.1,0.8V34.1z M178.9,33.9c0-0.4-0.1-0.6-0.2-0.8
	c-0.1-0.2-0.3-0.3-0.6-0.3c-0.2,0-0.4,0.1-0.6,0.3c-0.1,0.2-0.2,0.5-0.2,0.8v0.2c0,0.3,0.1,0.6,0.2,0.8c0.1,0.2,0.3,0.3,0.6,0.3
	c0.3,0,0.5-0.1,0.6-0.3c0.1-0.2,0.2-0.5,0.2-0.8V33.9z"/>
<path class="st3" d="M180,35.5v-1.9h-0.4v-0.3h0.4V33c0-0.2,0.1-0.4,0.2-0.6c0.1-0.1,0.3-0.2,0.5-0.2c0.1,0,0.2,0,0.3,0l0,0.3
	c-0.1,0-0.1,0-0.2,0c-0.1,0-0.2,0-0.3,0.1c-0.1,0.1-0.1,0.2-0.1,0.3v0.2h0.5v0.3h-0.5v1.9H180z"/>
<path class="st3" d="M184.4,32.8h-1v2.7H183v-2.7h-1v-0.3h2.3V32.8z"/>
<path class="st3" d="M185.3,34.9l0.5-1.7h0.4l-0.9,2.6c-0.1,0.4-0.4,0.6-0.7,0.6l-0.1,0l-0.1,0V36l0.1,0c0.1,0,0.2,0,0.3-0.1
	c0.1-0.1,0.1-0.1,0.2-0.3l0.1-0.2l-0.8-2.2h0.4L185.3,34.9z"/>
<path class="st3" d="M188.5,34.4c0,0.3-0.1,0.6-0.2,0.8c-0.2,0.2-0.4,0.3-0.6,0.3c-0.3,0-0.5-0.1-0.6-0.3v1.1h-0.4v-3.1h0.3l0,0.2
	c0.2-0.2,0.4-0.3,0.6-0.3c0.3,0,0.5,0.1,0.6,0.3C188.4,33.7,188.5,34,188.5,34.4L188.5,34.4z M188.1,34.4c0-0.3-0.1-0.4-0.2-0.6
	c-0.1-0.1-0.3-0.2-0.4-0.2c-0.2,0-0.4,0.1-0.5,0.3v1.1c0.1,0.2,0.3,0.3,0.5,0.3c0.2,0,0.3-0.1,0.4-0.2
	C188,34.9,188.1,34.6,188.1,34.4z"/>
<path class="st3" d="M189.9,35.5c-0.3,0-0.5-0.1-0.7-0.3c-0.2-0.2-0.3-0.5-0.3-0.8v-0.1c0-0.2,0-0.4,0.1-0.6
	c0.1-0.2,0.2-0.3,0.4-0.4c0.2-0.1,0.3-0.1,0.5-0.1c0.3,0,0.5,0.1,0.7,0.3c0.2,0.2,0.2,0.5,0.2,0.8v0.2h-1.5c0,0.2,0.1,0.4,0.2,0.5
	c0.1,0.1,0.3,0.2,0.5,0.2c0.1,0,0.2,0,0.3-0.1c0.1-0.1,0.2-0.1,0.2-0.2l0.2,0.2C190.5,35.4,190.2,35.5,189.9,35.5z M189.8,33.5
	c-0.2,0-0.3,0.1-0.4,0.2c-0.1,0.1-0.2,0.3-0.2,0.5h1.1v0c0-0.2-0.1-0.3-0.2-0.4C190.1,33.6,190,33.5,189.8,33.5z"/>
<path class="st3" d="M193.9,34.7h-1.3l-0.3,0.8H192l1.1-3h0.3l1.1,3h-0.4L193.9,34.7z M192.8,34.4h1l-0.5-1.4L192.8,34.4z"/>
<path class="st3" d="M195.3,33.3l0,0.3c0.2-0.2,0.4-0.3,0.7-0.3c0.5,0,0.7,0.3,0.7,0.8v1.5h-0.4V34c0-0.2,0-0.3-0.1-0.4
	c-0.1-0.1-0.2-0.1-0.3-0.1c-0.1,0-0.2,0-0.3,0.1c-0.1,0.1-0.2,0.2-0.2,0.3v1.6H195v-2.2H195.3z"/>
<path class="st3" d="M197.2,34.4c0-0.3,0.1-0.6,0.2-0.8c0.2-0.2,0.4-0.3,0.6-0.3c0.3,0,0.5,0.1,0.6,0.3v-1.2h0.4v3.2h-0.3l0-0.2
	c-0.2,0.2-0.4,0.3-0.6,0.3c-0.3,0-0.5-0.1-0.6-0.3C197.3,35,197.2,34.7,197.2,34.4L197.2,34.4z M197.6,34.4c0,0.3,0.1,0.4,0.2,0.6
	c0.1,0.1,0.2,0.2,0.4,0.2c0.2,0,0.4-0.1,0.5-0.3v-1c-0.1-0.2-0.3-0.3-0.5-0.3c-0.2,0-0.3,0.1-0.4,0.2
	C197.6,33.9,197.6,34.1,197.6,34.4z"/>
<path class="st3" d="M201.6,34.2c-0.3-0.1-0.6-0.2-0.7-0.4c-0.2-0.1-0.2-0.3-0.2-0.5c0-0.2,0.1-0.4,0.3-0.6c0.2-0.2,0.4-0.2,0.7-0.2
	c0.2,0,0.4,0,0.5,0.1s0.3,0.2,0.4,0.3c0.1,0.1,0.1,0.3,0.1,0.5h-0.4c0-0.2-0.1-0.3-0.2-0.4c-0.1-0.1-0.3-0.2-0.5-0.2
	c-0.2,0-0.3,0-0.5,0.1c-0.1,0.1-0.2,0.2-0.2,0.4c0,0.1,0.1,0.2,0.2,0.3c0.1,0.1,0.3,0.2,0.5,0.2c0.2,0.1,0.4,0.1,0.6,0.2
	c0.1,0.1,0.2,0.2,0.3,0.3c0.1,0.1,0.1,0.2,0.1,0.4c0,0.2-0.1,0.4-0.3,0.6c-0.2,0.1-0.4,0.2-0.8,0.2c-0.2,0-0.4,0-0.6-0.1
	c-0.2-0.1-0.3-0.2-0.4-0.3c-0.1-0.1-0.1-0.3-0.1-0.5h0.4c0,0.2,0.1,0.3,0.2,0.4c0.1,0.1,0.3,0.2,0.5,0.2c0.2,0,0.4,0,0.5-0.1
	c0.1-0.1,0.2-0.2,0.2-0.3c0-0.1-0.1-0.3-0.2-0.3C202.1,34.3,201.9,34.2,201.6,34.2z"/>
<path class="st3" d="M204.1,35.2c0.1,0,0.3,0,0.4-0.1c0.1-0.1,0.2-0.2,0.2-0.3h0.4c0,0.1-0.1,0.2-0.1,0.4c-0.1,0.1-0.2,0.2-0.3,0.3
	c-0.1,0.1-0.3,0.1-0.4,0.1c-0.3,0-0.5-0.1-0.7-0.3c-0.2-0.2-0.3-0.5-0.3-0.8v-0.1c0-0.2,0-0.4,0.1-0.6c0.1-0.2,0.2-0.3,0.3-0.4
	c0.1-0.1,0.3-0.1,0.5-0.1c0.2,0,0.5,0.1,0.6,0.2c0.2,0.1,0.3,0.3,0.3,0.6h-0.4c0-0.1-0.1-0.3-0.2-0.4c-0.1-0.1-0.2-0.1-0.4-0.1
	c-0.2,0-0.3,0.1-0.4,0.2c-0.1,0.1-0.2,0.3-0.2,0.6v0.1c0,0.3,0.1,0.5,0.2,0.6C203.7,35.1,203.9,35.2,204.1,35.2z"/>
<path class="st3" d="M206.5,33.6c-0.1,0-0.1,0-0.2,0c-0.2,0-0.4,0.1-0.5,0.3v1.6h-0.4v-2.2h0.4l0,0.3c0.1-0.2,0.3-0.3,0.5-0.3
	c0.1,0,0.1,0,0.2,0V33.6z"/>
<path class="st3" d="M208.1,35.5c0,0,0-0.1-0.1-0.2c-0.2,0.2-0.4,0.3-0.6,0.3c-0.2,0-0.4-0.1-0.5-0.2c-0.1-0.1-0.2-0.3-0.2-0.5
	c0-0.2,0.1-0.4,0.3-0.5c0.2-0.1,0.4-0.2,0.7-0.2h0.4V34c0-0.1,0-0.2-0.1-0.3c-0.1-0.1-0.2-0.1-0.4-0.1c-0.1,0-0.2,0-0.3,0.1
	c-0.1,0.1-0.1,0.2-0.1,0.2h-0.4c0-0.1,0-0.2,0.1-0.3c0.1-0.1,0.2-0.2,0.3-0.2c0.1-0.1,0.3-0.1,0.4-0.1c0.3,0,0.5,0.1,0.6,0.2
	c0.1,0.1,0.2,0.3,0.2,0.5v1c0,0.2,0,0.4,0.1,0.5v0H208.1z M207.5,35.2c0.1,0,0.2,0,0.3-0.1c0.1-0.1,0.2-0.1,0.2-0.2v-0.5h-0.3
	c-0.5,0-0.7,0.1-0.7,0.4c0,0.1,0,0.2,0.1,0.3C207.3,35.2,207.4,35.2,207.5,35.2z"/>
<path class="st3" d="M209.4,33.3l0,0.2c0.2-0.2,0.4-0.3,0.7-0.3c0.3,0,0.5,0.1,0.6,0.4c0.1-0.1,0.2-0.2,0.3-0.3
	c0.1-0.1,0.3-0.1,0.4-0.1c0.5,0,0.7,0.3,0.7,0.8v1.5h-0.4V34c0-0.2,0-0.3-0.1-0.4c-0.1-0.1-0.2-0.1-0.4-0.1c-0.1,0-0.3,0-0.4,0.1
	c-0.1,0.1-0.1,0.2-0.2,0.3v1.5h-0.4V34c0-0.3-0.2-0.5-0.5-0.5c-0.2,0-0.4,0.1-0.5,0.3v1.6H209v-2.2H209.4z"/>
<path class="st3" d="M214.6,34.4c0,0.3-0.1,0.6-0.2,0.8c-0.2,0.2-0.4,0.3-0.6,0.3c-0.3,0-0.5-0.1-0.7-0.3l0,0.3h-0.3v-3.2h0.4v1.2
	c0.2-0.2,0.4-0.3,0.6-0.3c0.3,0,0.5,0.1,0.6,0.3C214.5,33.7,214.6,34,214.6,34.4L214.6,34.4z M214.2,34.4c0-0.3-0.1-0.5-0.1-0.6
	c-0.1-0.1-0.2-0.2-0.4-0.2c-0.2,0-0.4,0.1-0.5,0.3v1c0.1,0.2,0.3,0.3,0.5,0.3c0.2,0,0.3-0.1,0.4-0.2
	C214.2,34.9,214.2,34.6,214.2,34.4z"/>
<path class="st3" d="M215.5,35.5h-0.4v-3.2h0.4V35.5z"/>
<path class="st3" d="M217,35.5c-0.3,0-0.5-0.1-0.7-0.3c-0.2-0.2-0.3-0.5-0.3-0.8v-0.1c0-0.2,0-0.4,0.1-0.6c0.1-0.2,0.2-0.3,0.4-0.4
	c0.2-0.1,0.3-0.1,0.5-0.1c0.3,0,0.5,0.1,0.7,0.3c0.2,0.2,0.2,0.5,0.2,0.8v0.2h-1.5c0,0.2,0.1,0.4,0.2,0.5c0.1,0.1,0.3,0.2,0.5,0.2
	c0.1,0,0.2,0,0.3-0.1c0.1-0.1,0.2-0.1,0.2-0.2l0.2,0.2C217.7,35.4,217.4,35.5,217,35.5z M217,33.5c-0.2,0-0.3,0.1-0.4,0.2
	c-0.1,0.1-0.2,0.3-0.2,0.5h1.1v0c0-0.2-0.1-0.3-0.2-0.4C217.3,33.6,217.1,33.5,217,33.5z"/>
<path class="st3" d="M218.2,34.4c0-0.3,0.1-0.6,0.2-0.8c0.2-0.2,0.4-0.3,0.6-0.3c0.3,0,0.5,0.1,0.6,0.3v-1.2h0.4v3.2h-0.3l0-0.2
	c-0.2,0.2-0.4,0.3-0.6,0.3c-0.3,0-0.5-0.1-0.6-0.3C218.3,35,218.2,34.7,218.2,34.4L218.2,34.4z M218.6,34.4c0,0.3,0.1,0.4,0.2,0.6
	c0.1,0.1,0.2,0.2,0.4,0.2c0.2,0,0.4-0.1,0.5-0.3v-1c-0.1-0.2-0.3-0.3-0.5-0.3c-0.2,0-0.3,0.1-0.4,0.2
	C218.7,33.9,218.6,34.1,218.6,34.4z"/>
<path class="st3" d="M221.4,35l0.5-1.7h0.4l-0.8,2.2h-0.3l-0.8-2.2h0.4L221.4,35z"/>
<g>
	<defs>
		<rect id="SVGID_2_" x="10" y="50" width="154" height="91"/>
	</defs>
	<clipPath id="SVGID_3_">
		<use xlink:href="#SVGID_2_"  style="overflow:visible;"/>
	</clipPath>
	<g style="clip-path:url(#SVGID_3_);">
		
			<image style="overflow:visible;" width="361" height="250" xlink:href="../../../Bloooog/image 64.png"  transform="matrix(0.4738 0 0 0.4738 1.4769 36.2735)">
		</image>
	</g>
</g>
</svg>
